<?xml version="1.0" encoding="UTF-8"?>
<svg id="Layer_4" xmlns="http://www.w3.org/2000/svg" viewBox="0 0 218.05 273.77">
  <path d="M98.53,222.27c-5.91,0-11.83-.57-17.55-1.13-5.76-.56-11.71-1.14-17.3-3.22-8.38-3.12-15.05-9.28-20.65-14.81-5.8-5.73-12.38-12.7-17.18-20.96-3.27-5.63-5.88-12.03-8.48-20.78-3.08-10.38-4.61-18.92-4.8-26.88-.52-21.49,9.53-43.29,26.24-56.88,4.4-4.84,21.03-21.22,47.82-26.8,6.66-1.39,12.46-1.92,17.76-1.62,6.08.34,12.04,1.79,17.8,3.2,4.93,1.2,10.02,2.44,14.74,4.65,7,3.28,12.88,8.58,17.84,13.29,5.28,5.01,10.77,10.55,15.16,17.06,9.48,14.05,10.57,30.96,11.63,47.32l.11,1.75c.23,3.49-1.18,14.64-2.22,20.07-.21,1.11-3.9,13.05-5.84,15.55-1.82,2.34-3,5.19-4.15,7.94-1.21,2.92-2.47,5.94-4.51,8.52-4.7,5.95-10.8,11.52-18.65,17.01-13.53,9.47-26.97,14.97-39.97,16.33-2.46.26-5.01.38-7.81.38ZM83.32,220.36c5,.48,10.12.91,15.22.91,2.24,0,4.32-.08,6.32-.25-7.18.6-14.45.02-21.54-.66ZM39.71,79.45c-16.02,13.23-25.65,34.25-25.15,54.99.19,7.78,1.69,16.15,4.72,26.36,2.55,8.59,5.11,14.86,8.29,20.34,4.68,8.06,11.14,14.9,16.85,20.54,5.45,5.38,11.94,11.38,19.95,14.36,5.35,1.99,11.17,2.56,16.8,3.1,8.2.8,16.68,1.62,24.96.75,12.65-1.33,25.78-6.71,39.03-15.98,7.68-5.38,13.64-10.81,18.23-16.61,1.87-2.36,3.07-5.25,4.23-8.04,1.2-2.88,2.43-5.85,4.42-8.41,1.47-1.89,5.16-13.17,5.46-14.7,1-5.21,2.4-16.27,2.19-19.56l-.11-1.75c-1.09-16.83-2.12-32.73-11.29-46.33-4.29-6.36-9.69-11.8-14.88-16.73-4.85-4.6-10.58-9.78-17.32-12.93-4.55-2.13-9.54-3.35-14.37-4.52-5.68-1.38-11.55-2.81-17.44-3.14-5.12-.28-10.75.23-17.24,1.58-24.49,5.1-40.13,19.2-45.99,25.37l.12.15-.39.31c-.22.17-.43.34-.65.52l-.35.42-.06-.08ZM57.94,214.05c1.92,1.14,3.95,2.14,6.08,2.93,4.63,1.72,9.55,2.4,14.41,2.9-4.86-.5-9.78-1.18-14.41-2.9-2.13-.79-4.16-1.79-6.08-2.93ZM161.96,190.57c-4.12,4.69-9.2,9.16-15.4,13.58,6.21-4.42,11.28-8.89,15.4-13.58ZM13.68,128.69c-.12,1.92-.16,3.85-.12,5.78.19,7.87,1.7,16.33,4.76,26.62,2.57,8.66,5.16,15.01,8.38,20.56,1.07,1.84,2.22,3.61,3.44,5.32-1.22-1.71-2.37-3.48-3.44-5.32-3.23-5.55-5.81-11.9-8.38-20.56-3.06-10.29-4.57-18.75-4.76-26.62-.05-1.93,0-3.85.12-5.78ZM175.34,165.95c-.93,2.49-1.87,4.7-2.51,5.52-1.9,2.45-3.11,5.35-4.28,8.17-.77,1.86-1.56,3.75-2.55,5.52.99-1.77,1.78-3.67,2.54-5.52,1.17-2.82,2.38-5.73,4.28-8.17.66-.85,1.59-3.05,2.51-5.52ZM180.4,132.3c.05.82.11,1.65.16,2.48l.11,1.75c.22,3.36-1.2,14.56-2.2,19.82,0,.02,0,.04-.01.06,0-.02,0-.04.01-.06,1.03-5.38,2.43-16.4,2.2-19.82l-.11-1.75c-.05-.82-.11-1.65-.16-2.48ZM163.45,80.67c2,2.3,3.91,4.71,5.65,7.29.14.21.28.42.42.63-.14-.21-.28-.42-.42-.63-1.73-2.57-3.64-4.99-5.65-7.29ZM39.72,78.08c-.08.09-.16.17-.24.26-1.28,1.04-2.52,2.13-3.72,3.26,1.2-1.13,2.43-2.22,3.71-3.25l.28-.22-.03-.04ZM40.1,77.67s-.09.1-.14.15l.06-.06s.05-.06.08-.09ZM143.57,62.13c3.9,2.76,7.38,5.97,10.51,8.93,1.17,1.11,2.35,2.25,3.53,3.42-1.18-1.17-2.36-2.3-3.53-3.42-3.12-2.97-6.61-6.17-10.51-8.93ZM110.86,50.94c3.75.63,7.45,1.53,11.08,2.41.03,0,.07.02.1.02-.03,0-.07-.02-.1-.02-3.63-.88-7.33-1.79-11.08-2.41ZM87.99,51.55c-.39.08-.78.15-1.17.24-.24.05-.49.1-.73.16.24-.05.49-.1.73-.16.39-.08.78-.16,1.17-.24Z" style="fill: #fff;"/>
  <path d="M95.04,206.26c-12.1,0-23.98-2.76-34.37-7.98-4.49-2.26-7.81-4.5-10.47-7.07-.62-.6-1.25-1.2-1.89-1.81l-.07-.07c-6.3-6.02-12.82-12.24-15.39-20.34-2.39-7.52-13.06-46.5,11.77-75.82,7.9-9.33,36.16-39.02,67.92-29.13,8.08,2.51,17.37,5.89,25.06,11.86,15.37,11.93,25.83,28.01,29.46,45.27,5.55,26.38-6.26,55.9-28.72,71.8-12.11,8.57-27.48,13.29-43.3,13.29ZM99.48,64.06c-25.59,0-47.29,23.28-53.33,30.41-24.15,28.52-13.72,66.58-11.38,73.92,2.42,7.61,8.75,13.65,14.87,19.5.67.64,1.33,1.27,1.97,1.89,2.51,2.42,5.67,4.55,9.97,6.72,23.89,12.02,54.28,9.94,75.61-5.15,21.83-15.45,33.31-44.13,27.92-69.75-3.54-16.8-13.74-32.46-28.73-44.1-7.44-5.77-16.52-9.07-24.42-11.53-4.05-1.26-8.24-1.9-12.47-1.9ZM57.13,195.2c1.22.74,2.54,1.46,3.99,2.19.29.15.59.29.88.44-.3-.14-.59-.29-.88-.44-1.45-.73-2.77-1.46-3.99-2.19ZM57.12,195.19s0,0,0,0c0,0,0,0,0,0ZM155.61,173.48c-4.72,7.25-10.75,13.65-17.85,18.68-.54.38-1.08.75-1.63,1.11.55-.36,1.09-.74,1.63-1.11,7.1-5.03,13.13-11.43,17.85-18.68ZM52.91,192.27s0,0,0,0c0,0,0,0,0,0ZM52.9,192.26s0,0,0,0c0,0,0,0,0,0ZM49.58,189.23c.44.42.88.85,1.32,1.27.62.6,1.29,1.19,2,1.76-.71-.57-1.37-1.16-2-1.76-.44-.42-.88-.84-1.32-1.27ZM30.51,153.87c1.02,7.15,2.56,12.5,3.29,14.82,1.71,5.38,5.26,9.95,9.32,14.2-4.06-4.25-7.61-8.82-9.32-14.2-.74-2.32-2.28-7.67-3.29-14.82ZM99.48,63.06c4.33,0,8.62.65,12.77,1.94,7.99,2.49,17.18,5.82,24.74,11.7,11.1,8.62,19.6,19.41,24.78,31.25-5.17-11.84-13.68-22.63-24.78-31.25-7.56-5.87-16.75-9.21-24.74-11.7-30.66-9.54-58.12,18.64-66.46,28.34,6.64-7.72,28.22-30.29,53.69-30.29Z" style="fill: #fff;"/>
  <path d="M84.57,230.38c-2.19,0-3.74-.09-4.74-.27-8.89-1.62-13.75-7.03-18.75-13.41l-.31-.39,1.57-1.23.31.39c4.74,6.05,9.33,11.18,17.53,12.68,2.48.45,8.75.17,13.32-.04,1.74-.08,3.25-.15,4.24-.16,8.12-.11,13.76-1.5,20.9-3.26.9-.22,1.81-.45,2.75-.67,5.13-1.24,9.92-3.84,14.54-6.36,1.59-.87,3.24-1.76,4.9-2.6,18.18-9.2,30.05-28.26,39.59-43.58,2.06-3.31,3.19-7.42,4.29-11.4.46-1.67.93-3.37,1.45-4.98,2.48-7.58,4.29-13.96,3.17-21.42-2.03-13.41-6.54-23.47-13.4-29.9l-.96-.9,1.13-.68c2.5-1.52,5.84-2.08,7.26.25.14.24.27.49.4.75.21.43.4.82.66,1.02.27.21.74.31,1.15.4,2.16.46,7.31,1.19,8.43-1.91.52-1.45-.18-3.05-.93-4.74-.59-1.33-1.19-2.69-1.32-4.18-.23-2.54.96-4.77,2.1-6.92l.35-.66c2.02-3.86,4.04-9.52,2.16-14.58-.92-2.48-3.21-4.65-5.82-5.53-2.02-.68-4-.51-5.56.47-.57.36-1.1.82-1.66,1.31-.92.81-1.88,1.65-3.12,2.1-2.39.88-4.79.09-7.25-.88l-13.92-5.44c-1.67-.65-3.74-1.46-5.02-3.23-.91-1.26-1.24-2.75-1.53-4.07l-3.1-14.1c-.4-1.81-1.05-3.93-2.59-4.39-1.47-.43-3.1,1.04-3.59,2.64-.44,1.47-.3,3.08-.15,4.78.04.45.08.89.11,1.33.21,3.13-.41,5.38-1.88,6.87l-1.57,1.58-.14-2.22c-.15-2.41-.31-4.91-1.23-7.11-.75-1.79-2.38-3.84-4.68-4.23l-1.49-.25.82-1.27c1.57-2.45.48-5.8-.93-9.06-1.79-4.11-3.63-8.36-6.75-11.59-3.49-3.61-8.41-5.71-13.17-7.74-5.51-2.35-11.21-4.78-14.92-9.6-2.58.08-5.14.96-7.24,2.47-1.26,1.92-.12,4.87,1.74,6.64,1,.95,2.21,1.76,3.38,2.54,1.31.87,2.66,1.77,3.83,2.93,2.7,2.66,4,6.22,5.26,9.65,1,2.74,2.04,5.57,3.77,7.82,1.69,2.19,4.06,3.87,6.36,5.5.88.62,1.75,1.24,2.6,1.89,3.33,2.55,5.75,7.15,6.02,11.43l.03.5-2,.12-.03-.5c-.23-3.74-2.34-7.75-5.24-9.97-.82-.63-1.66-1.22-2.5-1.82-2.45-1.73-4.95-3.5-6.83-5.93-1.92-2.49-3.01-5.47-4.06-8.34-1.24-3.38-2.41-6.57-4.79-8.92-1.03-1.02-2.3-1.86-3.52-2.68-1.25-.83-2.53-1.69-3.66-2.76-2.5-2.38-4.01-6.48-1.9-9.39l.16-.17c2.64-1.96,5.83-3.02,9.06-3.02h.57s.3.41.3.41c3.37,4.65,8.72,6.93,14.4,9.35,4.94,2.11,10.05,4.29,13.83,8.19,3.37,3.49,5.38,8.1,7.15,12.18,1.43,3.3,2.57,6.76,1.39,9.77,2.09.81,3.9,2.67,4.91,5.08.5,1.18.8,2.43.99,3.66.04-.57.04-1.19,0-1.87-.03-.42-.07-.85-.1-1.28-.16-1.82-.33-3.69.22-5.54.77-2.56,3.39-4.77,6.06-3.99,2.54.75,3.46,3.53,3.98,5.88l3.1,14.09c.25,1.13.53,2.4,1.2,3.32.94,1.29,2.71,1.98,4.13,2.54l13.92,5.44c2.09.82,4.11,1.5,5.84.86.9-.33,1.67-1.01,2.49-1.73.6-.52,1.21-1.06,1.91-1.5,2.08-1.32,4.66-1.56,7.27-.68,3.21,1.08,5.91,3.66,7.05,6.73,2.14,5.75-.05,11.99-2.26,16.21l-.36.67c-1.01,1.89-2.05,3.85-1.88,5.8.1,1.16.64,2.37,1.16,3.55.87,1.98,1.78,4.02.98,6.22-1.65,4.58-8.05,3.76-10.73,3.19-.56-.12-1.33-.28-1.96-.78-.62-.49-.94-1.14-1.22-1.71-.11-.22-.2-.41-.31-.6-.57-.95-2.15-.63-3.32-.17,6.71,6.82,10.96,16.66,12.99,30.07,1.19,7.89-.67,14.51-3.24,22.34-.52,1.57-.96,3.18-1.42,4.88-1.13,4.12-2.3,8.37-4.52,11.93-9.67,15.53-21.71,34.86-40.39,44.31-1.63.82-3.26,1.71-4.84,2.57-4.74,2.58-9.64,5.24-15.03,6.55-.89.22-1.76.43-2.61.64l-.13.03c-7.26,1.79-13,3.2-21.35,3.31-.97.01-2.46.08-4.18.16-2.77.12-6.18.28-9.03.28ZM100.13,228.88c-.77.04-1.56.06-2.37.07-.98.01-2.48.08-4.21.16-.11,0-.22,0-.33.01.1,0,.2,0,.3-.01,1.75-.08,3.25-.15,4.23-.16.81-.01,1.6-.04,2.37-.07ZM107.38,228.15s0,0-.01,0c0,0,0,0,.01,0ZM112.31,227.22c-1.63.35-3.25.67-4.92.93,1.67-.26,3.29-.57,4.92-.93ZM131.77,221.01c-2.01,1.02-4.06,1.98-6.17,2.76,2.11-.78,4.16-1.74,6.17-2.76ZM64.63,219.48h0s0,0,0,0ZM62.17,216.48c.81,1.03,1.63,2.04,2.45,3-.83-.96-1.64-1.97-2.45-3h0ZM172.64,185.45c-8.11,11.89-18.04,23.77-31.35,30.5-.22.11-.45.23-.67.34.22-.12.45-.23.67-.34,13.31-6.73,23.24-18.61,31.35-30.5ZM185.87,159.68c-.06.21-.12.43-.18.64-.8,2.92-1.62,5.9-2.81,8.61,1.19-2.72,2.01-5.69,2.8-8.59.06-.22.12-.45.18-.67ZM176.62,103.05c6.81,6.38,11.36,16.21,13.51,29.23-2.12-12.88-6.39-22.3-13.02-28.76l-.48-.47s0,0,0,0h0ZM183.91,105.08c.44.29.97.41,1.45.51,1.89.4,5.82.96,8.11-.64-2.29,1.6-6.23,1.04-8.11.64-.46-.1-1.01-.21-1.45-.51ZM183.05,104.01c.18.34.37.65.65.9-.27-.25-.47-.57-.65-.9ZM182.41,102.82s.07.1.1.15c.1.16.19.33.27.51-.09-.18-.18-.35-.27-.51-.03-.05-.06-.1-.1-.15ZM180.28,101.87c-1.01,0-2.17.37-3.21.93l.16-.08c1-.5,2.15-.87,3.13-.85-.03,0-.05,0-.08,0ZM193.65,96.81c.11.25.22.5.33.75.27.6.53,1.21.75,1.82-.21-.61-.48-1.21-.75-1.81-.11-.25-.22-.5-.33-.75ZM194.31,88.13c-.93,1.78-1.75,3.61-1.57,5.57,0,.02,0,.05,0,.07,0-.02,0-.05,0-.07-.17-1.96.65-3.79,1.57-5.57ZM189.62,64.82c.41.08.82.19,1.24.33,2.89.97,5.41,3.38,6.44,6.13,1.89,5.07.16,10.62-1.81,14.62,1.97-4,3.7-9.55,1.81-14.62-1.04-2.79-3.5-5.14-6.43-6.13-.42-.14-.83-.25-1.24-.32ZM153.76,57.46c.23.84.54,1.68,1.06,2.4,1.11,1.53,3.03,2.28,4.58,2.88l13.92,5.44c2.01.79,3.97,1.45,5.82,1.08-1.84.38-3.81-.29-5.82-1.08l-13.92-5.44c-1.54-.6-3.47-1.35-4.58-2.88-.52-.71-.83-1.56-1.06-2.4ZM140.49,51.6c.03.4.05.8.08,1.2h0s0,0,0,0c0,0,0,0,0,0l-.09-1.19ZM114.37,40.82c.66.47,1.3.93,1.93,1.41,2.99,2.29,5.19,6.34,5.59,10.2h0c-.4-3.87-2.6-7.91-5.59-10.2-.63-.48-1.28-.95-1.93-1.41ZM141.65,51.14c-.07.17-.15.34-.23.5l-.03.05c.09-.18.18-.36.26-.55ZM142.14,46.39c0,.1.02.21.02.31.02.25.03.49.03.73,0-.24-.02-.48-.03-.73,0-.1-.01-.21-.02-.31ZM142.01,44.85c.02.18.03.37.05.55,0,.07.01.14.02.21,0-.07-.01-.13-.02-.2-.02-.19-.03-.37-.05-.56ZM137,42.14c1.03.93,1.8,2.13,2.26,3.23.02.05.04.1.06.15-.02-.05-.04-.1-.06-.15-.54-1.29-1.33-2.4-2.26-3.23ZM133.83,40.54h0c.18.03.35.07.52.11l-.47-.14.26-.53c1.27-2.56.4-5.66-.86-8.7,1.36,3.28,2.24,6.61.54,9.26h0ZM142.44,39.7c-.08.18-.14.36-.2.55-.02.08-.05.16-.07.24.02-.08.04-.16.07-.24.06-.18.12-.37.2-.55ZM106.07,33.06c.33.56.69,1.1,1.09,1.61,1.28,1.67,2.9,3.02,4.59,4.28-1.69-1.25-3.31-2.61-4.59-4.28-.4-.51-.75-1.05-1.09-1.61ZM146.95,36.9s.08.02.12.03c.25.07.48.17.69.29-.21-.12-.44-.22-.69-.3-.04-.01-.08-.02-.12-.03ZM102.95,25.8c.1.26.19.52.29.78.06.16.12.33.18.49-.06-.16-.12-.33-.18-.49-.1-.26-.19-.52-.29-.78ZM111.09,10.08c.48.21.96.41,1.43.61,4.85,2.07,9.87,4.21,13.5,7.97.05.05.09.1.14.15-.05-.05-.09-.1-.14-.15-3.63-3.76-8.65-5.9-13.5-7.97-.48-.21-.96-.41-1.43-.61ZM96.12,15.58c.74.53,1.45,1.09,2.1,1.73.09.09.18.18.26.27-.09-.09-.17-.18-.26-.27-.64-.64-1.36-1.2-2.1-1.73ZM96.12,15.57s0,0,0,0c0,0,0,0,0,0ZM89.24,3.78l-.04.05c-1.69,2.33-.43,5.76,1.66,7.86-2.09-2.1-3.26-5.55-1.66-7.85l.04-.06ZM89.94,3.29s0,0,0,0c0,0,0,0,0,0ZM89.95,3.28s0,0,0,0c0,0,0,0,0,0ZM89.97,3.27s0,0,0,0c0,0,0,0,0,0ZM91.6,2.36c-.56.27-1.11.57-1.63.91.52-.34,1.07-.64,1.63-.91ZM91.61,2.36s0,0,0,0c0,0,0,0,0,0ZM97.7,1l.15.2s.05.07.08.1c-.08-.1-.15-.2-.23-.31h0Z" style="fill: #fff;"/>
  <path d="M207.19,42.94c-1.51,0-3-.21-4.43-.62-1.09-.31-2.63-.89-3.46-2.29-1.12-1.9-.3-4.28,1.01-5.79.64-.74,1.38-1.35,2.1-1.93.61-.5,1.17-.96,1.66-1.48,1.52-1.62,2.26-3.47,2.91-5.11.75-1.9,1.46-3.69,3.24-4.43,1.6-.67,3.77-.35,7.02,1.04l.81.35-.24.85c-.15.51-.06,1.16.03,1.85.16,1.19.33,2.53-.64,3.63-.39.44-.86.69-1.27.92-.24.13-.46.25-.62.38-.67.55-.81,1.69-.95,2.79l-.05.41c-.43,3.25-1.75,6.3-3.81,8.84l-.24.29-.37.06c-.88.15-1.79.23-2.7.23ZM203.45,41.47c1.56.4,3.2.54,4.82.43-1.62.12-3.25-.03-4.82-.43ZM213.29,33.56c-.42,2.93-1.61,5.7-3.45,8.01l-.05.07c1.87-2.33,3.08-5.12,3.5-8.08ZM201.21,40.58c.57.37,1.22.6,1.75.76-.71-.21-1.29-.46-1.75-.76ZM212.04,22.96c-.41,0-.76.06-1.05.18-1,.42-1.51,1.7-2.15,3.32-.68,1.71-1.53,3.84-3.31,5.74-.58.62-1.23,1.15-1.85,1.65-.68.56-1.33,1.08-1.86,1.69-.84.97-1.39,2.47-.8,3.46.35.6,1.08,1.04,2.29,1.38,1.89.54,3.92.68,5.87.4,1.69-2.19,2.78-4.8,3.15-7.54l.05-.4c.17-1.35.38-3.03,1.66-4.09.31-.26.64-.44.94-.59.29-.16.57-.31.73-.49.35-.4.29-1.04.16-2.05-.08-.57-.15-1.16-.12-1.76-1.56-.62-2.77-.92-3.69-.92ZM201.31,34.62c-.09.09-.17.18-.25.28-1.08,1.24-1.78,3.16-.9,4.63.01.02.03.05.04.07-.01-.02-.03-.05-.04-.07-.87-1.46-.14-3.42.9-4.63.08-.09.17-.19.25-.28ZM203.6,32.63c-.18.15-.36.3-.54.45-.13.11-.26.21-.39.32.12-.1.25-.21.38-.31.19-.15.37-.3.56-.46ZM216.79,25.07c.02.15.04.29.06.44.14,1.07.27,2.08-.4,2.84-.27.31-.64.51-1,.7-.27.14-.54.29-.78.49-.88.72-1.1,1.88-1.25,3.06.15-1.13.38-2.34,1.25-3.06.23-.19.51-.34.77-.48.38-.21.73-.4,1-.7.67-.76.54-1.77.4-2.84-.02-.15-.04-.29-.06-.44ZM204.87,31.44s-.05.05-.08.08c-.03.03-.06.06-.09.09.03-.03.06-.06.09-.09.03-.03.05-.05.08-.08ZM212.05,21.96c-.55,0-1.03.09-1.44.26-1.39.58-1.97,2.03-2.7,3.87-.09.22-.17.44-.27.66.09-.23.18-.45.26-.66.7-1.77,1.31-3.3,2.7-3.88,1.27-.53,3.11-.26,5.86.87l.13.05c-1.92-.8-3.39-1.19-4.54-1.19ZM216.82,23.24l-.05.35c.02-.11.04-.23.08-.34h0s-.02,0-.02-.01Z" style="fill: #fff;"/>
  <path d="M28.34,273.77c-1.03,0-2.06-.2-3.05-.58-2.12-.83-3.78-2.42-4.54-4.36-.76-1.95-.63-4.24.36-6.29,1-2.05,2.72-3.57,4.72-4.17.15-.04.3-.09.45-.13.57-.15,1.09-.29,1.33-.57.21-.24.3-.7.38-1.11.46-2.29.84-4.86-.52-6.44-1.33-1.54-3.79-1.57-6.17-1.59-.5,0-.94-.01-1.36-.02-8.48-.28-16.56-6.34-19.2-14.4-.94-2.87-.97-5.35-.08-7.38,1.47-3.37,5.05-5.2,10.93-5.58l-4.12-6.3.61-.57c7.58-7.15,16.32-14.65,25.97-22.31l.39-.31,1.24,1.57-.39.31c-9.35,7.41-17.84,14.68-25.23,21.62l5.16,7.9-1.81.03c-6.08.09-9.65,1.55-10.91,4.45-.68,1.56-.63,3.57.15,5.96,2.39,7.29,9.69,12.77,17.37,13.03.43.01.87.02,1.32.02,2.7.03,5.75.06,7.67,2.29,1.86,2.16,1.56,5.19.97,8.14-.12.58-.28,1.38-.82,2.01-.64.75-1.56,1-2.3,1.2-.14.04-.29.08-.42.12-1.47.44-2.74,1.58-3.5,3.13-.75,1.55-.86,3.26-.3,4.69.56,1.43,1.8,2.61,3.41,3.23,1.6.62,3.32.59,4.69-.08,1.12-.55,2.06-1.44,3.06-2.38,1.17-1.1,2.37-2.23,3.94-2.89.39-.17.81-.3,1.23-.44.98-.32,1.82-.59,2.21-1.21.41-.65.27-1.65.05-2.62-.66-2.97-1.64-5.88-2.91-8.64l-.5-1.1,1.17-.29c2.83-.7,5.6.05,8.28.78,1.34.36,2.7.73,4.02.9,4.59.6,9.5-1.29,12.51-4.82.73-.86,1.41-1.86,2.07-2.83,1.65-2.44,3.35-4.95,6.25-5.99.3-.11.61-.2.92-.29.57-.16,1.11-.32,1.51-.6,1.1-.78,1.26-2.51,1.42-4.33.2-2.28.43-4.87,2.85-5.79l.47-.18.71,1.87-.47.18c-1.2.46-1.38,1.86-1.58,4.1-.19,2.1-.39,4.47-2.25,5.79-.68.48-1.44.7-2.12.89-.28.08-.54.15-.79.24-2.28.82-3.73,2.96-5.26,5.22-.69,1.02-1.4,2.07-2.21,3.01-3.43,4.03-9.04,6.19-14.29,5.5-1.45-.19-2.89-.58-4.27-.95-2.12-.57-4.14-1.12-6.09-.96,1.07,2.53,1.92,5.16,2.51,7.84.31,1.4.49,2.86-.32,4.13-.78,1.23-2.11,1.66-3.29,2.04-.38.12-.74.24-1.07.38-1.23.52-2.26,1.48-3.34,2.5-1.07,1-2.17,2.04-3.56,2.72-.98.48-2.1.73-3.25.73ZM23.95,271.33c.51.37,1.09.69,1.7.93,1.07.42,2.2.59,3.29.49-1.08.1-2.2-.07-3.28-.49-.62-.24-1.19-.55-1.7-.93ZM31.36,272.03c-.07.04-.14.07-.21.11-.12.06-.23.11-.36.16.12-.05.24-.1.36-.16.07-.03.14-.07.21-.11ZM34.95,269.12c-.17.15-.33.31-.49.46-.22.21-.45.42-.67.63.22-.21.45-.42.67-.62.17-.16.33-.31.5-.47ZM41.37,258.37c.31,1.03.58,2.06.81,3.11.26,1.19.42,2.42-.18,3.38-.59.93-1.69,1.28-2.75,1.62-.3.1-.6.19-.89.31.28-.11.58-.2.87-.3,1.13-.37,2.18-.71,2.77-1.63.61-.96.45-2.19.18-3.38-.23-1.04-.5-2.08-.81-3.11ZM21.9,263.2c-.3.67-.5,1.36-.59,2.06.09-.69.29-1.39.59-2.06ZM21.9,263.19h0s0,0,0,0ZM26.92,259.09c-.12.03-.24.07-.36.1-.17.05-.32.08-.45.13-.5.15-.98.37-1.44.65.45-.28.94-.5,1.44-.65.15-.04.3-.09.45-.13.12-.03.24-.06.36-.1ZM29.01,256.52c-.02.08-.03.15-.05.23-.1.5-.23,1.12-.6,1.56-.05.06-.11.12-.17.17.06-.05.12-.11.17-.17.37-.44.49-1.03.6-1.55.02-.08.03-.16.05-.23ZM41.36,258.36s0,0,0,0c0,0,0,0,0,0ZM40.24,255.09s0,0,0,0c0,0,0,0,0,0ZM39.2,252.64c.37.8.72,1.62,1.04,2.45-.25-.63-.51-1.26-.78-1.88l-.25-.57s0,0,0,0h0ZM49.05,253.95h0,0ZM45.98,253.14c.33.09.67.18,1.01.27.68.18,1.37.37,2.06.53-.69-.16-1.38-.35-2.05-.53-.34-.09-.68-.18-1.02-.27ZM66.15,247.01c-.52.75-1.05,1.49-1.62,2.17-1.48,1.73-3.38,3.1-5.49,4.01,2.11-.91,4.01-2.27,5.49-4.01.57-.67,1.11-1.42,1.62-2.17ZM28.05,249.27c.06.06.11.12.17.19.07.08.13.16.19.24-.06-.08-.13-.16-.19-.24-.06-.06-.11-.13-.17-.19ZM21.36,247.52c.32,0,.63,0,.95.01-.32,0-.64-.01-.95-.01ZM5.14,239.99c2.4,2.9,5.62,5.17,9.17,6.42-3.55-1.25-6.77-3.51-9.17-6.42ZM75.03,239.67c-.53.36-1.15.54-1.76.71-.15.04-.29.08-.43.13.14-.04.27-.08.41-.12.66-.19,1.26-.36,1.79-.72ZM5.13,239.98s0,0,0,0c0,0,0,0,0,0ZM76.89,234.89c-.17,1.89-.39,3.64-1.68,4.65,1.29-1.01,1.51-2.77,1.68-4.65ZM78.28,230.15c-.96.87-1.17,2.36-1.32,3.97.15-1.61.36-3.11,1.32-3.97ZM13.37,222.05l-.88.03c-5.98.23-9.56,1.88-10.93,5.02-.29.66-.46,1.37-.53,2.14.07-.77.24-1.49.53-2.14,1.44-3.29,5.3-4.94,11.81-5.05h0ZM34.26,193.05c-3.34,2.66-6.58,5.29-9.69,7.9,3.11-2.61,6.34-5.25,9.69-7.9h0Z" style="fill: #fff;"/>
  <path d="M102.53,189.63h-1.13s-.07-14.61-.07-14.61c-2.09-.25-4.21-.31-6.31-.17l.31,13.96-9.25.03-.28-.56c-1.93-3.93-2.79-8.48-2.42-12.86-5.19-1.94-11-2.39-16.41-1.25l-.84.18-.3-.8c-1.08-2.87-1.72-5.88-1.91-8.94l-.05-.85.83-.19c1.47-.33,2.92-.09,4.32.14,1.46.24,2.84.47,4.01,0,1.94-.79,2.88-3.16,2.97-7.44.28-13.26.07-26.69-.62-39.94-.1-1.88-.21-4-1.07-5.76-1.64-3.35-5.52-4.2-8.64-3.56l-.88.18-.27-.86c-.69-2.18-2.8-8.82,3.39-10.89.81-.27,3.04-.3,7.91-.29,2.69,0,7.04.01,8.38-.2l2.5-11.56c.2-.91.42-1.95,1.11-2.83.87-1.11,2.18-1.61,3.7-1.4,2.08.29,4.18,1.91,4.99,3.87.72,1.74.84,3.58.95,5.36.08,1.18.16,2.4.42,3.52.37,1.58,1.52,3.13,2.8,3.76.47.23.93.33,1.38.29-.61-4.74-.74-9.55-.4-14.32l.04-.51.44-.27c3.18-1.96,7.5-.33,9.53,2.43,1.72,2.34,2.43,5.56,2.12,9.58-.05.71-.11,1.38.15,1.75.25.35.85.53,1.5.7,8.35,2.12,16.8,4.8,20.33,12.14,3.77,7.83-.4,17.08-6.3,22.94,4.89,4.76,8.94,10.54,11.71,16.76,1.08,2.42,2.09,5.28,1.42,8.16-.42,1.79-1.46,3.34-2.43,4.61-6.47,8.56-16.23,14.33-26.85,15.9l-1.27,12.47-.66.18c-2.88.79-5.86,1.19-8.86,1.19ZM102.4,188.63l.13.5v-.5h-.13ZM109.49,187.87c-2.16.47-4.37.73-6.58.75h-.16c2.27-.01,4.53-.27,6.74-.75ZM109.49,187.87,86.7,187.82s0,0,0,0h5.21s-5.21,0-5.21,0ZM94.01,173.92l.3,13.88-.3-13.88ZM97.26,172.77c1.74,0,3.5.13,5.22.38l.85.12.06,14.34c2.3-.06,4.58-.38,6.81-.94l1.29-12.67.79-.1c10.39-1.32,19.97-6.87,26.29-15.22.88-1.17,1.74-2.44,2.07-3.86.54-2.29-.36-4.77-1.3-6.89-2.81-6.31-6.97-12.13-12.01-16.85l-.79-.74.79-.73c5.64-5.19,10.12-14.07,6.62-21.33-3.16-6.56-11.13-9.06-19.02-11.06-.73-.19-1.95-.49-2.64-1.48-.67-.96-.59-2.1-.52-3.01.27-3.56-.31-6.35-1.73-8.29-1.38-1.87-4.24-3.13-6.43-2.15-.31,4.73-.13,9.51.54,14.21l.1.74-.68.31c-1.2.54-2.51.5-3.78-.13-1.81-.89-3.36-2.94-3.87-5.09-.3-1.28-.39-2.59-.47-3.85-.11-1.69-.21-3.29-.81-4.72-.53-1.3-2.03-2.46-3.41-2.65-.8-.11-1.43.11-1.85.65-.41.52-.58,1.32-.73,2.02l-2.61,12.06c-.26,1.18-1.13,1.28-10.23,1.28h-.17c-2.75,0-6.52,0-7.1.19-2.9.97-3.6,3.18-2.37,7.57,3.4-.41,7.87.59,9.93,4.79,1.04,2.13,1.17,4.57,1.27,6.54.69,13.3.9,26.78.62,40.09-.07,3.26-.58,7.77-4.22,9.25-1.7.69-3.42.41-5.09.13-.96-.16-1.86-.31-2.7-.27.21,2.26.69,4.49,1.43,6.63,5.8-1.04,11.96-.41,17.41,1.8l.71.29-.09.76c-.47,4.03.2,8.26,1.89,11.96l5.96-.02-.3-13.8.93-.09c1.11-.1,2.23-.15,3.34-.15ZM84.45,174.75l-.03.32c.01-.11.02-.22.04-.32,0,0,0,0,0,0ZM112.41,174.9h0s.3-.04.3-.04c-.1.01-.2.03-.3.04ZM95.1,173.84c-.26.02-.51.03-.77.06h.15c.21-.03.41-.04.62-.06ZM97.26,173.77c.35,0,.7,0,1.05.02-.46-.01-.93-.02-1.39-.01.11,0,.23,0,.34,0ZM66.77,173.17s0,0,0,0h0c.09-.02.19-.04.28-.06l-.28.06ZM72.96,172.54c-1.53,0-3.06.11-4.57.34,2.41-.36,4.87-.44,7.31-.22-.91-.08-1.82-.12-2.74-.12ZM65.16,166.81c.28,2.04.78,4.05,1.48,5.99v-.03c-.71-1.93-1.2-3.93-1.48-5.96ZM75.7,172.66h0,0ZM65.15,166.8s0,0,0,0c0,0,0,0,0,0ZM73.27,164.67c-.23.08-.46.15-.69.19.23-.05.46-.11.69-.19ZM76.34,115.41c.02.29.03.57.05.85.69,13.27.9,26.73.62,40.01-.05,2.35-.36,4.19-.94,5.56.74-1.71.9-3.83.94-5.56.28-13.28.07-26.74-.62-40.01-.01-.27-.03-.56-.05-.85ZM140.64,148.42c.64,1.56,1.18,3.27,1.17,4.99,0-1.72-.52-3.43-1.17-4.99ZM128.02,130.36h0c.45.42.89.85,1.33,1.29-.31-.31-.63-.62-.95-.92l-.38-.36.34-.32c-.11.11-.23.22-.34.32h0ZM69.45,105.95c2.22.4,4.32,1.57,5.55,3.76-1.27-2.26-3.4-3.37-5.55-3.76ZM133.07,105.04c.69.85,1.3,1.78,1.79,2.81.07.16.15.31.21.47-.07-.16-.14-.31-.21-.47-.5-1.03-1.1-1.96-1.79-2.81ZM65.48,106s0,0,0,0h0c.33-.07.67-.12,1.01-.16-.2.02-.39.05-.58.08l-.43.07ZM119.68,97.48s.03,0,.04.01c-.01,0-.03,0-.04-.01ZM117.03,96.73c.88.24,1.76.48,2.63.74-.87-.26-1.75-.5-2.63-.74ZM116.99,96.72s0,0,0,0c0,0,0,0,0,0ZM102.48,85.99c-.04,3.43.17,6.86.63,10.26l.05.39s0,0,0,0h0c-.5-3.52-.73-7.09-.69-10.65ZM68.33,96.33s-.06.02-.09.03c-.14.05-.28.1-.41.15.13-.05.27-.1.41-.15.03,0,.06-.02.09-.03ZM96.82,91.72c.03.13.05.25.08.38.43,1.84,1.73,3.58,3.24,4.37-1.49-.78-2.81-2.56-3.24-4.37-.03-.13-.06-.25-.08-.38ZM113.86,95.79c.43.23.92.35,1.32.46-.47-.12-.93-.25-1.32-.46ZM74.58,96.12c-1.88,0-3.61,0-4.82.07,1.31-.06,3.33-.07,5.88-.07h.17s0,0,0,0c-.42,0-.83,0-1.24,0ZM88.02,82.27c-.15.43-.25.88-.34,1.3l-2.61,12.06s0,0,0,0l2.61-12.06c.09-.42.19-.87.34-1.3ZM109.97,82.87c.33.3.63.63.88.98,1.57,2.14,2.22,5.15,1.93,8.96-.06.83-.13,1.7.34,2.36.01.02.02.03.04.05-.01-.02-.02-.03-.04-.05-.47-.66-.4-1.55-.33-2.4.29-3.78-.36-6.78-1.93-8.92-.26-.35-.55-.68-.88-.98ZM102.48,85.97v.02-.02ZM102.48,85.94h0s0,0,0,0ZM91.41,80.12c1.71.25,3.5,1.64,4.16,3.25.05.12.1.24.14.37-.04-.12-.09-.25-.14-.37-.68-1.64-2.42-3-4.16-3.25ZM90.91,80.08c.15,0,.3.01.46.04-.16-.02-.31-.03-.46-.04Z" style="fill: #fff;"/>
  <path d="M95.29,128.78c-.6,0-1.16-.04-1.7-.13l-.61-.1-.2-.63c-.22-.74-.66-16.03,1.59-18.07,3.93-3.56,12.04-.87,16.88.74.67.22,1.2.4,1.67.54.38.12,1.01.31,1.43.88.34.46.4.98.44,1.33l.72,6.53c.16,1.44.38,3.41-.61,5.05-.92,1.53-2.77,2.48-5.06,2.62-.96.06-1.91-.01-2.82-.08-.69-.05-1.46-.12-2.18-.1-1.47.03-3,.37-4.47.7-1.64.36-3.33.74-5.06.74ZM104.84,126.34s-.03,0-.04,0c-1.19.02-2.38.23-3.55.48,1.17-.25,2.36-.45,3.55-.48.01,0,.03,0,.04,0ZM94.63,126.75c1.71.13,3.44-.26,5.27-.67,1.59-.35,3.22-.71,4.88-.75.79-.01,1.54.04,2.37.1.88.07,1.72.13,2.56.08.77-.05,2.65-.3,3.47-1.66.59-.98.5-2.3.34-3.79l-.72-6.53c-.01-.11-.03-.31-.06-.37-.04-.03-.3-.11-.4-.14-.5-.16-1.08-.35-1.71-.56-4.43-1.47-11.84-3.92-14.91-1.15-.91.86-1.33,11.84-1.07,15.42ZM107.05,126.44h.02c.83.06,1.69.13,2.54.09-.85.04-1.71-.03-2.53-.09,0,0-.01,0-.02,0ZM112.3,125.9c-.89.43-1.83.57-2.4.62.9-.07,1.72-.28,2.4-.62ZM97.51,109.34c-.95.23-1.79.63-2.48,1.25-1.4,1.27-1.56,11.28-1.42,15.38-.09-3.85.05-14.14,1.42-15.38.68-.62,1.53-1.02,2.48-1.25ZM113.63,112.75c.1.22.13.47.16.69l.72,6.53c.07.62.12,1.22.13,1.78,0-.63-.07-1.25-.13-1.78l-.72-6.53c-.02-.21-.05-.47-.16-.69ZM112.28,111.97c.12.04.23.07.34.11.15.05.29.09.41.15-.14-.06-.29-.11-.41-.15-.11-.03-.22-.07-.34-.11ZM111.04,111.57c.31.1.6.2.88.29-.28-.09-.57-.19-.88-.29Z" style="fill: #fff;"/>
  <path d="M107.11,160.55c-3.6,0-7.23-.24-10.78-.7-.37-.05-.98-.13-1.48-.54-1.11-.93-.68-2.49-.51-3.08.4-1.42.26-4.07.11-6.88-.26-4.99-.49-9.29,1.63-10.73,4.72-3.2,19.81,3.16,19.96,3.22.86.37,1.75.82,2.45,1.56,1.6,1.69,1.59,4.15,1.31,5.92-.48,2.95-1.83,5.82-3.8,8.07-.83.95-1.62,1.61-2.46,2.08-1.75.97-3.73,1.07-5.6,1.09h-.83ZM108.55,159.54c-.21,0-.42,0-.62.01h-.01.01c.21,0,.41,0,.62-.01ZM118.94,147.09c.04.72-.02,1.43-.12,2.05-.45,2.77-1.72,5.46-3.57,7.58-.75.86-1.45,1.45-2.19,1.86-.54.3-1.12.5-1.71.64.59-.14,1.17-.35,1.71-.64.74-.41,1.44-1,2.19-1.86,1.85-2.11,3.12-4.81,3.57-7.58.1-.62.17-1.33.12-2.05ZM96.04,158.79c.11.02.21.04.31.05-.11-.02-.21-.03-.31-.05ZM96.27,156.76h0c-.22.81-.14.99-.12,1.02.06.04.34.07.44.09,3.75.49,7.57.72,11.33.68,1.62-.02,3.31-.09,4.66-.84.64-.35,1.25-.87,1.92-1.65,1.73-1.98,2.91-4.49,3.33-7.08.22-1.32.26-3.13-.78-4.22-.43-.45-1.03-.77-1.8-1.11-4.74-2.07-15.23-5.3-18.04-3.4-1.19.8-.93,5.72-.76,8.97.16,2.98.3,5.79-.18,7.52ZM95.59,152.51c.04,1.61-.01,3.01-.28,3.98-.14.49-.24,1.01-.16,1.44-.09-.43.02-.95.16-1.44h0c.27-.97.32-2.37.28-3.98ZM96.26,139.79c-1.21,1.49-1.02,5.41-.82,9.26-.23-4.38-.29-7.88.82-9.26ZM117.63,143.94s.09.09.14.14c.24.25.43.52.59.81-.16-.29-.35-.56-.59-.81-.04-.05-.09-.09-.14-.14ZM103.51,139.05c4.67.81,10.04,2.79,11.98,3.62-2.76-1.19-7.71-2.9-11.98-3.62Z" style="fill: #fff;"/>
  <path d="M113.66,96.94l-.14-1.99.5-.04c4.77-.35,8.25-2.66,12.28-5.34l.83-.55c.69-.46,1.23-.84,1.47-1.35.2-.44.19-1.04.17-1.62-.05-2.24-.14-4.68-.22-7.11-.09-2.44-.17-4.89-.22-7.13v-.5s1.99-.05,1.99-.05v.5c.06,2.24.15,4.67.23,7.11.09,2.44.17,4.89.22,7.13.02.73.04,1.65-.36,2.51-.49,1.06-1.46,1.71-2.18,2.18l-.82.55c-4.27,2.83-7.95,5.28-13.25,5.67l-.5.04ZM127.62,89.89l-.77.51c-2,1.33-3.88,2.57-5.84,3.55,1.97-.97,3.84-2.21,5.84-3.55l.77-.51ZM128.85,88.97c-.32.3-.7.57-1.14.86.38-.25.79-.53,1.14-.86ZM129.33,72.28c.05,2.1.13,4.36.21,6.62.09,2.44.17,4.88.22,7.12.01.61.03,1.29-.19,1.89.22-.6.21-1.26.19-1.89-.05-2.24-.14-4.68-.22-7.12-.08-2.26-.16-4.52-.21-6.62h0Z" style="fill: #fff;"/>
  <path d="M133.55,137.46l-.96-1.75.44-.24c2.42-1.33,5.42-4.52,5.82-6.79.42-2.44-.33-5.11-1.97-6.96-.33-.38-2.13-2.74-2.1-4.15v-.5s2.01.04,2.01.04v.5c-.02.36.88,1.98,1.59,2.79,2.06,2.33,2.98,5.56,2.45,8.63-.58,3.35-4.42,6.87-6.82,8.2l-.44.24ZM137.59,121.03s.02.02.03.04c1.84,2.07,2.68,5.06,2.21,7.79-.06.33-.16.67-.29,1.01.13-.34.23-.68.29-1.01.48-2.77-.35-5.69-2.21-7.79,0-.01-.02-.02-.03-.04Z" style="fill: #fff;"/>
  <path d="M147.07,151.15c-1.86,0-4.02-.36-6.44-1.06l-.48-.14.56-1.92.48.14c4.28,1.26,7.64,1.3,9.7.14.89-.5,1.65-1.26,2.48-2.14,4.52-4.73,8.82-9.77,12.78-14.99l.3-.4,1.59,1.21-.3.4c-4.01,5.28-8.36,10.38-12.93,15.16-.95.99-1.82,1.86-2.95,2.5-1.3.73-2.92,1.1-4.81,1.1ZM141.4,149.26c4.35,1.21,7.75,1.18,10-.09,1-.57,1.82-1.39,2.71-2.32,4.43-4.64,8.65-9.57,12.55-14.68h0c-3.9,5.11-8.13,10.04-12.55,14.68-.89.93-1.71,1.75-2.71,2.32-2.22,1.25-5.67,1.28-10,.09h0Z" style="fill: #fff;"/>
  <path d="M46.56,186.67c-.32,0-.62-.02-.9-.07l-.49-.08.33-1.97.49.08c2.36.4,7.77-2.06,10.05-3.87,3.95-3.14,8.56-7.48,9.88-8.74l.36-.34,1.38,1.45-.36.34c-1.34,1.27-6.01,5.67-10.02,8.85-1.96,1.56-7.23,4.34-10.73,4.34ZM46.33,185.67c1.5.07,3.5-.52,5.36-1.32-1.93.81-3.93,1.38-5.36,1.32h0ZM57.79,180.64c-.38.31-.75.61-1.12.9-.03.02-.06.05-.09.07.03-.02.06-.05.09-.07.37-.29.74-.59,1.12-.9ZM66.26,173.1c-.11.1-.23.21-.35.33.13-.12.25-.23.35-.33h0Z" style="fill: #fff;"/>
  <path d="M85.31,205.72l-1.37-1.46.72-.67c2.65-2.49,5.95-5.59,9.52-6.46.52-.13,1.05-.22,1.58-.31,1.13-.19,2.2-.38,3.04-.92.63-.41,1.17-1.05,1.73-1.73.84-1.01,1.8-2.16,3.26-2.61,1.92-.59,3.73.26,5.32,1.02.43.2.85.4,1.27.57,1.46.59,3.07.81,4.65.63.15-.02.24-.04.29-.05.01-.07.03-.16.03-.22l.73-5.81c.02-.15.07-.53.01-.63-.2-.25-1.62-.48-2.22-.58-1.27-.21-2.48-.4-3.17-1.08l-.36-.35,1.4-1.43.36.35c.24.23,1.4.42,2.09.53,1.56.25,3.03.49,3.64,1.56.38.68.29,1.42.23,1.87l-.73,5.81c-.04.32-.1.81-.44,1.24-.46.58-1.15.72-1.64.77-1.9.22-3.85-.04-5.63-.76-.46-.18-.91-.4-1.38-.62-1.39-.66-2.71-1.28-3.88-.92-.9.28-1.59,1.1-2.32,1.98-.64.76-1.29,1.55-2.18,2.12-1.18.77-2.51,1-3.79,1.22-.5.09-.98.17-1.45.28-3.06.75-6.15,3.65-8.63,5.98l-.72.67ZM85.36,204.3h0c.42-.4.86-.81,1.32-1.23-.46.42-.9.83-1.32,1.23ZM96.23,197.74c-.1.02-.19.03-.29.05-.38.06-.76.13-1.13.21.36-.08.73-.14,1.1-.2.1-.02.21-.04.31-.05ZM99.43,196.67s-.05.03-.07.05c-.02.01-.04.02-.06.04.02-.01.04-.02.06-.04.02-.02.05-.03.07-.05ZM104.27,192.45c-.06.01-.11.03-.17.05-1.18.36-1.96,1.3-2.79,2.29-.08.1-.17.2-.25.3.08-.1.17-.2.25-.3.79-.95,1.61-1.93,2.79-2.29.06-.02.11-.03.17-.05ZM109.54,193.86c.16.07.32.14.48.21,1.59.64,3.32.89,5.02.71-1.71.17-3.44-.07-5.02-.71-.16-.06-.32-.13-.48-.21ZM116.7,190.93l-.34,2.69c-.03.21-.06.46-.18.66.12-.2.15-.44.18-.66l.34-2.69ZM106.74,192.64c.45.15.9.34,1.34.54-.44-.2-.89-.39-1.34-.54ZM117.13,187.3c0,.15-.02.31-.04.47.02-.14.04-.3.04-.47ZM112.69,185.23c.42.1.89.17,1.35.25.8.13,1.46.25,1.96.41-.55-.19-1.24-.3-1.96-.41-.52-.08-.97-.16-1.35-.25Z" style="fill: #fff;"/>
</svg>