<?xml version="1.0" encoding="UTF-8"?>
<svg id="Layer_2" xmlns="http://www.w3.org/2000/svg" viewBox="0 0 375.75 391.12">
  <g>
    <path d="M207.05,60.46c.78-2.56,1.85-6.08,4.55-8.02,1.52-1.1,3.77-1.38,5.59-.71,1.21.45,2.08,1.26,2.5,2.31,1.98-.78,2.58-3.64,2.73-4.55.06-.39.11-.79.17-1.19.25-1.88.5-3.82,1.75-5.31,1.93-2.31,5.02-2.36,8.02-2.41.86-.01,1.76-.03,2.59-.1,5.04-.44,9.16-3.37,13.53-6.47,3.14-2.23,6.39-4.54,10.03-5.85,1.12-.4,2.3-.72,3.44-1.03,3.02-.82,5.87-1.59,7.8-3.74,1.25-1.39,1.9-3.16,2.59-5.02.45-1.21.91-2.46,1.55-3.6,2.78-4.98,9.13-7.98,16.17-7.64,5.64.27,11.01,2.37,16.21,4.39l1.48.57c2.59,1,5.12,1.9,7.71,1.98,5.47.16,10-3.15,14.8-6.65,4.56-3.33,9.28-6.78,14.87-6.92,3.83-.1,7.42,1.4,10.89,2.85,1.14.47,2.31.97,3.47,1.39,2.13.78,9.38,2.99,13.5-1.15l.71.71c-4.41,4.43-11.65,2.44-14.55,1.38-1.18-.43-2.37-.93-3.51-1.4-3.37-1.41-6.86-2.86-10.48-2.77-5.28.13-9.87,3.48-14.31,6.72-4.72,3.45-9.6,7.01-15.42,6.84-2.74-.08-5.37-1.01-8.04-2.05l-1.48-.58c-5.12-2-10.41-4.06-15.89-4.32-5.06-.24-12.09,1.48-15.25,7.13-.6,1.08-1.05,2.29-1.49,3.46-.69,1.87-1.41,3.81-2.79,5.34-2.13,2.37-5.26,3.22-8.28,4.04-1.12.3-2.29.62-3.37,1.01-3.51,1.26-6.7,3.53-9.79,5.72-4.28,3.04-8.71,6.19-14.02,6.65-.86.08-1.78.09-2.66.11-2.9.05-5.64.09-7.27,2.05-1.06,1.27-1.3,3.06-1.53,4.8-.05.41-.11.82-.17,1.22-.48,3.01-1.95,5.07-3.94,5.5l-.48.1-.12-.47c-.24-.96-.96-1.71-2.03-2.11-1.52-.56-3.39-.33-4.66.59-2.24,1.61-3.22,4.35-4.17,7.5l-.96-.29Z" style="fill: #fff;"/>
    <path d="M206.43,60.79l.15-.48c.8-2.63,1.9-6.24,4.73-8.28,1.65-1.19,4.09-1.5,6.05-.78,1.14.42,2.03,1.15,2.56,2.1,1.42-.91,1.89-3.21,2-3.95.06-.38.11-.77.16-1.17.26-1.96.52-3.97,1.86-5.58,2.07-2.48,5.29-2.53,8.4-2.59.87-.01,1.75-.03,2.55-.1,4.9-.43,8.97-3.32,13.28-6.38,3.17-2.25,6.45-4.58,10.15-5.91,1.14-.41,2.33-.73,3.48-1.04,2.94-.8,5.73-1.55,7.56-3.59,1.19-1.32,1.82-3.04,2.5-4.86.46-1.23.92-2.5,1.58-3.67,2.88-5.15,9.4-8.25,16.63-7.9,5.73.27,11.13,2.38,16.36,4.42l1.48.58c2.54.98,5.03,1.87,7.54,1.95,5.3.16,9.76-3.1,14.49-6.55,4.62-3.38,9.4-6.87,15.15-7.01,3.93-.1,7.57,1.42,11.09,2.89,1.15.48,2.31.96,3.45,1.38,2.06.75,9.07,2.89,12.98-1.03l.35-.35,1.42,1.41-.35.35c-4.62,4.63-12.08,2.59-15.08,1.5-1.18-.43-2.36-.92-3.51-1.4-3.36-1.4-6.79-2.84-10.3-2.75-5.13.13-9.65,3.43-14.02,6.63-4.79,3.5-9.74,7.11-15.73,6.94-2.82-.08-5.49-1.03-8.2-2.08l-1.48-.58c-5.08-1.98-10.33-4.03-15.73-4.29-4.92-.24-11.74,1.42-14.79,6.88-.58,1.04-1.03,2.24-1.45,3.39-.71,1.92-1.44,3.9-2.89,5.51-2.23,2.49-5.43,3.35-8.53,4.19-1.11.3-2.26.61-3.33.99-3.44,1.23-6.61,3.48-9.67,5.66-4.34,3.08-8.82,6.27-14.27,6.74-.89.08-1.8.09-2.69.11-2.78.05-5.41.09-6.89,1.87-.97,1.16-1.2,2.88-1.41,4.54-.06.44-.11.84-.17,1.23-.51,3.22-2.13,5.43-4.32,5.91l-.95.21-.23-.95c-.2-.79-.81-1.42-1.72-1.76-1.37-.51-3.06-.3-4.19.52-2.11,1.52-3.06,4.18-3.99,7.24l-.15.48-1.91-.58ZM208.7,57.22c-.42.99-.74,1.99-1.02,2.9h0c.32-1.02.64-2,1.02-2.9ZM214.85,51.87c-1.07.05-2.13.38-2.96.97-.06.04-.12.09-.18.13.06-.04.12-.09.18-.13.83-.59,1.89-.93,2.96-.97ZM218.23,52.88c.57.47.95,1.07,1.13,1.77h0s.02,0,.03,0l-.17-.43c-.35-.88-1.06-1.56-2.06-1.96.41.17.77.38,1.07.63ZM222.87,49.77c-.1.57-.3,1.39-.65,2.2.29-.64.51-1.38.65-2.2ZM223.02,48.78c-.02.16-.04.32-.07.47.02-.16.04-.32.07-.47ZM224.75,43.26s-.02.03-.03.04c-1.05,1.26-1.35,2.92-1.57,4.58.23-1.67.53-3.32,1.57-4.58.01-.01.02-.03.03-.04ZM234.59,41c-.72.05-1.48.06-2.22.07h-.37c.12,0,.23,0,.35,0,.74-.01,1.5-.02,2.23-.07ZM256.95,29.33c-2.9,1.32-5.58,3.23-8.19,5.08-.38.27-.77.55-1.15.81.38-.27.77-.54,1.15-.81,2.61-1.85,5.29-3.76,8.19-5.08ZM261.58,27.75c-.71.19-1.43.39-2.13.62.7-.22,1.42-.43,2.13-.62ZM274.48,14.74c-.05.09-.11.18-.16.27-.48.86-.86,1.79-1.21,2.71.35-.93.73-1.85,1.21-2.71.05-.09.1-.18.16-.27ZM289.75,7.61c-3.35-.12-6.54.54-9.21,1.81,3.01-1.41,6.39-1.91,9.21-1.81ZM306.43,12.12l-.35-.13c-.62-.24-1.24-.48-1.86-.72.62.24,1.24.48,1.86.72l.35.13ZM315.85,14.58c-.14,0-.28,0-.42,0-.77-.02-1.54-.12-2.31-.26.76.15,1.53.24,2.31.26.14,0,.28,0,.42,0ZM336.52,3.76c-2.06,1.19-4.04,2.64-5.98,4.06-.45.33-.9.66-1.35.98.45-.33.9-.65,1.35-.98,1.95-1.42,3.93-2.87,5.98-4.06ZM336.52,3.76,346.96,1.08c-.61-.06-1.22-.09-1.84-.08-1.17.03-2.3.21-3.4.51,1.1-.3,2.23-.48,3.4-.51.62-.02,1.23.01,1.84.08ZM372.96,4.29c-4.37,3.88-11.53,1.7-13.67.92-.09-.03-.17-.06-.26-.1.09.03.17.06.26.1,2.74,1,9.43,2.85,13.67-.92h0Z" style="fill: #fff;"/>
  </g>
  <g>
    <path d="M337.65,18.46l-.15-.99c4.13-.62,8.47.4,11.89,2.8.27.19.54.38.75.35.1-.01.23-.08.36-.15.16-.09.35-.18.56-.23.42-.1.81,0,1.16.1.12.03.25.07.37.09,1.18.19,2.07-.88,3.02-2.02.42-.51.86-1.03,1.34-1.46,1.38-1.24,3.3-1.68,4.83-2.04.57-.13,1.21-.28,1.88-.17.6.1,1.11.39,1.56.64l6.13,3.44c.65.37,2.25,1.13,2.93.32l.77.64c-.83.99-2.32.96-4.19-.09l-6.13-3.44c-.4-.22-.82-.46-1.24-.53-.47-.08-.99.04-1.49.16-1.5.35-3.2.74-4.39,1.81-.43.38-.84.88-1.24,1.36-1.03,1.24-2.21,2.65-3.95,2.37-.16-.03-.31-.07-.47-.11-.26-.07-.49-.13-.67-.09-.09.02-.21.08-.33.14-.2.11-.43.22-.71.26-.59.07-1.06-.26-1.43-.52-3.22-2.26-7.29-3.22-11.17-2.63Z" style="fill: #fff;"/>
    <path d="M337.23,19.03l-.3-1.98.49-.07c4.26-.64,8.72.41,12.25,2.88.13.09.35.25.44.26-.02,0,.09-.06.15-.1.18-.09.4-.21.68-.28.55-.13,1.02,0,1.4.1.12.03.22.06.33.08.89.15,1.66-.78,2.55-1.85.43-.52.88-1.06,1.39-1.52,1.48-1.33,3.46-1.79,5.05-2.15.59-.14,1.31-.3,2.08-.18.68.11,1.26.44,1.72.7l6.13,3.44c.9.51,1.97.84,2.3.43l.32-.38,1.53,1.29-.32.38c-.58.69-1.98,1.62-4.81.02l-6.13-3.44c-.36-.2-.74-.41-1.07-.47-.38-.06-.85.05-1.3.15-1.44.33-3.08.71-4.17,1.69-.4.36-.8.84-1.19,1.31-1.07,1.28-2.39,2.88-4.42,2.55-.17-.03-.35-.07-.52-.12-.14-.04-.36-.1-.43-.08-.03,0-.13.06-.2.1-.22.11-.51.27-.89.31-.77.09-1.38-.33-1.78-.61-3.11-2.18-7.05-3.11-10.81-2.55l-.49.07ZM348.49,20.28c-2.69-1.71-5.9-2.57-9.08-2.47,3.18-.1,6.39.77,9.08,2.47ZM350.61,20.98c-.13.07-.27.13-.42.14-.31.04-.59-.1-.85-.28.27.18.55.31.85.28.15-.02.29-.08.42-.14ZM351.57,20.71c-.14-.02-.27-.01-.4.02-.14.03-.26.09-.39.16.13-.07.25-.13.39-.16.14-.03.27-.03.4-.02ZM352.31,20.88s-.04,0-.06-.01c.02,0,.04,0,.06.01ZM356.84,17.74c-.29.31-.58.65-.85.98-.02.02-.04.04-.06.07.02-.02.04-.04.05-.07.28-.33.56-.67.85-.98ZM364.82,15.72c-.39-.22-.8-.42-1.25-.5-.57-.09-1.14.04-1.68.16-.15.03-.3.07-.45.11.15-.04.3-.07.45-.1.52-.12,1.12-.26,1.69-.17.45.07.87.29,1.25.5Z" style="fill: #fff;"/>
  </g>
  <g>
    <path d="M297.63,24.02c-.82-.68-1.54-1.49-2.09-2.4l.86-.52c2.1,3.48,6.75,5.19,10.6,3.88.63-.21,1.23-.49,1.86-.79.26-.12.53-.25.79-.36,2.98-1.32,6.29-2.02,9.55-2.01v1c-3.13,0-6.29.66-9.15,1.93-.26.12-.52.24-.78.36-.63.29-1.28.6-1.96.83-3.26,1.11-7.04.27-9.69-1.91Z" style="fill: #fff;"/>
    <path d="M297.31,24.41c-.89-.73-1.63-1.58-2.2-2.53l-.26-.43,1.71-1.03.26.43c1.98,3.29,6.38,4.9,10.01,3.67.61-.21,1.19-.48,1.81-.77.27-.12.53-.25.8-.37,3.05-1.35,6.42-2.06,9.76-2.06h.5s0,2,0,2h-.5c-3.06,0-6.15.65-8.94,1.89-.25.11-.49.22-.74.34-.67.31-1.33.62-2.04.86-3.33,1.13-7.32.35-10.17-2ZM317.94,22.35c-2.78.15-5.55.81-8.08,1.94-.21.09-.42.19-.62.28.22-.1.42-.19.62-.28,2.54-1.12,5.31-1.79,8.08-1.94Z" style="fill: #fff;"/>
  </g>
  <g>
    <path d="M274.18,43.04l.35-.94c2.43.91,4.53,2.51,6.56,4.05,2.37,1.8,4.61,3.5,7.33,4.22,3.47.92,7.4-.07,10.02-2.52.83-.78,1.57-1.72,2.29-2.63,1.32-1.67,2.68-3.4,4.7-4.28,2.47-1.07,5.29-.55,7.47.02,1.47.39,2.96.86,4.39,1.32,3.71,1.19,7.55,2.42,11.42,2.18l.06,1c-4.06.25-7.99-1.01-11.79-2.23-1.42-.45-2.89-.93-4.34-1.31-2.02-.53-4.63-1.02-6.82-.07-1.79.78-3.01,2.33-4.31,3.98-.74.94-1.51,1.91-2.39,2.74-2.86,2.67-7.17,3.75-10.96,2.75-2.91-.77-5.33-2.61-7.68-4.39-1.97-1.5-4.02-3.05-6.31-3.91Z" style="fill: #fff;"/>
    <path d="M273.54,43.33l.7-1.87.47.18c2.5.94,4.63,2.55,6.69,4.12,2.33,1.77,4.53,3.44,7.16,4.13,3.3.88,7.05-.07,9.55-2.4.8-.75,1.53-1.67,2.23-2.56,1.36-1.73,2.77-3.51,4.9-4.44,2.61-1.13,5.54-.6,7.79,0,1.48.39,2.96.86,4.39,1.32,3.69,1.18,7.49,2.39,11.27,2.17l.5-.03.12,2-.5.03c-4.15.25-8.13-1.02-11.97-2.25-1.42-.45-2.88-.92-4.32-1.3-1.95-.51-4.44-.99-6.49-.1-1.67.73-2.86,2.23-4.11,3.83-.76.96-1.53,1.95-2.45,2.8-2.99,2.79-7.47,3.92-11.42,2.87-3.01-.8-5.47-2.67-7.85-4.47-1.95-1.48-3.96-3-6.18-3.84l-.47-.18ZM297.37,49.33c-.6.39-1.23.72-1.89,1,.66-.27,1.3-.61,1.89-1ZM310.19,40.92c-1.51-.19-3.11-.15-4.56.48-.11.05-.21.1-.31.15.1-.05.21-.1.31-.15,1.45-.63,3.05-.67,4.56-.48Z" style="fill: #fff;"/>
  </g>
  <g>
    <path d="M211.12,64.09l-.73-.68c1.38-1.48,3.44-2.29,5.65-2.24,2.11.05,4.04.88,5.35,2.27,1.62-.41,2.32-2.11,3.13-4.06.53-1.28,1.09-2.61,1.96-3.63,1.95-2.27,4.97-2.52,7.9-2.76,2.31-.19,4.7-.39,6.52-1.58,1.1-.72,1.92-1.76,2.8-2.87.88-1.11,1.8-2.26,3.02-3.07,1.58-1.05,3.66-1.52,6.35-1.44,5.62.17,11.21,2.47,15.32,6.3,1.14,1.06,2.19,2.25,3.21,3.4,2.13,2.41,4.14,4.68,6.91,5.94,1.87.85,3.88,1.13,6.02,1.43,1.73.24,3.51.5,5.2,1.07.41.14.81.3,1.21.46,1.14.45,2.22.87,3.35.86,1.21-.02,2.4-.56,3.54-1.08,3.23-1.47,6.41-2.83,9.79-3.28,3.89-.52,7.55.35,10.04,2.4h.01c1.4,1.16,2.43,2.64,3.43,4.08.67.96,1.36,1.95,2.14,2.81,2.46,2.71,6.1,4.34,9.76,4.37,1.19,0,2.42-.14,3.62-.29,2.16-.26,4.39-.54,6.54.1,1.85.55,3.4,1.69,4.91,2.81.53.39,1.05.78,1.59,1.14,1.43.96,4.18,2.43,6.55,1.44l.39.92c-2.08.87-4.74.33-7.49-1.53-.55-.37-1.09-.77-1.63-1.17-1.5-1.11-2.91-2.16-4.59-2.65-1.95-.58-3.99-.33-6.14-.07-1.22.15-2.49.3-3.74.29-3.93-.03-7.85-1.79-10.49-4.7-.83-.91-1.53-1.93-2.22-2.91-1-1.44-1.95-2.81-3.24-3.87h-.01c-2.28-1.88-5.66-2.67-9.28-2.19-3.25.43-6.35,1.76-9.5,3.2-1.24.57-2.53,1.15-3.94,1.17-1.33.02-2.55-.46-3.73-.93-.39-.15-.78-.31-1.17-.44-1.6-.55-3.34-.79-5.02-1.03-2.11-.3-4.29-.61-6.29-1.51-2.96-1.34-5.14-3.8-7.25-6.18-1-1.13-2.04-2.3-3.14-3.33-3.94-3.67-9.29-5.87-14.67-6.03-2.47-.07-4.36.34-5.77,1.27-1.09.72-1.92,1.76-2.79,2.86-.89,1.11-1.8,2.27-3.03,3.08-2.03,1.34-4.55,1.55-6.99,1.75-2.85.23-5.54.46-7.22,2.42-.77.9-1.29,2.15-1.8,3.36-.89,2.13-1.81,4.34-4.16,4.71l-.28.04-.18-.21c-1.12-1.32-2.87-2.1-4.81-2.15-1.93-.04-3.72.66-4.9,1.93Z" style="fill: #fff;"/>
    <path d="M211.14,64.8l-1.46-1.36.34-.37c1.47-1.58,3.67-2.46,6.03-2.4,2.11.05,4.09.85,5.48,2.2,1.2-.47,1.82-1.97,2.53-3.68.55-1.32,1.12-2.68,2.04-3.76,2.08-2.43,5.21-2.69,8.23-2.93,2.25-.19,4.58-.38,6.28-1.5,1.03-.68,1.83-1.69,2.68-2.76.91-1.14,1.85-2.32,3.14-3.18,1.67-1.11,3.85-1.61,6.64-1.52,5.74.17,11.44,2.51,15.65,6.43,1.15,1.07,2.21,2.27,3.24,3.43,2.09,2.37,4.07,4.6,6.74,5.81,1.8.82,3.78,1.09,5.88,1.39,1.75.25,3.57.5,5.3,1.1.41.14.82.3,1.23.46,1.1.43,2.13.84,3.16.82,1.11-.02,2.24-.53,3.34-1.04,3.26-1.49,6.48-2.86,9.93-3.32,4.03-.54,7.83.37,10.43,2.5,1.46,1.2,2.52,2.71,3.53,4.18.66.95,1.34,1.92,2.1,2.76,2.36,2.61,5.87,4.18,9.39,4.21,1.15,0,2.37-.14,3.54-.28,2.22-.27,4.5-.55,6.75.11,1.93.57,3.52,1.75,5.06,2.88.52.39,1.04.77,1.57,1.13,1.34.91,3.92,2.29,6.08,1.39l.46-.19.77,1.84-.46.19c-2.24.94-5.07.38-7.97-1.58-.55-.37-1.08-.76-1.62-1.16-1.49-1.1-2.87-2.12-4.47-2.59-1.85-.55-3.84-.3-5.94-.05-1.24.15-2.52.31-3.81.3-4.07-.03-8.12-1.85-10.85-4.86-.85-.93-1.56-1.96-2.26-2.96-.99-1.42-1.92-2.75-3.15-3.77-2.18-1.79-5.43-2.54-8.91-2.08-3.18.43-6.24,1.74-9.36,3.16-1.29.59-2.62,1.19-4.14,1.22-1.43.02-2.7-.48-3.92-.96-.4-.16-.77-.3-1.15-.43-1.55-.53-3.27-.77-4.93-1.01-2.15-.3-4.37-.62-6.43-1.55-3.06-1.39-5.27-3.89-7.42-6.31-.99-1.12-2.02-2.28-3.1-3.29-3.85-3.59-9.08-5.74-14.35-5.9-2.37-.07-4.16.32-5.48,1.19-1.03.68-1.83,1.69-2.67,2.75-.92,1.15-1.86,2.33-3.15,3.19-2.14,1.41-4.72,1.62-7.22,1.83-2.74.23-5.34.44-6.88,2.24-.72.84-1.23,2.06-1.72,3.23-.9,2.16-1.92,4.6-4.54,5.01l-.56.09-.36-.43c-1.03-1.21-2.65-1.93-4.44-1.97-1.79-.04-3.44.6-4.52,1.77l-.34.37ZM211.11,63.4h0c.69-.62,1.52-1.09,2.44-1.38-.92.29-1.75.76-2.44,1.38ZM220.81,63.57c.14.13.27.27.39.42h0s0,0,0,0l-.19-.2c-.07-.07-.14-.14-.21-.21ZM225.21,59.04c-.07.18-.15.35-.22.53-.83,2-1.62,3.88-3.48,4.35h-.04c1.88-.44,2.68-2.34,3.51-4.35.07-.18.15-.36.22-.53ZM227.03,55.9c-.06.06-.11.12-.16.18-.17.2-.32.4-.47.62.15-.22.3-.43.47-.62.05-.06.11-.12.16-.18ZM238.89,52.84c-.78.22-1.59.36-2.42.46.83-.1,1.64-.24,2.42-.46ZM244.61,48.2c-.18.22-.35.43-.52.65-.1.13-.2.25-.3.37.1-.12.2-.25.29-.37.18-.22.35-.44.53-.66ZM251.12,44.58c-1.67.15-3.02.58-4.12,1.31-.07.05-.14.1-.22.15.07-.05.14-.1.22-.15,1.1-.73,2.46-1.16,4.12-1.31ZM278.58,60.24c-.09-.04-.18-.08-.27-.12-.09-.04-.18-.08-.27-.13.09.04.18.09.27.13.09.04.18.08.27.12ZM270.09,52.79c.38.42.76.85,1.14,1.27.21.24.43.48.65.73-.21-.24-.43-.48-.65-.73-.37-.42-.75-.85-1.14-1.27ZM290.55,63.01c-.32-.12-.63-.25-.95-.36.32.11.64.23.95.36ZM298.85,62.49c-.27.12-.54.24-.81.37-.35.16-.71.32-1.07.47.36-.15.72-.31,1.07-.47.27-.12.54-.24.81-.36ZM323.07,68.95c1.53,1.61,3.47,2.84,5.58,3.57-2.11-.73-4.05-1.96-5.58-3.57ZM317.36,61.91c.16.14.32.27.48.42-.15-.14-.32-.25-.48-.42ZM335.88,73.08c-.63.07-1.26.14-1.89.17.63-.03,1.26-.1,1.89-.17ZM343.32,73.16c-.1-.03-.2-.07-.3-.1-.11-.03-.22-.06-.33-.09.11.03.22.06.33.09.1.03.2.06.3.1ZM348.1,76.03c-.11-.08-.22-.16-.32-.24-.23-.17-.46-.34-.69-.51.23.17.46.34.69.51.11.08.22.16.32.24ZM353.07,78.63c-1.3-.29-2.49-.92-3.35-1.46,1.16.74,2.29,1.23,3.35,1.46Z" style="fill: #fff;"/>
  </g>
  <g>
    <path d="M185.74,103.38c-2.06-1.7-3.54-3.53-4.41-5.49l-.13-.29,9.76-11.08c3.17-3.6,6.46-7.33,8.98-11.48.78-1.29,1.52-2.66,2.22-3.98,1.5-2.8,3.05-5.7,5.22-8.12l.31-.35.37.29c1.31,1.03,2.7,1.89,4.04,2.73,1.36.85,2.78,1.73,4.13,2.79l.4.32-.32.4c-3.37,4.11-6.54,8.45-9.43,12.92,2.14.19,4.47.31,6.57-.39.9-.3,2.78-.93,3.56.43l.17.29-5.11,6.6c.68-.09,1.36-.38,2.07-.68.74-.31,1.51-.63,2.32-.76.76-.11,1.51-.05,2.23.02l7.07.65-4.6,5.29c-.5.57-.88,1.05-.97,1.61-.07.49.35,1.35.57,1.4,2.7-.89,5.78-1.9,8.89-1.53,1.35.16,2.61.64,3.84,1.11.27.1.54.21.81.3l.78.29-.62.56c-2,1.79-3.51,4.07-4.4,6.6-.08.22-.15.44-.22.66-.18.57-.37,1.15-.64,1.71-.37.77-.86,1.45-1.35,2.11-1.97,2.71-3.99,5.43-6.01,8.15-2.02,2.72-4.04,5.44-6.01,8.14l-.31.43-9.89-8.3c-2.33-1.96-4.18-3.07-6.53-4.47-.55-.33-1.13-.68-1.74-1.05-1.63-1-3.58-2.31-5.47-3.59-1.32-.89-2.61-1.77-3.74-2.49-.87-.56-1.68-1.14-2.41-1.74ZM182.37,97.77c1.14,2.36,3.26,4.55,6.31,6.51,1.13.73,2.43,1.6,3.75,2.5,1.88,1.27,3.82,2.58,5.43,3.56.61.37,1.19.72,1.73,1.05,2.39,1.43,4.26,2.56,6.66,4.57l9.07,7.61c1.87-2.57,3.78-5.14,5.7-7.72,2.02-2.72,4.04-5.44,6.01-8.14.45-.62.92-1.27,1.25-1.96.24-.5.41-1.03.59-1.59.07-.23.15-.46.23-.68.85-2.43,2.25-4.65,4.08-6.46-.02,0-.04-.02-.07-.03-1.22-.46-2.37-.9-3.6-1.05-2.89-.34-5.85.63-8.47,1.48-.34.11-.72.02-1.02-.24-.6-.51-.94-1.61-.84-2.26.13-.89.73-1.57,1.2-2.12l3.32-3.82-5.13-.47c-.66-.06-1.35-.12-1.99-.03-.69.1-1.37.39-2.08.69-1.12.47-2.28.96-3.55.72l-.8-.15,5.75-7.42c-.46-.26-1.33-.03-2.15.24-2.56.85-5.34.59-7.79.36l-.81-.08.44-.69c2.93-4.6,6.17-9.07,9.62-13.3-1.19-.89-2.43-1.66-3.63-2.41-1.24-.77-2.52-1.57-3.75-2.5-1.94,2.26-3.38,4.96-4.78,7.57-.71,1.34-1.45,2.72-2.25,4.03-2.57,4.23-5.88,7.99-9.08,11.62l-9.34,10.59Z" style="fill: #fff;"/>
    <path d="M185.42,103.77c-2.12-1.74-3.65-3.65-4.55-5.67l-.26-.59,9.98-11.32c3.16-3.59,6.43-7.29,8.92-11.41.78-1.29,1.51-2.65,2.21-3.96,1.51-2.83,3.08-5.75,5.29-8.22l.63-.7.74.58c1.28,1,2.65,1.86,3.98,2.68,1.39.87,2.81,1.75,4.19,2.83l.8.63-.65.79c-3.18,3.88-6.18,7.97-8.94,12.17,1.8.13,3.77.15,5.53-.43.96-.32,3.18-1.05,4.15.65l.33.58-4.37,5.64c.18-.07.36-.15.54-.22.77-.32,1.56-.66,2.44-.79.82-.12,1.6-.05,2.35.02l8.05.73-5.25,6.03c-.44.51-.79.93-.85,1.35-.03.19.1.54.22.75,2.68-.88,5.7-1.82,8.81-1.45,1.41.17,2.7.66,3.95,1.13l2.38.88-1.24,1.11c-1.93,1.73-3.4,3.94-4.26,6.4-.08.22-.15.43-.22.65-.19.6-.39,1.19-.67,1.77-.39.81-.9,1.51-1.39,2.19-1.97,2.71-3.99,5.43-6.02,8.16-2.02,2.72-4.04,5.43-6.01,8.14l-.63.87-10.3-8.64c-2.29-1.93-4.14-3.03-6.47-4.43-.55-.33-1.13-.68-1.75-1.05-1.63-1-3.58-2.31-5.46-3.58-1.34-.91-2.63-1.78-3.75-2.5-.89-.57-1.71-1.17-2.45-1.78ZM185.88,102.85c.11.09.22.18.33.27-.11-.09-.22-.18-.33-.27ZM185.87,102.84h0s0,0,0,0ZM197.22,110.53c-1.01-.63-2.12-1.36-3.25-2.12,1.14.76,2.25,1.49,3.25,2.12ZM182.97,97.85c1.13,2.16,3.14,4.18,5.98,6.01,1.12.72,2.4,1.59,3.72,2.48,1.93,1.3,3.85,2.61,5.45,3.58.57.35,1.11.67,1.63.98l.1.06c2.39,1.43,4.28,2.58,6.73,4.61l8.66,7.26c1.77-2.43,3.58-4.86,5.39-7.29,2.02-2.72,4.04-5.43,6.01-8.14.44-.61.9-1.23,1.21-1.88.23-.47.39-.98.57-1.53.07-.23.15-.46.23-.69.78-2.25,2.04-4.34,3.66-6.1-.98-.36-1.9-.66-2.84-.78-2.78-.33-5.69.62-8.26,1.46-.51.17-1.05.04-1.5-.33-.75-.63-1.13-1.92-1.01-2.71.16-1.03.83-1.8,1.32-2.37l2.68-3.08-4.15-.38c-.64-.06-1.29-.12-1.87-.03-.63.09-1.28.37-1.96.66-1.14.48-2.42,1.02-3.84.75l-1.6-.31,5.68-7.32c-.25.05-.59.14-1.02.28-2.66.88-5.5.62-8,.38l-1.63-.15.88-1.38c2.85-4.46,5.98-8.82,9.32-12.94-1.04-.75-2.13-1.43-3.18-2.08-1.12-.7-2.27-1.42-3.41-2.24-1.75,2.14-3.1,4.67-4.41,7.12-.72,1.35-1.46,2.73-2.27,4.06-2.59,4.27-5.92,8.04-9.13,11.69l-9.11,10.34ZM202.64,113.87c-1.06-.71-2.12-1.34-3.3-2.05l-.1-.06c-.36-.22-.73-.44-1.12-.67.42.26.83.5,1.22.73,1.18.71,2.24,1.34,3.3,2.05ZM205.89,116.3s.04.03.05.05l2.87,2.41-2.87-2.41s-.04-.03-.05-.05ZM202.19,72.06c-.58,1.08-1.18,2.18-1.82,3.24-1.62,2.67-3.55,5.16-5.56,7.55,2.01-2.39,3.94-4.88,5.56-7.55.64-1.06,1.24-2.15,1.82-3.24ZM228.05,107.14h0,0ZM228.05,107.14h0s0,0,0,0ZM228.16,106.97c-.04.05-.07.11-.11.16.04-.05.07-.11.11-.16ZM228.16,106.97h0s0,0,0,0ZM228.17,106.96h0s0,0,0,0ZM229.88,102.83c-.11.27-.21.54-.31.81-.08.22-.15.45-.22.67-.04.11-.07.22-.11.33.03-.1.07-.21.1-.31.08-.24.15-.47.23-.69.09-.27.2-.54.31-.81ZM216.56,82.31l-5.51,7.11,5.51-7.11h0ZM214.81,88.52c-.17.07-.33.14-.5.21-.72.3-1.46.62-2.2.71h-.11c.77-.06,1.53-.38,2.31-.71.17-.07.33-.14.5-.21ZM223.44,90.07l-2.68,3.08c-.25.29-.53.61-.74.96.19-.32.45-.62.74-.96l2.68-3.08ZM207.14,82.54c-.1,0-.21-.02-.31-.03h-.02c.11,0,.22.02.33.03ZM209.68,76.97c-1.17,1.65-2.3,3.33-3.39,5.02l.16-.25c1.04-1.61,2.12-3.2,3.23-4.77ZM228.62,95.37c-1.74-.05-3.46.29-5.1.76,1.65-.46,3.37-.81,5.1-.76ZM216.26,81.96c-.6-.44-1.62-.21-2.66.14-1.43.47-2.94.59-4.4.56,1.48.03,2.98-.08,4.39-.55.95-.32,1.92-.56,2.55-.2l.11.06ZM224.73,88.59l-6.1-.56c-.3-.03-.6-.05-.9-.07.3.01.59.04.88.07l6.11.56ZM234.02,96.8l-.48.57c-.09.09-.18.18-.27.27.27-.28.55-.55.84-.81l-.74-.28.64.25ZM207.5,63.55c-1.52,1.76-2.74,3.77-3.86,5.81,1.11-2.01,2.3-3.99,3.8-5.74l.06-.07ZM207.75,63.27h0s.3.23.3.23c-.1-.07-.2-.15-.29-.23h0ZM215.92,68.78l-.26.33c.09-.11.18-.22.27-.32h0s0,0,0,0ZM215.59,68.53c-.87-.66-1.76-1.25-2.64-1.81.85.54,1.71,1.11,2.55,1.74l.09.07Z" style="fill: #fff;"/>
  </g>
  <g>
    <path d="M189.76,159.34l-.17-.93c-.22-1.17-.63-1.42-1.39-1.85-.46-.27-1.04-.6-1.67-1.22l-1.49-1.46c-9.1-8.97-20.43-20.13-31.32-26.65l-.49-.29.36-.45c3.16-3.95,6.36-8.45,9.45-12.81,4.95-6.98,9.63-13.56,13.84-17.53l.35-.33.34.33c7.31,7.03,17.22,13.98,25.97,20.1,5.34,3.74,10.39,7.28,14.09,10.31l.43.35-.39.39c-5.04,5.01-9.84,10.94-14.48,16.66-4.42,5.45-8.6,10.61-12.73,14.7l-.67.66ZM189.52,156.23c.32.26.6.6.81,1.13,3.9-3.95,7.87-8.85,12.06-14.01,4.54-5.6,9.23-11.39,14.16-16.35-3.62-2.94-8.47-6.33-13.6-9.92-8.64-6.05-18.41-12.9-25.74-19.87-4.05,3.93-8.58,10.31-13.37,17.05-2.99,4.2-6.07,8.54-9.13,12.4,10.84,6.61,22.02,17.63,31.02,26.5l1.49,1.46c.54.53,1.03.82,1.47,1.07.29.17.58.33.83.54Z" style="fill: #fff;"/>
    <path d="M189.44,160.35l-.35-1.86c-.18-.95-.42-1.09-1.15-1.51-.49-.28-1.09-.64-1.77-1.3l-1.49-1.46c-9.1-8.97-20.4-20.1-31.23-26.57l-.98-.59.72-.89c3.16-3.95,6.35-8.44,9.43-12.78,4.97-7,9.66-13.61,13.9-17.6l.69-.65.69.66c7.27,7,17.17,13.93,25.9,20.05,5.37,3.76,10.42,7.3,14.13,10.35l.85.7-.78.78c-5.02,4.99-9.81,10.9-14.44,16.62-4.44,5.47-8.62,10.63-12.77,14.74l-1.34,1.33ZM189.2,156.61c.41.34.71.8.88,1.71h0s0,0,0,0c.02-.02.04-.04.07-.07l-.28-.71c-.27-.68-.77-1.04-1.42-1.42-.03-.01-.05-.03-.08-.04.03.02.05.03.08.04.28.16.53.31.75.49ZM186.69,154.8l.18.18s.01.01.02.02c0,0-.01-.01-.02-.02l-.18-.18ZM191.81,156.55c-.38.4-.75.78-1.12,1.16l-.1.1c.41-.41.82-.83,1.23-1.27ZM157.58,122.09c-1.2,1.62-2.41,3.2-3.61,4.7h0c.26.16.52.32.78.48-.1-.06-.2-.12-.3-.18l-.48-.29.35-.44c1.08-1.37,2.17-2.8,3.25-4.26ZM166.18,134.35c7.11,5.84,13.99,12.62,19.91,18.45l1.49,1.46c.49.48.94.74,1.37.99.56.32,1.14.71,1.51,1.26,3.73-3.84,7.52-8.53,11.53-13.48,4.44-5.47,9.01-11.11,13.82-16-3.56-2.84-8.21-6.1-13.13-9.54-8.52-5.97-18.15-12.71-25.46-19.59-3.93,3.92-8.32,10.1-12.96,16.64-2.88,4.06-5.85,8.24-8.8,11.99,3.57,2.22,7.18,4.91,10.72,7.82ZM157.58,122.09h0s0,0,0,0ZM168.37,107.09c-1.61,2.19-3.25,4.5-4.93,6.87-.23.32-.46.65-.69.97.23-.32.46-.64.68-.96,1.68-2.37,3.33-4.69,4.94-6.88ZM213.26,131.2c-3.6,3.97-7.09,8.27-10.48,12.46-.47.58-.93,1.15-1.4,1.72.46-.57.93-1.14,1.39-1.72,3.4-4.2,6.89-8.49,10.49-12.47ZM213.27,131.19s0,0,0,0c0,0,0,0,0,0ZM213.27,131.18h0s0,0,0,0ZM215.71,128.56h0s0,0,0,0ZM215.73,128.55s0,0,0,0c0,0,0,0,0,0ZM215.74,128.53s0,0,0,0c0,0,0,0,0,0ZM217.29,126.95l-.39.39c-.39.39-.77.78-1.16,1.18.51-.53,1.03-1.06,1.55-1.57h0ZM177.21,96.51l.35.33c.1.09.19.18.29.27-.21-.2-.42-.4-.63-.6h0s0,0,0,0ZM196.55,111.95s0,0,0,0c0,0,0,0,0,0ZM203.88,117.11c-.21-.15-.41-.29-.62-.44-2.18-1.53-4.44-3.11-6.7-4.73,2.26,1.61,4.51,3.19,6.68,4.71.22.15.43.3.65.45Z" style="fill: #fff;"/>
  </g>
  <g>
    <path d="M183.4,158.9c-.39-.32-.72-.69-1.05-1.05-.16-.18-.32-.35-.49-.52-.55-.56-1.19-1.06-1.8-1.54l-.16-.12c-3.52-2.77-6.92-5.77-10.09-8.92-1.06-1.06-2.11-2.14-3.15-3.22-4.31-4.46-8.78-9.08-14.34-11.83-.51-.25-1.04-.51-1.39-1.01-.26-.37-.36-.81-.44-1.15l-1.37-5.82,1,.58c5.29,3.06,9.87,7.48,14.29,11.76,3.53,3.41,7.17,6.93,11.13,9.71,1.34.94,2.78,1.84,4.17,2.7,3.64,2.27,7.41,4.61,10.02,8.11.26.35.51.71.76,1.07.97,1.39,1.88,2.7,3.28,3.32l1.44.64-1.55.31c-.54.11-.83.24-1.14.38-.33.15-.71.33-1.36.46l-.23.05-.18-.15c-1.32-1.08-2.9-1.97-4.54-2.49l-.45-.14c-.64-.19-1.3-.39-1.9-.77-.16-.1-.32-.22-.46-.34ZM181.51,155.67c.37.3.73.62,1.08.97.17.18.34.36.51.55.42.47.82.91,1.31,1.21.49.31,1.05.48,1.65.66l.47.14c1.69.54,3.3,1.41,4.68,2.52.4-.1.65-.21.91-.33.08-.03.15-.07.24-.11-1.1-.8-1.89-1.95-2.67-3.07-.25-.35-.49-.7-.74-1.04-2.5-3.35-6.19-5.64-9.75-7.86-1.4-.87-2.85-1.78-4.22-2.73-4.02-2.82-7.7-6.37-11.25-9.81-4.09-3.96-8.32-8.04-13.09-11.01l.83,3.54c.07.29.14.6.29.81.2.29.57.47.97.67,5.76,2.85,10.28,7.53,14.65,12.05,1.04,1.08,2.08,2.16,3.14,3.21,3.14,3.13,6.51,6.11,10,8.85l.16.12c.27.21.55.43.83.66Z" style="fill: #fff;"/>
    <path d="M183.09,159.29c-.42-.34-.76-.72-1.1-1.09-.16-.17-.32-.35-.48-.51-.53-.54-1.15-1.02-1.75-1.5l-.16-.12c-3.55-2.79-6.96-5.81-10.13-8.96-1.06-1.06-2.11-2.14-3.16-3.23-4.29-4.44-8.72-9.02-14.2-11.73-.54-.27-1.15-.57-1.58-1.18-.31-.45-.43-.95-.52-1.32l-1.64-6.94,2.01,1.16c5.34,3.09,9.94,7.54,14.39,11.83,3.51,3.4,7.14,6.9,11.07,9.66,1.33.93,2.76,1.83,4.15,2.69,3.68,2.29,7.49,4.66,10.16,8.24.26.34.51.7.76,1.06.94,1.35,1.81,2.6,3.08,3.17l2.89,1.28-3.1.61c-.47.09-.73.21-1.02.35-.34.16-.77.35-1.48.49l-.47.09-.37-.3c-1.31-1.07-2.82-1.9-4.37-2.4l-.45-.14c-.67-.2-1.36-.41-2.02-.83-.18-.12-.35-.24-.52-.37ZM183.57,158.39c.18.16.36.3.57.43.03.02.06.04.08.05-.03-.02-.06-.03-.08-.05-.2-.13-.39-.27-.57-.43ZM182.61,157.4s.07.08.11.12l.09.1s-.06-.07-.09-.1c-.04-.04-.08-.08-.11-.12ZM180.3,155.35l-.09-.07c-.17-.13-.34-.27-.51-.4.17.14.34.27.51.4l.09.07ZM191.08,162.26l-.19-.15c-1.32-1.06-2.87-1.9-4.47-2.42,1.66.54,3.27,1.43,4.66,2.57h0s0,0,0,0ZM181.82,155.28c.45.37.8.69,1.11,1.01.17.17.34.35.5.53.42.46.8.88,1.23,1.15.43.27.96.43,1.53.6l.47.15c1.66.53,3.26,1.38,4.65,2.45.03,0,.06-.02.09-.03-.83-.77-1.48-1.71-2.11-2.62-.26-.37-.5-.72-.75-1.05-2.45-3.28-6.09-5.54-9.61-7.73-1.4-.87-2.85-1.78-4.24-2.75-4.05-2.84-7.74-6.4-11.31-9.85-3.78-3.65-7.67-7.41-11.98-10.28l.55,2.33c.06.25.12.51.21.64.13.18.44.34.78.51,5.84,2.89,10.39,7.6,14.79,12.15,1.06,1.09,2.09,2.16,3.13,3.2,3.12,3.11,6.47,6.08,9.96,8.81l.16.12c.28.22.56.44.83.66ZM151.5,130.58c.23.24.52.4.84.56-.31-.16-.61-.32-.84-.56ZM151.2,130.12h0ZM151.03,129.63c.04.17.09.33.16.49-.07-.16-.12-.33-.16-.49ZM164.46,140.55c.31.32.62.63.94.95-.31-.32-.62-.63-.94-.95ZM192.19,161.9c-.12.06-.25.11-.39.16.15-.05.27-.11.39-.16ZM193.36,161.39l-.75.33c.25-.11.55-.21.97-.3-.29-.13-.55-.28-.8-.45l.58.42ZM156.12,129.12c2.77,2.28,5.39,4.81,7.95,7.28,3.54,3.42,7.19,6.95,11.16,9.74-3.98-2.8-7.63-6.33-11.16-9.74-3.72-3.59-7.54-7.29-11.8-10.18,1.32.9,2.6,1.87,3.85,2.9ZM190.23,158.12c.05.07.09.14.14.2-.05-.07-.09-.13-.14-.2ZM185.78,153.21c.92.76,1.79,1.57,2.58,2.46-1.32-1.48-2.85-2.74-4.48-3.9.65.46,1.28.94,1.89,1.44Z" style="fill: #fff;"/>
  </g>
  <g>
    <path d="M166.29,155.71c-.29-.24-.58-.48-.87-.73l-7.08-5.96c-4.49-3.78-9.11-7.67-13.49-11.67l-.39-.36.39-.37c1.96-1.88,3.87-3.87,5.67-5.91l.75.66c-1.7,1.93-3.5,3.81-5.34,5.6,4.25,3.87,8.71,7.63,13.03,11.26l7.11,5.99c1.24,1.04,2.51,2.11,3.94,2.85.36.19.74.35,1.11.52.47.21.95.42,1.41.68,1.3.71,2.4,1.7,3.45,2.65l11.4,10.24c-.15-1.47-.62-2.82-1.38-3.96l-1.3-1.97,1.99,1.28c.83.53,1.67,1.1,2.47,1.75,0-.23.01-.46.02-.69.04-.8.08-1.56.17-2.31.09-.73.22-1.45.39-2.16l-.42-.7c.39-.24.71-.57.93-.97l.91.41c-.4,1.14-.67,2.33-.82,3.53-.09.72-.12,1.47-.16,2.19-.04.81-.07,1.41.29,1.92l-.77.63c-.59-.62-1.26-1.17-1.95-1.68.46,1.2.69,2.52.68,3.91v1.11s-13.12-11.78-13.12-11.78c-1.02-.91-2.07-1.86-3.27-2.52-.43-.24-.88-.44-1.33-.64-.39-.17-.78-.35-1.16-.54-1.19-.61-2.25-1.42-3.26-2.25Z" style="fill: #fff;"/>
    <path d="M165.97,156.09c-.29-.24-.59-.49-.87-.73l-7.08-5.96c-4.48-3.77-9.1-7.66-13.5-11.69l-.79-.72.77-.74c1.95-1.87,3.85-3.85,5.64-5.88l.33-.38,1.5,1.32-.33.37c-1.59,1.8-3.26,3.57-4.99,5.26,4.12,3.73,8.43,7.37,12.61,10.88l7.12,6c1.23,1.03,2.48,2.08,3.85,2.79.35.18.71.34,1.07.5.5.22.99.44,1.46.7,1.35.74,2.47,1.74,3.55,2.72l10.31,9.27c-.23-.85-.57-1.63-1.04-2.34l-2.61-3.95,3.98,2.56c.53.34,1.14.74,1.74,1.18.04-.71.08-1.38.16-2.07.08-.67.2-1.35.35-2.02l-.57-.95.43-.26c.31-.19.57-.46.75-.78l.22-.4,1.75.78-.15.43c-.39,1.11-.65,2.26-.79,3.42-.08.7-.12,1.44-.16,2.14-.04.82-.05,1.26.2,1.61l.27.38-1.49,1.22-.32-.34c-.2-.21-.42-.42-.66-.64.17.81.26,1.65.25,2.52l-.02,2.22-13.94-12.53c-1-.9-2.03-1.82-3.17-2.45-.41-.23-.84-.42-1.27-.61-.43-.19-.83-.37-1.22-.57-1.28-.66-2.41-1.54-3.35-2.31ZM145.34,137.12c4.33,3.96,8.9,7.8,13.31,11.52l7.08,5.96c.29.24.57.48.87.72.9.74,1.97,1.57,3.17,2.19.37.19.75.36,1.14.53.29.13.57.26.84.39-.28-.13-.56-.26-.84-.39-.39-.17-.77-.34-1.14-.53-1.47-.76-2.76-1.85-4.01-2.89l-7.14-6.01c-4.33-3.65-8.8-7.41-13.05-11.28l-.24-.22ZM145.18,136.98h0s.27-.26.27-.26c-.09.09-.18.17-.27.26h0ZM174.24,160.06c-.51-.42-1.03-.81-1.59-1.15,1.09.66,2.05,1.52,2.98,2.36-.45-.41-.91-.82-1.39-1.21ZM186.41,166.91c.79,1.2,1.29,2.65,1.46,4.19v.06c-.08-.9-.28-1.76-.59-2.56l-.58-1.5c-.1-.06-.19-.13-.29-.19ZM188.87,168.66c.31.25.59.51.86.76l.1-.08c-.21-.51-.19-1.07-.16-1.7-.01.2-.02.4-.02.61v1.05s-.82-.67-.82-.67c-.19-.16-.39-.31-.58-.46.22.16.42.32.62.48ZM189.89,164.91c-.02.13-.04.26-.05.39-.01.1-.02.19-.03.29,0-.1.02-.19.03-.29.02-.13.03-.26.05-.39ZM189.98,162.53l.29.48-.05.2c-.02.09-.04.18-.06.27.11-.46.23-.92.38-1.37l-.11-.05c-.13.17-.28.33-.45.47Z" style="fill: #fff;"/>
  </g>
  <g>
    <path d="M164.6,170.32c-2.25-1.85-4.27-4.04-6.25-6.18-1.73-1.87-3.51-3.8-5.41-5.48-1.06-.93-2.2-1.82-3.31-2.68-2.88-2.24-5.85-4.55-7.69-7.78l-.3-.53,6.73-2.24c.28-.09.57-.2.66-.37.12-.22-.08-.61-.35-.86-.12-.11-.25-.21-.37-.31-.32-.25-.68-.54-.91-.95-.24-.43-.26-1.01-.05-1.45.17-.35.47-.58.83-.64l.15.99s-.05,0-.09.08c-.07.15-.06.37.02.52.14.25.39.45.66.66.15.12.3.23.43.36.56.52.94,1.37.54,2.08-.29.52-.87.71-1.22.83l-5.56,1.85c1.77,2.79,4.49,4.91,7.12,6.96,1.12.87,2.28,1.78,3.36,2.72,1.94,1.71,3.75,3.66,5.49,5.55,3.53,3.83,6.87,7.45,11.4,9.36l3.04-3.79.36.66c1.2,2.21,2.77,4.17,4.67,5.82.13.12.19.15.22.15h0s.04-.03.16-.14c.76-.73,1.33-1.64,1.66-2.64.19-.58.25-1.06.17-1.47-.1-.55-.44-1.05-.8-1.58-.13-.2-.26-.39-.39-.59-.7-1.14-.8-2.26-.26-3.06l.83.56c-.45.67.1,1.68.28,1.98.11.19.24.37.36.55.4.59.82,1.21.95,1.97.1.58.04,1.22-.21,1.96-.38,1.15-1.04,2.21-1.91,3.05-.2.2-.46.4-.82.42-.43.02-.74-.25-.91-.4-1.8-1.57-3.32-3.4-4.52-5.45l-2.57,3.21-.34-.14c-2.17-.86-4.09-2.12-5.86-3.57Z" style="fill: #fff;"/>
    <path d="M164.28,170.7c-2.28-1.88-4.32-4.09-6.3-6.23-1.73-1.87-3.5-3.79-5.38-5.44-1.05-.92-2.19-1.81-3.29-2.66-2.91-2.26-5.92-4.61-7.82-7.93l-.61-1.06,7.31-2.44c.15-.05.26-.09.33-.12-.03-.07-.1-.17-.2-.26-.11-.1-.22-.19-.34-.29-.32-.25-.75-.59-1.04-1.1-.33-.57-.35-1.32-.07-1.91.24-.5.68-.83,1.21-.91l.49-.08.3,1.98-.13.02c.11.15.28.29.46.43.17.13.33.26.47.4.7.65,1.17,1.74.64,2.69-.39.69-1.11.93-1.5,1.06l-4.94,1.65c1.72,2.45,4.21,4.4,6.63,6.28,1.15.89,2.31,1.8,3.4,2.76,1.96,1.72,3.77,3.68,5.52,5.58,3.41,3.69,6.63,7.19,10.89,9.1l3.27-4.08.72,1.32c1.14,2.11,2.62,3.97,4.41,5.56.62-.64,1.09-1.43,1.37-2.28.16-.5.21-.9.16-1.23-.08-.45-.39-.9-.72-1.39-.14-.2-.27-.41-.4-.61-.81-1.32-.9-2.63-.25-3.6l.28-.42,1.66,1.11-.28.42c-.21.31,0,.95.3,1.44.11.18.23.36.35.53.41.61.88,1.29,1.03,2.16.12.66.05,1.38-.22,2.21-.4,1.23-1.11,2.36-2.04,3.25-.26.25-.62.53-1.14.56-.64.03-1.07-.35-1.26-.52-1.66-1.44-3.08-3.1-4.25-4.96l-2.36,2.94-.69-.27c-2.03-.81-3.99-2-5.99-3.65ZM173.45,169.93l-2.8,3.5h0l2.79-3.49.37.63c.19.33.4.65.6.97-.34-.52-.66-1.06-.96-1.61h0ZM142.67,148.46c1.8,2.86,4.52,4.99,7.17,7.05-2.65-2.07-5.36-4.19-7.15-7.02l-.02-.04ZM178.29,175.94s.09.07.15.11c-.05-.03-.09-.07-.15-.11ZM177.52,175.25c.23.22.46.43.7.64.01,0,.02.02.03.03-.01-.01-.03-.02-.04-.04-.24-.21-.47-.42-.7-.63ZM149.14,145.62c-.18.12-.41.2-.63.28l-1.86.62,1.86-.62c.18-.06.43-.14.63-.28ZM180.69,173.96s0,0,0,0t0,0ZM181.29,171.79c0,.38-.08.79-.23,1.25-.1.31-.23.62-.37.91.15-.29.27-.6.37-.91.15-.46.23-.88.23-1.25ZM149.48,145.24s-.02.04-.03.06c-.01.02-.03.04-.04.06.01-.02.03-.04.04-.06.01-.02.02-.04.03-.06ZM180.58,169.86c.26.4.5.81.62,1.27-.12-.46-.35-.86-.62-1.27ZM148.78,143.64c.08.06.15.12.22.19-.13-.12-.26-.23-.4-.33-.24-.19-.48-.38-.67-.62.19.25.44.44.66.62.06.05.12.1.18.15ZM179.49,167.62c.05.42.22.88.51,1.36.06.1.13.2.2.3-.07-.1-.13-.2-.2-.3-.17-.27-.44-.79-.51-1.36Z" style="fill: #fff;"/>
  </g>
  <g>
    <path d="M139.83,160.51l5.95-7.23.77.63-4.92,5.99c.86.34,1.59.94,2.3,1.53l.17.14h0c2.62,2.15,5.57,3.96,8.43,5.7l5.96,3.64c1.19.73,2.42,1.49,3.53,2.4,1.3,1.08,2.42,2.39,3.5,3.66,1.65,1.94,3.22,3.77,5.35,4.83.71-1.1.73-2.65,0-3.75-.13-.2-.28-.38-.43-.57-.27-.33-.55-.67-.74-1.09-.37-.78-.32-1.89.49-2.4l.53.85c-.3.19-.3.74-.12,1.13.14.31.37.59.61.88.17.21.34.42.49.65,1.05,1.58.93,3.79-.29,5.25l-.24.29-.34-.15c-2.52-1.11-4.33-3.22-6.07-5.26-1.06-1.24-2.15-2.51-3.38-3.54-1.06-.89-2.25-1.61-3.41-2.31l-5.96-3.64c-2.89-1.76-5.87-3.58-8.54-5.78h0s-.17-.15-.17-.15c-.81-.67-1.65-1.36-2.62-1.54l-.84-.15Z" style="fill: #fff;"/>
    <path d="M138.9,160.85l6.81-8.28,1.55,1.27-4.83,5.88c.68.37,1.28.87,1.82,1.32l.17.14c2.59,2.13,5.53,3.92,8.38,5.66l5.96,3.64c1.25.76,2.47,1.53,3.59,2.44,1.33,1.11,2.47,2.44,3.56,3.72,1.51,1.77,2.94,3.44,4.76,4.48.38-.9.31-2.01-.21-2.8-.12-.18-.25-.34-.39-.5-.29-.36-.6-.74-.83-1.21-.46-.97-.38-2.37.67-3.04l.42-.27,1.07,1.69-.42.27s-.04.28.07.49c.12.25.33.51.55.78.18.23.36.45.52.69,1.17,1.76,1.04,4.22-.32,5.85l-.48.58-.69-.3c-2.63-1.16-4.47-3.31-6.25-5.4-1.04-1.22-2.12-2.48-3.32-3.48-1.03-.88-2.18-1.56-3.31-2.25l-6.01-3.66c-2.91-1.77-5.91-3.6-8.6-5.82l-.18-.15c-.77-.63-1.56-1.28-2.38-1.43l-1.68-.3ZM140.8,160.11l-.05.06c1.08.19,1.97.92,2.83,1.63l.19.16h0s-.18-.14-.18-.14c-.67-.55-1.36-1.13-2.16-1.45l-.64-.25ZM158.27,171.35s-.03-.02-.04-.03l-5.96-3.64c-.11-.06-.21-.13-.32-.19.1.06.21.13.31.19l5.97,3.64s.03.02.04.03ZM171.39,177.93c.72,1.23.69,2.9-.1,4.12l-.03.05c.82-1.23.88-2.9.13-4.17ZM161.7,173.68h0c.25.21.49.42.72.65-.24-.22-.48-.44-.72-.64h0ZM170.19,176.26c.14.27.32.5.51.74-.19-.23-.37-.48-.51-.74ZM169.99,175.62h0,0ZM170.1,174.79c-.12.24-.15.54-.12.83-.04-.29,0-.58.12-.83h0Z" style="fill: #fff;"/>
  </g>
  <g>
    <path d="M131.74,205.93l-.3-.25c-3.23-2.66-6.46-5.63-9.88-9.05l-.29-.29.22-.34c1.76-2.7,3.72-5.32,5.81-7.77,2.25-2.64,5.34-5.72,9.28-6.18.35-.04.69-.08.81-.23.08-.1.1-.28.12-.45.12-1.31-.17-2.61-.49-3.98-.13-.59-.27-1.17-.37-1.76-.24-1.41-.29-2.84-.34-4.23-.03-.85-.06-1.72-.02-2.59.13-2.79.99-5.52,2.49-7.87l.26-.41.42.26c7.58,4.62,15.47,10.33,24.14,17.44l.23.19-.05.29c-.12.68-.18,1.37-.24,2.04-.06.69-.13,1.41-.26,2.12-.18,1.03-.37,2.09-.8,3.09-.5,1.16-1.3,2.05-2.24,2.51-.38.19-.79.3-1.15.4-1.73.46-3.26.7-5.26.81-2.2,2.06-3.58,4.72-5.05,7.53-.76,1.46-1.55,2.96-2.45,4.36-1.95,3.02-4.51,5.59-6.99,8.07l-.47.47-.28-.07c-2.66-.71-4.88-2.46-6.84-4.08ZM122.55,196.21c3.29,3.28,6.4,6.13,9.52,8.7,1.89,1.55,4.02,3.31,6.49,4.05l.06-.06c2.44-2.45,4.96-4.98,6.86-7.91.88-1.36,1.65-2.84,2.4-4.28,1.47-2.82,2.99-5.73,5.4-7.92l.13-.12h.18c2.01-.11,3.52-.34,5.23-.79.32-.09.66-.18.97-.33.72-.35,1.35-1.07,1.76-2.01.39-.89.57-1.89.74-2.86.12-.68.18-1.37.24-2.04.06-.6.11-1.21.21-1.83-8.38-6.86-16.03-12.4-23.37-16.91-1.25,2.11-1.96,4.51-2.07,6.97-.04.83,0,1.68.02,2.51.05,1.36.1,2.76.33,4.1.1.57.23,1.14.36,1.71.32,1.39.65,2.82.51,4.29-.03.31-.09.68-.33.98-.38.48-.99.55-1.43.6-3.64.42-6.55,3.34-8.68,5.84-1.98,2.32-3.83,4.78-5.51,7.33Z" style="fill: #fff;"/>
    <path d="M131.42,206.32l-.3-.25c-3.25-2.68-6.49-5.65-9.92-9.09l-.57-.57.44-.68c1.77-2.72,3.74-5.36,5.85-7.82,2.31-2.71,5.49-5.87,9.6-6.35.14-.02.35-.04.47-.07,0-.03.01-.08.02-.16.11-1.23-.17-2.49-.48-3.82-.14-.6-.27-1.2-.38-1.79-.25-1.44-.3-2.89-.35-4.29-.03-.87-.06-1.75-.02-2.64.13-2.88,1.02-5.69,2.56-8.12l.53-.83.84.51c7.6,4.64,15.51,10.35,24.19,17.48l.45.37-.1.58c-.12.67-.18,1.38-.24,2-.06.7-.13,1.43-.26,2.17-.19,1.05-.38,2.14-.84,3.2-.55,1.27-1.43,2.25-2.48,2.76-.42.21-.86.33-1.23.43-1.72.46-3.23.7-5.18.81-2.06,1.99-3.4,4.55-4.82,7.27-.76,1.46-1.56,2.98-2.47,4.4-1.98,3.07-4.56,5.66-7.06,8.16l-.67.68-.56-.15c-2.66-.71-4.84-2.38-7.03-4.17ZM126.19,200.42c1.88,1.74,3.72,3.36,5.57,4.88l.3.25c2.01,1.65,4,3.19,6.34,3.89-2.52-.76-4.67-2.53-6.57-4.08-1.88-1.55-3.74-3.18-5.63-4.93ZM123.2,196.15c3.17,3.16,6.18,5.9,9.2,8.38,1.82,1.49,3.8,3.12,6.03,3.87,2.41-2.42,4.82-4.87,6.64-7.67.87-1.34,1.64-2.81,2.38-4.24,1.49-2.86,3.03-5.81,5.5-8.06l.27-.24.36-.02c1.97-.1,3.46-.32,5.13-.77.3-.08.61-.17.88-.3.62-.3,1.16-.92,1.52-1.76.36-.84.54-1.81.7-2.75.12-.67.18-1.38.24-2,.05-.52.1-1.05.17-1.58-8.12-6.63-15.54-12.01-22.66-16.42-1.05,1.93-1.65,4.09-1.75,6.29-.04.8,0,1.64.02,2.45.05,1.36.1,2.74.32,4.05.09.55.22,1.1.34,1.65.33,1.46.67,2.93.53,4.48-.03.37-.11.84-.44,1.24-.51.64-1.26.73-1.76.78-3.46.4-6.29,3.24-8.36,5.67-1.88,2.2-3.64,4.53-5.25,6.94ZM142.59,205.51c-1.17,1.3-2.4,2.53-3.61,3.74l-.21.21-.35-.03c.1.03.19.06.29.08l.27-.27c1.21-1.21,2.44-2.45,3.61-3.74ZM126.47,190.01h0s0,0,0,0ZM136.66,182.55s0,0-.01,0c-3.76.44-6.76,3.44-8.96,6.01-.41.48-.81.96-1.21,1.45.4-.49.8-.97,1.21-1.45,2.18-2.56,5.18-5.55,8.97-6.01ZM147.6,198.33c-.27.51-.55,1.02-.84,1.52.29-.5.57-1.01.84-1.52ZM137.3,182.44c-.17.05-.36.08-.55.1.18-.02.38-.05.55-.1ZM137.89,181.97c-.03.06-.06.11-.1.16-.01.02-.03.04-.05.05.02-.02.03-.04.05-.05.04-.05.07-.11.1-.16ZM137.89,181.97h0,0ZM138.03,181.22c0,.07,0,.13-.02.2,0,.06-.01.13-.02.19,0-.07.02-.13.02-.2,0-.07.01-.13.02-.2ZM137.09,175.17c.02.13.04.25.06.38.08.46.18.92.28,1.38-.11-.47-.2-.92-.28-1.38-.02-.13-.04-.25-.06-.38ZM153.62,189.16h0s.04,0,.04,0c-.01,0-.02,0-.03,0h0ZM158.45,188.49c-1.25.31-2.44.5-3.83.61,1.39-.11,2.57-.3,3.83-.61ZM160.63,187.6c-.2.15-.4.29-.62.39-.03.01-.06.03-.09.04.03-.01.06-.03.09-.04.21-.1.42-.24.62-.39ZM138.67,162.11c-1.02,1.87-1.64,3.94-1.83,6.06.19-2.12.82-4.19,1.83-6.06ZM163.28,178.59l-.04.28c-.09.61-.15,1.21-.2,1.79-.06.66-.13,1.39-.25,2.09-.18,1-.36,2.03-.77,2.97-.1.24-.22.46-.34.67.13-.21.24-.43.34-.67.41-.95.59-1.98.77-2.97.12-.7.19-1.4.25-2.08.06-.64.13-1.37.25-2.08h0ZM140.4,161.94c-.29-.18-.58-.36-.87-.54l.1.06c.26.16.52.32.77.48ZM163.19,178.52c-1.71-1.4-3.39-2.75-5.05-4.05,1.61,1.26,3.25,2.57,4.91,3.93l.13.11Z" style="fill: #fff;"/>
  </g>
  <g>
    <path d="M127.53,214.96c-1.18-.97-2.01-2.38-2.73-3.6-1.03-1.74-2.33-3.55-4.21-3.75l-.73-.08.34-.65c1.21-2.32,1.93-4.92,2.07-7.53l1,.06c-.14,2.53-.79,5.05-1.88,7.34,1.95.54,3.3,2.44,4.27,4.1.97,1.64,2.07,3.5,3.81,4.07l4.31-5.25.77.63-4.48,5.45c-.05.12-.15.22-.28.28l-.34.14-.26-.29c-.63-.2-1.18-.52-1.67-.93ZM129.44,215.96s0,0,0,0c0,0,0,0,0,0Z" style="fill: #fff;"/>
    <path d="M127.21,215.35c-1.24-1.02-2.09-2.46-2.84-3.73-.96-1.64-2.17-3.33-3.83-3.5l-1.46-.15.68-1.31c1.18-2.25,1.87-4.79,2.01-7.33l.03-.5,2,.11-.03.5c-.13,2.4-.72,4.81-1.7,7.02,1.84.76,3.1,2.59,4.02,4.14.86,1.46,1.83,3.1,3.22,3.73l4.4-5.36,1.55,1.27-4.76,5.79c-.11.21-.29.38-.51.47l-.66.27-.4-.45c-.6-.21-1.17-.54-1.7-.98ZM129.39,215.43l-.08-.03c-.08-.03-.16-.05-.23-.08.09.04.18.07.28.1h.04ZM129.56,215.54l.04.04h0s.07-.12.07-.12l-.04.04-.06-.02-.02.05ZM129.49,215.46l.07.08.02-.05-.09-.03ZM120.9,206.63c-.08.17-.16.33-.25.49h0c.17.02.34.05.51.09l-.47-.13.22-.45ZM122.74,199.89c-.01.13-.02.25-.03.38.01-.13.02-.25.04-.38h0Z" style="fill: #fff;"/>
  </g>
  <g>
    <path d="M123.62,222.63c-1.69-1.39-3.21-2.97-4.62-4.44l-2.24-2.33c-2.13-2.22-4.78-4.97-5.49-8.47l-.05-.26.18-.19c1.07-1.12,3.01-1.26,4.24-.3.59.46.98,1.1,1.35,1.71.42.69.82,1.34,1.46,1.61,0-.02.01-.05.02-.07l.58-2.57.98.22-.58,2.58c-.04.18-.15.65-.59.83-.34.14-.66,0-.76-.04-.95-.38-1.46-1.22-1.95-2.02-.34-.56-.65-1.11-1.11-1.44-.76-.59-1.96-.56-2.71.04.73,3.09,3.19,5.64,5.17,7.71l2.24,2.33c2.55,2.65,5.17,5.38,8.53,6.95.66.31,1.52.64,2.27.41.34-.1.66-.4.79-.75.06-.16.11-.4-.03-.62-.11-.17-.31-.32-.53-.47-.3-.21-.63-.46-.84-.85-.36-.68-.13-1.38.06-1.99.1-.3.19-.58.21-.83.08-.9-.69-1.74-1.41-2.45l.7-.71c.89.88,1.82,1.92,1.71,3.25-.03.37-.15.72-.25,1.06-.16.49-.29.91-.13,1.22.1.18.3.33.54.5.27.2.58.42.79.76.27.44.31.97.11,1.5-.24.64-.79,1.16-1.44,1.36-1.07.32-2.16-.08-2.98-.46-1.53-.71-2.92-1.66-4.21-2.72ZM118.41,210.05h0s0,0,0,0Z" style="fill: #fff;"/>
    <path d="M123.3,223.02c-1.72-1.41-3.28-3.04-4.66-4.48l-2.24-2.33c-2.17-2.26-4.88-5.08-5.62-8.72l-.1-.51.36-.38c1.24-1.3,3.49-1.46,4.91-.35.66.54,1.09,1.22,1.47,1.84.23.38.46.75.71,1.02l.54-2.4,1.95.44-.69,3.06c-.13.6-.43,1-.89,1.18-.35.14-.73.13-1.14-.04-1.1-.44-1.68-1.39-2.19-2.23l-.08-.14c-.29-.47-.56-.92-.89-1.15-.49-.38-1.27-.43-1.84-.14.8,2.81,3.09,5.2,4.95,7.13l2.24,2.33c2.52,2.62,5.12,5.32,8.38,6.84.58.27,1.33.56,1.91.38.19-.06.39-.25.47-.45.01-.03.04-.13.01-.18-.05-.09-.23-.21-.38-.32-.32-.22-.74-.52-1-1.04-.46-.87-.17-1.74.03-2.38.09-.27.17-.52.19-.72.06-.65-.58-1.37-1.27-2.05l-.36-.35,1.41-1.42.36.35c.97.96,1.99,2.1,1.86,3.65-.04.43-.16.82-.28,1.17-.1.32-.23.71-.16.84.04.07.22.21.38.32.31.22.67.48.94.91.36.57.41,1.26.15,1.94-.3.79-.97,1.42-1.76,1.66-1.23.37-2.43-.06-3.34-.49-1.43-.67-2.84-1.58-4.31-2.79ZM128.17,224.96s-.09-.04-.14-.06c-.08-.04-.16-.08-.24-.11.08.04.16.08.24.11.05.02.09.04.14.06ZM111.81,207.52c.48,2.07,1.67,3.89,3.01,5.48-1.32-1.58-2.51-3.38-2.99-5.42v-.06ZM131.77,224.3c-.19.49-.62.89-1.11,1.04-.15.04-.29.07-.44.09.15-.01.29-.04.44-.09.49-.15.91-.54,1.11-1.04ZM131.35,222.83c.14.12.27.24.36.39.18.3.21.66.08,1.03.13-.37.11-.73-.08-1.03-.14-.23-.35-.39-.56-.55.07.05.14.1.2.16ZM130.52,222.17c.14.16.31.28.47.4-.18-.13-.34-.25-.47-.4ZM130.37,220.6c-.13.42-.21.82-.07,1.2-.14-.38-.05-.79.07-1.2ZM116.71,208.85c.41.67.84,1.27,1.52,1.56-.68-.3-1.12-.92-1.52-1.56ZM118.51,210.49l-.26-.07s.02,0,.02.01c.05.02.14.06.24.06ZM115.34,207.04h0c-.07-.06-.14-.11-.21-.15.07.05.15.1.22.15h0ZM119.42,207.91l-.48,2.12v-.03s.48-2.09.48-2.09ZM130.67,218.9c.02.16.03.32.02.48,0,.02,0,.03,0,.05,0-.02,0-.03,0-.05.01-.16,0-.32-.02-.48Z" style="fill: #fff;"/>
  </g>
  <g>
    <path d="M119.24,226.67c-2.83-2.33-5.48-4.88-7.91-7.62l-.14-.16c-1.19-1.35-2.43-2.74-4.06-3.17l-.72-.19.45-.59c1.31-1.74,2.9-3.2,4.75-4.35l.53.85c-1.54.96-2.9,2.15-4.05,3.56,1.58.66,2.78,2.02,3.86,3.24l.14.16c3.71,4.18,7.92,7.9,12.53,11.07l.57-4.17.99.14-.79,5.76-.67-.44c-1.89-1.27-3.72-2.62-5.47-4.07Z" style="fill: #fff;"/>
    <path d="M118.92,227.06c-2.84-2.34-5.53-4.92-7.97-7.68l-.14-.16c-1.14-1.29-2.32-2.63-3.81-3.02l-1.44-.38.89-1.19c1.34-1.79,2.99-3.3,4.88-4.48l.42-.26,1.06,1.7-.42.26c-1.31.82-2.49,1.81-3.52,2.97,1.38.76,2.46,1.98,3.42,3.06l.15.17c3.5,3.95,7.45,7.48,11.77,10.53l.53-3.86,1.98.27-.97,7.05-1.33-.89c-1.9-1.27-3.75-2.65-5.51-4.1ZM111.58,218.58l.13.14c3.75,4.23,8.05,8.03,12.74,11.24l-.13-.09c-4.64-3.19-8.88-6.94-12.62-11.15l-.12-.14ZM125.33,227.8l-.35,2.53.35-2.53ZM107.28,215.2s-.02.03-.03.04h0c.18.05.36.11.54.18l-.51-.21ZM110.86,211.69c-1.18.86-2.25,1.86-3.17,3h0c.93-1.14,1.99-2.14,3.17-3ZM110.87,211.68s0,0,0,0c0,0,0,0,0,0Z" style="fill: #fff;"/>
  </g>
  <g>
    <path d="M100.08,224.53l5.03-9.34.88.47-4.44,8.25c1.49.53,2.78,1.49,4.08,2.52,4.86,3.83,9.5,8.02,13.82,12.46.54-.72.84-1.66,1.16-2.64.49-1.5.99-3.05,2.43-3.86l.49.87c-1.1.62-1.53,1.92-1.97,3.3-.4,1.23-.81,2.49-1.74,3.42l-.36.36-.35-.37c-4.39-4.56-9.14-8.85-14.1-12.76-1.38-1.09-2.75-2.1-4.32-2.52l-.61-.16Z" style="fill: #fff;"/>
    <path d="M99.34,224.85l5.56-10.34,1.76.95-4.41,8.2c1.35.59,2.56,1.49,3.68,2.38,4.71,3.72,9.22,7.77,13.42,12.05.31-.58.53-1.27.77-1.98.5-1.53,1.05-3.25,2.67-4.15l.44-.24.98,1.74-.44.24c-.93.52-1.33,1.74-1.74,3.02-.42,1.28-.85,2.61-1.86,3.62l-.72.72-.71-.73c-4.38-4.54-9.1-8.82-14.04-12.72-1.34-1.06-2.66-2.04-4.14-2.43l-1.22-.33ZM117.98,238.12c.5.5.99,1.01,1.48,1.52h0s-.38-.39-.38-.39c-.37-.38-.73-.75-1.1-1.12ZM105.31,215.87l-4.49,8.34c1.66.44,3.07,1.49,4.5,2.61.28.22.56.44.84.67-.28-.22-.56-.45-.84-.67-1.26-.99-2.51-1.93-3.94-2.44l-.55-.2,4.48-8.32ZM122.87,233.11c-.81.64-1.22,1.61-1.58,2.67.35-1.03.77-2.02,1.58-2.67h0Z" style="fill: #fff;"/>
  </g>
  <g>
    <path d="M.81,389.05c-1.23-3.64,1.49-7.2,3.68-10.07l.23-.3c6.13-8.04,9.36-17.93,12.48-27.48,1.65-5.06,3.37-10.3,5.49-15.24,7.4-17.17,19.92-31.31,32.04-44.99l10.43-11.78c1.51-1.71,3.07-3.47,4.88-4.96.91-.75,1.88-1.43,2.82-2.09,1.03-.72,2.09-1.46,3.05-2.28,1.76-1.5,3.23-3.3,4.83-5.32,8.75-11.03,17.07-22.62,24.72-34.44l.84.54c-7.66,11.85-16,23.46-24.77,34.52-1.64,2.07-3.14,3.9-4.97,5.46-1,.85-2.08,1.61-3.12,2.34-.93.65-1.88,1.32-2.76,2.04-1.74,1.44-3.28,3.17-4.77,4.85l-10.43,11.78c-12.06,13.62-24.53,27.7-31.87,44.72-2.11,4.9-3.81,10.11-5.46,15.15-3.15,9.64-6.41,19.6-12.64,27.78l-.23.3c-2.15,2.82-4.59,6.01-3.52,9.14l-.95.32Z" style="fill: #fff;"/>
    <path d="M.5,389.68l-.16-.47c-1.32-3.89,1.49-7.57,3.75-10.53l.23-.3c6.08-7.98,9.29-17.81,12.4-27.33,1.66-5.07,3.37-10.32,5.51-15.28,7.43-17.25,19.98-31.42,32.12-45.12l10.43-11.78c1.53-1.72,3.1-3.5,4.93-5.01.92-.76,1.9-1.45,2.85-2.11,1.02-.71,2.07-1.45,3.01-2.25,1.72-1.47,3.18-3.25,4.77-5.25,8.74-11.01,17.05-22.59,24.69-34.4l.27-.42,1.68,1.09-.27.42c-7.67,11.86-16.01,23.48-24.8,34.55-1.65,2.09-3.18,3.94-5.03,5.53-1.01.87-2.11,1.63-3.16,2.37-.92.65-1.87,1.31-2.73,2.02-1.71,1.41-3.24,3.13-4.71,4.79l-10.43,11.78c-12.04,13.59-24.48,27.64-31.78,44.59-2.1,4.88-3.8,10.08-5.45,15.11-3.16,9.67-6.43,19.68-12.72,27.92l-.23.31c-2.07,2.72-4.43,5.79-3.45,8.67l.16.47-1.89.64ZM14.66,360.26c-1.71,4.72-3.66,9.37-6.18,13.67,2.52-4.31,4.47-8.95,6.18-13.67ZM25.97,330.22c-1,1.94-1.95,3.92-2.82,5.94-.84,1.94-1.61,3.92-2.33,5.93.73-2,1.5-3.99,2.33-5.93.87-2.02,1.81-4,2.82-5.94ZM25.97,330.22h0s0,0,0,0ZM74.78,271.4c-.54.4-1.08.78-1.62,1.15-.94.65-1.9,1.33-2.79,2.06-.55.46-1.09.94-1.6,1.44.52-.5,1.05-.99,1.6-1.44.89-.73,1.85-1.41,2.78-2.06.54-.38,1.09-.76,1.63-1.16ZM99.3,240.26c-5.77,8.41-11.85,16.65-18.16,24.6-.97,1.22-1.89,2.36-2.85,3.4.96-1.04,1.88-2.18,2.85-3.4,6.31-7.95,12.39-16.19,18.16-24.6ZM99.33,240.23s0,0,0,0c0,0,0,0,0,0Z" style="fill: #fff;"/>
  </g>
  <g>
    <path d="M13.32,390.3c3.15-14.3,10.28-27.4,17.18-40.07,5.56-10.21,11.3-20.76,14.95-31.9l.3-.91c.51-1.59,1.04-3.24,1.79-4.78.99-2.05,2.35-3.91,3.65-5.64,8.24-10.9,17.67-20.93,28.04-29.83.91-.78,1.82-1.55,2.74-2.32,3.09-2.6,6.29-5.29,9.1-8.26,3.15-3.32,5.95-7.1,8.65-10.76,4.34-5.88,8.83-11.95,14.89-16.25l.58.82c-5.93,4.2-10.37,10.21-14.66,16.02-2.72,3.69-5.54,7.5-8.73,10.86-2.85,3.01-6.07,5.72-9.18,8.34-.91.77-1.82,1.54-2.73,2.31-10.31,8.85-19.7,18.83-27.89,29.67-1.28,1.69-2.6,3.5-3.55,5.47-.72,1.48-1.23,3.1-1.74,4.65l-.3.92c-3.67,11.22-9.44,21.82-15.02,32.07-6.87,12.61-13.97,25.65-17.08,39.81l-.98-.22Z" style="fill: #fff;"/>
    <path d="M12.73,390.68l.11-.49c3.16-14.37,10.31-27.5,17.23-40.2,5.55-10.19,11.28-20.72,14.91-31.81l.3-.91c.52-1.61,1.05-3.27,1.81-4.85,1.01-2.09,2.38-3.97,3.71-5.72,8.26-10.93,17.72-20.99,28.11-29.91.91-.78,1.82-1.55,2.74-2.32,3.08-2.6,6.27-5.28,9.06-8.22,3.13-3.3,5.91-7.07,8.61-10.72,4.36-5.91,8.87-12.02,15-16.36l.41-.29,1.16,1.63-.41.29c-5.86,4.15-10.28,10.13-14.54,15.91-2.73,3.7-5.56,7.53-8.77,10.91-2.87,3.02-6.09,5.74-9.21,8.36-.93.78-1.84,1.55-2.74,2.32-10.28,8.83-19.65,18.79-27.82,29.6-1.26,1.67-2.57,3.46-3.5,5.38-.7,1.45-1.21,3.05-1.71,4.59l-.3.92c-3.69,11.26-9.46,21.88-15.05,32.14-6.85,12.59-13.94,25.6-17.04,39.69l-.11.49-1.95-.43ZM45.69,319.21c-2.48,7.38-5.86,14.51-9.48,21.44,3.62-6.94,7-14.06,9.48-21.44ZM51.24,307.76c-1.18,1.58-2.38,3.26-3.26,5.09-.02.03-.03.06-.05.1.01-.03.03-.06.05-.1.88-1.83,2.07-3.51,3.26-5.09ZM84.49,273.37c-.74.63-1.47,1.25-2.2,1.86-.92.77-1.83,1.54-2.73,2.32-6.63,5.69-12.88,11.85-18.68,18.4,5.8-6.55,12.05-12.71,18.68-18.41.91-.78,1.82-1.55,2.73-2.31.73-.62,1.47-1.24,2.21-1.87ZM114.48,240.28c-5.02,3.67-8.96,8.59-12.67,13.55,3.71-4.97,7.65-9.89,12.67-13.55h0Z" style="fill: #fff;"/>
  </g>
  <g>
    <path d="M195.39,98.1l-.16-.94c-.14-.84.19-1.62.49-2.31l.09-.21c.16-.38.27-.83.38-1.27.31-1.29.75-3.05,2.89-2.56,1.24.28,2.54,1.47,3.79,2.62.73.67,1.41,1.3,2,1.66l.61.38-.57.44c-.68.52-.91,1.45-1.16,2.43-.28,1.12-.58,2.28-1.57,3.01l-.34.25-.3-.29c-1.29-1.24-2.67-2.41-4.1-3.49-.5-.38-1.11-.65-1.36-.4l-.68.67ZM196.72,95.03l-.09.21c-.16.38-.32.74-.39,1.09.53-.03,1.15.2,1.8.69,1.33,1.01,2.62,2.1,3.84,3.24.47-.54.67-1.33.88-2.17.23-.89.46-1.81,1.04-2.52-.52-.39-1.06-.89-1.63-1.41-1.1-1.01-2.35-2.16-3.33-2.38-1.09-.25-1.32.27-1.7,1.82-.12.48-.24.97-.43,1.42h0Z" style="fill: #fff;"/>
    <path d="M195.06,99.13l-.32-1.89c-.17-.98.21-1.87.52-2.59l.09-.2c.14-.34.25-.76.35-1.18.3-1.25.86-3.54,3.49-2.94,1.37.31,2.72,1.55,4.01,2.74.71.65,1.38,1.27,1.93,1.61l1.22.76-1.14.88c-.54.41-.75,1.26-.98,2.16-.29,1.15-.62,2.46-1.75,3.29l-.68.49-.6-.58c-1.28-1.23-2.64-2.39-4.05-3.45-.41-.31-.72-.4-.8-.39l-1.28,1.3ZM195.7,96.87c0,.07.01.14.02.21h0c.21-.21.5-.28.85-.22-.1-.02-.2-.02-.3-.02l-.57.03ZM199.2,98.58c.92.76,1.82,1.55,2.68,2.38h0s0,0,0,0l-.34-.32c-1.03-.96-2.1-1.88-3.19-2.74.29.22.57.45.85.68ZM196.2,94.98l-.03.06c-.09.21-.18.42-.26.63.08-.21.17-.42.25-.62l.03-.07ZM203.2,98.43c-.2.8-.43,1.6-.94,2.17l-.05.06c.54-.58.77-1.38.99-2.23ZM200.48,93.34c-.64-.52-1.26-.95-1.75-1.06-.58-.13-.7-.16-1.1,1.45-.11.47-.24,1-.45,1.49h0s-.09.21-.09.21c-.07.16-.14.32-.19.47.47.11.95.36,1.44.73,1.18.9,2.34,1.86,3.45,2.88.21-.42.35-.96.49-1.52.2-.79.4-1.6.84-2.3-.4-.33-.82-.72-1.25-1.11-.44-.41-.92-.84-1.39-1.23ZM196.6,93.75c-.06.24-.13.48-.2.71.08-.23.14-.47.2-.71ZM204.53,95.51l-.33.4c-.48.59-.71,1.39-.91,2.18.25-.98.53-1.97,1.3-2.57-.15-.09-.3-.2-.45-.31l.39.29ZM201.1,92.56c-.74-.61-1.47-1.09-2.15-1.25-.71-.16-1.17-.04-1.49.28.32-.31.78-.44,1.49-.28,1.11.25,2.41,1.45,3.56,2.5.06.05.11.1.17.15-.05-.05-.1-.09-.15-.14-.47-.43-.95-.87-1.42-1.26ZM202.97,94.22c.4.37.78.69,1.13.96-.36-.27-.74-.61-1.13-.96Z" style="fill: #fff;"/>
  </g>
  <g>
    <path d="M207.74,107.58l.25-.78c.19-.6.29-1.45.4-2.35.22-1.83.42-3.55,1.43-4.12.43-.25.94-.24,1.51,0,.45.2.99.57,1.58.97.65.45,1.39.95,1.88,1.11.7.23,1.38.91,2.03,1.57.47.48.96.97,1.36,1.18l.3.16-.03.34c-.17,1.7-.89,3.34-2.03,4.62l-.3.34-.37-.26c-1.36-.97-2.82-1.82-4.35-2.51-.43-.19-.93-.41-1.43-.48h0c-.43-.06-.93,0-1.41.08l-.81.13ZM215.13,103.77c-.24-.19-.46-.34-.67-.41-.62-.2-1.39-.73-2.14-1.24-.52-.35-1.05-.72-1.42-.88-.39-.18-.55-.08-.61-.05-.57.32-.77,2.01-.93,3.37-.08.64-.15,1.25-.25,1.8.32-.03.65-.03.97.02h0c.63.09,1.21.34,1.7.56,1.45.65,2.84,1.44,4.14,2.34.77-.98,1.28-2.17,1.46-3.4-.43-.3-.86-.73-1.3-1.18-.32-.33-.65-.66-.96-.92Z" style="fill: #fff;"/>
    <path d="M207.01,108.2l.5-1.56c.18-.55.28-1.38.38-2.26.23-1.95.45-3.8,1.68-4.5.4-.23,1.06-.41,1.96-.01.49.22,1.05.6,1.65,1.02.59.41,1.33.91,1.76,1.05.82.27,1.54,1,2.23,1.7.42.43.9.91,1.23,1.09l.6.31-.07.67c-.18,1.81-.95,3.55-2.16,4.9l-.6.67-.73-.52c-1.33-.95-2.77-1.78-4.27-2.46-.4-.18-.86-.38-1.3-.44-.36-.05-.82,0-1.25.08l-1.62.27ZM208.62,106.32c-.05.23-.1.44-.16.63.3-.05.62-.09.92-.11-.07,0-.14,0-.22.01l-.66.06.12-.59ZM209.33,101.88c-.23.73-.34,1.68-.45,2.62-.05.46-.11.91-.17,1.32.06-.41.12-.84.17-1.3.13-1.07.25-1.97.45-2.63ZM214.82,104.16c-.26-.21-.42-.29-.5-.32-.7-.23-1.49-.77-2.27-1.3-.48-.33-1.02-.7-1.34-.84-.14-.06-.2-.06-.21-.06-.3.21-.53,2.15-.63,2.98-.05.43-.1.84-.16,1.22.16,0,.31.02.45.04.69.1,1.31.36,1.83.6,1.32.6,2.61,1.31,3.82,2.11.51-.75.86-1.61,1.04-2.5-.37-.3-.73-.65-1.1-1.03-.33-.33-.65-.66-.94-.9ZM215.26,109.42c-.83-.55-1.7-1.06-2.6-1.51.9.45,1.76.96,2.6,1.51ZM216.03,109.94l-.32-.22c.11.07.21.15.32.22h0ZM210.53,100.64h0ZM210.53,100.64s0,0,0,0t0,0ZM212.12,101.38c-.37-.25-.72-.46-1-.59-.21-.09-.41-.14-.59-.15.18,0,.37.05.59.15.28.12.63.34,1,.59ZM217.9,105.92v.02s0,.04-.01.07c0-.03,0-.06.01-.08ZM214.7,102.91s-.05-.02-.07-.03c-.44-.14-1.01-.5-1.56-.87.56.38,1.12.72,1.56.87.02,0,.05.02.07.03ZM216.87,104.76c.28.28.55.52.81.7l.25.17s0-.01,0-.02h0c-.34-.18-.7-.5-1.06-.85ZM215.63,103.54c.27.24.55.52.82.79.01.01.03.03.04.04-.01-.01-.03-.03-.04-.04-.27-.27-.54-.55-.82-.79Z" style="fill: #fff;"/>
  </g>
</svg>