<?xml version="1.0" encoding="UTF-8"?>
<svg id="Layer_2" xmlns="http://www.w3.org/2000/svg" viewBox="0 0 146.61 568.72">
  <g>
    <path d="M12.17,163.76c-1.02-2.48-2.43-5.87-1.58-9.08.48-1.82,2.03-3.46,3.86-4.1,1.22-.42,2.41-.35,3.39.19,1.03-1.86-.32-4.45-.78-5.25-.2-.34-.41-.68-.63-1.03-1-1.61-2.03-3.27-2.02-5.21.02-3,2.39-5.01,4.67-6.95.66-.56,1.34-1.14,1.93-1.72,3.61-3.54,4.94-8.42,6.34-13.59,1.01-3.72,2.06-7.57,4.04-10.89.61-1.02,1.32-2.02,2.01-2.98,1.81-2.55,3.53-4.95,3.65-7.84.08-1.87-.53-3.65-1.18-5.53-.42-1.22-.86-2.47-1.09-3.77-1.01-5.62,1.99-11.96,7.64-16.17,4.53-3.38,10.01-5.17,15.31-6.9l1.5-.49c2.63-.87,5.17-1.78,7.21-3.36,4.33-3.35,5.73-8.78,7.21-14.53,1.41-5.47,2.86-11.12,7.1-14.78,2.9-2.5,6.62-3.63,10.22-4.71,1.18-.36,2.4-.72,3.56-1.13,2.14-.75,9.15-3.65,9.7-9.46l1,.1c-.6,6.22-7.45,9.28-10.37,10.31-1.18.42-2.42.79-3.61,1.15-3.5,1.05-7.12,2.15-9.85,4.51-4,3.46-5.41,8.96-6.78,14.28-1.46,5.66-2.96,11.51-7.56,15.07-2.17,1.68-4.79,2.62-7.51,3.52l-1.51.49c-5.22,1.71-10.62,3.47-15.02,6.75-4.06,3.03-8.4,8.82-7.25,15.19.22,1.22.64,2.44,1.05,3.62.65,1.89,1.33,3.84,1.24,5.9-.14,3.19-2.02,5.83-3.84,8.38-.68.95-1.37,1.93-1.96,2.91-1.91,3.2-2.94,6.98-3.93,10.64-1.38,5.07-2.8,10.31-6.61,14.04-.62.61-1.31,1.2-1.99,1.77-2.21,1.88-4.3,3.65-4.32,6.2-.01,1.66.94,3.19,1.87,4.68.22.35.44.7.64,1.05,1.54,2.63,1.71,5.15.45,6.75l-.3.38-.39-.29c-.79-.59-1.82-.71-2.91-.34-1.53.53-2.83,1.9-3.23,3.41-.71,2.67.28,5.4,1.53,8.44l-.92.38Z" style="fill: #fff;"/>
    <path d="M11.9,164.42l-.19-.46c-1.05-2.54-2.49-6.02-1.6-9.4.52-1.97,2.2-3.75,4.18-4.44,1.15-.4,2.3-.4,3.31,0,.52-1.6-.58-3.68-.96-4.32-.2-.33-.41-.67-.61-1.01-1.04-1.68-2.12-3.4-2.1-5.49.03-3.23,2.48-5.32,4.84-7.33.66-.56,1.33-1.13,1.91-1.7,3.52-3.45,4.82-8.26,6.21-13.36,1.02-3.75,2.07-7.63,4.09-11.01.62-1.04,1.34-2.05,2.03-3.02,1.77-2.48,3.44-4.83,3.56-7.57.08-1.77-.52-3.51-1.16-5.34-.43-1.24-.87-2.52-1.11-3.84-1.05-5.8,2.03-12.34,7.83-16.66,4.6-3.42,10.11-5.23,15.45-6.97l1.51-.49c2.59-.85,5.08-1.75,7.06-3.28,4.2-3.25,5.57-8.6,7.03-14.26,1.43-5.54,2.9-11.27,7.25-15.04,2.98-2.57,6.75-3.71,10.4-4.81,1.19-.36,2.4-.72,3.54-1.13,2.06-.73,8.84-3.52,9.37-9.04l.05-.5,1.99.19-.05.5c-.62,6.51-7.69,9.67-10.7,10.73-1.19.42-2.41.79-3.6,1.14-3.48,1.05-7.05,2.12-9.7,4.42-3.88,3.35-5.27,8.78-6.62,14.02-1.48,5.74-3.01,11.68-7.74,15.35-2.23,1.73-4.9,2.69-7.66,3.6l-1.51.5c-5.18,1.7-10.54,3.45-14.88,6.68-3.95,2.94-8.17,8.56-7.06,14.7.21,1.18.63,2.38,1.03,3.54.67,1.93,1.36,3.93,1.27,6.08-.14,3.33-2.07,6.04-3.93,8.65-.67.94-1.36,1.91-1.94,2.88-1.88,3.14-2.89,6.88-3.88,10.51-1.4,5.14-2.84,10.44-6.74,14.27-.64.62-1.34,1.22-2.01,1.79-2.12,1.8-4.12,3.5-4.14,5.82-.01,1.51.91,2.98,1.79,4.41.23.38.45.72.65,1.06,1.65,2.82,1.81,5.55.41,7.31l-.6.76-.78-.58c-.66-.49-1.52-.58-2.44-.26-1.38.48-2.55,1.71-2.91,3.07-.67,2.51.29,5.17,1.51,8.12l.19.46-1.85.76ZM11.39,160.22c.3,1.03.69,2.01,1.05,2.89h0c-.4-.99-.77-1.95-1.05-2.89ZM12.74,152.18c-.8.72-1.41,1.65-1.67,2.63-.02.07-.04.15-.05.22.02-.07.04-.14.05-.22.26-.98.87-1.91,1.67-2.63ZM16,150.81c.73,0,1.41.22,1.99.65h0s.01-.02.02-.03l-.4-.22c-.83-.46-1.81-.53-2.84-.21.42-.13.83-.19,1.23-.19ZM17.6,145.46c.28.5.65,1.26.89,2.11-.19-.68-.48-1.39-.89-2.11ZM17.09,144.6c.08.14.17.27.25.41-.08-.14-.17-.27-.25-.41ZM14.93,139.24s0,.04,0,.05c-.01,1.64.81,3.12,1.69,4.53-.89-1.44-1.7-2.9-1.69-4.53,0-.02,0-.04,0-.05ZM21.1,131.25c-.53.5-1.1.99-1.67,1.46l-.28.24c.09-.08.18-.15.26-.23.56-.48,1.14-.97,1.68-1.48ZM30.95,108.04c-1.4,2.86-2.26,6.04-3.1,9.13-.12.46-.25.91-.37,1.36.12-.45.25-.9.37-1.35.84-3.09,1.7-6.27,3.1-9.13ZM33.52,103.87c-.42.6-.85,1.21-1.25,1.83.4-.62.83-1.23,1.25-1.83ZM35.23,85.63c.02.1.03.21.05.31.17.97.47,1.93.79,2.86-.32-.94-.61-1.9-.79-2.86-.02-.1-.04-.21-.05-.31ZM42.51,70.43c-2.67,2.04-4.71,4.56-5.97,7.25,1.43-3,3.72-5.53,5.97-7.25ZM58.24,63.32l-.35.12c-.63.21-1.27.41-1.9.62.63-.21,1.27-.42,1.9-.62l.35-.12ZM67.08,59.24c-.11.09-.22.18-.33.26-.61.47-1.27.89-1.95,1.26.68-.37,1.34-.79,1.95-1.26.11-.09.22-.17.33-.26ZM76.19,37.76c-.83,2.23-1.44,4.6-2.05,6.94-.14.54-.28,1.08-.42,1.61.14-.54.28-1.08.42-1.61.6-2.34,1.21-4.71,2.05-6.94ZM76.19,37.75,82.55,29.06c-.51.34-1,.7-1.47,1.11-.88.76-1.64,1.62-2.31,2.55.66-.93,1.42-1.79,2.31-2.55.47-.4.96-.77,1.47-1.11ZM104.68,15.03c-.92,5.77-7.83,8.63-9.97,9.39-.09.03-.17.06-.26.09.09-.03.17-.06.26-.09,2.75-.97,9.09-3.78,9.97-9.39h0Z" style="fill: #fff;"/>
  </g>
  <g>
    <path d="M86.4,48.4l-.74-.67c2.8-3.11,6.79-5.07,10.96-5.39.32-.02.65-.05.8-.2.07-.07.13-.2.18-.35.07-.17.15-.36.29-.54.27-.35.63-.51.95-.66.12-.05.23-.11.34-.17,1.03-.6,1.04-2,1.05-3.48,0-.66,0-1.34.1-1.98.28-1.84,1.48-3.39,2.44-4.64.36-.46.76-.99,1.35-1.33.52-.3,1.1-.41,1.62-.5l6.92-1.24c.74-.13,2.46-.55,2.47-1.61h1c-.01,1.3-1.18,2.22-3.29,2.6l-6.92,1.24c-.45.08-.92.16-1.29.38-.41.24-.74.66-1.05,1.07-.94,1.22-2,2.6-2.24,4.19-.09.56-.09,1.21-.09,1.84,0,1.62-.02,3.45-1.55,4.34-.14.08-.28.15-.43.21-.25.11-.46.21-.57.36-.06.08-.11.19-.16.32-.09.21-.19.44-.39.65-.41.43-.98.47-1.44.5-3.92.3-7.67,2.14-10.3,5.06Z" style="fill: #fff;"/>
    <path d="M86.43,49.1l-1.49-1.34.33-.37c2.88-3.2,7-5.22,11.29-5.55.16-.01.43-.03.51-.07-.02.01.03-.1.05-.17.08-.19.18-.42.35-.65.34-.45.79-.65,1.14-.81.11-.05.21-.1.3-.15.78-.46.79-1.66.8-3.05,0-.68,0-1.38.11-2.05.3-1.96,1.54-3.58,2.54-4.87.37-.48.82-1.07,1.49-1.46.6-.35,1.25-.46,1.77-.56l6.92-1.24c1.02-.18,2.05-.6,2.05-1.13v-.5s2,.02,2,.02v.5c-.01.9-.51,2.5-3.71,3.08l-6.92,1.24c-.41.07-.83.15-1.13.32-.33.19-.62.57-.91.94-.9,1.17-1.92,2.5-2.15,3.96-.08.53-.08,1.15-.09,1.76,0,1.67-.02,3.74-1.79,4.77-.15.09-.31.16-.48.24-.14.06-.34.15-.38.21-.02.03-.06.13-.09.2-.1.23-.22.53-.49.81-.54.56-1.27.62-1.76.66-3.79.29-7.42,2.07-9.96,4.89l-.33.37ZM95.92,42.91c-3.17.39-6.19,1.76-8.59,3.86,2.4-2.1,5.42-3.46,8.59-3.86ZM98.01,42.11c-.06.14-.13.27-.23.38-.21.22-.52.29-.84.33.32-.03.62-.1.84-.33.11-.11.17-.24.23-.38ZM98.58,41.29c-.11.07-.22.16-.3.27-.08.11-.14.24-.2.37.06-.13.11-.26.2-.37.08-.11.19-.2.3-.27ZM99.25,40.96s-.04.02-.05.03c.02,0,.04-.02.05-.03ZM100.76,35.65c-.03.43-.03.87-.03,1.3,0,.03,0,.06,0,.09,0-.03,0-.06,0-.09,0-.43,0-.88.03-1.3ZM105.65,29.02c-.44.08-.89.18-1.28.41-.5.29-.85.75-1.2,1.2-.09.12-.19.24-.28.37.09-.12.19-.24.28-.36.33-.43.7-.91,1.2-1.2.39-.23.85-.33,1.28-.41Z" style="fill: #fff;"/>
  </g>
  <g>
    <path d="M59.01,78.1c-1.07,0-2.13-.17-3.14-.53l.33-.94c3.83,1.36,8.51-.28,10.66-3.73.35-.56.64-1.16.94-1.79.13-.26.25-.52.38-.78,1.46-2.92,3.57-5.55,6.1-7.62l.63.77c-2.42,1.98-4.44,4.5-5.84,7.3-.13.25-.25.51-.37.77-.3.63-.61,1.27-.99,1.88-1.82,2.92-5.27,4.68-8.7,4.68Z" style="fill: #fff;"/>
    <path d="M59.01,78.6c-1.15,0-2.27-.19-3.31-.56l-.47-.17.67-1.88.47.17c3.62,1.28,8.04-.27,10.06-3.53.34-.54.62-1.12.91-1.74.13-.27.25-.53.39-.79,1.5-2.98,3.65-5.67,6.23-7.79l.39-.32,1.27,1.55-.39.32c-2.36,1.94-4.34,4.4-5.71,7.14-.12.24-.24.49-.35.73-.32.67-.63,1.32-1.03,1.96-1.85,2.99-5.44,4.91-9.12,4.91ZM73.64,63.91c-2.05,1.88-3.77,4.15-5.01,6.63-.1.2-.2.41-.3.61.1-.22.2-.42.3-.61,1.25-2.48,2.96-4.75,5.01-6.63Z" style="fill: #fff;"/>
  </g>
  <g>
    <path d="M52.97,107.68l-.32-.95c2.46-.84,5.09-.94,7.64-1.04,2.97-.12,5.78-.23,8.34-1.4,3.26-1.49,5.67-4.75,6.14-8.3.15-1.13.12-2.33.1-3.48-.04-2.13-.09-4.33.91-6.29,1.23-2.4,3.73-3.78,5.78-4.72,1.38-.64,2.83-1.21,4.23-1.77,3.62-1.44,7.37-2.93,10.21-5.57l.68.73c-2.98,2.77-6.81,4.29-10.52,5.77-1.39.55-2.82,1.12-4.18,1.75-1.9.87-4.22,2.15-5.31,4.27-.89,1.73-.85,3.71-.8,5.81.02,1.2.05,2.43-.11,3.64-.51,3.89-3.15,7.45-6.72,9.08-2.74,1.25-5.78,1.37-8.72,1.49-2.48.1-5.04.2-7.35.99Z" style="fill: #fff;"/>
    <path d="M52.66,108.31l-.65-1.89.47-.16c2.53-.86,5.2-.96,7.78-1.07,2.92-.11,5.68-.22,8.15-1.35,3.11-1.42,5.41-4.53,5.85-7.91.14-1.08.12-2.26.1-3.4-.05-2.21-.09-4.47.97-6.54,1.3-2.53,3.9-3.98,6.02-4.95,1.39-.64,2.83-1.21,4.23-1.77,3.6-1.43,7.3-2.9,10.08-5.48l.37-.34,1.36,1.46-.37.34c-3.05,2.83-6.93,4.37-10.68,5.86-1.38.55-2.81,1.12-4.16,1.74-1.83.84-4.06,2.06-5.07,4.05-.83,1.62-.79,3.54-.75,5.57.03,1.22.05,2.48-.11,3.72-.54,4.05-3.29,7.77-7,9.47-2.83,1.29-5.92,1.41-8.91,1.53-2.44.1-4.96.19-7.21.96l-.47.16ZM74.88,97.82c-.21.68-.49,1.34-.83,1.97.34-.63.62-1.29.83-1.97ZM79.44,83.19c-1.29.81-2.5,1.86-3.22,3.26-.05.1-.1.21-.15.31.05-.1.1-.21.15-.31.72-1.41,1.93-2.46,3.22-3.26Z" style="fill: #fff;"/>
  </g>
  <g>
    <path d="M17.62,163.99l-1-.06c.13-2.01,1.2-3.95,2.94-5.32,1.66-1.3,3.68-1.89,5.57-1.64.99-1.34.46-3.1-.15-5.12-.4-1.33-.82-2.7-.79-4.05.06-2.99,2.24-5.1,4.35-7.15,1.67-1.62,3.39-3.29,4.03-5.36.39-1.26.37-2.59.34-3.99-.02-1.42-.05-2.89.38-4.29.56-1.82,1.86-3.5,3.99-5.14,4.45-3.44,10.22-5.21,15.84-4.86,1.55.1,3.12.35,4.63.59,3.18.51,6.17.99,9.11.2,1.98-.53,3.72-1.59,5.56-2.72,1.49-.91,3.03-1.85,4.7-2.48.4-.15.81-.28,1.23-.42,1.17-.38,2.27-.74,3.13-1.47.92-.78,1.5-1.95,2.05-3.08,1.56-3.19,3.15-6.25,5.48-8.75,2.67-2.87,6.06-4.52,9.28-4.53h.02c1.81,0,3.55.49,5.23.97,1.12.32,2.29.64,3.44.81,3.62.53,7.47-.52,10.31-2.82.92-.75,1.78-1.65,2.61-2.52,1.5-1.57,3.05-3.2,5.12-4.08,1.77-.75,3.71-.85,5.57-.95.65-.03,1.31-.07,1.95-.13,1.71-.16,4.77-.78,5.97-3.05l.88.47c-1.05,1.99-3.45,3.26-6.76,3.58-.66.06-1.33.1-2,.13-1.86.1-3.62.19-5.23.87-1.87.8-3.29,2.28-4.78,3.85-.85.89-1.73,1.82-2.71,2.6-3.06,2.47-7.2,3.6-11.09,3.03-1.21-.18-2.41-.52-3.56-.84-1.69-.48-3.29-.93-4.96-.93h-.02c-2.95,0-6.06,1.54-8.55,4.21-2.23,2.4-3.79,5.39-5.31,8.5-.6,1.23-1.22,2.49-2.3,3.41-1.01.86-2.26,1.26-3.47,1.65-.4.13-.8.26-1.18.4-1.58.59-3.08,1.51-4.53,2.39-1.82,1.11-3.7,2.26-5.82,2.83-3.14.85-6.39.33-9.53-.18-1.49-.24-3.04-.49-4.54-.58-5.37-.33-10.9,1.37-15.16,4.66-1.96,1.51-3.15,3.03-3.65,4.65-.39,1.25-.36,2.58-.34,3.98.02,1.42.05,2.9-.39,4.3-.72,2.32-2.53,4.08-4.29,5.79-2.05,1.99-3.99,3.87-4.04,6.45-.02,1.19.37,2.48.75,3.74.67,2.21,1.36,4.5-.22,6.28l-.19.21-.28-.05c-1.71-.31-3.56.2-5.08,1.39-1.52,1.19-2.45,2.87-2.56,4.6Z" style="fill: #fff;"/>
    <path d="M18.09,164.52l-2-.12.03-.5c.13-2.16,1.28-4.23,3.13-5.68,1.66-1.3,3.7-1.93,5.63-1.77.62-1.13.16-2.67-.38-4.45-.41-1.37-.84-2.78-.81-4.21.06-3.2,2.32-5.38,4.5-7.5,1.62-1.57,3.3-3.2,3.9-5.15.36-1.18.34-2.47.32-3.83-.02-1.46-.05-2.97.41-4.45.59-1.92,1.95-3.68,4.17-5.39,4.54-3.51,10.43-5.32,16.17-4.97,1.57.1,3.15.35,4.68.59,3.12.5,6.06.97,8.9.21,1.91-.51,3.62-1.56,5.42-2.66,1.51-.92,3.07-1.88,4.79-2.52.41-.15.83-.29,1.25-.43,1.12-.36,2.18-.71,2.96-1.37.84-.71,1.39-1.84,1.92-2.92,1.58-3.22,3.19-6.32,5.56-8.87,2.77-2.97,6.28-4.68,9.65-4.69,1.89,0,3.67.5,5.38.98,1.11.31,2.25.64,3.38.8,3.48.51,7.19-.5,9.92-2.71.9-.73,1.74-1.61,2.56-2.47,1.54-1.62,3.13-3.28,5.29-4.2,1.86-.79,3.83-.89,5.74-.99.65-.03,1.29-.07,1.93-.13,1.61-.15,4.49-.72,5.58-2.79l.23-.44,1.77.93-.23.44c-1.13,2.15-3.67,3.51-7.16,3.84-.66.06-1.32.1-1.98.13-1.85.09-3.57.18-5.1.83-1.78.75-3.16,2.2-4.62,3.73-.86.91-1.75,1.84-2.75,2.65-3.16,2.56-7.45,3.73-11.47,3.14-1.25-.18-2.45-.52-3.62-.85-1.66-.47-3.23-.91-4.83-.91-2.82,0-5.81,1.48-8.2,4.05-2.19,2.35-3.72,5.31-5.23,8.38-.62,1.27-1.27,2.59-2.43,3.57-1.09.92-2.39,1.34-3.64,1.75-.4.13-.79.26-1.16.4-1.54.58-3.02,1.48-4.45,2.35-1.85,1.13-3.77,2.3-5.95,2.89-3.24.87-6.54.35-9.73-.16-1.48-.24-3.01-.48-4.49-.57-5.26-.33-10.66,1.33-14.83,4.55-1.88,1.45-3.01,2.89-3.48,4.4-.36,1.18-.34,2.46-.32,3.82.02,1.47.05,2.98-.41,4.46-.75,2.44-2.62,4.25-4.42,6-1.98,1.92-3.84,3.73-3.89,6.1-.02,1.11.36,2.37.72,3.58.67,2.24,1.44,4.77-.33,6.76l-.37.42-.55-.1c-1.57-.28-3.27.19-4.68,1.29-1.41,1.1-2.27,2.65-2.37,4.24l-.03.5ZM17.17,163.46h0c.13-.92.48-1.81,1.01-2.62-.53.81-.87,1.7-1.01,2.62ZM24.78,157.43c.19.02.38.04.57.07h0s0,0,0,0l-.28-.04c-.1-.01-.2-.02-.29-.03ZM25.3,151.15c.05.18.11.36.16.55.63,2.07,1.22,4.03.08,5.57l-.02.03c1.17-1.55.57-3.52-.05-5.59-.06-.18-.11-.37-.17-.55ZM24.71,147.56c0,.08,0,.16-.01.25,0,.26,0,.52.03.78-.03-.26-.04-.52-.03-.78,0-.08,0-.17.01-.25ZM31.93,137.66c-.46.66-1,1.29-1.58,1.89.57-.6,1.12-1.23,1.58-1.89ZM33.41,130.45c0,.28,0,.56.01.83,0,.16,0,.32,0,.48,0-.16,0-.31,0-.47,0-.28,0-.56-.01-.84ZM36.13,123.52c-1.19,1.17-1.97,2.37-2.36,3.63-.03.08-.05.17-.07.25.02-.08.05-.17.07-.25.39-1.26,1.16-2.45,2.36-3.63ZM67.29,118.18c-.1.03-.19.06-.29.08-.1.03-.2.05-.29.07.1-.02.2-.05.29-.07.1-.03.19-.05.29-.08ZM56,117.81c.57.08,1.13.17,1.69.26.32.05.64.1.96.15-.32-.05-.64-.1-.96-.15-.56-.09-1.12-.18-1.69-.26ZM78.3,112.71c-.32.11-.65.21-.96.33.32-.12.64-.23.96-.33ZM84.38,107.04c-.13.26-.26.53-.39.79-.17.35-.34.7-.53,1.04.18-.34.36-.7.53-1.04.13-.27.26-.53.39-.79ZM107.2,96.65c2.2.27,4.48-.01,6.57-.79-2.09.78-4.37,1.06-6.57.79ZM98.31,94.84c.21,0,.42,0,.63.02-.21-.01-.4,0-.63-.02ZM119.71,91.71c-.44.45-.89.9-1.35,1.33.46-.43.91-.88,1.35-1.33ZM125.51,87.05c-.1.04-.2.08-.29.12-.11.04-.21.09-.32.14.1-.05.21-.1.32-.14.1-.04.19-.08.29-.12ZM131.02,86.24c-.13,0-.27.01-.4.02-.28.01-.57.03-.86.05.28-.02.57-.03.86-.05.14,0,.27-.01.4-.02ZM136.52,85.09c-1.19.6-2.51.87-3.52,1,1.36-.17,2.55-.51,3.52-1Z" style="fill: #fff;"/>
  </g>
  <g>
    <path d="M22.96,210.46c-2.67,0-4.98-.48-6.89-1.44l-.29-.14.51-14.76c.17-4.8.34-9.76-.36-14.57-.21-1.5-.52-3.02-.81-4.49-.62-3.12-1.27-6.34-1.12-9.58l.02-.47h.47c1.66-.05,3.28-.26,4.85-.47,1.59-.21,3.24-.43,4.96-.47h.51s0,.5,0,.5c0,5.32.31,10.68.92,15.97,1.78-1.21,3.65-2.6,4.83-4.47.51-.81,1.56-2.49,3.02-1.93l.31.12.24,8.35c.47-.5.81-1.16,1.17-1.84.37-.71.76-1.45,1.31-2.06.51-.57,1.13-.99,1.73-1.4l5.87-3.99-.2,7.01c-.02.76-.02,1.37.27,1.86.25.43,1.13.82,1.33.72,1.52-2.4,3.26-5.14,5.9-6.82,1.14-.73,2.43-1.16,3.67-1.58.27-.09.55-.18.82-.28l.79-.28-.13.82c-.41,2.65-.13,5.38.8,7.89.08.22.17.43.25.65.22.55.44,1.12.59,1.73.2.83.25,1.67.3,2.49.2,3.35.36,6.73.53,10.12.17,3.38.33,6.76.53,10.11l.03.53-12.91-.13c-3.04-.03-5.18.29-7.89.69-.64.09-1.3.19-2.01.29-1.89.27-4.23.49-6.5.7-1.59.15-3.14.29-4.47.45-1.03.12-2.02.18-2.96.18ZM16.8,208.26c2.37,1.1,5.4,1.44,9.01,1.02,1.33-.16,2.89-.3,4.49-.45,2.25-.21,4.59-.43,6.46-.69.71-.1,1.37-.2,2-.29,2.75-.41,4.92-.73,8.04-.7l11.83.12c-.18-3.17-.34-6.38-.5-9.58-.17-3.38-.33-6.76-.53-10.11-.05-.77-.09-1.57-.28-2.31-.13-.54-.34-1.05-.55-1.6-.09-.22-.18-.45-.26-.67-.89-2.42-1.22-5.02-.95-7.58-.02,0-.04.02-.07.02-1.24.42-2.41.81-3.45,1.48-2.45,1.57-4.12,4.2-5.6,6.53-.19.3-.54.47-.94.46-.79-.01-1.75-.65-2.08-1.21-.46-.77-.43-1.67-.41-2.4l.14-5.06-4.26,2.89c-.55.38-1.12.76-1.55,1.24-.47.52-.81,1.17-1.17,1.86-.57,1.08-1.15,2.19-2.29,2.81l-.72.39-.27-9.39c-.52.09-1.04.82-1.51,1.55-1.44,2.28-3.75,3.85-5.79,5.23l-.68.46-.1-.81c-.65-5.41-.99-10.92-1.02-16.38-1.48.06-2.93.26-4.34.44-1.45.19-2.94.39-4.49.45-.06,2.98.54,5.98,1.12,8.88.3,1.48.6,3.02.82,4.54.7,4.9.53,9.91.36,14.75l-.49,14.11Z" style="fill: #fff;"/>
    <path d="M22.96,210.96c-2.74,0-5.14-.5-7.12-1.49l-.57-.29.52-15.08c.16-4.78.33-9.72-.35-14.48-.21-1.49-.52-3-.81-4.46-.63-3.15-1.28-6.4-1.13-9.71l.04-.93.94-.02c1.63-.04,3.23-.25,4.77-.45,1.63-.21,3.29-.43,5.03-.47l1.02-.02v1.02c0,5.01.28,10.08.82,15.08,1.48-1.04,3.01-2.28,4-3.85.54-.85,1.79-2.83,3.62-2.13l.62.24.2,7.14c.09-.17.18-.34.27-.51.39-.74.79-1.5,1.39-2.16.55-.62,1.2-1.05,1.82-1.48l6.68-4.54-.22,7.99c-.02.67-.02,1.22.2,1.59.1.16.42.35.64.44,1.51-2.38,3.24-5.02,5.88-6.71,1.19-.76,2.5-1.21,3.77-1.63l2.39-.83-.25,1.65c-.39,2.56-.13,5.21.77,7.64.08.21.16.43.25.64.23.58.46,1.16.61,1.79.22.87.27,1.74.32,2.58.2,3.35.36,6.73.53,10.12.17,3.38.33,6.76.53,10.1l.06,1.07-13.44-.14c-2.99-.03-5.12.29-7.81.69-.64.09-1.3.19-2.02.29-1.89.27-4.23.49-6.49.7-1.62.15-3.16.3-4.48.45-1.05.12-2.06.18-3.02.18ZM22.73,209.95c.14,0,.28,0,.42,0-.14,0-.28,0-.42,0ZM22.72,209.95h0,0ZM36.37,208.69c-1.17.16-2.5.29-3.86.43,1.36-.13,2.69-.27,3.86-.43ZM17.31,207.94c2.24.95,5.08,1.24,8.44.85,1.32-.15,2.87-.3,4.45-.45,2.32-.22,4.63-.43,6.48-.69.67-.09,1.29-.19,1.88-.27l.12-.02c2.76-.41,4.94-.73,8.12-.71l11.3.12c-.17-3-.32-6.02-.47-9.05-.17-3.38-.33-6.76-.53-10.1-.04-.75-.09-1.52-.26-2.22-.13-.51-.32-1.01-.53-1.54-.09-.23-.18-.45-.26-.68-.82-2.24-1.18-4.65-1.04-7.04-.99.34-1.89.69-2.69,1.2-2.35,1.51-4,4.09-5.45,6.37-.29.45-.78.7-1.37.7-.98-.01-2.09-.77-2.5-1.46-.53-.89-.5-1.92-.48-2.67l.11-4.08-3.45,2.34c-.53.36-1.07.73-1.46,1.16-.43.47-.75,1.1-1.1,1.75-.57,1.09-1.22,2.33-2.49,3.02l-1.43.78-.27-9.26c-.17.2-.37.48-.61.87-1.49,2.37-3.85,3.97-5.94,5.37l-1.36.92-.2-1.62c-.63-5.26-.98-10.61-1.02-15.92-1.29.08-2.55.25-3.78.41-1.31.17-2.66.35-4.06.43,0,2.77.57,5.58,1.11,8.3.3,1.5.61,3.04.83,4.58.71,4.95.54,9.97.37,14.83l-.48,13.77ZM42.68,207.83c-1.27.13-2.49.31-3.85.51l-.12.02c-.42.06-.84.13-1.29.19.49-.07.96-.14,1.41-.21,1.36-.2,2.58-.39,3.85-.51ZM46.73,207.64s.05,0,.07,0l3.75.04-3.74-.04s-.05,0-.07,0ZM15.78,175.82c.24,1.21.47,2.44.65,3.66.44,3.09.54,6.24.5,9.36.04-3.12-.06-6.27-.5-9.36-.18-1.22-.41-2.45-.65-3.66ZM58.03,186.5h0ZM58.03,186.49h0s0,0,0,0ZM58.01,186.29c0,.07.01.13.02.2,0-.07-.01-.13-.02-.2ZM58.01,186.29h0s0,0,0,0ZM58.01,186.28h0s0,0,0,0ZM56.71,182c.09.28.18.55.28.82.08.22.17.44.25.66.04.11.08.21.13.32-.04-.1-.08-.2-.12-.31-.09-.24-.18-.46-.26-.68-.1-.27-.19-.54-.28-.82ZM33.39,174.6l.26,9-.26-9h0ZM35.99,180.52c-.09.16-.17.32-.25.47-.36.69-.74,1.4-1.25,1.95l-.08.08c.55-.55.93-1.28,1.33-2.03.08-.16.17-.32.25-.48ZM43.63,176.23l-.11,4.08c-.01.39-.02.8.04,1.21-.05-.37-.05-.77-.04-1.21l.11-4.08ZM26.26,180.77c-.09.06-.17.12-.26.18h-.02c.09-.05.18-.11.27-.18ZM24.69,174.85c.15,2.02.34,4.03.57,6.03l-.03-.3c-.22-1.9-.4-3.82-.54-5.74ZM51.01,177.04c-1.37,1.06-2.49,2.42-3.46,3.83.98-1.4,2.09-2.77,3.46-3.83ZM32.94,174.53c-.74.04-1.38.87-1.96,1.79-.8,1.27-1.9,2.32-3.05,3.23,1.16-.92,2.25-1.96,3.04-3.22.54-.85,1.13-1.65,1.84-1.78l.12-.02ZM43.69,174.27l-5.07,3.44c-.25.17-.49.34-.74.52.24-.18.48-.34.73-.51l5.08-3.45ZM56.08,174.71v.75c-.02.12-.03.25-.04.38.03-.39.08-.77.14-1.16l-.75.25.65-.22ZM14.48,165.87c-.06,2.32.28,4.65.71,6.93-.42-2.25-.76-4.55-.71-6.84v-.09ZM14.5,165.49h0s.37-.01.37-.01c-.12,0-.25,0-.37.01h0ZM24.3,164.57v.42c0-.14,0-.28,0-.42h0ZM23.9,164.58c-1.09.04-2.15.15-3.19.28,1-.12,2.03-.23,3.08-.28h.11Z" style="fill: #fff;"/>
  </g>
  <g>
    <path d="M61.6,251.13l-.72-.61c-.92-.77-1.39-.69-2.25-.55-.53.09-1.19.19-2.06.12l-2.08-.19c-12.73-1.15-28.57-2.58-41.12-.7l-.57.08v-.57c-.08-5.05-.46-10.56-.84-15.89-.6-8.53-1.17-16.6-.44-22.33l.06-.47.48.04c10.11.79,22.18-.14,32.83-.96,6.5-.5,12.65-.98,17.43-.98h.55l-.06.55c-.71,7.07-.66,14.7-.61,22.07.05,7.02.09,13.65-.5,19.44l-.1.94ZM59.44,248.88c.42,0,.85.09,1.34.36.5-5.53.46-11.83.42-18.48-.05-7.21-.1-14.66.56-21.62-4.66.03-10.57.49-16.8.97-10.52.81-22.41,1.73-32.5,1-.63,5.61-.08,13.41.5,21.66.36,5.14.74,10.45.83,15.38,12.58-1.77,28.2-.36,40.79.77l2.08.19c.75.07,1.32-.03,1.81-.11.34-.06.66-.11.98-.11Z" style="fill: #fff;"/>
    <path d="M62,252.12l-1.45-1.21c-.74-.62-1.02-.57-1.85-.44-.56.09-1.25.2-2.19.12l-2.08-.19c-12.72-1.15-28.52-2.57-41-.7l-1.13.17-.02-1.15c-.07-5.05-.46-10.55-.83-15.86-.6-8.57-1.17-16.65-.44-22.43l.12-.95.95.07c10.07.79,22.11-.14,32.74-.96,6.54-.5,12.69-.98,17.48-.98h1.11l-.11,1.1c-.71,7.04-.66,14.65-.61,22.01.05,7.05.09,13.69-.51,19.5l-.19,1.88ZM59.43,249.38c.53,0,1.05.16,1.76.76h0s0,0,0,0c0-.03,0-.06,0-.09l-.67-.37c-.64-.36-1.26-.32-2-.19-.03,0-.06,0-.09.01.03,0,.06,0,.09-.01.32-.05.61-.1.89-.1ZM56.35,249.57l.25.02s.02,0,.02,0c0,0-.02,0-.02,0l-.25-.02ZM61.41,247.68c-.04.54-.08,1.08-.13,1.61v.15c.04-.58.09-1.16.13-1.76ZM13.09,242.8c.1,2.01.17,4,.2,5.92h0c.3-.04.6-.09.91-.13-.12.02-.23.03-.35.05l-.56.08v-.57c-.04-1.74-.11-3.54-.2-5.35ZM27.52,246.8c9.2,0,18.82.87,27.1,1.61l2.08.19c.69.06,1.19-.02,1.68-.1.64-.11,1.34-.18,1.97.01.44-5.34.4-11.37.35-17.73-.05-7.04-.1-14.3.51-21.14-4.55.06-10.22.5-16.2.96-10.38.8-22.09,1.71-32.11,1.03-.54,5.52-.01,13.09.55,21.08.35,4.96.71,10.08.82,14.86,4.17-.55,8.66-.77,13.25-.77ZM13.09,242.79h0s0,0,0,0ZM11.9,224.35c.15,2.71.35,5.55.55,8.44.03.4.06.79.08,1.19-.03-.39-.06-.79-.08-1.18-.2-2.9-.4-5.74-.55-8.45ZM61.88,214.47c-.26,5.36-.22,10.89-.19,16.28,0,.74,0,1.48.01,2.22,0-.73,0-1.47-.01-2.21-.04-5.4-.07-10.93.19-16.29ZM61.88,214.46s0,0,0,.01c0,0,0,0,0-.01ZM61.88,214.45h0s0,0,0,0ZM62.11,210.88h0s0,0,0,0ZM62.11,210.86s0,0,0,0c0,0,0,0,0,0ZM62.11,210.83s0,0,0,.01c0,0,0,0,0-.01ZM62.31,208.63l-.05.55c-.05.55-.1,1.1-.14,1.65.06-.74.12-1.47.2-2.2h0ZM12.01,210.57l.48.03c.13,0,.26.02.4.03-.29-.02-.58-.04-.87-.06h0s0,0,0,0ZM36.75,210.21s0,0,0,0c0,0,0,0,0,0ZM45.7,209.55c-.25.02-.5.04-.76.06-2.66.21-5.4.42-8.18.61,2.77-.19,5.5-.4,8.15-.6.26-.02.53-.04.79-.06Z" style="fill: #fff;"/>
  </g>
  <g>
    <path d="M56.41,254.83c-.5,0-1-.07-1.48-.14-.23-.03-.47-.07-.71-.09-.78-.08-1.59-.06-2.37-.04h-.2c-4.48.1-9-.06-13.46-.48-1.49-.14-2.99-.31-4.48-.49-6.17-.71-12.54-1.44-18.59-.04-.55.13-1.13.26-1.72.1-.44-.12-.79-.39-1.07-.61l-4.75-3.62,1.14-.19c6.03-.99,12.37-.48,18.51.01,4.89.39,9.95.8,14.76.43,1.64-.13,3.32-.35,4.94-.56,4.25-.56,8.65-1.14,12.89-.1.42.1.84.22,1.27.34,1.63.46,3.16.89,4.64.48l1.52-.42-1,1.22c-.35.42-.49.71-.64,1.02-.16.33-.34.71-.76,1.22l-.15.18h-.24c-1.7,0-3.48.32-5.09.95l-.44.18c-.62.26-1.25.52-1.96.61-.19.02-.38.03-.57.03ZM52.89,253.54c.48,0,.96.02,1.45.07.25.03.5.06.74.1.62.09,1.21.18,1.78.1.57-.07,1.12-.3,1.7-.54l.45-.19c1.65-.65,3.44-1,5.22-1.03.25-.33.37-.58.49-.84.04-.07.07-.15.11-.23-1.35.08-2.7-.3-4.01-.67-.41-.12-.83-.23-1.24-.33-4.06-1-8.36-.43-12.52.12-1.64.22-3.33.44-5,.57-4.89.38-9.99-.04-14.92-.43-5.68-.46-11.53-.93-17.1-.2l2.89,2.2c.24.18.49.37.74.44.34.09.74,0,1.17-.1,6.26-1.46,12.72-.71,18.97,0,1.49.17,2.98.34,4.46.48,4.42.42,8.9.59,13.34.48h.2c.35-.01.7-.02,1.05-.02Z" style="fill: #fff;"/>
    <path d="M56.41,255.33c-.54,0-1.05-.07-1.54-.15-.23-.03-.46-.07-.69-.09-.75-.08-1.54-.06-2.31-.04h-.2c-4.52.1-9.07-.06-13.52-.49-1.49-.14-2.99-.31-4.49-.49-6.13-.7-12.46-1.43-18.42-.05-.59.14-1.25.29-1.97.09-.53-.15-.94-.46-1.24-.69l-5.67-4.33,2.29-.38c6.09-1,12.46-.49,18.63,0,4.87.39,9.9.8,14.69.43,1.62-.12,3.29-.35,4.91-.56,4.3-.57,8.75-1.16,13.08-.09.42.1.84.22,1.26.34,1.58.45,3.05.86,4.39.49l3.04-.84-2,2.44c-.31.37-.43.63-.57.92-.17.34-.37.76-.83,1.32l-.3.37h-.48c-1.69,0-3.39.32-4.9.92l-.43.18c-.65.27-1.32.55-2.08.64-.21.03-.43.04-.64.04ZM56.21,254.33c.24,0,.47,0,.71-.03.03,0,.07,0,.1-.01-.03,0-.07,0-.1.01-.24.03-.47.04-.71.03ZM54.84,254.17c.05,0,.11.02.16.02l.13.02s-.09-.01-.13-.02c-.06,0-.11-.02-.16-.02ZM51.76,254.06h-.11c-.22,0-.43.01-.65.02.22,0,.43,0,.65-.01h.11ZM64.48,252.55h-.24c-1.69.02-3.42.36-4.99.98,1.63-.64,3.43-.97,5.23-.97h0s0,0,0,0ZM52.89,253.04c.58,0,1.05.02,1.5.07.24.03.48.06.73.1.62.09,1.17.17,1.68.11.5-.06,1.02-.28,1.57-.51l.46-.19c1.62-.64,3.4-1.01,5.14-1.06.02-.03.03-.05.05-.08-1.13-.07-2.23-.38-3.3-.68-.44-.12-.84-.24-1.25-.34-3.97-.98-8.22-.41-12.34.13-1.64.22-3.33.44-5.02.57-4.93.38-10.04-.03-14.99-.43-5.24-.42-10.63-.86-15.78-.34l1.9,1.45c.2.16.41.31.57.36.21.06.56-.02.93-.1,6.35-1.48,12.85-.73,19.15,0,1.51.17,2.99.34,4.46.48,4.39.42,8.86.58,13.28.48h.2c.35-.01.71-.02,1.07-.02ZM13.78,253.21c.33.04.66-.02,1.01-.1-.34.08-.68.14-1.01.1ZM13.26,253.05h0ZM12.82,252.77c.14.1.28.2.44.28-.16-.08-.3-.18-.44-.28ZM30.13,252.68c.44.05.88.09,1.33.14-.44-.05-.88-.1-1.33-.14ZM65.11,251.57c-.06.12-.12.24-.2.37.08-.13.14-.26.2-.37ZM65.68,250.43l-.37.73c.13-.24.29-.51.56-.85-.3.08-.6.14-.9.16l.71-.04ZM16.43,249.15c3.59,0,7.22.29,10.77.58,4.9.4,9.97.8,14.81.44-4.86.37-9.91-.04-14.81-.44-5.16-.42-10.46-.84-15.58-.37,1.59-.15,3.2-.2,4.81-.2ZM61.19,249.89c.08.02.16.04.24.07-.08-.02-.16-.04-.24-.07ZM54.64,248.93c1.19,0,2.38.07,3.56.26-1.96-.31-3.95-.31-5.93-.17.79-.06,1.59-.09,2.38-.09Z" style="fill: #fff;"/>
  </g>
  <g>
    <path d="M41.16,263.23c-.38,0-.76,0-1.13,0l-9.26-.11c-5.87-.07-11.9-.14-17.83-.45l-.53-.03.06-.53c.32-2.7.53-5.45.63-8.17l1,.04c-.09,2.57-.28,5.16-.57,7.72,5.74.29,11.57.36,17.22.43l9.29.11c1.61.02,3.28.04,4.86-.3.4-.09.79-.19,1.19-.3.5-.14,1-.27,1.51-.37,1.46-.28,2.93-.21,4.35-.15l15.31.68c-1.05-1.04-2.27-1.78-3.58-2.19l-2.26-.7,2.35-.28c.97-.11,1.99-.21,3.02-.22-.15-.18-.28-.36-.42-.55-.47-.64-.93-1.25-1.34-1.89-.39-.61-.75-1.26-1.07-1.92l-.77-.27c.15-.43.19-.89.1-1.34l.96-.26c.42,1.14.96,2.23,1.61,3.24.39.61.84,1.21,1.26,1.79.48.65.84,1.13,1.44,1.3l-.19.98c-.85-.1-1.72-.11-2.58-.06,1.12.63,2.14,1.51,3.01,2.59l.7.86-17.61-.78c-1.37-.06-2.78-.12-4.12.13-.48.09-.96.22-1.43.35-.41.11-.82.23-1.24.32-1.31.28-2.64.33-3.95.33Z" style="fill: #fff;"/>
    <path d="M41.16,263.73c-.38,0-.76,0-1.14,0l-9.26-.11c-5.85-.07-11.9-.14-17.85-.46l-1.07-.06.13-1.06c.32-2.68.53-5.42.63-8.12l.02-.5,2,.07-.02.5c-.08,2.4-.26,4.83-.52,7.23,5.55.27,11.19.33,16.65.4l9.31.11c1.6.02,3.23.03,4.75-.29.38-.08.76-.19,1.14-.29.53-.15,1.05-.29,1.57-.38,1.51-.29,3.01-.22,4.46-.15l13.85.61c-.71-.51-1.48-.9-2.29-1.15l-4.52-1.39,4.7-.55c.63-.07,1.35-.15,2.1-.19-.42-.57-.82-1.12-1.19-1.7-.37-.57-.7-1.17-1.01-1.78l-1.05-.37.17-.47c.12-.35.15-.72.08-1.08l-.08-.45,1.85-.51.16.43c.4,1.1.93,2.16,1.56,3.15.38.6.82,1.19,1.24,1.76.49.66.76,1.01,1.17,1.12l.45.12-.37,1.89-.46-.06c-.29-.04-.6-.06-.91-.07.65.52,1.25,1.11,1.8,1.79l1.4,1.73-18.72-.83c-1.35-.06-2.73-.12-4.01.12-.46.09-.91.21-1.36.34-.45.12-.87.24-1.3.33-1.41.3-2.84.34-4.05.34ZM13.18,262.17c5.86.31,11.83.38,17.6.44l9.26.11c.37,0,.75,0,1.13,0,1.16,0,2.52-.04,3.84-.32.41-.09.81-.2,1.21-.31.31-.08.6-.17.9-.24-.3.07-.6.15-.9.24-.41.11-.81.22-1.22.31-1.62.35-3.31.33-4.94.31l-9.33-.11c-5.66-.07-11.5-.13-17.24-.43l-.32-.02ZM12.97,262.16h0s.04-.37.04-.37c-.01.12-.03.24-.04.37h0ZM50.07,261.55c-.65,0-1.31.03-1.96.12,1.26-.18,2.55-.12,3.8-.07-.61-.03-1.22-.05-1.84-.05ZM63.82,259.11c1.37.42,2.68,1.22,3.78,2.31l.04.04c-.64-.64-1.34-1.17-2.09-1.6l-1.4-.79c-.12.01-.23.03-.34.04ZM66.83,258.9c.4,0,.78.01,1.15.04l.03-.13c-.49-.27-.83-.71-1.2-1.21.12.16.24.32.37.48l.67.81h-1.05c-.25,0-.5.01-.74.02.27-.01.53-.02.78-.02ZM65.24,255.36c.07.11.14.22.21.33.05.08.11.16.16.24-.05-.08-.11-.16-.16-.24-.07-.11-.14-.22-.21-.33ZM63.8,253.45l.53.19.09.19c.04.08.08.17.12.25-.21-.43-.41-.86-.58-1.3l-.11.03c0,.22,0,.43-.05.65Z" style="fill: #fff;"/>
  </g>
  <g>
    <path d="M49.13,275.59c-2.92,0-5.86-.41-8.75-.81-2.52-.35-5.13-.71-7.66-.79-1.4-.04-2.86,0-4.26.03-3.64.1-7.41.2-10.88-1.12l-.57-.22,3.77-6.01c.16-.25.31-.52.28-.71-.04-.25-.45-.42-.82-.44-.16,0-.32,0-.49,0-.4,0-.86.01-1.31-.16-.46-.18-.84-.61-.96-1.09-.09-.38,0-.75.24-1.02l.75.67s-.03.04-.01.12c.04.16.19.33.35.39.26.1.59.1.93.09.19,0,.38,0,.56,0,.76.05,1.6.46,1.74,1.26.11.59-.22,1.1-.42,1.41l-3.12,4.96c3.14,1.03,6.58.94,9.92.85,1.42-.04,2.89-.08,4.32-.03,2.58.08,5.22.45,7.76.8,5.16.72,10.04,1.39,14.75,0l-.06-4.86.7.28c2.33.95,4.79,1.46,7.3,1.54.18,0,.24,0,.26-.02h0s.02-.05.04-.21c.12-1.04-.01-2.11-.4-3.09-.22-.57-.48-.98-.8-1.25-.43-.36-1.01-.53-1.62-.72-.23-.07-.45-.13-.67-.21-1.27-.44-2.05-1.24-2.14-2.19l1-.1c.08.8,1.15,1.23,1.47,1.35.21.07.42.13.63.2.69.2,1.4.41,1.99.91.45.38.8.92,1.09,1.65.44,1.13.6,2.36.46,3.57-.03.28-.1.6-.37.84-.32.29-.73.28-.95.27-2.39-.07-4.72-.52-6.96-1.34l.05,4.11-.35.11c-2.22.71-4.5.96-6.8.96Z" style="fill: #fff;"/>
    <path d="M49.13,276.09c-2.95,0-5.94-.41-8.82-.81-2.52-.35-5.11-.71-7.61-.79-1.4-.04-2.84,0-4.23.03-3.69.1-7.5.2-11.08-1.16l-1.14-.43,4.1-6.52c.08-.13.14-.23.17-.3-.07-.03-.19-.07-.32-.08-.14,0-.3,0-.45,0-.4,0-.95.02-1.5-.19-.61-.23-1.11-.8-1.27-1.43-.13-.54,0-1.08.35-1.47l.33-.37,1.49,1.33-.08.09c.18.05.4.04.62.04.21,0,.42,0,.62,0,.96.06,2.01.6,2.2,1.67.14.78-.27,1.42-.48,1.77l-2.77,4.41c2.88.81,6.04.72,9.11.64,1.46-.04,2.93-.08,4.38-.03,2.61.08,5.25.45,7.81.8,4.98.69,9.68,1.34,14.19.11l-.07-5.23,1.4.57c2.22.9,4.55,1.4,6.94,1.49.07-.89-.06-1.8-.39-2.63-.19-.49-.41-.83-.66-1.05-.35-.29-.88-.45-1.44-.62-.24-.07-.47-.14-.7-.22-1.46-.51-2.36-1.46-2.48-2.62l-.05-.5,1.99-.19.05.5c.04.38.6.73,1.14.92.2.07.4.13.61.19.7.21,1.5.44,2.17,1.01.51.44.92,1.04,1.23,1.85.47,1.21.64,2.52.49,3.81-.04.35-.14.8-.53,1.16-.47.43-1.06.41-1.31.4-2.19-.06-4.35-.44-6.43-1.13l.05,3.77-.71.23c-2.08.66-4.35.99-6.95.99ZM55.72,269.67l.06,4.48h0l-.06-4.47.68.25c.36.13.72.25,1.08.37-.6-.18-1.18-.39-1.77-.63h0ZM18.31,272.63c3.2,1.07,6.66.99,10.02.9-3.36.09-6.8.16-9.98-.88h-.04ZM63.28,271.25c.06,0,.12,0,.18,0-.06,0-.12,0-.18,0ZM62.25,271.2c.32.02.63.04.95.05.01,0,.03,0,.05,0-.02,0-.04,0-.06,0-.31,0-.63-.02-.94-.05ZM21.51,266.33c-.06.21-.19.42-.31.61l-1.04,1.66,1.04-1.66c.1-.16.24-.38.31-.61ZM63.87,268.18s0,0,0,0t0,0ZM62.96,266.13c.24.29.44.66.62,1.11.12.31.22.62.29.94-.07-.32-.17-.63-.29-.94-.18-.45-.38-.82-.62-1.11ZM21.53,265.81s.01.04.01.07c0,.02,0,.05,0,.08,0-.03,0-.05,0-.08,0-.02,0-.04-.01-.07ZM61.19,265.09c.46.14.9.31,1.29.58-.38-.28-.82-.44-1.29-.58ZM19.97,265.02c.1,0,.19,0,.29,0-.17-.01-.35,0-.52,0-.31,0-.62.01-.91-.06.3.07.62.07.91.06.08,0,.15,0,.23,0ZM58.92,264.05c.31.29.73.54,1.26.72.11.04.23.08.34.11-.12-.04-.23-.07-.34-.11-.3-.1-.85-.33-1.26-.72Z" style="fill: #fff;"/>
  </g>
  <g>
    <path d="M23.77,283.74v-9.36h1v7.75c.88-.28,1.82-.28,2.74-.28h.22s0,0,0,0c3.39,0,6.81-.48,10.13-.95l6.91-.98c1.38-.2,2.82-.39,4.25-.39,1.69.01,3.39.31,5.03.61,2.51.45,4.89.87,7.2.33-.15-1.3-1.12-2.51-2.38-2.89-.23-.07-.46-.12-.7-.16-.42-.08-.85-.17-1.26-.37-.78-.37-1.45-1.25-1.15-2.17l.95.31c-.11.34.23.76.62.95.31.15.66.22,1.03.29.27.05.53.11.79.19,1.82.55,3.13,2.34,3.11,4.24v.38s-.36.1-.36.1c-2.66.74-5.39.26-8.03-.21-1.6-.29-3.26-.58-4.86-.59-1.38-.01-2.76.19-4.1.38l-6.91.98c-3.35.47-6.81.96-10.27.96h-.23c-1.05,0-2.14,0-3,.47l-.75.42Z" style="fill: #fff;"/>
    <path d="M23.27,284.6v-10.72h2v7.61c.77-.15,1.54-.14,2.24-.14h.22c3.36,0,6.77-.48,10.06-.95l6.91-.98c1.45-.21,2.88-.39,4.32-.39,1.74.01,3.45.32,5.12.61,2.29.41,4.46.79,6.52.43-.27-.93-1.04-1.75-1.94-2.03-.2-.06-.41-.1-.62-.15-.45-.09-.94-.19-1.41-.41-.97-.46-1.8-1.59-1.41-2.77l.16-.48,1.9.63-.16.48s.15.24.36.34c.25.12.57.18.91.25.28.06.57.12.84.2,2.02.62,3.48,2.6,3.47,4.72v.75s-.73.2-.73.2c-2.77.77-5.56.28-8.26-.2-1.58-.28-3.21-.57-4.77-.58-1.35-.02-2.68.18-3.98.37l-6.96.98c-3.37.48-6.85.97-10.34.97h-.23c-1,0-2.02,0-2.75.41l-1.49.84ZM24.27,282.81v.07c.96-.54,2.1-.54,3.22-.54h.25s0,0,0,0h-.23c-.87,0-1.77,0-2.59.26l-.65.21ZM44.9,280.4s-.03,0-.05,0l-6.91.98c-.12.02-.24.03-.37.05.12-.02.24-.03.36-.05l6.92-.98s.03,0,.05,0ZM59.22,277.16c1.34.5,2.37,1.8,2.54,3.25v.06c-.14-1.47-1.15-2.8-2.54-3.31ZM49.03,280.03h0c.32,0,.65.02.97.04-.32-.02-.65-.04-.97-.04h0ZM57.23,276.63c.28.12.57.19.87.25-.29-.06-.59-.13-.87-.25ZM56.66,276.27h0,0ZM56.23,275.55c.06.26.22.51.43.71-.21-.2-.37-.45-.43-.71h0Z" style="fill: #fff;"/>
  </g>
  <g>
    <path d="M46.36,323.97h-.39c-4.19,0-8.57-.24-13.38-.72l-.4-.04-.04-.4c-.36-3.21-.51-6.47-.45-9.7.07-3.47.49-7.81,3.25-10.66.24-.25.48-.5.48-.69,0-.12-.1-.28-.19-.42-.74-1.09-1.79-1.9-2.9-2.76-.48-.37-.95-.74-1.41-1.13-1.08-.93-2.03-2.01-2.95-3.05-.56-.64-1.14-1.29-1.66-1.99-1.67-2.24-2.74-4.89-3.08-7.66l-.06-.49.49-.07c8.79-1.24,18.51-1.85,29.72-1.86h.29s.14.25.14.25c.34.6.73,1.18,1.11,1.73.39.57.79,1.17,1.15,1.8.51.91,1.04,1.84,1.34,2.89.35,1.22.3,2.41-.14,3.36-.18.39-.42.74-.63,1.04-1.04,1.45-2.08,2.61-3.55,3.96-.39,2.98.23,5.92.88,9.02.34,1.61.69,3.27.88,4.92.41,3.58.06,7.19-.27,10.68l-.06.66-.26.12c-2.5,1.14-5.33,1.19-7.87,1.19ZM33.1,322.29c4.62.45,8.84.67,12.88.68,2.44,0,5.21,0,7.58-.99v-.08c.34-3.44.68-6.99.28-10.47-.19-1.61-.53-3.25-.86-4.83-.65-3.11-1.33-6.33-.86-9.55l.03-.18.13-.12c1.49-1.35,2.51-2.49,3.54-3.93.19-.27.4-.56.54-.87.34-.73.37-1.68.08-2.67-.27-.94-.77-1.82-1.25-2.68-.34-.6-.73-1.18-1.11-1.73-.34-.5-.68-1.01-1-1.55-10.83.02-20.26.6-28.8,1.78.38,2.42,1.35,4.73,2.82,6.7.5.66,1.06,1.3,1.61,1.92.9,1.02,1.83,2.07,2.86,2.96.44.38.9.74,1.36,1.09,1.13.87,2.29,1.77,3.12,2.99.18.26.36.58.37.97.01.61-.41,1.05-.72,1.37-2.54,2.64-2.94,6.74-3,10.02-.06,3.05.08,6.13.4,9.16Z" style="fill: #fff;"/>
    <path d="M46.36,324.47h-.39c-4.21,0-8.6-.24-13.43-.72l-.81-.08-.09-.8c-.36-3.23-.51-6.51-.45-9.76.07-3.56.51-8.02,3.39-11,.1-.1.25-.26.32-.35-.02-.03-.04-.07-.08-.13-.69-1.02-1.71-1.81-2.79-2.65-.49-.38-.97-.75-1.43-1.15-1.1-.95-2.07-2.04-3-3.1-.57-.65-1.16-1.31-1.69-2.02-1.73-2.31-2.82-5.04-3.18-7.9l-.12-.98.97-.14c8.81-1.24,18.56-1.85,29.79-1.86h.58s.29.51.29.51c.33.59.73,1.18,1.08,1.7.4.58.8,1.19,1.17,1.84.52.93,1.07,1.89,1.38,3,.38,1.33.32,2.65-.16,3.7-.2.43-.45.8-.68,1.12-1.04,1.45-2.05,2.59-3.48,3.92-.33,2.84.26,5.68.89,8.68.34,1.62.69,3.29.88,4.97.42,3.63.07,7.27-.27,10.78l-.09.95-.52.24c-2.51,1.14-5.25,1.24-8.08,1.24ZM38.58,323.23c2.56.16,5.01.23,7.4.24h.39c2.6,0,5.11-.08,7.36-1.02-2.43,1.01-5.22,1.01-7.67,1.02-2.44,0-4.91-.08-7.48-.24ZM33.55,321.83c4.46.42,8.52.63,12.43.63,2.35,0,4.92,0,7.11-.84.33-3.4.64-6.82.26-10.14-.18-1.59-.52-3.21-.85-4.79-.66-3.15-1.34-6.41-.87-9.72l.05-.36.27-.24c1.46-1.33,2.46-2.44,3.47-3.85.18-.25.37-.52.49-.79.29-.62.31-1.45.06-2.32-.25-.88-.73-1.74-1.2-2.57-.33-.59-.73-1.18-1.09-1.7-.29-.43-.59-.87-.87-1.33-10.48.03-19.63.59-27.93,1.7.42,2.16,1.32,4.21,2.64,5.97.48.64,1.04,1.27,1.57,1.88.9,1.02,1.82,2.06,2.82,2.92.42.37.87.71,1.31,1.05,1.19.92,2.38,1.84,3.26,3.13.21.3.44.72.45,1.24.01.81-.51,1.36-.86,1.72-2.42,2.51-2.8,6.5-2.86,9.69-.06,2.89.06,5.81.35,8.69ZM54.48,316.76c-.08,1.74-.25,3.48-.41,5.18l-.03.3-.28.2c.09-.04.18-.08.28-.12l.04-.38c.16-1.71.33-3.44.41-5.18ZM32.19,315.01h0s0,0,0,0ZM35.32,302.78s0,0,0,0c-2.63,2.73-3.04,6.95-3.11,10.33-.01.63-.02,1.26-.01,1.89,0-.63,0-1.26.01-1.89.06-3.36.48-7.57,3.12-10.34ZM53.79,308.03c.11.57.22,1.14.32,1.71-.1-.57-.2-1.14-.32-1.71ZM35.74,302.29c-.1.15-.23.29-.36.43.13-.13.26-.27.36-.43ZM35.9,301.55c.02.06.03.13.03.19,0,.02,0,.05,0,.07,0-.02,0-.05,0-.07,0-.06-.01-.13-.03-.19ZM35.9,301.55h0ZM35.53,300.89c.04.05.08.11.12.16.04.05.07.11.11.17-.03-.06-.07-.11-.11-.17-.04-.06-.08-.11-.11-.16ZM30.96,296.81c.09.09.19.17.29.25.35.31.72.6,1.09.89-.38-.3-.75-.58-1.09-.89-.1-.08-.19-.17-.29-.25ZM52.61,297.12h0l.03-.02s-.02.02-.03.02h0ZM55.92,293.53c-.77,1.03-1.57,1.93-2.57,2.9,1-.97,1.79-1.86,2.57-2.9ZM57.04,291.47c-.05.24-.13.48-.23.69-.01.03-.03.06-.04.09.01-.03.03-.06.04-.09.1-.22.18-.45.23-.69ZM23.89,285.71c.4,2.09,1.23,4.08,2.43,5.84-1.2-1.76-2.03-3.75-2.43-5.84ZM53.37,282.82l.15.25c.31.53.65,1.03.98,1.51.37.54.78,1.15,1.14,1.78.5.88,1.01,1.79,1.29,2.79.07.25.12.49.16.73-.04-.24-.09-.49-.16-.73-.28-1-.8-1.91-1.29-2.79-.35-.62-.75-1.2-1.13-1.77-.36-.53-.78-1.14-1.13-1.77h0ZM25.12,284.49c-.34.04-.68.09-1.01.14l.11-.02c.3-.04.6-.08.9-.12ZM53.26,282.82c-2.21,0-4.37.03-6.47.08,2.04-.05,4.14-.07,6.29-.08h.17Z" style="fill: #fff;"/>
  </g>
  <g>
    <path d="M48.85,333.62c-1.52,0-3.07-.56-4.39-1.04-1.9-.69-4.06-1.26-5.63-.22l-.61.41-.15-.72c-.54-2.56-1.64-5.02-3.18-7.13l.81-.59c1.5,2.04,2.6,4.4,3.21,6.87,1.85-.82,4.1-.21,5.9.45,1.8.65,3.82,1.39,5.52.73v-6.79s1,0,1,0v7.06c.04.13.03.27-.03.39l-.17.32-.38-.06c-.61.25-1.24.34-1.88.34ZM50.95,333.18s0,0,0,0c0,0,0,0,0,0Z" style="fill: #fff;"/>
    <path d="M48.85,334.12c-1.61,0-3.18-.57-4.56-1.08-1.78-.65-3.79-1.19-5.18-.28l-1.23.81-.3-1.44c-.52-2.49-1.59-4.89-3.1-6.94l-.3-.4,1.61-1.18.3.4c1.42,1.94,2.5,4.17,3.15,6.5,1.9-.58,4.04.03,5.73.64,1.6.58,3.38,1.23,4.85.83v-6.93s2,0,2,0v7.5c.05.23.02.48-.09.69l-.34.63-.6-.1c-.59.22-1.24.33-1.94.33ZM50.58,332.8l-.08.03c-.08.03-.16.06-.23.08.09-.03.18-.06.28-.1h.03ZM50.78,332.78h.06s0,0,0,0l-.02-.13v.06l-.06.02.02.05ZM50.67,332.76l.11.02-.02-.05-.09.03ZM38.43,331.39c.04.18.08.36.12.54h0c.15-.1.29-.18.45-.25l-.45.2-.12-.48ZM35.57,325.02c.07.1.14.21.21.31-.07-.11-.14-.21-.21-.31h0Z" style="fill: #fff;"/>
  </g>
  <g>
    <path d="M50.69,342.03c-2.19,0-4.37-.26-6.39-.49l-3.21-.38c-3.05-.36-6.85-.81-9.62-3.06l-.2-.17.02-.26c.12-1.55,1.53-2.89,3.08-2.93.75-.02,1.45.23,2.13.46.77.26,1.49.52,2.15.32,0-.02-.02-.04-.03-.07l-1.19-2.36.89-.45,1.19,2.36c.08.16.3.6.07,1.01-.17.32-.51.42-.62.46-.97.31-1.9-.01-2.79-.32-.62-.21-1.21-.44-1.78-.4-.96.02-1.87.82-2.07,1.75,2.53,1.92,6.04,2.34,8.88,2.67l3.21.38c3.65.43,7.42.87,11-.05.71-.18,1.58-.47,2.01-1.12.2-.3.25-.73.13-1.08-.06-.17-.17-.38-.41-.46-.19-.07-.44-.05-.71-.03-.36.03-.78.05-1.19-.12-.71-.3-.98-.98-1.21-1.58-.11-.29-.22-.56-.37-.78-.51-.74-1.64-.9-2.65-1l.09-1c1.24.11,2.63.33,3.38,1.43.21.31.35.65.47.98.19.48.35.89.67,1.03.19.08.44.06.74.05.33-.02.71-.05,1.09.08.49.17.86.55,1.04,1.09.22.65.12,1.4-.25,1.96-.62.93-1.71,1.31-2.6,1.54-1.63.42-3.31.57-4.98.57ZM38.69,335.62h0s0,0,0,0Z" style="fill: #fff;"/>
    <path d="M50.69,342.53c-2.23,0-4.47-.26-6.45-.5l-3.21-.38c-3.12-.37-7-.82-9.88-3.17l-.41-.33.04-.52c.14-1.79,1.77-3.34,3.57-3.39.86,0,1.62.25,2.3.49.42.15.83.29,1.2.34l-1.1-2.19,1.79-.9,1.41,2.8c.28.55.3,1.05.07,1.48-.18.33-.49.57-.91.69-1.13.35-2.18,0-3.1-.33l-.15-.05c-.52-.18-1.02-.36-1.42-.32-.63.02-1.25.48-1.52,1.06,2.4,1.66,5.69,2.05,8.36,2.37l3.21.38c3.62.42,7.33.86,10.82-.04.62-.16,1.38-.41,1.72-.92.11-.17.14-.44.07-.65,0-.03-.05-.13-.1-.15-.1-.03-.31-.02-.5,0-.39.03-.9.06-1.43-.16-.91-.38-1.24-1.23-1.49-1.86-.1-.26-.2-.51-.32-.68-.37-.54-1.32-.69-2.28-.78l-.5-.04.18-1.99.5.04c1.35.12,2.87.36,3.75,1.64.24.36.4.74.53,1.08.12.31.27.69.4.75.08.03.3.02.49,0,.37-.03.82-.06,1.3.11.64.22,1.12.71,1.35,1.4.27.8.15,1.71-.31,2.4-.72,1.07-1.92,1.49-2.89,1.74-1.53.39-3.2.58-5.11.58ZM55.7,340.94s-.1.03-.15.04c-.09.02-.17.04-.26.06.09-.02.17-.04.26-.06.05-.01.1-.03.15-.04ZM31.98,337.85c1.68,1.3,3.76,1.94,5.8,2.33-2.02-.38-4.08-1.02-5.75-2.29l-.05-.04ZM58.05,338.14c.16.5.08,1.08-.2,1.5-.08.13-.18.24-.29.35.1-.1.2-.22.29-.35.29-.43.36-1,.2-1.5ZM56.79,337.28c.18,0,.36.02.53.07.33.11.58.38.72.75-.13-.38-.38-.63-.72-.75-.25-.09-.52-.08-.78-.07.09,0,.17,0,.26,0ZM55.74,337.28c.21.03.42.02.61.01-.22.01-.42.02-.61-.01ZM54.62,336.17c.17.41.36.77.7.97-.35-.21-.54-.58-.7-.97ZM36.6,335.76c.74.25,1.45.45,2.17.24-.72.21-1.45,0-2.17-.24ZM39.04,335.89l-.25.11s.02,0,.02,0c.05-.02.14-.04.22-.1ZM34.4,335.24h0c-.09,0-.17,0-.26.02.09-.01.17-.02.26-.02h0ZM38.1,333.32l.98,1.94v-.03s-.98-1.91-.98-1.91ZM53.77,334.66c.12.11.23.23.32.36,0,.01.02.03.03.04,0-.01-.02-.03-.03-.04-.09-.14-.2-.26-.32-.36Z" style="fill: #fff;"/>
  </g>
  <g>
    <path d="M49.88,347.93c-3.67,0-7.33-.29-10.95-.87l-.21-.03c-1.78-.28-3.61-.58-5.15.13l-.68.31-.03-.74c-.1-2.17.21-4.32.91-6.38l.95.32c-.58,1.72-.87,3.51-.87,5.32,1.64-.49,3.43-.2,5.04.05l.21.03c5.52.88,11.13,1.08,16.71.6l-2.21-3.59.85-.52,3.05,4.95-.8.08c-2.26.22-4.54.33-6.81.33Z" style="fill: #fff;"/>
    <path d="M49.88,348.43c-3.68,0-7.39-.29-11.03-.87l-.21-.04c-1.7-.27-3.46-.55-4.86.09l-1.35.62-.07-1.48c-.1-2.24.21-4.44.93-6.56l.16-.47,1.89.64-.16.47c-.5,1.46-.78,2.98-.83,4.52,1.55-.29,3.15-.03,4.59.2l.22.04c5.21.83,10.51,1.05,15.77.66l-2.04-3.32,1.7-1.05,3.73,6.06-1.59.16c-2.27.22-4.58.34-6.86.34ZM38.82,346.54l.19.03c5.58.89,11.32,1.09,16.98.59h-.15c-5.61.5-11.27.29-16.83-.59l-.19-.03ZM55.3,344.93l1.34,2.17-1.34-2.17ZM33.35,346.66s0,.03,0,.05h0c.17-.08.35-.15.53-.2l-.53.16ZM33.89,341.67c-.37,1.41-.55,2.86-.55,4.33h0c0-1.47.18-2.92.55-4.33ZM33.89,341.67s0,0,0,0c0,0,0,0,0,0Z" style="fill: #fff;"/>
  </g>
  <g>
    <path d="M33.72,358.44l-2.05-10.41.98-.19,1.81,9.19c1.49-.53,3.1-.61,4.75-.65,6.19-.12,12.43.16,18.59.85-.04-.9-.4-1.82-.78-2.78-.58-1.47-1.17-2.99-.57-4.53l.93.36c-.46,1.18.04,2.45.57,3.8.47,1.2.96,2.44.83,3.75l-.05.51-.51-.06c-6.28-.73-12.68-1.04-18.99-.91-1.76.04-3.46.12-4.94.79l-.58.26Z" style="fill: #fff;"/>
    <path d="M33.35,359.16l-2.27-11.52,1.96-.39,1.8,9.13c1.42-.41,2.92-.47,4.36-.5,5.99-.12,12.05.15,18.02.79-.13-.64-.39-1.32-.67-2.02-.59-1.5-1.25-3.18-.58-4.9l.18-.47,1.86.73-.18.47c-.39,1,.08,2.18.57,3.44.49,1.26,1,2.55.87,3.98l-.1,1.02-1.01-.12c-6.27-.73-12.63-1.03-18.93-.91-1.71.03-3.35.12-4.74.75l-1.15.52ZM56.18,357.57c.7.07,1.41.15,2.11.23h0s-.54-.06-.54-.06c-.52-.06-1.04-.11-1.57-.17ZM32.26,348.43l1.83,9.3c1.56-.71,3.32-.8,5.13-.84.36,0,.71-.01,1.07-.02-.36,0-.72.01-1.07.02-1.6.03-3.16.1-4.59.62l-.55.2-1.82-9.27ZM56.77,350.6c-.22,1,.08,2.01.48,3.06-.38-1.02-.69-2.06-.47-3.06h0Z" style="fill: #fff;"/>
  </g>
  <g>
    <path d="M61.5,548.57c-3.26-2.03-3.42-6.51-3.55-10.11v-.38c-.39-10.11-4.17-19.79-7.82-29.16-1.94-4.96-3.94-10.09-5.43-15.26-5.19-17.96-4.49-36.84-3.82-55.1l.58-15.73c.08-2.28.17-4.63.62-6.93.23-1.16.55-2.3.86-3.41.34-1.21.69-2.45.91-3.7.4-2.28.4-4.6.35-7.18-.24-14.08-1.18-28.31-2.77-42.3l.99-.11c1.6,14.02,2.54,28.28,2.78,42.39.05,2.64.05,5.01-.37,7.37-.23,1.29-.58,2.56-.93,3.79-.3,1.09-.62,2.21-.84,3.33-.43,2.22-.52,4.53-.6,6.77l-.58,15.73c-.67,18.18-1.37,36.98,3.78,54.79,1.48,5.12,3.47,10.23,5.4,15.17,3.69,9.44,7.5,19.21,7.87,29.48v.38c.14,3.54.28,7.55,3.09,9.3l-.53.85Z" style="fill: #fff;"/>
    <path d="M61.66,549.26l-.42-.26c-3.49-2.17-3.65-6.8-3.79-10.52v-.38c-.38-10.02-4.15-19.66-7.79-28.99-1.94-4.97-3.95-10.11-5.45-15.3-5.21-18.04-4.51-36.96-3.84-55.26l.58-15.73c.09-2.3.17-4.67.63-7,.23-1.17.55-2.33.86-3.44.34-1.2.68-2.44.9-3.65.39-2.23.39-4.53.35-7.08-.24-14.06-1.17-28.27-2.77-42.25l-.06-.5,1.99-.23.06.5c1.6,14.03,2.54,28.31,2.78,42.44.05,2.66.05,5.06-.38,7.47-.23,1.31-.59,2.6-.94,3.84-.3,1.09-.61,2.2-.83,3.29-.43,2.18-.51,4.47-.59,6.69l-.58,15.73c-.67,18.14-1.36,36.9,3.76,54.63,1.48,5.11,3.46,10.2,5.39,15.13,3.7,9.48,7.53,19.29,7.91,29.65v.38c.14,3.42.27,7.29,2.86,8.89l.42.26-1.05,1.7ZM53.92,517.53c1.68,4.74,3.12,9.56,3.91,14.49-.79-4.93-2.23-9.75-3.91-14.49ZM43.58,487.15c.46,2.14.98,4.26,1.6,6.37.59,2.03,1.25,4.05,1.96,6.06-.71-2.01-1.37-4.03-1.96-6.06-.61-2.11-1.14-4.24-1.6-6.37ZM43.58,487.14h0s0,0,0,0ZM43.94,410.72c-.16.65-.34,1.29-.52,1.92-.31,1.1-.62,2.23-.85,3.37-.14.71-.24,1.42-.32,2.13.08-.71.18-1.43.32-2.13.22-1.13.54-2.26.84-3.36.18-.64.36-1.28.52-1.93ZM43.1,371.08c.88,10.16,1.42,20.39,1.59,30.53.03,1.55.04,3.02-.04,4.43.08-1.42.07-2.88.04-4.43-.18-10.15-.71-20.38-1.59-30.53ZM43.1,371.04s0,0,0,0c0,0,0,0,0,0Z" style="fill: #fff;"/>
  </g>
  <g>
    <path d="M71.96,541.59c-6.65-13.04-9.46-27.7-12.17-41.87-2.19-11.42-4.45-23.22-8.71-34.13l-.35-.89c-.62-1.55-1.25-3.16-1.66-4.83-.54-2.21-.67-4.51-.76-6.67-.55-13.65.36-27.39,2.72-40.85.21-1.18.42-2.35.64-3.53.73-3.97,1.49-8.08,1.79-12.16.33-4.56.08-9.26-.15-13.81-.38-7.29-.77-14.84,1.18-22l.96.26c-1.91,7.01-1.53,14.47-1.15,21.69.24,4.58.48,9.31.15,13.93-.3,4.14-1.06,8.27-1.8,12.27-.22,1.17-.43,2.34-.64,3.52-2.35,13.38-3.26,27.06-2.71,40.64.09,2.12.21,4.36.73,6.48.39,1.6,1.01,3.17,1.61,4.7l.35.9c4.29,11,6.56,22.85,8.76,34.31,2.7,14.1,5.5,28.68,12.08,41.6l-.89.45Z" style="fill: #fff;"/>
    <path d="M71.74,542.27l-.23-.45c-6.68-13.11-9.5-27.79-12.22-42-2.19-11.4-4.44-23.17-8.68-34.05l-.35-.89c-.62-1.57-1.26-3.19-1.68-4.89-.55-2.25-.68-4.58-.77-6.77-.55-13.69.36-27.47,2.73-40.96.21-1.18.42-2.36.64-3.53.73-3.96,1.49-8.06,1.78-12.11.32-4.53.08-9.22-.15-13.75-.38-7.33-.77-14.92,1.2-22.16l.13-.48,1.93.53-.13.48c-1.89,6.93-1.51,14.35-1.13,21.53.24,4.6.48,9.34.15,14-.3,4.16-1.06,8.3-1.8,12.31-.22,1.19-.44,2.36-.64,3.53-2.34,13.35-3.25,26.99-2.7,40.53.08,2.09.21,4.31.71,6.38.38,1.57,1,3.12,1.59,4.63l.35.9c4.3,11.04,6.58,22.91,8.78,34.39,2.7,14.08,5.49,28.62,12.04,41.48l.23.45-1.78.91ZM51.82,466.12c2.77,7.28,4.68,14.93,6.3,22.58-1.61-7.65-3.52-15.3-6.3-22.58ZM48.84,453.75c.09,1.97.24,4.03.72,6,0,.03.02.07.03.1,0-.03-.02-.07-.03-.1-.48-1.97-.63-4.03-.72-6ZM52.69,406.07c-.17.95-.34,1.9-.52,2.84-.22,1.18-.43,2.35-.64,3.53-1.51,8.61-2.43,17.33-2.74,26.08.32-8.74,1.23-17.47,2.74-26.08.21-1.17.42-2.35.64-3.52.17-.94.35-1.89.52-2.84ZM54.85,361.46c-1.55,6.02-1.47,12.33-1.18,18.52-.29-6.19-.37-12.5,1.18-18.52h0Z" style="fill: #fff;"/>
  </g>
  <g>
    <path d="M27.07,200.25l-.72-.63c-.64-.56-.88-1.37-1.09-2.09l-.06-.21c-.12-.39-.32-.81-.51-1.22-.57-1.19-1.36-2.83.61-3.81,1.14-.57,2.9-.47,4.59-.38.98.05,1.91.1,2.6.02l.71-.09-.16.7c-.19.83.22,1.7.65,2.62.49,1.05,1,2.13.7,3.32l-.1.41-.42-.03c-1.79-.13-3.6-.17-5.38-.1-.62.02-1.27.21-1.31.56l-.1.95ZM26.15,197.03l.06.22c.11.39.23.77.39,1.09.39-.36,1.02-.57,1.83-.61,1.67-.07,3.36-.04,5.03.07.02-.71-.33-1.45-.69-2.23-.39-.83-.8-1.69-.79-2.61-.65.03-1.39-.02-2.16-.06-1.49-.08-3.18-.18-4.09.28-1,.5-.84,1.05-.15,2.48.21.44.43.9.57,1.37h0Z" style="fill: #fff;"/>
    <path d="M27.46,201.26l-1.45-1.25c-.75-.65-1.03-1.58-1.24-2.33l-.06-.21c-.1-.35-.29-.75-.48-1.13-.56-1.16-1.58-3.28.83-4.49,1.26-.63,3.08-.53,4.84-.43.97.05,1.87.1,2.51.02l1.43-.19-.32,1.4c-.15.66.22,1.45.61,2.29.51,1.08,1.08,2.29.73,3.65l-.21.81-.83-.06c-1.77-.13-3.56-.17-5.32-.1-.52.02-.81.15-.86.2l-.17,1.81ZM26.52,199.11c.05.05.1.1.15.14h0c.03-.29.21-.53.51-.71-.09.05-.17.11-.24.17l-.42.39ZM30.31,198.21c1.19,0,2.39.04,3.58.13h0s0,0,0,0l-.46-.03c-1.4-.09-2.81-.12-4.21-.09.36,0,.73-.01,1.09-.01ZM25.71,197.33l.02.07c.06.22.13.43.2.65-.07-.21-.14-.43-.2-.64l-.02-.07ZM33.31,195.55c.35.74.68,1.51.65,2.28v.08c.05-.79-.28-1.56-.65-2.35ZM27.98,193.34c-.82,0-1.57.07-2.02.29-.54.27-.65.32.07,1.82.21.44.45.93.6,1.44h0s.06.22.06.22c.05.17.1.33.15.48.43-.21.96-.33,1.58-.35,1.48-.06,2.99-.05,4.49.03-.11-.46-.34-.96-.59-1.49-.35-.73-.7-1.49-.81-2.32-.52,0-1.09-.03-1.67-.06-.6-.03-1.25-.07-1.86-.07ZM25.24,196.12c.11.23.21.45.3.68-.09-.23-.19-.46-.3-.68ZM32.48,192.44v.52c0,.76.34,1.52.68,2.26-.43-.91-.84-1.86-.62-2.81-.17.02-.35.04-.55.04l.49-.02ZM27.96,192.34c-.96,0-1.83.09-2.45.4-.65.32-.93.71-.98,1.17.05-.44.32-.84.98-1.17,1.02-.51,2.78-.42,4.33-.33.08,0,.15,0,.22.01-.07,0-.14,0-.21-.01-.64-.04-1.29-.07-1.9-.07ZM30.46,192.44c.54.03,1.04.04,1.48.03-.45.02-.95,0-1.48-.03Z" style="fill: #fff;"/>
  </g>
  <g>
    <path d="M42.62,199.73l-.3-.76c-.23-.58-.69-1.31-1.19-2.07-.99-1.55-1.93-3.01-1.52-4.09.18-.46.57-.78,1.17-.95.47-.13,1.13-.19,1.83-.25.79-.07,1.68-.15,2.16-.34.69-.27,1.64-.17,2.57-.07.67.07,1.36.14,1.8.05l.33-.07.19.28c.95,1.42,1.43,3.15,1.36,4.86l-.02.45-.45.03c-1.67.11-3.34.39-4.95.83-.46.12-.98.28-1.41.54h0c-.38.23-.72.59-1.04.95l-.54.62ZM45.92,192.09c-.31,0-.57.03-.77.11-.61.24-1.54.32-2.44.4-.63.06-1.27.11-1.65.22-.42.12-.48.29-.5.34-.23.61.69,2.04,1.42,3.19.35.54.68,1.06.94,1.55.23-.23.48-.44.76-.6h0c.55-.33,1.15-.51,1.67-.65,1.53-.42,3.11-.69,4.69-.82-.03-1.25-.39-2.49-1.03-3.56-.52.05-1.13-.02-1.76-.08-.46-.05-.92-.1-1.32-.1Z" style="fill: #fff;"/>
    <path d="M42.46,200.67l-.6-1.52c-.21-.54-.66-1.24-1.14-1.98-1.06-1.66-2.07-3.22-1.56-4.54.16-.43.56-.99,1.5-1.25.51-.14,1.2-.2,1.92-.27.72-.06,1.61-.14,2.02-.3.81-.31,1.82-.21,2.8-.1.6.06,1.28.13,1.65.06l.66-.14.38.56c1,1.51,1.52,3.34,1.44,5.15l-.04.9-.9.06c-1.64.11-3.27.38-4.86.81-.42.11-.91.26-1.29.48-.32.19-.63.52-.92.85l-1.08,1.23ZM42.51,198.2c.11.2.2.4.28.59.2-.23.42-.46.65-.67-.05.05-.11.1-.16.15l-.47.46-.29-.53ZM40.24,194.32c.29.71.81,1.51,1.31,2.31.25.39.49.77.71,1.13-.21-.35-.45-.73-.7-1.11-.58-.9-1.06-1.68-1.32-2.32ZM45.92,192.59c-.34,0-.51.04-.59.07-.68.27-1.64.35-2.58.43-.58.05-1.23.11-1.57.2-.15.04-.2.08-.2.08-.1.36.96,2,1.41,2.7.23.36.45.71.65,1.04.12-.1.25-.18.37-.25.6-.36,1.24-.55,1.79-.7,1.4-.38,2.84-.65,4.29-.8-.08-.91-.35-1.79-.79-2.59-.47,0-.98-.04-1.5-.1-.47-.05-.92-.1-1.3-.1ZM49.6,196.37c-1,.1-1.99.26-2.97.48.98-.22,1.97-.38,2.97-.48ZM50.53,196.29l-.39.03c.13-.01.26-.02.39-.03h0ZM40.37,192.6h0ZM40.37,192.6s0,0,0,0t0,0ZM42.07,192.16c-.45.04-.85.1-1.15.18-.23.06-.41.15-.55.26.14-.11.32-.19.55-.26.29-.08.71-.14,1.15-.18ZM49.42,192v.02s.03.04.04.06c-.01-.02-.03-.05-.04-.07ZM45.04,191.71s-.05.02-.07.03c-.43.17-1.09.25-1.75.32.68-.07,1.32-.15,1.76-.32.02,0,.05-.02.07-.03ZM47.89,191.75c.39.03.75.05,1.07.02l.3-.03s0-.01-.01-.02h0c-.37.08-.86.06-1.36.02ZM46.16,191.6c.36.01.75.05,1.13.09.02,0,.04,0,.06,0-.02,0-.04,0-.06,0-.38-.04-.77-.08-1.14-.09Z" style="fill: #fff;"/>
  </g>
</svg>