<?xml version="1.0" encoding="UTF-8"?>
<svg id="Layer_9" xmlns="http://www.w3.org/2000/svg" viewBox="0 0 246.64 368.15">
  <path d="M192.25,118.19c-14.26,0-25.15-.37-40.17-1.36-4.48-.29-12.68.36-18.67.84-2.4.19-4.58.36-6.3.47-2.58.16-5.74-.12-8.8-.39-3.25-.28-6.58-.58-9.08-.35-8.52.76-17.11.4-25.41.05l-43.96-1.87c-1.24-.05-3.3-.14-4.79-1.51-2.01-1.85-1.75-4.82-1.62-6.25,1.21-13.88,2-28.01,2.33-41.99.31-12.8.24-25.75-.2-38.51-.04-1.25-.14-2.46-.23-3.61-.33-4.23-.63-8.15,1.79-10.76,1.72-1.86,4.47-2.73,8.65-2.73,5.61,0,11.26-.2,16.71-.39,7.34-.26,14.86-.51,22.07-.33,12.61.33,25.42.07,38.08-.77,19.45-1.28,42.11.06,57.1.95,5.39.32,10,.6,12.35.6.26-.02,1.6-.24,2.9-.45,10.14-1.64,11.03-1.58,11.96-.51.93,1.07,1.06,2.39,1.14,3.26,3.4,34.37,4.02,69.28,1.84,103.75l-.11,1.75-1.75.02c-5.82.06-10.99.1-15.85.1ZM149.42,112.98c1.06,0,2.04.03,2.9.08,21.23,1.41,33.51,1.48,53.98,1.27,2.04-33.7,1.39-67.8-1.94-101.39-.01-.16-.04-.4-.08-.62-1.96.14-6.86.93-8.63,1.22-2.39.39-3.15.51-3.54.51-2.44,0-6.89-.26-12.52-.6-14.96-.89-37.48-2.22-56.69-.95-12.75.84-25.68,1.1-38.43.77-7.1-.18-14.56.08-21.78.33-5.8.2-11.61.33-16.87.39-3.01,0-4.99.51-5.93,1.52-1.3,1.4-1.08,4.24-.8,7.82.1,1.29.2,2.55.24,3.86.44,12.83.5,25.86.2,38.72-.34,14.07-1.13,28.28-2.35,42.23-.07.83-.22,2.55.42,3.15.44.41,1.42.48,2.4.52l43.96,1.87c8.2.35,16.66.7,24.91-.03,2.85-.26,6.36.05,9.75.35,2.91.25,5.93.52,8.25.38,1.69-.1,3.85-.27,6.22-.46,5.2-.41,11.62-.92,16.31-.92Z" style="fill: #fff;"/>
  <path d="M180.46,128.68c-6.71,0-13.1-.21-18.98-.63-7.71-.55-20.58-.67-28.7-.27-1.72.08-3.45.13-5.77.14-6.37.05-9.41-.27-12.36-.57-1.51-.15-2.85-.29-4.51-.38-6.26-.35-12.68-.29-18.89-.24-5.38.05-10.86.1-16.26-.1l-1.03-.04c-3.38-.13-9.05-.35-12.38-.02-2.16.21-4.39-.35-6.54-.88-.81-.2-1.6-.4-2.33-.53-4.64-.84-16.29-1.17-23.82-.3l-1.55.18-.46-1.49c-2.8-9-2.31-17.57-1.79-26.65.11-1.93.22-3.85.3-5.79.26-6.47.66-13.05,1.05-19.42,1.18-19.28,2.39-39.17-.08-58.48-.12-.92-.1-2.1.06-3.95.32-3.75,3.24-6.65,6.95-6.89,27.78-1.79,57.13-1.25,79.59-.59,14.2.42,28.45-.33,42.24-1.06,18.01-.95,36.44-1.93,54.89-.37,2.01.17,4.33,2.21,7.15,4.87.4.37.71.66.95.87,1.49,1.31,2.49,3.22,2.77,5.23,1.18,8.66.67,18.03.12,27.95-.27,4.95-.56,10.07-.6,15.08-.06,6.88.03,13.93.12,20.75.24,18.14.46,35.27-1.9,50.3l-.23,1.46-1.47.13c-13.12,1.14-25.41,1.72-36.5,1.72ZM144.07,123.77c6.54,0,13.15.19,17.68.52,15.09,1.08,33.06.76,53.41-.96,2.08-14.37,1.87-30.82,1.64-48.2-.09-6.85-.18-13.92-.12-20.84.05-5.07.33-10.23.61-15.22.54-9.77,1.05-18.97-.09-27.27-.15-1.13-.71-2.19-1.53-2.91-.26-.23-.61-.55-1.01-.93-2.65-2.49-4.3-3.79-4.92-3.88-18.22-1.53-36.54-.56-54.25.38-13.95.74-28.3,1.5-42.67,1.07-22.37-.66-51.6-1.19-79.24.58-1.83.12-3.28,1.56-3.44,3.44-.05.55-.19,2.24-.07,3.15,2.51,19.66,1.29,39.74.11,59.15-.39,6.38-.79,12.94-1.05,19.38-.08,1.96-.19,3.9-.3,5.81-.47,8.26-.91,16.04,1.2,23.89,7.88-.7,18.78-.34,23.34.5.81.15,1.68.36,2.57.59,1.9.47,3.77.95,5.25.79,3.53-.34,8.91-.14,12.83,0l1.09.04c5.27.2,10.66.15,15.88.1,6.49-.05,12.97-.11,19.35.24,1.72.09,3.12.24,4.55.38,3.02.31,5.96.62,12.09.56,2.26-.01,3.94-.05,5.61-.14,3.18-.16,7.14-.24,11.48-.24Z" style="fill: #fff;"/>
  <path d="M200.34,170.9c-3.37,0-6.74-.04-10.09-.15-10.05-.33-24.95-.61-34-.51-1.04.01-1.9-.05-2.91-.13l-.28-.02c-2.32-.18-5.81-.46-15.08-.16-9.75.32-52.85-.13-79.79-1.14-3.7-.14-7.46-.19-11.1-.24-3.71-.05-7.54-.11-11.31-.25l-4.37-.18c-6.6-.28-12.71-.54-18.01-.18l-.54.04q-1.36.09-3.99.1h-3.82c-3.01.01-5.47-2.44-5.49-5.46l-.06-4.61c-.03-10.17,14.43-20.93,17.33-22.99.38-.27.76-.53,1.14-.79.91-.62,1.77-1.2,2.54-1.84,1.1-.93,2.1-2.07,3.06-3.18.56-.64,1.52-2.19,2.37-3.56,1.02-1.64,1.98-3.19,2.74-4.06l.83-.95,2.84,2.48-.83.95c-.56.64-1.52,2.2-2.37,3.57-1.02,1.64-1.97,3.19-2.73,4.05-1.07,1.22-2.16,2.48-3.47,3.59-.9.76-1.86,1.41-2.78,2.03-.39.26-.77.53-1.16.8-7.85,5.56-15.76,13.86-15.74,19.88l.06,4.61c0,.95.77,1.73,1.7,1.73h3.83q2.48-.02,3.74-.1l.55-.04c5.52-.37,11.74-.1,18.32.17l4.46.18c3.74.14,7.54.2,11.22.25,3.71.05,7.48.11,11.19.24,26.92,1.01,69.86,1.45,79.53,1.14,9.49-.3,13.11-.02,15.5.17,1.03.08,1.81.14,2.87.14,9.13-.1,24.1.18,34.15.51,10.55.34,21.19.04,31.48-.25l14.35-1.84c3.75-.11,6.68-3.09,6.67-6.65-.01-2.62-.84-3.89-2.49-6.44l-.14-.22c-1.49-2.3-3.93-4.06-6.29-5.76l-.21-.15c-6.87-4.95-14.5-10.95-17.99-19.58l-.47-1.17,3.5-1.41.47,1.16c3.11,7.7,10.25,13.3,16.7,17.94l.2.15c2.65,1.91,5.38,3.88,7.25,6.77l.14.21c1.72,2.65,3.08,4.75,3.09,8.47.02,5.59-4.53,10.26-10.14,10.42l-14.35,1.84c-7.2.21-14.52.42-21.8.42Z" style="fill: #fff;"/>
  <path d="M182.07,156.83c-4.86,0-9.82-.03-14.88-.09-18.27-.21-37.92-.27-56.92-.32h-.26c-37.35-.11-75.96-.23-106.44-1.46l-1.26-.05.15-3.77,1.26.05c30.41,1.23,68.99,1.35,106.29,1.46h.26c19.01.06,38.67.12,56.95.32,28.59.33,54-.27,75.51-1.78l1.25-.09.26,3.76-1.25.09c-17.73,1.24-38.23,1.87-60.94,1.87Z" style="fill: #fff;"/>
  <path d="M153.88,181.46c-26.75,0-50.93-.54-69.95-1.57l-2.4-.14c-6.43-.36-12.97-.73-19.27-.03-11.14,1.23-26.27.12-33.46-.73-4.83-.57-8.21-5.06-11.2-9.02-.77-1.02-1.5-1.99-2.22-2.84l-.81-.96,2.87-2.44.81.96c.77.91,1.54,1.93,2.36,3.01,2.53,3.36,5.41,7.16,8.64,7.54,6.53.77,21.75,1.91,32.6.72,6.68-.73,13.4-.35,19.89.02l2.4.13c33.74,1.83,83.67,2.08,130.31.65.59-.02,1.9-.66,2.76-1.09.71-.35,1.35-.66,1.91-.86,3.31-1.19,4.64-4.1,5.93-7.5l.45-1.17,3.53,1.34-.45,1.17c-1.51,3.96-3.38,7.97-8.18,9.7-.42.15-.95.42-1.51.7-1.37.68-2.91,1.44-4.32,1.48-19.67.6-40.65.92-60.68.92Z" style="fill: #fff;"/>
  <path d="M105.99,221.07l-.27-1.23c-1.1-4.93-.33-9.8.41-14.51.4-2.53.81-5.14.91-7.67.11-2.8,0-5.62-.1-8.35-.11-2.92-.23-5.94-.09-9l.06-1.26,3.77.18-.06,1.25c-.13,2.92-.02,5.85.09,8.68.11,2.84.22,5.73.1,8.65-.11,2.75-.54,5.46-.95,8.09-.72,4.58-1.41,8.89-.46,13.12l.27,1.23-3.68.82Z" style="fill: #fff;"/>
  <path d="M139.19,220.39l-3.75-.42.14-1.25c1.51-13.6,1.68-27.49.47-38.11l-.14-1.25,3.75-.43.14,1.25c1.25,10.89,1.08,25.09-.46,38.96l-.14,1.25Z" style="fill: #fff;"/>
  <path d="M130.31,367.15c-15.07,0-27.24-.22-38.3-.69-12.07-.52-24.28-1.4-36.29-2.63l-.71-.07c-5.46-.56-11.03-1.12-16.28-.18-1.44.26-2.92.65-4.35,1.02-2.16.57-4.34,1.14-6.62,1.38-6.09.67-11.03-1.54-13.18-5.88-1.71-3.45-.78-7.61,2.17-9.69,2.81-1.98,5.79-1.31,8.42-.73.48.11.95.21,1.41.3,3.59-36.77,10.46-73.44,20.44-109,.92-3.29,2.07-7.39,4.81-10.54,4.16-4.79,11.19-8.82,17.11-9.82,12.94-2.18,25.33-1.69,36.94-.93l.02-2.04h3.77l-.04,6.08-2.01-.14c-12.07-.84-24.95-1.47-38.06.75-5.13.87-11.26,4.39-14.89,8.58-2.19,2.52-3.21,6.16-4.03,9.09-10.1,35.97-16.99,73.07-20.51,110.26l-.16,1.76-1.77-.05c-1.33-.04-2.61-.33-3.84-.6-2.16-.48-4.01-.89-5.46.12-1.44,1.01-1.85,3.13-.96,4.93,2.1,4.23,7.72,3.99,9.4,3.81,2-.21,4.05-.75,6.03-1.27,1.52-.4,3.08-.81,4.67-1.09,5.8-1.05,11.67-.45,17.34.14l.71.07c11.95,1.22,24.09,2.1,36.06,2.61,20.63.88,41.57.73,61.82.58l60.39-.45c3.53-.03,7.53-.06,10.58-1.89,1.56-.94,2.78-2.6,3.18-4.33.17-.75.26-1.81-.25-2.82-3.48-2.18-7.96-2.6-11.78-1.1l-2.14.84-18.79-105.08c-1.43-7.98-3.01-14.96-7.88-19.55-3.01-2.83-7.33-4.04-11.55-4.92-7.7-1.6-23.54-3.55-34.06-.69-1.86.5-3.81-.39-4.64-2.1l-.19-.4c-.34-.68-.72-1.46-.97-2.31l-.36-1.21,3.61-1.07.36,1.2c.16.54.44,1.11.74,1.72l.2.41c.07.14.19.13.26.12,13.8-3.75,33.6.17,35.81.63,4.77.99,9.68,2.39,13.37,5.86,6.17,5.82,7.81,14.96,9,21.63l18.01,100.71c4.59-1.1,9.52-.25,13.45,2.4l.37.35c1.28,1.94,1.6,4.02,1.09,6.23-.62,2.69-2.51,5.26-4.91,6.71-3.93,2.37-8.68,2.4-12.49,2.43l-60.39.45c-7.94.06-15.8.12-23.71.12Z" style="fill: #fff;"/>
  <path d="M125.24,336.82c-8.61,0-17.36-1.68-26.03-5-7.84-3-13.15-6.52-16.72-11.08-2.2-2.82-3.7-5.99-5.15-9.07-2.4-5.08-5.11-10.84-5.08-17.09,0-1.05-.05-2.07-.1-3.09-.09-1.81-.19-3.68.03-5.65l.46-4.28c.76-7.13,1.07-10.08,2.63-15.34,2.56-8.67,8-13.52,13.76-18.64l1.69-1.51c7.9-7.12,18.73-10.52,32.17-10.12,13.29.43,22.21,5.39,33.5,11.67l1.56.87c1.47.82,3.54,3.2,6.09,6.23.77.91,1.38,1.64,1.77,2.05,3.76,3.93,4.56,8.26,4.87,12.36.19,2.5.44,4.98.69,7.45.81,8.06,1.64,16.24.41,24.49-1.1,7.4-5.16,15.82-10.59,21.99-1.65,1.88-3.7,3.62-6.25,5.33-8.24,5.52-18.52,8.44-29.72,8.44ZM120.66,239.67c-11.42,0-20.64,3.09-27.4,9.19l-1.7,1.52c-5.35,4.76-10.4,9.25-12.66,16.89-1.46,4.92-1.76,7.77-2.49,14.64l-.47,4.33c-.18,1.66-.1,3.31,0,5.04.06,1.09.11,2.19.11,3.31-.03,5.39,2.49,10.74,4.71,15.45,1.36,2.89,2.77,5.88,4.71,8.36,3.13,4,7.93,7.14,15.1,9.89,19.03,7.28,38.58,6.14,52.3-3.05,2.28-1.53,4.09-3.06,5.52-4.69,4.97-5.65,8.68-13.33,9.69-20.05,1.16-7.79.4-15.37-.42-23.41-.26-2.56-.52-5.12-.71-7.7-.35-4.64-1.46-7.55-3.84-10.04-.44-.46-1.12-1.27-1.91-2.2-1.34-1.59-4.08-4.84-5.06-5.38l-1.56-.87c-10.84-6.03-19.41-10.8-31.78-11.2-.72-.02-1.42-.03-2.12-.03Z" style="fill: #fff;"/>
  <path d="M125.13,331.1c-1.41,0-2.84-.08-4.24-.23-8.6-.94-17.48-2.37-23.38-8.62-1.73-1.83-2.69-2.31-4.99-3.47l-.45-.22c-1.62-.82-2.39-2.05-2.95-2.96-.44-.71-.76-1.23-1.41-1.6-3.27-1.93-5.79-6.46-6.35-9.73-.17-.98-.59-1.92-1.03-2.91-.74-1.64-1.57-3.49-1.29-5.78.23-1.87.2-3.87.18-5.8-.05-3.96-.09-8.04,1.84-11.81.65-1.26,1.26-3.05,1.85-4.78.55-1.61,1.1-3.23,1.71-4.54.64-1.37,1.39-2.74,2.13-4.07.87-1.59,1.74-3.17,2.42-4.72,3.15-7.22,14.04-13.09,19.37-15.18,2.79-1.1,6.05-1.49,10.22-1.23,10.24.63,20.58,4.5,29.9,11.18,4.39,3.15,7.39,6.16,9.43,9.46.45.72.94,1.48,1.45,2.25,1.93,2.93,4.11,6.25,4.86,9.61,1.33,5.95,1.93,11.03,1.94,16.47,0,2.68-1.25,5.4-2.36,7.8-.38.83-.75,1.62-1.04,2.37-1.13,2.89-2.57,5.61-3.97,8.24-.76,1.43-1.51,2.85-2.22,4.3-2,4.1-3.85,5.58-6.92,8.03l-1.23.99c-1.26,1.03-2.83,2.31-4.37,2.9-5.29,2-11.7,4.05-19.1,4.05ZM92.64,261.36h0c-.74,1.69-1.65,3.36-2.54,4.97-.72,1.32-1.45,2.63-2.05,3.92-.52,1.11-1.02,2.57-1.54,4.1-.65,1.91-1.31,3.84-2.08,5.34-1.51,2.94-1.47,6.38-1.42,10.03.02,2.06.05,4.19-.21,6.31-.15,1.24.37,2.41.98,3.76.5,1.12,1.07,2.37,1.32,3.83.4,2.33,2.36,5.83,4.55,7.12,1.43.85,2.13,1.96,2.69,2.85.51.82.81,1.26,1.45,1.59l.44.22c2.49,1.25,3.85,1.94,6.04,4.25,5.02,5.31,13.15,6.6,21.05,7.46,8.27.9,15.56-1.31,21.59-3.6.97-.37,2.33-1.48,3.33-2.3l1.26-1.01c2.93-2.34,4.26-3.4,5.89-6.73.73-1.49,1.5-2.95,2.28-4.41,1.35-2.54,2.74-5.16,3.79-7.85.32-.82.72-1.69,1.13-2.58.99-2.15,2.02-4.37,2.01-6.22,0-5.15-.58-9.98-1.84-15.66-.6-2.69-2.58-5.7-4.33-8.36-.58-.88-1.07-1.62-1.51-2.34-1.77-2.86-4.45-5.52-8.42-8.38-8.74-6.27-18.4-9.89-27.93-10.48-3.6-.22-6.34.09-8.6.98-5.38,2.12-14.84,7.57-17.29,13.18Z" style="fill: #fff;"/>
  <path d="M124.3,295.45c-1.23,0-2.48-.21-3.72-.63l-.88-.28c-1.23-.39-1.78-.59-3.22-1.77-2.35-1.93-2.67-2.35-2.78-2.49-.92-1.21-1.31-2.84-1.07-4.59.64-4.84,3.79-7.96,8.01-7.96,2.87.03,7.93,1.72,9.84,4.41,1.33,1.88,1.3,4.12,1.16,6.25-.11,1.72-.33,3.53-1.62,4.94-.6.66-1.42,1.19-2.43,1.56-1.03.37-2.13.56-3.29.56ZM120.64,280.23v1.26c-3.29,0-4.08,3.28-4.26,4.69-.05.35-.11,1.23.33,1.81.11.12,1.05.94,2.17,1.86.93.76,1.03.79,1.96,1.09l.96.31c1.6.54,3.19.58,4.49.1.54-.2.81-.41.95-.56.47-.51.57-1.5.64-2.65.1-1.52.14-2.96-.47-3.83-.9-1.27-4.54-2.8-6.72-2.82l-.05-1.26Z" style="fill: #fff;"/>
  <path d="M125.83,283.5l-.41-1.19c-.88-2.57-2.02-6.86-2.84-10.55-.5,2.61-1.02,6.78-.85,8.51l.13,1.25-3.75.38-.13-1.25c-.27-2.66.59-8.28,1.09-10.55.1-.47.24-.94.37-1.41.1-.37.19-.67.26-.97.21-.85.32-1.72.41-2.46.13-1.09.22-2.18.29-3.27l.57-9.98,3.1,9.5c.53,1.64,1.08,3.32,1.35,5.13.56,3.68,2.32,10.83,3.56,14.43l.41,1.19-3.56,1.23Z" style="fill: #fff;"/>
  <rect x="119.8" y="249.8" width="5.64" height="3.77" transform="translate(-134.76 361.87) rotate(-87.2)" style="fill: #fff;"/>
  <rect x="144.17" y="261.94" width="5.67" height="3.77" transform="translate(-150.27 210.52) rotate(-50.71)" style="fill: #fff;"/>
  <path d="M97.14,266.01l-.52-1.15c-.29-.65-.66-1.27-1.09-1.85l-.75-1.01,3.03-2.24.75,1.01c.58.79,1.08,1.64,1.49,2.53l.52,1.14-3.43,1.56Z" style="fill: #fff;"/>
  <path d="M85.87,290.04l-2.58-2.76.92-.86c1.59-1.48,4.14-1.56,5.81-.16l.96.81-2.42,2.9-.96-.81c-.21-.17-.62-.16-.81.02l-.92.86Z" style="fill: #fff;"/>
  <path d="M97.77,315.02l-2.47-2.85.95-.82c.69-.6,1.29-1.29,1.78-2.05l.68-1.06,3.17,2.04-.68,1.06c-.69,1.07-1.52,2.03-2.48,2.86l-.95.82Z" style="fill: #fff;"/>
  <path d="M124.78,325.41l-3.77-.05.02-1.26c.02-1.14-.03-2.28-.14-3.4l-.12-1.25,3.75-.37.12,1.25c.12,1.26.17,2.54.16,3.82l-.02,1.26Z" style="fill: #fff;"/>
  <path d="M149.19,315.29l-1.13-.56c-1.57-.78-2.81-2.24-3.33-3.91l-.37-1.2,3.6-1.11.37,1.2c.21.69.75,1.32,1.4,1.64l1.13.56-1.67,3.38Z" style="fill: #fff;"/>
  <path d="M160.08,289.84l-1.23-.27c-.82-.18-1.66-.22-2.49-.1l-1.24.17-.51-3.73,1.25-.17c1.27-.17,2.55-.12,3.8.16l1.23.27-.81,3.68Z" style="fill: #fff;"/>
  <path d="M149.93,153.65l-22.42-.87c-2.02-.08-4.12-.16-6.22-.17-2.27,0-4.59.09-6.83.17l-2.21.08c-3.12.1-5.73.14-8.39,0-1.56-.08-2.96-.22-4.31-.41-.22-.03-.42-.05-.62-.07-1.08-.11-3.59-.37-3.73-3.4-.19-4.1,3.39-4.48,4.92-4.64,1.91-.2,3.82-.39,5.73-.57l2.71-.26c2.05-.2,4.12-.41,6.23-.42,1.52-.01,3.13.08,4.65.17.82.05,1.65.1,2.48.13,2.32.09,4.77.04,6.93,0l2.75-.04c5.24-.05,10.47.16,15.56.6l1.51.13,1.26,9.58ZM121.29,148.84h0c2.13,0,4.24.09,6.29.16l18.03.7-.28-2.14c-4.59-.36-9.18-.51-13.69-.46l-2.72.04c-2.2.04-4.7.09-7.15,0-.85-.03-1.7-.08-2.55-.13-1.53-.09-2.99-.17-4.4-.16-1.96.02-3.96.21-5.89.41l-2.72.26c-1.9.18-3.79.36-5.69.56-1.12.12-1.45.24-1.56.31,0,0,0,.07,0,.2.14.02.28.03.36.04.24.02.5.05.77.09,1.24.18,2.54.3,3.97.38,2.56.14,5.07.1,8.05,0l2.2-.08c2.28-.09,4.64-.17,6.97-.17Z" style="fill: #fff;"/>
  <path d="M110.76,100.26c-8.4,0-16.71-.69-24.7-2.06-5.31-.91-11.91-2.04-16.65-6.18-3.12-2.73-5.3-6.69-6.13-11.15-1.23-6.63.65-13.65,5.04-18.78,1.34-1.56,3.55-3.63,6.51-4.62.64-.21,1.2-.34,1.68-.44.24-.05.54-.12.67-.17-.03-.02.02-.23.08-.74.59-5.45,3.29-9.84,7.81-12.68,4.78-3,10.33-3.76,14.81-4.02,2.09-5.11,7.19-8.05,12.25-10.62,3.42-1.73,6.78-3.23,10.43-2.47.46.09,1.01.13,1.6.18,1.39.11,2.97.23,4.23.98.48.28,1.01.58,1.57.9,2.38,1.34,5.09,2.85,6.58,4.78.39.51.78.98,1.15,1.43,1.35,1.64,2.59,3.14,3.29,5.25.15.46.51.77.92.83,6.6.9,14.81,2.02,17.32,11.94.11.41.26.82.4,1.22.29.78.61,1.65.68,2.61.02.19.08.27.1.28,1.21.57,2.46,1.12,3.69,1.64,3.74,1.61,7.22,3.11,8.97,5.23l.66.78c1.45,1.71,3.02,3.57,4.21,6.35,1.38,3.21.35,8.49.15,9.46-.11,3.48-2.58,6.89-3.78,8.53l-.42.59c-1.27,1.92-6.2,4.81-7.99,5.76-8.36,4.45-13.24,4.19-19.99,3.85-4.38-.23-9.78-.51-17.79.37-5.81.63-11.64.95-17.35.95h-.02ZM120.62,29.9c-2.14,0-4.52,1.12-6.77,2.26-4.76,2.41-9.51,5.15-10.79,9.6l-.38,1.31-1.36.06c-4.32.18-9.83.73-14.24,3.5-3.51,2.2-5.61,5.62-6.07,9.89-.35,3.19-1.87,3.79-3.68,4.19-.39.09-.81.18-1.3.34-2.14.71-3.81,2.29-4.84,3.49-3.6,4.2-5.21,10.19-4.2,15.63.68,3.63,2.42,6.83,4.91,9,3.94,3.45,9.71,4.43,14.8,5.3,13.13,2.25,26.94,2.61,41.03,1.08,8.33-.9,13.9-.62,18.37-.39,6.85.35,10.61.55,18.05-3.41,3.1-1.65,6.15-3.82,6.61-4.52.12-.18.3-.43.52-.73.99-1.36,3.06-4.21,3.06-6.55l.05-.41c.22-.77.95-5.34.1-7.33-.97-2.27-2.23-3.75-3.56-5.32l-.76-.9c-1.16-1.41-4.37-2.8-7.48-4.13-1.29-.56-2.61-1.12-3.88-1.73-1.28-.61-2.11-1.87-2.24-3.38-.04-.46-.25-1.02-.47-1.62-.19-.52-.38-1.05-.52-1.6-1.89-7.46-7.86-8.27-14.18-9.14-1.85-.25-3.37-1.54-3.99-3.37-.48-1.44-1.41-2.57-2.59-4.01-.41-.5-.83-1.01-1.26-1.56-1.02-1.32-3.58-2.76-5.44-3.8-.64-.36-1.17-.66-1.65-.95-.5-.3-1.61-.39-2.59-.46-.76-.06-1.46-.12-2.09-.25-.38-.08-.77-.12-1.18-.12Z" style="fill: #fff;"/>
  <path d="M90.63,95.84c-2.79,0-5.22-.2-7.44-.61-6.95-1.3-12.57-5.15-15.05-10.3-2.36-4.9-1.95-11.06,1.06-16.08,2.25-3.75,5.86-6.79,10.44-8.78.5-.22,1.02-.44,1.14-.55-.04-.02-.08-.57-.11-1.1-.2-2.86.36-5.33,1.71-7.55,1.64-2.69,4.28-4.94,7.85-6.7,4.61-2.26,9.09-2.59,12.5-.95.75-1.02,1.34-2.24,1.95-3.52.8-1.64,1.61-3.32,2.84-4.8,2.6-3.12,6.82-4.93,11.35-4.87,3.71.06,7.64,1.38,11.37,3.8,2.55,1.66,6.84,5.13,8.17,10.3,6.85-.48,13.67,3.02,17.23,8.91,1.53,2.54,2.13,5.22,1.71,7.54,2.64.81,5.33,1.82,7.6,3.61,2.26,1.78,4.09,4.28,5.75,7.85,1.74,3.73,2.37,6.8,2,9.67-.6,4.61-4.07,8.9-9.08,11.19-4.4,2.02-9.3,2.37-13.54,2.55-7.96.33-15.94.11-23.67-.1-8.42-.23-17.12-.47-25.68,0l-2.63.16c-2.44.16-4.97.32-7.5.32ZM85.61,52.83c-.94,1.54-1.32,3.28-1.17,5.33.22,3.15-.36,4.11-3.28,5.38-3.85,1.67-6.86,4.18-8.71,7.26-2.37,3.94-2.71,8.73-.9,12.5,1.96,4.07,6.57,7.15,12.34,8.22,4.54.85,9.35.54,14,.24l2.66-.16c8.67-.48,17.46-.24,25.96,0,7.86.21,15.73.42,23.44.11,3.88-.16,8.34-.47,12.13-2.21,3.83-1.75,6.47-4.92,6.9-8.25.28-2.13-.26-4.54-1.68-7.59-1.4-3.01-2.89-5.07-4.67-6.47-2.29-1.8-5.43-2.71-8.19-3.51l-2.23-.65,1.09-2.05c.79-1.48.45-3.76-.88-5.97-3.03-5.02-9.43-7.93-15.22-6.92l-2,.35-.2-2.02c-.34-3.39-2.83-6.82-6.81-9.41-3.13-2.03-6.37-3.13-9.38-3.19-3.39-.07-6.52,1.27-8.39,3.51-.94,1.13-1.65,2.6-2.34,4.02-.97,1.99-1.95,4.02-3.66,5.67l-1.15,1.11-1.28-.95c-3.46-2.55-8.61-.34-10.11.4-2.92,1.43-5.04,3.21-6.3,5.27Z" style="fill: #fff;"/>
  <path d="M99.63,83.74c-1.7,0-3.16-.22-4.46-.68-2.45-.86-4.44-2.62-6.03-4.04-.81-.72-1.83-1.62-2.48-2.86-.86-1.65-.87-3.51-.88-4.86-.01-2.26-.02-4.82.7-7.33.88-3.04,2.74-5.59,4.38-7.84.61-.83,1.43-1.96,2.72-2.61,1.59-.8,3.34-.61,4.5-.48,3,.34,5.92.72,8.73,1.77,1.72.64,5.89,2.52,7.52,6.04l.86,1.86-1.93.7c-.59.22-1.2.54-1.84.87-1.1.57-2.22,1.15-3.47,1.42-2.14.46-3.49-.49-4.49-1.19-.29-.2-.56-.4-.88-.57-.85-.48-1.78-.53-2.68-.16-1.07.44-1.92,1.43-2.27,2.64-.65,2.26.26,4.79,1.13,6.51.55,1.09,1.2,1.8,1.66,1.81.38-.01.94-.4,1.57-.87.5-.37,1.02-.75,1.6-1.05,3.1-1.6,6.48-.46,9.68,1.01l1.11.51v1.23c-.04,2.55-1.78,5.06-4.44,6.4-2.16,1.08-4.51,1.32-6.59,1.53-1.14.11-2.43.24-3.74.24ZM96.37,56.7c-.47,0-.82.06-1.08.19-.48.24-.95.89-1.37,1.46-1.53,2.1-3.12,4.27-3.81,6.67-.57,1.97-.56,4.24-.55,6.25,0,1.09,0,2.3.45,3.14.33.62.96,1.18,1.63,1.78,1.5,1.33,3.04,2.7,4.79,3.31,1.99.7,4.42.45,6.56.24,1.84-.19,3.74-.38,5.28-1.15.93-.47,1.66-1.18,2.05-1.94-1.82-.74-3.61-1.18-4.97-.48-.37.19-.71.46-1.08.73-1,.74-2.29,1.57-3.88,1.62-1.38-.02-3.37-.71-4.97-3.88-1.69-3.33-2.17-6.53-1.39-9.25.66-2.3,2.32-4.2,4.45-5.08,1.96-.82,4.08-.69,5.95.36.44.25.83.52,1.21.78.87.61,1.04.7,1.52.59.74-.16,1.64-.62,2.5-1.07.04-.02.08-.04.12-.06-1.38-1.36-3.36-2.21-4.28-2.55-2.41-.9-5.07-1.25-7.82-1.56-.46-.05-.9-.1-1.31-.1Z" style="fill: #fff;"/>
  <path d="M126.42,84.04c-.69,0-1.42-.04-2.18-.11-2.69-.27-4.73-.88-6.42-1.93-4.82-3.01-6.02-9.08-6.5-13.38-.12-1.14-.22-2.25.03-3.43.32-1.54,1.16-2.81,1.86-3.74,4.33-5.78,9.27-7.83,16.49-6.83,1.69.23,4.16.71,6.19,2.22,4.02,3,4.54,8.22,4.72,12.89.06,1.57.13,3.52-.64,5.34-.62,1.48-1.71,2.63-2.58,3.56-1.37,1.46-2.92,3.1-4.97,4.14-1.69.86-3.66,1.28-5.99,1.28ZM126.34,58.14c-4.22,0-7.15,1.61-10.11,5.56-.46.62-1.02,1.44-1.19,2.25-.13.64-.07,1.4.03,2.25.39,3.52,1.31,8.46,4.74,10.6,1.18.73,2.7,1.17,4.79,1.38,2.57.26,4.57,0,6.1-.77,1.46-.74,2.71-2.07,3.92-3.36.73-.78,1.49-1.59,1.85-2.44.45-1.06.39-2.48.34-3.74-.14-3.79-.52-8-3.2-10-1.02-.76-2.39-1.23-4.45-1.51-1.02-.14-1.98-.21-2.85-.21Z" style="fill: #fff;"/>
  <path d="M126.69,79.59c-.71,0-1.36-.16-1.87-.28-1.07-.26-2.37-.58-3.52-1.33-1.9-1.23-3.15-3.44-3.44-6.07-.24-2.16.16-4.23.51-6.06.18-.95.41-2.1,1.03-3.17,1.19-2.03,4.61-3.33,5.99-3.61,3.19-.65,6.05,1.63,7.23,4.21,1.09,2.41,1.04,4.96.99,7.22-.02,1.12-.06,2.51-.61,3.84-.44,1.06-1.13,1.9-1.8,2.67-.69.8-1.97,2.28-3.9,2.54-.2.03-.4.04-.61.04ZM122.65,64.57h0c-.3.51-.44,1.22-.58,1.97-.3,1.57-.64,3.35-.47,4.95.16,1.46.83,2.73,1.74,3.32.62.4,1.46.61,2.34.83.41.1.85.21,1.09.18.52-.07,1.2-.85,1.56-1.27.51-.59.95-1.12,1.17-1.65.28-.67.3-1.55.32-2.47.04-1.86.09-3.96-.65-5.58-.55-1.22-1.85-2.33-3.05-2.08-1.24.25-3.16,1.25-3.49,1.81Z" style="fill: #fff;"/>
  <path d="M144.71,86.87c-2.21,0-4.2-.34-6.07-1.05l-1.39-.53.19-1.48c.27-2.05.81-4.35,2.84-5.83.79-.58,1.69-1.41,2.57-2.22.28-.26.56-.52.83-.76-2.47.23-4.49-.6-5.3-2.24-.41-.82-1.03-3,1.95-5.56,1-.86,2.37-1.93,4.09-2.53,4.25-1.49,9.52.84,11.26,5,.34.8.52,1.58.55,2.33.11,2.69-1.69,4.8-3.06,6.15-.34.33-.66.63-.97.9.46.04.95.19,1.37.64.65.7.7,1.83.7,2.16v3.68l-1.52.3c-2.61.51-5.3,1.04-8.04,1.04ZM141.47,82.74c2.34.55,4.81.38,7.45-.05-.06,0-.11,0-.17,0-1.93-.1-3.36-.18-3.85-1.47l-.63-.03.53-.32-.29-1.3,2.24-1.35c1.5-.89,2.48-1.47,3.76-2.74.49-.49,2-1.98,1.94-3.32-.01-.3-.1-.64-.26-1.03-.99-2.37-4.1-3.75-6.53-2.9-.01,0-.03,0-.04.01,1.01-.12,2.34.2,3.96,1.54.34.28,1.04.86,1.22,1.87.13.74-.09,1.35-.19,1.61-.65,1.81-1.67,2.48-2.57,3.07-.31.2-.64.42-1.01.72-.5.42-1.04.92-1.59,1.43-1,.93-1.99,1.84-2.95,2.54-.48.35-.8.87-1.03,1.71ZM146.71,72.34c0,.11,0,.21-.02.33.07-.07.12-.14.17-.22-.05-.04-.11-.07-.15-.11ZM141.86,71.11c.19.08.54.18,1.1.16.03-.56.14-1.2.49-1.76-.22.17-.44.35-.68.55-.54.47-.81.83-.92,1.04Z" style="fill: #fff;"/>
</svg>