<?xml version="1.0" encoding="UTF-8"?>
<svg id="Layer_9" xmlns="http://www.w3.org/2000/svg" viewBox="0 0 97.32 145.27">
  <path d="M76.18,46.72c-5.67,0-10-.15-15.98-.54-1.78-.12-5.04.14-7.43.33-.95.08-1.82.15-2.51.19-1.03.06-2.28-.05-3.5-.16-1.29-.11-2.62-.23-3.61-.14-3.39.3-6.81.16-10.11.02l-17.49-.74c-.49-.02-1.31-.06-1.91-.6-.8-.74-.69-1.92-.65-2.49.48-5.52.8-11.14.93-16.71.12-5.09.1-10.24-.08-15.32-.02-.5-.05-.98-.09-1.44-.13-1.68-.25-3.24.71-4.28.69-.74,1.78-1.09,3.44-1.09,2.23,0,4.48-.08,6.65-.15,2.92-.1,5.91-.2,8.78-.13,5.02.13,10.11.03,15.15-.3,7.74-.51,16.75.02,22.72.38,2.15.13,3.98.24,4.91.24.1,0,.64-.1,1.15-.18,4.03-.65,4.39-.63,4.76-.2.37.43.42.95.46,1.3,1.35,13.68,1.6,27.56.73,41.27l-.04.7h-.7c-2.31.03-4.37.05-6.31.05ZM59.14,44.65c.42,0,.81.01,1.15.03,8.45.56,13.33.59,21.48.51.81-13.41.55-26.97-.77-40.34,0-.06-.02-.16-.03-.25-.78.06-2.73.37-3.43.48-.95.15-1.25.2-1.41.2-.97,0-2.74-.1-4.98-.24-5.95-.35-14.91-.88-22.55-.38-5.07.33-10.21.44-15.29.31-2.82-.07-5.79.03-8.66.13-2.31.08-4.62.13-6.71.15-1.2,0-1.99.2-2.36.6-.52.56-.43,1.69-.32,3.11.04.51.08,1.01.1,1.53.17,5.1.2,10.29.08,15.41-.13,5.6-.45,11.25-.93,16.8-.03.33-.09,1.02.17,1.25.17.16.57.19.95.21l17.49.74c3.26.14,6.63.28,9.91-.01,1.13-.1,2.53.02,3.88.14,1.16.1,2.36.21,3.28.15.67-.04,1.53-.11,2.48-.18,2.07-.16,4.62-.37,6.49-.37Z" style="fill: #fff;"/>
  <path d="M71.49,50.89c-2.67,0-5.21-.08-7.55-.25-3.07-.22-8.19-.27-11.42-.11-.68.03-1.37.05-2.29.06-2.53.02-3.74-.11-4.92-.23-.6-.06-1.13-.12-1.79-.15-2.49-.14-5.04-.12-7.51-.09-2.14.02-4.32.04-6.47-.04l-.41-.02c-1.35-.05-3.6-.14-4.92,0-.86.08-1.75-.14-2.6-.35-.32-.08-.64-.16-.93-.21-1.84-.34-6.48-.46-9.48-.12l-.62.07-.18-.59c-1.11-3.58-.92-6.99-.71-10.6.04-.77.09-1.53.12-2.3.1-2.57.26-5.19.42-7.72.47-7.67.95-15.58-.03-23.27-.05-.37-.04-.84.02-1.57.13-1.49,1.29-2.65,2.76-2.74,11.05-.71,22.73-.5,31.66-.24,5.65.17,11.32-.13,16.8-.42,7.17-.38,14.5-.77,21.84-.15.8.07,1.72.88,2.85,1.94.16.15.28.26.38.35.59.52.99,1.28,1.1,2.08.47,3.45.26,7.17.05,11.12-.11,1.97-.22,4.01-.24,6-.03,2.74.01,5.54.05,8.26.09,7.22.18,14.03-.76,20.01l-.09.58-.58.05c-5.22.45-10.11.68-14.52.68ZM57.01,48.94c2.6,0,5.23.08,7.03.21,6,.43,13.15.3,21.25-.38.83-5.72.74-12.26.65-19.18-.04-2.72-.07-5.54-.05-8.29.02-2.02.13-4.07.24-6.05.21-3.89.42-7.54-.03-10.85-.06-.45-.28-.87-.61-1.16-.1-.09-.24-.22-.4-.37-1.06-.99-1.71-1.51-1.96-1.55-7.25-.61-14.54-.22-21.58.15-5.55.29-11.26.6-16.97.43-8.9-.26-20.53-.47-31.52.23-.73.05-1.3.62-1.37,1.37-.02.22-.08.89-.03,1.25,1,7.82.51,15.81.04,23.53-.15,2.54-.31,5.15-.42,7.71-.03.78-.08,1.55-.12,2.31-.19,3.28-.36,6.38.48,9.5,3.14-.28,7.47-.13,9.29.2.32.06.67.14,1.02.23.75.19,1.5.38,2.09.31,1.4-.14,3.54-.06,5.1,0l.44.02c2.09.08,4.24.06,6.32.04,2.58-.02,5.16-.05,7.7.1.69.04,1.24.09,1.81.15,1.2.12,2.37.25,4.81.22.9,0,1.57-.02,2.23-.05,1.26-.06,2.84-.1,4.57-.1Z" style="fill: #fff;"/>
  <path d="M79.4,67.69c-1.34,0-2.68-.02-4.01-.06-4-.13-9.93-.24-13.52-.2-.41,0-.75-.02-1.16-.05h-.11c-.92-.08-2.31-.19-6-.07-3.88.13-21.03-.05-31.74-.45-1.47-.06-2.97-.08-4.42-.1-1.47-.02-3-.04-4.5-.1l-1.74-.07c-2.63-.11-5.06-.21-7.17-.07h-.22q-.54.05-1.59.05h-1.52c-1.2,0-2.18-.97-2.19-2.17l-.02-1.84c-.01-4.05,5.74-8.33,6.89-9.14.15-.11.3-.21.46-.31.36-.25.7-.48,1.01-.73.44-.37.83-.82,1.22-1.27.22-.26.61-.87.94-1.42.4-.65.79-1.27,1.09-1.62l.33-.38,1.13.99-.33.38c-.22.26-.61.87-.94,1.42-.41.65-.79,1.27-1.09,1.61-.42.49-.86.99-1.38,1.43-.36.3-.74.56-1.1.81-.15.1-.31.21-.46.32-3.12,2.21-6.27,5.51-6.26,7.91l.02,1.83c0,.38.31.69.68.69h1.52q.99,0,1.49-.04h.22c2.2-.16,4.67-.06,7.29.05l1.77.07c1.49.06,3,.08,4.46.1,1.48.02,2.98.04,4.45.1,10.71.4,27.79.58,31.64.45,3.78-.12,5.21,0,6.17.07.41.03.72.05,1.14.05,3.63-.04,9.59.07,13.59.2,4.2.13,8.43.01,12.52-.1l5.71-.73c1.49-.05,2.66-1.23,2.65-2.65,0-1.04-.33-1.55-.99-2.56l-.06-.09c-.59-.92-1.56-1.61-2.5-2.29l-.08-.06c-2.73-1.97-5.77-4.36-7.16-7.79l-.19-.46,1.39-.56.19.46c1.24,3.06,4.08,5.29,6.64,7.14l.08.06c1.05.76,2.14,1.54,2.89,2.69l.06.09c.68,1.06,1.23,1.89,1.23,3.37,0,2.22-1.8,4.08-4.04,4.15l-5.71.73c-2.87.08-5.78.17-8.67.17Z" style="fill: #fff;"/>
  <path d="M72.13,62.09c-1.93,0-3.91-.01-5.92-.03-7.27-.08-15.08-.11-22.64-.13h-.1c-14.86-.04-30.22-.09-42.35-.58l-.5-.02.06-1.5.5.02c12.1.49,27.45.54,42.29.58h.1c7.56.02,15.38.05,22.66.13,11.38.13,21.48-.11,30.04-.71l.5-.04.1,1.5-.5.03c-7.05.49-15.21.75-24.24.75Z" style="fill: #fff;"/>
  <path d="M60.92,71.89c-10.64,0-20.26-.22-27.83-.63l-.96-.05c-2.56-.14-5.16-.29-7.67-.01-4.43.49-10.45.05-13.31-.29-1.92-.23-3.27-2.01-4.46-3.59-.31-.41-.6-.79-.88-1.13l-.32-.38,1.14-.97.32.38c.31.36.61.77.94,1.2,1.01,1.34,2.15,2.85,3.44,3,2.6.31,8.65.76,12.97.29,2.66-.29,5.33-.14,7.91,0l.95.05c13.42.73,33.29.83,51.84.26.23,0,.76-.26,1.1-.43.28-.14.54-.26.76-.34,1.31-.47,1.85-1.63,2.36-2.98l.18-.47,1.4.53-.18.47c-.6,1.58-1.34,3.17-3.25,3.86-.17.06-.38.17-.6.28-.55.27-1.16.57-1.72.59-7.82.24-16.17.37-24.14.37Z" style="fill: #fff;"/>
  <path d="M41.86,87.65l-.11-.49c-.44-1.96-.13-3.9.16-5.77.16-1.01.32-2.04.36-3.05.04-1.11,0-2.24-.04-3.32-.04-1.16-.09-2.36-.03-3.58l.02-.5,1.5.07-.02.5c-.05,1.16,0,2.33.04,3.45.04,1.13.09,2.28.04,3.44-.04,1.09-.21,2.17-.38,3.22-.29,1.82-.56,3.54-.18,5.22l.11.49-1.46.33Z" style="fill: #fff;"/>
  <path d="M55.07,87.38l-1.49-.17.06-.5c.6-5.41.67-10.94.19-15.16l-.06-.5,1.49-.17.06.5c.5,4.33.43,9.98-.18,15.5l-.06.5Z" style="fill: #fff;"/>
  <path d="M51.54,145.76c-5.99,0-10.84-.09-15.24-.28-4.8-.21-9.66-.56-14.44-1.05l-.28-.03c-2.17-.22-4.39-.45-6.48-.07-.57.1-1.16.26-1.73.41-.86.23-1.73.45-2.63.55-2.42.26-4.39-.61-5.24-2.34-.68-1.37-.31-3.03.86-3.85,1.12-.79,2.3-.52,3.35-.29.19.04.38.08.56.12,1.43-14.63,4.16-29.22,8.13-43.36.37-1.31.83-2.94,1.92-4.19,1.65-1.9,4.45-3.51,6.81-3.91,5.15-.87,10.08-.67,14.7-.37v-.81h1.51v2.42s-.81-.06-.81-.06c-4.8-.33-9.93-.58-15.14.3-2.04.34-4.48,1.75-5.92,3.41-.87,1-1.28,2.45-1.6,3.62-4.02,14.31-6.76,29.07-8.16,43.87l-.07.7-.71-.02c-.53-.02-1.04-.13-1.53-.24-.86-.19-1.6-.36-2.17.05-.57.4-.74,1.24-.38,1.96.83,1.68,3.07,1.59,3.74,1.51.79-.08,1.61-.3,2.4-.5.61-.16,1.23-.32,1.86-.44,2.31-.42,4.64-.18,6.9.05l.28.03c4.75.49,9.58.83,14.35,1.04,8.21.35,16.54.29,24.59.23l24.03-.18c1.4-.01,2.99-.02,4.21-.75.62-.37,1.11-1.03,1.27-1.72.07-.3.1-.72-.1-1.12-1.38-.87-3.17-1.04-4.69-.44l-.85.33-7.48-41.8c-.57-3.17-1.2-5.95-3.13-7.78-1.2-1.13-2.92-1.61-4.6-1.96-3.06-.64-9.36-1.41-13.55-.27-.74.2-1.51-.16-1.85-.84l-.08-.16c-.13-.27-.29-.58-.39-.92l-.14-.48,1.44-.42.14.48c.06.22.18.44.29.68l.08.16c.03.06.08.05.1.05,5.49-1.49,13.37.07,14.25.25,1.9.39,3.85.95,5.32,2.33,2.46,2.31,3.11,5.95,3.58,8.61l7.17,40.07c1.83-.44,3.79-.1,5.35.95l.15.14c.51.77.64,1.6.43,2.48-.25,1.07-1,2.09-1.95,2.67-1.56.94-3.45.96-4.97.97l-24.03.18c-3.16.02-6.29.05-9.43.05Z" style="fill: #fff;"/>
  <path d="M49.52,133.7c-3.42,0-6.91-.67-10.35-1.99-3.12-1.19-5.23-2.59-6.65-4.41-.88-1.12-1.47-2.38-2.05-3.61-.95-2.02-2.03-4.31-2.02-6.8,0-.42-.02-.82-.04-1.23-.04-.72-.08-1.47.01-2.25l.18-1.7c.3-2.84.43-4.01,1.05-6.1,1.02-3.45,3.18-5.38,5.48-7.42l.67-.6c3.14-2.83,7.45-4.18,12.8-4.03,5.29.17,8.83,2.15,13.33,4.64l.62.34c.58.32,1.41,1.27,2.42,2.48.31.36.55.65.71.82,1.49,1.56,1.81,3.29,1.94,4.92.08.99.17,1.98.27,2.96.32,3.21.65,6.46.16,9.74-.44,2.94-2.05,6.3-4.21,8.75-.66.75-1.47,1.44-2.49,2.12-3.28,2.2-7.37,3.36-11.82,3.36ZM47.7,95.05c-4.54,0-8.21,1.23-10.9,3.66l-.68.6c-2.13,1.89-4.14,3.68-5.04,6.72-.58,1.96-.7,3.09-.99,5.83l-.19,1.72c-.07.66-.04,1.31,0,2.01.02.44.04.87.04,1.32-.01,2.15.99,4.27,1.87,6.15.54,1.15,1.1,2.34,1.87,3.33,1.25,1.59,3.15,2.84,6.01,3.93,7.57,2.9,15.35,2.44,20.81-1.21.91-.61,1.63-1.22,2.19-1.87,1.98-2.25,3.46-5.3,3.85-7.98.46-3.1.16-6.12-.17-9.31-.1-1.02-.21-2.04-.28-3.06-.14-1.85-.58-3-1.53-3.99-.17-.18-.45-.5-.76-.88-.53-.63-1.62-1.93-2.01-2.14l-.62-.35c-4.31-2.4-7.72-4.3-12.64-4.46-.28,0-.57-.01-.84-.01Z" style="fill: #fff;"/>
  <path d="M49.48,131.42c-.56,0-1.13-.03-1.69-.09-3.42-.37-6.95-.94-9.3-3.43-.69-.73-1.07-.92-1.99-1.38l-.18-.09c-.64-.32-.95-.82-1.17-1.18-.18-.28-.3-.49-.56-.64-1.3-.77-2.31-2.57-2.53-3.87-.07-.39-.23-.76-.41-1.16-.29-.65-.62-1.39-.51-2.3.09-.74.08-1.54.07-2.31-.02-1.58-.04-3.2.73-4.7.26-.5.5-1.21.74-1.9.22-.64.44-1.29.68-1.8.25-.54.55-1.09.85-1.62.35-.63.69-1.26.96-1.88,1.25-2.87,5.59-5.21,7.7-6.04,1.11-.44,2.41-.59,4.06-.49,4.07.25,8.19,1.79,11.89,4.45,1.75,1.25,2.94,2.45,3.75,3.76.18.29.38.59.58.9.77,1.17,1.63,2.49,1.93,3.82.53,2.37.77,4.39.77,6.55,0,1.06-.5,2.15-.94,3.1-.15.33-.3.65-.41.94-.45,1.15-1.02,2.23-1.58,3.28-.3.57-.6,1.13-.88,1.71-.79,1.63-1.53,2.22-2.75,3.19l-.49.39c-.5.41-1.13.92-1.74,1.15-2.1.8-4.65,1.61-7.6,1.61ZM36.55,103.68h0c-.29.67-.66,1.34-1.01,1.98-.29.52-.58,1.05-.82,1.56-.21.44-.4,1.02-.61,1.63-.26.76-.52,1.53-.83,2.12-.6,1.17-.58,2.54-.57,3.99,0,.82.02,1.67-.08,2.51-.06.49.15.96.39,1.5.2.44.42.94.52,1.53.16.93.94,2.32,1.81,2.83.57.34.85.78,1.07,1.13.2.33.32.5.58.63l.17.09c.99.5,1.53.77,2.4,1.69,2,2.11,5.23,2.62,8.37,2.97,3.29.36,6.19-.52,8.59-1.43.39-.15.93-.59,1.32-.91l.5-.4c1.17-.93,1.7-1.35,2.34-2.68.29-.59.6-1.17.91-1.75.54-1.01,1.09-2.05,1.51-3.12.13-.33.29-.67.45-1.03.4-.86.8-1.74.8-2.47,0-2.05-.23-3.97-.73-6.23-.24-1.07-1.03-2.27-1.72-3.32-.23-.35-.42-.65-.6-.93-.71-1.14-1.77-2.2-3.35-3.33-3.48-2.49-7.32-3.94-11.11-4.17-1.43-.09-2.52.03-3.42.39-2.14.84-5.9,3.01-6.88,5.24Z" style="fill: #fff;"/>
  <path d="M49.15,117.24c-.49,0-.99-.08-1.48-.25l-.35-.11c-.49-.15-.71-.23-1.28-.7-.93-.77-1.06-.94-1.1-.99-.37-.48-.52-1.13-.43-1.83.26-1.92,1.51-3.17,3.19-3.17,1.14.01,3.16.68,3.91,1.76.53.75.52,1.64.46,2.49-.05.69-.13,1.4-.64,1.96-.24.26-.57.47-.97.62-.41.15-.85.22-1.31.22ZM47.69,111.19v.5c-1.31,0-1.62,1.3-1.7,1.86-.02.14-.04.49.13.72.04.05.42.37.86.74.37.3.41.32.78.43l.38.12c.63.22,1.27.23,1.79.04.22-.08.32-.17.38-.22.19-.2.23-.6.26-1.05.04-.61.06-1.18-.19-1.52-.36-.51-1.81-1.11-2.67-1.12l-.02-.5Z" style="fill: #fff;"/>
  <path d="M49.76,112.48l-.16-.47c-.35-1.02-.8-2.73-1.13-4.2-.2,1.04-.41,2.7-.34,3.38l.05.5-1.49.15-.05-.5c-.11-1.06.24-3.29.43-4.2.04-.19.09-.37.15-.56.04-.15.08-.27.1-.39.08-.34.13-.68.16-.98.05-.43.09-.87.11-1.3l.23-3.97,1.23,3.78c.21.65.43,1.32.54,2.04.22,1.47.92,4.31,1.42,5.74l.16.47-1.42.49Z" style="fill: #fff;"/>
  <rect x="47.36" y="99.08" width="2.24" height="1.5" transform="translate(-53.6 143.38) rotate(-87.2)" style="fill: #fff;"/>
  <rect x="57.05" y="103.91" width="2.26" height="1.5" transform="translate(-59.66 83.41) rotate(-50.71)" style="fill: #fff;"/>
  <path d="M38.34,105.53l-.21-.46c-.12-.26-.26-.5-.43-.73l-.3-.4,1.21-.89.3.4c.23.31.43.65.59,1l.21.46-1.37.62Z" style="fill: #fff;"/>
  <path d="M33.86,115.09l-1.03-1.1.37-.34c.63-.59,1.65-.62,2.31-.06l.38.32-.96,1.15-.38-.32c-.08-.07-.25-.06-.32,0l-.36.34Z" style="fill: #fff;"/>
  <path d="M38.59,125.03l-.98-1.13.38-.33c.27-.24.51-.51.71-.82l.27-.42,1.26.81-.27.42c-.27.42-.6.81-.98,1.14l-.38.33Z" style="fill: #fff;"/>
  <path d="M49.34,129.16l-1.5-.02v-.5c.01-.45,0-.91-.05-1.35l-.05-.5,1.49-.15.05.5c.05.5.07,1.01.06,1.52v.5Z" style="fill: #fff;"/>
  <path d="M59.05,125.13l-.45-.22c-.62-.31-1.12-.89-1.32-1.55l-.15-.48,1.43-.44.15.48c.08.27.3.52.56.65l.45.22-.67,1.34Z" style="fill: #fff;"/>
  <path d="M63.38,115.01l-.49-.11c-.33-.07-.66-.09-.99-.04l-.49.07-.2-1.48.5-.07c.5-.07,1.01-.05,1.51.06l.49.11-.32,1.46Z" style="fill: #fff;"/>
  <path d="M59.35,60.83l-8.92-.35c-.81-.03-1.64-.06-2.47-.07-.9,0-1.83.03-2.72.07l-.88.03c-1.24.04-2.28.06-3.34,0-.62-.03-1.18-.09-1.71-.16-.09-.01-.17-.02-.25-.03-.43-.04-1.43-.15-1.48-1.35-.08-1.63,1.35-1.78,1.96-1.85.76-.08,1.52-.15,2.28-.23l1.08-.1c.82-.08,1.64-.16,2.48-.17.61,0,1.25.03,1.85.07.33.02.66.04.99.05.92.03,1.9.02,2.76,0l1.09-.02c2.09-.02,4.17.06,6.19.24l.6.05.5,3.81ZM47.95,58.91h0c.85,0,1.69.03,2.5.07l7.17.28-.11-.85c-1.83-.14-3.65-.2-5.44-.18l-1.08.02c-.88.02-1.87.04-2.84,0-.34-.01-.68-.03-1.02-.05-.61-.04-1.19-.07-1.75-.06-.78,0-1.58.08-2.34.16l-1.08.1c-.75.07-1.51.14-2.26.22-.44.05-.58.1-.62.12,0,0,0,.03,0,.08.06,0,.11.01.14.02.1,0,.2.02.3.04.49.07,1.01.12,1.58.15,1.02.06,2.02.04,3.2,0l.88-.03c.91-.03,1.85-.07,2.77-.07Z" style="fill: #fff;"/>
  <path d="M43.76,39.59c-3.34,0-6.65-.28-9.83-.82-2.11-.36-4.74-.81-6.62-2.46-1.24-1.09-2.11-2.66-2.44-4.44-.49-2.64.26-5.43,2-7.47.53-.62,1.41-1.44,2.59-1.84.26-.09.48-.14.67-.18.1-.02.22-.05.27-.07-.01,0,0-.09.03-.3.23-2.17,1.31-3.91,3.11-5.04,1.9-1.19,4.11-1.5,5.89-1.6.83-2.03,2.86-3.2,4.87-4.23,1.36-.69,2.7-1.28,4.15-.98.18.04.4.05.64.07.55.04,1.18.09,1.68.39.19.11.4.23.62.36.95.53,2.02,1.14,2.62,1.9.16.2.31.39.46.57.54.65,1.03,1.25,1.31,2.09.06.18.2.31.37.33,2.62.36,5.89.8,6.89,4.75.04.17.1.33.16.48.11.31.24.66.27,1.04,0,.07.03.11.04.11.48.23.98.44,1.47.65,1.49.64,2.87,1.24,3.57,2.08l.26.31c.58.68,1.2,1.42,1.67,2.53.55,1.28.14,3.38.06,3.76-.04,1.39-1.03,2.74-1.5,3.39l-.17.24c-.51.76-2.46,1.92-3.18,2.29-3.33,1.77-5.27,1.67-7.95,1.53-1.74-.09-3.89-.2-7.08.15-2.31.25-4.63.38-6.9.38h0ZM47.68,11.59c-.85,0-1.8.44-2.69.9-1.89.96-3.78,2.05-4.29,3.82l-.15.52-.54.02c-1.72.07-3.91.29-5.67,1.39-1.4.88-2.23,2.24-2.42,3.93-.14,1.27-.75,1.51-1.47,1.67-.16.03-.32.07-.52.14-.85.28-1.52.91-1.93,1.39-1.43,1.67-2.07,4.06-1.67,6.22.27,1.44.96,2.72,1.95,3.58,1.57,1.37,3.86,1.76,5.89,2.11,5.22.89,10.72,1.04,16.32.43,3.31-.36,5.53-.25,7.31-.15,2.72.14,4.22.22,7.18-1.36,1.23-.65,2.45-1.52,2.63-1.8.05-.07.12-.17.21-.29.39-.54,1.22-1.67,1.22-2.6l.02-.16c.09-.31.38-2.12.04-2.92-.39-.9-.89-1.49-1.41-2.12l-.3-.36c-.46-.56-1.74-1.11-2.98-1.64-.51-.22-1.04-.45-1.54-.69-.51-.24-.84-.74-.89-1.34-.02-.18-.1-.41-.19-.64-.08-.21-.15-.42-.21-.64-.75-2.97-3.13-3.29-5.64-3.63-.73-.1-1.34-.61-1.59-1.34-.19-.57-.56-1.02-1.03-1.59-.16-.2-.33-.4-.5-.62-.41-.53-1.42-1.1-2.16-1.51-.25-.14-.47-.26-.66-.38-.2-.12-.64-.15-1.03-.18-.3-.02-.58-.05-.83-.1-.15-.03-.31-.05-.47-.05Z" style="fill: #fff;"/>
  <path d="M35.75,37.83c-1.11,0-2.08-.08-2.96-.24-2.76-.52-5-2.05-5.99-4.1-.94-1.95-.78-4.4.42-6.4.9-1.49,2.33-2.7,4.15-3.49.2-.09.41-.18.45-.22-.02,0-.03-.23-.05-.44-.08-1.14.14-2.12.68-3.01.65-1.07,1.7-1.97,3.12-2.67,1.83-.9,3.61-1.03,4.97-.38.3-.41.53-.89.78-1.4.32-.65.64-1.32,1.13-1.91,1.03-1.24,2.71-1.96,4.51-1.94,1.48.03,3.04.55,4.52,1.51,1.02.66,2.72,2.04,3.25,4.1,2.73-.19,5.44,1.2,6.85,3.55.61,1.01.85,2.08.68,3,1.05.32,2.12.73,3.03,1.44.9.71,1.63,1.7,2.29,3.12.69,1.48.94,2.71.8,3.85-.24,1.84-1.62,3.54-3.61,4.45-1.75.8-3.7.94-5.39,1.01-3.17.13-6.34.04-9.42-.04-3.35-.09-6.81-.19-10.21,0l-1.05.06c-.97.06-1.98.13-2.98.13ZM33.76,20.72c-.37.61-.52,1.31-.47,2.12.09,1.25-.14,1.63-1.31,2.14-1.53.67-2.73,1.66-3.46,2.89-.94,1.57-1.08,3.47-.36,4.97.78,1.62,2.61,2.84,4.91,3.27,1.81.34,3.72.21,5.57.1l1.06-.06c3.45-.19,6.95-.1,10.33,0,3.12.08,6.26.17,9.32.04,1.54-.06,3.32-.19,4.82-.88,1.52-.7,2.57-1.96,2.75-3.28.11-.85-.1-1.81-.67-3.02-.56-1.2-1.15-2.02-1.86-2.58-.91-.72-2.16-1.08-3.26-1.4l-.89-.26.43-.82c.31-.59.18-1.5-.35-2.37-1.21-2-3.75-3.16-6.05-2.75l-.79.14-.08-.8c-.14-1.35-1.12-2.71-2.71-3.74-1.24-.81-2.53-1.25-3.73-1.27-1.35-.03-2.59.5-3.34,1.4-.37.45-.66,1.03-.93,1.6-.38.79-.78,1.6-1.46,2.25l-.46.44-.51-.38c-1.37-1.01-3.43-.14-4.02.16-1.16.57-2,1.28-2.5,2.1Z" style="fill: #fff;"/>
  <path d="M39.34,33.01c-.68,0-1.26-.09-1.77-.27-.98-.34-1.77-1.04-2.4-1.61-.32-.29-.73-.64-.99-1.14-.34-.66-.35-1.39-.35-1.93,0-.9,0-1.92.28-2.92.35-1.21,1.09-2.22,1.74-3.12.24-.33.57-.78,1.08-1.04.63-.32,1.33-.24,1.79-.19,1.19.13,2.36.29,3.47.71.68.26,2.34,1,2.99,2.4l.34.74-.77.28c-.24.09-.48.21-.73.35-.44.23-.88.46-1.38.57-.85.18-1.39-.19-1.78-.47-.12-.08-.22-.16-.35-.23-.34-.19-.71-.21-1.07-.06-.43.18-.76.57-.9,1.05-.26.9.1,1.91.45,2.59.22.43.48.72.66.72.15,0,.37-.16.62-.35.2-.15.41-.3.64-.42,1.23-.64,2.58-.18,3.85.4l.44.2v.49c-.02,1.02-.71,2.01-1.77,2.54-.86.43-1.8.52-2.62.61-.45.05-.97.1-1.49.1ZM38.04,22.26c-.19,0-.33.02-.43.08-.19.1-.38.35-.54.58-.61.84-1.24,1.7-1.52,2.65-.23.78-.22,1.69-.22,2.49,0,.43,0,.92.18,1.25.13.25.38.47.65.71.6.53,1.21,1.07,1.91,1.32.79.28,1.76.18,2.61.1.73-.07,1.49-.15,2.1-.46.37-.19.66-.47.82-.77-.72-.29-1.44-.47-1.98-.19-.15.08-.28.18-.43.29-.4.29-.91.62-1.54.64-.55,0-1.34-.28-1.98-1.54-.67-1.33-.86-2.6-.55-3.68.26-.92.92-1.67,1.77-2.02.78-.33,1.62-.27,2.37.14.18.1.33.21.48.31.34.24.41.28.61.23.3-.06.65-.25.99-.43.02,0,.03-.02.05-.03-.55-.54-1.34-.88-1.7-1.01-.96-.36-2.02-.5-3.11-.62-.18-.02-.36-.04-.52-.04Z" style="fill: #fff;"/>
  <path d="M49.99,33.13c-.28,0-.56-.01-.87-.04-1.07-.11-1.88-.35-2.55-.77-1.92-1.2-2.39-3.61-2.59-5.32-.05-.45-.09-.9.01-1.36.13-.61.46-1.12.74-1.49,1.72-2.3,3.69-3.12,6.56-2.72.67.09,1.66.28,2.46.88,1.6,1.19,1.81,3.27,1.88,5.13.02.63.05,1.4-.25,2.13-.25.59-.68,1.05-1.03,1.42-.55.58-1.16,1.23-1.98,1.65-.67.34-1.45.51-2.38.51ZM49.96,22.83c-1.68,0-2.84.64-4.02,2.21-.18.25-.4.57-.47.9-.05.25-.03.56.01.89.16,1.4.52,3.36,1.89,4.22.47.29,1.07.47,1.91.55,1.02.1,1.82,0,2.43-.31.58-.29,1.08-.82,1.56-1.34.29-.31.59-.63.74-.97.18-.42.16-.99.14-1.49-.06-1.51-.21-3.18-1.27-3.98-.41-.3-.95-.49-1.77-.6-.41-.06-.79-.08-1.13-.08Z" style="fill: #fff;"/>
  <path d="M50.1,31.36c-.28,0-.54-.06-.74-.11-.42-.1-.94-.23-1.4-.53-.75-.49-1.25-1.37-1.37-2.42-.1-.86.06-1.68.2-2.41.07-.38.16-.84.41-1.26.47-.81,1.83-1.32,2.38-1.43,1.27-.26,2.41.65,2.88,1.68.43.96.41,1.97.39,2.87,0,.45-.02,1-.24,1.53-.17.42-.45.76-.72,1.06-.27.32-.78.91-1.55,1.01-.08.01-.16.02-.24.02ZM48.49,25.39h0c-.12.2-.17.49-.23.78-.12.62-.26,1.33-.19,1.97.06.58.33,1.09.69,1.32.25.16.58.24.93.33.17.04.34.08.44.07.21-.03.48-.34.62-.5.2-.23.38-.44.46-.66.11-.27.12-.62.13-.98.02-.74.03-1.58-.26-2.22-.22-.48-.74-.93-1.21-.83-.49.1-1.26.5-1.39.72Z" style="fill: #fff;"/>
  <path d="M57.27,34.26c-.88,0-1.67-.14-2.41-.42l-.55-.21.08-.59c.11-.82.32-1.73,1.13-2.32.32-.23.67-.56,1.02-.88.11-.1.22-.21.33-.3-.98.09-1.79-.24-2.11-.89-.16-.33-.41-1.19.78-2.21.4-.34.94-.77,1.63-1.01,1.69-.59,3.79.33,4.48,1.99.13.32.21.63.22.93.04,1.07-.67,1.91-1.22,2.45-.13.13-.26.25-.39.36.18.02.38.08.55.26.26.28.28.73.28.86v1.46l-.61.12c-1.04.2-2.11.41-3.2.41ZM55.98,32.62c.93.22,1.91.15,2.96-.02-.02,0-.04,0-.07,0-.77-.04-1.34-.07-1.53-.58h-.25s.21-.14.21-.14l-.12-.52.89-.54c.6-.35.99-.59,1.49-1.09.2-.19.8-.79.77-1.32,0-.12-.04-.25-.1-.41-.4-.94-1.63-1.49-2.6-1.15,0,0-.01,0-.02,0,.4-.05.93.08,1.58.61.13.11.41.34.48.74.05.29-.04.54-.07.64-.26.72-.66.99-1.02,1.22-.12.08-.25.17-.4.29-.2.17-.41.37-.63.57-.4.37-.79.73-1.17,1.01-.19.14-.32.35-.41.68ZM58.06,28.48s0,.08,0,.13c.03-.03.05-.05.07-.09-.02-.02-.04-.03-.06-.04ZM56.13,27.99c.08.03.21.07.44.06.01-.22.06-.48.2-.7-.09.07-.18.14-.27.22-.22.19-.32.33-.36.42Z" style="fill: #fff;"/>
</svg>