<?xml version="1.0" encoding="UTF-8"?>
<svg id="Layer_12" xmlns="http://www.w3.org/2000/svg" viewBox="0 0 204.85 164.1">
  <path d="M96.5,94.41l-1.03-.31c-2.67-.81-5.53-.99-8.28-.5l-1.1.19.24-1.09c.82-3.71.97-7.65.44-11.43l-4.97-.34.45-.99c.47-1.02.23-2.33-.57-3.12-.68-.67-1.79-.94-2.72-.68l-.3,5.72-1.04-.25c-1.64-.39-1.74-.41-3.28-.4.26,1.15.28,2.38.05,3.52l-.11.52-4.11.56c.25.87.42,1.75.53,2.65l3.82.21.49,4.9-1-.2c-2.78-.56-5.68-.4-8.37.49l-.97.32-.16-15.92c0-.19,0-.71-.16-.84-.11-.09-.42-.09-.69-.1h-.3c-1.29-.06-2.54-.8-3.34-1.98-.61-.9-.88-1.94-.79-2.93-1.18-.07-2.39.05-3.53.36l-1.05.29.46-4.54-3.74-1.18.4-4.09c-1.27-.19-2.58-.08-3.81.33l-.97.32-.06-4.15c-1.51-.12-3-.41-4.44-.89l-.56-.19.05-.59c.69-8.15.97-16.43.81-24.6v-.54s.5-.18.5-.18c1.62-.59,3.43-.68,5.1-.26l.45.11.1.46c.53,2.48.66,5,.39,7.51.97.36,1.99.59,3.02.67l.72.06-.03.72c-.04,1.07,0,2.15.13,3.22l4.02-.9v4.53c2.41.33,4.86.5,7.3.53l.25-3.7.52-.14c1.21-.32,2.5-.45,3.76-.37l.86-4.05,7.79.51c-.5-1.44-.74-2.99-.69-4.51l.02-.67.67-.05c1.42-.11,2.84-.04,4.24.21.02-1.14.17-2.28.46-3.39l.12-.46,3.69-.7c2.58-8.6,3.21-17.81,1.83-26.68l-.09-.56.51-.24c.73-.34,1.54-.57,2.35-.65.04-.32.08-.74.12-1.05.16-1.57.23-2.04.4-2.32.71-1.19,1.87-1.13,2.72-1.08.18.01.35.02.54.02l27.49.34c1.28.02,2.87.04,4.17.92.73.5,1.28,1.36,1.43,2.25.07.41.05.82-.05,1.19.94.18,1.89.29,2.84.33l.61.03.09.61c.93,6.1.95,12.29.07,18.4l-.08.58-.58.06c-7.04.71-14.2,1.14-21.28,1.3-.04.48-.05.97-.03,1.46,0,.13.07.26.18.34.09.07.18.09.28.06.5-.13,1.11-.18,1.86-.14l6.55.33c1.26.06,2.99.15,4.25,1.21.76.64,1.2,1.76,1.09,2.78-.09.84-.52,1.49-1.2,1.85l-.3.08c-5.65.41-11.37.49-17.03.26l.25,7.09c2.68-.6,5.48-.52,8.13.23l.4.11.12.39c.9,3.01.94,6.34.1,9.37l-.2.73-.73-.21c-1.44-.42-2.93-.61-4.43-.57l-.67.02-.55-4.05c-.65-.13-1.32-.17-1.98-.1l-.84,15.19-1.15-.99c-.19-.16-.43-.21-.73-.15-.48.09-.96.43-1.19.86-.47.86-.41,1.99-.35,3.09v.11c.08,1.31.08,2.81-.79,4.01l-.39.54-.58-.33c-.89-.5-1.94-.77-2.98-.73.22,1.32.22,2.7,0,4.02l-.14.81-.79-.21c-1.36-.36-2.76-.57-4.17-.62.82,5.2.98,10.49.47,15.73l4.43-.18.35,6.47ZM90.27,91.83c1.56,0,3.11.19,4.62.56l-.16-2.88-4.69.19.1-.87c.63-5.68.46-11.42-.51-17.06l-.15-.86h.88c1.54-.04,3.1.12,4.63.46.1-1.15.02-2.33-.26-3.44l-.19-.78.79-.14c1.34-.24,2.8-.06,4.07.48.28-.75.27-1.67.22-2.5v-.1c-.07-1.31-.15-2.66.52-3.89.44-.81,1.32-1.45,2.23-1.62.27-.05.54-.06.8-.03l.76-13.82.57-.11c1.23-.24,2.51-.19,3.72.16l.47.13.51,3.73c1.18.02,2.34.17,3.46.43.54-2.42.49-5.03-.16-7.42-2.57-.65-5.28-.61-7.84.11l-.92.26-.38-10.6.81.04c5.8.28,11.68.21,17.47-.2.21-.17.28-.42.3-.62.06-.54-.17-1.14-.57-1.48-.81-.68-2-.79-3.35-.86l-6.55-.33c-.59-.03-1.05,0-1.4.09-.54.14-1.1.03-1.56-.31-.47-.35-.76-.9-.79-1.49-.03-.78,0-1.58.11-2.35l.08-.64h.64c7.06-.15,14.2-.56,21.24-1.25.75-5.57.73-11.21-.06-16.78-1.09-.08-2.17-.25-3.23-.49-.29-.07-.53-.28-.63-.56-.1-.29-.06-.6.12-.85.15-.21.21-.51.15-.84-.08-.49-.4-.99-.8-1.26-.92-.63-2.27-.65-3.34-.66l-27.49-.34c-.2,0-.39-.01-.58-.02-.95-.06-1.15,0-1.37.35-.03.13-.15,1.22-.2,1.69-.2,1.88-.25,2.38-1.01,2.38-.6.02-1.22.13-1.81.34,1.32,9.06.6,18.45-2.09,27.2l-.13.43-3.64.69c-.25,1.13-.34,2.29-.29,3.45l.05,1-.97-.23c-1.31-.32-2.66-.45-4.02-.41.04,1.48.39,2.95,1.01,4.28l.53,1.15-8.95-.58-.87,4.11-.68-.08c-1.11-.13-2.26-.08-3.36.15l-.28,4.01h-.7c-2.99,0-5.96-.22-8.87-.64l-.64-.09v-3.96s-3.76.84-3.76.84l-.13-.79c-.19-1.19-.28-2.4-.27-3.61-1.14-.15-2.25-.46-3.31-.92l-.52-.23.07-.56c.31-2.37.24-4.76-.21-7.11-1.08-.2-2.21-.14-3.27.15.13,7.84-.13,15.78-.77,23.6,1.36.4,2.76.63,4.18.68l.71.03.05,3.56c1.41-.31,2.88-.31,4.29.02l.64.15-.41,4.22,3.74,1.19-.37,3.62c1.28-.23,2.6-.26,3.88-.08l.91.13-.3.87c-.27.77-.12,1.71.42,2.5.54.79,1.35,1.28,2.17,1.32h.25c.47.01,1.11.02,1.63.44.69.57.7,1.49.71,1.98l.14,13.9c2.33-.62,4.78-.76,7.17-.42l-.16-1.62-3.83-.22-.05-.65c-.1-1.29-.37-2.57-.79-3.8l-.3-.87,4.82-.65c.11-.9.03-1.85-.22-2.72h-.16s-.01-.5-.01-.5l-.14-.38.17-.13.03-.5.7.04h.67c1.71-.02,2-.01,3.21.27l.26-4.86.4-.19c1.56-.74,3.59-.4,4.82.82.98.97,1.43,2.44,1.19,3.81l4.15.28.09.59c.6,3.78.54,7.74-.16,11.52.75-.09,1.5-.13,2.26-.13Z" style="fill: #fff;"/>
  <path d="M100.06,12.28h-.04c-1.4-.02-2.75-.26-4.04-.7l-.45-.15-.06-.47c-.08-.71-.17-1.25-.24-1.65-.06-.38-.1-.64-.11-.81,0-.17.03-.45.07-.77.04-.34.09-.76.1-1.11.04-1.06.53-1.71,1.46-1.92.5-.11.94.02,1.27.12l2.84.85.5,5.19c.02.18.05.56-.18.91-.16.24-.48.52-1.13.52ZM100.06,11.78h0s0,0,0,0h0ZM96.91,10.31c.96.28,1.95.44,2.95.47l-.38-3.97-1.88-.56c-.21-.06-.4-.11-.5-.09-.2.05-.28.06-.3.52-.01.39-.07.86-.11,1.23-.03.29-.06.46-.06.56,0,.1.04.3.08.57.06.34.12.76.19,1.27Z" style="fill: #fff;"/>
  <path d="M52.69,79.36l-37.8-.63c-2.13-.04-4.31.03-6.43.1-2.18.07-4.62.15-6.94.1h-.57s-.14-.56-.14-.56c-.28-1.1-.17-1.99.35-2.63.97-1.2,2.96-1.12,4.71-1.05.42.02.82.03,1.19.03,3.63-.04,7.23.07,9.97.18,1.35.05,2.7.11,4.05.17,5.13.22,10.42.45,15.61.31,1.99-.05,3.6-.15,5.05-.32.71-.08,1.43-.18,2.15-.28,2.64-.36,5.35-.73,8.03-.2l.58.11.18,4.67ZM13.68,77.22c.41,0,.83,0,1.24,0l36.21.61-.07-1.88c-2.27-.33-4.65,0-6.96.31-.78.11-1.48.2-2.18.28-1.5.17-3.15.27-5.18.33-5.27.14-10.58-.09-15.72-.31-1.35-.06-2.7-.12-4.04-.17-2.91-.11-6.36-.22-9.89-.18-.38,0-.82-.01-1.27-.03-1.34-.05-2.99-.11-3.48.49-.14.17-.19.42-.16.76,2.1.03,4.28-.04,6.22-.1,1.73-.06,3.52-.11,5.29-.11Z" style="fill: #fff;"/>
  <path d="M28.15,97.05c-.93,0-1.9-.13-2.79-.37l-.52-.14-.03-.54c-.06-1.01.19-1.82.74-2.43,1.09-1.18,3.05-1.21,4.79-1.25.71-.01,1.37-.02,1.89-.11l.66-.12c.68-.12,1.39-.24,2.1-.23.82,0,2.01.17,2.94.97l.31.26-.45,3.41-.75-.11c-1.92-.28-3.86-.22-5.76.17l-.54.12c-.49.11-.99.22-1.51.28-.35.04-.7.06-1.07.06ZM26.31,95.37c.92.18,1.88.23,2.74.14.44-.05.9-.15,1.34-.25l.57-.12c1.82-.38,3.68-.48,5.53-.29l.14-1.07c-.54-.31-1.19-.39-1.66-.39-.65,0-1.33.12-1.99.24l-.5.09c-.63.11-1.35.12-2.11.13-1.37.02-3.06.05-3.72.76-.18.19-.29.45-.33.77Z" style="fill: #fff;"/>
  <path d="M4.34,106.79c-.15,0-.3,0-.46-.01-.77-.04-3.36-.27-4.15-1.57-.3-.49-.31-1.08-.05-1.66.7-1.51,3.56-2.78,4.99-2.78,2.6,0,5.16.37,7.63,1.11.1.03.33.1.52.3.28.3.28.67.28.81,0,.35.04.62.1.93.06.34.13.72.12,1.21,0,.32-.13.6-.37.79-.43.32-.94.18-1.22.11-1.33-.17-2.67.09-3.97.33-1.12.21-2.26.43-3.42.43ZM4.71,102.27c-.94,0-3.25,1.03-3.66,1.91-.08.17-.05.23-.03.25.24.4,1.53.77,2.94.85h0c1.15.06,2.35-.17,3.51-.39,1.4-.27,2.84-.54,4.32-.38-.02-.11-.04-.22-.06-.33-.05-.28-.11-.58-.12-.95-2.25-.64-4.56-.97-6.9-.97h0Z" style="fill: #fff;"/>
  <path d="M45.62,106.82c-.92,0-1.77-.14-2.47-.41-.15-.02-.34-.16-.5-.39-.3-.43-.79-1.69-.32-2.68.16-.34.59-.92,1.59-1,1.34-.13,2.68-.04,3.99.26.17.04.53.12.79.43.28.34.28.75.28.95l-.03,2.17-.48.18c-.84.31-1.85.49-2.85.49ZM43.81,105.06c1.02.35,2.44.36,3.64.03v-1.04c-1.16-.25-2.28-.32-3.39-.21l-.16-.49.06.5c-.25.03-.28.12-.3.18-.11.3.05.8.15,1.03Z" style="fill: #fff;"/>
  <path d="M130.34,99.63c-.62,0-1.23-.02-1.85-.05l-.7-.04v-.7c-.02-.2-.06-.5-.11-.82-.17-1.17-.37-2.61.39-3.39.89-.9,2.7-.5,4.02-.2.19.04.35.08.47.1.29.06.84.16,1.22.58.27.3.37.65.43.97.19.9.22,1.82.11,2.73l-.07.6-.6.06c-1.1.11-2.21.16-3.32.16ZM129.21,98.11c1.23.04,2.46.01,3.67-.08.02-.55-.03-1.11-.14-1.65-.04-.18-.06-.25-.08-.27-.03-.03-.16-.07-.37-.11-.14-.03-.32-.07-.52-.11-2.03-.45-2.52-.33-2.63-.22-.25.25-.05,1.62.02,2.13.01.1.03.2.04.3Z" style="fill: #fff;"/>
  <path d="M169.18,106.44l-5.89-.67c-.54-.06-1.16-.13-1.73-.1-.32.02-.65.08-.97.13l-.73.12c-1.06.18-2.33.4-3.03-.36-.25-.27-.5-.77-.29-1.6.41-1.57,1.78-1.52,2.6-1.49.17,0,.35.01.52,0,.82-.02,1.69-.11,2.53-.2,2.06-.22,4.18-.45,6.23.27.13.05.43.15.63.44.2.29.2.61.19.76l-.06,2.69ZM161.88,104.17c.54,0,1.07.06,1.58.12l4.25.48.02-.86c-1.72-.53-3.58-.33-5.39-.13-.88.1-1.78.19-2.66.21-.19,0-.37,0-.56,0-1.04-.04-1.06.04-1.14.36-.05.19-.03.25-.03.25.19.1,1.25-.08,1.6-.15l.78-.13c.37-.06.74-.12,1.13-.15.14,0,.28-.01.42-.01Z" style="fill: #fff;"/>
  <path d="M179.34,94.53c-.11,0-.21,0-.32-.01-1.9-.13-3.99-.85-4.15-2.52-.19-1.99,1.36-2.28,2.29-2.46,3.33-.63,7.11-.61,10.38.06l.68.14-.5,3.83h-.65c-1.82.03-3.65.24-5.43.62l-.27.06c-.65.14-1.32.29-2.03.29ZM182.2,90.58c-1.65,0-3.25.14-4.76.43-1.09.21-1.12.28-1.07.85.06.61,1.47,1.08,2.75,1.17.62.04,1.29-.11,1.93-.25l.27-.06c1.67-.35,3.37-.56,5.07-.62l.15-1.15c-1.38-.24-2.84-.36-4.35-.36Z" style="fill: #fff;"/>
  <path d="M165.32,80.38c-14.89,0-26.96-.3-38-.95l-.99-.06c-3.49-.21-7.1-.43-10.64-.19-.35.02-.71.06-1.08.09-1.74.17-3.67.35-5.34-.33l-.47-.19v-.5c0-1.02.3-1.83.91-2.39,1.2-1.12,3.19-.98,4.95-.87.49.03.95.06,1.35.06l87.01.02c1.93,0,2.28,0,2.28.75l.05,3.49-.66.09c-4.85.68-9.78.73-14.55.79-8.09.09-16.46.18-24.83.18ZM119,77.57c2.48,0,4.98.15,7.39.29l1.02.06c20.88,1.23,42.15.99,62.72.77,4.51-.05,9.17-.1,13.71-.68l-.02-1.44c-5.09,0-34.99,0-37.96,0h-49.84c-.45-.01-.94-.04-1.46-.08-1.38-.09-3.1-.21-3.82.46-.2.19-.33.44-.39.77,1.23.33,2.74.18,4.07.06.4-.04.79-.07,1.16-.1,1.07-.07,2.19-.11,3.42-.11Z" style="fill: #fff;"/>
  <path d="M9.79,164.38l-.06-.75c-.19-2.14-.09-4.29.27-6.4l.02-.14c.08-.46.17-.94.1-1.34-.07-.41-.3-.85-.51-1.23-.93-1.7-1.91-3.39-2.91-5.03-.09-.15-.21-.32-.33-.49-.6-.88-1.28-1.86-.95-2.8.12-.34.43-.78,1.2-1.01,2.42-.69,3.88,1.59,4.4,2.61.24.47.55,1.22.89,2,.25.59.61,1.43.89,2.02,1.21-1.49,2.55-3.58,3.16-5.36.08-.23.21-.63.6-.88.33-.21.69-.2.89-.2l2.64.06.14.12c.9.76.08,1.81-1.39,3.71-.59.76-1.25,1.62-1.5,2.1-.24.49-.47.83-.7,1.16-.3.45-.56.82-.82,1.54-.03.08-.09.28-.17.5-.2.62-.33,1.02-.41,1.19-.02.05,0,.24,0,.36.15,2.32-.03,4.65-.53,6.91l-.1.43-.42.13c-1.19.35-2.42.59-3.66.7l-.75.07ZM7.48,146.57c-.14,0-.29.02-.44.06-.17.05-.22.1-.22.1-.03.23.55,1.08.78,1.4.14.21.27.4.38.57,1.02,1.66,2.01,3.37,2.95,5.09.24.44.57,1.04.68,1.71.1.65,0,1.28-.11,1.84l-.02.14c-.3,1.73-.41,3.49-.31,5.24.74-.1,1.47-.25,2.18-.44.4-1.99.53-4.03.4-6.05-.02-.29-.05-.69.13-1.08.06-.12.22-.63.33-.99.09-.29.16-.51.2-.59.33-.89.67-1.4.98-1.86.2-.3.4-.6.6-1,.31-.62.99-1.5,1.66-2.36.28-.36.75-.96,1.08-1.44l-1.3-.03s-.01,0-.02,0c0,.02-.01.04-.02.06-.78,2.29-2.6,4.95-4.04,6.56-.15.21-.43.33-.72.29-.61-.04-.88-.56-2.09-3.41-.31-.73-.63-1.48-.84-1.91-.29-.57-1.09-1.91-2.21-1.91ZM17.45,146.79h0Z" style="fill: #fff;"/>
  <path d="M29.37,163.96c-1.16,0-2.39-.29-3.55-.85-1.61-.77-2.94-1.96-3.8-2.78-.28-.27-.56-.56-.72-.97-.13-.34-.15-.67-.15-.98-.04-2.1-.12-6.48,1.98-8.56.81-.8,1.87-1.2,3.14-1.18,2.24.06,4.02.78,5.29,2.15,1.37,1.47,2.04,3.6,1.92,6.15l-.13,2.93c-.06,1.21-.2,2.57-1.28,3.38-.37.28-.82.47-1.42.59-.41.08-.84.12-1.28.12ZM26.12,150.14c-.81,0-1.43.24-1.94.75-1.64,1.63-1.57,5.58-1.54,7.47,0,.18,0,.35.05.46.05.13.2.28.36.43.79.75,1.99,1.83,3.41,2.51,1.32.63,2.7.85,3.89.61.37-.07.62-.17.81-.31.56-.42.65-1.39.69-2.26l.13-2.93c.1-2.13-.43-3.88-1.52-5.05-.99-1.06-2.41-1.62-4.23-1.67h-.11Z" style="fill: #fff;"/>
  <path d="M28.08,161.3c-1.6,0-3.11-.9-4.15-2.46-1.16-1.75-1.58-4.32.1-6.14,1.24-1.35,3.36-1.32,4.81-.6,2.43,1.21,2.53,3.37,2.63,5.46l.02.39c.02.39.05.87-.11,1.35-.25.77-.93,1.4-1.86,1.74-.46.17-.94.25-1.43.25ZM26.72,153.1c-.47,0-1.12.11-1.59.62-1.12,1.22-.78,3.03.05,4.29.74,1.12,2.19,2.22,3.81,1.63.49-.18.84-.47.95-.79.07-.22.06-.52.04-.81l-.02-.4c-.09-1.96-.16-3.37-1.8-4.19-.44-.22-.95-.34-1.45-.34Z" style="fill: #fff;"/>
  <path d="M46.64,164.37l-1.64-.04c-.16,0-.49-.01-.77-.25-.52-.42-.26-.98.13-1.84.06-.12.09-.19.1-.23.06-.24.09-.46.11-.63-.61.16-.63.45-.65.94-.02.42-.05,1.28-.95,1.52l-.19.05c-.31.09-.41.1-.73.06l-.25-.03c-.86-.09-1.78-.21-2.62-.68-1.84-1.03-2.44-3.19-2.79-5.16-.06-.35-.14-.73-.22-1.11-.32-1.57-.69-3.35-.32-4.89.09-.37,1-2.82,2.43-2.9.27-.02.52.08.73.27.55.51.68,1.69.73,3.97,0,.33.01.56.02.67.04.4.07.8.1,1.21.1,1.51.21,3.05.98,4.19.12.19.47.44.66.54,1.26-1.38,2.01-3.08,2.18-4.87.08-.84.03-1.73-.02-2.58l-.17-2.97c-.07-.41.18-.82.62-.98.73-.27,2.37.16,2.83,1.08.23.46.21.92.19,1.29-.2,3.76.09,7.54.85,11.22.28,1.34-.31,1.84-.69,2.01-.25.12-.5.13-.67.13ZM45.74,162.85l.81.02s.01,0,.02,0c0-.08,0-.19-.04-.34-.78-3.81-1.08-7.72-.87-11.6.01-.19.02-.44-.03-.54-.03-.03-.21-.17-.54-.26-.02,0-.03,0-.05-.01l.14,2.38c.05.91.1,1.85.01,2.81-.18,1.94-.95,3.8-2.19,5.3.36-.38.96-.69,1.94-.81h.08s.11,0,.11,0c.32.06.57.22.73.47.36.56.22,1.49.04,2.17-.01.05-.08.21-.17.4ZM38.1,150.97c-.3.4-.68,1.11-.76,1.47-.29,1.22.04,2.82.33,4.24.08.4.16.79.23,1.16.28,1.62.75,3.38,2.04,4.11.59.33,1.33.43,2.03.5l.3.03.16-.03s0-.1,0-.18c.02-.37.04-.96.42-1.47-.11.13-.23.26-.35.38-.19.21-.34.32-.62.35-.95.17-1.99-.78-2.27-1.2-.99-1.47-1.11-3.21-1.22-4.89-.03-.42-.06-.81-.1-1.19-.01-.14-.02-.43-.03-.79-.03-1.35-.1-2.09-.16-2.49ZM42.59,162.4s0,0,0,0h0ZM37.99,150.52h0Z" style="fill: #fff;"/>
  <path d="M61.41,163.94c-.95,0-1.92-.29-2.73-.81-1.19-.77-2.14-2.06-2.67-3.64-.15-.46-.32-1.06-.23-1.71.22-1.65,1.81-2.48,2.49-2.76.11-.05.23-.09.35-.13-.73-.22-1.33-.87-1.59-1.74-.33-1.1-.1-2.66,1.52-3.74.93-.62,2.04-.77,2.8-.82.78-.06,1.45-.04,2.05.06,2.05.34,3.89,1.71,4.8,3.58.72,1.49.91,3.29.6,5.65-.08.62-.19,1.23-.29,1.84-.19,1.11-.39,2.25-.42,3.36l-.02.73h-3.01s-.17-.52-.17-.52c-.06-.2-.11-.41-.14-.61-.21.1-.42.24-.65.38-.25.16-.5.32-.77.45-.57.29-1.23.44-1.92.44ZM62.26,155.83c-1.39,0-2.47.18-3.41.57-.9.37-1.5.97-1.58,1.57-.05.35.07.74.17,1.04.42,1.25,1.15,2.27,2.06,2.86,1,.64,2.24.76,3.16.3.21-.1.41-.23.62-.37.65-.41,1.36-.87,2.26-.76l.7.08-.05.71c-.01.16,0,.32,0,.48h.41c.07-.97.24-1.92.4-2.85.11-.61.21-1.19.28-1.78.27-2.06.12-3.59-.47-4.8-.7-1.44-2.11-2.5-3.69-2.76-.49-.08-1.05-.1-1.69-.05-.59.04-1.44.15-2.08.58-.94.63-1.09,1.48-.91,2.06.15.49.47.75.71.75.31,0,.79-.43,1.17-1.64.06-.19.16-.5.43-.75.32-.29.7-.34.96-.35,1.12-.06,2.26.47,3.05,1.41.79.94,1.11,2.16.86,3.25l-.15.63-.65-.05c-.86-.07-1.73-.14-2.6-.14ZM61.78,152.23s-.01.03-.02.05c-.35,1.1-.8,1.76-1.25,2.15,1.3-.17,2.6-.1,3.7-.02-.05-.45-.25-.91-.58-1.31-.49-.59-1.17-.91-1.82-.88-.01,0-.02,0-.03,0Z" style="fill: #fff;"/>
  <path d="M61.99,162.03h-.1c-.37-.03-.67-.19-.86-.31-.91-.58-1.53-1.58-1.67-2.69-.09-.27-.34-1.1.32-1.79.45-.47,1.06-.66,1.6-.78,1.26-.28,2.56-.35,3.84-.22l.62.06.23,2.74c.02.23.05.61-.15.98-.18.33-.48.52-.63.61-.76.47-1.57.88-2.4,1.21-.22.09-.48.18-.78.18ZM61.99,161.52h0s0,0,0,0h0ZM61.08,159.59c.18.36.44.65.75.85.11.07.15.08.16.08,0,0,.06-.01.22-.07.75-.3,1.48-.66,2.17-1.09.06-.04.1-.06.12-.08-.03.01-.04-.08-.04-.12l-.12-1.48c-.92-.04-1.84.04-2.74.24-.26.06-.54.13-.73.26-.04.2-.04.41-.02.63l.04.08c.07.22.15.45.2.69Z" style="fill: #fff;"/>
  <path d="M68.97,164.63l.11-.88c.42-3.34.68-6.73.79-10.08,0-.19,0-.44-.03-.71-.08-1.3-.19-3.04.97-3.73.77-.46,2.04-.14,2.78.42,0,0,0,0,.01,0,.29-.32.64-.59,1.03-.8.89-.47,1.9-.56,2.77-.25l.39.13.09.4c.19.83.25,1.68.16,2.53-.05.47-.24.8-.56.98-.3.17-.59.14-.74.13-.89-.07-1.8.56-2.03,1.42-.09.35-.09.75-.08,1.19.05,2.51.3,5.04.75,7.51l.12.66-.64.19c-1.62.49-3.3.77-4.99.85l-.89.04ZM71.71,150.5c-.1,0-.14.01-.14.01-.36.22-.27,1.68-.23,2.31.02.35.04.65.03.89-.1,3.1-.33,6.23-.69,9.32,1.05-.1,2.09-.28,3.1-.55-.39-2.33-.61-4.71-.65-7.07,0-.54,0-1.07.13-1.6.39-1.47,1.81-2.54,3.31-2.54.03-.47.01-.91-.06-1.34-.39-.04-.8.05-1.19.25-.52.27-.89.71-1.03,1.21l-.13.48-1.45-.39.13-.48h0s-.04-.07-.17-.16c-.3-.23-.72-.33-.98-.33Z" style="fill: #fff;"/>
  <path d="M84.88,156.07c-1.39,0-2.31-.25-2.9-.79-.42-.38-.64-.9-.64-1.49,0-1.06.54-1.94,1.51-2.4,1.22-.58,2.84-.41,3.84.42.9.73,1.49,1.89,1.67,3.25l.11.83-.84.02c-.22,0-.5.03-.82.06-.6.05-1.26.11-1.94.11ZM84.41,152.55c-.34,0-.65.07-.92.19-.44.21-.66.55-.65,1.04,0,.23.08.33.15.4.62.56,2.61.39,3.69.3,0,0,.01,0,.02,0-.2-.63-.53-1.15-.96-1.5-.32-.26-.82-.42-1.33-.42Z" style="fill: #fff;"/>
  <path d="M87.09,164.26h-.24c-1.85-.06-3.58-.6-5.26-1.12-.43-.13-.97-.3-1.43-.64-.89-.65-1.23-1.65-1.53-2.71-.98-3.47-.14-6.29,2.64-8.88,1.37-1.27,3.05-1.9,4.59-1.73,1.47.16,2.67.97,3.74,1.69.37.25.88.59,1.18,1.15.24.46.28.95.31,1.35l.33,4.48h-.81c-1.25,0-2.52.2-3.75.39-1.7.26-3.45.53-5.19.33.44.85,1.45,1.44,2.35,1.6.45.08,1.11.13,1.68-.14.46-.21.78-.63.82-1.04l.05-.52.5-.14c.75-.21,1.53-.32,2.31-.34.21,0,.86-.03,1.27.48.24.31.28.65.29.85.12,1.3.17,2.77-.79,3.83-.67.74-1.7,1.12-3.06,1.12ZM82.29,152.01c-2.32,2.16-3.03,4.5-2.22,7.37.22.8.47,1.54.97,1.91.26.19.63.31.99.42,1.59.49,3.22,1,4.87,1.05,1,.04,1.74-.18,2.14-.62.55-.6.5-1.64.41-2.66-.01,0-.03,0-.04,0-.51.01-1.02.07-1.51.18-.24.73-.82,1.37-1.56,1.72-.73.34-1.63.43-2.58.26-1.89-.34-3.83-1.94-3.81-4.02v-.96s.93.23.93.23c1.84.46,3.75.17,5.77-.14,1.03-.16,2.1-.32,3.17-.38l-.21-2.88c-.02-.28-.04-.57-.14-.76-.12-.23-.42-.43-.69-.61-.93-.62-1.97-1.32-3.07-1.44-1.12-.12-2.36.36-3.4,1.34h0Z" style="fill: #fff;"/>
  <path d="M105.99,162.08c-.79,0-1.53-.24-2.08-.45-.83-.31-1.86-.8-2.46-1.78-.4-.65-.57-1.45-.53-2.5.05-1.3.37-2.45.94-3.41.77-1.3,1.97-2.18,3.21-2.35,1.07-.15,2.1.22,2.97,1.05.75.72,1.23,1.59,1.7,2.44.16.29.35.64.44,1.04.12.56.03,1.1-.07,1.56-.16.73-.41,1.68-.94,2.52-.58.92-1.41,1.56-2.33,1.78-.27.07-.56.1-.85.1ZM105.51,153.06c-.08,0-.16,0-.25.02-.79.11-1.58.72-2.12,1.63-.44.75-.69,1.65-.73,2.7-.03.74.07,1.27.31,1.66.36.59,1.11.93,1.71,1.16.59.22,1.36.46,2.04.29.53-.13,1.05-.54,1.42-1.13.41-.64.61-1.42.74-2.03.07-.32.13-.65.07-.92-.04-.2-.17-.42-.29-.64-.41-.75-.84-1.52-1.43-2.08-.46-.44-.96-.67-1.48-.67Z" style="fill: #fff;"/>
  <path d="M104.47,163.67c-.81,0-1.53-.14-2.21-.42-2.92-1.2-3.92-4.81-3.16-7.47.15-.54.26-1.02.36-1.49.37-1.68.68-3.13,2.71-4.29,1.12-.69,2.35-1.12,3.54-1.23,1.74-.15,3.42.37,4.61,1.45,1.91,1.72,2.25,4.44,2.33,6.62.06,1.53-.04,3.26-1.17,4.47-.78.83-1.88,1.19-2.76,1.48-1.37.45-2.82.88-4.26.88ZM102.16,151.85c-.78.7-.96,1.53-1.23,2.76-.11.48-.22,1.02-.38,1.59-.58,2.04.13,4.78,2.29,5.67,1.59.65,3.48.13,5.43-.51.75-.25,1.61-.52,2.13-1.08.76-.8.81-2.16.77-3.38-.07-1.88-.34-4.22-1.83-5.56-.87-.78-2.17-1.18-3.48-1.07-.96.08-1.97.44-2.9,1.02-.23.14-.46.3-.68.47l-.1.08Z" style="fill: #fff;"/>
  <path d="M118.59,164.13l-.97-.26c-.69-.18-1.4-.25-2.12-.21l-.74.05-.06-.74c-.13-1.67.06-3.33.25-4.94.21-1.81.43-3.69.14-5.46h0c-.47-.1-.95-.16-1.43-.18l-.68-.03-.16-3.21.86.08c.12.01.25.03.39.05.2.03.64.1.76.04.05-.09.07-.52.08-.73,0-.22.02-.42.05-.58.21-1.27.66-2.15,1.38-2.71,1.22-.94,2.78-.69,4.15-.38l.59.13v.6c0,.78-.07,1.57-.19,2.34l-.11.69-2.08-.17-.02.59,1.34.28c.12.02.4.08.62.33.26.29.25.64.25.77l-.05,2.61-.98-.35c-.33-.12-.69-.18-1.04-.19.23,1.08.09,2.15-.04,3.19l-.07.52c-.27,2.26-.2,4.59-.13,6.86l.03,1ZM116.17,162.15c.29,0,.58.03.87.07-.06-2.16-.06-4.15.17-6.14l.07-.53c.13-1.03.27-2.1,0-3.02-.05-.16-.14-.45,0-.78.08-.22.33-.61,1.01-.68.37-.04.74-.03,1.1.02v-.32s-2.24-.47-2.24-.47l.07-2.07c0-.2.02-.72.46-1.04.34-.26.74-.23.91-.21l.93.08c.03-.27.05-.54.06-.82-.88-.16-1.73-.21-2.3.23-.41.31-.67.89-.82,1.77-.02.11-.02.23-.03.37-.02.6-.05,1.32-.56,1.79-.42.4-.96.45-1.45.42v.1c.34.04.67.09.99.16.18.04.59.12.88.47.22.26.27.56.29.72.33,1.99.1,3.98-.13,5.91-.15,1.31-.31,2.65-.28,3.96Z" style="fill: #fff;"/>
  <path d="M126.55,164.46l-3.29-.85c-.14-.04-.41-.11-.63-.34-.22-.24-.28-.52-.3-.65-.35-1.9.04-3.76.42-5.57.31-1.5.64-3.05.48-4.52l-1.37-.14-.78-3.4,1.09.17c.27.04.56.08.8.06.1-1.25.72-2.44,1.69-3.22,1.16-.93,2.76-1.24,4.18-.81l.53.16v3.06s-.57.14-.57.14c-.52.12-1.05.23-1.58.31v.59s1.97.09,1.97.09l.12.57c.13.64.17,1.3.12,1.96l-.03.42-.38.19c-.51.25-1.06.42-1.63.49.2,3.53-.27,7.04-.73,10.44l-.11.84ZM123.77,162.19l1.52.39c.42-3.14.84-6.65.56-10.06l-.07-.85.85.04c.45.02.9-.05,1.33-.2,0-.17,0-.35-.03-.52l-2.2-.1v-3.34s.66-.08.66-.08c.5-.06,1-.14,1.49-.24v-.7c-.81-.09-1.65.15-2.28.65-.54.43-.92,1.07-1.08,1.75.07.34.05.65-.06.92l.02.36-.33.09c-.14.13-.31.23-.5.3-.22.08-.44.12-.64.13l.07.29,1.43.15.11.54c.38,1.92-.02,3.82-.4,5.65-.34,1.62-.69,3.28-.44,4.84Z" style="fill: #fff;"/>
  <path d="M131.74,163.72c-.33,0-.66-.01-.98-.04l-.52-.04-.15-.5c-.34-1.18-.2-2.37-.06-3.52.39-3.17.66-6.33.81-9.46.04-.81.07-1.61.1-2.42,0-.16,0-.33-.01-.52-.03-.58-.06-1.22.15-1.76.47-1.17,2.94-1.45,3.62-1.27.51.13.69.56.65.9-.46,3.44-.41,6.99-.37,10.43l.1,7.79-.61.13c-.9.18-1.82.28-2.73.28ZM131.43,162.21c.71.02,1.43-.03,2.14-.13l-.08-6.53c-.04-3.24-.08-6.57.29-9.87-.53.07-1.18.24-1.32.4-.07.19-.04.67-.02,1.06.01.24.02.47.02.67-.03.82-.06,1.63-.1,2.45-.16,3.17-.44,6.37-.82,9.51-.1.85-.21,1.69-.1,2.46Z" style="fill: #fff;"/>
  <path d="M139.3,149.85c-.12,0-.25-.01-.37-.04-.33-.07-.6-.21-.82-.35-.8-.49-1.33-1.42-1.35-2.39-.02-.87.36-1.61,1.07-2.08.63-.42,1.45-.41,2.26.02.81.43,1.68,1.36,1.68,2.39,0,.52-.19.97-.35,1.33l-.23.29c-.56.44-1.17.84-1.89.84ZM138.87,146.18c-.09,0-.16.02-.21.06-.27.18-.41.46-.4.8,0,.45.27.92.63,1.14.11.07.24.14.34.16.24.04.57-.16.89-.4.08-.2.15-.39.15-.54,0-.25-.34-.78-.89-1.07-.18-.1-.36-.15-.5-.15Z" style="fill: #fff;"/>
  <path d="M138.99,163.71c-.52,0-1.05-.03-1.57-.09l-.81-.09.16-.8c.6-2.98.6-6,.53-8.3,0-.28-.05-.6-.09-.95-.12-1-.25-2.13.14-3.01.45-1.03,2.29-1.18,3.14-.97.69.17.92.63.89,1.01-.24,4.1-.3,8.26-.18,12.36l.02.69-.69.08c-.51.06-1.02.08-1.54.08ZM138.39,162.19c.43.02.86.02,1.29,0-.09-3.75-.03-7.54.18-11.28-.2,0-.48,0-.76.06-.27.06-.39.13-.42.16-.18.44-.07,1.39.02,2.16.05.4.09.77.1,1.08.06,2.16.07,4.96-.41,7.82Z" style="fill: #fff;"/>
  <path d="M154.8,164.4c-.2,0-.38-.05-.47-.08l-2.98-.89.1-.65c.39-2.46-.25-5.08-.82-7.4l-.58-2.38c-.47.12-.96.43-1.37.89-.85.95-1.32,2.33-1.4,4.11-.04.91.02,1.86.08,2.78.05.7.09,1.42.1,2.13v.79s-.79-.04-.79-.04c-1.02-.04-2.03.03-3.01.21l-.79.15-.1-.8c-.2-1.7-.15-3.42.16-5.11.09-.51.21-1.02.33-1.53.25-1.07.5-2.17.49-3.23,0-.35-.11-.78-.22-1.2-.15-.6-.31-1.22-.25-1.83.05-.54.31-.97.72-1.21.74-.44,1.68-.14,2.18.07.14.06.41.18.6.42.09-.14.2-.29.32-.42.66-.73,1.76-1.09,2.88-.95.8.1,1.58.43,2.54,1.04,1.06.69,1.79,1.38,2.28,2.18,1.07,1.73.96,3.83.86,5.68-.1,1.91-.14,3.86.17,5.72.15.91-.27,1.28-.54,1.43-.16.08-.33.12-.51.12ZM153.01,162.37l1.3.39c-.28-1.89-.23-3.81-.14-5.62.09-1.79.19-3.56-.64-4.89-.37-.6-.95-1.15-1.82-1.71-.76-.49-1.35-.74-1.92-.82-.62-.08-1.25.1-1.58.47-.14.16-.26.36-.4.61-.28.48-.59,1.02-1.21,1.33l-1.11.57.04-2.15c-.42-.17-.71-.17-.77-.14-.02.42.1.89.22,1.38.13.5.26,1.02.26,1.55.01,1.24-.26,2.43-.52,3.58-.11.49-.23.98-.32,1.47-.23,1.28-.31,2.58-.22,3.88.58-.08,1.16-.12,1.75-.12-.02-.4-.04-.81-.07-1.21-.07-1.01-.13-2-.09-3.01.09-2.14.69-3.84,1.78-5.05.88-.99,2.02-1.5,3.11-1.43l.55.03.87,3.54c.55,2.26,1.17,4.8.93,7.34Z" style="fill: #fff;"/>
  <path d="M161.27,156.05c-.52,0-.92-.13-1.22-.39-.23-.2-.51-.59-.52-1.29-.02-1.37,1.01-2.68,2.43-3.1,1.17-.35,2.53-.13,3.73.61.63.38,1.1.84,1.41,1.36.4.69.49,1.5.24,2.18l-.19.5h-.53c-1.28-.04-2.58-.04-3.88,0-.18,0-.38.03-.58.05-.32.04-.62.08-.89.08ZM163.1,152.61c-.25,0-.49.03-.71.1-.77.23-1.37.96-1.36,1.65,0,.15.03.19.03.19.1.04.61-.03.89-.06.26-.03.51-.06.75-.07,1.09-.03,2.19-.04,3.26-.03-.03-.13-.08-.27-.16-.4-.18-.3-.48-.58-.89-.83-.59-.36-1.22-.55-1.81-.55Z" style="fill: #fff;"/>
  <path d="M163.66,164.04c-1.43,0-2.94-.12-4.24-.98-1.25-.83-2.12-2.28-2.44-4.06-.52-2.92.11-5.42,1.82-7.23,2.05-2.17,4.95-3.11,7.39-2.41.58.17,1.05.4,1.44.72.53.44.86,1.01,1.09,1.46.92,1.79,1.31,3.88,1.11,5.88l-.06.57-.57.09s-.02,0-.03,0c.04.02.09.05.13.07.36.24.74.74.52,1.78-.34,1.6-.98,2.7-1.94,3.34-1.05.7-2.31.73-3.32.76-.3,0-.6.01-.89.01ZM164.52,150.62c-1.6,0-3.32.78-4.63,2.17h0c-1.39,1.47-1.87,3.47-1.43,5.94.24,1.36.9,2.48,1.79,3.08,1.11.74,2.59.76,4.26.72.82-.02,1.84-.05,2.53-.5.62-.41,1.06-1.22,1.31-2.4.02-.08.02-.14.03-.19-.02,0-.03,0-.05,0-.52.06-1.05.13-1.56.22-.03.65-.22,1.68-1.16,2.15-.31.15-.66.21-1.11.21-1.61-.04-2.98-.95-4.08-1.69-.21-.14-.53-.36-.73-.73-.16-.31-.18-.63-.19-.84l-.14-2.6.96.2c2.65.57,5.36.67,8.05.31.05-1.53-.29-3.1-.99-4.46-.17-.32-.4-.72-.71-.98-.22-.18-.51-.32-.9-.43-.4-.12-.83-.17-1.26-.17ZM160.97,158.01l.04.66c0,.07.01.2.03.24.02.03.15.11.22.16.94.63,2.1,1.41,3.28,1.43.18,0,.32-.01.4-.05.31-.15.35-.85.33-1.4l-.02-.65.1-.02c-1.47,0-2.92-.12-4.37-.37Z" style="fill: #fff;"/>
  <path d="M175.03,164.09c-.18,0-.34-.02-.43-.04l-1.06-.17c-.26-.04-.57-.09-.89-.27-.43-.25-.74-.69-.87-1.25-.1-.41-.08-.82-.07-1.15.02-.44.04-1.25.66-1.77,1.08-.91,2.19-.15,2.79.25l.18.12c.21.14.54.36.75.73.14.25.18.5.21.72.06.49.09.98.08,1.47,0,.16-.01.51-.23.81-.17.24-.5.53-1.12.53ZM173.5,160.53s-.08,0-.16.07c-.11.09-.12.52-.13.67,0,.26-.02.54.03.75.04.16.11.26.17.3.07.04.23.07.36.09l1.06.17s.03,0,.04,0c0-.41-.02-.76-.06-1.11,0-.04-.02-.16-.04-.2-.03-.05-.18-.14-.25-.19l-.19-.13c-.23-.16-.62-.42-.82-.42Z" style="fill: #fff;"/>
</svg>