<?xml version="1.0" encoding="UTF-8"?>
<svg id="Layer_14" xmlns="http://www.w3.org/2000/svg" viewBox="0 0 336.63 118.62">
  <g>
    <g>
      <path d="M2.35,118.62c-.68,0-1.36-.1-1.99-.41l-.12-.06-.02-.13c-.01-.09-.04-.21-.06-.34-.12-.64-.28-1.52-.03-2.02.37-.73,1.44-.72,2.07-.71h.08c1.67.02,3.57.03,5.27.66.09.03.23.08.33.21.09.11.13.24.15.35.1.51.11,1.03.03,1.54-.01.08-.04.25-.17.38-.18.17-.43.13-.56.11-.93-.15-1.91.02-2.85.19-.18.03-.37.06-.55.09-.51.08-1.05.15-1.6.15ZM.69,117.81c.99.43,2.16.33,3.17.17l.55-.09c.98-.17,2-.34,3.01-.19.03,0,.12.02.15.01,0,0,0-.02,0-.08.07-.45.06-.91-.03-1.36,0-.03-.02-.1-.04-.12-.02-.02-.09-.05-.13-.06-1.62-.6-3.39-.61-5.1-.63h-.08c-.52,0-1.39-.02-1.62.44-.18.35-.02,1.19.07,1.7.01.08.03.15.04.22Z" style="fill: #fff;"/>
      <path d="M2.35,119.12c-.85,0-1.58-.15-2.21-.46l-.35-.17-.06-.39c-.01-.09-.03-.2-.06-.32-.13-.72-.31-1.69.02-2.34.51-1,1.81-.99,2.52-.98,1.81.02,3.75.03,5.53.69.11.04.35.13.54.35.16.19.22.4.26.57.11.57.13,1.14.04,1.71-.02.12-.07.43-.33.67-.36.33-.8.26-.96.24-.86-.14-1.79.02-2.69.18l-.57.1c-.67.11-1.19.16-1.68.16ZM1.14,117.44c.83.27,1.8.18,2.65.04l.54-.09c.9-.15,1.84-.31,2.8-.23,0-.22,0-.44-.04-.65-1.53-.52-3.2-.54-4.81-.55-1-.02-1.21.1-1.26.16-.06.14-.02.59.11,1.33Z" style="fill: #fff;"/>
    </g>
    <g>
      <path d="M10.97,118.56c-.4,0-.79-.04-1.15-.15l-.14-.04-.03-.14c-.01-.05-.03-.11-.04-.17-.45-.73-.7-2.03-.55-2.71l.04-.16.17-.03c2.5-.41,5.33-.88,7.97-.07l.14.04.03.14c.13.58.26,1.16.38,1.74.02.08.06.28-.07.44-.1.12-.25.14-.32.16-.38.06-.75.06-1.12.07-.39,0-.77.01-1.13.08-.31.06-.6.15-.91.25-.33.11-.66.22-1.02.28l-.2.03c-.63.11-1.35.23-2.05.23ZM10.17,117.98c.84.18,1.86,0,2.76-.15l.2-.03c.32-.05.62-.15.95-.26.31-.1.64-.21.98-.27.41-.07.82-.08,1.21-.09.36,0,.69-.01,1.02-.06,0,0,0,0,0,0-.12-.53-.23-1.06-.35-1.6-2.43-.7-5.07-.29-7.43.1,0,.04,0,.09,0,.13h.04c.08.32.19.76.29,1.2.08.32.16.63.22.9.03.04.06.08.1.12Z" style="fill: #fff;"/>
      <path d="M10.97,119.06c-.49,0-.92-.06-1.3-.17l-.41-.12-.12-.51c-.48-.83-.75-2.21-.57-3.01l.11-.49.5-.08c2.55-.42,5.45-.9,8.2-.06l.42.13.48,2.17c.08.35.02.64-.18.87-.22.26-.52.31-.62.33-.41.06-.8.07-1.18.08-.38,0-.73.01-1.06.07-.28.05-.56.14-.85.24-.35.11-.7.23-1.09.29l-.2.03c-.65.11-1.39.24-2.13.24ZM10.51,117.54c.7.09,1.57-.06,2.34-.19l.2-.04c.28-.05.57-.14.87-.24.34-.11.68-.22,1.05-.29.45-.08.9-.09,1.3-.09.14,0,.28,0,.42,0l-.16-.74c-2.11-.52-4.42-.22-6.38.1l.37,1.5Z" style="fill: #fff;"/>
    </g>
    <g>
      <path d="M20.27,117.59c-.28,0-.56-.03-.83-.1l-.11-.03-.06-.12c-.04-.08-.4-1.86-.28-2.13.25-.56.84-.53,1.27-.52.1,0,.19,0,.29,0,1.46-.04,2.92-.21,4.36-.49l.14-.03c.55-.11,1.13-.23,1.71-.15l.17.02.41,1.9c.02.08.07.34-.11.51-.12.11-.27.11-.34.11-1.43.04-2.87.24-4.26.58l-.32.08c-.66.17-1.34.34-2.02.34ZM19.69,117.04c.8.16,1.65-.06,2.47-.27l.32-.08c1.42-.35,2.89-.55,4.35-.6,0,0,0-.01,0-.02l-.34-1.55c-.44-.03-.92.07-1.37.16l-.14.03c-1.46.29-2.95.46-4.44.5-.1,0-.21,0-.32,0-.46-.02-.69,0-.79.22,0,.13.16,1.24.25,1.61Z" style="fill: #fff;"/>
      <path d="M20.27,118.09c-.34,0-.65-.04-.95-.11l-.33-.08-.16-.32c-.06-.13-.51-2.07-.29-2.56.39-.86,1.26-.83,1.73-.81.1,0,.19,0,.27,0,1.43-.04,2.87-.2,4.27-.48l.13-.03c.57-.11,1.21-.24,1.88-.15l.52.07.48,2.24c.12.54-.12.85-.27.99-.26.23-.56.24-.66.24-1.4.04-2.8.23-4.16.57l-.32.08c-.68.17-1.39.35-2.14.35ZM20.12,116.59c.6.04,1.27-.14,1.92-.3l.33-.08c1.26-.31,2.56-.51,3.86-.59l-.13-.59c-.27.02-.56.08-.84.14l-.16.03c-1.49.3-3.01.47-4.52.51-.1,0-.21,0-.32,0-.07,0-.18,0-.28,0,.03.24.09.6.14.89Z" style="fill: #fff;"/>
    </g>
    <g>
      <path d="M29.92,116.46c-.36,0-.73-.05-1.07-.22l-.1-.05-.03-.11c-.19-.64-.26-1.01-.22-1.67,0-.05,0-.09,0-.15l.02-.24h.24c1.81.04,3.61-.15,5.37-.55l.16-.04c.59-.14,1.2-.28,1.82-.19.09.01.2.04.3.11.13.11.17.26.2.35l.28,1.06c.02.07.07.28-.08.43-.09.09-.2.11-.25.12l-5.46.99c-.34.06-.76.14-1.18.14ZM29.16,115.84c.53.21,1.15.12,1.85,0l5.38-.97-.27-1.01s-.02-.07-.03-.09c0,0-.02,0-.05,0-.53-.07-1.09.06-1.64.18l-.17.04c-1.72.39-3.5.6-5.24.57,0,.08.01.15.02.22.02.14.04.3.02.55h-.01c.03.16.07.33.13.52Z" style="fill: #fff;"/>
      <path d="M29.92,116.96c-.49,0-.91-.09-1.29-.27l-.3-.14-.1-.32c-.21-.69-.29-1.12-.24-1.85l.05-.86h.71c1.76.05,3.53-.14,5.25-.53l.16-.04c.61-.14,1.29-.3,2-.2.14.02.35.06.54.22.27.21.34.5.37.62l.28,1.06c.13.48-.07.78-.2.91-.19.2-.43.24-.51.26l-5.47.99c-.36.06-.8.15-1.27.15ZM29.57,115.43c.38.07.84,0,1.35-.09l4.85-.88-.06-.23c-.38,0-.79.1-1.19.19l-.17.04c-1.63.37-3.25.57-4.8.59,0,.08,0,.17,0,.28,0,.04.02.07.03.11Z" style="fill: #fff;"/>
    </g>
    <g>
      <path d="M38.7,115.46c-.09,0-.2-.01-.31-.08-.19,0-.25-.14-.27-.22-.04-.16-.08-.3-.1-.43h-.01s0-.1,0-.15c-.03-.26-.02-.49,0-.74.02-.32.06-.63.13-.95l.03-.15.15-.04c.2-.05.4-.15.6-.25.22-.11.46-.23.72-.29.28-.07.55-.07.82-.08h.07c1.52-.02,3.04-.25,4.52-.47l.2-.03.07.19c.27.72.46,1.47.55,2.23l.03.22-.22.05c-2.24.51-4.56,1.03-6.89,1.18-.02,0-.05,0-.09,0ZM38.57,114.92s.06.02.09.05c0,0,.07,0,.09,0,2.22-.14,4.44-.63,6.59-1.12-.08-.58-.23-1.15-.42-1.7-1.43.21-2.91.42-4.39.44h-.07c-.25,0-.49,0-.71.06-.21.05-.41.15-.62.25-.17.09-.35.17-.55.24-.01.07-.02.13-.03.2l-.03.3c0,.09-.02.17-.03.24-.01.22-.01.44,0,.66.01.12.04.24.07.38Z" style="fill: #fff;"/>
      <path d="M38.7,115.96c-.17,0-.32-.03-.46-.1-.29-.05-.51-.26-.6-.57v-.05s-.08,0-.08,0l-.06-.65c-.03-.28-.02-.56,0-.81.02-.32.06-.67.13-1l.1-.46.45-.12c.15-.04.33-.12.51-.21.23-.12.5-.25.82-.33.33-.08.65-.09.93-.09,1.56-.02,3.07-.25,4.53-.46l.59-.09.22.56c.29.76.49,1.55.58,2.35l.08.67-.66.15c-2.26.51-4.59,1.04-6.97,1.19h-.12ZM39.05,113.5l-.04.43c0,.16-.01.34,0,.52,2.02-.16,3.99-.58,5.78-.98-.05-.26-.12-.51-.19-.76-1.41.2-2.71.37-4.04.39-.29,0-.5,0-.67.05-.15.04-.32.12-.51.21-.1.05-.21.1-.32.15Z" style="fill: #fff;"/>
    </g>
    <g>
      <path d="M48.19,113.81c-.1,0-.21-.02-.32-.08-.16-.1-.23-.26-.27-.35l-.03-.06c-.31-.69-.74-1.64.12-2.22.58-.39,1.46-.61,2.23-.8.27-.07.53-.13.76-.2,1.54-.46,2.77-.57,3.87-.35l.14.03.62,1.94c.03.1.1.32-.02.51-.1.16-.28.21-.37.23-2.15.57-4.35,1.01-6.55,1.33-.05,0-.12.02-.19.02ZM48.05,113.18s.05.11.08.13c.03.02.14,0,.18,0,2.18-.31,4.36-.75,6.49-1.31.04,0,.06-.02.08-.02,0,0-.01-.03-.03-.09l-.54-1.66c-.98-.17-2.09-.05-3.48.36-.23.07-.5.14-.78.21-.74.18-1.57.39-2.07.73-.48.32-.29.84.05,1.6l.03.06Z" style="fill: #fff;"/>
      <path d="M48.19,114.31c-.22,0-.41-.05-.58-.16-.29-.17-.41-.45-.47-.57-.35-.77-.94-2.08.27-2.9.65-.44,1.58-.67,2.39-.88.29-.07.53-.13.74-.19,1.63-.48,2.93-.6,4.11-.36l.43.09.71,2.22c.04.13.18.54-.08.94-.21.33-.54.41-.67.45-2.17.57-4.39,1.02-6.6,1.34-.08.01-.17.02-.26.02ZM48.05,113.18h0l.1-.06-.1.06ZM53.41,110.64c-.7,0-1.5.14-2.44.42-.24.07-.51.14-.8.21-.7.17-1.48.37-1.92.66-.09.06-.13.16.17.85,1.98-.29,3.92-.68,5.81-1.16l-.31-.95c-.17-.02-.34-.03-.52-.03Z" style="fill: #fff;"/>
    </g>
    <g>
      <path d="M58.1,111.43c-.31,0-.62-.04-.92-.14l-.11-.04-.04-.11c-.02-.06-.08-.17-.14-.3-.4-.83-.56-1.25-.43-1.5.15-.29.68-.41,1.42-.55.14-.03.26-.05.33-.07l4.88-1.34c.09-.02.29-.08.46.04.12.08.16.2.18.27l.52,1.42c.04.11.11.29.03.48-.1.24-.35.32-.47.35l-3.77,1.11c-.58.17-1.25.37-1.94.37ZM57.44,110.84c.74.2,1.55,0,2.45-.26l3.77-1.11c.11-.03.15-.06.15-.07,0-.02-.03-.09-.04-.12l-.52-1.42s0-.01-.04,0l-4.88,1.34c-.08.02-.21.05-.37.08-.26.05-.96.18-1.08.3,0,.13.32.79.44,1.05.04.08.08.16.11.22Z" style="fill: #fff;"/>
      <path d="M58.1,111.93c-.38,0-.75-.06-1.08-.17l-.33-.11-.13-.33c-.02-.05-.06-.13-.1-.22-.45-.93-.69-1.51-.44-2,.27-.54,1-.67,1.77-.82.15-.03.23-.04.29-.06l4.88-1.34c.13-.04.52-.14.88.11.24.17.33.4.37.5l.52,1.43c.05.14.17.48.02.84-.19.47-.64.6-.79.65l-3.77,1.11c-.59.17-1.32.39-2.08.39ZM57.79,110.4c.57.08,1.23-.09,1.97-.31l3.43-1.01-.23-.64-4.47,1.23c-.09.02-.23.05-.41.08-.23.04-.4.08-.53.11.06.13.14.3.25.53h0Z" style="fill: #fff;"/>
    </g>
    <g>
      <path d="M67.23,109.06c-.21,0-.43-.03-.64-.1l-.2-.07.03-.21c.03-.2,0-.43-.04-.68-.07-.49-.15-1.09.39-1.47.5-.34,1.22-.46,1.92-.58.51-.09.99-.17,1.37-.32.34-.14.67-.32.99-.49.4-.21.82-.44,1.26-.6.24-.09.53-.18.83-.12.44.08.81.45.95.95.12.42.08.85.05,1.23l-.02.17-2.69.76c-.54.15-1.11.31-1.62.56-.19.09-.37.2-.56.3-.33.19-.68.38-1.06.51-.19.06-.57.17-.99.17ZM66.93,108.54c.32.06.73.02,1.13-.12h0c.33-.11.64-.28.97-.47.19-.11.39-.22.59-.31.55-.26,1.13-.43,1.7-.59l2.35-.66c.02-.3.03-.6-.04-.87-.08-.26-.28-.55-.56-.6-.18-.03-.39.03-.57.1-.41.15-.8.36-1.2.57-.33.18-.68.36-1.03.51-.43.18-.96.27-1.48.35-.65.11-1.31.22-1.72.5-.27.19-.25.5-.18.98.03.2.06.4.05.59Z" style="fill: #fff;"/>
      <path d="M67.23,109.56c-.29,0-.56-.04-.8-.12l-.6-.2.09-.62c.02-.13,0-.33-.04-.53-.07-.52-.2-1.4.6-1.95.59-.4,1.37-.53,2.12-.66.49-.08.94-.16,1.25-.29.32-.14.64-.31.95-.47.42-.22.85-.45,1.32-.63.29-.11.68-.23,1.1-.15.62.11,1.15.62,1.35,1.31.15.5.1,1,.06,1.41l-.05.52-3.02.85c-.52.15-1.06.3-1.54.52-.17.08-.34.18-.51.27-.37.21-.74.42-1.16.55-.22.07-.65.19-1.14.19ZM72.96,105.42s-.11,0-.29.08c-.38.14-.75.34-1.14.54-.35.19-.71.38-1.08.53-.48.2-1.04.3-1.58.39-.57.1-1.21.2-1.53.42-.02.06.02.36.04.5,0,.06.02.12.02.18.16-.02.33-.05.5-.11.29-.09.57-.26.88-.43.21-.12.41-.23.62-.33.59-.28,1.19-.45,1.77-.62l2.01-.57c0-.13-.01-.24-.04-.35-.04-.14-.13-.24-.17-.24,0,0,0,0-.01,0Z" style="fill: #fff;"/>
    </g>
    <g>
      <path d="M76.4,105.95c-.32,0-.69-.15-.82-.5h0s-.43-1.22-.38-1.5c.09-.53.73-.72,1.14-.84.07-.02.13-.04.19-.06.33-.11.67-.2,1.01-.3.75-.2,1.45-.4,2.09-.78.16-.09.31-.2.46-.3.21-.15.43-.3.67-.42.37-.19.92-.38,1.47-.22l.08.02.05.07c.43.6.7,1.31.8,2.05l.03.21-.2.06c-1.95.62-3.88,1.38-5.72,2.25-.24.11-.51.24-.81.25-.01,0-.03,0-.04,0ZM76.04,105.27c.05.13.24.2.38.19.2,0,.4-.1.61-.2,1.81-.85,3.69-1.6,5.59-2.21-.1-.55-.32-1.08-.63-1.54-.37-.08-.75.07-1.01.2-.21.11-.41.25-.62.39-.16.11-.32.22-.49.32-.69.41-1.46.62-2.21.83-.33.09-.66.18-.98.29-.06.02-.13.04-.21.06-.3.09-.75.22-.79.45,0,.14.28,1.02.36,1.23Z" style="fill: #fff;"/>
      <path d="M76.4,106.45c-.59,0-1.09-.32-1.29-.82,0,0-.49-1.31-.41-1.77.15-.84,1.02-1.1,1.49-1.23l.17-.05c.34-.11.69-.21,1.04-.3.71-.2,1.38-.38,1.96-.72.15-.09.29-.19.43-.28.23-.16.47-.32.72-.45.45-.24,1.13-.47,1.85-.26l.17.05.18.17c.52.74.83,1.52.94,2.34l.08.62-.59.19c-1.93.62-3.84,1.37-5.67,2.23-.27.13-.6.28-1,.3h-.06ZM76.38,104.95s0,0,0,0c0,0,0,0,0,0ZM76.23,104.2c.06.21.16.54.23.74.11-.03.24-.08.36-.14,1.69-.79,3.43-1.5,5.2-2.09-.08-.25-.19-.5-.32-.73-.14.02-.31.07-.49.16-.19.1-.37.23-.56.36-.17.12-.34.24-.52.34-.75.45-1.55.67-2.33.88-.33.09-.65.18-.96.28l-.22.07c-.09.03-.27.08-.39.13Z" style="fill: #fff;"/>
    </g>
    <g>
      <path d="M85.35,102.47c-.17,0-.34-.01-.51-.03h-.05c-.36-.12-.64-.46-.74-.92-.12-.53.04-1.06.42-1.4.33-.3.75-.52,1.15-.74.34-.18.69-.37.97-.6.17-.13.33-.27.49-.41.42-.36.86-.73,1.36-1.01.54-.3,2.33-.47,2.53-.17l.13.19-.04.04c.11.31.22.62.37.89.1.17.12.36.07.55-.05.19-.18.34-.35.43-1.38.73-2.72,1.47-4.02,2.46l-.06.05c-.24.18-.48.37-.78.49-.3.12-.62.16-.93.16ZM84.92,101.94c.4.04.82.04,1.18-.1.23-.1.44-.26.66-.43l.06-.05c1.32-1.02,2.69-1.77,4.09-2.51.05-.03.09-.07.1-.13.02-.06,0-.11-.02-.16-.18-.32-.3-.67-.42-1.01h0c-.37-.03-1.43,0-1.88.25-.46.26-.86.6-1.28.96-.17.14-.33.28-.5.42-.32.25-.69.45-1.05.65-.39.21-.77.41-1.05.67-.24.22-.34.56-.26.91.06.26.2.47.38.53Z" style="fill: #fff;"/>
      <path d="M85.35,102.97c-.19,0-.37-.01-.56-.03l-.15-.03c-.53-.16-.95-.65-1.09-1.28-.16-.7.06-1.42.57-1.88.38-.34.82-.58,1.25-.81.32-.18.65-.35.9-.55.16-.13.32-.26.48-.4.44-.38.9-.76,1.44-1.07.55-.31,2.73-.71,3.19-.01l.38.57-.12.1c.06.17.13.33.21.47.17.29.21.62.12.94-.09.32-.3.58-.6.74-1.36.72-2.69,1.45-3.95,2.42-.31.24-.6.46-.95.61-.33.13-.69.2-1.12.2ZM85.09,101.46c.29.02.59.02.82-.08.17-.07.34-.2.54-.36,1.34-1.03,2.64-1.76,3.97-2.47-.08-.17-.15-.34-.21-.5-.46,0-1.05.07-1.28.2-.42.23-.8.56-1.2.9-.19.16-.35.3-.51.43-.35.28-.76.5-1.12.7-.37.2-.71.39-.96.6-.11.1-.15.25-.11.43.02.07.04.12.06.15ZM90.55,98.81s0,0,0,0c0,0,0,0,0,0Z" style="fill: #fff;"/>
    </g>
    <g>
      <path d="M93.99,98.04c-.11,0-.21-.04-.31-.12-.47-.38-.62-1.74-.47-2.17.15-.43.81-.69,1.39-.92.2-.08.38-.15.49-.22,1.22-.7,2.28-1.6,3.15-2.67.05-.06.19-.23.41-.2.18.02.28.17.32.23.35.55.76,1.17.84,1.89l.02.15-.13.08c-.48.32-.94.68-1.43,1.06-.99.77-2,1.56-3.23,2.11-.17.08-.32.23-.47.4-.09.09-.18.19-.27.27l-.04.03c-.08.05-.17.07-.25.07ZM98.59,92.32c-.93,1.12-2.01,2.03-3.25,2.74-.13.07-.33.16-.55.25-.38.15-1.02.41-1.1.63-.12.34.1,1.45.31,1.61.07-.07.14-.14.2-.21.18-.19.37-.39.63-.51,1.18-.53,2.17-1.3,3.13-2.05.45-.35.88-.69,1.33-.99-.1-.53-.41-1.02-.69-1.46Z" style="fill: #fff;"/>
      <path d="M93.99,98.54c-.23,0-.44-.08-.63-.23-.68-.55-.83-2.14-.62-2.72.23-.64,1-.95,1.67-1.22.19-.07.33-.13.43-.19,1.17-.67,2.18-1.52,3.01-2.55.3-.37.63-.41.86-.39.27.03.5.19.67.45.37.56.82,1.27.92,2.11l.05.45-.38.25c-.47.32-.92.67-1.4,1.04-1.01.78-2.05,1.59-3.33,2.17-.08.04-.2.16-.31.28-.11.11-.21.22-.31.31l-.11.08c-.16.1-.34.15-.51.15ZM94.15,96.15c0,.11.01.3.04.49.12-.1.26-.2.43-.27,1.12-.51,2.09-1.26,3.03-1.99.38-.29.72-.56,1.07-.81-.05-.14-.12-.28-.19-.41-.86.93-1.84,1.71-2.93,2.33-.14.08-.37.18-.62.27-.17.07-.65.26-.82.38Z" style="fill: #fff;"/>
    </g>
    <g>
      <path d="M102.11,92.67s-.05,0-.08,0c-.16-.03-.26-.14-.32-.21-.14-.18-.24-.37-.33-.56-.05-.1-.1-.2-.15-.29h0c-.09-.16-.18-.28-.25-.37-.37-.5-.2-.68.41-1.17l.64-.52c.34-.28.69-.55,1.02-.83,1.13-.94,2.27-1.9,3.37-2.88l.18-.16.17.17c.41.42.8.86,1.16,1.32.07.09.23.29.19.53-.02.14-.1.25-.17.34-1,1.26-2.31,2.2-3.57,3.12l-1.9,1.37c-.07.05-.2.15-.37.15ZM101.66,91.35c.06.1.11.21.17.32.08.17.16.33.27.47.01.03.04.02.09-.02l1.9-1.37c1.24-.89,2.51-1.82,3.47-3.02.01-.02.06-.07.06-.1,0,0,0-.04-.09-.15-.3-.38-.62-.75-.96-1.11-1.05.92-2.13,1.84-3.2,2.73-.34.28-.69.56-1.03.84l-.64.51c-.15.12-.39.32-.43.39.01-.02.06.05.1.1.08.1.17.23.28.41h0Z" style="fill: #fff;"/>
      <path d="M102.11,93.17l-.18-.02c-.35-.07-.55-.31-.61-.39-.18-.22-.29-.45-.39-.65-.05-.1-.09-.18-.13-.26-.08-.14-.15-.24-.21-.31-.68-.91-.06-1.42.49-1.87l.64-.52c.38-.31.7-.57,1.02-.83,1.13-.94,2.26-1.9,3.36-2.87l.53-.47.5.5c.42.43.83.89,1.2,1.36.1.13.36.46.29.91-.04.29-.2.48-.27.58-1.04,1.31-2.38,2.28-3.67,3.21l-1.9,1.38c-.09.07-.33.24-.67.24ZM101.96,90.88c.04.06.09.13.13.21h0c.06.11.12.23.18.34l1.52-1.1c1.14-.82,2.31-1.67,3.21-2.73-.16-.19-.31-.38-.47-.55-.93.81-1.89,1.63-2.85,2.42-.34.28-.69.56-1.03.84l-.64.51s-.04.03-.06.05Z" style="fill: #fff;"/>
    </g>
    <g>
      <path d="M110.48,85.79c-.3,0-.49-.24-.61-.4l.18-.17-.2.15c-.16-.21-.35-.34-.51-.45-.21-.15-.41-.29-.44-.54-.02-.22.1-.43.41-.75.63-.64,1.05-1.16,1.39-1.75.23-.4.43-.8.64-1.21.25-.5.52-1.03.82-1.52.18-.29.38-.58.69-.75.34-.19.84-.2,1.14.14.2.22.37.39.55.54.26.21.57.46.52.86-.02.15-.1.27-.15.33-.34.45-.69.91-1.09,1.33-.09.09-.17.18-.26.26-.2.2-.39.38-.55.59-.28.36-.49.82-.7,1.25-.36.77-.73,1.57-1.51,1.99-.09.05-.19.09-.31.1h-.02ZM110.24,85.06v.02c.08.08.2.2.23.21.02,0,.05-.01.09-.04.63-.34.95-1.03,1.29-1.75.22-.46.44-.94.75-1.35.18-.23.39-.44.59-.64.09-.08.17-.17.25-.25.38-.4.72-.85,1.05-1.28.02-.02.05-.07.06-.09.01-.12-.12-.24-.31-.4-.24-.19-.42-.38-.64-.62-.12-.13-.36-.12-.52-.03-.22.12-.38.36-.51.57-.29.48-.55.99-.8,1.48-.21.42-.42.83-.65,1.24-.36.62-.8,1.17-1.46,1.85-.26.26-.26.35-.26.35.02.03.14.11.22.18.17.12.41.29.62.56h0Z" style="fill: #fff;"/>
      <path d="M110.5,86.29h-.02c-.29,0-.51-.11-.68-.25l-.04.03-.25-.32s-.03-.04-.05-.06l-.03-.04c-.11-.14-.25-.23-.39-.33-.24-.17-.6-.42-.65-.91-.04-.47.25-.84.55-1.14.6-.61.99-1.1,1.31-1.65.22-.39.43-.79.63-1.19.27-.52.53-1.05.84-1.56.2-.33.47-.69.88-.92.52-.29,1.28-.29,1.76.24.18.2.33.35.49.49.29.23.77.63.71,1.3-.03.29-.19.5-.25.59-.35.46-.71.93-1.13,1.37l-.23.23c-.22.22-.4.39-.54.58-.25.32-.45.75-.64,1.16-.37.81-.8,1.72-1.73,2.22-.12.06-.3.15-.53.15h0ZM110.07,85.2h0s.17-.14.17-.14l-.18.14ZM110.11,84.24c.14.11.3.24.45.42.36-.31.59-.81.85-1.37.23-.49.46-.99.81-1.44.19-.25.42-.47.63-.69l.24-.24c.3-.31.58-.67.85-1.02,0,0,0,0-.01,0-.22-.18-.41-.36-.62-.59-.13.09-.25.28-.32.38-.28.45-.53.94-.77,1.42-.23.45-.44.87-.68,1.28-.36.63-.8,1.19-1.45,1.86ZM109.76,83.99h0Z" style="fill: #fff;"/>
    </g>
    <g>
      <path d="M116.83,77.88l-.18-.06c-.55-.18-1.11-.38-1.65-.6-.12-.05-.31-.13-.44-.29-.11-.14-.17-.32-.17-.54-.02-.78.53-1.39,1.02-1.93l.07-.08c.92-1.02,1.66-2.18,2.21-3.44.06-.14.1-.27.14-.4.13-.41.28-.87.9-.96.27-.04,1.68.5,1.92.82.11.14.07.27.04.32h0c-1.09,2.41-2.35,4.76-3.76,6.99l-.1.16ZM118.77,70.08c-.28.04-.34.21-.47.61-.05.14-.09.29-.16.45-.57,1.31-1.34,2.51-2.29,3.57l-.08.08c-.44.49-.9,1-.89,1.58,0,.11.02.19.06.24.04.06.14.1.24.14.47.19.95.37,1.43.53,1.33-2.12,2.53-4.35,3.57-6.64-.29-.2-1.22-.56-1.41-.57Z" style="fill: #fff;"/>
      <path d="M117.04,78.48l-.55-.18c-.56-.18-1.13-.39-1.68-.62-.15-.06-.43-.18-.64-.43-.18-.23-.28-.51-.29-.84-.02-.98.62-1.7,1.14-2.27l.07-.08c.88-.98,1.59-2.09,2.12-3.3.05-.12.09-.24.12-.35.14-.45.38-1.18,1.31-1.31.48-.06,2.05.57,2.39,1.02.18.25.22.55.1.82-1.1,2.43-2.38,4.8-3.8,7.05l-.31.49ZM115.38,76.29c.33.14.67.27,1.01.39,1.15-1.87,2.2-3.82,3.13-5.81-.24-.1-.52-.21-.69-.27,0,.06-.04.17-.06.24-.05.16-.1.33-.18.5-.59,1.36-1.39,2.61-2.38,3.71l-.08.08c-.35.39-.72.8-.76,1.16ZM118.77,70.08l.07.49-.07-.49Z" style="fill: #fff;"/>
    </g>
    <g>
      <path d="M121.48,67.36l-.18-.08c-.57-.26-1.21-.39-1.83-.4h-.35s.11-.33.11-.33c.53-1.53.84-3.14,1.09-4.66.02-.13.03-.31.05-.51.04-.62.1-1.32.43-1.67.4-.42,1.02-.31,1.47-.23.07.01.15.03.21.04.08.01.24.03.35.17.09.12.1.25.1.33.02.84-.2,1.65-.4,2.44-.16.6-.32,1.23-.37,1.85-.02.22-.02.44-.03.67-.02.78-.04,1.58-.53,2.23l-.12.16ZM119.8,66.4c.51.04,1.02.15,1.5.34.29-.5.31-1.12.32-1.78,0-.23.01-.47.03-.69.05-.66.22-1.31.39-1.93.21-.79.4-1.53.38-2.3-.1-.03-.17-.04-.25-.05-.38-.07-.81-.15-1.02.08-.21.22-.26.91-.29,1.36-.02.21-.03.41-.05.55-.24,1.44-.53,2.96-1,4.42Z" style="fill: #fff;"/>
      <path d="M121.64,67.98l-.55-.24c-.51-.23-1.08-.35-1.63-.35h-1.05s.34-1,.34-1c.52-1.49.82-3.08,1.07-4.58.02-.12.03-.28.04-.45.05-.71.11-1.51.56-1.99.59-.61,1.42-.46,1.92-.37l.2.03c.11.02.44.06.67.35.2.25.21.52.21.63.02.92-.2,1.76-.42,2.58-.15.58-.31,1.19-.36,1.76-.02.21-.02.42-.03.64-.02.81-.05,1.74-.63,2.51l-.36.48ZM120.45,65.98c.19.04.38.08.56.13.09-.34.1-.75.11-1.17,0-.24.01-.49.03-.72.06-.7.23-1.37.4-2.01.16-.61.31-1.19.36-1.77-.17-.03-.36-.05-.43-.02-.06.12-.11.78-.13,1.03-.02.23-.03.44-.06.6-.21,1.26-.46,2.6-.84,3.92Z" style="fill: #fff;"/>
    </g>
    <g>
      <path d="M120.44,53.55c-.3,0-.65-.17-.99-.51-1.07-1.04-2.14-2.12-3.18-3.2-.07-.07-.16-.15-.25-.24-.43-.39-1.03-.93-.82-1.52,0-.02.82-1.64,1.21-1.55l.22.05v.02c.28.11.54.33.66.53.59.96,2.14,1.98,3.39,2.79,1.3.85,1.87,1.24,1.86,1.64,0,.08-.03.23-.21.33-.38.15-.9.49-1.02.7-.04.07-.07.16-.1.24-.06.19-.13.41-.33.56-.13.1-.28.15-.44.15ZM116.4,47.05c-.19.23-.63.88-.74,1.19-.1.28.37.7.68.98.11.1.2.18.28.26,1.04,1.08,2.11,2.15,3.17,3.19.24.24.6.47.77.33.08-.06.12-.18.16-.32.04-.11.08-.23.13-.33.2-.35.78-.7,1.12-.85-.2-.25-.96-.74-1.59-1.15-1.29-.84-2.89-1.9-3.54-2.95-.08-.14-.29-.29-.46-.34Z" style="fill: #fff;"/>
      <path d="M120.44,54.05c-.44,0-.91-.23-1.34-.65-1.07-1.05-2.14-2.13-3.19-3.21-.06-.06-.13-.13-.21-.2-.49-.45-1.29-1.17-.97-2.07.01-.03.89-2.07,1.79-1.87l.65.16v.12c.22.15.42.35.55.55.53.86,2.03,1.85,3.24,2.64,1.45.95,2.1,1.38,2.08,2.07-.01.32-.18.59-.46.75-.41.17-.77.43-.83.52-.02.03-.03.08-.04.12-.08.24-.19.57-.5.82-.21.17-.47.26-.75.26h0ZM116.17,48.32c.1.15.39.42.51.53.11.1.22.2.3.29,1.04,1.07,2.1,2.14,3.16,3.18.05.05.1.09.14.12.04-.12.09-.23.14-.34.15-.27.42-.5.68-.68-.32-.23-.72-.49-.98-.66-1.29-.84-2.88-1.89-3.62-3-.13.2-.26.41-.33.56Z" style="fill: #fff;"/>
    </g>
    <g>
      <path d="M111.36,47.08l-.2-.09c-.23-.08-1.75-.44-3.1-.75-2.35-.55-4.05-.95-4.37-1.08l-.21-.09.07-.22c.06-.19.09-.39.13-.58.12-.63.26-1.42,1.29-1.42h0c1.23,0,2.57.34,3.76.64l.21.05c.68.17,1.36.38,2.01.61.08.03.2.07.29.19.1.14.1.29.1.39,0,.24.08.67.16,1.05.15.74.21,1.05,0,1.2l-.13.09ZM104.09,44.76c.66.19,2.54.63,4.09.99,1.67.39,2.52.59,2.94.72-.02-.17-.07-.4-.11-.58-.08-.42-.17-.86-.17-1.15,0-.02,0-.07,0-.09,0,.01-.04,0-.06-.01-.64-.23-1.3-.43-1.96-.6l-.21-.05c-1.16-.29-2.47-.62-3.64-.62h0c-.58,0-.67.31-.79,1.01-.02.13-.05.26-.08.4Z" style="fill: #fff;"/>
      <path d="M111.42,47.65l-.46-.2c-.17-.06-1.81-.44-3.01-.72-2.86-.67-4.11-.97-4.44-1.11l-.63-.26.2-.66c.05-.17.08-.35.11-.52.12-.65.34-1.84,1.78-1.84,1.3,0,2.67.35,3.89.65l.21.05c.69.17,1.39.38,2.06.63.11.04.35.13.52.36.21.27.2.57.2.69,0,.2.08.63.15.95.17.85.27,1.36-.2,1.7l-.36.26ZM104.67,44.4c.85.22,2.36.57,3.62.87,1,.23,1.7.4,2.19.52-.05-.27-.1-.54-.12-.78-.54-.19-1.1-.35-1.66-.49l-.21-.05c-1.13-.28-2.41-.61-3.52-.61-.12,0-.15.02-.15.02-.05.05-.11.35-.14.53Z" style="fill: #fff;"/>
    </g>
    <g>
      <path d="M92.61,48.84c-.17,0-.33-.06-.49-.19-.45-.36-.81-1.27-.7-1.77.15-.66.97-1.08,1.63-1.42.18-.09.34-.17.46-.25h0c.52-.32,1.05-.65,1.65-.87l.53-.2c2.23-.82,2.25-.79,2.39-.59l.05.07c.84.74,1.2,1.27,1.13,1.66-.02.11-.1.32-.4.43-1.1.63-2.27,1.24-3.43,1.82l-2.54,1.24c-.1.05-.19.07-.29.07ZM97.77,43.95c-.35.08-1.33.45-1.89.65l-.54.2c-.55.2-1.06.52-1.56.82h0c-.13.08-.31.17-.5.27-.54.28-1.28.66-1.38,1.09-.06.27.18.99.53,1.27.15.12.22.08.26.06l2.54-1.24c1.15-.57,2.31-1.18,3.44-1.82.04-.02.11-.04.11-.07,0-.01.04-.32-1.02-1.24Z" style="fill: #fff;"/>
      <path d="M92.61,49.34c-.28,0-.56-.1-.8-.3-.61-.48-1.03-1.58-.88-2.27.2-.88,1.14-1.37,1.89-1.76.17-.09.32-.16.43-.23.54-.33,1.1-.68,1.75-.91l.53-.19c2.29-.84,2.59-.95,2.97-.41.99.87,1.37,1.51,1.26,2.11-.07.37-.33.67-.72.81-1.03.6-2.19,1.21-3.38,1.79l-2.55,1.24c-.16.08-.34.12-.51.12ZM97.64,44.51c-.44.14-1.19.42-1.59.57l-.54.2c-.5.18-.99.48-1.46.78-.15.09-.33.19-.54.29-.29.15-1.05.54-1.12.76,0,.11.12.48.27.68l2.35-1.15c1.04-.51,2.09-1.06,3.1-1.63-.1-.12-.25-.28-.48-.49ZM98.67,45.21l.02.04h0s-.01-.04-.01-.04h0ZM98.64,45.17h.02s-.15-.39-.15-.39c-.02.01-.05.03-.08.06l.2.33ZM98.05,43.53h0s.02-.02.02-.02l-.03.02Z" style="fill: #fff;"/>
    </g>
    <g>
      <path d="M86.32,59.55c-.21,0-.42-.06-.61-.12l-1-.33c-.26-.09-.47-.29-.57-.55s-.07-.55.08-.78l.84-1.38c.59-.98,1.2-1.99,1.61-3.07.04-.1.07-.21.09-.31.09-.35.22-.83.79-.86,0,0,0,0,.01,0,.26,0,1.22.42,1.37.57.22.23.09.55.05.66-.18.46-.29.83-.41,1.2-.15.51-.3.99-.6,1.61-.12.25-.22.69-.31,1.09-.05.22-.1.43-.15.6-.04.13-.1.25-.16.36-.07.13-.14.26-.15.36-.02.39-.19.71-.46.86-.14.08-.28.11-.42.11ZM87.57,52.63c-.18.01-.22.11-.32.49-.03.12-.06.24-.11.36-.42,1.12-1.04,2.15-1.65,3.15l-.84,1.38c-.06.11-.08.24-.03.35.04.12.14.21.25.25l1,.33c.23.08.47.15.63.06.14-.08.2-.28.21-.45.01-.2.11-.4.2-.56.05-.1.1-.19.12-.27.05-.16.09-.36.14-.57.1-.44.21-.89.35-1.19.28-.59.42-1.05.57-1.54.11-.38.23-.77.42-1.24.04-.11.04-.15.04-.15-.1-.07-.84-.38-.99-.39Z" style="fill: #fff;"/>
      <path d="M86.32,60.05c-.28,0-.53-.07-.77-.15l-1-.33c-.41-.14-.73-.45-.88-.85-.15-.4-.11-.85.12-1.22l.84-1.38c.58-.96,1.18-1.95,1.57-2.99.03-.08.05-.17.07-.25.1-.36.31-1.19,1.25-1.24h0c.43,0,1.52.47,1.77.73.16.17.39.56.15,1.18-.17.44-.28.81-.39,1.16-.16.53-.31,1.03-.62,1.68-.1.2-.2.63-.28.98-.06.24-.11.46-.16.63-.05.17-.13.32-.2.45-.04.07-.09.16-.1.2-.03.53-.29.99-.71,1.23-.2.11-.43.17-.67.17ZM85.14,58.17l.89.3c.08.03.14.04.18.06,0,0,0,0,0,0,.02-.31.16-.58.26-.77.03-.06.07-.12.08-.17.04-.15.09-.34.13-.53.11-.48.22-.96.39-1.3.26-.56.4-1,.54-1.48.09-.31.19-.62.32-.98-.07-.03-.14-.06-.2-.08,0,.01,0,.02-.01.04-.03.13-.07.27-.12.41-.44,1.16-1.07,2.21-1.69,3.23l-.78,1.29Z" style="fill: #fff;"/>
    </g>
    <g>
      <path d="M85.27,70.54h-1.67s-.08-.08-.08-.08c-.13-.12-.16-.27-.16-2.02,0-.6,0-1.23-.02-1.67-.08-1.61,0-3.18.11-3.59.19-.68.58-.95.87-1.07.48-.19,1.1-.08,1.71.28l.06.05c.19.22.07.58-.15,1.24-.17.5-.37,1.11-.36,1.53l.14,4.88c0,.06,0,.19-.08.3-.11.14-.28.15-.35.15ZM83.89,70.03h1.34s-.16-4.8-.16-4.8c-.01-.51.2-1.14.39-1.71.09-.26.2-.6.22-.75-.44-.24-.86-.32-1.17-.19-.27.1-.46.35-.57.74-.08.27-.18,1.69-.09,3.43.02.45.02,1.08.02,1.69,0,.56,0,1.28.03,1.59Z" style="fill: #fff;"/>
      <path d="M85.27,71.04l-1.85-.02-.22-.18c-.34-.31-.34-.59-.34-2.41,0-.59,0-1.21-.02-1.64-.08-1.55-.02-3.24.13-3.75.25-.87.77-1.24,1.16-1.39.63-.24,1.41-.13,2.15.32l.12.09c.44.48.26,1.03,0,1.79-.15.43-.35,1.03-.34,1.36l.14,4.88c0,.09.01.37-.19.62-.12.15-.35.34-.75.34ZM84.37,69.54h.34s-.15-4.29-.15-4.29c-.02-.6.21-1.28.41-1.88.03-.08.06-.19.1-.31-.18-.05-.32-.05-.4-.02-.14.06-.23.25-.27.41-.05.2-.16,1.52-.08,3.27.02.45.02,1.1.02,1.71,0,.34,0,.76,0,1.1Z" style="fill: #fff;"/>
    </g>
    <g>
      <path d="M87.89,81.94c-.11,0-.22-.02-.32-.07-.25-.11-.4-.35-.49-.5h0c-.83-1.34-1.53-2.78-2.09-4.26-.03-.09-.08-.2-.13-.32-.25-.57-.58-1.35-.28-1.85.11-.19,1.33-1.07,1.69-.94.24.08.35.32.41.44l1.78,3.7c.19.39.38.79.54,1.2.19.49.33,1,.42,1.51l.03.19-.18.08c-.15.06-.28.18-.42.31-.07.06-.14.13-.21.19-.25.2-.5.3-.75.3ZM87.5,81.1c.08.14.17.26.27.31.16.07.38-.04.54-.17.06-.05.12-.11.19-.17.12-.11.24-.22.38-.31-.08-.42-.2-.84-.36-1.24-.15-.39-.34-.79-.52-1.16l-1.78-3.7s-.06-.13-.1-.17c-.25.08-1.01.57-1.13.72-.16.26.14.96.32,1.38.06.13.11.25.14.35.54,1.45,1.23,2.85,2.04,4.17h0Z" style="fill: #fff;"/>
      <path d="M87.89,82.44c-.18,0-.36-.04-.52-.11-.39-.18-.6-.51-.71-.7-.85-1.37-1.56-2.83-2.13-4.34-.03-.08-.07-.17-.11-.27-.3-.7-.7-1.62-.26-2.33.15-.25,1.55-1.41,2.28-1.15.43.15.62.53.69.7l1.78,3.7c.19.41.39.82.55,1.24.2.52.35,1.06.44,1.61l.1.58-.54.23c-.07.03-.18.13-.28.22-.08.07-.15.14-.23.2-.34.27-.7.42-1.06.42ZM87.93,80.84s.02.03.03.05c.01,0,.03-.02.04-.03.05-.04.1-.08.14-.13.06-.06.12-.11.18-.16-.07-.29-.16-.58-.27-.86-.14-.37-.32-.75-.5-1.11l-1.65-3.44c-.17.1-.35.22-.46.31.03.24.25.74.32.92.06.14.11.26.15.37.53,1.42,1.2,2.79,2,4.08h0Z" style="fill: #fff;"/>
    </g>
    <g>
      <path d="M98.77,89.31c-.1,0-.2-.02-.29-.06l-4.68-2.02c-.35-.15-.79-.34-1.21-.44-.23-.05-.42-.21-.51-.42-.09-.21-.08-.45.03-.65.03-.05.05-.1.07-.15l.08-.53c.01-.08.04-.29.23-.38.16-.08.32-.02.39,0l6.36,2.5c.17.07.3.19.37.36.07.17.07.35,0,.52-.07.17-.11.37-.13.61-.02.23-.14.42-.34.54-.11.07-.24.1-.37.1ZM92.59,86.24s.07.05.12.06c.47.11.93.31,1.3.47l4.68,2.02c.07.03.14.02.2-.01.03-.02.09-.07.1-.15.02-.3.08-.55.17-.76.02-.04.02-.09,0-.13-.01-.03-.04-.07-.09-.09l-6.2-2.44c-.05.18-.12.35-.2.52l-.08.53Z" style="fill: #fff;"/>
      <path d="M98.77,89.81c-.17,0-.33-.03-.49-.1l-4.68-2.02c-.33-.14-.75-.32-1.13-.41-.39-.09-.7-.35-.86-.7-.16-.35-.14-.75.04-1.1l.03-.06.06-.45c.06-.45.31-.66.51-.76.24-.12.51-.12.8,0l6.36,2.5c.29.12.52.34.64.63.12.29.13.61,0,.9-.05.12-.08.27-.1.47-.03.39-.24.73-.58.93-.19.11-.41.18-.63.18ZM93.15,85.91c.4.12.77.28,1.06.41l4.34,1.87c.01-.07.03-.13.04-.2l-5.43-2.14s0,0,0,0v.05ZM98.69,87.67s0,0,0,0c0,0,0,0,0,0Z" style="fill: #fff;"/>
    </g>
    <g>
      <path d="M108.88,88.84c-.23,0-.47-.02-.71-.04-.35-.03-.71-.06-.96-.02l-.07-.5c.11-.02.34-.42.45-.62.24-.43.47-.83.84-.78.18.03.56-.07.85-.14.14-.04.26-.07.36-.09.33-.06.83-.18,1.32-.31h0c.18-.05.31,0,.39.05.2.12.28.35.33.54.06.25.12,1.1.12,1.28v.2l-.19.04c-.1.02-.2.05-.31.08-.31.08-.66.18-.98.18h0c-.35,0-.71.05-1.06.1-.11.02-.24.02-.37.02ZM107.81,88.27c.13,0,.27.02.4.03.35.03.71.06.97.02.37-.05.74-.11,1.13-.11h0c.25,0,.56-.08.86-.16.04-.01.08-.02.12-.03-.02-.3-.06-.81-.1-.96-.05-.2-.09-.23-.1-.24l-.07-.23.06.24c-.5.13-1.02.26-1.36.32-.09.02-.2.05-.32.08-.36.09-.77.2-1.05.15-.05.04-.22.34-.33.53-.07.12-.14.25-.21.36Z" style="fill: #fff;"/>
      <path d="M106.79,89.35l-.21-1.48.34-.05c.05-.08.13-.21.24-.39.27-.48.64-1.14,1.35-1.03.11.01.45-.08.61-.12.18-.05.32-.08.42-.1.32-.06.81-.18,1.28-.3.27-.07.55-.04.78.1.36.21.49.58.56.85.08.33.14,1.24.14,1.4v.6l-.84.2c-.35.09-.76.2-1.14.2-.32,0-.66.05-.99.1-.34.05-.77.02-1.18-.01-.31-.02-.66-.05-.86-.02l-.5.07ZM110.74,87.43c-.35.09-.68.16-.92.21-.07.01-.16.04-.27.06-.18.05-.37.09-.55.13.04,0,.07,0,.1,0,.37-.05.78-.11,1.2-.11.12,0,.28-.03.45-.07,0-.08-.01-.15-.02-.21Z" style="fill: #fff;"/>
    </g>
    <g>
      <path d="M115.45,87.77c-.12,0-.24-.01-.36-.05h0c-.63-.16-1.14-.83-1.27-1.38-.18-.78.21-1.02.71-1.31l.1-.06c1.19-.71,2.23-1.17,3.6-1.58.08-.03.46-.26.57-.34.05-.04.09-.07.13-.09.09-.06.13-.09.2-.19.36-.52,1.12-.71,1.68-.41.53.28.78.89.95,1.3.16.4.33.97-.04,1.36-.11.12-.25.18-.38.24-.52.24-1.07.43-1.6.61-.86.3-1.67.58-2.39,1.04l-.26.17c-.49.33-1.03.69-1.62.69ZM115.22,87.24c.52.14,1.06-.23,1.58-.58.09-.06.18-.12.27-.18.78-.5,1.65-.8,2.5-1.1.52-.18,1.06-.37,1.56-.6.09-.04.17-.08.22-.13.13-.14.11-.41-.06-.82-.18-.45-.37-.86-.72-1.05-.34-.18-.82-.06-1.04.25-.12.17-.2.23-.33.32l-.11.08c-.08.06-.55.37-.72.42-1.32.4-2.33.84-3.48,1.54l-.1.06c-.48.28-.58.34-.48.77.1.45.52.91.91,1.01h0Z" style="fill: #fff;"/>
      <path d="M115.45,88.27c-.16,0-.33-.02-.48-.06-.85-.22-1.47-1.07-1.63-1.76-.26-1.14.43-1.55.94-1.86l.1-.06c1.23-.74,2.3-1.21,3.71-1.63.03-.02.33-.2.41-.27l.15-.1c.58-.8,1.61-1.05,2.4-.63.69.37,1,1.11,1.18,1.55.12.3.5,1.23-.15,1.9-.16.17-.35.27-.53.35-.55.25-1.13.45-1.65.63-.83.29-1.61.56-2.28.99l-.26.17c-.51.34-1.15.77-1.9.77ZM114.78,86.04s0,.04.01.07c.07.29.35.59.54.64h0c.3.08.74-.22,1.16-.5l.29-.19c.82-.53,1.73-.84,2.6-1.15.51-.18,1.04-.36,1.52-.58,0,0,0,0,0,0-.01-.06-.04-.16-.1-.31-.14-.34-.29-.69-.49-.79-.11-.06-.32,0-.39.09-.17.24-.3.34-.46.45l-.11.08h0s-.57.4-.87.49c-1.28.39-2.26.82-3.37,1.48l-.1.06c-.09.06-.2.12-.26.16Z" style="fill: #fff;"/>
    </g>
    <g>
      <path d="M124.28,83.73s-.07,0-.1-.01c-.12-.03-.22-.1-.28-.21h0s-.39-.59-.78-1.13c-.25-.25-.54-.54-.64-.84l-.07-.2.18-.1c1.87-1.04,3.67-2.22,5.36-3.53.22-.17.49-.38.83-.42.75-.09,1.25.71,1.44,1.01l.48.75c.06.09.19.29.09.52-.04.09-.11.16-.15.19-.98.89-2.08,1.65-3.28,2.24l-.34.17c-.39.19-.76.37-1.1.6-.1.07-.21.15-.33.24-.57.42-.99.71-1.31.71ZM124.32,83.25s0,0,0,0c0,0,0,0,0,0ZM124.01,82.8c.14.21.25.38.29.44.2-.02.73-.42.99-.61.12-.09.24-.18.34-.25.37-.26.78-.45,1.17-.64l.34-.17c1.15-.57,2.21-1.3,3.16-2.17.02.02,0-.01-.03-.07l-.48-.75c-.22-.36-.56-.82-.97-.78-.2.02-.39.17-.58.31-1.63,1.26-3.36,2.41-5.16,3.42.12.15.26.34.39.52.04.04.09.08.13.12l.1.1c.25.24.3.42.29.53Z" style="fill: #fff;"/>
      <path d="M124.28,84.23c-.07,0-.14,0-.2-.02-.15-.03-.29-.1-.41-.2h-.04l-.11-.16s-.03-.05-.05-.08h0c-.08-.13-.42-.63-.75-1.11-.24-.22-.57-.57-.7-.97l-.21-.59.55-.31c1.85-1.02,3.63-2.2,5.3-3.49.24-.19.6-.47,1.09-.52,1.04-.13,1.7.9,1.91,1.24l.48.76c.22.34.26.67.13.98-.08.19-.21.31-.27.37-1.02.92-2.16,1.71-3.39,2.32l-.35.17c-.38.18-.73.35-1.04.56-.1.07-.2.15-.32.23-.66.49-1.13.81-1.61.81ZM123.85,81.68s.04.05.06.08l.16.14c.23.22.38.45.43.67.13-.09.29-.21.5-.36.13-.1.25-.19.36-.26.4-.28.82-.48,1.23-.68l.34-.17c.98-.49,1.91-1.1,2.74-1.82l-.29-.45c-.34-.53-.48-.55-.49-.55-.06,0-.23.14-.33.21-1.5,1.16-3.08,2.23-4.72,3.18Z" style="fill: #fff;"/>
    </g>
    <g>
      <path d="M132.61,78.05c-.08,0-.15,0-.23-.03h0c-.52-.14-1.3-.93-1.22-1.52.07-.49.65-.93,1.12-1.29.13-.1.25-.19.33-.26,1.15-1.03,2.34-2.08,3.53-3.1.16-.14.67-.57,1.15-.31.15.08.25.2.32.3l1.15,1.52c.1.42-.07.92-.44,1.29-.29.29-.64.47-.98.65-1.32.69-2.57,1.47-3.77,2.34-.22.16-.57.42-.97.42ZM132.51,77.54c.23.06.51-.12.77-.31,1.22-.89,2.49-1.69,3.78-2.36.38-.19.68-.35.91-.58.18-.18.35-.48.31-.77l-1.07-1.37c-.05-.07-.11-.14-.17-.17-.15-.08-.41.09-.59.25-1.19,1.02-2.37,2.06-3.52,3.09-.09.08-.22.18-.36.29-.33.25-.89.68-.93.96-.04.29.53.88.86.97h0Z" style="fill: #fff;"/>
      <path d="M132.61,78.55c-.12,0-.25-.02-.36-.05-.71-.19-1.71-1.17-1.58-2.07.09-.69.77-1.21,1.32-1.62.13-.1.23-.17.3-.24,1.16-1.04,2.35-2.08,3.54-3.11.77-.66,1.36-.57,1.71-.38.24.13.39.32.48.44l1.24,1.71c.14.59-.08,1.26-.57,1.75-.34.34-.75.55-1.1.74-1.28.67-2.53,1.44-3.71,2.3-.26.19-.7.52-1.26.52ZM132.6,77.05h0ZM132.18,76.62c.09.15.32.37.44.43.05-.01.15-.07.37-.22,1.24-.91,2.53-1.71,3.85-2.4.34-.18.61-.32.79-.49.08-.08.14-.17.16-.25l-.89-1.15s-.06.05-.1.08c-1.18,1.02-2.37,2.05-3.51,3.08-.1.09-.23.19-.39.31-.15.11-.56.43-.71.62Z" style="fill: #fff;"/>
    </g>
    <g>
      <path d="M139.98,71.96s-.07,0-.1-.01c-.1-.03-.16-.1-.2-.16-.15-.14-.31-.26-.49-.4-.22-.17-.45-.34-.65-.55-.04-.04-.09-.09-.12-.18-.03-.07-.03-.13-.02-.19,0,0,0-.02-.01-.02h.02c.05-.18.24-.33.38-.44.05-.04.12-.09.14-.11.16-.19.39-.41.64-.64.27-.26.58-.55.85-.86.44-.51.98-.89,1.51-1.26l1.41-.99c.1-.07.32-.22.57-.14.16.05.25.17.32.26.31.43.82.84,1.3,1.08h.13s.07.18.07.18c.15.46-5.05,4.08-5.49,4.34-.04.02-.13.08-.24.08ZM139.04,70.46c.08.07.17.13.26.2.27.2.58.43.75.74,1.64-1.02,4.23-3.06,5.01-3.73-.47-.28-.93-.68-1.23-1.09-.03-.03-.06-.08-.08-.09,0,0-.03.02-.12.08l-1.41.99c-.5.35-1.02.72-1.42,1.18-.29.33-.6.63-.88.89-.23.22-.45.43-.6.6-.05.06-.13.12-.21.19-.02.01-.04.03-.06.05Z" style="fill: #fff;"/>
      <path d="M139.98,72.46c-.09,0-.17-.01-.25-.04-.17-.05-.32-.16-.43-.3-.13-.11-.27-.22-.41-.33-.24-.18-.49-.37-.71-.6-.05-.05-.16-.16-.23-.34-.03-.09-.05-.18-.06-.26l-.17-.35.31-.16c.13-.21.32-.35.46-.46l.09-.07c.14-.17.38-.4.64-.64.28-.27.57-.54.82-.83.48-.55,1.05-.95,1.6-1.34l1.2-.85-.43-.77.84.49c.19-.1.47-.19.8-.08.31.1.48.32.57.44.24.33.63.66,1.01.87l.37-.03.19.56c.35,1.06-5.64,4.9-5.7,4.93-.06.04-.25.15-.5.15ZM139.81,70.43c.12.09.24.19.35.31,1.34-.88,3.1-2.24,4.07-3.03-.21-.17-.41-.35-.58-.55l-1.15.81c-.48.33-.97.68-1.33,1.1-.29.34-.62.65-.91.92-.17.16-.33.31-.45.44Z" style="fill: #fff;"/>
    </g>
    <g>
      <path d="M147.27,66.63c-.06,0-.1-.01-.14-.03-.09-.04-.15-.1-.18-.15h0c-.08-.1-.18-.2-.29-.32-.41-.43-.93-.97-.88-1.52.04-.43.5-.9,1.06-1.43.11-.11.21-.2.28-.28.03-.03,2.77-2.83,3.21-2.83h.11l.09.08,1.95,2.04-.12.17c-.63.91-1.55,1.52-2.44,2.11-.86.57-1.67,1.11-2.24,1.89-.15.2-.29.25-.4.25ZM147.32,66.15l-.18.15.21-.14s-.02,0-.03-.01ZM150.28,60.64c-.54.39-2.45,2.24-2.81,2.62-.08.08-.18.18-.3.3-.31.29-.88.84-.91,1.12-.03.32.41.79.74,1.12.1.1.19.2.26.28.63-.84,1.51-1.43,2.36-2,.83-.55,1.62-1.08,2.19-1.82l-1.54-1.62Z" style="fill: #fff;"/>
      <path d="M147.27,67.13c-.11,0-.23-.02-.33-.07-.21-.08-.32-.23-.37-.29-.07-.08-.15-.17-.25-.27-.48-.5-1.11-1.16-1.04-1.94.06-.6.56-1.13,1.21-1.75.11-.1.2-.19.26-.25.29-.31,2.85-2.98,3.58-2.99h.31l.23.22,2.25,2.36-.35.5c-.68.98-1.64,1.62-2.57,2.24-.82.55-1.6,1.06-2.12,1.77-.28.38-.59.45-.8.45ZM150.24,61.32c-.73.63-2.1,1.97-2.4,2.28-.08.08-.19.19-.31.31-.46.44-.72.73-.77.85.03.08.3.36.49.56.62-.67,1.38-1.17,2.11-1.66.67-.44,1.3-.87,1.79-1.38l-.91-.96Z" style="fill: #fff;"/>
    </g>
    <g>
      <path d="M153.79,60.89l-.15-.02c-.21-.03-1.61-1.17-1.69-1.38-.21-.56.32-1.09.75-1.52.09-.09.17-.17.24-.24.94-1.04,1.94-2.03,2.99-2.96l.12-.11.15.07c.84.41,1.79.88,2.41,1.72l.09.13-.07.14c-.55,1.04-1.57,1.66-2.55,2.26-.82.5-1.67,1.02-2.21,1.78l-.09.12ZM156.13,55.26c-.99.88-1.94,1.83-2.83,2.81-.07.08-.16.17-.25.26-.29.29-.73.73-.64.98.08.11.84.71,1.2.97.59-.73,1.41-1.24,2.21-1.73.92-.56,1.78-1.09,2.29-1.93-.51-.62-1.27-1.02-1.98-1.36Z" style="fill: #fff;"/>
      <path d="M154.02,61.42l-.45-.05c-.43-.05-1.97-1.36-2.1-1.69-.33-.86.39-1.57.86-2.05.08-.08.16-.16.22-.22.95-1.05,1.97-2.06,3.03-3l.38-.33.45.22c.9.44,1.91.93,2.59,1.87l.28.38-.22.41c-.62,1.16-1.69,1.82-2.73,2.46-.78.48-1.58.97-2.06,1.64l-.26.37ZM152.98,59.15c.15.12.36.29.57.46.59-.6,1.31-1.04,2.01-1.47.74-.45,1.44-.88,1.91-1.46-.35-.32-.78-.57-1.25-.81-.88.8-1.73,1.66-2.54,2.54-.07.08-.16.17-.26.26-.11.11-.32.32-.44.48Z" style="fill: #fff;"/>
    </g>
    <g>
      <path d="M179.69,59.82l-.19-.17c-2.09-1.89-4.93-3.39-7.68-4.85-1.83-.97-3.71-1.97-5.4-3.09-.25.3-.6.68-1.05,1.17-.8.87-1.91,2.05-3.27,3.7l-.25.3-.17-.35c-.89-1.81-2.21-5.47-2.6-6.9-.08-.31-.14-.65-.2-1.01-.1-.56-.19-1.15-.4-1.59-.24-.51-.88-.74-1.56-1-.39-.14-.78-.29-1.11-.5-.89-.56-2.57-1.66-4.44-2.89-3.17-2.08-6.77-4.43-8.25-5.32l-.13-.08v-.18c.01-.37.9-.93,9.28-4.7,1.03-.46,1.88-.85,2.35-1.07,1.72-.81,3.94-1.89,6.3-3.03,7.27-3.53,16.32-7.92,20.69-9.34h0c.98-.32,2.18-1.04,3.45-1.79,1.27-.76,2.58-1.54,3.95-2.12,2.2-.93,4.53-2,6.78-3.03,3.72-1.71,7.57-3.48,11.03-4.73,1.58-.57,3.09-1.52,4.56-2.45,2.27-1.42,4.61-2.9,7.27-3.03l.47-.02-.25.4c-.5.81-1.04,1.69-1.61,2.63-3.07,5.02-6.88,11.27-10.48,16.2-3.85,5.29-7.36,10.77-10.75,16.06-5.29,8.27-10.29,16.07-16.17,22.59l-.17.19ZM166.3,51.04l.2.13c1.72,1.16,3.67,2.19,5.55,3.19,2.7,1.43,5.48,2.91,7.6,4.76,5.78-6.45,10.72-14.17,15.95-22.34,3.4-5.3,6.91-10.79,10.77-16.09,3.58-4.92,7.39-11.15,10.46-16.17.47-.78.93-1.52,1.35-2.21-2.32.26-4.38,1.55-6.54,2.91-1.49.94-3.03,1.9-4.66,2.49-3.44,1.24-7.28,3.01-10.99,4.71-2.25,1.03-4.58,2.1-6.79,3.04-1.34.57-2.63,1.34-3.89,2.09-1.3.77-2.52,1.5-3.55,1.84-4.34,1.42-13.37,5.8-20.62,9.32-2.36,1.15-4.59,2.23-6.31,3.03-.47.22-1.32.6-2.36,1.07-2.6,1.17-7.8,3.51-8.86,4.22,1.61.99,5.01,3.21,8.03,5.18,1.88,1.23,3.55,2.32,4.44,2.89.28.18.64.31,1.02.45.74.28,1.51.56,1.83,1.25.24.5.34,1.12.44,1.72.06.35.11.68.19.97.35,1.29,1.54,4.6,2.4,6.46,1.26-1.51,2.28-2.61,3.04-3.42.54-.59.94-1.01,1.16-1.31l.14-.19Z" style="fill: #fff;"/>
      <path d="M179.72,60.53l-.56-.5c-2.04-1.84-4.86-3.34-7.58-4.78-1.71-.91-3.46-1.84-5.08-2.87-.21.24-.47.52-.78.85-.8.86-1.89,2.04-3.25,3.68l-.74.9-.51-1.04c-.9-1.84-2.24-5.54-2.63-6.99-.09-.33-.15-.68-.21-1.06-.09-.54-.18-1.08-.36-1.46-.15-.32-.7-.53-1.28-.74-.41-.15-.84-.31-1.2-.55-.87-.55-2.52-1.63-4.36-2.84l-.09-.06c-3.18-2.08-6.76-4.43-8.24-5.31l-.36-.21-.02-.45c.04-.7.05-.89,9.59-5.18,1.03-.46,1.88-.84,2.34-1.06,1.71-.81,3.94-1.89,6.3-3.03,7.3-3.54,16.35-7.93,20.75-9.37.92-.3,2.1-1,3.35-1.75,1.28-.77,2.61-1.56,4.01-2.15,2.2-.93,4.52-2,6.76-3.03,3.74-1.72,7.6-3.49,11.07-4.74,1.53-.55,3.02-1.49,4.47-2.4,2.32-1.46,4.73-2.97,7.51-3.1l1.42-.07-.75,1.21c-.5.81-1.04,1.69-1.61,2.63-3.08,5.05-6.9,11.3-10.5,16.24-3.84,5.27-7.34,10.73-10.72,16.01-5.32,8.31-10.33,16.13-16.23,22.68l-.5.56ZM166.19,50.36l.59.4c1.7,1.14,3.63,2.17,5.51,3.16,2.56,1.36,5.21,2.76,7.31,4.5,5.61-6.34,10.45-13.91,15.58-21.91,3.41-5.33,6.93-10.82,10.79-16.12,3.57-4.89,7.37-11.11,10.42-16.11l.78-1.28c-1.8.46-3.49,1.52-5.26,2.64-1.51.95-3.08,1.93-4.76,2.54-3.42,1.24-7.25,2.99-10.95,4.69-2.25,1.03-4.58,2.1-6.81,3.05-1.31.55-2.59,1.32-3.83,2.06-1.33.79-2.57,1.53-3.65,1.89-4.3,1.41-13.3,5.77-20.54,9.28-2.39,1.16-4.62,2.24-6.33,3.05-.47.22-1.33.61-2.37,1.07-2.15.97-6.29,2.83-8.09,3.78,1.78,1.12,4.69,3.02,7.3,4.73,1.9,1.24,3.57,2.34,4.46,2.9.24.15.57.28.92.41.8.3,1.7.63,2.11,1.51.27.56.38,1.21.48,1.84.06.34.11.65.18.93.29,1.06,1.23,3.74,2.05,5.65,1.03-1.21,1.89-2.13,2.54-2.83.54-.58.92-.99,1.13-1.27l.43-.57Z" style="fill: #fff;"/>
    </g>
    <g>
      <path d="M164.01,50.42l-.34-.37c4.67-4.28,9.5-8.71,14.58-12.7,6.62-5.2,14.18-12.17,19.18-16.78l1.21-1.11c.5-.46.97-.91,1.44-1.35,1.25-1.2,2.44-2.33,3.76-3.26,2.12-1.49,3.62-2.7,5.53-4.43,1.02-.93,1.92-2.01,2.78-3.06.28-.34.57-.68.86-1.03-5.13,3.19-9.93,6.92-14.58,10.53-4.04,3.14-8.21,6.38-12.59,9.27-.57.38-1.16.74-1.74,1.11-1.69,1.06-3.44,2.15-4.87,3.52-1.25,1.2-2.31,2.04-3.66,3.11-.94.74-2.12,1.63-3.16,2.41-.98.74-1.91,1.43-2.48,1.89-1.15.92-2.43,1.78-3.79,2.68-2.64,1.77-5.38,3.59-7.08,5.93l-.4-.29c1.76-2.41,4.53-4.27,7.21-6.05,1.35-.9,2.62-1.75,3.75-2.66.58-.46,1.51-1.16,2.5-1.9,1.04-.78,2.22-1.67,3.16-2.41,1.34-1.06,2.39-1.9,3.62-3.08,1.47-1.4,3.24-2.51,4.95-3.58.58-.37,1.17-.73,1.73-1.1,4.37-2.88,8.53-6.11,12.56-9.24,5.1-3.96,10.37-8.06,16.08-11.44l1.58-.94-1.27,1.33c-.69.72-1.34,1.51-1.97,2.26-.88,1.06-1.79,2.16-2.83,3.11-1.93,1.75-3.44,2.96-5.58,4.47-1.29.91-2.46,2.03-3.7,3.21-.47.45-.95.9-1.44,1.36l-1.21,1.11c-5.01,4.62-12.57,11.6-19.21,16.81-5.07,3.98-9.89,8.4-14.56,12.68Z" style="fill: #fff;"/>
      <path d="M164,51.11l-1.03-1.09.37-.34c4.68-4.3,9.52-8.73,14.61-12.73,6.6-5.18,14.15-12.14,19.14-16.75l1.22-1.12c.49-.45.97-.91,1.43-1.35,1.27-1.21,2.46-2.35,3.82-3.31,2.1-1.48,3.59-2.67,5.48-4.39.5-.46.98-.96,1.44-1.48-4.07,2.73-7.96,5.75-11.73,8.69-4.05,3.14-8.23,6.39-12.63,9.29-.57.38-1.16.74-1.75,1.11-1.68,1.05-3.4,2.13-4.8,3.46-1.27,1.21-2.33,2.07-3.7,3.14-.94.74-2.12,1.63-3.16,2.41-.99.74-1.91,1.44-2.48,1.89-1.17.93-2.46,1.79-3.82,2.71-2.61,1.74-5.31,3.54-6.96,5.81l-.29.4-1.21-.88.29-.4c1.81-2.49,4.62-4.36,7.33-6.18,1.34-.89,2.6-1.74,3.72-2.63.56-.45,1.45-1.12,2.4-1.83l.11-.08c1.04-.78,2.21-1.67,3.15-2.4,1.33-1.05,2.37-1.88,3.59-3.05,1.51-1.44,3.3-2.56,5.03-3.65.59-.37,1.17-.73,1.72-1.1,4.35-2.86,8.5-6.09,12.52-9.21,5.12-3.98,10.4-8.08,16.14-11.49l4.74-2.81-3.82,3.98c-.68.7-1.32,1.48-1.93,2.23-.9,1.08-1.81,2.19-2.89,3.17-1.94,1.77-3.47,2.99-5.63,4.51-1.26.89-2.42,2-3.65,3.17-.47.45-.95.91-1.45,1.37l-1.21,1.11c-5.02,4.63-12.59,11.62-19.24,16.83-5.05,3.96-9.86,8.37-14.51,12.64l-.37.34ZM163.68,50.06l.33.36-.33-.36ZM163.67,50.05h0s0,0,0,0Z" style="fill: #fff;"/>
    </g>
    <g>
      <path d="M166.27,52.61c-.78-.29-2.26-2.56-2.27-2.58l.42-.27c.57.89,1.61,2.23,2.02,2.38l-.17.47Z" style="fill: #fff;"/>
      <path d="M166.57,53.25l-.47-.17c-.95-.35-2.36-2.53-2.52-2.78l-.27-.42,1.27-.81.27.42c.64,1,1.53,2.06,1.78,2.18l.47.17-.53,1.4Z" style="fill: #fff;"/>
    </g>
  </g>
  <g>
    <path d="M248.87,47.2l-.32-.03c-9.33-.86-18.79-.88-28.13-.06-.23.02-.67.06-.95-.23-.24-.25-.24-.61-.24-.83h0c0-.98.2-1.63.64-2.04.65-.61,1.69-.54,2.9-.46.49.03.99.07,1.52.06,2.5-.02,5.13-.02,8.05,0,.24,0,.87,0,1.76,0,14.26-.08,14.29.12,14.34.47l.45,3.12ZM234.18,46.02c4.71,0,9.43.21,14.11.63l-.34-2.36c-1.19-.25-10.68-.19-13.86-.18-.89,0-1.52,0-1.76,0-2.91-.02-5.54-.02-8.04,0-.54,0-1.06-.03-1.55-.06-1.14-.08-2.03-.13-2.52.33-.32.3-.48.85-.48,1.67h0c0,.19,0,.38.1.48.11.11.34.1.55.08,4.58-.4,9.19-.6,13.8-.6Z" style="fill: #fff;"/>
    <path d="M249.46,47.76l-.95-.09c-9.3-.86-18.73-.88-28.04-.06-.27.03-.9.08-1.35-.38-.38-.39-.39-.92-.39-1.17,0-1.13.25-1.89.79-2.4.81-.76,2.01-.68,3.27-.6h.17c.42.04.86.07,1.31.06,2.51-.02,5.14-.02,8.06,0,.18,0,.6,0,1.18,0h.57c14.7-.09,14.71.04,14.84.9l.54,3.75ZM221.63,44.51c-.5,0-.88.06-1.07.24-.21.2-.32.65-.32,1.31,0,.02,0,.05,0,.07.03,0,.06,0,.11,0,9.04-.79,18.31-.8,27.36-.03l-.2-1.36c-2.03-.18-10.39-.14-13.26-.12h-.45c-.73,0-1.26,0-1.47,0-2.91-.02-5.54-.02-8.03,0-.51.01-1.01-.02-1.49-.06-.44-.03-.83-.06-1.17-.06Z" style="fill: #fff;"/>
  </g>
  <g>
    <path d="M246.96,54.65c-1.76,0-5.29-.06-12.41-.28-6.43-.2-14.4-.5-15.71-.7l-.17-.03-.04-.17c-.17-.73-.09-1.32.22-1.77.51-.71,1.55-.9,2.39-.98,9.07-.9,18.26-.81,27.31.26l.22.03.05,3.46-.09.08s-.11.09-1.78.09ZM219.08,53.2c3.42.42,26.86,1.02,29.24.94l-.04-2.68c-8.95-1.04-18.03-1.12-26.99-.24-1.08.11-1.73.35-2.04.78-.21.29-.27.68-.18,1.19Z" style="fill: #fff;"/>
    <path d="M246.96,55.15c-2.14,0-6.32-.09-12.43-.28-2.33-.07-14.05-.44-15.77-.7l-.5-.08-.11-.5c-.2-.88-.1-1.61.31-2.17.63-.88,1.8-1.1,2.75-1.19,9.12-.9,18.34-.81,27.42.26l.65.08.06,4.13-.26.23c-.18.16-.25.22-2.11.22ZM219.54,52.75c4.37.4,24.39.91,28.28.91l-.02-1.74c-8.78-.99-17.67-1.05-26.45-.19-.91.09-1.47.28-1.68.57-.08.11-.12.26-.13.45Z" style="fill: #fff;"/>
  </g>
  <g>
    <path d="M297.31,60.07c-1.36,0-2.62-.16-3.59-1.4-.56-.71-.9-1.7-1.24-2.65-.21-.6-.41-1.16-.65-1.64-.44-.9-.86-1.81-1.26-2.69-.97-2.11-1.88-4.1-3.12-5.92-.54-.78-1.12-1.54-1.68-2.28-1.95-2.57-3.97-5.22-4.4-9-.25-2.22.12-4.77,1.13-7.8.54-1.61.93-2.12,1.73-3.15l.35-.45c1.99-3.62,2.96-4.26,3.99-4.94.37-.24.75-.49,1.19-.89,2.11-1.9,3.95-3.38,6.88-3.63.63-.06,1.28-.12,1.94-.18,2.1-.2,4.28-.41,6.31-.43.02,0,.04,0,.06,0,2.14,0,4.46,1.09,6.51,2.04.46.21.9.42,1.33.61,4.61,2.03,8.98,6.95,10.63,11.94.82,2.48,1.29,6.23.52,9.04-.42,1.51-1.29,2.71-2.13,3.87-.52.71-1.05,1.45-1.47,2.25-.72,1.36-1.78,2.61-2.81,3.82-1.09,1.28-2.21,2.6-2.9,4.02-.61,1.25-1.14,2.75-1.65,4.2-.52,1.47-1.01,2.86-1.52,3.79,0,0,0,.05,0,.12,0,.09.02.22-.04.37l-.06.16h-.17c-2.07-.03-4.21.19-6.27.39-2,.2-4.08.4-6.14.4-.26,0-.51,0-.76,0-.23,0-.46,0-.69,0ZM304.95,13.52s-.04,0-.06,0c-2.01.02-4.18.23-6.27.43-.66.06-1.31.12-1.94.18-2.77.24-4.55,1.67-6.59,3.51-.47.42-.86.68-1.25.94-1.02.67-1.9,1.26-3.84,4.78l-.02.03-.36.47c-.78,1.01-1.14,1.48-1.65,3-.99,2.96-1.35,5.44-1.1,7.58.41,3.64,2.3,6.12,4.3,8.75.57.74,1.15,1.51,1.69,2.3,1.27,1.85,2.19,3.86,3.17,5.99.4.88.82,1.78,1.26,2.67.25.51.47,1.12.67,1.7.32.92.66,1.87,1.16,2.51.98,1.26,2.26,1.23,3.88,1.2.25,0,.51,0,.77,0,2.04,0,4.1-.2,6.1-.4,1.98-.19,4.03-.4,6.05-.4h.05c0-.09-.01-.22.04-.35.51-.93.99-2.3,1.5-3.75.52-1.46,1.05-2.97,1.67-4.25.72-1.48,1.86-2.83,2.97-4.13,1.01-1.19,2.06-2.42,2.75-3.73.44-.83.98-1.59,1.51-2.31.85-1.18,1.66-2.29,2.05-3.71.75-2.71.28-6.34-.51-8.75-1.61-4.87-5.87-9.66-10.36-11.64-.43-.19-.88-.4-1.34-.61-2-.94-4.27-2-6.3-2Z" style="fill: #fff;"/>
    <path d="M297.31,60.57c-1.32,0-2.83-.12-3.99-1.59-.61-.77-.97-1.8-1.32-2.79-.2-.58-.4-1.13-.62-1.59-.45-.9-.86-1.82-1.27-2.7-.96-2.09-1.86-4.07-3.08-5.84-.53-.77-1.11-1.53-1.66-2.26-1.99-2.62-4.05-5.33-4.5-9.24-.26-2.29.12-4.92,1.15-8.01.56-1.69,1-2.26,1.8-3.3l.34-.45c2.01-3.66,3.03-4.34,4.11-5.05.37-.24.71-.47,1.13-.84,2.18-1.97,4.09-3.49,7.17-3.76.63-.06,1.28-.12,1.94-.18,2.11-.2,4.3-.41,6.36-.43h0c2.32,0,4.69,1.11,6.79,2.09.46.21.9.42,1.32.61,4.73,2.09,9.21,7.12,10.9,12.25.84,2.55,1.33,6.42.52,9.33-.44,1.59-1.33,2.83-2.2,4.03-.51.7-1.03,1.42-1.44,2.2-.74,1.41-1.83,2.68-2.87,3.91-1.07,1.25-2.17,2.55-2.83,3.92-.6,1.23-1.12,2.71-1.63,4.14-.5,1.43-.98,2.77-1.49,3.74.01.15,0,.34-.07.55l-.19.48h-.52c-2-.04-4.08.18-6.09.37h-.13c-2.02.21-4.1.42-6.19.42-.26,0-.51,0-.75,0-.24,0-.47,0-.7,0ZM304.95,13.52l-.02.5c-2.02.02-4.18.23-6.26.42-.66.06-1.31.12-1.95.18-2.62.23-4.33,1.6-6.3,3.38-.5.45-.91.72-1.31.98-.97.64-1.8,1.19-3.68,4.6l-.06.09-.36.47c-.77,1-1.09,1.41-1.57,2.86-.96,2.89-1.32,5.3-1.08,7.37.4,3.5,2.25,5.93,4.2,8.5.57.75,1.16,1.52,1.71,2.32,1.29,1.88,2.22,3.91,3.21,6.06.4.88.81,1.78,1.25,2.66.27.54.48,1.16.69,1.76.31.88.63,1.79,1.08,2.37.83,1.06,1.89,1.04,3.48,1.01.26,0,.52,0,.78,0,2.02,0,4.07-.2,6.05-.4,1.87-.18,3.79-.37,5.71-.4,0-.01,0-.03.01-.04.51-.95.99-2.3,1.49-3.73.52-1.48,1.06-3,1.69-4.31.75-1.54,1.91-2.91,3.04-4.23,1-1.17,2.03-2.38,2.69-3.64.46-.87,1.01-1.63,1.55-2.37.83-1.14,1.6-2.22,1.97-3.55.72-2.6.27-6.12-.5-8.46-1.57-4.75-5.72-9.42-10.09-11.34-.43-.19-.88-.4-1.34-.62-1.96-.92-4.18-1.95-6.1-1.95v-.5Z" style="fill: #fff;"/>
  </g>
  <g>
    <path d="M287.18,34.3c-.5,0-.88-.17-1.12-.52-1.52-2.2,3.86-11.05,4.36-11.72h0c.67-.91,1.59-2.07,2.76-3.02,1.24-1,2.72-1.72,4.27-2.08.56-.13,1.39-.27,2.17-.03.68.21,1.41.81,1.49,1.66.11,1.08-.76,1.97-2.56,2.66-1.59.6-3.23,1.29-4.34,2.54-.71.79-1.18,1.8-1.64,2.77l-.06.13c-.97,2.06-2.01,4.11-3.1,6.11-.31.57-.69,1.18-1.35,1.37-.33.09-.63.14-.89.14ZM290.83,22.35c-.98,1.32-5.55,9.41-4.35,11.14.23.33.72.39,1.46.18.47-.13.78-.63,1.05-1.13,1.08-1.99,2.12-4.03,3.09-6.08l.06-.13c.47-1,.96-2.04,1.72-2.89,1.18-1.33,2.89-2.05,4.54-2.67,1.57-.59,2.32-1.31,2.24-2.14-.05-.53-.52-1.04-1.14-1.23-.67-.21-1.41-.08-1.92.04-1.48.34-2.89,1.02-4.07,1.98-1.12.91-2.02,2.04-2.67,2.93h0Z" style="fill: #fff;"/>
    <path d="M287.18,34.8c-.84,0-1.29-.4-1.53-.73-1.86-2.68,4.3-12.22,4.37-12.31.69-.93,1.64-2.13,2.85-3.11,1.3-1.05,2.85-1.81,4.48-2.18.62-.14,1.54-.3,2.43-.02.84.26,1.74,1.01,1.84,2.09.13,1.33-.84,2.4-2.88,3.17-1.53.58-3.11,1.24-4.14,2.4-.66.74-1.12,1.71-1.56,2.65l-.06.13c-.98,2.07-2.03,4.14-3.12,6.13-.26.47-.74,1.35-1.66,1.61-.37.11-.72.16-1.02.16ZM298.7,17.8c-.37,0-.74.07-1.02.14-1.41.32-2.75.97-3.87,1.88-1.08.87-1.95,1.97-2.58,2.83-1.39,1.88-5.23,9.29-4.34,10.56.06.09.34.15.91-.01.29-.08.54-.5.75-.89,1.08-1.98,2.11-4.02,3.08-6.06l.06-.13c.49-1.03.99-2.1,1.79-3.01,1.26-1.41,3.03-2.16,4.73-2.81.75-.28,1.99-.87,1.92-1.62-.03-.33-.37-.67-.79-.8-.2-.06-.42-.09-.64-.09ZM290.83,22.35h0Z" style="fill: #fff;"/>
  </g>
  <g>
    <path d="M299.13,59.1c-.17,0-.32-.04-.47-.12-1.2-.68-.88-3.99-.37-7.92.13-1.02.25-1.91.24-2.33-.02-1.41-.05-2.78-.09-4.13-.09-3.35-.17-6.52.03-9.62.01-.17.01-.33.02-.49.01-.61.03-1.19.41-1.77.31-.47,1.1-.68,1.68-.71.33-.02,1.14-.01,1.53.45.23.27.3.57.35.82.06.27.1.38.21.43.08-.12.17-.29.27-.46.21-.38.44-.78.64-.96.45-.4,1.34-.33,1.97-.11.6.21.98.56,1.05.96.22,1.24.19,2.88.17,4.33,0,.53-.01,1.03,0,1.48.02,1.92-.03,4.16-.09,6.53-.1,4.33-.21,8.81.09,12.25.04.49-.03.81-.23,1.01-.27.27-.7.23-1.19.19-.36-.03-.76-.07-1.2,0l-.3.04v-.3c.34-7.42.23-13.8-.35-20.08-.03-.31-.04-.63-.05-.95-.06-1.52-.17-2.47-1.12-2.76-.42.84-.67,6.94-.78,9.59-.05,1.3-.09,2.23-.13,2.55-.04.39-.08,1.42-.12,2.72-.17,5.48-.35,8.34-.89,8.77-.5.4-.93.59-1.3.59ZM300.78,32.5c-.05,0-.11,0-.17,0-.58.03-1.13.24-1.29.49-.3.46-.31.94-.32,1.5,0,.17,0,.34-.02.51h0c-.19,3.08-.11,6.23-.02,9.57.03,1.35.07,2.72.09,4.13,0,.46-.1,1.32-.25,2.4-.31,2.4-.89,6.86.12,7.43.32.18.83-.13,1.21-.43.46-.45.62-5.81.7-8.39.04-1.31.07-2.35.12-2.76.03-.3.07-1.28.12-2.52.3-7.41.54-9.75,1.04-10.05.1-.06.22-.06.32-.01,1.41.34,1.47,1.87,1.53,3.22.01.31.02.62.05.93.57,6.22.69,12.53.38,19.86.38-.03.73,0,1.02.03.36.03.68.06.79-.05.06-.06.12-.21.08-.61-.31-3.47-.2-7.96-.1-12.31.06-2.36.11-4.6.09-6.51,0-.45,0-.96.01-1.49.02-1.43.04-3.04-.16-4.23-.04-.21-.31-.43-.73-.57-.57-.2-1.23-.19-1.48.02-.14.12-.36.51-.53.83-.15.27-.29.51-.4.65l-.09.11-.14-.02c-.59-.07-.7-.52-.77-.85-.05-.21-.1-.43-.25-.61-.15-.17-.51-.28-.95-.28ZM302.25,34.86s.01,0,.02,0c0,0-.01,0-.02,0Z" style="fill: #fff;"/>
    <path d="M299.13,59.6c-.25,0-.49-.06-.71-.19-1.48-.84-1.19-4.02-.62-8.42.12-.96.24-1.87.24-2.26-.02-1.41-.05-2.78-.09-4.12-.09-3.36-.17-6.54.03-9.66,0-.15.01-.3.02-.44.01-.69.03-1.37.49-2.07.41-.63,1.34-.9,2.07-.94.62-.03,1.46.05,1.94.63.12.14.2.28.27.42.16-.26.31-.48.49-.64.65-.57,1.73-.46,2.47-.21.77.27,1.28.76,1.38,1.34.22,1.29.2,2.95.18,4.42,0,.55-.01,1.03,0,1.47.02,1.94-.03,4.17-.09,6.55-.1,4.32-.21,8.78.09,12.19.04.41.04,1-.37,1.41-.44.44-1.04.38-1.58.34-.33-.03-.71-.07-1.09,0l-.9.13.04-.9c.33-7.4.21-13.76-.36-20.01-.03-.32-.04-.65-.06-.98-.04-1.02-.11-1.62-.31-1.96-.2,1.23-.39,4.18-.58,8.79-.06,1.37-.09,2.25-.13,2.59-.04.36-.07,1.41-.11,2.62-.21,6.88-.42,8.68-1.08,9.2-.6.47-1.12.7-1.61.7ZM305.77,58.13h0ZM300.78,33h-.14c-.51.03-.85.21-.91.28-.22.33-.23.71-.24,1.23,0,.17,0,.35-.02.53-.19,3.05-.11,6.19-.02,9.52.04,1.4.07,2.76.09,4.15,0,.5-.11,1.37-.25,2.47-.69,5.35-.45,6.72-.13,6.93.02,0,.22-.06.59-.34.35-.81.52-6.25.57-8.06.04-1.4.07-2.38.12-2.8.03-.29.07-1.3.12-2.48.25-6.28.46-8.69.78-9.71l-.89-.79,1.14.26s.06-.08.1-.11c-.12-.22-.17-.44-.2-.59-.04-.17-.07-.31-.14-.4-.03-.03-.23-.1-.57-.1ZM304.9,57.9c.19,0,.36.02.51.04.12.01.25.02.36.03,0-.04,0-.09,0-.14-.31-3.5-.2-8-.1-12.36.06-2.36.11-4.58.09-6.49,0-.46,0-.97.01-1.5.02-1.41.04-3-.16-4.14,0,.02-.13-.09-.4-.19-.45-.16-.89-.13-.99-.07-.08.08-.31.49-.42.68-.13.24-.25.44-.36.6.17.14.31.3.42.48l1.73.53h-1.47c.26.7.29,1.53.32,2.23.01.32.02.62.05.9.56,6.1.69,12.28.4,19.4ZM305.95,57.96h0Z" style="fill: #fff;"/>
  </g>
  <g>
    <path d="M308.87,63.77c-.94,0-1.89-.12-2.83-.23-.42-.05-.83-.1-1.24-.14-1.76-.17-3.56-.12-5.31-.07-1.66.04-3.38.09-5.07-.05-.15-.01-.44-.04-.63-.25-.17-.2-.17-.46-.17-.62,0-.45.08-1.15.16-1.82.08-.66.16-1.34.16-1.76h.5c0,.45-.08,1.15-.16,1.82-.08.66-.16,1.34-.16,1.76,0,.09,0,.24.05.29.05.06.21.07.29.08,1.66.14,3.37.09,5.01.05,1.76-.05,3.58-.1,5.37.08.41.04.83.09,1.25.14,1.49.18,3.03.37,4.41.07.62-.14,1.03-.76.9-1.39-.04-.19-.07-.39-.1-.58-.08-.44-.15-.86-.28-1.19-.03-.06-.04-.15-.06-.4-.01-.13-.04-.36-.06-.47l-.14-.09.12-.2c.06-.1.19-.21.39-.18v.12c.11.1.14.29.19.78.01.12.02.23.03.27.15.36.22.81.3,1.28.03.19.06.38.1.56.18.89-.4,1.78-1.29,1.98-.57.12-1.15.17-1.75.17ZM311.24,58.99v.11s.05,0,.09-.06l-.09-.05Z" style="fill: #fff;"/>
    <path d="M308.87,64.27c-.96,0-1.93-.12-2.88-.23-.44-.05-.85-.1-1.24-.14-1.73-.17-3.52-.12-5.25-.07-1.69.05-3.41.09-5.12-.05-.19-.02-.64-.05-.96-.42-.3-.34-.3-.75-.3-.95,0-.48.08-1.18.16-1.87.08-.66.15-1.33.16-1.71v-.5s1.5,0,1.5,0v.5c0,.48-.09,1.22-.17,1.88-.07.59-.14,1.19-.15,1.59,1.6.12,3.25.08,4.84.04,1.78-.05,3.62-.1,5.44.08.42.04.84.09,1.26.14,1.45.18,2.95.36,4.24.07.36-.08.59-.44.52-.8-.04-.2-.07-.4-.11-.59-.07-.41-.14-.81-.25-1.08-.06-.14-.07-.27-.1-.54,0-.06-.01-.15-.02-.22l-.35-.23.37-.61c.09-.15.21-.26.36-.34v-.03s.03.02.03.02c.15-.07.32-.09.5-.07l.48.07-.05.4c.03.06.06.13.08.2l.14.08-.09.15c.02.13.03.27.05.43.01.12.02.18.02.22.14.33.22.8.31,1.3.03.18.06.37.1.55.23,1.16-.52,2.31-1.67,2.56-.56.12-1.17.18-1.86.18ZM294.4,62.26h0Z" style="fill: #fff;"/>
  </g>
  <g>
    <path d="M307.22,67.31c-.29,0-.57-.01-.81-.04h0c-2.02-.2-4.16-.25-6.22-.29-1.93-.04-3.93-.08-5.83-.26-.98-.09-1.38-.73-1.33-1.32.05-.69.66-1.39,1.63-1.32.47.02,1.52.03,2.64.04,1.16,0,2.47.02,3.38.05,1.19.04,2.38.04,3.52.05,2.36,0,4.8.02,7.26.33l.15.02.05.15c.09.26.18.51.27.75.12.32.09.68-.08.98-.18.3-.47.5-.81.54-.95.14-2.55.33-3.82.33ZM306.45,66.78c1.25.12,3.36-.13,4.51-.3.19-.03.36-.14.46-.3.1-.17.12-.36.05-.54-.08-.2-.15-.4-.23-.61-2.37-.29-4.64-.3-7.05-.3-1.15,0-2.34,0-3.54-.05-.9-.03-2.22-.04-3.37-.05-1.17,0-2.19-.01-2.66-.04-.66-.02-1.07.41-1.1.86-.03.44.3.73.88.79,1.88.17,3.87.21,5.8.25,2.08.05,4.22.09,6.26.3h0Z" style="fill: #fff;"/>
    <path d="M307.22,67.81c-.31,0-.6-.01-.86-.04-2-.2-4.12-.25-6.18-.29-1.96-.04-3.96-.09-5.87-.26-1.31-.12-1.85-1.04-1.79-1.85.07-.95.89-1.87,2.16-1.79.45.02,1.5.03,2.61.04,1.23,0,2.51.02,3.4.05,1.18.04,2.37.04,3.51.05,2.38,0,4.83.02,7.32.33l.46.06.15.44c.09.25.17.48.26.71.19.49.14,1-.11,1.43-.25.43-.68.72-1.17.79-.88.13-2.57.34-3.89.34ZM306.51,66.28c1.2.12,3.26-.13,4.39-.29.04,0,.08-.03.1-.06.02-.04.02-.08,0-.11-.04-.11-.08-.22-.12-.33-2.24-.25-4.4-.26-6.68-.27-1.16,0-2.35,0-3.55-.05-.88-.03-2.14-.04-3.27-.05-1.27,0-2.29-.02-2.78-.04-.4-.03-.57.23-.58.39-.01.18.23.23.43.25,1.87.17,3.85.21,5.76.25,2.1.05,4.25.09,6.3.3h0Z" style="fill: #fff;"/>
  </g>
  <g>
    <path d="M302.73,78.45c-.46,0-.92-.07-1.36-.2-1.38-.42-2.11-1.37-2.89-2.38-.48-.62-.98-.87-1.61-1.19-.24-.12-.5-.25-.77-.41-1.3-.76-3.72-3.91-2.83-5.78.44-.93,1.99-.84,3.35-.76.56.04,1.09.07,1.4,0,1.49-.27,3.03-.16,4.53-.05.66.05,1.35.1,2.02.11.13,0,.58-.02,1.16-.05,4.11-.23,5.53-.21,5.84.07l.08.07.03.15c.05,1.05.06,2.55-.18,3.67-.19.9-.97,1.8-2.4,2.76-.7.47-1.53.66-2.31.76v.14c-.02.86-.57,1.72-1.48,2.31-.77.5-1.68.76-2.6.76ZM298.93,75.64c.73.95,1.39,1.77,2.58,2.14,1.18.36,2.5.17,3.54-.5.66-.43,1.1-1.02,1.21-1.61-.52.04-1.01,0-1.49-.05-.57-.05-1.12-.1-1.69-.01-.49.07-.78.06-1.17.04h-.33c-.67-.04-1.8-.08-2.64,0ZM298.01,74.75c1.02.2,2.94.24,3.77.25,1.49.03,2.99-.04,4.47-.2.85-.09,1.82-.24,2.58-.74,1.31-.88,2.02-1.68,2.19-2.45.22-1.04.22-2.42.17-3.44-.64-.19-4.09,0-5.42.07-.63.04-1.06.05-1.2.06-.69-.02-1.38-.06-2.05-.11-1.53-.11-2.98-.21-4.4.05-.37.07-.91.04-1.52,0-1.15-.07-2.57-.15-2.87.47-.71,1.48,1.36,4.39,2.63,5.13.26.15.51.28.74.39.32.16.62.31.92.52Z" style="fill: #fff;"/>
    <path d="M302.73,78.95c-.51,0-1.02-.07-1.51-.22-1.53-.47-2.35-1.53-3.14-2.55-.41-.53-.82-.74-1.44-1.05-.26-.13-.52-.26-.8-.42-1.41-.82-4.09-4.19-3.03-6.42.59-1.23,2.31-1.13,3.82-1.04.47.03,1.04.06,1.29.02,1.55-.28,3.13-.17,4.66-.06.67.05,1.34.1,2,.11.1,0,.55-.02,1.12-.05,4.86-.27,5.77-.19,6.2.2l.2.18.06.31c.06,1.16.07,2.7-.18,3.88-.22,1.03-1.07,2.04-2.61,3.07-.68.46-1.45.67-2.11.78-.12.93-.73,1.82-1.68,2.44-.85.55-1.84.84-2.87.84ZM299.94,76.1c.47.54.98.97,1.72,1.2,1.04.32,2.21.15,3.12-.44.3-.2.55-.43.73-.68-.26-.01-.52-.03-.77-.06-.55-.05-1.06-.09-1.58-.02-.55.08-.87.07-1.27.05h-.33c-.42-.03-1.02-.05-1.61-.05ZM298.21,74.28c1.01.17,2.81.21,3.59.23,1.46.03,2.94-.04,4.41-.2.79-.09,1.69-.22,2.35-.66,1.18-.79,1.84-1.51,1.98-2.14.18-.86.2-1.99.18-2.9-.58-.04-1.93-.03-4.91.14-.65.04-1.08.05-1.22.06-.71-.02-1.41-.07-2.09-.11-1.5-.11-2.92-.21-4.28.04-.43.08-.99.04-1.64,0-.62-.04-2.24-.13-2.39.19-.53,1.11,1.22,3.78,2.43,4.48.25.15.49.27.71.38.3.15.6.3.89.49Z" style="fill: #fff;"/>
  </g>
  <g>
    <path d="M320.98,15.53c-.45,0-.87-.11-1.21-.33-.97-.62-1.17-1.94-.86-2.92.31-1,1.02-1.78,1.73-2.49.37-.37.69-.68,1.04-.96h0c.81-.64,1.9-1.33,3.13-1,1.77.46,1.88,1.17,1.72,2.67-.06.52-.12,1.1-.39,1.61-.3.55-.8.94-1.24,1.28l-1.02.79c-.56.44-1.15.89-1.85,1.15-.35.13-.7.19-1.04.19ZM321.98,9.22c-.33.26-.64.56-.99.92-.66.67-1.33,1.39-1.61,2.29-.24.78-.09,1.87.66,2.35.47.3,1.15.33,1.81.09.63-.23,1.18-.66,1.72-1.07l1.02-.79c.4-.31.86-.66,1.11-1.13.23-.42.28-.93.34-1.43.15-1.41.04-1.77-1.35-2.14-1.02-.27-1.97.35-2.69.91h0Z" style="fill: #fff;"/>
    <path d="M320.98,16.03c-.55,0-1.06-.14-1.48-.41-1.18-.75-1.43-2.32-1.07-3.49.34-1.11,1.1-1.94,1.85-2.7.38-.39.71-.7,1.09-1,.9-.71,2.12-1.47,3.57-1.09,2.2.58,2.25,1.69,2.09,3.21-.06.53-.13,1.2-.45,1.8-.35.65-.92,1.09-1.38,1.44l-1.02.79c-.6.46-1.21.94-1.98,1.22-.4.15-.81.22-1.21.22ZM322.29,9.61h0c-.31.25-.61.53-.95.88-.62.62-1.24,1.3-1.48,2.08-.19.61-.07,1.45.45,1.78.33.21.86.23,1.37.04.56-.2,1.08-.61,1.58-.99l1.03-.8c.36-.28.78-.6.97-.97.18-.34.23-.8.28-1.24.13-1.26.1-1.32-.98-1.6-.8-.21-1.63.33-2.25.82Z" style="fill: #fff;"/>
  </g>
  <g>
    <path d="M332.94,33.92c-.36,0-.7-.06-1.04-.11-.25-.04-.5-.08-.76-.1-.28-.02-.56,0-.85.01-.31.02-.64.03-.96,0-.8-.06-1.44-.4-1.75-.92-.45-.75-.17-1.65.2-2.51l.45-1.06c.07-.16.15-.36.33-.5h0c1.17-.96,5.3.06,6.42.78,1.02.66,2.03,1.77,1.53,2.74-.49.94-2.54,1.64-3.47,1.67-.03,0-.06,0-.09,0ZM330.86,33.2c.1,0,.21,0,.31,0,.27.02.54.06.81.11.36.06.69.12,1.03.1.79-.02,2.66-.67,3.04-1.4.38-.72-.72-1.68-1.35-2.08-1.08-.69-4.92-1.56-5.83-.82-.08.07-.13.19-.18.31l-.45,1.06c-.32.74-.56,1.5-.23,2.06.32.54,1.06.65,1.36.68.29.02.59,0,.9,0,.2,0,.4-.02.6-.02Z" style="fill: #fff;"/>
    <path d="M332.94,34.42c-.4,0-.76-.06-1.12-.12-.25-.04-.48-.08-.71-.09-.26-.02-.51,0-.78,0-.35.02-.7.03-1.05,0-.96-.07-1.74-.5-2.14-1.16-.56-.95-.23-2.03.17-2.96l.46-1.06c.08-.19.2-.47.47-.69,1.5-1.23,5.94.06,7.01.75,1.2.77,2.36,2.12,1.7,3.39-.6,1.15-2.86,1.91-3.9,1.94h-.1ZM330.86,32.7c.11,0,.23,0,.35.01.29.02.57.06.86.11.39.06.67.11.93.1.77-.02,2.38-.67,2.62-1.13.14-.26-.44-.96-1.18-1.43-1.09-.7-4.62-1.36-5.25-.85,0-.01-.02.07-.04.12l-.46,1.06c-.25.59-.48,1.24-.26,1.61.17.28.61.41.96.43.27.02.53,0,.81,0,.23-.01.44-.02.65-.02Z" style="fill: #fff;"/>
  </g>
  <g>
    <path d="M326.29,56.04c-.14,0-.29-.01-.43-.03-1.14-.14-2.57-.43-3.56-1.41-.53-.53-.87-1.19-1.2-1.84-.18-.36-.37-.73-.58-1.06h0c-.13-.2-.29-.35-.47-.51-.28-.26-.57-.52-.68-.95-.09-.33.12-1.72.41-2.22.09-.15.19-.23.31-.26,1.15-.28,2.23.36,2.78.76.39.28.74.61,1.08.93.32.3.66.61,1.01.87.14.11.29.21.44.31.4.27.81.55,1.13.94.61.73.78,1.73.92,2.53.1.59.16,1.31-.37,1.71-.23.18-.51.23-.8.23ZM320.94,51.43c.23.35.42.74.61,1.1.32.64.63,1.24,1.1,1.71.89.88,2.21,1.14,3.27,1.27.38.05.67.05.86-.1.31-.24.26-.78.18-1.23-.14-.78-.29-1.66-.82-2.3-.28-.33-.64-.58-1.03-.85-.16-.11-.31-.21-.46-.32-.37-.28-.72-.6-1.05-.91-.33-.31-.67-.62-1.04-.89-.48-.35-1.42-.91-2.36-.68-.17.16-.42,1.6-.36,1.87.08.29.29.48.53.71.19.18.39.36.55.61h0Z" style="fill: #fff;"/>
    <path d="M326.29,56.54c-.16,0-.33-.01-.49-.03-1.21-.15-2.75-.46-3.85-1.56-.59-.59-.95-1.29-1.29-1.97-.17-.34-.35-.69-.56-1.01-.09-.14-.23-.27-.39-.42-.3-.28-.67-.62-.82-1.2-.13-.48.11-2.01.47-2.6.16-.26.37-.43.62-.49,1.35-.33,2.58.39,3.2.84.41.3.77.63,1.12.96.32.29.64.59.97.84.14.1.28.2.43.3.41.28.87.59,1.23,1.04.69.84.88,1.9,1.03,2.76.08.43.28,1.56-.56,2.2-.29.23-.66.34-1.1.34ZM321.36,51.15c.24.38.44.77.63,1.15.31.6.59,1.17,1.01,1.58.78.77,2,1.01,2.98,1.13.41.05.49,0,.5,0,0,0,.11-.11,0-.75-.13-.72-.27-1.53-.71-2.06-.23-.28-.55-.5-.92-.75-.16-.11-.33-.22-.48-.34-.39-.29-.74-.62-1.08-.93-.33-.3-.66-.61-1-.86-.37-.27-1.06-.69-1.75-.63-.07.3-.21,1.13-.19,1.33.03.1.16.23.38.43.2.19.44.4.63.71h0Z" style="fill: #fff;"/>
  </g>
  <g>
    <path d="M272.64,34.69c-.26,0-.53,0-.8-.03-.43-.03-.99-.1-1.51-.35-.55-.26-1.05-.71-1.55-1.42-.32-.46-.75-1.15-.73-1.94.04-1.25,1.17-2.13,2.27-2.37h0c2.87-.62,5.26.99,7.26,2.55.28.22.66.51.8.95.2.63-.18,1.27-.62,1.59-.44.32-.96.45-1.51.56-1.09.23-2.35.44-3.62.44ZM271.62,28.96c-.38,0-.78.04-1.18.13h0c-.89.19-1.85.92-1.88,1.9-.01.48.19,1,.64,1.63.45.63.88,1.03,1.36,1.25.44.21.94.27,1.33.3,1.49.11,3-.14,4.28-.4.51-.1.95-.21,1.31-.48.31-.23.56-.66.44-1.04-.09-.27-.33-.48-.63-.71-1.7-1.32-3.52-2.58-5.67-2.58Z" style="fill: #fff;"/>
    <path d="M272.64,35.19c-.28,0-.56,0-.83-.03-.47-.04-1.09-.11-1.68-.4-.63-.3-1.19-.8-1.74-1.58-.37-.52-.85-1.31-.82-2.24.04-1.5,1.38-2.57,2.67-2.84,3.08-.67,5.58,1.01,7.67,2.64.31.24.78.6.97,1.19.27.86-.22,1.72-.79,2.15-.52.39-1.13.53-1.7.65-1.09.22-2.38.45-3.73.45ZM271.62,29.46c-.35,0-.72.04-1.08.12-.71.15-1.46.72-1.48,1.42-.01.37.16.79.55,1.32.4.56.77.91,1.16,1.09.37.17.81.23,1.15.25,1.43.11,2.89-.14,4.14-.4.45-.09.84-.19,1.11-.39.17-.13.3-.36.26-.49-.05-.14-.29-.34-.46-.46-1.61-1.25-3.35-2.48-5.36-2.48Z" style="fill: #fff;"/>
  </g>
  <g>
    <path d="M303.44,8.89c-.75,0-1.46-.59-1.87-1.27-.75-1.24-.93-2.74-1.01-4.17h0c0-.15-.04-.37-.07-.62-.13-1.02-.21-1.9.04-2.33.5-.84,1.27-.43,1.83-.13.11.06.22.12.34.18.33.16.64.32.9.57.26.25.44.57.58.87.69,1.4,1.02,2.96.97,4.52-.02.58-.19,1.98-1.29,2.32-.14.04-.28.06-.42.06ZM301.06,3.42c.08,1.37.24,2.8.94,3.94.37.61,1.07,1.18,1.71.99.82-.25.93-1.49.94-1.86.05-1.47-.26-2.95-.91-4.28-.13-.26-.27-.53-.48-.73-.21-.2-.48-.34-.77-.48-.12-.06-.24-.12-.36-.19-.71-.38-.94-.43-1.16-.06-.19.32-.06,1.38.02,2.02.03.26.06.49.07.65h0Z" style="fill: #fff;"/>
    <path d="M303.44,9.39c-1.01,0-1.85-.78-2.29-1.51-.81-1.33-1-2.9-1.08-4.4,0-.14-.03-.33-.06-.55-.15-1.18-.23-2.1.1-2.67.74-1.26,1.97-.6,2.5-.32.11.06.21.11.32.17.36.18.72.36,1.03.66.32.31.52.66.68,1,.73,1.47,1.08,3.12,1.02,4.75-.03.69-.24,2.35-1.65,2.78-.18.06-.37.09-.57.09ZM301.56,3.4c.07,1.31.23,2.66.87,3.71.28.46.79.87,1.14.77.43-.13.57-.94.59-1.4.05-1.39-.25-2.79-.86-4.04-.11-.22-.23-.44-.38-.59-.16-.15-.39-.27-.64-.39-.13-.06-.25-.13-.38-.2-.22-.12-.38-.19-.48-.23-.09.37.03,1.35.07,1.68.03.28.06.52.07.69h0Z" style="fill: #fff;"/>
  </g>
  <g>
    <path d="M280.01,55.48c-.66,0-1.3-.16-1.84-.47-.53-.31-.87-.73-.96-1.18-.15-.71.3-1.36.76-1.74.3-.25.64-.43.97-.6.18-.1.37-.2.54-.3.55-.34.94-.9,1.32-1.45.35-.51.72-1.04,1.22-1.38.42-.29,2.39-.39,3.11.02.32.18.36.43.36.56-.06,1.33-.45,2.63-1.14,3.77-.48.79-1.32,1.86-2.61,2.43-.56.25-1.15.37-1.73.37ZM283.61,48.59c-.6,0-1.18.08-1.31.17-.43.29-.75.76-1.09,1.26-.41.59-.82,1.19-1.46,1.59h0c-.19.11-.38.22-.57.32-.32.17-.62.33-.89.55-.35.29-.69.77-.59,1.25.09.43.49.72.73.85.88.51,2.07.54,3.12.08,1.17-.52,1.95-1.5,2.38-2.23.64-1.07,1.01-2.29,1.07-3.53,0-.03-.05-.07-.1-.1-.27-.15-.78-.21-1.28-.21Z" style="fill: #fff;"/>
    <path d="M280.01,55.98c-.76,0-1.48-.19-2.09-.54-.65-.38-1.08-.92-1.2-1.52-.19-.93.36-1.76.94-2.23.34-.28.7-.47,1.04-.65.18-.1.35-.19.52-.29.46-.29.82-.8,1.17-1.31.36-.53.78-1.12,1.36-1.52.61-.41,2.77-.49,3.64,0,.58.32.62.82.61,1.01-.06,1.41-.48,2.79-1.21,4-.51.85-1.42,2-2.84,2.63-.61.27-1.27.41-1.93.41ZM283.61,49.09c-.53,0-.98.07-1.08.11-.3.21-.6.64-.91,1.1-.42.6-.89,1.28-1.62,1.73-.19.12-.4.23-.6.34-.3.16-.58.31-.81.49-.24.2-.47.51-.41.76.04.17.22.37.49.52.74.43,1.76.45,2.66.05,1.06-.47,1.76-1.36,2.16-2.03.55-.91.88-1.94.98-3-.18-.04-.46-.08-.86-.08Z" style="fill: #fff;"/>
  </g>
  <g>
    <path d="M284.01,14.77c-.21,0-.41-.02-.57-.06-1.49-.29-2.55-1.41-3.58-2.49-.28-.3-.56-.59-.85-.86-.63-.6-1.84-2.21-1.54-3.38.09-.36.38-.84,1.2-1.06,1.27-.34,2.75.12,4.3,1.31,1.25.96,2.32,2.11,3.2,3.42.17.26.34.54.35.87.02.49-.29.88-.61,1.23-.24.27-.52.57-.88.77-.34.18-.7.24-1.03.24ZM279.52,7.3c-.24,0-.48.03-.72.09-.48.13-.76.36-.84.7-.23.88.82,2.35,1.4,2.9.29.27.57.57.86.88.97,1.03,1.98,2.09,3.31,2.35h0c.34.07.84.1,1.27-.14.29-.16.52-.41.75-.67.25-.28.49-.57.48-.88,0-.21-.14-.42-.27-.61-.84-1.26-1.88-2.38-3.09-3.31-.82-.64-1.98-1.32-3.15-1.32Z" style="fill: #fff;"/>
    <path d="M284.01,15.27c-.25,0-.47-.03-.67-.07-1.65-.32-2.77-1.5-3.85-2.64-.28-.3-.55-.58-.83-.84-.6-.57-2.06-2.37-1.68-3.87.1-.4.44-1.12,1.56-1.42,1.42-.38,3.06.1,4.74,1.4,1.29,1,2.4,2.19,3.31,3.54.2.3.42.66.44,1.13.03.68-.37,1.18-.74,1.59-.26.28-.57.64-1.01.88-.37.2-.8.3-1.27.3ZM279.52,7.8c-.21,0-.4.03-.59.08-.43.12-.47.28-.49.34-.15.57.65,1.84,1.26,2.41.29.28.59.59.88.9.92.97,1.87,1.97,3.04,2.2.26.05.64.08.94-.08.21-.11.42-.34.61-.56.09-.1.36-.4.35-.52,0-.08-.14-.29-.19-.36-.81-1.22-1.82-2.29-2.98-3.19-.72-.55-1.79-1.21-2.84-1.21Z" style="fill: #fff;"/>
  </g>
</svg>