<?xml version="1.0" encoding="UTF-8"?>
<svg id="Layer_2" xmlns="http://www.w3.org/2000/svg" viewBox="0 0 29.29 52.76">
  <path d="M13.72,52.76c-1.33,0-2.62-.03-4-.05l-2.5-.05v-.5c.13-7.08.08-14.43,0-20.75l-.76-.04c-1.9-.1-3.87-.2-5.94-.37l-.53-.04.08-.53c.2-1.33.36-2.6.52-3.85.29-2.24.55-4.36,1-6.48l.09-.44.45.04c1.07.11,2.28.1,3.46.09.42,0,.82,0,1.21,0-.1-3.13-.18-8.35,1.45-11.58,1.46-2.9,3.38-4.83,6.2-6.25C17.98.18,22.68-.38,28.84.25l.45.05v11.86l-.54-.04c-2-.16-4.92-.34-7.09-.01-1.25.19-2.33.93-2.75,1.9-.24.56-.25,1.25-.25,1.85,0,.7.03,1.62.05,2.49.01.36.02.72.03,1.04,1.8.07,3.5,0,5.3-.06,1.36-.05,2.77-.1,4.22-.09h.49s0,.5,0,.5c.02,1.83-.03,3.61-.09,5.5-.05,1.68-.09,3.41-.09,5.18v.5s-.5,0-.5,0c-2.97.03-6.17.02-9.51-.02.05,4.28,0,8.59-.05,12.77-.04,2.85-.07,5.68-.07,8.5v.47s-.48.02-.48.02c-1.55.08-2.92.1-4.25.1ZM8.24,51.67l1.5.03c2.6.05,4.86.1,7.7-.03,0-2.66.04-5.34.07-8.03.05-4.33.11-8.82.05-13.25v-.51s.51,0,.51,0c3.34.04,6.53.06,9.51.03,0-1.61.05-3.19.09-4.71.05-1.71.09-3.33.09-4.97-1.25,0-2.49.05-3.68.09-1.88.07-3.83.14-5.85.04l-.47-.02v-.47c-.02-.44-.03-.96-.05-1.5-.03-.88-.06-1.81-.06-2.52,0-.67,0-1.5.33-2.25.55-1.27,1.93-2.24,3.51-2.48,2.09-.32,4.77-.19,6.79-.04V1.2c-5.75-.53-10.13,0-13.38,1.65-2.62,1.32-4.39,3.11-5.75,5.81-1.61,3.18-1.43,8.67-1.33,11.61l.02.53h-.53c-.53-.02-1.11-.02-1.71-.01-1.04,0-2.11.02-3.11-.05-.39,1.94-.64,3.9-.9,5.97-.14,1.09-.28,2.2-.45,3.34,1.86.14,3.64.24,5.37.33l1.7.09v.47c.08,6.28.14,13.63.03,20.75Z" style="fill: #fff;"/>
</svg>