<?xml version="1.0" encoding="UTF-8"?>
<svg id="Layer_2" xmlns="http://www.w3.org/2000/svg" viewBox="0 0 67.91 63.62">
  <path d="M16.55,63.62l-.57-.02c-4.91-.21-9.9-.23-14.82-.05-.05,0-.11,0-.17,0v-.5s-.5-.03-.5-.03c.02-.39.08-14.1.11-19.96l.08-15.06c0-.41-.05-1.11-.12-1.93-.31-3.86-.48-7.41.92-8.38.87-.61,2.82-.37,5.27,0,.6.09,1.11.17,1.44.19l7.74.52-.07.53c-2,14.66-.65,29.63.65,44.11l.05.57ZM7.91,62.43c2.52,0,5.04.05,7.54.15-1.27-14.18-2.55-28.83-.66-43.24l-6.67-.45c-.35-.02-.89-.11-1.52-.2-1.38-.21-3.93-.61-4.54-.18-1.04.73-.67,5.29-.49,7.48.07.87.13,1.56.12,2.02l-.17,32.84c0,.75,0,1.29-.02,1.69,2.14-.07,4.28-.11,6.43-.11Z" style="fill: #fff;"/>
  <path d="M8.91,14.35c-.86,0-1.71-.11-2.54-.34-2.5-.68-4.62-2.38-5.66-4.57C-.12,7.71-.23,5.41.42,3.59.9,2.25,1.75,1.26,2.89.73,4.88-.21,11.13-.46,12.78,1.32c.44.48.67,1.08.82,1.61.96,3.17.56,6.79-1.05,9.69-.21.37-.44.75-.8,1.04-.57.47-1.29.59-1.85.65-.33.03-.66.05-.99.05ZM1.61,9.01c.92,1.92,2.79,3.43,5.02,4.03,1.04.28,2.1.37,3.17.26.42-.04.96-.13,1.32-.43.22-.18.38-.43.56-.75,1.48-2.66,1.84-5.99.96-8.91-.13-.42-.3-.89-.6-1.22-1.21-1.3-6.95-1.2-8.73-.36-1.12.53-1.68,1.54-1.95,2.29-.56,1.56-.46,3.6.25,5.09h0Z" style="fill: #fff;"/>
  <path d="M37.05,63.6l-14.41-.09-.09-.39c-1.71-7.52-1.39-15.3-1.07-22.83,0-3.94.22-7.98.44-11.89.11-1.98.22-3.96.3-5.94,0-.19,0-.41,0-.64-.03-.98-.06-2.19.74-2.85.72-.59,2.04-.46,3.1-.36.29.03.55.05.75.06,3.08.05,6.21.15,9.29.31l.45.02.03.45c.07,1.26.23,2.53.48,3.77.76-1.36,2.05-2.44,2.9-3.06,2.14-1.54,3.15-1.81,5.37-2.4l.33-.09c1.77-.47,5.03-.79,6.99-.67,3.83.23,9,2.59,11.02,6.5,1.87,3.62,2.67,5.92,3.46,9.88.86,4.3.87,11.97.72,17.65,0,.12-.33,11.51-.79,12.07l-.15.18h-.24c-2.36,0-4.52,0-6.69-.02-2.17,0-4.3-.02-6.69-.02h-.44l-.06-.43c-.09-.69.02-2.35.13-3.82.06-.78.11-1.49.11-1.9.03-1.96.08-3.54.13-5.04.08-2.32.15-4.52.12-7.64,0-.93.02-1.83.05-2.71.09-2.88.18-5.37-1.01-8.03-.27-.6-.88-1.42-1.45-1.94-.6-.55-2.52-1.26-3.36-1.4l-.32-.05q-1.43-.23-2.25-.15c-.31.03-.72.07-1.33.11-.58.04-2.5.5-3.17.83-.52.25-1.44.84-1.75,1.22-1.53,1.87-1.56,4.33-1.46,6.9.32,7.94.26,15.99-.16,23.92l-.03.48ZM23.45,62.52l12.66.08c.4-7.75.44-15.6.13-23.36-.11-2.77-.07-5.44,1.68-7.58.49-.6,1.62-1.27,2.09-1.49.82-.39,2.86-.88,3.54-.92.6-.04,1.01-.08,1.31-.11.95-.09,1.01-.08,2.5.16l.32.05c1,.16,3.11.94,3.88,1.65.67.61,1.36,1.55,1.68,2.27,1.28,2.87,1.19,5.59,1.1,8.47-.03.87-.06,1.75-.05,2.67.03,3.14-.05,5.35-.12,7.68-.05,1.5-.1,3.07-.13,5.02,0,.42-.06,1.15-.11,1.96-.08,1.1-.17,2.42-.16,3.18,2.17,0,4.2,0,6.22.02,2.04,0,4.08.02,6.27.02.33-2.81,1.39-21.2-.11-28.71-.77-3.85-1.55-6.1-3.37-9.62-1.85-3.59-6.63-5.75-10.19-5.96-1.83-.11-5.02.19-6.67.64l-.33.09c-2.16.58-3.05.81-5.04,2.25-1.06.77-2.88,2.32-3.09,4.11l-.3,2.63-.68-2.56c-.45-1.7-.74-3.44-.87-5.2-2.93-.15-5.89-.24-8.81-.29-.22,0-.51-.03-.83-.06-.74-.07-1.97-.19-2.37.14-.42.35-.4,1.29-.38,2.05,0,.26.01.5,0,.71-.08,1.98-.19,3.96-.3,5.95-.22,3.89-.44,7.92-.44,11.85-.31,7.35-.62,14.92.96,22.2Z" style="fill: #fff;"/>
</svg>