<?xml version="1.0" encoding="UTF-8"?>
<svg id="Layer_2" xmlns="http://www.w3.org/2000/svg" viewBox="0 0 132.32 134.74">
  <path d="M52.35,134.74c-10.29,0-20.65-.33-30.88-1.51-2.86-.33-5.64-.73-8.12-2.04-2.79-1.47-5.18-4.11-7.1-7.86-4.54-8.83-4.49-18.47-4.44-27.8.02-4.76.05-9.68-.54-14.42C-.09,70.15-.03,58.88.02,47.99c.02-3.31.04-6.61.02-9.91H.04c-.02-3.94-.05-8.01,1.1-11.9C4.69,14.2,17.75,8.31,28.09,5.48,47.66.12,67.74-.15,90.06.04c6.02.05,12.84.11,18.88,2.81,6.54,2.92,12,8.95,15.38,16.99,3.04,7.24,4.13,15.14,4.98,22.61,1.9,16.61,2.91,33.5,3.01,50.2.05,7.65-.11,15.75-2.46,23.31-1.23,3.96-2.88,6.87-5.02,8.9-2.62,2.47-6.13,3.77-9.23,4.71-13.95,4.25-28.69,4.57-42.94,4.88-6.7.14-13.5.29-20.32.29ZM1.04,38.07c.02,3.3,0,6.61-.02,9.92-.06,10.86-.12,22.09,1.23,32.99.6,4.81.57,9.76.55,14.55-.05,9.21-.09,18.72,4.33,27.34,1.83,3.55,4.07,6.05,6.68,7.43,2.33,1.23,5.01,1.62,7.77,1.94,16.95,1.95,34.29,1.57,51.07,1.21,14.18-.3,28.85-.62,42.67-4.83,2.98-.91,6.36-2.15,8.83-4.48,2.05-1.94,3.56-4.63,4.75-8.47,2.31-7.42,2.46-15.43,2.41-23-.1-16.67-1.11-33.53-3.01-50.1-.85-7.4-1.92-15.22-4.91-22.34-3.28-7.8-8.56-13.65-14.87-16.46-5.85-2.61-12.56-2.67-18.48-2.72-22.25-.2-42.25.07-61.7,5.4C18.26,9.21,5.52,14.93,2.1,26.46c-1.11,3.75-1.09,7.75-1.06,11.61h0Z" style="fill: #fff;"/>
  <path d="M68.16,95.56c-7.29,0-15.21-.68-21.44-5.11-5.82-4.13-8.79-10.67-10.26-15.43-1.85-5.99-2.25-11.93-1.16-17.18h0c1.12-5.39,4.06-10.56,8.28-14.55,3.5-3.31,8.15-5.98,12.74-7.33,4.56-1.33,9.54.59,13.81,2.66,8.6,4.16,16.17,11.71,21.3,21.28,3.07,5.71,4.2,10.36,3.58,14.62-.57,3.94-2.65,7.38-4.72,10.57-1.96,3.02-4.15,6.13-7.37,8.02-3.61,2.12-7.86,2.37-12.25,2.44-.83.01-1.66.02-2.51.02ZM36.28,58.03h0c-1.05,5.09-.66,10.86,1.14,16.69,1.42,4.61,4.29,10.94,9.88,14.91,6.71,4.77,15.57,5.04,23.36,4.91,4.26-.07,8.36-.3,11.76-2.3,3.03-1.78,5.14-4.78,7.04-7.7,2.02-3.1,4.03-6.43,4.57-10.17.59-4.04-.52-8.49-3.47-14.01-5.03-9.38-12.44-16.79-20.85-20.85-4.1-1.98-8.87-3.84-13.1-2.6-4.45,1.3-8.94,3.89-12.33,7.1-4.08,3.86-6.92,8.84-7.99,14.03Z" style="fill: #fff;"/>
  <path d="M104.24,37.36c-2.89,0-5.78-.89-8.11-2.61-.49-.36-1.03-.81-1.35-1.44-.35-.69-.37-1.47-.36-2.15.01-1.71.15-3.93,1.12-5.94h0c1.23-2.56,3.63-4.19,6.58-4.47,3.13-.3,6.2,1.02,8.02,3.45,1.86,2.48,1.75,5.68,1.47,9.03-.05.54-.1,1.15-.41,1.7-.44.77-1.25,1.18-1.92,1.45-1.6.65-3.32.97-5.05.97ZM96.44,25.66c-.69,1.43-1,3.13-1.02,5.51,0,.59,0,1.2.26,1.69.23.45.66.8,1.05,1.09,3.44,2.54,8.22,3.13,12.18,1.51.51-.21,1.14-.51,1.42-1.02.21-.36.25-.84.29-1.3.27-3.14.38-6.15-1.27-8.34-1.62-2.16-4.35-3.33-7.13-3.06-2.59.25-4.7,1.68-5.78,3.91h0Z" style="fill: #fff;"/>
</svg>