<?xml version="1.0" encoding="UTF-8"?>
<svg id="Layer_1" xmlns="http://www.w3.org/2000/svg" viewBox="0 0 440.18 532.52">
  <g>
    <path d="M39.8,307.81c-1.18,0-2.21-.24-3.09-.72-1.27-.7-2.14-1.94-2.25-3.24-.04-.4,0-.74.15-1.02.23-.48.68-.75,1-.92,1.84-.95,4.03-.81,5.79-.69l-.06,1c-1.72-.11-3.67-.24-5.27.58-.3.16-.48.3-.56.46-.06.12-.07.28-.06.51.08.97.75,1.91,1.74,2.45.86.47,1.98.67,3.23.58,2.06-.16,4.09-1.07,5.57-2.5l.69.72c-1.68,1.61-3.87,2.59-6.19,2.77-.24.02-.47.03-.7.03h.01Z" style="fill: #fff;"/>
    <path d="M39.8,308.31c-1.26,0-2.38-.26-3.33-.79-1.42-.78-2.38-2.17-2.51-3.63-.04-.5.02-.91.2-1.28.29-.61.84-.95,1.22-1.15,1.97-1.01,4.23-.86,6.05-.75l.5.03-.13,2-.5-.03c-1.66-.11-3.54-.23-5.01.53-.28.15-.33.23-.33.23h0s-.02.06,0,.25c.07.8.64,1.59,1.48,2.05.77.43,1.79.6,2.95.52,1.94-.15,3.86-1.01,5.27-2.36l.36-.35,1.39,1.44-.36.35c-1.76,1.69-4.07,2.72-6.5,2.91-.25.02-.5.03-.74.03h0ZM36.02,305.95c.27.27.59.51.94.7.96.52,2.14.74,3.51.64,2.03-.16,3.97-.97,5.51-2.3h0c-1.53,1.31-3.51,2.14-5.51,2.3-1.35.1-2.56-.12-3.51-.64-.35-.19-.66-.43-.94-.7ZM36,302.28s-.1.05-.16.08c-.13.07-.27.14-.4.24.11-.08.24-.16.4-.24.05-.03.1-.05.16-.08Z" style="fill: #fff;"/>
  </g>
  <g>
    <path d="M49.18,355.48l-1-.05c.07-1.47-.11-2.99-.29-4.46-.26-2.15-.53-4.36-.03-6.54.69-2.97,2.68-5.35,4.61-7.64,1.96-2.33,3.81-4.53,4.42-7.29,1.03-4.65,1-8.39-.09-11.46-2.28-6.46-3.67-13.1-4.04-19.27-2.82.9-6.06.16-8.19-1.84-1.98,1.99-4.14,4.1-6.69,5.25l-.41-.91c2.53-1.14,4.64-3.27,6.68-5.33l.37-.37.42.32c1.88,2.03,5.13,2.8,7.77,1.85v-.09l-.03-.71.68.21c.2.06.35.21.43.42.08.21.06.44-.05.63.31,6.23,1.69,12.96,4.01,19.52,1.15,3.25,1.19,7.17.12,12.01-.66,3-2.68,5.4-4.63,7.72-1.94,2.31-3.77,4.49-4.41,7.23-.46,2-.21,4.04.05,6.19.19,1.51.38,3.08.3,4.63v-.02Z" style="fill: #fff;"/>
    <path d="M49.65,356.01l-2-.1.02-.5c.07-1.43-.11-2.93-.29-4.38-.27-2.19-.54-4.45-.02-6.71.71-3.08,2.75-5.51,4.72-7.85,1.92-2.29,3.73-4.44,4.32-7.08,1.01-4.55.98-8.21-.07-11.18-2.22-6.27-3.6-12.75-4.02-18.79-2.69.64-5.61-.04-7.71-1.79-2.03,2.03-4.08,3.92-6.51,5.01l-.46.21-.82-1.82.46-.21c2.45-1.1,4.52-3.2,6.53-5.22l.68-.68.77.59c1.72,1.85,4.56,2.59,6.95,1.89l-.04-1.13,1.36.43c.35.11.62.37.75.72.11.29.1.61-.02.9.32,6.15,1.69,12.8,3.97,19.25,1.18,3.34,1.22,7.35.14,12.28-.69,3.12-2.74,5.57-4.73,7.93-1.9,2.27-3.7,4.4-4.3,7.02-.44,1.92-.2,3.91.06,6.02.19,1.53.38,3.12.3,4.72l-.02.5-.02-.03ZM48.69,354.96h0v-.51.51ZM48.36,350.73c0,.06,0,.12.02.18,0,.07.02.13.02.2,0-.07-.02-.13-.02-.2,0-.06-.02-.12-.02-.18ZM48.4,344.29c-.02.09-.04.17-.06.26s-.04.18-.06.28c.02-.09.04-.18.06-.28.02-.09.04-.17.06-.26ZM53.42,336.44c-.19.22-.37.45-.56.67-.18.21-.35.42-.53.63.17-.21.35-.42.52-.62.19-.22.38-.45.57-.68h0ZM38.13,301.5h0s.03-.01.04-.02c0,0-.03.01-.04.02ZM44.56,296.23l.35.33c2.01,1.9,5.03,2.57,7.69,1.72l.61-.2.03.46c0-.12,0-.23-.02-.34v-.14l.06-.13c.04-.06.04-.14.02-.21,0-.04-.04-.09-.11-.11h0v.37l-.33.21c-2.81,1.02-6.31.19-8.31-1.98h0l.02.02Z" style="fill: #fff;"/>
  </g>
  <g>
    <path d="M48.31,323.96c-.64,0-1.27-.03-1.91-.09l.1-1c2.15.21,4.3.05,6.39-.49l.25.97c-1.58.41-3.2.61-4.83.61Z" style="fill: #fff;"/>
    <path d="M48.31,324.46c-.65,0-1.31-.03-1.96-.1l-.5-.05.2-1.99.5.05c2.09.21,4.18.04,6.22-.48l.48-.12.5,1.94-.48.12c-1.62.42-3.29.63-4.95.63h-.01ZM46.95,323.42c1.29.09,2.57.05,3.84-.12-1.27.17-2.56.21-3.84.12h0ZM52.52,322.99l-.19.04.19-.04h0Z" style="fill: #fff;"/>
  </g>
  <g>
    <path d="M49.55,319.13c-.81,0-1.6-.29-2.36-.57-.62-.23-1.21-.45-1.8-.51l.1-.99c.72.07,1.39.33,2.05.57.91.34,1.77.66,2.59.43l.27.96c-.29.08-.57.11-.85.11h0Z" style="fill: #fff;"/>
    <path d="M49.55,319.63c-.9,0-1.73-.31-2.53-.6-.61-.22-1.16-.43-1.68-.49l-.5-.05.21-1.99.5.05c.78.08,1.48.34,2.17.6.88.33,1.62.61,2.29.42l.48-.13.54,1.93-.48.13c-.32.09-.65.13-.98.13h-.02ZM48.29,318.41c.5.15,1.01.25,1.49.21h0c-.49.04-.99-.06-1.49-.21ZM46.84,317.89c.17.06.34.12.51.19.11.04.22.08.33.12-.1-.04-.21-.08-.31-.11-.18-.07-.35-.13-.53-.19h0Z" style="fill: #fff;"/>
  </g>
  <g>
    <path d="M53.6,371.04c-1.89-3.82-3.8-9.03-4.87-12.34-.37-1.15-.69-2.28-.55-3.47l.99.12c-.12.99.18,2,.51,3.04,1.14,3.53,3.06,8.67,4.81,12.2l-.9.44h0Z" style="fill: #fff;"/>
    <path d="M53.37,371.71l-.22-.45c-1.9-3.84-3.83-9.09-4.89-12.41-.39-1.21-.72-2.39-.57-3.68l.06-.5,1.99.23-.06.5c-.1.89.17,1.84.49,2.83,1.13,3.51,3.05,8.63,4.78,12.13l.22.45-1.79.89h-.01ZM48.73,356.74c.1.6.28,1.2.48,1.8,1.02,3.16,2.81,8.07,4.62,11.82h0c-1.7-3.53-3.52-8.42-4.62-11.82-.2-.61-.38-1.21-.48-1.8Z" style="fill: #fff;"/>
  </g>
  <g>
    <path d="M29.08,375.81c-.17-3.9-.36-7.05-.55-9.38-.16-1.95-.34-3.69-.92-5.34-.62-1.77-1.69-3.38-2.64-4.74-1.99-2.85-4.2-5.62-6.34-8.3-1.49-1.87-3.03-3.8-4.48-5.75-.94-1.26-1.84-2.52-2.44-3.96-1.25-3.03-.98-6.4-.75-9.38l1,.08c-.23,2.86-.49,6.11.68,8.92.55,1.34,1.41,2.54,2.32,3.75,1.45,1.93,2.98,3.86,4.46,5.72,2.15,2.69,4.36,5.48,6.37,8.36.99,1.42,2.1,3.09,2.77,4.98.62,1.77.8,3.58.97,5.59.19,2.34.38,5.51.55,9.42l-1,.04h0Z" style="fill: #fff;"/>
    <path d="M28.6,376.33l-.02-.5c-.17-3.89-.36-7.04-.55-9.36-.16-1.91-.34-3.62-.89-5.22-.6-1.71-1.64-3.28-2.58-4.62-1.98-2.84-4.19-5.6-6.32-8.28-1.49-1.86-3.02-3.79-4.49-5.76-.96-1.29-1.88-2.57-2.5-4.07-1.3-3.14-1.03-6.58-.79-9.61l.04-.5,1.99.16-.04.5c-.22,2.81-.48,5.99.64,8.69.53,1.29,1.37,2.46,2.25,3.64,1.47,1.96,3.05,3.95,4.46,5.71,2.15,2.7,4.37,5.49,6.39,8.38,1.01,1.44,2.15,3.15,2.83,5.1.64,1.82.83,3.67,1,5.72.2,2.34.38,5.52.56,9.44l.02.5-2,.09h0ZM29.39,371.86c.06,1.07.11,2.21.17,3.43h0c-.06-1.22-.11-2.36-.17-3.43ZM26.13,357.16c.74,1.13,1.47,2.39,1.95,3.75.31.88.51,1.79.65,2.72-.14-.94-.34-1.84-.65-2.72-.48-1.37-1.21-2.63-1.95-3.75ZM18.79,347.44c.08.09.15.19.23.29.62.77,1.24,1.56,1.86,2.35-.62-.79-1.24-1.57-1.86-2.34-.08-.1-.15-.19-.23-.29h0ZM13.74,340.88c.26.37.53.74.81,1.11,1.11,1.48,2.26,2.95,3.39,4.38-1.11-1.4-2.29-2.9-3.39-4.38-.28-.37-.55-.74-.81-1.11ZM12.18,338.15h0ZM12.16,338.12v.02s.01,0,.01.01h0v-.03h-.01ZM11.42,329.49c-.07.91-.14,1.84-.15,2.79.02-.95.08-1.88.15-2.79h0Z" style="fill: #fff;"/>
  </g>
  <g>
    <path d="M10.41,333.98c-2.44-2.24-4.36-5.07-5.55-8.16-.21-.55-.43-1.19-.35-1.87l.99.12c-.06.45.11.93.29,1.39,1.14,2.95,2.97,5.65,5.3,7.79l-.68.74h0Z" style="fill: #fff;"/>
    <path d="M10.44,334.68l-.37-.34c-2.5-2.3-4.46-5.18-5.68-8.35-.23-.61-.47-1.32-.37-2.11l.06-.5,1.98.24-.06.5c-.04.34.1.75.26,1.15,1.11,2.88,2.9,5.51,5.17,7.6l.37.34-1.35,1.47h-.01ZM9.79,332.66c.2.21.4.41.6.6h0c-.2-.2-.4-.4-.6-.6ZM5.24,325.4c.03.08.06.16.09.23.31.81.68,1.61,1.09,2.38-.41-.77-.78-1.57-1.09-2.38-.03-.08-.06-.15-.09-.23Z" style="fill: #fff;"/>
  </g>
  <g>
    <path d="M20.7,333.84c-.91,0-1.79-.22-2.55-.45-4.69-1.42-8.65-4.37-12.24-7.33-.81-.67-1.56-1.35-1.88-2.33-.27-.83-.17-1.72-.09-2.5l.03-.25c.03-.25.03-.5.04-.75,0-.32.02-.65.06-.96.07-.53.32-.97.72-1.27.75-.57,1.86-.54,2.66-.42,3.07.46,6.05,1.38,8.84,2.73.53.25,1.22.6,1.88,1.05.73.5,1.39,1.08,2.02,1.65l1.79,1.61c.54.49,1.1.99,1.55,1.62,1,1.42,1.13,3.08,1.06,4.22-.02.32-.06.74-.2,1.15-.39,1.1-1.5,1.96-2.84,2.18-.28.05-.57.07-.84.07v-.02ZM6.56,318.5c-.51,0-.92.1-1.18.29-.19.14-.29.33-.33.6-.04.28-.04.57-.05.86,0,.28-.02.55-.05.82l-.03.25c-.08.72-.16,1.46.05,2.09h0c.23.72.85,1.27,1.57,1.86,3.51,2.9,7.37,5.78,11.89,7.15.89.27,1.93.52,2.94.36.98-.16,1.79-.76,2.06-1.52.1-.29.13-.62.15-.87.08-1.39-.23-2.66-.88-3.58-.38-.54-.9-1-1.4-1.45l-1.79-1.6c-.61-.54-1.24-1.11-1.92-1.57-.6-.41-1.25-.74-1.75-.98-2.71-1.31-5.59-2.2-8.56-2.65-.26-.04-.5-.06-.73-.06h0Z" style="fill: #fff;"/>
    <path d="M20.7,334.34c-1.01,0-1.97-.25-2.7-.47-4.77-1.45-8.79-4.43-12.42-7.43-.87-.72-1.68-1.45-2.04-2.56-.3-.93-.2-1.88-.11-2.71l.03-.25c.02-.23.03-.46.04-.69,0-.36.02-.7.07-1.03.09-.67.4-1.22.91-1.6.9-.67,2.15-.65,3.03-.52,3.12.47,6.14,1.41,8.99,2.78.54.26,1.26.62,1.94,1.08.76.51,1.42,1.1,2.06,1.68l1.81,1.62c.56.5,1.15,1.03,1.62,1.7,1.08,1.54,1.22,3.32,1.15,4.54-.02.35-.07.82-.23,1.28-.45,1.27-1.71,2.25-3.23,2.5-.3.05-.61.07-.93.07h.01ZM18.5,332.97c.43.13.91.25,1.41.31-.49-.07-.97-.18-1.41-.31ZM23.32,332.35c-.34.35-.79.62-1.29.79.51-.17.95-.44,1.29-.79ZM18.1,332.85c.06.02.13.04.19.06.02,0,.04.01.06.02-.02,0-.04-.01-.06-.02-.06-.02-.13-.04-.19-.06ZM6.56,319c-.56,0-.8.13-.88.19-.05.04-.11.09-.13.26-.03.26-.04.52-.05.79,0,.31-.02.6-.05.89l-.03.25c-.07.67-.15,1.35.02,1.88.19.59.75,1.09,1.41,1.63,3.47,2.87,7.28,5.71,11.72,7.05.83.25,1.81.49,2.72.34.79-.13,1.46-.61,1.67-1.2.08-.23.11-.52.12-.74.08-1.28-.2-2.44-.79-3.27-.34-.49-.84-.93-1.32-1.36l-1.8-1.61c-.6-.54-1.21-1.09-1.86-1.53-.58-.39-1.21-.71-1.69-.94-2.66-1.28-5.49-2.16-8.42-2.6-.23-.04-.45-.05-.66-.05l.02.02ZM23.64,331.96h0ZM23.96,331.27s-.03.11-.05.16c-.06.19-.16.36-.27.53.11-.17.2-.34.27-.53.02-.05.04-.11.05-.16ZM18.22,322.01c.58.42,1.11.9,1.63,1.37l1.8,1.61c.53.47,1.06.95,1.47,1.53.66.94,1,2.2.98,3.57.02-1.04-.16-2.4-.98-3.57-.41-.58-.95-1.07-1.47-1.53l-1.79-1.6c-.53-.47-1.06-.95-1.63-1.37h0ZM6.06,325.53c.05.04.11.09.16.13.98.81,1.98,1.61,3.02,2.39-1.04-.77-2.04-1.58-3.02-2.39-.05-.04-.11-.09-.16-.13ZM4.44,321.26h0c0,.1-.02.19-.03.28,0-.09.02-.18.03-.26h0v-.02ZM4.52,319.89c0,.12,0,.23-.01.35,0,.21-.01.42-.03.61.02-.2.02-.41.03-.61,0-.12,0-.24.01-.35ZM6.25,318.02c-.42.03-.85.13-1.17.38-.17.13-.31.3-.4.49.09-.2.22-.36.4-.49.28-.21.68-.34,1.17-.38Z" style="fill: #fff;"/>
  </g>
  <g>
    <path d="M17.9,318.26c-1.77-.58-3.3-1.84-4.2-3.47-.5-.9-.64-1.71-.43-2.41.23-.73.86-1.34,1.7-1.61.78-.26,1.61-.19,2.16-.12,1.17.15,2.29.48,3.35.99l-.43.9c-.96-.46-1.99-.77-3.04-.9-.73-.09-1.26-.07-1.72.08-.52.17-.92.54-1.05.96-.13.43-.02.98.34,1.63.78,1.41,2.11,2.51,3.64,3.01l-.31.95h0Z" style="fill: #fff;"/>
    <path d="M18.22,318.89l-.48-.16c-1.89-.62-3.52-1.97-4.49-3.71-.57-1.02-.72-1.96-.47-2.8.27-.89,1.03-1.62,2.02-1.94.88-.29,1.78-.22,2.38-.14,1.22.16,2.4.51,3.5,1.04l.45.22-.87,1.8-.45-.22c-.91-.44-1.89-.73-2.89-.86-.66-.08-1.12-.06-1.5.06-.36.12-.65.36-.73.63-.09.29.01.72.3,1.24.72,1.3,1.95,2.31,3.36,2.77l.48.16-.62,1.9h.01ZM15.77,316.51c.55.46,1.16.83,1.82,1.1h0c-.66-.27-1.27-.64-1.82-1.1ZM15.49,311.15c-.12.02-.24.05-.36.09-.68.22-1.2.7-1.38,1.28-.12.39-.1.83.07,1.33-.17-.49-.19-.94-.07-1.33.18-.57.7-1.06,1.38-1.28.12-.04.23-.07.36-.09ZM16.23,311.09c.25,0,.53.02.84.06.12.01.23.03.35.05-.12-.02-.23-.04-.35-.05-.25-.03-.58-.08-.91-.06h.07Z" style="fill: #fff;"/>
  </g>
  <g>
    <path d="M20.34,333.55c-.57-.47-1.11-1-1.6-1.56-.29-.33-.61-.73-.83-1.21-.22-.48-.33-1.01-.31-1.54.01-.4.1-.75.27-1.04.26-.46.74-.81,1.32-.96.54-.14,1.09-.1,1.46-.05,1.12.14,2.23.52,3.19,1.11l-.52.86c-.85-.51-1.81-.85-2.8-.97-.46-.06-.79-.05-1.08.03-.32.08-.58.26-.7.49-.08.15-.13.34-.14.58-.01.37.06.75.22,1.08.17.37.44.7.68.98.45.52.95,1,1.48,1.44l-.64.77h0Z" style="fill: #fff;"/>
    <path d="M20.41,334.25l-.39-.32c-.6-.49-1.15-1.04-1.66-1.62-.31-.36-.66-.79-.91-1.33-.25-.55-.37-1.16-.35-1.76.02-.48.13-.91.33-1.27.33-.57.92-1.01,1.63-1.2.63-.16,1.24-.11,1.65-.06,1.19.15,2.36.55,3.39,1.17l.43.26-1.04,1.71-.43-.26c-.79-.48-1.69-.79-2.6-.9-.39-.05-.67-.04-.9.01-.22.06-.34.17-.39.25-.02.04-.06.14-.07.36,0,.29.05.59.17.86.14.31.38.61.6.86.43.5.91.96,1.42,1.38l.39.32s-1.27,1.54-1.27,1.54ZM18.16,329.9c.04.23.12.46.21.67.16.35.39.66.61.92-.22-.27-.45-.58-.61-.93-.1-.21-.17-.44-.21-.67h0ZM18.16,329.9h0ZM18.21,328.68c-.04.13-.07.27-.09.42.02-.15.04-.3.09-.42ZM20.84,327.72c.55.09,1.09.24,1.61.44-.52-.21-1.06-.36-1.61-.44ZM20.01,327.64c-.18,0-.36.01-.55.05.31-.06.65-.06,1.09-.01-.15-.02-.34-.04-.54-.04h0Z" style="fill: #fff;"/>
  </g>
  <g>
    <path d="M18.67,304.34c-1.25-.63-2.56-1.34-3.57-2.45-1.16-1.26-1.67-2.86-1.36-4.26.03-.16.09-.34.22-.5.27-.32.67-.34.86-.36,1.98-.12,4,.17,5.85.86l-.35.94c-1.72-.64-3.6-.92-5.44-.8-.13,0-.17.02-.19.03-.22,1.14.2,2.4,1.14,3.42.9.98,2.12,1.64,3.28,2.23l-.45.89h.01Z" style="fill: #fff;"/>
    <path d="M18.89,305.01l-.45-.23c-1.29-.65-2.64-1.39-3.71-2.56-1.27-1.38-1.82-3.14-1.48-4.71.04-.2.12-.47.33-.72.4-.48.99-.52,1.21-.54,2.06-.12,4.15.18,6.06.89l.47.17-.7,1.87-.47-.17c-1.58-.59-3.31-.85-5.01-.78-.04.88.34,1.84,1.06,2.63.84.92,2.01,1.55,3.14,2.12l.45.23-.9,1.79h0ZM15.33,301.39c.05.05.09.11.14.16.19.21.4.41.62.6-.22-.19-.43-.38-.62-.6-.05-.05-.1-.11-.14-.16ZM15.71,297.24c1.47,0,2.94.23,4.32.69h0c-1.65-.55-3.43-.77-5.18-.67-.08,0-.16.01-.24.03.06-.01.14-.02.24-.03.28-.02.57-.03.86-.03h0ZM14.54,297.32s-.04.02-.06.02h0s.03-.02.05-.02h.01Z" style="fill: #fff;"/>
  </g>
  <g>
    <path d="M3.42,303.72h-.38l-.15-.39c-.11-.14-.13-.28-.13-.37.07-3.42-.47-6.79-1.63-10.01l.94-.34c1.17,3.27,1.74,6.68,1.69,10.14.16.15.23.37.17.58l-.1.37-.41.02h0Z" style="fill: #fff;"/>
    <path d="M3.43,304.22h-.73l-.25-.65c-.16-.23-.19-.46-.19-.62.07-3.36-.47-6.67-1.6-9.83l-.17-.47,1.88-.68.17.47c1.17,3.26,1.75,6.67,1.73,10.13.18.26.24.58.15.89l-.2.71-.79.04h0ZM3.38,303.22l.07-.02-.13-.12.05.14h0ZM1.76,293.25c1.06,3.13,1.57,6.4,1.5,9.72l.03.04-.03-.26c.05-3.24-.46-6.43-1.5-9.5h0Z" style="fill: #fff;"/>
  </g>
  <g>
    <path d="M14.43,319.93c-1.57,0-2.79-.31-3.72-.95-.27-.19-.53-.41-.78-.63-.15-.13-.3-.27-.46-.39-.49-.39-1.06-.7-1.65-1l-.65-.34c-1.87-.97-3.81-1.97-5.33-3.5-.42-.43-.94-1.02-1.17-1.78-.16-.52-.17-1.06-.16-1.53.03-1.74.2-3.42.51-5.01.16-.82.45-1.33.91-1.61.45-.28,1.03-.31,1.82-.09,1.56.43,3.23.9,4.9,1.41.28.09.57.2.87.31.46.17.93.35,1.35.43v-.02c.05.01.09.03.13.04.45.05.98-.01,1.51-.07.29-.03.58-.06.85-.08,1.88-.1,4.02-.21,5.73-1.17.17-.1.37-.22.49-.37.14-.16.23-.39.3-.6.5-1.49.45-3.18-.15-4.64-.6-1.46-1.75-2.69-3.17-3.39-1.07-.53-2.31-.77-3.37-.94-3.61-.55-7.15-.56-11.41-.51v-1c4.29-.05,7.88-.05,11.56.52,1.14.17,2.47.43,3.67,1.03,1.62.81,2.95,2.23,3.64,3.91.69,1.68.76,3.62.17,5.34-.1.29-.23.63-.48.92-.23.27-.52.45-.77.59-1.92,1.08-4.18,1.2-6.17,1.3h-.03c1.67.64,3.16,1.3,4.56,2.02,1.01.52,2.05,1.12,2.87,1.99.6.63,1.04,1.36,1.43,2.05.56,1,1.05,2.09.79,3.24-.17.73-.64,1.42-1.45,2.1-1.84,1.55-4.36,2.42-7.08,2.42h-.06ZM2.82,303.94c-.16,0-.28.03-.37.09-.2.12-.35.44-.45.95-.3,1.53-.47,3.15-.49,4.83,0,.41,0,.84.12,1.22.13.43.42.86.93,1.37,1.41,1.42,3.28,2.39,5.08,3.32l.65.34c.63.33,1.24.66,1.81,1.1.17.14.34.28.5.42.22.19.44.39.68.55.77.53,1.78.77,3.19.78,2.49,0,4.77-.79,6.44-2.19.64-.54,1-1.05,1.12-1.56.19-.81-.22-1.69-.68-2.52-.36-.64-.76-1.3-1.28-1.85-.72-.76-1.67-1.31-2.6-1.79-1.47-.76-3.06-1.45-4.85-2.12-.61-.23-1.23-.45-1.85-.66-.02,0-.04,0-.07-.01-.52-.09-1.04-.29-1.55-.48-.27-.1-.54-.21-.8-.29-1.66-.51-3.31-.97-4.87-1.41-.26-.07-.47-.11-.65-.11v.02Z" style="fill: #fff;"/>
    <path d="M14.43,320.43c-1.67,0-2.98-.34-4.01-1.04-.29-.2-.56-.43-.82-.67-.14-.13-.29-.25-.44-.37-.46-.36-1-.66-1.57-.95l-.65-.33c-1.91-.99-3.88-2.01-5.46-3.6-.46-.47-1.03-1.12-1.3-1.99-.18-.59-.19-1.18-.18-1.68.03-1.77.2-3.48.52-5.1.19-.96.55-1.58,1.13-1.94.58-.36,1.29-.41,2.21-.15,1.47.41,3.18.89,4.91,1.42.29.09.59.2.89.31.28.11.58.22.86.31v-.03l.48.13c.41.07.92,0,1.4-.05.32-.04.62-.07.9-.08,1.83-.09,3.9-.2,5.51-1.11.08-.05.27-.15.36-.26.1-.11.18-.35.21-.44.47-1.38.42-2.94-.14-4.29s-1.62-2.49-2.92-3.13c-1.01-.5-2.2-.73-3.23-.89-3.58-.55-7.1-.55-11.33-.5h-.5l-.02-1.99h.5c4.32-.06,7.92-.05,11.66.52,1.18.18,2.55.45,3.81,1.07,1.73.86,3.15,2.38,3.88,4.17.74,1.79.81,3.86.19,5.69-.12.34-.27.74-.57,1.09-.28.33-.61.54-.9.7-1.34.76-2.82,1.07-4.25,1.22.91.39,1.77.8,2.6,1.23,1.04.54,2.13,1.17,3,2.09.63.67,1.09,1.43,1.5,2.15.61,1.09,1.14,2.28.84,3.59-.19.84-.72,1.62-1.62,2.37-1.93,1.63-4.56,2.53-7.4,2.54h-.05ZM11.72,318.96c.74.31,1.63.47,2.71.47h.04c.56,0,1.12-.04,1.66-.12-.54.08-1.1.12-1.66.12-1.12,0-2.01-.16-2.74-.47h-.01ZM2.7,304.46s-.12.11-.22.62c-.29,1.5-.46,3.09-.48,4.74,0,.37,0,.75.09,1.07.11.35.36.71.81,1.17,1.36,1.37,3.19,2.31,4.96,3.23l.65.34c.65.34,1.29.68,1.89,1.16.18.14.35.29.52.44.21.19.41.37.63.52.68.46,1.6.68,2.91.69,2.37,0,4.54-.74,6.11-2.07.55-.46.86-.89.96-1.29.15-.65-.22-1.42-.63-2.17-.34-.61-.73-1.25-1.21-1.75-.67-.71-1.58-1.23-2.47-1.68-1.46-.75-3.03-1.44-4.8-2.1-.61-.23-1.22-.45-1.84-.65-.56-.09-1.1-.29-1.63-.5-.27-.1-.53-.2-.78-.28-1.65-.51-3.31-.97-4.86-1.4-.35-.1-.62-.08-.63-.08h.02ZM9.84,317.61c.14.12.28.24.42.36.11.09.21.19.32.28-.11-.09-.21-.18-.32-.27-.14-.12-.28-.25-.43-.36h.01ZM21.75,316.62c-.15.17-.33.33-.52.5-.3.25-.62.49-.96.7.34-.21.66-.45.96-.7.2-.17.37-.33.52-.5ZM5.78,315.32c.53.29,1.08.58,1.61.85l.65.34c.49.25.96.51,1.39.81-.44-.3-.91-.55-1.39-.81l-.65-.34c-.54-.28-1.08-.56-1.62-.85h.01ZM22.56,314.99c0,.1-.03.2-.05.31-.04.19-.11.37-.2.55.09-.18.16-.37.2-.55.02-.1.04-.2.05-.31ZM21.99,312.81c.23.44.42.89.52,1.35-.1-.46-.29-.91-.52-1.35ZM1.46,311.87c.2.33.45.6.68.84-.29-.3-.51-.57-.68-.84ZM20.03,310.08c.14.12.27.25.39.38.08.08.16.17.23.26-.08-.09-.15-.18-.23-.26-.13-.13-.26-.26-.39-.38ZM1.59,304.52c-.03.11-.06.23-.09.37-.31,1.56-.47,3.21-.5,4.92v.25-.25c.03-1.71.19-3.36.5-4.92.03-.13.06-.25.09-.37ZM8.76,305.07c.18.06.36.13.55.2.49.19.99.38,1.46.46l.14.03c.63.21,1.25.43,1.87.66,1.77.66,3.35,1.35,4.82,2.1-1.36-.7-2.81-1.33-4.43-1.95l-2-.76.53-.05c-.18.01-.35.02-.52,0h-.1c-.05,0-.11,0-.16-.01l-.16-.02c-.47-.08-.99-.28-1.44-.45-.19-.07-.38-.14-.56-.21ZM14.04,305.57c-.23.01-.46.02-.68.04-.26.01-.54.04-.82.08h-.01l.78-.07c.24-.01.49-.02.74-.04h0ZM20.27,303.28c-.08.21-.18.43-.34.61-.18.21-.42.36-.63.48-.68.38-1.41.64-2.16.81.75-.18,1.48-.43,2.16-.81.22-.12.45-.27.63-.48.16-.18.26-.4.34-.61ZM2.11,303.65c-.11.08-.24.22-.36.46.1-.2.22-.35.36-.46ZM2.78,303.44c-.24,0-.4.06-.52.12.15-.08.32-.11.52-.12ZM13.4,293.53c1.07.17,2.28.42,3.36.96.31.15.6.33.88.53-.28-.2-.58-.37-.89-.53-1.08-.54-2.29-.79-3.36-.96h0ZM4.57,292.97c2.36,0,4.54.06,6.7.28-2.85-.3-5.73-.31-9.02-.27h0c.8,0,1.57-.01,2.32-.01Z" style="fill: #fff;"/>
  </g>
  <g>
    <path d="M14.6,293.48l-.91-.41c.62-1.38.49-3.1-.32-4.37-.82-1.28-2.32-2.11-3.83-2.13-.5,0-.99.06-1.58.17-1.01.18-2.22.5-2.69,1.39-.25.48-.26,1.1-.25,1.64.02,1.07.14,2.15.33,3.2l-.98.18c-.21-1.11-.32-2.24-.35-3.36-.02-.71.02-1.47.36-2.13.67-1.27,2.16-1.68,3.39-1.91.56-.1,1.17-.18,1.77-.19,1.87.02,3.66,1.02,4.67,2.59,1.01,1.58,1.16,3.62.39,5.32h0Z" style="fill: #fff;"/>
    <path d="M14.85,294.14l-1.82-.82.2-.46c.55-1.23.44-2.76-.29-3.9-.73-1.14-2.07-1.88-3.42-1.9-.46,0-.92.06-1.49.16-.9.16-1.97.43-2.33,1.13-.2.38-.2.92-.19,1.4.02,1.04.13,2.09.32,3.12l.09.49-1.97.36-.09-.49c-.21-1.13-.33-2.29-.36-3.44-.02-.78.02-1.61.42-2.38.77-1.46,2.41-1.92,3.75-2.16.7-.13,1.3-.19,1.86-.2,2.05.02,3.99,1.11,5.09,2.82,1.1,1.72,1.26,3.94.43,5.79l-.2.46v.02ZM14.32,292.81h0c.48-1.45.29-3.09-.54-4.38-.92-1.44-2.55-2.34-4.25-2.36h0c1.68.02,3.34.95,4.25,2.36.81,1.27,1.01,2.94.54,4.38ZM4.51,289.6v.18c.01.48.04.96.08,1.44-.04-.48-.07-.96-.08-1.44v-.18ZM7.95,286.23s-.06.01-.09.02c-.94.17-2.05.46-2.72,1.19.67-.73,1.78-1.02,2.72-1.19.03,0,.06-.01.09-.02Z" style="fill: #fff;"/>
  </g>
  <g>
    <path d="M13.52,293.63c-.49-.15-.86-.47-1.2-.79s-.67-.65-1-.99c-.21-.22-.44-.47-.62-.76-.38-.61-.51-1.34-.34-1.99.18-.73.72-1.33,1.41-1.55.34-.11.74-.13,1.14-.06l-.18.98c-.24-.04-.46-.03-.65.03-.35.11-.65.44-.75.84-.1.39-.01.84.22,1.22.13.21.32.42.5.6.31.33.63.64.95.94.27.25.53.48.82.57l-.3.96h0Z" style="fill: #fff;"/>
    <path d="M13.85,294.26l-.48-.15c-.59-.18-1.03-.56-1.4-.9-.35-.32-.69-.66-1.02-1.01-.23-.24-.48-.51-.69-.84-.45-.73-.6-1.59-.4-2.38.23-.9.89-1.63,1.74-1.9.41-.14.89-.16,1.38-.08l.49.09-.36,1.97-.49-.09c-.16-.03-.3-.02-.41.01-.19.06-.36.26-.41.48-.06.25,0,.58.16.84.11.17.28.35.44.52.3.32.61.62.93.92.21.2.44.4.63.46l.48.15-.59,1.91h0ZM12.91,292.7c.1.08.2.16.31.23h0c-.11-.07-.21-.15-.31-.23ZM12.11,291.95c.14.14.29.28.43.42-.15-.14-.29-.28-.43-.42ZM10.81,289.37c-.08.48.03,1,.31,1.45.14.23.32.43.5.62-.18-.19-.36-.39-.5-.62-.28-.44-.39-.97-.31-1.45ZM12.31,287.95c-.11,0-.22.02-.32.05.1-.03.21-.04.32-.05h0Z" style="fill: #fff;"/>
  </g>
  <g>
    <path d="M41.26,298.9c-.45-3.87-1.17-8.2-1.87-12.38-.28-1.68-.55-3.32-.8-4.88-.24-1.5-.51-3.19-1.25-4.64-.11-.21-.25-.44-.42-.52-.15-.06-.38-.04-.59-.02-.61.06-1.17.07-1.76.09l-.64.02c-4.34.16-8.68.35-13.02.55-4.08.19-8.71.41-12.83,2.05-.62.25-1.36.61-1.6,1.21-.14.36-.1.82-.07,1.22l.4,5.17-1,.08-.4-5.17c-.04-.49-.08-1.09.14-1.66.38-.96,1.35-1.45,2.16-1.77,4.28-1.7,9-1.92,13.16-2.12,4.34-.21,8.68-.39,13.03-.55l.65-.02c.56-.02,1.1-.03,1.69-.09.32-.03.71-.07,1.1.11.45.2.71.61.9.97.82,1.59,1.1,3.37,1.35,4.94.25,1.56.52,3.2.8,4.87.7,4.2,1.42,8.54,1.87,12.43l-.99.12h0Z" style="fill: #fff;"/>
    <path d="M40.82,299.45l-.06-.5c-.45-3.86-1.17-8.18-1.86-12.36l-.02-.12c-.27-1.64-.54-3.24-.78-4.77-.23-1.46-.49-3.11-1.2-4.49-.12-.23-.18-.29-.19-.3-.03,0-.23.02-.32.03-.62.06-1.19.08-1.79.09l-.64.02c-4.34.16-8.67.35-13.01.55-4.04.19-8.62.41-12.67,2.02-.49.19-1.15.5-1.32.92-.1.25-.07.65-.04,1l.44,5.67-1.99.15-.44-5.67c-.04-.51-.09-1.21.17-1.88.44-1.14,1.54-1.7,2.44-2.06,4.36-1.73,9.12-1.96,13.32-2.16,4.32-.21,8.71-.39,13.03-.55l.65-.02c.56-.02,1.09-.03,1.66-.08.36-.03.85-.08,1.35.15.59.26.92.78,1.13,1.2.86,1.67,1.15,3.49,1.4,5.09.24,1.54.51,3.15.79,4.81.71,4.27,1.44,8.62,1.89,12.52l.06.5-1.99.23h-.01ZM5.91,281.58v.05l.26,3.41-.26-3.41v-.05ZM6.28,279.75c-.11.13-.19.28-.26.44-.14.37-.15.77-.13,1.15-.02-.37-.02-.78.13-1.15.06-.16.15-.31.26-.44ZM36.65,275.93c.16,0,.33.02.48.09.31.14.5.44.66.75.45.87.73,1.81.94,2.75-.2-.93-.49-1.88-.94-2.75-.16-.31-.35-.61-.65-.75-.26-.12-.56-.09-.84-.07-.14,0-.27.02-.4.03.13,0,.26-.02.4-.03.11,0,.23-.02.36-.02h0ZM14.71,277.07c-2.3.29-4.62.76-6.81,1.63-.1.04-.21.09-.32.13.11-.05.22-.09.32-.13,2.19-.87,4.51-1.35,6.81-1.63ZM14.71,277.07h0ZM34.25,276.05h-.34c-3.46.14-6.97.29-10.45.44,3.49-.16,6.97-.3,10.46-.43h.33Z" style="fill: #fff;"/>
  </g>
  <g>
    <path d="M17.37,282l.02-.55c.01-.38.2-.75.51-1.01.22-.18.47-.29.74-.32v-.03l2.07.06c.5.02.7.26.78.45.08.2.06.43-.05.64-.29.51-.9.55-1.17.57l-2.9.19h0Z" style="fill: #fff;"/>
    <path d="M16.85,282.53l.04-1.11c.02-.52.27-1.02.69-1.37.17-.14.36-.25.57-.33v-.12l.5-.02,2.07.06c.59.02,1.03.3,1.23.76.14.34.11.73-.08,1.08-.42.75-1.29.81-1.57.82l-3.45.22h0ZM18.82,280.59l-.12.02c-.17.02-.34.09-.48.21-.2.17-.32.4-.33.64l2.35-.15c.31-.02.63-.07.76-.32.04-.07.05-.15.03-.21-.01-.03-.06-.14-.33-.14l-1.88-.06h0Z" style="fill: #fff;"/>
  </g>
  <g>
    <path d="M25.25,281.38c-.65,0-1.3-.06-1.96-.19-.1-.02-.3-.06-.46-.21-.13-.12-.21-.3-.22-.48v-.21l.17-.24c.19-.19.42-.2.51-.2h.05c1.74-.41,3.2-.53,4.55-.36.5.06.67.35.72.52.13.4-.13.8-.63.96-.85.28-1.78.42-2.73.42h0Z" style="fill: #fff;"/>
    <path d="M25.25,281.88c-.68,0-1.37-.07-2.06-.2-.13-.03-.43-.08-.7-.33-.23-.21-.37-.51-.38-.83v-.39l.27-.38c.26-.27.55-.39.9-.4,1.75-.42,3.25-.53,4.67-.35.81.1,1.06.64,1.13.87.21.67-.19,1.33-.95,1.58-.9.29-1.87.44-2.88.44h0ZM23.1,280.44v.04s.02.09.06.12c.06.06.15.08.22.09,1.54.3,3.09.23,4.44-.21.14-.04.36-.16.3-.33-.03-.09-.13-.15-.3-.17-1.3-.16-2.69-.05-4.37.35h-.1c-.11.02-.17.02-.21.06l-.03.04h-.01Z" style="fill: #fff;"/>
  </g>
  <g>
    <path d="M40.53,329.36l-.14-.99c.16-.02.39-.04.66-.06.47-.04,1.57-.12,1.8-.29l.04-.12c-.03-.56-.16-2.17-.25-2.64l.98-.18c.1.57.24,2.35.26,2.75,0,.09.02.27-.04.45-.06.2-.19.37-.39.52-.43.33-1.28.42-2.34.5-.24.02-.45.03-.6.05h.02Z" style="fill: #fff;"/>
    <path d="M40.1,329.92l-.27-1.98.49-.07c.17-.02.41-.04.69-.06.74-.05,1.15-.11,1.36-.15-.05-.7-.16-1.94-.22-2.31l-.09-.49,1.97-.35.09.49c.12.65.25,2.56.27,2.81,0,.12.02.36-.06.63-.09.29-.28.55-.56.76-.54.42-1.42.52-2.61.6-.26.02-.44.03-.56.05,0,0-.5.07-.5.07ZM42.28,328.68c-.27.04-.61.08-1.05.11.34-.03.72-.06,1.05-.11ZM43.4,327.97l-.12.32c.06-.07.08-.12.09-.16.02-.05.02-.11.02-.16h0ZM43.39,327.87v.02-.02ZM43.2,325.67c.08.72.17,1.83.19,2.2h0c-.02-.37-.11-1.48-.19-2.2h0Z" style="fill: #fff;"/>
  </g>
  <g>
    <path d="M24.3,331.24l-.16-.99c6.06-1.01,12.06-1.7,16.47-1.9l.05,1c-4.37.2-10.33.89-16.35,1.89h-.01Z" style="fill: #fff;"/>
    <path d="M23.89,331.82l-.33-1.97.49-.08c6.08-1.01,12.1-1.7,16.53-1.91l.5-.02.09,2-.5.02c-4.35.2-10.29.89-16.29,1.88,0,0-.49.08-.49.08ZM33.26,329.47c-2.42.28-5,.63-7.61,1.04,2.61-.41,5.19-.76,7.61-1.04Z" style="fill: #fff;"/>
  </g>
  <g>
    <path d="M33.06,334.55c-.54,0-1.07-.17-1.47-.52-.46-.4-.7-1.04-.65-1.69.04-.44.2-.83.47-1.13h0s.01-.01.02-.02c.1-.1.2-.19.32-.27l.02.03c.73-.43,1.57-.54,2.28-.28.51.19.95.61,1.17,1.12.2.46.22.95.04,1.38-.11.28-.3.53-.56.76-.46.4-1.06.6-1.64.6v.02ZM32.12,331.93c-.1.13-.16.3-.17.49-.03.34.09.67.31.86.46.4,1.28.36,1.79-.09.14-.12.24-.25.3-.38.1-.24.02-.48-.03-.6-.12-.27-.35-.49-.6-.59-.47-.17-1.08-.05-1.59.31h-.01Z" style="fill: #fff;"/>
    <path d="M33.06,335.05c-.68,0-1.32-.23-1.79-.65-.58-.51-.88-1.29-.82-2.1.03-.41.16-.79.36-1.11l-.07-.11.38-.28c.07-.08.21-.2.37-.3l.42-.27.05.08c.76-.32,1.56-.36,2.27-.09.63.23,1.18.75,1.46,1.39.26.59.27,1.22.04,1.77-.15.35-.38.67-.7.95-.54.47-1.23.73-1.97.73h0ZM31.83,333.56h0ZM31.74,331.6c-.17.21-.27.48-.3.78-.04.45.11.88.38,1.18-.28-.3-.42-.73-.38-1.18.02-.29.12-.55.28-.75,0,0,.02-.03.02-.03ZM34.83,332.92s-.02.05-.03.08c-.08.19-.21.37-.39.54.18-.17.31-.34.39-.54,0-.03.02-.05.03-.08ZM32.48,332.29s-.04.11-.04.17c-.02.21.06.37.14.45.27.24.81.19,1.13-.09.12-.1.15-.18.16-.2.02-.06,0-.15-.03-.21-.06-.14-.19-.27-.32-.32-.29-.11-.69-.03-1.05.2h0ZM34.13,331.27c.28.17.51.43.64.73.05.11.11.28.12.47,0-.16-.05-.32-.12-.47-.13-.31-.37-.57-.64-.73ZM31.79,331.54h-.01s0,.02-.01.03l.06-.04c.6-.43,1.32-.58,1.92-.41-.53-.15-1.16-.05-1.72.28l-.22.13s-.01.01-.02.02h0Z" style="fill: #fff;"/>
  </g>
  <g>
    <path d="M38.56,300.97c-.57-4.42-1.53-10.79-2.85-16.07-.24-.95-.56-2-1.33-2.45-.36-.21-.82-.28-1.22-.33-1.74-.23-3.48-.08-5.32.08-.44.04-.89.08-1.34.11l-.07-1c.45-.03.89-.07,1.33-.11,1.9-.16,3.69-.31,5.54-.07.5.07,1.07.16,1.59.46,1.11.64,1.51,1.92,1.8,3.07,1.33,5.32,2.3,11.74,2.88,16.19l-.99.13h-.02Z" style="fill: #fff;"/>
    <path d="M38.13,301.53l-.06-.5c-.57-4.41-1.53-10.76-2.84-16.02-.21-.85-.49-1.79-1.09-2.14-.27-.16-.66-.22-1.03-.27-1.69-.22-3.4-.07-5.21.08-.45.04-.9.08-1.35.11l-.5.04-.15-2,.5-.04c.4-.03.8-.06,1.19-.1h.13c1.92-.17,3.73-.33,5.64-.08.55.07,1.18.18,1.78.52,1.28.74,1.72,2.13,2.03,3.38,1.34,5.34,2.31,11.78,2.89,16.24l.06.5-1.98.26v.02ZM38.28,295.45c.28,1.78.52,3.47.71,4.96h0c-.2-1.49-.44-3.18-.71-4.96ZM32.42,281.54c.27.02.54.04.81.08.48.06.98.15,1.41.4.59.34.95.93,1.21,1.58-.25-.65-.61-1.24-1.21-1.58-.44-.25-.96-.34-1.41-.4-.27-.04-.54-.06-.8-.08h-.01ZM26.96,281.77h0c.19-.02.38-.03.57-.05-.19.02-.38.03-.57.05Z" style="fill: #fff;"/>
  </g>
  <g>
    <path d="M42.66,325.4c-1.04-7.82-1.92-13.72-2.7-18.02l.98-.18c.78,4.32,1.66,10.23,2.7,18.07l-.99.13h.01Z" style="fill: #fff;"/>
    <path d="M42.23,325.96l-.07-.5c-1.04-7.82-1.92-13.71-2.69-18l-.09-.49,1.97-.36.09.49c.78,4.33,1.67,10.24,2.71,18.09l.07.5-1.98.26h-.01ZM40.55,307.78c.45,2.56.94,5.66,1.48,9.37-.54-3.71-1.03-6.81-1.48-9.37h0Z" style="fill: #fff;"/>
  </g>
  <g>
    <path d="M19.77,338.81c-.76,0-1.55-.02-2.38-.07-.71-.04-1.32-.29-1.97-.81-.37-.3-.79-.66-1.07-1.14-.4-.68-.46-1.48-.5-2.13l-.23-3.15,1-.07.23,3.15c.04.57.09,1.21.37,1.7.2.34.54.63.84.87.49.39.89.57,1.39.59,5.31.28,9.06-.44,13.82-1.35,1.12-.21,2.28-.44,3.53-.66,3.67-.65,7.34-1.32,11-1.99.62-.11,1.33-.24,1.81-.63.41-.33.38-.99.29-1.49-1.52-8.26-3.21-16.6-5.03-24.78l.98-.22c1.82,8.2,3.51,16.54,5.03,24.82.25,1.38-.21,2.09-.65,2.45-.68.55-1.55.71-2.26.84-3.67.67-7.34,1.34-11.01,1.99-1.24.22-2.41.45-3.52.66-4.08.78-7.44,1.43-11.68,1.43h.01Z" style="fill: #fff;"/>
    <path d="M19.77,339.31c-.77,0-1.57-.02-2.41-.07-.81-.04-1.53-.34-2.26-.92-.4-.33-.86-.72-1.19-1.28-.46-.78-.52-1.69-.57-2.34l-.26-3.65,1.99-.14.26,3.65c.04.52.08,1.1.3,1.48.16.27.45.52.72.73.4.33.71.46,1.11.48,5.26.28,8.98-.44,13.69-1.34,1.12-.21,2.29-.44,3.54-.66,3.67-.65,7.34-1.32,11-1.99.57-.1,1.2-.22,1.58-.53.17-.13.21-.51.12-1.01-1.52-8.25-3.21-16.58-5.02-24.76l-.11-.49,1.95-.43.11.49c1.82,8.21,3.52,16.57,5.04,24.84.3,1.62-.28,2.49-.82,2.92-.78.63-1.76.81-2.48.94-3.67.67-7.34,1.34-11.01,1.99-1.16.21-2.24.41-3.28.61l-.23.04c-4.02.77-7.49,1.44-11.77,1.44ZM17.93,338.27c4.33.19,7.59-.29,11.35-.99-3.72.69-7.02,1.17-11.35.99ZM14.85,336.65c.17.26.39.48.62.68-.22-.2-.45-.42-.62-.68ZM33.49,336.49c-.36.07-.72.13-1.07.2.35-.07.7-.13,1.07-.2ZM46.69,334.07c-.27.07-.55.12-.81.17-3.35.61-6.7,1.22-10.05,1.82,3.35-.6,6.7-1.21,10.04-1.82.26-.05.54-.1.81-.17h0ZM48.42,332.58c-.08.47-.29.76-.5.93-.03.02-.05.04-.08.06.03-.02.06-.04.08-.06.27-.22.44-.53.5-.93ZM43.46,307.23c1.5,6.8,2.92,13.7,4.22,20.57-1.3-6.87-2.72-13.76-4.22-20.57h0Z" style="fill: #fff;"/>
  </g>
  <g>
    <path d="M10.83,285.88l-1-.04c0-.18-.02-.37-.05-.55-.02-.15-.04-.3-.05-.45-.04-.58.11-1.06.44-1.37.35-.34.84-.42,1.16-.47l2.2-.35c4.25-.67,8.65-1.35,13.04-1.34v1c-4.32.01-8.68.67-12.89,1.33l-2.2.35c-.27.04-.5.09-.61.2-.11.1-.16.32-.14.59,0,.13.03.25.04.38.03.24.07.48.06.73h0Z" style="fill: #fff;"/>
    <path d="M11.31,286.4l-2-.08.02-.5c0-.14-.02-.29-.04-.43-.03-.19-.05-.35-.06-.52-.05-.73.16-1.34.59-1.76.46-.45,1.06-.55,1.42-.6l2.2-.35c4.01-.63,8.56-1.35,13.07-1.35h.56v2h-.5c-4.15.01-8.25.61-12.81,1.33l-2.2.35c-.07.01-.26.04-.35.07.02,0,0,.08.01.19,0,.11.02.21.04.32.04.29.07.55.06.83l-.02.5h.01ZM10.3,285.35h0l-.02-.13v-.03.03s.01.09.02.13ZM10.23,284.73v.14-.14ZM26.06,281.81c-4.28.05-8.62.73-12.46,1.33l-2.19.35c-.11.02-.23.04-.35.07.11-.03.23-.05.35-.07l2.2-.35c4.41-.7,8.41-1.28,12.46-1.33h-.01Z" style="fill: #fff;"/>
  </g>
  <g>
    <path d="M14.96,390.26c-.15-3.98-.48-9.02-1.67-12.63l-.23-.69.72.03c2.38.1,4.79-.21,7.12-.51,10.67-1.4,22.76-2.98,34.19-6.12l.57-.16.06.59c.09.91.35,1.8.75,2.58.78,1.53,1.46,3.44,2.19,5.47.83,2.31,1.68,4.7,2.66,6.4l-.87.5c-1.03-1.77-1.9-4.21-2.74-6.56-.71-2-1.39-3.89-2.14-5.36-.37-.72-.63-1.53-.77-2.35-11.33,3.05-23.24,4.62-33.77,6-2.15.28-4.35.58-6.59.54,1.06,3.66,1.36,8.42,1.51,12.23l-1,.04h.01Z" style="fill: #fff;"/>
    <path d="M14.48,390.78l-.02-.5c-.15-3.95-.48-8.94-1.64-12.5l-.45-1.38,1.45.07c2.38.09,4.85-.23,7.03-.51,10.65-1.4,22.72-2.98,34.12-6.11l1.14-.31.12,1.18c.09.84.33,1.68.7,2.4.79,1.55,1.48,3.48,2.21,5.52.82,2.3,1.67,4.67,2.63,6.32l.25.43-1.73,1-.25-.43c-1.05-1.81-1.93-4.27-2.77-6.64-.71-1.99-1.38-3.86-2.11-5.3-.31-.6-.55-1.27-.71-1.96-11.21,2.97-22.95,4.51-33.32,5.87l-.25.03c-1.87.25-3.79.5-5.75.52.94,3.63,1.21,8.13,1.35,11.71l.02.5-2,.08h-.02ZM14.95,383.21c.16,1.33.28,2.68.36,3.99-.08-1.31-.2-2.66-.36-3.99ZM58.58,380.07c.31.87.63,1.72.96,2.54-.33-.82-.65-1.68-.96-2.54ZM14.31,379.45h0ZM13.77,377.46h0c.2.62.38,1.29.54,1.98-.1-.45-.22-.9-.34-1.32l-.19-.65h.68c2.12.06,4.23-.22,6.27-.49l.25-.03c4.24-.56,8.71-1.14,13.28-1.84-4.56.7-9.03,1.29-13.28,1.84-2.22.29-4.74.62-7.21.52h0ZM55.94,373.39c.03.06.06.12.09.18.36.7.69,1.49,1.03,2.34-.33-.85-.67-1.64-1.03-2.34-.03-.06-.06-.12-.09-.18ZM34.27,375.1h0ZM55.23,370.81h0c-2.46.67-4.94,1.28-7.44,1.82,2.31-.5,4.61-1.06,6.89-1.67l.53-.14.09.54c.02.09.03.18.05.27-.06-.27-.1-.54-.13-.82h.01Z" style="fill: #fff;"/>
  </g>
  <g>
    <path d="M7.52,391.46l-.06-1c13.34-.86,26.86-2.02,40.17-3.43.91-.1,1.79-.18,2.63-.27,4.42-.43,7.92-.78,12.38-2.29l.32.95c-4.57,1.55-8.29,1.92-12.6,2.34-.84.08-1.71.17-2.62.26-13.33,1.42-26.86,2.57-40.21,3.44h-.01Z" style="fill: #fff;"/>
    <path d="M7.06,391.99l-.13-2,.5-.03c13.33-.86,26.84-2.02,40.15-3.43.83-.09,1.63-.17,2.4-.24l.23-.02c4.39-.43,7.86-.77,12.27-2.26l.47-.16.64,1.89-.47.16c-4.62,1.57-8.37,1.94-12.72,2.36l-.27.03c-.75.07-1.53.15-2.34.24-13.33,1.42-26.87,2.58-40.23,3.44l-.5.03h0ZM7.99,390.93h0c9.54-.62,19.17-1.39,28.75-2.3-9.58.91-19.21,1.68-28.75,2.3ZM49.83,387.3c-.54.05-1.09.11-1.65.17.57-.06,1.12-.11,1.65-.17ZM62.33,385.1c-.06.02-.12.04-.18.06.06-.02.12-.04.18-.06h0Z" style="fill: #fff;"/>
  </g>
  <g>
    <path d="M27.29,387.22c-.16,0-.33-.01-.5-.04-.68-.09-1.32-.36-1.91-.62-.2-.09-.54-.24-.73-.58-.16-.28-.15-.58-.14-.78v-.47c.03-1.1.05-2.24.81-2.76.49-.33,1.16-.33,2.04,0,.42.16.75.32,1.04.5.36.24.67.53.96.81.33.31.73.7.9,1.25.24.78-.1,1.68-.81,2.19-.45.33-1.03.5-1.66.5ZM25,385.24h0c0,.06,0,.22.02.26.03.05.21.13.27.15.55.24,1.09.47,1.64.55.32.04.95.07,1.43-.28.36-.26.55-.73.44-1.09-.09-.3-.38-.57-.63-.81-.27-.26-.53-.51-.82-.69-.22-.15-.49-.28-.84-.4-.54-.2-.94-.24-1.13-.11-.34.23-.35,1.14-.37,1.95v.49-.02Z" style="fill: #fff;"/>
    <path d="M27.29,387.72c-.19,0-.37-.01-.57-.04-.75-.1-1.42-.38-2.05-.66-.24-.11-.69-.31-.96-.79-.23-.4-.22-.82-.21-1.04v-.47c.03-1.17.05-2.49,1.03-3.16.63-.43,1.45-.45,2.5-.06.46.17.82.34,1.14.55.4.26.72.57,1.03.87.35.33.82.79,1.03,1.46.3.98-.11,2.11-1,2.75-.54.39-1.21.59-1.95.59h0ZM27.03,386.71c.24.02.47.01.69-.02-.25.04-.49.04-.69.02ZM29.29,384.71c.14.52-.07,1.13-.52,1.52.45-.39.66-.99.52-1.52ZM24.8,385.96c.08.05.17.09.25.13-.1-.04-.18-.09-.25-.13ZM24.56,385.7s.01.03.02.04c0,0,0,.01.01.02,0,0,0-.01-.01-.02,0-.01-.02-.03-.02-.05h0ZM25.5,385.2c.51.23,1.01.43,1.49.5.2.03.71.06,1.07-.19.2-.15.3-.4.26-.54-.05-.17-.3-.41-.49-.59-.26-.25-.5-.48-.75-.64-.19-.13-.43-.24-.74-.35-.44-.16-.66-.16-.71-.15-.09.15-.11,1.08-.12,1.53v.44h-.01ZM24.51,384.96v.26c0,.09-.01.2,0,.3-.01-.08-.01-.18,0-.29v-.27ZM28.66,383.79c.24.23.48.51.6.83-.12-.33-.36-.59-.6-.83ZM26.96,382.55c.26.11.47.22.66.35.05.03.1.07.15.1-.05-.04-.1-.07-.15-.11-.19-.12-.41-.24-.66-.34h0ZM25.69,382.22c.27,0,.58.07.96.2-.71-.26-1.21-.27-1.55-.04,0,0-.02.01-.03.02,0,0,.02-.01.02-.02.16-.11.36-.16.59-.16h.01Z" style="fill: #fff;"/>
  </g>
  <g>
    <path d="M30.89,384.27v-1c1.5-.02,3.01-.27,4.45-.74l.31.95c-1.54.5-3.14.76-4.76.79h0Z" style="fill: #fff;"/>
    <path d="M30.4,384.78l-.03-2h.5c1.47-.03,2.92-.27,4.32-.72l.48-.15.62,1.9-.48.15c-1.59.51-3.24.79-4.91.81h-.5,0Z" style="fill: #fff;"/>
  </g>
  <g>
    <path d="M19.39,411.38c-.19-2.62-.2-5.28-.04-7.91l1,.06c-.16,2.58-.15,5.2.04,7.77l-1,.07h0Z" style="fill: #fff;"/>
    <path d="M18.92,411.92l-.04-.5c-.19-2.65-.21-5.33-.04-7.97l.03-.5,2,.12-.03.5c-.16,2.56-.15,5.15.04,7.71l.04.5-1.99.14h-.01ZM19.81,404c-.04.77-.07,1.54-.08,2.32.01-.77.04-1.55.08-2.32h0Z" style="fill: #fff;"/>
  </g>
  <g>
    <path d="M35.9,532.01c-.2-18.42-3.84-36.79-7.37-54.56l-6.18-31.16c-1.26-6.36-2.57-12.94-4.06-19.36-2.47-10.62-5.96-21.96-10.99-35.68l.94-.34c5.05,13.77,8.55,25.14,11.03,35.8,1.5,6.44,2.8,13.02,4.07,19.39l6.18,31.16c3.54,17.81,7.19,36.23,7.39,54.75h-1.01Z" style="fill: #fff;"/>
    <path d="M35.4,532.52v-.5c-.2-18.38-3.84-36.72-7.36-54.47l-6.18-31.16c-1.27-6.38-2.57-12.94-4.06-19.34-2.46-10.6-5.95-21.92-10.97-35.62l-.17-.47,1.88-.69.17.47c5.05,13.79,8.56,25.18,11.04,35.86,1.5,6.44,2.8,13.02,4.07,19.38l6.19,31.18c3.54,17.83,7.2,36.27,7.4,54.84v.5l-1.99.02h-.02ZM35.78,519.53c.34,3.99.56,7.98.61,11.98h0c-.06-4-.27-8-.61-11.98ZM21.68,440.4h0ZM19.74,431.1c.68,3.09,1.32,6.2,1.94,9.28-.62-3.08-1.26-6.19-1.94-9.28ZM12.27,403.97c1.85,5.61,3.42,10.84,4.76,15.85-1.33-5.01-2.9-10.24-4.76-15.85Z" style="fill: #fff;"/>
  </g>
  <g>
    <path d="M86.83,527.37c-16.73-45.99-20.87-97.2-24.52-142.38l1-.08c3.65,45.12,7.78,96.26,24.46,142.12l-.94.34Z" style="fill: #fff;"/>
    <path d="M86.53,528.01l-.17-.47c-16.75-46.06-20.9-97.3-24.55-142.51l-.04-.5,1.99-.16.04.5c3.65,45.09,7.78,96.19,24.44,141.99l.17.47-1.88.68h0ZM62.84,385.44c1.44,17.8,2.96,36.54,5.3,55.51-2.34-18.97-3.86-37.7-5.3-55.51h0Z" style="fill: #fff;"/>
  </g>
  <g>
    <path d="M64.21,460.75l-1.26-1.39c-4.06-4.46-7.6-9.41-10.51-14.69-1.54-2.79-3.01-6.09-2.29-9.37l.98.21c-.65,2.95.75,6.04,2.19,8.67,2.78,5.04,6.13,9.77,9.97,14.05l.36-.08.57,2.59h-.01Z" style="fill: #fff;"/>
    <path d="M65.1,462.48l-2.53-2.78c-4.09-4.49-7.65-9.47-10.58-14.79-1.58-2.87-3.1-6.28-2.35-9.72l.11-.49,1.95.43-.11.49c-.61,2.79.74,5.77,2.14,8.32,2.71,4.92,5.98,9.54,9.71,13.74l.56-.12,1.08,4.91h.02ZM63.1,458.79c.07.08.14.16.21.23l-.06-.27-.15.03h0ZM61.73,457.23c.42.49.84.97,1.27,1.45l-.09-.1c-.4-.44-.79-.89-1.17-1.34h-.01ZM54.14,446.64h0ZM54.13,446.62h0ZM50.45,436.9c-.05,2.63,1.16,5.25,2.42,7.53.41.74.83,1.47,1.26,2.19-.43-.72-.85-1.46-1.26-2.19-1.26-2.28-2.47-4.9-2.42-7.53Z" style="fill: #fff;"/>
  </g>
  <g>
    <path d="M64.29,476.79c-.49,0-.92-.23-1.32-.49-3.02-1.92-5.48-4.62-7.11-7.81l.89-.45c1.54,3.03,3.88,5.6,6.75,7.42.28.17.59.36.86.33v.09h.59s-.05.85-.05.85l-.41.05c-.07,0-.13.01-.19.01h0Z" style="fill: #fff;"/>
    <path d="M64.29,477.29c-.62,0-1.15-.29-1.59-.56-3.1-1.96-5.62-4.73-7.28-8l-.23-.45,1.78-.91.23.45c1.5,2.95,3.78,5.45,6.57,7.22.1.06.42.24.52.25l.49-.05.02.14h.67l-.1,1.79-.83.11c-.09.01-.17.02-.26.02h.01ZM56.54,468.71c.38.7.8,1.38,1.26,2.02-.46-.65-.88-1.32-1.26-2.02h0Z" style="fill: #fff;"/>
  </g>
  <g>
    <path d="M44.77,513.81c-.43-3.27-.07-6.58.28-9.78.27-2.49.55-5.06.45-7.58l1-.04c.1,2.59-.18,5.2-.46,7.72-.32,2.98-.66,6.05-.35,9.04h.09l-.02.59-1,.04h0Z" style="fill: #fff;"/>
    <path d="M44.33,514.33l-.06-.46c-.43-3.33-.07-6.67.28-9.9.27-2.47.55-5.03.45-7.5l-.02-.5,2-.08.02.5c.1,2.62-.18,5.25-.46,7.8-.31,2.8-.62,5.7-.39,8.5h.06l.07.51-.04,1.04-1.91.08h0ZM45.2,513.23v.06h.02l-.02-.06ZM45.72,502.46c-.06.55-.11,1.09-.17,1.63-.24,2.2-.49,4.46-.47,6.7,0-2.25.23-4.5.47-6.7.06-.54.12-1.08.17-1.63Z" style="fill: #fff;"/>
  </g>
  <path d="M36.02,268.1c-1.51-.5-2.58-1.73-3.01-3.46-.57-2.32.12-4.99,1.72-6.64,2.64-2.73,6.67-3.46,10.23-4.11l.25-.05c3.74-.68,7.47-1.7,9.48-4.51,1.94-2.73,1.69-6.17,1.42-9.8-.23-3.12-.47-6.34.75-9.2,2.76-6.51,11.25-7.72,16.07-7.87.84-.02,1.69-.04,2.55-.05,5.3-.08,10.79-.16,14.9-3.22,4.34-3.22,5.75-8.5,7.24-14.08,1.14-4.28,2.33-8.71,4.94-12.23,7.24-9.76,21.83-8.85,33.54-8.13l.61.04c16.12.99,32.27-.38,48-4.07,3.94-.92,8.37-2.18,11.08-5.41,2.87-3.41,3.12-7.92,3.38-12.69.16-2.97.33-6.05,1.18-8.88,2.97-9.88,13.45-14.88,22.27-16.27,5.56-.87,11.26-.75,16.78-.63,3.87.08,7.87.17,11.77-.09,21.46-1.42,40.92-13.1,58.08-23.4,2.97-1.79,6.35-3.81,8.5-6.79,1.17-1.62,1.97-3.51,2.75-5.35.37-.88.76-1.78,1.18-2.66,5.22-10.81,17.2-18.75,34.64-22.96,4.01-.97,8.16-1.77,12.16-2.54,9.73-1.88,19.8-3.82,28.7-8.36,21.54-10.98,33.43-35.81,42.11-53.94l.9.43c-8.74,18.26-20.71,43.27-42.56,54.4-9.03,4.6-19.16,6.56-28.96,8.45-3.99.77-8.12,1.57-12.12,2.53-11.95,2.89-27.54,9.12-33.97,22.43-.41.85-.79,1.75-1.16,2.61-.8,1.88-1.63,3.83-2.86,5.54-2.27,3.15-5.74,5.23-8.79,7.06-17.26,10.36-36.83,22.11-58.53,23.54-3.94.26-7.96.17-11.85.09-5.47-.12-11.13-.24-16.6.62-8.51,1.34-18.62,6.13-21.47,15.57-.82,2.72-.98,5.73-1.14,8.64-.26,4.72-.53,9.61-3.61,13.28-2.91,3.46-7.52,4.78-11.62,5.74-15.82,3.71-32.07,5.09-48.29,4.09l-.61-.04c-12.07-.75-25.76-1.59-32.68,7.73-2.5,3.37-3.66,7.7-4.78,11.89-1.47,5.51-3,11.2-7.61,14.63-4.37,3.25-10.02,3.33-15.48,3.42-.85.01-1.7.03-2.54.05-4.58.14-12.63,1.26-15.18,7.26-1.12,2.64-.89,5.74-.67,8.74.27,3.65.55,7.43-1.6,10.45-2.21,3.11-6.17,4.2-10.11,4.92l-.25.05c-3.58.65-7.27,1.32-9.69,3.82-1.35,1.4-1.95,3.74-1.47,5.71.34,1.39,1.18,2.37,2.35,2.75l-.31.95Z" style="fill: #fff;"/>
  <path d="M8.55,268.62c-2.15-2.97-.05-6.16,1.98-9.24,1.72-2.62,3.51-5.33,2.88-7.97-.3-1.26-1.11-2.3-1.98-3.41-.48-.62-.98-1.26-1.39-1.94-3.18-5.34-.5-10.91,2.34-16.8,2.11-4.38,4.29-8.91,3.92-13.39-.14-1.65-.58-3.47-1.02-5.23-1.08-4.39-2.21-8.94,1.34-11.58,1.02-.76,2.22-1.11,3.38-1.46.49-.15.98-.29,1.46-.47,9.09-3.38,9.6-16.4,9.39-21.84l-.06-1.57c-.34-8.28-.72-17.67,5.24-23.58,1.04-1.03,2.23-1.9,3.38-2.74,1.3-.95,2.65-1.93,3.73-3.12,4.08-4.53,3.94-11.19,3.8-17.63l-.03-1.53c-.24-14.21,2.63-28.6,8.31-41.62,1.92-4.41,4.47-9.35,8.82-12.52,4-2.93,10.36-4.15,14.79-.82.55.41,1.05.88,1.54,1.34,1,.93,1.95,1.81,3.16,2.16,2.75.8,5.53-1.27,8.5-6.34,5.8-9.88,15.84-19.34,26.59-16.28,1.36.39,2.79.97,4.16,1.53,3.94,1.61,7.66,3.13,10.45.76,1.33-1.13,1.91-2.84,2.51-4.65.28-.84.58-1.72.96-2.54,3.1-6.68,11.55-8.75,18.08-7.85,4.61.63,8.99,2.39,13.22,4.09,2.04.82,4.16,1.67,6.26,2.38,20.44,6.87,41.89,1.28,56.29-4.62,5.49-2.25,11.73-5.2,16.43-10.07,4.24-4.39,6.94-10.08,9.56-15.57,2.39-5.02,4.86-10.21,8.5-14.5l.76.65c-3.56,4.19-6,9.32-8.36,14.28-2.65,5.57-5.39,11.33-9.74,15.84-4.83,5-11.19,8.02-16.77,10.31-14.56,5.97-36.26,11.61-56.99,4.64-2.13-.72-4.26-1.57-6.32-2.4-4.18-1.68-8.5-3.41-12.99-4.03-6.18-.85-14.15,1.06-17.04,7.28-.36.77-.64,1.61-.92,2.43-.62,1.86-1.27,3.78-2.81,5.09-3.25,2.76-7.43,1.05-11.47-.6-1.35-.55-2.75-1.12-4.06-1.5-10.2-2.91-19.84,6.26-25.46,15.82-1.19,2.03-4.82,8.19-9.64,6.79-1.43-.42-2.51-1.42-3.56-2.39-.47-.44-.96-.89-1.47-1.27-4.04-3.04-9.9-1.89-13.6.82-4.15,3.04-6.62,7.83-8.49,12.12-5.62,12.9-8.46,27.14-8.23,41.21l.03,1.53c.14,6.33.29,13.49-4.06,18.32-1.15,1.27-2.54,2.28-3.88,3.26-1.12.82-2.28,1.66-3.26,2.64-5.65,5.61-5.27,14.76-4.95,22.83l.06,1.57c.21,5.66-.33,19.21-10.04,22.82-.5.19-1.01.34-1.52.49-1.13.34-2.19.65-3.06,1.3-3.01,2.25-2.02,6.27-.97,10.54.44,1.79.9,3.65,1.04,5.38.39,4.75-1.85,9.41-4.01,13.91-2.72,5.65-5.28,10.98-2.38,15.85.38.63.86,1.25,1.32,1.84.89,1.14,1.81,2.32,2.16,3.79.73,3.06-1.18,5.95-3.02,8.75-2.01,3.05-3.75,5.69-2,8.11l-.81.59Z" style="fill: #fff;"/>
  <g>
    <path d="M64.05,154.62c.63,1.24,1.25,2.52,1.88,3.83-.28.3-.56.61-.84.91-.77-1.14-1.53-2.25-2.3-3.31.42-.48.84-.95,1.26-1.43ZM67.19,151.09c.63,1.29,1.25,2.62,1.88,3.97-.28.3-.56.6-.84.9-.77-1.19-1.53-2.35-2.3-3.46.42-.47.84-.94,1.26-1.41Z" style="fill: #fff;"/>
    <path d="M69.63,148.39c.42-.46.84-.93,1.26-1.39.94,1.71,1.88,3.47,2.81,5.3,2.27-2.36,4.54-4.69,6.81-6.95-.94-1.92-1.88-3.78-2.81-5.6.42-.44.84-.87,1.26-1.3,2.11,4.12,4.22,8.5,6.33,13.14-.42.4-.84.8-1.26,1.2-.96-2.11-1.92-4.16-2.89-6.15-2.27,2.24-4.54,4.55-6.81,6.89.96,1.9,1.92,3.86,2.89,5.89-.42.42-.84.83-1.26,1.25-2.11-4.41-4.22-8.51-6.33-12.3Z" style="fill: #fff;"/>
    <path d="M81.76,135.36c.43-.43.86-.85,1.3-1.27.31.62.62,1.25.93,1.88-.43.42-.87.84-1.3,1.26-.31-.63-.62-1.25-.93-1.86ZM88.42,154.14c-.19-.44-.39-.88-.58-1.31.18-.11.37-.25.56-.43.7-.64.77-1.41.34-2.38-1.72-3.85-3.43-7.54-5.15-11.06.41-.4.82-.79,1.23-1.19,1.76,3.63,3.52,7.43,5.28,11.4.72,1.64.52,3.13-.9,4.42-.28.25-.55.45-.78.55Z" style="fill: #fff;"/>
    <path d="M92.27,136.72c.88-.77,1.75-1.52,2.63-2.26-.11-.23-.21-.46-.32-.69-.72-1.58-1.9-1.82-3.17-.71-1.09.96-1.5,2.29-1.18,3.57-.41.36-.81.73-1.22,1.1-.6-2.07.11-4.3,1.79-5.79,1.38-1.22,2.69-1.48,3.79-.53.02-1.81.87-3.46,2.12-4.47,2.48-2,4.83-.74,6.07,2.01.08.18.16.36.24.54-2.14,1.6-4.28,3.3-6.42,5.07,1.04,2.14,2.79,3.15,4.52,1.78,1.31-1.04,1.64-2.55,1.44-3.98.39-.3.79-.6,1.18-.9.49,2.32-.26,4.7-2.08,6.13-1.56,1.23-3.29,1.14-4.42.02.31,1.69-.33,3.85-2.07,5.35-1.95,1.68-3.76,1.37-4.61-.5-.89-1.95-.16-4.11,1.69-5.74ZM94.76,141.73c1.62-1.39,1.81-3.57.79-5.84-.05-.1-.09-.2-.14-.3-.78.66-1.57,1.33-2.35,2.02-1.48,1.29-1.84,2.54-1.27,3.8.59,1.3,1.74,1.39,2.97.32ZM101.37,129.24c-.99-1.75-2.51-2.39-4.12-1.1-1.51,1.22-1.73,3.32-1.11,5.27,1.74-1.45,3.48-2.84,5.22-4.17Z" style="fill: #fff;"/>
    <path d="M100.88,118.33c.41-.3.82-.6,1.23-.89,2.2,4.67,4.4,9.54,6.61,14.58-.41.29-.82.58-1.23.88-2.2-5.04-4.4-9.91-6.61-14.57Z" style="fill: #fff;"/>
    <path d="M108.12,118.93c.31.67.62,1.35.92,2.02-.16-1.52.53-3.27,1.9-4.12,2.19-1.34,4.88.14,6.22,3.13,1.34,2.99.82,6.37-1.37,7.72-1.36.84-2.98.53-3.94-.51.86,1.96,1.73,3.94,2.59,5.94-.41.27-.82.54-1.23.82-2.1-4.88-4.2-9.62-6.3-14.19.4-.27.8-.53,1.2-.79ZM115.09,126.39c1.61-.99,1.83-3.54.85-5.72-.98-2.18-2.9-3.44-4.5-2.45-1.61.99-1.94,3.63-.96,5.81.98,2.19,3.01,3.35,4.62,2.36Z" style="fill: #fff;"/>
    <path d="M120.07,111.79c2.48-1.22,4.79.47,6.03,3.21.11.23.21.47.32.7-2.14.97-4.28,2.03-6.42,3.16,1.02,2.06,2.72,3.27,4.44,2.41,1.25-.62,1.6-1.78,1.47-3.04.4-.19.8-.38,1.2-.56.4,2.11-.36,3.99-2.11,4.87-2.51,1.27-5.05-.46-6.37-3.39-1.39-3.11-.79-6.26,1.44-7.36ZM124.71,115.01c-.98-1.82-2.53-2.81-4.12-2.03-1.52.76-1.75,2.7-1.12,4.64,1.75-.93,3.49-1.79,5.24-2.61Z" style="fill: #fff;"/>
    <path d="M126.08,109.31c.39-.17.78-.33,1.17-.49.37.81.74,1.62,1.11,2.43-.41-1.7-.02-3.03,1.49-3.62.26-.1.53-.18.72-.18.2.43.39.85.59,1.28-.2.03-.34.08-.57.17-1.56.6-2.05,2.57-.88,5.15.75,1.65,1.49,3.31,2.24,4.98-.41.17-.82.35-1.23.53-1.54-3.47-3.09-6.9-4.63-10.26Z" style="fill: #fff;"/>
    <path d="M135.95,105.59c.39-.13.78-.26,1.17-.38.27.57.53,1.15.8,1.73-.18-1.32.37-2.37,1.59-2.74,1.3-.39,2.51.08,3.51,1.1-.02-1.28.62-2.3,1.9-2.64,2-.53,3.79.8,4.92,3.25.96,2.07,1.91,4.15,2.87,6.23-.41.11-.82.22-1.23.32-.92-2.01-1.84-4.01-2.76-6.01-.83-1.8-2-2.8-3.38-2.43-1.33.36-1.72,1.66-.79,3.69.9,1.96,1.8,3.94,2.71,5.92-.41.12-.82.24-1.23.36-.92-2.02-1.84-4.04-2.76-6.04-.83-1.81-2-2.79-3.36-2.37-1.33.41-1.73,1.75-.8,3.79.9,1.97,1.8,3.96,2.71,5.95-.41.14-.82.27-1.23.41-1.54-3.42-3.09-6.82-4.63-10.16Z" style="fill: #fff;"/>
    <path d="M153.86,100.45c2.48-.57,4.79,1.37,6.03,4.04.11.23.21.46.32.68-2.14.48-4.28.97-6.42,1.48,1.02,2.02,2.72,3.44,4.44,3.03,1.25-.29,1.6-1.24,1.47-2.37.4-.09.8-.18,1.2-.27.4,1.94-.36,3.44-2.11,3.86-2.51.6-5.06-1.46-6.37-4.31-1.39-3.02-.79-5.63,1.44-6.14ZM158.51,104.24c-.98-1.8-2.53-2.98-4.12-2.62-1.52.35-1.75,2-1.12,3.83,1.75-.42,3.49-.82,5.24-1.21Z" style="fill: #fff;"/>
    <path d="M170.62,107.98c-.31-.66-.62-1.32-.92-1.98.17,1.31-.53,2.56-1.9,2.86-2.19.49-4.88-1.49-6.22-4.38-1.34-2.89-.82-5.56,1.37-6.04,1.36-.3,2.98.44,3.93,1.58-.97-2.07-1.93-4.14-2.9-6.21.41-.09.82-.18,1.23-.27,2.2,4.71,4.4,9.46,6.61,14.17-.4.09-.8.18-1.2.27ZM163.66,99.7c-1.61.35-1.83,2.41-.85,4.51.98,2.1,2.9,3.7,4.5,3.34,1.61-.35,1.94-2.44.96-4.54-.98-2.1-3.01-3.67-4.62-3.32Z" style="fill: #fff;"/>
    <path d="M177.97,99.69c.86-.29,1.72-.58,2.58-.88-.06-.12-.11-.25-.17-.37-.71-1.54-1.8-2.28-3.13-1.95-1.18.29-1.52,1.28-1.21,2.37-.41.1-.81.19-1.22.29-.6-1.87.04-3.4,1.86-3.85,2.13-.53,3.92.63,4.93,2.8,1.02,2.19,2.04,4.38,3.06,6.54-.4.1-.8.21-1.2.31-.24-.51-.48-1.03-.72-1.54.13,1.05-.45,2.1-1.86,2.45-1.82.45-3.57-.56-4.43-2.4-.84-1.8-.23-3.19,1.52-3.77ZM180.52,104.72c1.41-.35,1.95-1.8.99-3.85-.15-.33-.31-.66-.46-.99-.71.25-1.42.49-2.12.73-1.41.47-1.88,1.28-1.29,2.53.56,1.2,1.62,1.89,2.89,1.58Z" style="fill: #fff;"/>
    <path d="M186.39,100.83c-.89-1.9-1.77-3.8-2.66-5.72-.53.15-1.06.29-1.59.44-.19-.42-.39-.83-.58-1.25.53-.14,1.06-.29,1.59-.44-.41-.89-.82-1.77-1.23-2.66.41-.12.82-.23,1.23-.35.41.89.82,1.78,1.23,2.67.82-.23,1.64-.48,2.46-.72.19.42.39.84.58,1.25-.82.25-1.64.49-2.46.72.9,1.94,1.8,3.88,2.7,5.8.52,1.12,1.27,1.61,2.21,1.34.42-.12.77-.34,1-.51.2.42.39.83.59,1.25-.2.21-.68.44-1.18.59-1.62.47-2.93-.36-3.88-2.39Z" style="fill: #fff;"/>
    <path d="M192.35,91.04c.39-.13.78-.26,1.17-.4.37.81.74,1.61,1.11,2.42-.41-1.65-.02-2.93,1.49-3.48.26-.09.53-.17.72-.17.2.43.39.85.59,1.28-.2.03-.34.08-.57.16-1.56.57-2.05,2.45-.88,4.96.75,1.6,1.49,3.19,2.24,4.76-.41.14-.82.28-1.23.42-1.54-3.26-3.09-6.59-4.63-9.95Z" style="fill: #fff;"/>
    <path d="M201.51,87.35c2.48-1.02,4.79.67,6.03,3.34.11.23.21.45.32.68-2.14.94-4.28,1.82-6.42,2.64,1.02,1.99,2.72,3.24,4.44,2.54,1.25-.51,1.6-1.58,1.47-2.77.4-.17.8-.34,1.2-.52.4,2-.36,3.75-2.11,4.47-2.51,1.03-5.05-.79-6.37-3.61-1.39-3-.79-5.87,1.43-6.77ZM206.15,90.69c-.98-1.78-2.53-2.79-4.12-2.14-1.52.62-1.75,2.42-1.12,4.27,1.75-.67,3.49-1.38,5.24-2.13Z" style="fill: #fff;"/>
    <path d="M218.27,92.02c-.31-.64-.62-1.28-.92-1.92.17,1.4-.53,2.94-1.9,3.61-2.19,1.06-4.88-.48-6.22-3.36-1.34-2.88-.82-5.98,1.37-7.02,1.36-.65,2.98-.21,3.94.84-.97-2.1-1.93-4.22-2.9-6.38.41-.2.82-.41,1.23-.62,2.2,4.92,4.4,9.69,6.61,14.24-.4.21-.8.41-1.2.62ZM211.3,84.58c-1.61.77-1.83,3.11-.85,5.21.98,2.1,2.9,3.39,4.5,2.61,1.61-.78,1.94-3.15.96-5.24-.98-2.09-3.01-3.35-4.62-2.58Z" style="fill: #fff;"/>
    <path d="M217.51,80.15c.41-.22.82-.43,1.23-.65.92,2.01,1.83,3.98,2.75,5.91.85,1.79,2.03,2.57,3.4,1.8,1.36-.76,1.77-2.39.88-4.24-.91-1.9-1.82-3.84-2.72-5.81.41-.23.82-.46,1.23-.69,1.54,3.36,3.09,6.6,4.63,9.71-.39.23-.78.45-1.17.68-.26-.52-.52-1.05-.78-1.58.16,1.26-.38,2.53-1.69,3.27-1.93,1.08-3.79.12-4.94-2.31-.94-1.99-1.89-4.02-2.83-6.09Z" style="fill: #fff;"/>
    <path d="M230.29,72.76c1.99-1.15,3.91-.41,5.15,1.16-.41.24-.81.48-1.22.72-.91-.94-2.05-1.35-3.34-.6-1.67.97-1.89,3.46-.93,5.45.96,2,2.91,3.1,4.58,2.08,1.28-.78,1.63-2.02,1.43-3.34.41-.25.81-.49,1.22-.74.5,1.95-.06,4.03-2.05,5.26-2.4,1.48-5.15.12-6.42-2.54-1.27-2.64-.83-6.07,1.57-7.45Z" style="fill: #fff;"/>
    <path d="M239.31,67.54c2.48-1.41,4.79.02,6.04,2.4.11.2.21.41.32.61-2.14,1.26-4.28,2.54-6.42,3.83,1.02,1.84,2.72,2.7,4.44,1.63,1.25-.78,1.6-1.89,1.47-3.03.4-.24.8-.48,1.2-.72.4,1.86-.36,3.69-2.11,4.8-2.51,1.59-5.05.38-6.37-2.28-1.39-2.82-.79-5.98,1.44-7.24ZM243.96,70.16c-.98-1.59-2.53-2.4-4.12-1.48-1.52.88-1.75,2.8-1.12,4.58,1.75-1.04,3.49-2.08,5.24-3.1Z" style="fill: #fff;"/>
    <path d="M245.32,64.47c.39-.21.78-.42,1.17-.63.37.74.74,1.48,1.11,2.2-.41-1.56-.02-2.92,1.49-3.68.26-.13.53-.24.72-.27.2.38.39.76.59,1.14-.2.06-.34.13-.57.25-1.56.79-2.05,2.79-.88,4.98.75,1.39,1.49,2.74,2.24,4.04-.41.25-.82.5-1.23.75-1.54-2.73-3.09-5.65-4.63-8.77Z" style="fill: #fff;"/>
    <path d="M254.47,59.71c2.48-1.04,4.79.41,6.04,2.42.11.17.21.35.32.52-2.14.9-4.28,1.93-6.42,3.04,1.02,1.63,2.72,2.35,4.44,1.44,1.25-.66,1.6-1.56,1.47-2.51.4-.19.8-.37,1.2-.55.4,1.52-.36,2.99-2.11,3.94-2.51,1.38-5.05.41-6.37-1.98-1.39-2.52-.79-5.38,1.43-6.31ZM259.12,62.22c-.98-1.37-2.53-2.19-4.12-1.5-1.52.67-1.75,2.37-1.12,3.96,1.75-.88,3.49-1.71,5.24-2.46Z" style="fill: #fff;"/>
    <path d="M80.3,181.17c-1.68-4.07-1.27-9.56,2.08-12.71,2.46-2.31,4.91-2.05,6.64.13-.43.4-.87.79-1.3,1.19-1.29-1.29-2.87-1.55-4.71.16-2.66,2.48-2.76,6.89-1.44,10.1,1.32,3.2,4.1,5.36,6.76,2.97,1.83-1.65,2.36-3.96,2.17-6.34.43-.39.87-.79,1.3-1.18.52,3.38-.37,6.93-2.84,9.15-3.34,3-6.98.57-8.66-3.48Z" style="fill: #fff;"/>
    <path d="M92.25,170.33c-1.65-4.09-1.15-9.97,2.17-12.94,3.32-2.96,7.11-.81,8.76,3.29,1.65,4.08,1.15,10.12-2.17,13.09-3.33,2.97-7.11.65-8.76-3.44ZM101.92,161.75c-1.31-3.26-4.27-5.16-6.84-2.86-2.58,2.3-2.87,7.03-1.56,10.29,1.31,3.26,4.3,5.24,6.88,2.94,2.58-2.3,2.84-7.12,1.52-10.37Z" style="fill: #fff;"/>
    <path d="M107.79,165.67c.66-3.69,1.32-7.31,1.98-10.85.29-1.61.39-2.88-.17-4.24-.7-1.69-2.1-2.19-3.48-1.1-1.56,1.24-1.89,3.32-1.09,5.54-.41.33-.81.67-1.22,1.01-1.17-3.12-.46-6.29,1.72-8.01,2.12-1.68,4.28-.91,5.32,1.61.75,1.82.56,3.86.27,5.29-.6,3-1.21,6.07-1.81,9.18,1.89-1.57,3.77-3.09,5.66-4.56.2.5.4,1.01.61,1.51-2.42,1.9-4.84,3.88-7.27,5.94-.17-.44-.34-.87-.52-1.31Z" style="fill: #fff;"/>
    <path d="M114.77,151.74c1.42-1.06,2.84-2.08,4.27-3.07.18.44.37.89.55,1.34-1.42.99-2.84,2.02-4.27,3.08-.18-.45-.37-.9-.55-1.35Z" style="fill: #fff;"/>
    <path d="M120.07,143.16c.41-.27.82-.54,1.23-.8.92,2.18,1.83,4.38,2.75,6.58.85,2.05,2.03,2.93,3.41,2.03,1.36-.88,1.77-2.73.88-4.83-.91-2.15-1.82-4.3-2.72-6.44.41-.24.82-.48,1.23-.72,1.54,3.63,3.09,7.28,4.63,10.93-.39.24-.78.48-1.17.72-.26-.62-.52-1.23-.78-1.85.16,1.44-.38,2.9-1.69,3.76-1.93,1.27-3.79.2-4.94-2.58-.94-2.28-1.89-4.54-2.83-6.8Z" style="fill: #fff;"/>
    <path d="M140.32,144.94c-.31-.7-.61-1.41-.92-2.11.16,1.51-.53,3.16-1.9,3.92-2.19,1.2-4.88-.39-6.22-3.54-1.34-3.15-.82-6.58,1.37-7.7,1.36-.69,2.98-.19,3.93.93-.97-2.22-1.93-4.43-2.9-6.64.41-.19.82-.38,1.23-.57,2.2,5.02,4.4,10.09,6.61,15.1-.4.2-.8.4-1.2.61ZM133.36,136.83c-1.61.82-1.82,3.39-.85,5.68.98,2.29,2.9,3.66,4.5,2.79,1.61-.87,1.94-3.41.96-5.66-.98-2.24-3.01-3.63-4.62-2.81Z" style="fill: #fff;"/>
    <path d="M137.76,127.98c.41-.17.82-.35,1.23-.52,2.2,4.98,4.4,9.98,6.61,14.92-.41.19-.82.38-1.23.57-2.2-4.96-4.4-9.98-6.61-14.97Z" style="fill: #fff;"/>
    <path d="M146.91,129.29c2.48-.9,4.79.96,6.03,3.67.11.23.21.46.32.69-2.14.76-4.28,1.57-6.42,2.44,1.02,2.07,2.72,3.35,4.44,2.67,1.25-.49,1.6-1.55,1.47-2.75.4-.15.8-.29,1.2-.44.4,2.02-.36,3.72-2.11,4.42-2.51,1.02-5.05-.81-6.37-3.76-1.39-3.13-.79-6.12,1.44-6.93ZM151.55,132.85c-.98-1.82-2.53-2.93-4.12-2.35-1.52.56-1.75,2.42-1.12,4.34,1.75-.71,3.49-1.37,5.24-1.99Z" style="fill: #fff;"/>
    <path d="M163.67,135.54c-.31-.65-.62-1.3-.92-1.95.16,1.33-.53,2.66-1.9,3.12-2.19.73-4.88-1.02-6.22-3.94-1.34-2.92-.82-5.84,1.37-6.49,1.36-.41,2.98.26,3.94,1.38-.97-2.08-1.93-4.17-2.9-6.26.41-.11.82-.22,1.23-.33,2.2,4.77,4.4,9.5,6.61,14.11-.4.12-.8.25-1.2.37ZM156.7,127.54c-1.61.48-1.83,2.69-.85,4.81.98,2.13,2.9,3.58,4.5,3.05,1.61-.53,1.94-2.68.96-4.77-.98-2.08-3.01-3.58-4.62-3.1Z" style="fill: #fff;"/>
    <path d="M163,124.57c.39-.1.78-.21,1.17-.31.27.57.53,1.13.8,1.69-.17-1.3.41-2.27,1.72-2.6,1.95-.49,3.81.85,4.96,3.24.94,1.96,1.89,3.91,2.83,5.82-.41.11-.82.22-1.23.33-.91-1.86-1.82-3.74-2.73-5.64-.85-1.77-2.04-2.76-3.42-2.41-1.36.35-1.83,1.73-.93,3.62.9,1.9,1.8,3.79,2.71,5.65-.41.12-.82.24-1.23.36-1.54-3.2-3.09-6.47-4.63-9.77Z" style="fill: #fff;"/>
    <path d="M170.77,118.38c.43-.1.86-.2,1.3-.3.31.66.62,1.31.93,1.96-.43.1-.87.2-1.3.31-.31-.65-.62-1.31-.93-1.97ZM172.6,122.16c.41-.1.82-.2,1.23-.3,1.54,3.23,3.09,6.4,4.63,9.5-.41.11-.82.22-1.23.33-1.54-3.11-3.09-6.29-4.63-9.53Z" style="fill: #fff;"/>
    <path d="M176.67,121.18c.39-.09.78-.19,1.17-.28.27.55.53,1.1.8,1.65-.17-1.25.41-2.19,1.72-2.5,1.95-.47,3.81.82,4.96,3.14.94,1.9,1.89,3.78,2.83,5.62-.41.11-.82.22-1.23.33-.91-1.78-1.82-3.6-2.73-5.44-.85-1.72-2.04-2.67-3.42-2.34-1.36.33-1.83,1.66-.93,3.49.9,1.84,1.8,3.66,2.71,5.44-.41.11-.82.22-1.23.32-1.54-3.07-3.09-6.23-4.63-9.43Z" style="fill: #fff;"/>
    <path d="M189.17,117.81c1.38-.37,2.86.2,3.77,1.16-.28-.57-.57-1.14-.85-1.71.4-.11.8-.23,1.2-.34,1.48,2.98,2.96,5.89,4.43,8.71,1.23,2.34.53,4.17-1.77,4.86-1.93.58-3.97-.2-5.31-1.83.42-.12.84-.23,1.26-.35.94,1.02,2.22,1.5,3.53,1.11,1.77-.53,1.89-1.81.89-3.73-.27-.51-.53-1.02-.8-1.54.18,1.12-.4,2.3-1.8,2.7-2.21.64-4.74-.9-6.01-3.46-1.28-2.56-.75-5,1.45-5.59ZM193.35,125.7c1.53-.44,1.89-2.07.87-4.09-1.02-2.02-2.83-3.09-4.29-2.69-1.65.45-1.94,2.24-.98,4.16.96,1.91,2.78,3.09,4.4,2.62Z" style="fill: #fff;"/>
    <path d="M195.2,112.41c.63,1.44,1.25,2.87,1.88,4.29-.28.09-.56.17-.84.26-.77-1.37-1.53-2.76-2.3-4.16.42-.12.84-.25,1.26-.38ZM198.35,111.42c.63,1.44,1.25,2.86,1.88,4.27-.28.09-.56.18-.84.27-.77-1.36-1.53-2.74-2.3-4.14.42-.13.84-.27,1.26-.4Z" style="fill: #fff;"/>
  </g>
</svg>