<?xml version="1.0" encoding="UTF-8"?>
<svg xmlns="http://www.w3.org/2000/svg" viewBox="0 0 247.95 311.56">
  <g id="Layer_1">
    <path d="M168.39,221.15l-.35-.94c1.25-.47,2.3-1.03,3.48-1.74l.29-.17.27.2c.17.13.35.24.55.33.38-.33.8-.62,1.25-.85l.38-.2.25.35c.13.18.27.35.4.52.08.1.15.19.22.29l.36-.25c.17-.12.36-.16.54-.12.23.06.34.23.38.29l.13.2c1.69-1.19,3.15-2.14,4.81-3.12l.32-.19.27.25c.32.29.8.96,1.13,1.49.32-.19.57-.37.86-.6-.74-1.02-1.25-1.73-1.46-2.05l-.26-.39.38-.28c.94-.71,2.67-1.99,4.2-3.04-.08-.11-.17-.23-.26-.34-.11-.13-.21-.27-.31-.4-.59.4-1.16.82-1.71,1.23-.77.57-1.57,1.17-2.45,1.71l-.43.26-.63-1.04c-.36-.6-.8-1.34-1.09-1.72l-.33-.43.46-.29c.46-.3,2.66-1.95,3.97-2.95l-.22-.33c-.88.59-1.69,1.19-2.47,1.77-.55.41-1.09.81-1.63,1.19l-.42.3-.28-.43c-.2-.3-.41-.66-.63-1.02-.21-.34-.42-.69-.62-1-.08.05-.17.11-.26.16-.1.06-.17.15-.19.26-.03.11,0,.23.05.33.12.19.25.38.37.53l.34.42-5.52,3.77.23.34c.06.09.22.33.15.63-.06.26-.27.38-.67.59.08.12.17.27.29.54l.16.36-.31.24c-.31.24-.62.44-.93.64-.24.15-.49.31-.73.48-.01.14,0,.27,0,.39l.02.31-.27.16c-.41.23-.85.51-1.31.8-.72.46-1.46.93-2.12,1.24l-.43-.9c.61-.29,1.33-.74,2.02-1.18.37-.23.74-.47,1.08-.67,0-.13,0-.26.03-.4.01-.09.04-.28.24-.44.31-.24.62-.44.93-.64.17-.11.34-.22.51-.33-.04-.06-.07-.1-.12-.15-.06-.07-.12-.15-.21-.27l-.13-.18.05-.24c.06-.28.3-.41.72-.63,0,0,.02,0,.03-.01h0s-.24-.35-.24-.35c-.05-.08-.21-.32-.11-.62.06-.2.22-.31.29-.35l4.9-3.35c-.04-.06-.08-.13-.12-.19-.21-.33-.27-.72-.18-1.1.09-.38.32-.69.66-.89.23-.14.46-.28.59-.38l.41-.33.31.43c.31.42.63.96.94,1.48.11.19.22.37.33.55.39-.28.78-.57,1.18-.87.92-.69,1.87-1.4,2.94-2.08l.42-.26,1.28,1.93-.37.28c-.67.52-2.93,2.23-3.98,2.99.27.41.57.92.85,1.39l.1.16c.68-.45,1.33-.93,1.95-1.39.69-.51,1.4-1.04,2.17-1.54l.45-.29.26.47c.11.2.32.46.51.71.23.29.46.58.61.86l.22.4-.38.25c-1.42.94-3.11,2.19-4.19,2.99.31.44.79,1.11,1.42,1.96l.28.39-.34.35c-.65.51-1.05.82-1.81,1.23l-.45.24-.23-.46c-.17-.33-.6-.99-.92-1.38-1.62.97-3.08,1.93-4.81,3.17l-.42.3-.51-.77-.89.62-.28-.42c-.15-.21-.31-.42-.48-.64-.05-.07-.1-.13-.16-.2-.32.2-.63.44-.91.7l-.22.21-.29-.1c-.28-.1-.55-.23-.8-.39-1.12.66-2.15,1.2-3.37,1.65ZM170.76,216.79s0,0,0,.01c0,0,0,0,0-.01Z"/>
    <path d="M151.61,298.69c-3.77-1.52-6.53-2.89-10.4-2.87-.82,0-1.7.17-2.26.76-.28.3-.45.68-.62,1.06-1.56,3.49-3.12,6.98-4.68,10.47-.31.69-.84,1.5-1.58,1.36-.54-.1-.84-.68-1.02-1.2-.92-2.58-1.06-5.37-1.35-8.09s-.18-6.04-2.23-7.86-4.97-2.42-7.72-2.76-3.66-.66-6.8-1.51c-.3-.08-1.81-.67-2-.91-.69-.87-.22-1.63.38-2.18s3.13-1.25,3.91-1.46c2.73-.74,3.73-1.08,6.42-1.96.9-.3,1.79-.64,2.58-1.14.57-.36.9-1.03.85-1.7-.35-4.65-1.91-9.18-1.99-13.85,0-.26.04-.87.28-1.08.09-.08.28-.08.4-.07.31.04.58.29.88.57,3.29,2.69,6.44,5.78,9.06,9.13.62.79,1.27,1.64,2.23,1.94.95.29,1.97-.03,2.91-.37,2.9-1.04,5.75-2.18,8.57-3.42.79-.35,1.03-1.37.48-2.03-2.85-3.42-7.23-5.29-11.53-6.77-2.54-.87-5.19-1.65-7.87-1.48-.96.06-1.91.24-2.84.46-5.83,1.34-11.35,3.98-16.04,7.67-.81.63-1.59,1.3-2.24,2.1-.81,1-1.71,3.01-2.49,5.19-1.17,3.26-1.58,5.6-1.57,8.35.03,7.07,3.05,13.79,8.08,18.75,1.61,1.59,3.34,3.23,5.41,4.25,1.73.85,3.64,1.25,5.49,1.76,2.38.66,4.8,1.19,7.26,1.4,1.66.14,3.38.15,5-.3,1.36-.37,2.62-1.05,3.86-1.72,2.88-1.53,5.64-3.29,8.23-5.28,1.58-1.21,2.29-1.61,4.04-3.09.22-.19,1.34-1.35,1.47-1.61s-.25-.41-.52-.52Z" style="fill: #b2f100;"/>
  </g>
  <g id="Layer_2">
    <path d="M104.65,234.06c-6.54,0-12.71-.58-18.14-1.86-22.75-5.38-43.64-19.33-57.34-38.27-10.83-14.98-16.98-32.48-21.14-46.06-1.6-5.23-3.38-11.43-4.43-17.78-2.51-15.22-.85-30.85,4.82-45.2,8.79-22.25,26.92-40.18,41.49-54.58,2.91-2.88,6.91-5.31,10.96-6.67,1.31-.44,2.68-.06,3.59,1,.92,1.07,1.09,2.52.44,3.77-2.56,4.95-7.52,8.79-12.31,12.51-1.85,1.43-3.59,2.79-5.22,4.21-8.64,7.56-8.75,7.73-11.47,12.09-1.14,1.82-2.69,4.32-5.48,8.35-1.71,2.47-9.07,18.02-8.75,20.62l.09.76c.33,2.8,1.2,10.23,2.17,11.89.76,1.3,1.39,2.57,2,3.8,1.77,3.57,3.29,6.65,7.08,8.58,3.37,1.71,5.82,2.64,8.42,3.62,2.28.86,4.64,1.75,7.7,3.22.54.26,1.03.49,1.45.69,3.54,1.66,3.65,1.81,3.82,5.49.03.65.07,1.43.13,2.37.5,7.11,3.91,17.9,7.61,24.06,5.85,9.73,9.93,17.52,9.2,29.21-.13,2.09-.91,5.46-1.74,9.03-1.05,4.54-2.24,9.68-2.06,12.32.38,5.6.81,11.91,3.31,16.77,1.2,2.33,3.64,3.76,6.18,3.65.18-.01.4.05.8.14.23.06.46.12.57.12,1.33-.1,2.51-.83,3.21-2.01.71-1.18.79-2.63.24-3.87-.52-1.16-1.47-2.44-2.39-3.67-.63-.84-1.22-1.63-1.68-2.39-2.49-4.09-3.5-9.45-.14-12.21,1.35-1.11,3.16-1.56,4.9-2,2.36-.59,4.39-1.1,5.04-3.01.33-.99.13-2.12-.07-3.21-.94-5.17-1.43-10.54,1.38-14.7,1.47-2.17,3.65-3.67,5.75-5.12.71-.49,1.42-.98,2.11-1.49,6.85-5.15,10.92-13.32,10.62-21.32-.31-8.44-5.75-16.32-13.22-19.16-1.12-.43-2.33-.77-3.49-1.1-2.88-.82-5.86-1.66-7.99-3.86-1.47-1.52-1.89-3.48-2.29-5.37-.37-1.74-.73-3.39-1.83-4.71-2.94-3.5-9.72-4.16-15.09-3.6-1.14.12-2.28.27-3.42.43-3.9.54-7.94,1.09-11.82.06-2.2-.95-2.54-3.87-1.65-6.17.15-.38.41-1.03.75-1.86,1.31-3.2,4.05-9.87,4.14-11.47.09-1.59-2.36-2.51-4.95-3.49-2.64-1-5.36-2.03-6.21-4.04-.39-.92-.33-1.96.16-3.11.98-5.23,2.5-5.87,5.25-7.03,1.3-.55,2.93-1.24,4.97-2.65,4.03-2.79,8.48-5.4,12.79-7.92,4.96-2.9,10.09-5.9,14.58-9.2,1.04-.76,1.85-1.66,2.42-2.66.1-.17.19-.33.29-.49.53-.88.82-1.36.32-2.26-.5-.89-1.61-3.15-1.06-4.8.22-.65.66-1.12,1.31-1.4.27-.12.56-.25.86-.39.86-.4,1.83-.85,2.91-1.14.67-.18,1.42-.31,2.22-.45,2.14-.37,4.56-.79,5.35-2.35.04-.08.09-.23,0-.49-.47-1.37-3.58-3.34-5.06-4.05-1.29-.61-2.23-1.66-2.65-2.95-.14-.44-.27-.85-.39-1.24-.86-2.79-1.25-4.07-4.69-5.05-1.34-.38-6.12-3.18-6.66-5.27-1.11-4.33,15.99-9.87,16.17-9.92,7.14-2.29,10.88-2.33,15.22-2.38,3.07-.04,6.55-.08,11.82-.97,1.58-.26,2.7.7,3.11,1.77.42,1.09.24,2.59-1.13,3.47-.79.51-1.72,1.2-2.61,2.4-2.61,3.52-5.74,5.18-12.22,7.78-1.35.54-2.25,1.78-2.36,3.25-.1,1.4.54,2.66,1.74,3.36,2.53,1.48,6.2,2.24,8.22-.51,1.24-1.69,2.76-3.05,4.09-4.16,2.22-1.86,3.69-3.45,5.24-5.68,1.08-1.56,1.7-3.46,2.3-5.29,1.06-3.24,2.16-6.59,5.85-8.02,14.07-2.77,27.29,5.21,38.58,12.9,1.07.73,2.16,1.5,3.26,2.28,5.22,3.7,10.61,7.53,16.44,8.55.43.08.73.43.72.87-.01.44-.32.78-.76.83l-21.4,2.61c-3.02.37-7.51,2.11-10,3.88-2.33,1.66-2.86,1.97-3.42,2.31-.48.29-.97.58-2.63,1.73-3.32,2.3-7.03,6.18-9.46,9.88-.18.27-.9,2.22-1.33,3.38-.36.98-.59,1.59-.69,1.81-.85,1.83-.86,3.39-.05,4.5,1.04,1.42,3.4,2.05,6.31,1.68,7.71-.98,15.3-3.54,21.94-7.39,3.13-1.81,6.25-2.95,9.26-3.36,4-.56,8.44.81,10.53,3.25.72.84,1.03,1.97.83,3.09-.21,1.21-.94,2.25-2.01,2.86-.85.48-1.79.79-2.79,1.12-.42.14-.86.28-1.32.45-2.25.81-2.54,1.31-2.36,2.19.35,1.78,2.33,3.06,4.22,2.72,1.4-.25,2.76-.93,4.09-1.6.49-.25.98-.5,1.47-.72,5.79-2.67,12.46-2.64,18.33-2.61,5.33.02,11.37.05,16.55,2.64,7.64,3.82,11.55,11.96,15.19,20.67l2.37,5.66c.39.94.21,1.98-.48,2.73-.69.75-1.72,1.02-2.69.71-6.8-2.2-12.56-7.13-18.13-11.9-1.17-1-2.34-2-3.51-2.97-7.14-5.91-17.66-12.13-27.24-8.2-1.66.68-3.39,1.68-5.07,2.64-4.5,2.58-9.15,5.25-13.41,2.54-.7-.44-1.3-1.01-1.89-1.55-.74-.69-1.44-1.35-2.29-1.74-1.68-.78-3.66-.43-5.56.05-15.96,4.09-29.35,16.26-34.94,31.75-1.78,4.93-2.07,8.69-.9,11.86,1.55,4.19,5.93,7.42,11.73,8.63,3.26.68,6.68.76,9.99.83,2.35.05,4.78.11,7.15.37.95.11,1.76.32,2.48.65,4.38,2,4.95,6.74,5.5,11.32.27,2.22.54,4.51,1.25,6.43.84,2.28,2.51,3.96,4.13,5.58,2.37,2.38,4.62,4.63,3.91,8.39-.59,3.16-3.47,5.61-6.25,7.98-2.18,1.86-4.43,3.77-5.42,5.93-1.53,3.33.62,6.94,2.69,10.43.71,1.2,1.38,2.33,1.89,3.43,2.53,5.46,8.04,8.67,13.74,7.99,5.49-.65,9.08-4.58,10.67-11.66.39-1.72.68-3.52.96-5.26.75-4.59,1.52-9.33,4.06-13.31.62-.97,1.34-1.88,2.03-2.77,1.28-1.63,2.5-3.17,3.14-5.03.75-2.15.64-4.55.53-6.87v-.19c-.04-.82-.09-1.64-.14-2.47-.34-5.72-.69-11.64,2.89-16.16.9-1.13,2.22-2.14,3.49-3.12,1.46-1.12,2.98-2.29,3.82-3.6.55-.86.71-1.78.49-2.72-.31-1.32-1.36-2.61-2.87-3.52-1.17-.71-3.73-2.12-5.02-2.4-6.13-1.33-7.39-7.33-8.6-13.13-.52-2.47-1.05-5.03-1.95-7.26-1.61-4-1.15-8.28,1.23-11.45,1.9-2.53,4.18-3.84,6.77-3.89,3.32-.07,6.97,2.01,9.85,5.56,2.71,3.33,5.47,5.36,9.39,8.06,1.24.85,2.54,1.64,3.92,2.48,3.72,2.25,7.58,4.58,9.81,8.19.96,1.56,1.44,3.43,1.91,5.24.72,2.79,1.39,5.42,3.71,6.55.69.33,1.46.49,2.28.65,1.06.21,2.17.43,3.11,1.09,1.94,1.35,2.37,3.92,2.53,6,.96,12.67-1.22,27.59-6.13,42.03-6.55,19.26-15.07,33.74-26.04,44.26-7.97,7.65-27.96,18.47-41.9,24.11l-.38-.93c13.86-5.61,33.7-16.34,41.58-23.9,10.85-10.4,19.28-24.75,25.78-43.86,4.87-14.31,7.03-29.09,6.08-41.63-.14-1.87-.51-4.15-2.1-5.26-.77-.53-1.72-.73-2.73-.93-.84-.17-1.72-.34-2.52-.73-2.73-1.33-3.5-4.31-4.24-7.2-.45-1.74-.91-3.53-1.79-4.96-2.11-3.41-5.85-5.67-9.48-7.86-1.33-.81-2.72-1.64-3.98-2.51-3.99-2.76-6.81-4.82-9.6-8.26-2.68-3.31-6.02-5.24-9.05-5.19-2.27.04-4.29,1.22-6,3.49-2.17,2.89-2.58,6.8-1.1,10.47.93,2.32,1.48,4.92,2,7.43,1.2,5.74,2.34,11.17,7.83,12.36,1.75.38,4.97,2.3,5.33,2.52,1.74,1.05,2.96,2.56,3.33,4.15.28,1.2.07,2.41-.62,3.49-.93,1.47-2.52,2.68-4.05,3.86-1.28.98-2.49,1.91-3.31,2.95-3.35,4.22-3.01,9.94-2.68,15.48.05.83.1,1.66.14,2.49v.19c.12,2.41.23,4.91-.58,7.25-.7,2.01-2.02,3.69-3.3,5.32-.68.87-1.39,1.76-1.98,2.69-2.43,3.81-3.19,8.45-3.92,12.93-.29,1.75-.58,3.57-.97,5.32-1.67,7.43-5.65,11.73-11.52,12.43-6.12.73-12.06-2.71-14.77-8.57-.49-1.05-1.15-2.16-1.84-3.34-2.11-3.54-4.49-7.55-2.74-11.36,1.08-2.36,3.42-4.35,5.68-6.28,2.65-2.26,5.39-4.59,5.92-7.4.61-3.24-1.36-5.21-3.63-7.5-1.7-1.7-3.45-3.46-4.36-5.95-.75-2.03-1.03-4.38-1.3-6.66-.54-4.51-1.05-8.77-4.92-10.53-.63-.29-1.34-.47-2.18-.56-2.33-.26-4.74-.32-7.06-.37-3.35-.07-6.82-.15-10.17-.85-6.14-1.28-10.8-4.74-12.47-9.26-1.26-3.4-.97-7.39.89-12.55,5.71-15.8,19.37-28.21,35.64-32.38,1.98-.51,4.26-.9,6.22,0,1,.46,1.79,1.2,2.56,1.92.58.54,1.12,1.05,1.74,1.44,3.75,2.39,7.94-.02,12.38-2.56,1.7-.98,3.46-1.99,5.19-2.69,10.03-4.11,20.9,2.27,28.25,8.36,1.17.97,2.34,1.97,3.52,2.98,5.5,4.71,11.18,9.57,17.79,11.71.61.19,1.22.03,1.65-.43.43-.46.54-1.08.29-1.66l-2.37-5.66c-3.57-8.53-7.38-16.5-14.72-20.16-4.97-2.48-10.89-2.51-16.1-2.53-5.77-.02-12.32-.05-17.91,2.52-.48.22-.96.46-1.44.71-1.39.7-2.82,1.42-4.36,1.69-2.45.43-4.91-1.18-5.38-3.51-.38-1.93,1.13-2.65,3-3.32.47-.17.92-.32,1.35-.46.99-.33,1.85-.61,2.61-1.04.8-.45,1.36-1.26,1.52-2.16.14-.84-.07-1.65-.61-2.27-1.86-2.16-6-3.42-9.64-2.91-2.88.4-5.88,1.49-8.9,3.24-6.76,3.92-14.48,6.52-22.32,7.52-3.33.42-5.96-.34-7.24-2.08-.73-.99-1.33-2.75-.05-5.51.09-.2.37-.94.66-1.73.7-1.88,1.21-3.24,1.43-3.58,2.49-3.8,6.31-7.79,9.73-10.15,1.69-1.17,2.19-1.47,2.68-1.77.54-.33,1.05-.63,3.36-2.27,2.61-1.85,7.3-3.67,10.46-4.05l20.53-2.5c-5.71-1.26-10.93-4.96-15.98-8.55-1.1-.78-2.18-1.54-3.24-2.27-11.63-7.93-24.13-15.44-37.74-12.77-3.16,1.23-4.14,4.22-5.17,7.38-.62,1.9-1.26,3.87-2.43,5.55-1.6,2.31-3.12,3.96-5.42,5.88-1.28,1.07-2.75,2.38-3.92,3.99-2.26,3.08-6.41,2.61-9.53.78-1.53-.9-2.36-2.5-2.23-4.29.14-1.84,1.28-3.42,2.98-4.1,7.01-2.81,9.54-4.42,11.79-7.45.99-1.34,2.06-2.11,2.87-2.64.96-.62,1-1.61.74-2.27-.25-.64-.92-1.33-2.02-1.14-5.35.9-8.87.94-11.97.98-4.26.05-7.93.09-14.93,2.33-5.54,1.78-16.13,6.3-15.5,8.72.37,1.44,4.47,4.13,5.97,4.55,3.96,1.13,4.49,2.86,5.37,5.72.12.38.24.79.38,1.22.33,1.02,1.09,1.86,2.13,2.36,1.01.48,4.91,2.67,5.58,4.63.16.46.14.88-.05,1.26-1.01,2.01-3.7,2.47-6.07,2.88-.77.13-1.5.26-2.13.43-1.01.27-1.93.7-2.75,1.08-.31.14-.61.28-.89.4-.39.16-.63.43-.76.8-.35,1.03.28,2.74.98,3.98.79,1.41.22,2.35-.33,3.27-.09.15-.18.3-.27.46-.64,1.13-1.54,2.13-2.7,2.97-4.53,3.33-9.68,6.34-14.67,9.26-4.29,2.51-8.73,5.1-12.72,7.87-2.13,1.48-3.8,2.18-5.15,2.75-2.6,1.1-3.78,1.59-4.66,6.35l-.03.11c-.4.91-.46,1.69-.17,2.37.68,1.62,3.2,2.57,5.64,3.49,2.94,1.11,5.72,2.17,5.6,4.48-.09,1.63-2.22,6.94-4.21,11.79-.34.82-.6,1.47-.75,1.84-.71,1.81-.51,4.19,1.05,4.86,3.61.95,7.55.41,11.35-.11,1.15-.16,2.31-.32,3.45-.44,2.73-.28,11.94-.83,15.96,3.95,1.27,1.51,1.66,3.36,2.05,5.14.39,1.84.77,3.57,2.04,4.88,1.94,2,4.66,2.77,7.54,3.59,1.19.34,2.42.68,3.58,1.13,7.84,2.98,13.54,11.23,13.87,20.05.31,8.32-3.91,16.81-11.02,22.16-.69.52-1.42,1.02-2.14,1.52-2.03,1.4-4.13,2.84-5.49,4.86-2.61,3.86-2.13,8.99-1.23,13.96.21,1.16.45,2.48.04,3.71-.82,2.43-3.32,3.06-5.74,3.66-1.64.41-3.33.83-4.51,1.8-2.9,2.38-1.9,7.2.36,10.92.44.72,1.02,1.5,1.63,2.32.95,1.28,1.94,2.6,2.5,3.86.69,1.54.58,3.33-.29,4.79-.88,1.46-2.34,2.37-4.02,2.49-.17.01-.39-.04-.86-.15-.22-.05-.43-.11-.54-.12-2.93.13-5.72-1.52-7.1-4.2-2.59-5.05-3.03-11.47-3.41-17.13-.19-2.82.97-7.81,2.09-12.64.82-3.53,1.59-6.87,1.72-8.87.71-11.4-3.31-19.06-9.06-28.63-3.77-6.27-7.24-17.26-7.75-24.51-.07-.94-.1-1.73-.13-2.39q-.15-3.19-3.24-4.63c-.43-.2-.92-.43-1.46-.69-3.02-1.45-5.36-2.33-7.62-3.19-2.63-.99-5.11-1.93-8.52-3.66-4.09-2.08-5.76-5.46-7.53-9.03-.6-1.21-1.22-2.47-1.97-3.74-.95-1.63-1.73-7.42-2.3-12.28l-.09-.75c-.37-3.03,7.26-18.91,8.92-21.31,2.78-4.01,4.33-6.5,5.46-8.31,2.74-4.4,2.91-4.67,11.66-12.32,1.64-1.44,3.48-2.86,5.26-4.24,4.7-3.65,9.57-7.42,12.03-12.18.55-1.06.2-2.07-.31-2.66-.5-.58-1.42-1.06-2.51-.7-3.92,1.31-7.77,3.66-10.58,6.44-14.5,14.34-32.55,32.19-41.26,54.24-5.6,14.18-7.25,29.63-4.76,44.67,1.04,6.29,2.81,12.45,4.4,17.65,4.13,13.5,10.25,30.91,20.99,45.76,13.55,18.75,34.24,32.56,56.76,37.89,23.15,5.47,60.18-2.03,80.24-12.47l.46.89c-15.53,8.09-41.15,14.42-62.79,14.42Z"/>
    <path d="M151.41,244.83l-.36-.93c3.47-1.32,6.72-3.19,9.86-4.99,3.98-2.28,8.09-4.64,12.73-5.97,5.42-1.56,10.42-3.57,14.86-5.98.84-.46,1.71-.92,2.6-1.4,5.49-2.94,11.72-6.26,16.27-10.08,13.78-11.58,22.28-26.43,30.8-45.17,2.52-5.55,4.38-11.48,5.51-17.62.23-1.23.46-2.47.7-3.71,1.94-10.13,3.95-20.61,1.23-30.26l-.14-.52c-.56-2.05-1.05-3.82-3.2-4.16-.62-.1-1.25-.14-1.86-.18-1.94-.13-3.95-.27-4.86-2.45-.29-.69-.4-1.89-.49-2.85-.02-.24-.04-.46-.06-.65-.67-5.9-7.13-10.62-9.09-11.93-3.09-2.06-4.99-3.49-7.38-5.29-.83-.62-1.71-1.29-2.74-2.05-1.87-1.39-3.58-3.01-5.25-4.58-2.86-2.7-5.81-5.49-9.55-7.05-1.75-.73-3.81-.44-5.38.75l-.91.68c-3.34,2.5-5.75,4.3-5.27,8.54,2.77,24.43,6.8,26.05,14.84,29.28l.55.22c.99.4,1.69,1.24,1.98,2.37.39,1.56-.07,3.46-1.14,4.73-.67.8-1.61,1.65-2.61,2.55-1.92,1.73-4.09,3.69-4.57,5.54-.93,3.59-.77,7.22-.59,11.06.2,4.33.4,8.81-1.12,13.19l-.04.12-.1.09c-4.29,3.76-5.83,7.73-6.82,12.55-.69,3.37-1.64,6.67-2.82,9.81-.18.48-.36.98-.55,1.49-1.56,4.33-3.51,9.72-8.11,11.55-6.05,2.41-12.65-3.04-15.3-9.48-.31-.76-.87-1.61-1.46-2.51-1.21-1.84-2.45-3.75-2.13-5.58.48-2.75,3.09-4.75,5.61-6.69,1.29-.99,2.51-1.93,3.39-2.92,1.93-2.17,4.94-6.38,3.48-10.23-.75-1.98-3.24-5.13-5.24-7.66-1.02-1.29-1.99-2.52-2.61-3.43-1.96-2.9-1.8-5.82-1.65-8.4.21-3.84.4-7.15-5.82-10-3.02-1.38-6.54-1.85-10.17-1.35-6.54.9-13.78-1.08-18.03-4.92-2.73-2.47-4.11-5.62-3.98-9.1.21-5.62,7.33-17.49,11.53-21.68,4.13-4.12,6.18-5.85,10.94-8.64,2.28-1.33,12.76-6.23,15.49-6.51,3.58-.36,5.04,1.17,6.33,2.52,1.28,1.35,2.39,2.51,5.52,1.88,4.38-.88,11.11-4.77,13.81-6.4,6.49-3.94,13.94-.28,20.51,2.95l.54.26c4.64,2.27,8.42,5.94,12.08,9.48,1.72,1.67,3.51,3.4,5.35,4.94,4.17,3.5,6,4.06,10.01,5.29.67.21,1.41.43,2.22.69.65.21,1.36.12,1.94-.25.56-.35.93-.92,1.02-1.56.53-3.76-.62-5.95-2.08-8.72-.68-1.3-1.46-2.78-2.14-4.59-2.07-5.51-5.62-11.17-9.06-14.43-2.46-2.33-11.82-5.81-15.57-5.81-.04,0-.08,0-.11,0-3.29.07-6-.05-8.38-.15-7.07-.29-11.34-.47-20.33,4.25l-.15.08-.16-.03c-.62-.1-1.34-.29-1.45-.89-.14-.78.87-1.36,2.55-2.33,1.59-.92,4-2.31,3.98-3.45-.01-.85-.34-1.76-.99-2.8-2.05-3.25-5.44-5.52-9.3-6.22-3.83-.7-7.77.22-10.8,2.52-5.36,4.06-15.39,6.34-23.45,8.17l-2.4.55c-.99.23-1.99,0-2.67-.63-1.16-1.05-.65-2.31-.37-2.98,3.22-7.92,9.93-14.62,18.88-18.86,7.18-3.4,15.8-5.27,26.34-5.72,1.34-.06,2.58-.2,3.71-.42,1.65-.33,2.23-1.67,2.23-2.72,0-1.05-.59-2.4-2.25-2.72l-.36-.07c-2.7-.52-5.29-1.51-7.71-2.95-12.85-7.62-23.52-13.13-33.6-17.34-3.33-1.39-6.9-2.77-10.66-2.94-4.01-.18-7.66,1.2-9.77,3.7-.88,1.04-1.52,2.3-2.15,3.53l-.36.69c-3.37,6.45-8.17,12.22-13.89,16.7-.68.53-1.94,1.52-3.39.79-1.03-.52-1.59-1.71-1.37-2.91.41-2.18,2.24-3.21,3.86-4.11l.3-.17c5.62-3.16,10.39-8.04,13.43-13.72.18-.34.36-.7.3-1-.12-.66-1.29-.82-1.79-.86-9.6-.74-19.24-.08-28.65,1.95-10.13,2.19-16.97,5.88-20.92,11.28-.33.46-.64.95-.57,1.4.08.56.71.98,1.3,1.34l9.2,5.52c.87.52,2.06,1.24,2.57,2.44.37.89.29,1.82.21,2.71-.06.65-.11,1.27,0,1.84.18.87.9,1.63,1.89,1.98.99.35,2.03.22,2.72-.34l.25-.21.29.15c.64.33.99.97.96,1.75-.04,1.09-.78,2.17-1.76,2.58-.99.41-2.03.38-3.04.36-.51-.01-1-.03-1.47.01-1.67.14-3.29,1.17-4.35,2.73s-1.39,3.46-.9,5.06c.06.2.13.4.21.61.27.75.58,1.61.36,2.49-.27,1.13-1.3,1.85-1.99,2.33-9.5,6.68-19.32,13.58-30.47,17.68-2.07.76-3.8,2.23-4.87,4.14-.81,1.45-1.42,2.41-1.87,3.11-1.26,1.98-1.33,2.1-1.66,6.52-.05.71,3.64,2.7,5.21,3.56,1.88,1.02,2.96,1.62,3.29,2.08.66.93,1.17,1.33,1.53,1.63.98.79,1.13,1.17.86,4.12-.4,1.69-.86,2.49-1.32,3.26-.44.75-.85,1.45-1.2,2.92-.04.16-.17.59-.33,1.17-.36,1.21-1.31,4.44-1.27,4.94.14.6,1.63,3.05,2.15,3.53,1.69,1.55,11.08.56,15.11-.12,7.62-1.3,8.91-1.24,14.27,2.63.35.25.44.32.47.34h0c.12.07.25.17.4.27.74.52,1.31,1.24,1.66,2.09.44,1.09.76,2.11,1.07,3.11.89,2.86,1.59,5.11,4.53,6.39,3.77,1.64,7.57,2.73,9.5,3.23,6.37,1.67,12.24,11.19,12.41,17.54.13,5.16-1.6,17.05-7.61,18.82-.49.14-2.32,1.9-3.19,2.74-.53.51-.95.91-1.18,1.1-7.03,5.65-9.69,9.05-8.03,15.5.81,3.15-.27,6.88-.78,8.33-.77,2.22-3.05,2.55-5.26,2.87-1.5.22-3.05.44-4.15,1.24-3.36,2.44-3.65,6.72-.87,13.07.35.81,1.25,2.12,2.2,3.5,1.37,2.01,2.79,4.09,3.12,5.41.15.62-.03,1.01-.22,1.24-.63.75-2.06.67-3.73.57-.35-.02-.71-.04-1.05-.05-1.26-.04-2.4-.82-2.89-1.98-2.02-4.76-4.17-10.24-3.97-15.19.12-2.92.91-5.77,1.67-8.53.16-.59.33-1.18.48-1.77,2.77-10.42,2.92-19.63.44-27.36-1.6-4.99-4.36-9.61-7.03-14.07-.93-1.55-1.89-3.15-2.79-4.75-2.85-5.07-6.54-12.72-5.6-20.58l.08-.62c.22-1.71.45-3.47-.5-4.69-.45-.57-1.09-.94-1.89-1.37-4.43-2.38-9.04-4.55-13.69-6.46l-.75-.31c-3.8-1.55-7.74-3.16-10.43-6.31-2.42-2.83-3.47-6.5-4.26-9.72-1.23-4.99-2.26-10.81-.65-16.22.85-2.85,10.11-18.29,14.57-22.62,1.2-1.17,2.28-2.82,3.43-4.58,2.12-3.24,4.32-6.6,7.56-7.21,1.88-.36,3.43-1.57,4.14-3.23,1.49-3.49,3.88-5.12,6.4-6.85,2.14-1.46,4.36-2.98,6.11-5.79.83-1.33.72-2,.5-3.34-.07-.44-.15-.94-.21-1.53-.05-.51-.63-.88-1.24-1.28-.34-.22-.7-.45-.99-.73-1.39-1.31-5.88-.07-7.78,1.09-9.72,5.96-13.58,10.75-20.59,19.44l-1.67,2.06c-1.47,1.81-2.96,3.61-4.44,5.39-6.74,8.12-13.1,15.8-17.66,25.09-2.68,5.44-5.3,11.01-7.8,16.55-.98,2.17-1.19,5.29-1.4,8.32-.16,2.4-.32,4.67-.83,6.52-2.35,8.5.13,20.11,2.13,29.43.33,1.56.66,3.08.95,4.51,2.43,12.09,5.02,17.95,8.93,26.82,1.21,2.73,2.57,5.83,4.1,9.48,1.31,3.13,3.23,6.03,5.08,8.84,1.64,2.48,3.34,5.05,4.63,7.8.87,1.84,3,3.88,5.06,5.85,1.63,1.56,3.17,3.03,4.11,4.41,2.34,3.43,7.95,7.75,11.65,10.61l1.24.96c5.28,4.11,10.11,6.65,15.7,9.59,5.44,2.86,10,4.03,14.83,5.27,2.99.77,6.08,1.56,9.5,2.79,3.51,1.27,10.35,1.62,15.84,1.9,1.91.1,3.55.18,4.86.3,7.67.66,12.89-.82,17.08-2.01,1.52-.43,2.95-.84,4.34-1.1,3.21-.61,7.55-1.95,11.38-3.14,1.29-.4,2.5-.77,3.58-1.09,6.57-1.94,12.53-4.62,18.29-7.22,1-.45,2-.9,3-1.35l.41.91c-1,.45-2,.9-3,1.34-5.79,2.61-11.79,5.3-18.42,7.26-1.07.32-2.28.69-3.57,1.09-3.85,1.19-8.22,2.54-11.48,3.17-1.34.26-2.76.66-4.25,1.08-4.27,1.21-9.58,2.73-17.44,2.05-1.29-.11-2.93-.2-4.82-.29-5.56-.29-12.48-.65-16.13-1.96-3.37-1.22-6.44-2-9.41-2.76-4.89-1.25-9.5-2.43-15.05-5.35-5.63-2.97-10.5-5.53-15.85-9.69l-1.24-.96c-3.76-2.9-9.43-7.28-11.87-10.84-.88-1.29-2.39-2.73-3.98-4.25-2.13-2.04-4.32-4.14-5.27-6.15-1.26-2.68-2.94-5.22-4.56-7.67-1.88-2.85-3.83-5.79-5.17-9.01-1.52-3.64-2.88-6.73-4.09-9.46-3.94-8.93-6.54-14.83-8.99-27.02-.29-1.43-.61-2.94-.94-4.5-2.02-9.43-4.53-21.17-2.11-29.91.49-1.76.64-3.98.8-6.33.21-3.11.43-6.33,1.48-8.66,2.51-5.54,5.14-11.12,7.82-16.58,4.62-9.4,11.31-17.47,17.79-25.28,1.48-1.78,2.96-3.57,4.43-5.38l1.66-2.06c6.84-8.49,10.98-13.61,20.85-19.66,1.73-1.06,6.93-2.9,8.99-.97.23.21.53.41.85.62.75.48,1.6,1.03,1.69,2.02.05.56.13,1.04.2,1.47.23,1.38.39,2.38-.64,4.03-1.87,2.99-4.17,4.56-6.4,6.09-2.4,1.64-4.67,3.19-6.05,6.42-.84,1.97-2.66,3.4-4.87,3.82-2.83.54-4.9,3.71-6.91,6.78-1.18,1.8-2.29,3.5-3.57,4.75-4.25,4.13-13.5,19.47-14.31,22.19-1.54,5.18-.53,10.84.67,15.7.76,3.11,1.77,6.65,4.05,9.31,2.54,2.97,6.36,4.53,10.05,6.04l.75.31c4.69,1.93,9.32,4.12,13.79,6.51.71.38,1.6.86,2.21,1.64,1.21,1.54.94,3.61.71,5.43l-.08.61c-.9,7.56,2.69,15.02,5.48,19.97.89,1.59,1.85,3.19,2.77,4.73,2.7,4.51,5.5,9.18,7.13,14.28,2.53,7.92,2.39,17.32-.43,27.93-.16.59-.32,1.19-.49,1.78-.75,2.7-1.52,5.49-1.63,8.3-.19,4.74,1.91,10.1,3.89,14.76.34.8,1.13,1.34,2,1.37.35.01.71.03,1.08.05,1.1.06,2.6.15,2.9-.21.05-.06.06-.18.02-.36-.29-1.15-1.72-3.24-2.98-5.09-.97-1.43-1.89-2.77-2.29-3.67-3-6.85-2.61-11.52,1.2-14.28,1.3-.94,2.97-1.19,4.59-1.42,2.09-.3,3.89-.57,4.46-2.21.48-1.37,1.5-4.87.75-7.76-1.79-6.94,1.13-10.71,8.37-16.53.2-.16.62-.57,1.12-1.04,1.63-1.57,2.93-2.78,3.6-2.98,5.16-1.51,7.04-12.36,6.89-17.83-.16-6.01-5.68-15.03-11.66-16.59-1.96-.51-5.81-1.62-9.65-3.28-3.36-1.45-4.16-4.03-5.09-7.01-.3-.97-.62-1.98-1.04-3.03-.27-.67-.72-1.24-1.3-1.64-.24-.17-.32-.22-.34-.24h0c-.15-.09-.32-.22-.54-.38-4.99-3.6-5.87-3.76-13.51-2.46-.13.02-13.37,2.25-15.96-.12-.62-.57-2.25-3.18-2.45-4.06-.11-.46.19-1.73,1.28-5.43.16-.55.28-.96.32-1.11.38-1.62.85-2.42,1.31-3.19.44-.74.85-1.45,1.2-2.92.23-2.59.12-2.68-.51-3.18-.39-.31-.98-.79-1.72-1.82-.22-.3-1.73-1.12-2.96-1.78-3.52-1.91-5.83-3.25-5.73-4.51.34-4.56.45-4.83,1.81-6.98.44-.69,1.04-1.64,1.84-3.06,1.18-2.11,3.1-3.74,5.4-4.59,11.02-4.06,20.79-10.92,30.24-17.56.74-.52,1.42-1.04,1.59-1.75.14-.59-.09-1.24-.33-1.92-.08-.22-.16-.43-.22-.65-.59-1.91-.22-4.07,1.02-5.91s3.1-3,5.09-3.17c.53-.05,1.07-.03,1.58-.02.95.03,1.84.05,2.63-.28.61-.26,1.12-1,1.15-1.7.01-.27-.05-.49-.19-.65-.94.6-2.17.71-3.36.28-1.33-.47-2.28-1.49-2.53-2.72-.15-.72-.08-1.43-.02-2.13.07-.81.14-1.58-.14-2.24-.35-.83-1.18-1.38-2.16-1.97l-9.2-5.52c-.57-.34-1.62-.97-1.77-2.05-.12-.81.32-1.53.75-2.13,4.09-5.6,11.13-9.42,21.51-11.67,9.5-2.06,19.24-2.72,28.94-1.97,2.01.16,2.58,1,2.7,1.67.11.61-.15,1.17-.41,1.65-3.13,5.85-8.04,10.86-13.83,14.12l-.3.17c-1.57.87-3.04,1.7-3.37,3.42-.14.75.21,1.51.83,1.83.75.37,1.42.03,2.33-.68,5.61-4.39,10.33-10.06,13.62-16.38l.35-.69c.65-1.27,1.32-2.58,2.27-3.71,2.31-2.74,6.27-4.26,10.58-4.06,3.91.18,7.58,1.59,10.99,3.02,10.12,4.23,20.83,9.76,33.72,17.4,2.32,1.38,4.81,2.33,7.39,2.83l.36.07c2.11.41,3.05,2.15,3.06,3.7,0,1.55-.93,3.29-3.04,3.71-1.17.23-2.47.38-3.86.44-10.41.45-18.9,2.29-25.96,5.62-8.73,4.13-15.26,10.64-18.39,18.33-.35.87-.43,1.37.12,1.87.44.4,1.1.55,1.77.39l2.41-.55c7.96-1.81,17.88-4.05,23.06-7.99,3.25-2.47,7.47-3.46,11.58-2.71,4.14.75,7.77,3.18,9.97,6.68.76,1.2,1.13,2.29,1.15,3.32.02,1.73-2.37,3.11-4.48,4.33-.7.4-1.61.93-1.95,1.25.08.03.19.06.35.09,9.12-4.76,13.73-4.57,20.68-4.28,2.37.1,5.06.21,8.32.14.04,0,.08,0,.13,0,4,0,13.63,3.59,16.27,6.09,3.54,3.35,7.19,9.16,9.31,14.8.66,1.75,1.38,3.13,2.09,4.47,1.48,2.81,2.75,5.25,2.18,9.33-.13.93-.67,1.76-1.48,2.27-.83.52-1.85.65-2.78.36-.81-.26-1.54-.48-2.21-.69-4.14-1.27-6.03-1.84-10.36-5.48-1.87-1.57-3.67-3.31-5.4-4.99-3.6-3.49-7.33-7.1-11.83-9.3l-.54-.26c-6.65-3.27-13.53-6.64-19.55-2.99-3.4,2.06-9.76,5.66-14.13,6.53-3.66.73-5.07-.74-6.44-2.17-1.25-1.3-2.43-2.54-5.51-2.22-2.44.25-12.59,4.91-15.09,6.38-4.66,2.73-6.67,4.42-10.73,8.48-4.09,4.08-11.04,15.77-11.23,21-.12,3.22,1.11,6.02,3.65,8.32,3.98,3.6,11.06,5.52,17.22,4.68,3.83-.53,7.54-.03,10.73,1.43,6.83,3.13,6.61,7.11,6.4,10.96-.14,2.54-.29,5.17,1.48,7.79.6.89,1.55,2.09,2.56,3.37,2.15,2.72,4.58,5.8,5.39,7.92,1.65,4.34-1.59,8.91-3.66,11.25-.94,1.06-2.2,2.03-3.53,3.05-2.37,1.82-4.81,3.7-5.23,6.07-.25,1.44.88,3.18,1.98,4.86.62.94,1.2,1.83,1.55,2.68,2.46,5.99,8.52,11.11,14,8.93,4.18-1.66,5.96-6.6,7.54-10.96.19-.52.37-1.02.55-1.5,1.16-3.09,2.09-6.34,2.77-9.66,1.02-4.97,2.61-9.09,7.04-13.01,1.41-4.16,1.22-8.49,1.03-12.69-.17-3.74-.34-7.62.62-11.35.56-2.15,2.85-4.22,4.87-6.04.97-.88,1.89-1.7,2.52-2.45.86-1.02,1.25-2.61.94-3.85-.14-.57-.5-1.33-1.38-1.69l-.55-.22c-8.41-3.38-12.62-5.08-15.46-30.1-.54-4.81,2.33-6.96,5.67-9.45l.9-.68c1.86-1.41,4.3-1.74,6.37-.87,3.9,1.63,6.92,4.48,9.85,7.24,1.64,1.55,3.33,3.15,5.15,4.5,1.03.76,1.92,1.43,2.74,2.06,2.38,1.79,4.26,3.21,7.33,5.26,2.05,1.37,8.81,6.32,9.53,12.65.02.19.04.42.07.67.08.85.18,2,.42,2.56.65,1.54,1.88,1.69,4.01,1.84.63.04,1.28.09,1.95.19,2.79.44,3.41,2.7,4.01,4.89l.14.52c2.78,9.87.75,20.47-1.21,30.72-.24,1.25-.48,2.48-.7,3.71-1.15,6.23-3.03,12.23-5.59,17.85-8.58,18.86-17.15,33.82-31.07,45.52-4.63,3.89-10.9,7.24-16.44,10.2-.89.47-1.76.94-2.6,1.39-4.51,2.44-9.58,4.48-15.07,6.06-4.52,1.3-8.58,3.63-12.51,5.88-3.18,1.82-6.46,3.71-10,5.06Z"/>
    <path d="M120.83,246.45l-.04-.21c-.02-.1-.07-.21-.16-.34-.07-.1-.14-.2-.22-.32-.15-.22-.31-.46-.46-.62l-.33-.37.49-.05c.63-.07,1.25-.14,1.86-.21,1.21-.15,2.46-.3,3.73-.37h.13s.58.78.58.78c.08.12.17.23.23.36.11.21.16.44.2.65l.06.28-.29.02c-.7.05-1.41.1-2.13.15-1.14.08-2.32.17-3.44.23h-.22ZM120.61,245c.07.1.14.2.21.31.07.11.14.21.21.3.08.11.14.21.19.32,1.06-.05,2.16-.14,3.23-.22.62-.05,1.23-.09,1.84-.13-.02-.09-.05-.17-.09-.25-.05-.1-.12-.19-.19-.29l-.42-.57c-1.21.07-2.35.21-3.56.36-.47.06-.94.11-1.42.17Z"/>
    <path d="M120.21,251.88c-.4,0-1.48-.84-1.66-1.2l-.03-.08c-.03-.27.03-.61.09-.95.06-.29.11-.6.09-.79v-.04s0-.04,0-.04c.07-.33.12-.67.17-1.01.1-.65.2-1.33.41-1.96.05-.17.12-.33.18-.49.07-.17.13-.34.19-.52l.48.15c-.06.18-.13.37-.2.55-.06.15-.12.31-.17.47-.2.59-.3,1.25-.39,1.88-.05.34-.1.67-.17,1,.02.26-.04.59-.1.9-.05.27-.11.55-.09.75.14.22.64.59.95.78.04-.71.25-1.88.45-3,.17-.93.33-1.8.33-2.14h.5c0,.39-.16,1.24-.34,2.23-.23,1.25-.48,2.68-.44,3.24v.2s-.2.08-.2.08c-.02,0-.04,0-.06,0Z"/>
    <path d="M120.06,251.88l-.06-.5c1.83-.21,3.87-.37,5.63-.44.04-.45.09-.92.16-1.4l.07-.5c.14-1.07.27-2.08.54-3.16l.48.12c-.26,1.05-.39,2.05-.53,3.1l-.07.5c-.07.55-.13,1.08-.17,1.59l-.02.22h-.22c-1.79.08-3.91.24-5.81.46Z"/>
    <path d="M126.33,252.61l-.3-.14c-.44-.21-.79-1-.83-1.09l.46-.2c.08.19.2.4.32.57.32-1.72.69-3.14,1.11-4.77l.26-1.03s0-.14,0-.23c0-.1,0-.19,0-.26h0c0-.15-.05-.29-.13-.42-.06-.09-.15-.18-.24-.27l-.72-.69c-.16-.15-.35-.29-.55-.43-.06-.04-.12-.09-.18-.13-.06.21-.09.41-.12.6h-.26s-.24-.08-.24-.08c.05-.29.1-.62.26-1.02l.13-.32.26.22c.13.11.28.22.43.32.21.15.42.3.61.48l.71.68c.12.11.23.23.33.37.13.2.2.43.21.67v.25s0,0,0,0v.03c0,.14,0,.25-.01.33h0s-.27,1.06-.27,1.06c-.45,1.76-.84,3.28-1.18,5.19l-.06.32Z"/>
    <path d="M126.28,252.57l-.05-.5c1.55-.16,3.09-.45,4.59-.87l.17-.05c.19-.05.38-.11.57-.15.31-.07.55-.1.83-.12v-.11s.02-.1.06-.17c.08-.14.25-.19.4-.14.11.04.19.12.24.17,0,0,0,0,0,0,.09-.08.16-.18.19-.3l.03-.11.11-.05c.16-.07.34-.05.49.05,0-.07.02-.15.05-.22l.05-.11.12-.03c.09-.02.27-.08.44.02l.06.04c.04-.05.06-.08.08-.11.05-.08.1-.16.18-.24.11-.1.25-.15.39-.12.06,0,.12.03.16.06.02-.04.03-.08.04-.12.01-.06.03-.15.1-.23.09-.08.17-.09.21-.09.09-.01.16-.02.24-.04.02,0,.05,0,.08-.01.19-1.08.34-2.17.45-3.26.01-.1.04-.22.06-.33.04-.2.1-.48.03-.56l-.31-.34c-.22-.24-.32-.27-.37-.26l-.3.09v-.18s-.25-.06-.25-.06c-.11-.02-.21-.04-.32-.04h-.16s-.06-.15-.06-.15c-.05-.12-.1-.23-.16-.31l-.05.05c-.08.09-.2.13-.32.13-.25,0-.44-.21-.49-.28-.04-.05-.09-.1-.12-.14,0,0,0,0,0,0-.06.12-.17.19-.3.21-.14.02-.32-.05-.42-.18-.06-.07-.09-.14-.13-.2t0,0s-.05.08-.09.11c-.04.03-.25.18-.51-.07l-.28-.27c-.02.07-.06.14-.14.2-.16.11-.38.07-.51-.1-.02-.03-.04-.06-.06-.09-.42.03-.85.04-1.25.04-.47,0-.95.02-1.43.06-.3.02-.6.05-.9.05-.37,0-.78.02-1.19.04-.39.02-.79.04-1.17.05v-.5c.36,0,.75-.03,1.14-.04.42-.02.83-.04,1.21-.04.29,0,.58-.03.86-.05.5-.04.99-.05,1.46-.06.46,0,.94-.02,1.42-.06l.21-.02v.05s.01,0,.01,0c.13-.13.38-.18.65.09l.17.17c.06-.08.14-.14.25-.16.15-.03.32.03.43.16.06.07.1.15.14.22,0,0,0,.01,0,.02.02-.04.05-.08.09-.11l.06-.04.13-.03c.29-.03.48.2.6.35,0,0,0,0,0,0v-.14s.21-.04.21-.04c.22-.04.46.06.63.26.02.02.04.05.06.07l.22-.03c.18-.03.37.03.52.16.11.09.19.2.24.33.28.05.51.3.62.42l.31.34c.25.28.16.68.09,1.01-.02.1-.04.19-.05.28-.12,1.16-.29,2.33-.49,3.47l-.03.18-.19.02c-.09.01-.16.02-.23.04-.05,0-.11.02-.16.03-.05.2-.15.37-.29.5-.03.02-.1.09-.22.09h-.01c-.13,0-.2-.08-.25-.15-.02.02-.03.05-.05.08-.03.05-.06.09-.09.13-.16.22-.41.3-.61.19,0,0-.02,0-.02-.01,0,.04,0,.07-.01.1-.03.15-.13.29-.25.35-.1.05-.22.05-.32,0-.06-.04-.11-.08-.14-.12-.08.16-.21.3-.35.39-.03.02-.11.08-.23.08-.07,0-.16-.02-.22-.06l-.02.24-.21.02c-.39.03-.65.05-.97.13-.18.04-.37.09-.55.15l-.17.05c-1.53.42-3.1.72-4.67.88Z"/>
    <path d="M132.19,251.22l-.5-.06c.12-.94.22-1.61.32-2.32.07-.48.14-.98.22-1.6.15-1.09.18-1.93.09-2.35-.11-.49-.15-.57-.4-1-.2-.34-.4-.63-.62-.89l.38-.33c.24.28.46.59.65.92.28.5.35.62.47,1.19.11.49.08,1.34-.08,2.53-.08.62-.16,1.12-.22,1.6-.1.71-.2,1.38-.32,2.31Z"/>
    <path d="M122.32,248.06c-.53,0-1.05,0-1.55-.02v-.5c1.91.05,4.23-.01,5.45-.06l.02.5c-.9.03-2.41.07-3.91.07Z"/>
    <path d="M120.5,249.54l-.05-.5c1.09-.11,2.31-.2,3.5-.28.74-.05,1.46-.1,2.13-.16l.04.5c-.67.06-1.4.11-2.14.16-1.18.08-2.4.17-3.48.28Z"/>
    <path d="M120.39,251.11l-.02-.5c.92-.04,1.93-.12,2.92-.2.86-.07,1.73-.13,2.55-.18l.03.5c-.82.05-1.68.11-2.54.18-.99.08-2,.16-2.93.2Z"/>
    <path d="M120.91,247.32l-.03-.5c.61-.03,1.32-.04,2.06-.05,1.21-.02,2.46-.04,3.47-.15l.05.5c-1.04.11-2.3.13-3.52.15-.73.01-1.43.02-2.04.05Z"/>
    <path d="M133.07,250.65l-.48-.13c.29-1.64.52-3.32.69-5,.01-.12.03-.26,0-.37-.02-.07-.07-.29-.18-.37l.3-.4c.23.17.32.46.37.66.05.19.03.38.01.54-.16,1.64-.38,3.29-.67,4.91h.02s-.06.17-.06.17Z"/>
    <path d="M133.78,250.44l-.5-.07c.27-1.97.55-3.64.84-4.97.02-.11.05-.22.04-.3-.03-.23-.28-.39-.52-.51l.23-.44c.22.11.73.38.79.9.02.17-.01.33-.04.47-.29,1.32-.56,2.98-.83,4.94Z"/>
    <path d="M134.43,250.16l-.48-.12c.27-1.04.53-2.31.69-3.34l.18-1.12c.04-.23.07-.44.04-.63-.02-.19-.1-.35-.21-.42l.28-.42c.23.15.38.43.42.77.03.27,0,.52-.04.77l-.18,1.12c-.16,1.04-.43,2.33-.7,3.38Z"/>
    <path d="M135.38,249.75l-.49-.09.6-3.41c.05-.31.11-.6.1-.89,0-.3-.08-.57-.22-.75l.4-.29c.25.34.31.75.31,1.04,0,.34-.05.67-.11.99l-.6,3.42Z"/>
    <path d="M132.54,243.79c0-.14-.15-.43-.27-.54l.34-.36c.19.18.41.58.42.88l-.5.03Z"/>
    <path d="M133.26,243.75c-.02-.06-.14-.2-.19-.26l-.08-.09.39-.31.06.08c.16.18.29.35.31.52l-.5.06Z"/>
    <rect x="113.56" y="246.04" width="6.66" height=".5" transform="translate(-10.47 5.24) rotate(-2.46)"/>
    <path d="M112.53,248.07c-.16,0-.32-.06-.44-.19h0c-.08-.08-.14-.18-.19-.28l-.05-.11c-.25-.51-.6-1.2.03-1.73.38-.32.92-.38,1.31-.15.36.21.53.58.49,1.03-.05.59-.46,1.21-.9,1.37-.08.03-.16.05-.24.05ZM112.44,247.52s.08.06.16.03c.24-.09.54-.52.58-.95.02-.26-.06-.45-.25-.56-.24-.14-.55-.05-.74.11-.29.25-.19.54.1,1.12l.06.11s.06.11.09.14Z"/>
    <path d="M117.72,249.59c-.24,0-.42-.18-.48-.24-.08-.08-.2-.21-.24-.39-.05-.2.01-.46.22-.57.11-.06.22-.05.3-.05l.27-.1.09.23.04-.06c.15.09.27.24.32.41.61-.01,1.22-.07,1.83-.18l.08.49c-.65.11-1.31.17-1.96.19-.09.16-.25.27-.43.28,0,0-.02,0-.03,0Z"/>
    <path d="M113.68,251.03v-.5s2.6-.06,2.6-.06c1.15-.03,2.35-.05,3.5-.21l.07.5c-1.18.16-2.39.18-3.55.21l-2.62.06Z"/>
    <path d="M112.89,252.07c-.16,0-.31-.06-.43-.16-.2-.18-.25-.46-.27-.7-.03-.39.08-.75.32-.98.21-.21.5-.31.82-.28.27.03.47.16.57.38.17.35.02.85-.18,1.16h0c-.12.17-.26.37-.46.49-.12.07-.25.1-.37.1ZM113.22,250.44c-.14,0-.26.05-.36.14-.13.13-.19.34-.17.58,0,.09.03.3.11.38.05.05.14.04.21,0,.11-.07.21-.2.3-.33.15-.22.21-.53.15-.67-.01-.02-.04-.08-.17-.09-.02,0-.04,0-.07,0Z"/>
    <path d="M110.91,248.94l-.11-.49c2.85-.66,5.79-.71,8.64-.77v.5c-2.81.05-5.73.11-8.53.75Z"/>
    <path d="M110.02,250.03c-.12,0-.23-.03-.32-.08-.09-.05-.16-.13-.21-.18-.45-.51-.54-1.32-.2-1.77.12-.15.45-.49,1.09-.2.8.36.78.95.69,1.28-.14.53-.55.92-1.01.95h0s-.03,0-.04,0ZM109.91,248.19c-.14,0-.19.08-.21.11-.17.23-.13.8.18,1.15.03.04.06.06.08.07,0,0,.04.02.09.01.27-.02.48-.3.55-.57.06-.23.06-.48-.41-.7-.11-.05-.2-.07-.27-.07Z"/>
    <path d="M117.12,245.9c-.1,0-.21-.03-.31-.11-.1-.08-.15-.21-.15-.36,0-.14.06-.26.16-.34.07-.06.15-.08.22-.1.19-.04.33.04.41.09.01,0,.03.02.05.03h.08s-.05,0-.05,0h.06s1.04.03,1.04.03c.46,0,.94.02,1.39-.07l.1.49c-.5.1-1.01.09-1.5.08l-.88-.02c-.07.11-.19.18-.36.23-.05.01-.14.04-.24.04ZM117.14,245.48h0s0,0,0,0h0Z"/>
    <path d="M115.17,245.26l-.03-.5,2.11-.13c.38-.02.79-.02,1.22-.03.56,0,1.14,0,1.64-.06l.05.5c-.52.05-1.12.06-1.69.06-.42,0-.83,0-1.19.03l-2.11.13Z"/>
    <path d="M114.54,246.08c-.11,0-.23,0-.35-.06-.17-.08-.29-.24-.31-.42-.02-.15.04-.28.08-.36.13-.28.28-.6.55-.73.31-.15.67-.01.96.12h0c.08.04.26.13.34.32.07.16.05.36-.05.54-.12.21-.31.38-.56.48-.22.08-.45.1-.63.1h-.03ZM114.8,244.94s-.06,0-.08.01c-.12.06-.26.37-.31.48-.01.03-.04.08-.04.1.06.04.13.04.18.04.14,0,.31-.01.46-.07.13-.05.24-.14.3-.25.03-.06.03-.1.03-.11,0,0-.02-.03-.1-.07-.23-.11-.36-.14-.44-.14Z"/>
    <path d="M117.03,250.14c-.6,0-1.2-.03-1.8-.08l.05-.5c1.48.14,2.98.1,4.44-.11l.07.49c-.91.13-1.84.2-2.76.2Z"/>
    <path d="M114.87,250.46c-.11,0-.21-.04-.3-.11-.08-.07-.13-.16-.16-.22l-.24-.45s-.08-.17-.04-.3c.04-.13.17-.25.39-.35.16-.07.38-.14.55-.06.27.13.34.5.39.77l.02.09s.03.14,0,.25c-.03.09-.09.14-.12.16-.08.07-.17.14-.29.19-.06.02-.12.03-.18.03ZM114.65,249.52l.2.38s.03.06.04.07c.02-.02.05-.05.08-.08v-.06c-.03-.1-.08-.36-.13-.41,0,.01-.11.06-.19.11ZM114.99,249.93v.02s.23-.07.23-.07l-.23.05Z"/>
    <path d="M118.86,252.08c-.28,0-.45-.11-.54-.21-.18-.19-.23-.54-.02-.74.06-.06.15-.11.25-.13.09-.02.18,0,.25.04h0c.09.04.17.1.24.18.31-.01.67-.03,1.03-.08l.06.5c-.28.04-.56.06-.84.07,0,.02,0,.03,0,.05-.03.19-.2.32-.43.32h-.02Z"/>
    <path d="M136.94,245.22l-.14-.99c3.33-.48,9.48-1.45,11.38-2.06,1.57-.51,7.96-3.69,13.6-6.49,4.68-2.32,8.72-4.33,9.61-4.63l.31.95c-.83.28-5.03,2.36-9.48,4.57-5.67,2.81-12.09,6-13.73,6.54-2.46.8-11.18,2.05-11.55,2.1Z"/>
    <path d="M136.67,248.16l-.22-.97c2.15-.49,4.55-.67,6.83-.8,1.28-.07,3.03-.75,4.72-1.41,1.05-.41,2.13-.83,3.09-1.09l.27.96c-.91.25-1.92.65-3,1.06-1.76.68-3.59,1.39-5.03,1.48-2.23.13-4.59.31-6.67.78Z"/>
    <path d="M27.67,267.9c-.32,6.26-.34,12.54-.06,18.8,5.14,1,10.73-1.19,14.42-4.9s5.7-8.88,6.24-14.09c-6.56.07-13.26.11-19.83.18-.33,0-.61.3-.77.01Z" style="fill: #b2f100;"/>
    <path d="M27.29,310.52c-.12-.08-.11.23.03.2s.17-.22.17-.36l.12-18.89c4-.21,8.16,1.21,11.4,3.55,3.25,2.34,5.66,5.81,6.73,9.67.54,1.97.74,4.02.93,6.05-6.55-.74-12.8-.5-19.38-.23Z" style="fill: #b2f100;"/>
    <path d="M90.68,291.14c-5.96-.25-11.93-.13-17.88.35-1.77.14-3.55.32-5.29.72-8.54,1.95-15.44,9.67-16.43,18.38,6,.68,12.02,1.39,18.01.68s12.01-2.94,16.18-7.31c2.04-2.14,3.58-4.74,4.48-7.55.54-1.7.61-3.5.92-5.26Z" style="fill: #b2f100;"/>
    <path d="M90.19,287.62c-7.42.57-14.92.23-22.26-1.04-3.92-.67-8.01-1.72-10.81-4.54-1.88-1.89-2.99-4.38-4.07-6.82-1.01-2.3-2.04-4.66-2.18-7.16,4.35-.28,8.36-.34,12.71-.62,4.03-.26,8.15-.51,12.05.54,8.46,2.28,13.53,10.94,14.56,19.64Z" style="fill: #b2f100;"/>
    <path d="M165.49,267.4c-.32,6.26-.34,12.54-.06,18.8,5.14,1,10.73-1.19,14.42-4.9s5.7-8.88,6.24-14.09c-6.56.07-13.26.11-19.83.18-.33,0-.61.3-.77.01Z" style="fill: #b2f100;"/>
    <path d="M165.12,310.02c-.12-.08-.11.23.03.2s.17-.22.17-.36c.04-6.3.08-12.59.12-18.89,4-.21,8.16,1.21,11.4,3.55s5.66,5.81,6.73,9.67c.54,1.97.74,4.02.93,6.05-6.55-.74-12.8-.5-19.38-.23Z" style="fill: #b2f100;"/>
    <path d="M228.51,290.64c-5.96-.25-11.93-.13-17.88.35-1.77.14-3.55.32-5.29.72-8.54,1.95-15.44,9.67-16.43,18.38,6,.68,12.02,1.39,18.01.68s12.01-2.94,16.18-7.31c2.04-2.14,3.58-4.74,4.48-7.55.54-1.7.61-3.5.92-5.26Z" style="fill: #b2f100;"/>
    <path d="M228.02,287.11c-7.42.57-14.92.23-22.26-1.04-3.92-.67-8.01-1.72-10.81-4.54-1.88-1.89-2.99-4.38-4.07-6.82-1.01-2.3-2.04-4.66-2.18-7.16,4.35-.28,8.36-.34,12.71-.62,4.03-.26,8.15-.51,12.05.54,8.46,2.28,13.53,10.94,14.56,19.64Z" style="fill: #b2f100;"/>
  </g>
</svg>