<?xml version="1.0" encoding="UTF-8"?>
<svg id="Layer_1" xmlns="http://www.w3.org/2000/svg" viewBox="0 0 64.77 207.9">
  <g>
    <path d="M47.11,30.27c-.57-2.33-1.28-5.22-.45-7.89l.05-.16c.07-.21.13-.41.15-.59,0-.17-.03-.33-.11-.4-.09-.08-.28-.1-.48-.05-.17.04-.33.11-.49.18-.13.05-.26.11-.39.15-1.05.36-2.25.17-3.14-.5-.13-.1-.23-.18-.27-.19-.05.03-.15.19-.29.48-.61,1.29-1.82,2.38-3.33,2.98-1.22.49-2.64.68-4.33.62l.04-1c1.55.07,2.83-.12,3.92-.55,1.28-.51,2.3-1.41,2.8-2.47.18-.38.54-1.08,1.25-1.06.34.02.58.21.76.34.67.51,1.54.65,2.27.4.11-.04.22-.08.33-.13.21-.09.42-.17.64-.23.54-.13,1.04-.03,1.38.28.31.28.47.73.43,1.22-.02.3-.11.58-.19.82l-.05.14c-.74,2.4-.07,5.15.47,7.36l-.97.24h0Z" style="fill: #fff;"/>
    <path d="M46.74,30.87l-.12-.49.49-.12-.49.12c-.58-2.39-1.31-5.36-.45-8.15l.05-.16c.05-.14.09-.28.11-.4-.12.03-.23.08-.34.13-.17.07-.31.13-.46.18-1.14.39-2.42.22-3.42-.45-.66,1.39-1.97,2.56-3.59,3.21-1.27.5-2.76.71-4.53.66l-.5-.02.08-2,.5.02c1.46.06,2.68-.11,3.71-.52,1.16-.46,2.08-1.27,2.53-2.22.16-.34.65-1.35,1.72-1.34.5.02.84.29,1.05.45.53.4,1.22.52,1.81.32.1-.03.2-.08.29-.12.24-.1.47-.19.72-.25.7-.17,1.37-.02,1.84.4.43.39.65.98.6,1.63-.03.36-.13.68-.21.94l-.05.14c-.7,2.27-.05,4.94.48,7.08l.12.49-1.94.48h0ZM46.85,23.82c-.25,1.99.19,4.06.62,5.84h0c-.43-1.78-.88-3.85-.62-5.84ZM39.28,23.24c-.35.22-.72.42-1.12.58-.11.04-.23.09-.35.13.12-.04.23-.08.35-.13.4-.16.77-.35,1.12-.58ZM47.24,22.18c-.02.07-.04.13-.06.19l-.02.06.02-.06c.02-.06.04-.13.06-.19ZM41.25,21.03l-.03.06c-.12.26-.28.52-.45.76.18-.24.33-.5.46-.76,0-.02.02-.04.03-.06h-.01ZM47.35,21.5v.24-.24ZM42.5,20.57s.02.02.03.02c.72.54,1.66.72,2.52.49-.85.23-1.81.04-2.55-.51h0ZM45.82,20.79c-.08.03-.16.06-.24.1-.03.01-.05.02-.08.03.03-.01.05-.02.08-.03.08-.04.16-.07.24-.1ZM46.47,20.65c.24,0,.46.07.61.21.02.02.04.04.06.06-.02-.02-.04-.04-.06-.06-.21-.19-.53-.25-.89-.18.1-.02.2-.03.29-.03h0ZM42.29,20.42c.05.03.1.07.17.12-.05-.04-.11-.08-.17-.12ZM42.06,20.33h0s.03.01.05.02c-.02,0-.04-.01-.06-.02Z" style="fill: #fff;"/>
  </g>
  <g>
    <path d="M38.03,31.74c-.53,0-1.06-.08-1.65-.38-.64-.34-1.31-.68-1.9-1.16-.7-.55-1.19-1.22-1.43-1.91-.24-.72-.22-1.48-.17-2.12.06-.71.23-1.71,1.07-2.17l.48.88c-.31.17-.49.62-.55,1.37-.05.57-.06,1.18.12,1.72.17.51.56,1.02,1.1,1.45.52.42,1.14.74,1.74,1.05.62.32,1.15.29,1.88.24.21-.01.43-.03.66-.04,1.1-.03,2.05-.31,2.77-.79,0,0-.07.09-.07.22l1-.02c0,.25-.12.46-.37.63-.88.6-1.99.92-3.3.96-.22,0-.42.02-.62.03-.25.02-.51.04-.76.04h0Z" style="fill: #fff;"/>
    <path d="M38.03,32.24c-.72,0-1.3-.14-1.88-.44-.67-.35-1.35-.71-1.98-1.21-.77-.62-1.32-1.36-1.59-2.14-.27-.8-.25-1.62-.19-2.32.04-.48.15-1.93,1.33-2.57l.44-.24.96,1.75-.44.24s-.23.15-.29.97c-.04.52-.06,1.07.1,1.52.14.42.47.84.94,1.22.48.39,1.08.7,1.66,1,.49.25.9.23,1.59.18.24-.02.46-.03.7-.04,1-.03,1.87-.28,2.5-.71l2.32-1.58-1.21,1.69h.59v.49c0,.42-.19.79-.58,1.06-.96.65-2.16,1.01-3.56,1.05-.21,0-.41.02-.6.03-.28.02-.53.04-.79.04h-.02ZM36.52,30.86s.06.03.1.05c.44.23.87.33,1.42.33.2,0,.4-.01.6-.03-.71.04-1.32.06-2.02-.3-.03-.02-.07-.03-.1-.05ZM41.89,30.6c-.71.34-1.56.54-2.49.57h-.22.22c.96-.03,1.79-.22,2.5-.57h0ZM33.89,28.86c.23.34.53.66.9.95.2.16.4.3.61.43-.21-.13-.42-.28-.61-.43-.37-.29-.67-.61-.9-.95ZM33.89,28.86h0ZM33.81,24.77c-.3.41-.39.99-.42,1.43,0,.1-.02.21-.02.32,0-.11,0-.21.02-.32.04-.45.12-1.03.42-1.43h0Z" style="fill: #fff;"/>
  </g>
  <g>
    <path d="M38.1,28.19h-.14c-.72,0-1.61,0-2.37-.46-.83-.49-1.38-1.43-1.64-2.81l.98-.19c.21,1.08.6,1.8,1.17,2.13.53.31,1.24.32,1.87.32.52,0,.99-.01,1.31-.23l.56.83c-.55.37-1.21.4-1.73.4h0Z" style="fill: #fff;"/>
    <path d="M38.1,28.69h-.08c-.8,0-1.81-.01-2.69-.53-.96-.56-1.59-1.62-1.88-3.14l-.09-.49,1.96-.38.09.49c.18.92.5,1.54.93,1.8.41.24,1.05.25,1.62.25.43,0,.83,0,1.03-.14l.41-.28,1.12,1.66-.41.28c-.63.43-1.34.49-2.01.49h0ZM37.95,27.69h.02l.14.5v-.5c.32,0,.67-.01.99-.1h0c-.34.09-.72.1-1.13.1h-.02ZM34.55,25.32c.26.96.69,1.63,1.29,1.98.52.31,1.13.37,1.7.38-.56-.02-1.19-.08-1.7-.38-.6-.35-1.04-1.02-1.29-1.98h0Z" style="fill: #fff;"/>
  </g>
  <g>
    <path d="M27.42,60.81l-.08-1c3.25-.25,6.46-.94,9.52-2.06l.79-.3c.91-.34,1.85-.7,2.83-.93.26-.06.53-.11.8-.17,1.29-.26,2.62-.53,3.21-1.51.48-.8.33-1.87.13-2.98l-3.24-17.6c-.19-1.01-.38-2.06-.37-3.13h1c0,.99.17,1.99.35,2.95l3.24,17.6c.18.99.46,2.49-.26,3.68-.81,1.36-2.44,1.69-3.87,1.98-.26.05-.52.11-.77.16-.91.21-1.82.56-2.7.89l-.8.3c-3.15,1.15-6.45,1.87-9.79,2.12h0Z" style="fill: #fff;"/>
    <path d="M26.96,61.35l-.15-2,.5-.04c3.21-.24,6.37-.93,9.39-2.03l.78-.29c.94-.36,1.89-.72,2.89-.95.26-.06.54-.12.81-.17,1.19-.24,2.41-.49,2.88-1.28.39-.65.25-1.62.07-2.64l-3.24-17.6c-.19-1.04-.39-2.11-.38-3.23v-.5l2.01.02v.5c-.02.93.16,1.9.34,2.84l3.24,17.6c.2,1.07.49,2.68-.32,4.03-.93,1.55-2.74,1.91-4.19,2.21-.26.05-.51.1-.76.16-.88.2-1.77.54-2.63.87l-.8.3c-3.2,1.17-6.54,1.89-9.93,2.15l-.5.04h0ZM27.88,60.27h0c3.13-.28,6.21-.97,9.16-2.05l.79-.3c.26-.1.52-.2.78-.29-.26.09-.51.19-.76.28l-.81.3c-2.96,1.08-6.03,1.77-9.16,2.05h0ZM44.94,55.07l-.02.04c-.7,1.17-2.21,1.47-3.53,1.74-.27.05-.53.11-.79.17-.25.06-.49.12-.73.2.24-.07.49-.14.73-.2.25-.06.52-.11.78-.17,1.4-.28,2.84-.58,3.54-1.75,0-.01,0-.02.02-.04h0ZM41.52,31.64c.04.86.2,1.71.35,2.54l3.24,17.6c.08.43.15.85.18,1.26-.03-.46-.12-.9-.18-1.26l-3.24-17.6c-.15-.83-.31-1.68-.35-2.54h0Z" style="fill: #fff;"/>
  </g>
  <g>
    <path d="M43.34,32.96c-.66-.01-1.37-.16-1.98-.47l.45-.89c.47.24,1,.36,1.52.36.3.01.61-.05.83-.16l.45.89c-.35.18-.78.27-1.27.27h0Z" style="fill: #fff;"/>
    <path d="M43.34,33.46h0c-.78-.02-1.56-.2-2.19-.52l-.45-.22.89-1.79.45.22c.42.21.89.31,1.36.31.23,0,.43-.05.54-.11l.45-.22.89,1.79-.45.22c-.42.21-.92.32-1.49.32h.01Z" style="fill: #fff;"/>
  </g>
  <g>
    <path d="M43.45,36.52c-.56,0-1.13-.13-1.62-.39l.46-.89c.45.23.97.32,1.47.26l.12.99c-.14.02-.28.03-.42.03h-.01Z" style="fill: #fff;"/>
    <path d="M43.45,37.02c-.64,0-1.28-.15-1.85-.44l-.45-.23.91-1.78.45.23c.36.18.78.26,1.18.21l.5-.06.24,1.99-.5.06c-.16.02-.32.03-.48.03h0Z" style="fill: #fff;"/>
  </g>
  <g>
    <path d="M22.09,61.1c-1.21,0-2.4-.08-3.59-.28-.86-.14-1.93-.41-2.56-1.25-.3-.4-.45-.87-.57-1.25-1.44-4.5-2.28-8.03-2.91-12.16l.99-.15c.62,4.08,1.46,7.56,2.88,12.01.1.32.22.68.42.95.42.56,1.25.76,1.92.87,2.8.47,5.63.23,8.78-.09l.1.99c-1.91.2-3.7.36-5.46.36Z" style="fill: #fff;"/>
    <path d="M22.09,61.6c-1.32,0-2.52-.09-3.67-.28-.95-.16-2.14-.46-2.88-1.45-.35-.47-.52-1-.65-1.39-1.44-4.53-2.29-8.07-2.93-12.23l-.08-.49,1.98-.3.08.49c.62,4.05,1.45,7.51,2.86,11.93.09.28.19.6.34.8.31.42,1.07.58,1.61.67,2.74.46,5.53.23,8.64-.1l.5-.05.21,1.99-.5.05c-1.77.19-3.66.37-5.51.37h0ZM20.7,60.56c1.88.11,4.02-.04,5.99-.24-2.1.21-4.06.35-5.99.24ZM15.04,55.52c.25.85.52,1.73.81,2.65.11.34.24.76.49,1.1.36.47.91.74,1.47.89-.56-.16-1.11-.42-1.47-.89-.25-.33-.39-.76-.5-1.1-.29-.92-.56-1.8-.81-2.65h.01Z" style="fill: #fff;"/>
  </g>
  <g>
    <path d="M18.29,53.83c-.43,0-.88-.08-1.28-.34-.56-.37-.83-.98-1.04-1.52-.66-1.7-1.11-3.48-1.34-5.29l.99-.13c.22,1.73.65,3.43,1.28,5.06.15.4.34.84.66,1.05.42.28,1.06.18,1.68.06,2.93-.58,4.71-.86,6.43-1.12,1.71-.26,3.48-.54,6.4-1.12.24-.05,1.12-.21,2.19-.4,1.83-.33,4.34-.78,4.74-.88.94-.22,2-.78,2.11-1.36.37-1.93-.13-3.45-.7-5.21-.25-.78-.52-1.59-.72-2.48-.08-.35-.18-.8-.29-1.31-.49-2.22-1.3-5.95-1.9-7.37l.92-.39c.63,1.51,1.43,5.14,1.95,7.55.11.51.21.96.29,1.3.19.85.45,1.63.7,2.39.59,1.82,1.15,3.53.73,5.71-.29,1.5-2.6,2.08-2.86,2.15-.42.1-2.85.54-4.79.89-1.06.19-1.94.35-2.18.4-2.94.59-4.72.86-6.44,1.13-1.71.26-3.48.54-6.39,1.12-.31.06-.71.14-1.15.14v-.03Z" style="fill: #fff;"/>
    <path d="M18.29,54.33c-.61,0-1.13-.14-1.56-.43-.65-.43-.98-1.1-1.23-1.76-.67-1.74-1.14-3.56-1.37-5.41l-.06-.5,1.98-.25.06.5c.22,1.69.64,3.35,1.25,4.94.08.22.26.67.47.81.28.19.95.05,1.3-.02,2.91-.58,4.69-.86,6.4-1.12,1.76-.27,3.53-.54,6.43-1.12.24-.05,1.13-.21,2.2-.4,1.72-.31,4.33-.78,4.71-.87.98-.23,1.69-.74,1.74-.97.35-1.8-.11-3.2-.69-4.97-.26-.79-.52-1.6-.73-2.53-.07-.31-.16-.72-.26-1.17l-.03-.14c-.48-2.21-1.29-5.9-1.87-7.29l-.19-.46,1.84-.77.19.46c.65,1.55,1.45,5.21,1.98,7.63.12.55.21.98.29,1.3.19.83.44,1.6.68,2.34.62,1.89,1.19,3.66.75,5.97-.34,1.76-2.76,2.42-3.24,2.54-.41.1-2.43.46-4.82.89-1.06.19-1.93.35-2.17.39-2.94.59-4.72.86-6.45,1.13-1.72.27-3.48.54-6.38,1.11-.33.07-.77.15-1.24.15l.02.02ZM19.1,53.24c-.18.03-.36.06-.54.08.19-.01.38-.04.54-.08ZM15.94,50.38c.15.47.31.94.49,1.4.19.49.41.99.85,1.28.04.03.09.05.13.08-.05-.02-.09-.05-.13-.08-.44-.29-.67-.81-.85-1.28-.18-.46-.34-.93-.49-1.4ZM22.26,52.64c-.49.09-1.02.18-1.6.29.58-.11,1.1-.21,1.6-.29ZM38.44,49.81c-.88.17-2.43.45-4.09.75-.52.09-1,.18-1.38.25.38-.07.86-.16,1.38-.25,1.37-.25,3.12-.56,4.09-.75ZM41.67,47.53c-.02.13-.04.26-.06.39-.07.36-.32.67-.64.92.32-.25.57-.55.64-.92.03-.13.05-.26.06-.39ZM15.19,47.1c.08.5.17,1,.28,1.5-.11-.5-.2-1-.28-1.5h0ZM40.33,40.62c.17.64.37,1.24.56,1.83.04.13.08.25.12.38-.04-.12-.08-.25-.12-.38-.19-.59-.39-1.19-.56-1.83ZM38.14,31.71c.47,1.35,1.02,3.7,1.45,5.63-.44-2-.98-4.3-1.45-5.63h0Z" style="fill: #fff;"/>
  </g>
  <g>
    <path d="M31.94,57.36c-1.07,0-2.13-.43-2.87-1.21-.14-.15-.32-.36-.4-.64-.1-.33-.03-.65.02-.88h0l.05-.25c.16-.82.31-1.6,1.65-1.83,1.05-.18,2.13-.1,3.14.24.24.08.98.34,1.27,1,.11.26.13.52.13.75,0,.38,0,.82-.17,1.24-.26.63-.86,1.14-1.66,1.4-.38.12-.77.18-1.16.18h0ZM29.67,54.83h0c-.03.14-.06.31-.04.4.02.07.1.17.16.23.74.78,1.98,1.09,3,.77.51-.17.89-.46,1.04-.82.1-.25.11-.55.1-.84,0-.14,0-.29-.05-.39-.07-.17-.3-.32-.67-.45-.85-.29-1.76-.36-2.64-.21-.66.12-.69.28-.84,1.04l-.05.26h-.01Z" style="fill: #fff;"/>
    <path d="M31.94,57.86c-1.23,0-2.41-.5-3.23-1.36-.17-.17-.4-.45-.52-.84-.13-.45-.05-.88,0-1.13l.05-.25c.17-.86.38-1.94,2.06-2.23,1.13-.2,2.3-.11,3.39.26.3.1,1.2.41,1.57,1.28.14.32.16.64.17.93,0,.43,0,.94-.21,1.44-.31.77-1.03,1.39-1.97,1.69-.42.13-.86.2-1.32.2h.01ZM29.55,55.91c.83.79,2.15,1.13,3.25.83-1.12.29-2.42-.04-3.25-.83ZM30.13,55.08s.02.02.03.03c.61.64,1.64.91,2.49.63.36-.12.64-.32.72-.53.06-.16.07-.41.06-.63,0-.11,0-.18-.02-.21,0,0-.09-.07-.37-.17-.76-.26-1.59-.32-2.4-.18-.24.04-.29.08-.3.08-.04.05-.09.33-.14.57l-.05.27s-.02.1-.03.15h0ZM29.17,55.41c.05.14.15.26.24.37-.1-.1-.19-.22-.24-.37ZM29.13,55.05c0,.1,0,.2.02.3-.03-.1-.03-.2-.02-.3ZM34.35,54c.07.17.08.37.08.55v.18-.18c0-.18-.02-.37-.08-.55ZM29.59,53.45c-.19.23-.26.53-.34.92.08-.4.16-.7.34-.92ZM33.39,53.26c.25.09.45.19.6.3-.22-.17-.48-.26-.6-.3ZM31.49,52.94c.62,0,1.24.1,1.83.29-.85-.28-1.76-.36-2.64-.23.27-.04.54-.06.82-.06h-.01Z" style="fill: #fff;"/>
  </g>
  <g>
    <path d="M42.31,77.16c-1.1-7.03,1.23-14.63,6.06-19.84l.44-.46c.57-.6,1.1-1.16,1.51-1.81.48-.77.96-1.65.65-2.38-3.27-7.58-4.81-15.94-4.47-24.19l1,.04c-.34,8.1,1.18,16.31,4.39,23.75.55,1.27-.28,2.59-.72,3.31-.46.74-1.06,1.37-1.64,1.97l-.43.45c-4.63,4.99-6.86,12.28-5.81,19.01l-.99.15h.01Z" style="fill: #fff;"/>
    <path d="M41.89,77.74l-.08-.49c-1.12-7.17,1.25-14.94,6.19-20.26l.44-.47c.55-.58,1.07-1.12,1.45-1.73.44-.71.82-1.44.62-1.92-3.3-7.65-4.86-16.09-4.51-24.41l.02-.5,2,.08-.02.5c-.34,8.02,1.17,16.16,4.35,23.53.65,1.51-.3,3.03-.75,3.77-.49.79-1.1,1.43-1.7,2.05l-.43.45c-4.53,4.88-6.7,12-5.68,18.59l.08.49-1.98.31h0ZM48.59,57.82c-4.52,4.97-6.74,12.1-5.86,18.77h0c-.88-6.67,1.34-13.8,5.86-18.77ZM51.52,53.63c-.12.57-.44,1.13-.76,1.65.26-.42.63-1.02.76-1.65ZM47.1,34.72c.29,4.05,1.04,8.07,2.21,11.96-1.17-3.89-1.92-7.91-2.21-11.96Z" style="fill: #fff;"/>
  </g>
  <g>
    <path d="M20.45,47.41c-5.34,0-10.65-1.23-15.45-3.58-.58-.28-1.19-.67-1.34-1.37-.12-.56.13-1.08.3-1.43l2.62-5.36c.16-.33.38-.78.8-1.07.57-.39,1.41-.37,2.08.06h0c.76.48,1.15,1.21,1.52,1.91.23.43.45.84.74,1.16.93,1.02,2.65,1.48,4.03,1.84l.23.06c2.49.66,5.04,1.23,7.58,1.68.9.16,2.25.4,2.91,1.47.77,1.23.1,2.89-1,3.67-1.03.73-2.32.88-3.55.93-.49.02-.98.03-1.47.03h0ZM8.32,35.32c-.13,0-.27.03-.38.11-.2.14-.34.43-.47.68l-2.62,5.36c-.15.3-.27.57-.22.78.06.28.44.5.8.68,5.09,2.5,10.77,3.69,16.43,3.45,1.25-.05,2.25-.2,3.02-.75.72-.5,1.19-1.58.73-2.32-.4-.64-1.29-.84-2.24-1.01-2.57-.46-5.15-1.03-7.66-1.7l-.22-.06c-1.51-.4-3.39-.9-4.51-2.14-.38-.42-.64-.9-.88-1.36-.33-.61-.63-1.19-1.18-1.53h0c-.17-.11-.39-.18-.6-.18h0Z" style="fill: #fff;"/>
    <path d="M20.44,47.91c-5.4,0-10.82-1.26-15.66-3.63-.65-.32-1.41-.8-1.61-1.71-.16-.73.15-1.37.34-1.75l2.62-5.36c.18-.36.44-.9.97-1.26.74-.5,1.8-.48,2.63.05.87.55,1.31,1.37,1.69,2.09.22.4.42.78.67,1.06.83.91,2.46,1.35,3.78,1.7l.23.06c2.48.66,5.01,1.22,7.54,1.67.93.16,2.47.44,3.25,1.69.92,1.47.15,3.43-1.14,4.34-1.14.8-2.51.96-3.82,1.02-.5.02-1,.03-1.49.03h0ZM19.22,46.89c.41.01.83.02,1.23.02h0c.48,0,.97,0,1.45-.03.3-.01.6-.03.9-.06-.29.03-.58.05-.9.06-.89.04-1.79.04-2.68,0h0ZM25.23,46.01s-.03.02-.05.04c-.02.01-.04.03-.05.04.02-.01.04-.02.05-.04.02-.01.03-.02.05-.04ZM5.13,42.16s.1.11.53.32c5.01,2.46,10.61,3.64,16.19,3.4,1.16-.05,2.08-.18,2.75-.65.52-.37.89-1.17.59-1.65-.29-.46-1.1-.64-1.9-.78-2.58-.46-5.18-1.04-7.7-1.71l-.23-.06c-1.57-.42-3.52-.93-4.75-2.29-.42-.46-.7-.99-.95-1.46-.31-.58-.57-1.07-1-1.35-.14-.09-.37-.13-.43-.09-.09.06-.22.33-.3.49l-2.62,5.36c-.05.09-.18.38-.18.47h0ZM5.03,43.28c.06.03.13.07.2.1.59.29,1.2.57,1.81.82-.61-.26-1.21-.53-1.81-.82-.07-.03-.13-.07-.2-.1ZM4.17,42.41c.05.18.15.34.31.49-.15-.14-.26-.3-.31-.49ZM23.6,41.83c.51.09,1.01.2,1.44.39-.47-.21-.99-.31-1.44-.39ZM7.06,35.83s-.02.04-.03.06l-2.62,5.37c-.06.13-.14.28-.19.45.05-.15.12-.29.19-.45l2.62-5.36s.02-.04.03-.06h0ZM15.75,40.09l.1.03c1.86.5,3.76.94,5.67,1.32-1.91-.38-3.81-.83-5.67-1.32l-.1-.03ZM11.88,38.55c.84.64,1.97,1.02,3.01,1.31-1.04-.29-2.17-.67-3.01-1.31ZM9.23,35.11c.48.32.8.77,1.07,1.25-.28-.49-.59-.93-1.07-1.25ZM7.71,34.98s-.03.02-.05.03c-.07.04-.13.1-.18.16.06-.06.12-.11.18-.16.02-.01.03-.02.05-.03ZM8.59,34.85c.18.03.37.1.54.2-.17-.1-.35-.17-.54-.2Z" style="fill: #fff;"/>
  </g>
  <g>
    <path d="M27.67,71.46c-2.27-.38-5.31-1.09-6.86-2.29l.61-.79c1.09.84,3.37,1.58,6.42,2.09l-.17.99h0Z" style="fill: #fff;"/>
    <path d="M28.08,72.04l-.49-.08c-2.33-.39-5.45-1.12-7.09-2.38l-.4-.3,1.22-1.59.4.3c1.01.78,3.27,1.5,6.2,2l.49.08-.33,1.97h0ZM21.52,69.06c1.44.89,3.79,1.47,5.74,1.82h0c-2.56-.46-4.55-1.1-5.74-1.82h0Z" style="fill: #fff;"/>
  </g>
  <g>
    <path d="M21.09,69.28c-.47-.02-.95-.04-5.43-9.81-.16-.35-.27-.59-.31-.67-.7-1.45-1.5-2.87-2.36-4.22-.58-.92-1.21-1.81-1.83-2.7-.87-1.25-1.76-2.56-2.66-3.88-.89-1.3-1.77-2.6-2.63-3.83l.82-.57c.86,1.23,1.74,2.53,2.63,3.83.9,1.31,1.79,2.63,2.66,3.87.63.91,1.26,1.81,1.85,2.74.89,1.39,1.7,2.85,2.42,4.32.04.09.16.33.32.7,3.47,7.57,4.46,9.06,4.74,9.28,0,0-.06-.05-.17-.05l-.04,1h-.01Z" style="fill: #fff;"/>
    <path d="M21.57,69.8l-.5-.02c-.78-.03-1.26-.05-5.86-10.1-.18-.38-.27-.59-.31-.66-.69-1.43-1.48-2.83-2.34-4.17-.58-.91-1.2-1.8-1.81-2.69-.84-1.21-1.71-2.49-2.58-3.76l-.08-.12c-.88-1.3-1.77-2.59-2.62-3.82l-.29-.41,1.64-1.14.29.41c.8,1.15,1.62,2.36,2.45,3.57l.18.27c.92,1.34,1.8,2.64,2.65,3.87.64.92,1.26,1.82,1.86,2.75.9,1.41,1.72,2.88,2.45,4.38.04.09.16.34.33.71,3.69,8.04,4.47,8.99,4.59,9.09l-.26.35h.28l-.06,1.51v-.02ZM21.12,68.6l-.1.13s.07.04.09.04v-.17h.01ZM15.36,57.7c.15.29.3.58.44.88.04.08.13.29.28.6.15.32.29.63.43.94-.13-.27-.26-.56-.39-.85-.16-.36-.28-.6-.32-.69-.14-.29-.29-.58-.44-.87h0ZM12.78,53.35c.21.32.42.64.63.96.3.46.58.93.86,1.41-.28-.48-.56-.95-.86-1.41-.21-.32-.41-.64-.63-.96ZM8.86,47.63s.03.05.05.08l.08.12c.8,1.17,1.6,2.34,2.38,3.46-.8-1.15-1.61-2.34-2.42-3.54l-.08-.12h-.01ZM6.57,44.29c.25.36.49.72.74,1.08-.25-.36-.5-.72-.74-1.08Z" style="fill: #fff;"/>
  </g>
  <g>
    <path d="M26.8,81.09l-.99-.14c.31-3.76-1.3-8.35-3.93-11.16l.73-.68c2.74,2.94,4.45,7.7,4.21,11.67h.04l-.06.32h0Z" style="fill: #fff;"/>
    <path d="M27.19,81.66l-1.92-.28.04-.47c.3-3.63-1.26-8.06-3.79-10.78l-.34-.37,1.46-1.37.34.37c2.75,2.95,4.48,7.56,4.36,11.61h.07l-.22,1.28h0ZM22.58,69.82s.06.06.08.1c-.03-.03-.05-.07-.08-.1h0Z" style="fill: #fff;"/>
  </g>
  <g>
    <path d="M29.33,66.09c-.21,0-.42,0-.63-.01-.48-.02-.99-.04-1.5-.12-1.14-.16-2.22-.52-3.27-.88l.32-.95c1.01.34,2.05.69,3.09.83.47.06.95.09,1.4.11,1.09.04,2.31.03,3.16-.62l.61.79c-.9.68-2.03.83-3.17.83v.02Z" style="fill: #fff;"/>
    <path d="M29.33,66.59c-.22,0-.44,0-.65-.01-.49-.02-1.02-.05-1.55-.12-1.19-.16-2.3-.54-3.37-.9l-.47-.16.64-1.89.47.16c.98.33,2,.67,3,.81.46.06.94.09,1.35.1,1,.04,2.13.03,2.84-.51l.4-.3,1.21,1.59-.4.3c-1.09.83-2.43.94-3.48.94h0ZM27.81,65.52c.3.03.61.04.9.05h.31-.31c-.27-.01-.58-.02-.9-.05ZM24.6,64.79c.57.19,1.14.37,1.73.5-.59-.14-1.16-.32-1.73-.5Z" style="fill: #fff;"/>
  </g>
  <g>
    <path d="M24.56,37.61h-.36c-.91-.04-1.82-.2-2.69-.34-.35-.06-.71-.12-1.07-.17-1.04-.15-2.12-.25-3.16-.34-.95-.08-1.93-.17-2.89-.3-2.51-.34-4.4-.94-5.96-1.88-.78-.47-1.56-1.09-2.47-1.94-2.27-2.13-4-4.51-5.14-7.08l-.17-.39.36-.23c.84-.54,1.64-1.17,2.38-1.86.61-.57,1.21-1.22,1.92-2.06l.11-.13.17-.03c.87-.17,1.71.23,2.45.59.16.08.32.16.48.23.21.09.39.18.56.26.44.21.72.36,1.24.42l-.11.99c-.69-.08-1.1-.28-1.57-.51-.16-.08-.32-.16-.52-.25-.17-.07-.34-.16-.51-.24-.57-.27-1.16-.57-1.67-.53-.68.79-1.27,1.43-1.87,1.99-.67.63-1.4,1.21-2.16,1.73,1.08,2.29,2.68,4.43,4.74,6.37.86.8,1.59,1.38,2.31,1.82,1.43.87,3.2,1.42,5.57,1.75.94.13,1.91.21,2.84.3,1.05.09,2.14.19,3.21.35.36.05.72.11,1.09.17.84.14,1.72.29,2.57.33.39.02.8.02,1.15-.11.9-.32,1.3-1.49,1.11-2.37-.25-1.21-1.3-2.06-1.9-2.45-.67-.44-1.41-.76-2.19-1.11-.32-.14-.64-.28-.95-.43-.71-.33-1.4-.71-2.07-1.08-.64-.35-1.28-.7-1.94-1.01-3.35-1.6-7.07-2.18-9.94-2.5l.11-.99c2.95.33,6.78.93,10.26,2.59.67.32,1.33.68,1.98,1.04.66.36,1.34.73,2.02,1.05.31.15.62.28.93.42.78.34,1.59.7,2.33,1.19,1.26.83,2.09,1.92,2.33,3.08.28,1.32-.3,3-1.75,3.52-.39.14-.8.18-1.18.18l.02-.04Z" style="fill: #fff;"/>
    <path d="M24.56,38.11c-.13,0-.26,0-.39-.01-.93-.04-1.84-.2-2.72-.34l-.14-.02c-.31-.05-.63-.11-.94-.15-1.04-.15-2.15-.25-3.13-.34-.9-.08-1.92-.17-2.92-.31-2.58-.35-4.53-.97-6.15-1.95-.81-.49-1.62-1.13-2.56-2.01-2.32-2.18-4.09-4.62-5.26-7.24l-.35-.78.72-.46c.81-.53,1.59-1.13,2.31-1.8.59-.56,1.19-1.2,1.88-2.01l.23-.27.34-.07c1.04-.2,2,.26,2.77.63.16.08.31.15.47.22.22.1.4.19.58.27.42.21.65.32,1.08.37l.5.06-.22,1.99-.5-.06c-.78-.09-1.24-.32-1.74-.56-.16-.08-.32-.16-.5-.24-.17-.08-.35-.16-.53-.25-.46-.22-.89-.43-1.22-.47-.63.73-1.19,1.32-1.75,1.85-.59.55-1.21,1.06-1.86,1.53,1.05,2.09,2.54,4.06,4.44,5.84.83.78,1.54,1.34,2.22,1.75,1.37.83,3.08,1.37,5.38,1.68.93.13,1.89.21,2.82.29,1.07.09,2.16.19,3.24.35.33.05.65.1.98.16l.11.02c.83.14,1.68.28,2.51.33.32.02.68.02.96-.08.64-.23.94-1.13.8-1.8-.22-1.04-1.15-1.78-1.69-2.13-.64-.42-1.36-.73-2.12-1.07-.34-.15-.66-.29-.97-.44-.7-.33-1.38-.7-2.04-1.06-.69-.38-1.32-.72-1.97-1.03-3.28-1.57-6.95-2.14-9.78-2.46l-.5-.06.23-1.99.5.06c2.99.34,6.87.95,10.42,2.64.68.33,1.35.69,2.01,1.05.67.37,1.33.73,1.99,1.04.28.13.56.26.84.38.88.39,1.71.75,2.49,1.26,1.37.9,2.28,2.11,2.55,3.4.32,1.53-.37,3.48-2.07,4.09-.39.14-.82.21-1.35.21h0ZM27.03,34.14c.17,1.07-.32,2.41-1.46,2.82-.11.04-.22.07-.33.09.12-.02.22-.05.33-.09,1.15-.42,1.63-1.73,1.46-2.82ZM21.07,36.68c.14.02.27.04.41.07l.12.02c.09.01.17.03.26.04-.09-.01-.17-.03-.26-.04l-.11-.02c-.14-.02-.28-.05-.41-.07h0ZM16.76,36.19c.2.02.39.04.58.05h.01c-.2-.02-.39-.04-.59-.05ZM8.36,33.91c.11.08.23.15.34.22.72.44,1.53.8,2.44,1.09-.91-.29-1.71-.66-2.44-1.09-.11-.07-.23-.14-.34-.22ZM24.86,31.23s.02.01.03.02c.36.24.87.62,1.31,1.15-.35-.42-.79-.81-1.31-1.15,0,0-.02-.01-.03-.02ZM22.72,30.15c.13.05.25.11.37.17-.12-.06-.25-.11-.37-.17ZM21.11,29.4c.19.1.38.19.57.28.31.14.62.28.92.42h0c-.36-.16-.65-.29-.93-.42-.19-.09-.38-.18-.57-.28h0ZM1.44,25.67c.65,1.39,1.48,2.72,2.49,3.99-.99-1.25-1.81-2.57-2.46-3.94l-.03-.06h0ZM17.35,27.43c.11.05.22.1.33.15.29.14.58.28.86.43-.29-.15-.57-.29-.86-.43-.11-.05-.22-.1-.33-.15ZM1.29,25.33h0l.3-.21c-.1.07-.2.13-.3.2h0ZM8.07,25.09c.47.06.95.12,1.45.19-.5-.07-.99-.14-1.45-.19h0ZM5.69,21.32h0c-.5.6-.96,1.1-1.4,1.55.4-.41.82-.87,1.28-1.41l.13-.15h0ZM9.46,22.63c.1.04.2.07.31.1h0c-.11-.03-.21-.06-.31-.1ZM8.76,22.31s.06.03.09.05c.15.08.29.15.44.21-.14-.06-.27-.13-.42-.2-.04-.02-.07-.04-.11-.05h0ZM7.69,21.8s.05.02.08.04c.23.11.4.19.56.26.04.02.07.03.1.05-.03-.02-.07-.03-.11-.05-.16-.07-.33-.15-.5-.23-.05-.02-.09-.04-.14-.07h.01ZM5.94,21.29s-.09,0-.13.01h.1s.02,0,.04-.01h-.01Z" style="fill: #fff;"/>
  </g>
  <g>
    <path d="M10.59,25.69l-.91-3.09c-.17-.57-.35-1.21-.27-1.88l.99.12c-.05.47.1.99.24,1.49l.91,3.09-.96.28h0Z" style="fill: #fff;"/>
    <path d="M10.25,26.31l-1.05-3.57c-.17-.58-.38-1.31-.29-2.08l.06-.5,1.99.23-.06.5c-.04.37.09.84.22,1.29l1.05,3.57-1.92.56h0ZM9.9,21.28c.03.4.15.8.26,1.18l.77,2.61-.77-2.61c-.11-.37-.23-.77-.26-1.18h0Z" style="fill: #fff;"/>
  </g>
  <g>
    <path d="M39.35,22.91c-.2-1.16-1.24-4.99-2.34-9.05-1.37-5.03-2.78-10.23-2.97-11.72-.02-.18-.06-.44-.16-.54-.11-.11-.41-.11-.52-.12-.87-.03-1.78.1-2.59.22-3.96.56-7.99,1.17-11.96,1.82-4.04.66-7.64,1.35-10.87,2.99-.08.04-.23.12-.26.17-.03.04-.04.14-.04.29,0,.69.23,1.4.44,2.08l1.17,3.74-.95.3-1.17-3.74c-.22-.72-.48-1.53-.48-2.37,0-.24.02-.56.2-.84.17-.26.41-.4.65-.52,3.36-1.71,7.04-2.41,11.16-3.08,3.98-.65,8.01-1.27,11.98-1.82.84-.12,1.8-.25,2.76-.23.39.01.84.07,1.18.39.36.34.43.84.47,1.14.18,1.42,1.65,6.82,2.95,11.58,1.11,4.08,2.16,7.94,2.36,9.14l-.99.17h-.02Z" style="fill: #fff;"/>
    <path d="M38.95,23.49l-.08-.49c-.19-1.12-1.22-4.92-2.31-8.93-1.39-5.12-2.81-10.34-3-11.86,0-.05-.02-.14-.03-.21-.04,0-.09,0-.17-.01-.82-.02-1.71.1-2.48.21-3.97.56-7.99,1.17-11.97,1.82-4,.66-7.56,1.33-10.73,2.94,0,0-.02.01-.03.02,0,.61.21,1.28.41,1.92l1.32,4.22-1.91.6-1.32-4.21c-.24-.75-.5-1.6-.51-2.51,0-.29.02-.72.29-1.12.26-.39.64-.58.84-.69,3.42-1.74,7.14-2.45,11.31-3.13,3.98-.65,8.01-1.27,11.99-1.83.95-.13,1.88-.26,2.84-.23.46.01,1.05.09,1.52.53.49.47.57,1.1.62,1.44.18,1.38,1.64,6.77,2.93,11.52,1.12,4.11,2.16,7.97,2.37,9.19l.08.49-1.97.34v-.02ZM38.21,16.36c.7,2.59,1.29,4.82,1.54,5.98h0c-.25-1.17-.85-3.4-1.54-5.98ZM34.46,1.69c.03.12.05.25.07.39.15,1.13,1.04,4.55,2.07,8.39-1.01-3.76-1.93-7.26-2.07-8.39,0-.11-.03-.25-.07-.39ZM7.16,6.62c-.03.12-.03.24-.03.35v.09-.09c0-.14,0-.25.03-.35ZM8.14,6.85h0ZM7.43,6.22c-.06.04-.11.09-.15.15.04-.06.09-.1.15-.15ZM28.55,1.51c-1.75.25-3.5.52-5.25.79,1.75-.27,3.51-.54,5.25-.79ZM31.02,1.16c-.08.01-.16.02-.24.03.08-.01.16-.02.24-.03ZM33.31.98h.06c.27,0,.57.04.79.2-.21-.16-.5-.19-.79-.2h-.06Z" style="fill: #fff;"/>
  </g>
  <g>
    <path d="M20.05,23.82c-5.52,0-10.34-1.97-13.58-3.77l-.44-.24.25-.44c.37-.65.39-1.48.38-2.35h0c0-.86-.03-1.72-.06-2.59v-.24c-.05-.57-.11-1.44.43-1.91.88-.76,2.39.22,3.61,1.01.32.21.62.4.78.47.56.25,1.15.43,1.77.62l.28.09c2.44.74,4.82,1.7,7.13,2.62.53.21,1.07.43,1.57.75,1.24.79,2.08,2.12,2.26,3.58.1.8-.1,1.45-.56,1.83-.36.3-.8.37-1.19.42-.9.11-1.78.15-2.65.15h.02ZM7.37,19.4c3.63,1.94,9.1,3.99,15.22,3.27.26-.03.52-.07.67-.19.26-.21.23-.73.2-.94-.14-1.14-.83-2.24-1.8-2.86-.42-.27-.9-.46-1.41-.66-2.29-.92-4.66-1.87-7.05-2.59l-.28-.08c-.63-.19-1.28-.38-1.9-.67-.23-.11-.53-.3-.91-.54-1.39-.9-2.21-1.27-2.41-1.09-.17.15-.13.78-.1,1.09l.02.27c.03.87.05,1.74.06,2.62h0c0,.83-.02,1.64-.3,2.39v-.02Z" style="fill: #fff;"/>
    <path d="M20.05,24.32c-5.71,0-10.67-2.08-13.82-3.83l-.88-.49.49-.88c.31-.54.33-1.3.32-2.1,0-.86-.03-1.71-.06-2.57v-.22c-.06-.63-.13-1.68.61-2.32,1.16-1.01,2.84.08,4.2.96.3.2.58.38.73.45.53.24,1.1.41,1.71.59l.29.09c2.46.75,4.86,1.71,7.17,2.64.52.21,1.11.44,1.66.79,1.36.87,2.29,2.34,2.48,3.94.12.98-.14,1.79-.73,2.28-.44.37-.96.47-1.45.53-.88.1-1.8.16-2.71.16v-.02ZM23.09,23.09c-.15.04-.3.06-.45.08-.34.04-.68.07-1.02.1.34-.02.68-.06,1.02-.1.15-.02.3-.04.45-.08ZM7.97,19.15c3.48,1.81,8.72,3.71,14.56,3.02.23-.03.37-.05.42-.08,0-.02.05-.2.02-.49-.12-1-.72-1.95-1.57-2.49-.39-.25-.84-.43-1.32-.62-2.3-.92-4.65-1.86-7.01-2.58l-.28-.08c-.65-.19-1.31-.39-1.96-.69-.27-.12-.58-.32-.97-.58-.99-.64-1.51-.89-1.77-.99,0,.12,0,.29.02.53l.02.28c.03.89.05,1.76.06,2.64,0,.7,0,1.43-.19,2.14h-.03ZM22,18.31c1.06.7,1.8,1.91,1.96,3.17,0,.07.02.15.02.23,0-.07,0-.15-.02-.23-.16-1.28-.88-2.46-1.96-3.17ZM6.72,19.62h0s.02.01.03.02l.15-.41c.25-.67.27-1.43.27-2.21s-.02-1.56-.05-2.34c.03.79.04,1.57.05,2.34,0,.94-.02,1.84-.45,2.6h0ZM12.78,14.78c.09.03.18.05.27.08l.29.09c1.68.51,3.33,1.12,4.96,1.76-1.62-.64-3.28-1.25-4.96-1.76l-.28-.09c-.09-.03-.19-.06-.28-.08ZM7.07,13.58c0,.21,0,.41.02.59v.13-.13c-.02-.22-.02-.41-.02-.58h0ZM8.54,12.68c.43.18,1.02.51,1.83,1.04.35.22.62.4.82.5-.19-.09-.45-.26-.82-.5-.57-.37-1.24-.8-1.83-1.04ZM8.1,13.33h0Z" style="fill: #fff;"/>
  </g>
  <g>
    <path d="M21.61,23.73c-.9-.28-1.96-1.08-2.82-1.72l-.45-.33c-.25-.18-.44-.32-.6-.52-.37-.49-.36-1.1-.36-1.51,0-.3,0-.71.24-1.07.2-.32.52-.51.75-.62.81-.4,2.34-.58,3.29-.39l-.2.98c-.73-.15-2.04,0-2.65.3-.11.06-.27.14-.34.25-.08.12-.08.36-.08.56,0,.36,0,.7.15.89.07.09.19.17.31.26l.55.41c.75.56,1.78,1.34,2.51,1.56l-.29.96h-.01Z" style="fill: #fff;"/>
    <path d="M21.94,24.36l-.48-.15c-.98-.3-2.09-1.13-2.97-1.8l-.45-.33c-.27-.19-.5-.36-.7-.62-.48-.62-.47-1.38-.46-1.83,0-.34.01-.85.31-1.33.27-.43.67-.66.95-.8.9-.45,2.56-.64,3.61-.43l.49.1-.4,1.96-.49-.1c-.61-.13-1.81,0-2.32.26-.12.06-.16.09-.16.1.02,0,.01.18.01.27,0,.33.01.53.05.59.02.03.13.1.2.16l.56.41c.69.52,1.72,1.29,2.36,1.49l.48.15-.59,1.91h0ZM19.6,22c.55.4,1.14.81,1.68,1.07h0c-.54-.26-1.15-.68-1.68-1.07ZM18.48,21.16s.06.04.09.06l-.02-.02-.06-.05h-.01ZM17.89,19.31c-.01.12-.01.23-.02.34,0,.2,0,.44.04.68-.04-.21-.04-.44-.04-.68,0-.11,0-.23.02-.34ZM18.82,18.3c-.09.03-.17.07-.24.1-.06.03-.14.07-.21.12.07-.05.14-.08.21-.12s.15-.07.24-.1Z" style="fill: #fff;"/>
  </g>
  <g>
    <path d="M23.02,37.46l-.5-.26c-.85-.44-1.91-.99-2.55-1.45-.3-.22-.62-.46-.85-.81-.45-.68-.42-1.51-.35-2.23.02-.17.04-.41.16-.64.16-.31.45-.48.63-.6.6-.37,1.45-.87,2.35-.85.34.01.82.1,1.32.19.69.12,1.54.28,1.93.21l.18.98c-.57.1-1.44-.06-2.28-.21-.47-.08-.91-.16-1.18-.17-.59-.04-1.15.3-1.79.7-.1.06-.24.15-.28.22-.03.05-.04.17-.04.25-.05.58-.08,1.18.19,1.59.14.21.36.38.6.55.58.42,1.64.97,2.42,1.37l.5.26-.47.88v.02Z" style="fill: #fff;"/>
    <path d="M23.23,38.13l-.94-.49c-.86-.45-1.94-1-2.61-1.49-.34-.25-.7-.52-.98-.94-.59-.88-.49-1.97-.43-2.56.02-.19.04-.5.21-.83.23-.43.6-.65.81-.79.79-.49,1.65-.93,2.63-.92.39.02.88.1,1.4.2.54.1,1.45.26,1.75.21l.49-.09.35,1.97-.49.09c-.65.12-1.56-.05-2.45-.21-.46-.08-.89-.16-1.12-.17-.46-.02-.97.29-1.51.62-.03.02-.06.03-.08.05v.04c-.04.47-.07,1,.11,1.27.09.14.29.28.48.42.55.39,1.59.94,2.36,1.33l.95.5-.93,1.77v.02ZM19.88,35.04c.12.11.26.21.39.31.53.38,1.4.85,2.14,1.23-.74-.39-1.62-.86-2.14-1.23-.14-.1-.27-.2-.39-.31ZM19.89,31.86s-.04.03-.06.04c-.16.1-.36.22-.46.41-.07.14-.09.3-.1.45v.08-.08c.02-.17.03-.31.1-.44.09-.17.26-.29.45-.41.02-.01.05-.03.07-.04h0ZM21.89,31.12h.14-.14Z" style="fill: #fff;"/>
  </g>
  <g>
    <path d="M22.75,47.32c-.52-.03-1.77-.63-2.08-.84-.72-.5-1.49-1.14-1.74-2.09-.16-.58-.08-1.17,0-1.62.03-.17.1-.5.34-.74.16-.17.36-.25.53-.3.8-.26,2.35-.59,3.31-.49l-.1.99c-.71-.07-2.06.17-2.89.44-.1.03-.13.05-.14.06s-.03.07-.06.22c-.06.34-.13.78-.02,1.17.17.64.78,1.14,1.35,1.53.27.19,1.32.65,1.57.66l-.06,1h-.01Z" style="fill: #fff;"/>
    <path d="M23.22,47.85l-.5-.03c-.66-.04-2.01-.71-2.33-.93-.79-.55-1.64-1.26-1.94-2.38-.18-.68-.1-1.34,0-1.84.04-.21.12-.65.47-1,.24-.24.51-.35.72-.43.79-.26,2.43-.63,3.52-.51l.5.05-.21,1.98-.49-.05c-.56-.06-1.72.12-2.56.38-.05.26-.09.62-.02.89.13.49.65.91,1.15,1.25.22.15,1.12.54,1.33.58l.45.07v.46l-.09,1.5h0ZM19.35,43.84c0,.14.03.28.07.42.16.59.56,1.04,1.03,1.42-.46-.38-.87-.84-1.03-1.43-.04-.14-.06-.28-.07-.42h0ZM19.49,42.62c-.03.09-.05.17-.06.24-.01.07-.03.14-.04.22.01-.08.02-.15.04-.22.02-.1.04-.17.06-.24ZM19.94,42.21c-.11.04-.22.09-.31.17,0,0-.02.02-.02.03.1-.1.19-.15.33-.2ZM22.56,41.72c-.42.01-.91.08-1.36.17.47-.09.95-.15,1.36-.17h0Z" style="fill: #fff;"/>
  </g>
  <g>
    <path d="M36.88,24.45c-.91-5.68-2.12-11.29-3.71-17.17l-.1-.38c-.22-.87-.44-1.69-.95-1.89-.36-.14-2.03.13-2.66.23-.26.04-.48.08-.62.09-4.71.57-9.09,1.34-13.81,2.43l-.22-.97c4.75-1.1,9.17-1.88,13.91-2.45.14-.02.34-.05.59-.09,1.41-.23,2.62-.39,3.18-.17.99.39,1.28,1.5,1.55,2.57l.1.37c1.6,5.91,2.82,11.56,3.73,17.27l-.99.16h0Z" style="fill: #fff;"/>
    <path d="M36.46,25.02l-.08-.49c-.91-5.66-2.12-11.26-3.7-17.12l-.1-.39c-.16-.61-.37-1.44-.65-1.55-.06-.01-.48-.05-2.39.26-.27.04-.49.08-.64.1-4.69.57-9.06,1.34-13.76,2.42l-.49.11-.45-1.95.49-.11c4.77-1.1,9.21-1.88,13.97-2.46.12-.01.29-.04.5-.08,1.6-.26,2.83-.42,3.52-.15,1.23.49,1.56,1.77,1.85,2.91l.1.37c1.6,5.93,2.83,11.59,3.74,17.32l.08.49-1.97.32h-.02ZM33.55,6.77l.1.38c1.31,4.85,2.37,9.52,3.21,14.2-.84-4.68-1.9-9.35-3.21-14.21l-.1-.38h0ZM15.4,7.16h0c.93-.21,1.85-.41,2.76-.6-.91.19-1.83.39-2.76.6ZM33.39,6.16c.06.2.11.4.16.6h0c-.05-.2-.11-.41-.16-.6ZM18.16,6.56h0ZM29.23,4.76s-.08.01-.12.02c.04,0,.08-.01.12-.02ZM31.16,4.5c-.5.04-1.07.13-1.54.2.66-.1,1.16-.17,1.54-.2Z" style="fill: #fff;"/>
  </g>
  <g>
    <path d="M10.42,14.2c-.14-.39-.21-.66-.29-.95-.08-.31-.17-.64-.36-1.19l.94-.33c.2.58.3.93.39,1.26.07.27.14.52.26.88l-.94.33Z" style="fill: #fff;"/>
    <path d="M10.11,14.84l-.17-.47c-.14-.4-.22-.69-.3-.99-.08-.31-.17-.63-.35-1.15l-.17-.47,1.89-.66.17.47c.21.59.31.96.4,1.3.07.27.13.5.25.84l.17.47-1.89.66ZM10.63,13.18c.03.13.07.25.1.38h0c-.04-.13-.07-.25-.11-.38h.01Z" style="fill: #fff;"/>
  </g>
  <g>
    <path d="M19.01,5.68h-.26c-.43,0-.86-.02-1.28-.04l-.3-.02-.16-.29c-.18-.37.14-.83.14-.83.15-.19.33-.28.46-.35l.15-.08c.18-.1.38-.21.61-.27.59-.15,1.22,0,1.73.12l.13.03c.46.11.61.37.65.57.06.29-.08.58-.36.78-.48.33-1.05.37-1.52.37h.01Z" style="fill: #fff;"/>
    <path d="M19.01,6.18h-.27c-.43-.01-.87-.02-1.3-.05l-.57-.03-.3-.54c-.23-.48-.06-1.01.17-1.35.23-.3.49-.44.65-.51l.15-.08c.19-.1.42-.23.72-.31.71-.18,1.43,0,1.96.12l.14.03c.55.13.92.48,1.02.96.1.49-.12.99-.57,1.3-.6.41-1.28.46-1.8.46h0ZM17.47,5.13h.02c.42.03.84.04,1.27.04h.25c.4,0,.87-.03,1.24-.28.05-.04.18-.14.16-.27,0-.03-.03-.13-.28-.19l-.14-.03c-.48-.12-1.02-.25-1.49-.12-.17.04-.34.13-.49.22l-.16.08c-.12.06-.23.12-.3.21-.06.09-.11.26-.09.31v.02h.01Z" style="fill: #fff;"/>
  </g>
  <g>
    <path d="M13.54,82.31l-.02-1c10.96-.25,22-1.29,32.82-3.11l.17.99c-10.86,1.82-21.95,2.87-32.96,3.12h-.01Z" style="fill: #fff;"/>
    <path d="M13.05,82.82l-.04-2h.5c10.94-.26,21.96-1.3,32.74-3.12l.49-.08.33,1.97-.49.08c-10.88,1.83-22,2.88-33.03,3.13h-.5v.02ZM14.03,81.8h0c10.65-.27,21.38-1.28,31.89-3.02h0c-10.51,1.74-21.24,2.76-31.89,3.02Z" style="fill: #fff;"/>
  </g>
  <g>
    <path d="M47.37,95.91c-13.96,0-28.03-.48-41.92-1.43l.07-1c15.5,1.06,31.25,1.54,46.8,1.41l.3-.79.94.35-.54,1.43h-.34c-1.76.02-3.53.03-5.29.03h-.02Z" style="fill: #fff;"/>
    <path d="M47.37,96.41c-13.96,0-28.08-.48-41.96-1.43l-.5-.03.14-2,.5.03c15.37,1.05,30.98,1.52,46.42,1.41l.35-.94,1.87.7-.84,2.22h-.69c-1.76.02-3.53.03-5.3.03h0ZM5.98,94.02c15.38,1.04,31.04,1.51,46.48,1.38h-.14c-15.4.13-30.99-.34-46.34-1.38h0ZM52.68,95.32l-.03.07.03-.07Z" style="fill: #fff;"/>
  </g>
  <g>
    <path d="M50.35,97.49l-.64-1.82c-1.87-5.26-3.8-10.7-4.15-16.43l1-.06c.33,5.44,2.15,10.69,3.95,15.76l.26.05-.42,2.5Z" style="fill: #fff;"/>
    <path d="M50.52,99.47l-1.29-3.63c-1.88-5.3-3.82-10.77-4.17-16.57l-.03-.5,2-.12.03.5c.33,5.4,2.17,10.68,3.83,15.35l.46.08-.82,4.89h-.01ZM49.82,94.5c.12.33.24.67.35,1h0l.02-.1h-.06l-.1-.29c-.07-.2-.14-.4-.22-.61h0ZM46.15,80.33c.11,1.12.28,2.23.49,3.33-.21-1.1-.38-2.21-.49-3.33Z" style="fill: #fff;"/>
  </g>
  <g>
    <path d="M15.99,94.5c-.68-3.59-1.59-7.18-2.71-10.66-.22-.67-.43-1.33-.4-2.05l1,.04c-.02.54.15,1.09.34,1.67,1.14,3.55,2.06,7.18,2.75,10.81l-.98.19h0Z" style="fill: #fff;"/>
    <path d="M15.59,95.08l-.09-.49c-.68-3.57-1.58-7.14-2.69-10.6-.22-.7-.46-1.42-.42-2.23l.02-.5,2,.09-.02.5c-.02.45.14.96.32,1.5,1.14,3.57,2.07,7.22,2.76,10.88l.09.49-1.96.37h-.01ZM13.41,82.31c.03.22.07.44.13.65-.06-.22-.1-.43-.13-.65h0Z" style="fill: #fff;"/>
  </g>
  <g>
    <path d="M24.57,90.81c-.46,0-.86-.22-1.15-.38-.47-.25-1.11-.6-1.41-1.26-.38-.86-.22-3.03.89-3.63.49-.26,1.08-.29,1.66-.08.73.27,1.37.88,1.64,1.55.22.55.27,1.2.16,1.87-.08.49-.23.88-.46,1.2-.31.43-.79.7-1.27.72h-.06ZM23.78,86.33c-.13,0-.28.03-.41.1-.47.25-.7,1.77-.45,2.34h0c.15.33.53.55.97.79.28.15.49.28.7.25.17,0,.37-.12.5-.31.13-.18.23-.43.28-.77.08-.5.04-.97-.11-1.35-.16-.41-.59-.81-1.05-.98-.12-.04-.27-.08-.43-.08h0Z" style="fill: #fff;"/>
    <path d="M24.57,91.31c-.59,0-1.07-.26-1.39-.43-.51-.27-1.26-.68-1.63-1.5-.45-1.01-.3-3.51,1.11-4.27.61-.33,1.35-.37,2.07-.11.86.31,1.62,1.04,1.93,1.84.25.63.31,1.37.19,2.13-.09.57-.27,1.03-.55,1.41-.4.55-1.02.9-1.65.92h-.08ZM24.57,90.32v.5l.02-.5h-.02ZM25.52,89.76s-.02.02-.03.04c-.05.07-.11.14-.17.2.06-.06.12-.12.18-.2,0-.01.02-.02.02-.03h0ZM22.7,89.33c.25.29.6.48.91.65-.38-.21-.69-.4-.91-.65ZM23.78,86.83c-.07,0-.12.01-.17.04-.2.18-.4,1.31-.23,1.69.09.2.49.42.75.56.19.1.35.19.41.2.04,0,.09-.03.15-.11.09-.12.15-.3.19-.55.07-.41.04-.79-.08-1.09-.11-.28-.43-.57-.76-.69-.09-.03-.18-.05-.26-.05h0ZM22.44,88.91s.02.04.02.06c0,.03.03.06.04.09,0-.03-.03-.06-.04-.08,0-.02-.02-.04-.02-.06h0ZM25.87,87.71c.06.34.06.71,0,1.1,0,.03,0,.06-.02.09,0-.03,0-.06.02-.09.06-.39.06-.76,0-1.1ZM23.25,85.93s-.08.04-.12.06c-.58.31-.82,1.3-.81,2.09,0-.82.28-1.81.81-2.09.04-.02.08-.04.12-.06ZM24.21,85.89c.06.02.11.03.17.05.38.14.73.4,1,.71-.26-.31-.62-.57-1-.71-.06-.02-.11-.04-.17-.05Z" style="fill: #fff;"/>
  </g>
  <g>
    <path d="M26.65,85.98l-.39-.92c1.29-.55,2.65-.88,4.04-.98l.07,1c-1.29.09-2.54.39-3.72.9h0Z" style="fill: #fff;"/>
    <path d="M26.38,86.63l-.79-1.84.46-.2c1.34-.57,2.75-.91,4.2-1.02l.5-.04.14,2-.5.04c-1.23.09-2.43.38-3.56.86l-.46.2h0ZM26.91,85.33h0l.05-.02-.05.02ZM29.83,84.62c-.25.03-.5.06-.74.11.25-.04.5-.08.74-.11h0Z" style="fill: #fff;"/>
  </g>
  <g>
    <path d="M33.3,90.73c-.29-.13-.64-.17-.99-.22-1.31-.15-2.65-.21-3.98-.16l-.03-1c1.38-.05,2.77,0,4.13.17.42.05.86.11,1.27.29l-.4.92h0Z" style="fill: #fff;"/>
    <path d="M33.56,91.39l-.46-.2c-.23-.1-.54-.14-.85-.18-1.3-.15-2.61-.21-3.91-.16l-.5.02-.07-2,.5-.02c1.39-.05,2.8,0,4.2.17.45.05.94.12,1.42.33l.46.2-.79,1.84h0ZM29.23,89.84c1.04,0,2.09.06,3.13.18.16.02.32.04.48.07-.16-.03-.32-.05-.48-.07-1.18-.14-2.38-.19-3.55-.18h.42Z" style="fill: #fff;"/>
  </g>
  <g>
    <path d="M29.74,207.27c-11.29-36.19-22.97-73.61-25.02-112.25l1-.05c2.04,38.51,13.7,75.87,24.97,112l-.96.3h.01Z" style="fill: #fff;"/>
    <path d="M29.41,207.9l-.15-.48c-11.3-36.22-22.99-73.67-25.04-112.37l-.03-.5,2-.11.03.5c2.04,38.44,13.69,75.78,24.95,111.88l.15.48-1.91.6h0ZM5.25,95.5c2.11,38.22,13.63,75.29,24.82,111.15h0c-11.19-35.86-22.71-72.92-24.82-111.15h0Z" style="fill: #fff;"/>
  </g>
  <g>
    <path d="M63.19,190.66c-1.22-4.62-2.23-9.36-3-14.08-.61-3.68-1.08-7.42-1.55-11.04-2.93-22.95-5.97-46.68-6.56-70.23l1-.03c.59,23.5,3.62,47.21,6.55,70.13.46,3.61.94,7.34,1.54,11,.77,4.69,1.78,9.39,2.98,13.99l-.97.25h.01Z" style="fill: #fff;"/>
    <path d="M62.83,191.27l-.13-.48c-1.22-4.64-2.23-9.39-3.01-14.12-.61-3.67-1.08-7.4-1.54-11.01-2.94-23.01-5.98-46.75-6.57-70.33v-.5l1.99-.05v.5c.6,23.48,3.63,47.17,6.56,70.08.46,3.6.94,7.33,1.54,10.98.77,4.67,1.77,9.36,2.97,13.94l.13.48-1.93.51h-.01ZM61.44,180.74c.34,1.73.7,3.47,1.1,5.19-.4-1.72-.76-3.45-1.1-5.19ZM59.73,170.12h0ZM55.79,138.22c1.03,9.17,2.19,18.28,3.34,27.26.2,1.53.39,3.07.6,4.61-.21-1.55-.41-3.09-.6-4.61-1.15-8.99-2.31-18.1-3.34-27.26ZM54.73,128.18v.03-.03ZM52.59,95.8c.28,10.78,1.08,21.61,2.14,32.37-1.06-10.76-1.85-21.59-2.14-32.37h0Z" style="fill: #fff;"/>
  </g>
  <g>
    <path d="M28.17,168.54l-.97-.23c.59-2.52,1.73-4.93,3.3-6.99l.8.61c-1.48,1.95-2.56,4.23-3.12,6.61h-.01Z" style="fill: #fff;"/>
    <path d="M28.55,169.14l-1.95-.46.11-.49c.61-2.58,1.78-5.07,3.39-7.18l.3-.4,1.59,1.21-.3.4c-1.44,1.89-2.49,4.11-3.03,6.43l-.11.49ZM27.81,167.94h0c.02-.07.04-.14.06-.21-.02.07-.04.14-.06.21ZM30.6,162.02c-.25.35-.49.71-.72,1.08.23-.37.47-.73.72-1.08h0Z" style="fill: #fff;"/>
  </g>
  <g>
    <path d="M48.99,132.52c-2.63-1.82-4.64-4.5-5.66-7.53l.95-.32c.95,2.83,2.83,5.33,5.28,7.03l-.57.82h0Z" style="fill: #fff;"/>
    <path d="M49.12,133.21l-.41-.29c-2.72-1.88-4.79-4.65-5.85-7.79l-.16-.47,1.9-.64.16.47c.92,2.73,2.72,5.14,5.09,6.78l.41.29-1.14,1.64h0ZM43.97,125.29c.97,2.58,2.69,4.87,4.9,6.52h0c-2.21-1.65-3.93-3.94-4.9-6.52h0Z" style="fill: #fff;"/>
  </g>
  <g>
    <path d="M55.15,153.92l-.8-.99c-3.62-4.45-6.55-9.41-8.69-14.74l.93-.37c2.03,5.05,4.78,9.77,8.17,14.03l.53.04-.13,2.04h0Z" style="fill: #fff;"/>
    <path d="M55.57,155.23l-1.61-1.98c-3.65-4.49-6.6-9.5-8.77-14.87l-.19-.46,1.86-.75.19.46c1.99,4.94,4.67,9.56,7.96,13.73l.8.05-.25,3.81h0ZM54.51,152.33c.08.09.15.19.23.28h0l.02-.27-.25-.02h0ZM49.78,145.48h0ZM47.28,140.69c.76,1.63,1.59,3.22,2.5,4.77-.91-1.55-1.74-3.14-2.5-4.77ZM47.28,140.68h0s0,.01,0,0ZM47.27,140.67h0Z" style="fill: #fff;"/>
  </g>
  <g>
    <path d="M52.77,146.23c-1.2-1.22-1.72-3.08-1.31-4.74l.97.24c-.33,1.33.09,2.83,1.05,3.8l-.71.7Z" style="fill: #fff;"/>
    <path d="M52.77,146.94l-.35-.36c-1.32-1.34-1.89-3.39-1.44-5.21l.12-.49,1.94.47-.12.49c-.29,1.17.08,2.48.92,3.33l.35.36-1.42,1.41ZM51.86,142.1c-.15,1.2.2,2.45.94,3.41h0c-.74-.95-1.09-2.21-.94-3.41h0Z" style="fill: #fff;"/>
  </g>
  <g>
    <path d="M14.83,13.58c-1.42,0-2.91-.46-4.28-.98l-.36-.14c-.66-.26-1.28-.5-1.91-.52l.04-1c.8.03,1.53.32,2.24.59l.35.13c2.1.8,4.47,1.45,6.16.28.26-.18.87-.87.72-1.37-.07-.23-.63-.66-1-.94-.4-.3-.77-.59-.99-.88-.44-.6-.99-1.15-1.26-1.23-1.82-.58-4.4-1.24-6.42-1.15l-.05-1c2.18-.11,4.88.59,6.77,1.2.76.24,1.61,1.38,1.77,1.6.12.17.47.44.78.67.58.44,1.19.9,1.36,1.44.37,1.17-.78,2.26-1.1,2.48-.85.59-1.81.82-2.8.82h-.02Z" style="fill: #fff;"/>
    <path d="M14.83,14.08c-1.58,0-3.21-.54-4.46-1.02l-.36-.14c-.62-.24-1.2-.47-1.75-.49l-.5-.02.08-2,.5.02c.89.04,1.69.35,2.4.62l.35.13c1.97.75,4.19,1.38,5.7.33.25-.17.57-.67.53-.81-.08-.12-.62-.53-.83-.69-.43-.33-.83-.63-1.09-.99-.43-.6-.88-1-1.01-1.05-1.44-.46-4.16-1.23-6.24-1.13l-.5.02-.1-1.99.5-.03c1.79-.1,4.13.32,6.95,1.22.89.29,1.77,1.44,2.02,1.79.08.11.47.41.68.56.65.49,1.32,1,1.53,1.69.45,1.44-.82,2.71-1.3,3.04-.87.6-1.91.91-3.09.91v.03ZM14.2,13.05c1.06.1,2.03-.05,2.82-.49-.85.47-1.82.59-2.82.49ZM10.06,11.87c.1.04.21.08.31.12l.36.14c.43.16.91.33,1.41.49-.48-.14-.95-.31-1.42-.49l-.35-.14c-.1-.04-.21-.08-.31-.12ZM8.8,11.49s.05,0,.07.01c-.02,0-.05,0-.07-.01h0ZM18.27,10.45c.09.33.01.67-.14.97.15-.3.24-.64.14-.97ZM17.15,9.29c.27.21.48.38.65.53-.2-.18-.43-.36-.65-.53ZM16.42,8.7c.15.14.34.29.54.44-.22-.17-.4-.31-.54-.44ZM15.69,7.84c.18.19.33.39.46.55-.14-.18-.29-.37-.46-.55ZM8.59,5.86c2.02.02,4.4.64,6.1,1.18.02,0,.04.01.06.02-.02,0-.04-.02-.06-.02-2.41-.77-4.5-1.17-6.09-1.18h0Z" style="fill: #fff;"/>
  </g>
  <g>
    <path d="M15.51,13.45c-.58-.36-1.02-.91-1.36-1.36-.3-.39-.64-.82-.84-1.36-.24-.66-.18-1.34.15-1.84.39-.59,1.17-.91,2-.81.67.08,1.25.39,1.77.66l-.47.88c-.46-.24-.94-.49-1.42-.55-.37-.05-.83.05-1.04.37-.15.23-.17.59-.04.95.14.39.42.75.69,1.09.31.4.67.85,1.1,1.12l-.53.85h-.01Z" style="fill: #fff;"/>
    <path d="M15.67,14.14l-.43-.26c-.66-.41-1.14-1.03-1.49-1.47-.31-.39-.69-.89-.92-1.5-.29-.8-.22-1.66.2-2.29.5-.75,1.47-1.16,2.47-1.03.76.09,1.42.43,1.94.71l.44.23-.93,1.77-.44-.23c-.42-.22-.85-.45-1.25-.5-.24-.03-.5.04-.57.15-.04.06-.08.26.01.5.12.32.37.64.61.95.29.37.61.79.97,1.01l.42.26-1.05,1.7h.02ZM13.69,10.25c.02.1.05.2.08.3.12.34.32.65.54.93-.21-.28-.41-.59-.54-.93-.04-.1-.06-.2-.08-.3ZM14.02,8.97c-.06.06-.11.12-.15.19-.06.09-.11.2-.14.31.03-.11.08-.21.14-.31.04-.07.1-.13.15-.19ZM15.62,8.61c.32.07.63.2.92.34h0c-.29-.14-.6-.27-.92-.34ZM15.15,8.55c-.37,0-.71.1-.98.29.29-.2.62-.28.99-.29h-.02.01ZM15.39,8.57h.04-.05.01Z" style="fill: #fff;"/>
  </g>
  <g>
    <path d="M11.99,25.68c-.05-.57-.21-1.12-.38-1.71-.18-.62-.36-1.25-.41-1.93l1-.08c.05.57.21,1.14.38,1.73.17.61.35,1.24.41,1.9l-1,.09h0Z" style="fill: #fff;"/>
    <path d="M11.54,26.22l-.04-.5c-.04-.52-.2-1.05-.36-1.61-.18-.64-.37-1.3-.43-2.03l-.04-.5,1.99-.16.04.5c.04.52.2,1.06.36,1.63.18.64.37,1.29.43,2l.04.5-1.99.17h0ZM11.99,23.45s0,.03.01.04c0-.01,0-.03-.01-.04Z" style="fill: #fff;"/>
  </g>
  <g>
    <path d="M11.61,38.93c-.09-.41-.16-.95-.23-1.51-.09-.72-.18-1.46-.32-1.93l.96-.28c.16.55.26,1.33.35,2.09.07.53.13,1.05.21,1.43l-.98.21h.01Z" style="fill: #fff;"/>
    <path d="M11.22,39.52l-.11-.49c-.09-.43-.16-.97-.23-1.54-.09-.71-.18-1.43-.31-1.87l-.14-.48,1.92-.56.14.48c.17.59.27,1.39.37,2.16.07.54.13,1.02.21,1.39l.11.49-1.95.42h-.01ZM11.78,36.65c.03.23.06.47.09.7.04.35.09.68.13.98h0c-.05-.29-.09-.62-.13-.95-.03-.25-.06-.49-.09-.73Z" style="fill: #fff;"/>
  </g>
  <g>
    <path d="M13.41,39.5l-.7-2.27c-.14-.44-.31-.98-.2-1.56l.98.18c-.06.33.06.71.17,1.08l.7,2.27-.96.29h0Z" style="fill: #fff;"/>
    <path d="M13.08,40.12l-.85-2.74c-.14-.47-.34-1.1-.22-1.79l.09-.49,1.97.36-.09.49c-.04.21.06.53.16.84l.85,2.75-1.91.59h0ZM12.99,36.27c.03.28.12.56.2.81l.19.61-.19-.61c-.08-.25-.16-.53-.2-.81h0Z" style="fill: #fff;"/>
  </g>
</svg>