<?xml version="1.0" encoding="UTF-8"?>
<svg id="Layer_1" xmlns="http://www.w3.org/2000/svg" viewBox="0 0 438.96 536.72">
  <g>
    <path d="M68.37,359.09c-.57-2.33-1.28-5.22-.45-7.89l.05-.16c.07-.21.13-.41.15-.59,0-.17-.03-.33-.11-.4-.09-.08-.28-.1-.48-.05-.17.04-.33.11-.49.18-.13.05-.26.11-.39.15-1.05.36-2.25.17-3.14-.5-.13-.1-.23-.18-.27-.19-.05.03-.15.19-.29.48-.61,1.29-1.82,2.38-3.33,2.98-1.22.49-2.64.68-4.33.62l.04-1c1.55.07,2.83-.12,3.92-.55,1.28-.51,2.3-1.41,2.8-2.47.18-.38.54-1.08,1.25-1.06.34.02.58.21.76.34.67.51,1.54.65,2.27.4.11-.04.22-.08.33-.13.21-.09.42-.17.64-.23.54-.13,1.04-.03,1.38.28.31.28.47.73.43,1.22-.02.3-.11.58-.19.82l-.05.14c-.74,2.4-.07,5.15.47,7.36l-.97.24h0Z" style="fill: #fff;"/>
    <path d="M68,359.69l-.12-.49.49-.12-.49.12c-.58-2.39-1.31-5.36-.45-8.15l.05-.16c.05-.14.09-.28.11-.4-.12.03-.23.08-.34.13-.17.07-.31.13-.46.18-1.14.39-2.42.22-3.42-.45-.66,1.39-1.97,2.56-3.59,3.21-1.27.5-2.76.71-4.53.66l-.5-.02.08-2,.5.02c1.46.06,2.68-.11,3.71-.52,1.16-.46,2.08-1.27,2.53-2.22.16-.34.65-1.35,1.72-1.34.5.02.84.29,1.05.45.53.4,1.22.52,1.81.32.1-.03.2-.08.29-.12.24-.1.47-.19.72-.25.7-.17,1.37-.02,1.84.4.43.39.65.98.6,1.63-.03.36-.13.68-.21.94l-.05.14c-.7,2.27-.05,4.94.48,7.08l.12.49-1.94.48h0ZM68.11,352.64c-.25,1.99.19,4.06.62,5.84h0c-.43-1.78-.88-3.85-.62-5.84ZM60.54,352.06c-.35.22-.72.42-1.12.58-.11.04-.23.09-.35.13.12-.04.23-.08.35-.13.4-.16.77-.35,1.12-.58ZM68.5,351c-.02.07-.04.13-.06.19l-.02.06.02-.06c.02-.06.04-.13.06-.19ZM62.51,349.85l-.03.06c-.12.26-.28.52-.45.76.18-.24.33-.5.46-.76,0-.02.02-.04.03-.06h-.01ZM68.61,350.32v.24-.24ZM63.76,349.39s.02.02.03.02c.72.54,1.66.72,2.52.49-.85.23-1.81.04-2.55-.51h0ZM67.08,349.61c-.08.03-.16.06-.24.1-.03.01-.05.02-.08.03.03-.01.05-.02.08-.03.08-.04.16-.07.24-.1ZM67.73,349.47c.24,0,.46.07.61.21.02.02.04.04.06.06-.02-.02-.04-.04-.06-.06-.21-.19-.53-.25-.89-.18.1-.02.2-.03.29-.03h0ZM63.55,349.24c.05.03.1.07.17.12-.05-.04-.11-.08-.17-.12ZM63.32,349.15h0s.03.01.05.02c-.02,0-.04-.01-.06-.02Z" style="fill: #fff;"/>
  </g>
  <g>
    <path d="M59.29,360.56c-.53,0-1.06-.08-1.65-.38-.64-.34-1.31-.68-1.9-1.16-.7-.55-1.19-1.22-1.43-1.91-.24-.72-.22-1.48-.17-2.12.06-.71.23-1.71,1.07-2.17l.48.88c-.31.17-.49.62-.55,1.37-.05.57-.06,1.18.12,1.72.17.51.56,1.02,1.1,1.45.52.42,1.14.74,1.74,1.05.62.32,1.15.29,1.88.24.21-.01.43-.03.66-.04,1.1-.03,2.05-.31,2.77-.79,0,0-.07.09-.07.22l1-.02c0,.25-.12.46-.37.63-.88.6-1.99.92-3.3.96-.22,0-.42.02-.62.03-.25.02-.51.04-.76.04h0Z" style="fill: #fff;"/>
    <path d="M59.29,361.06c-.72,0-1.3-.14-1.88-.44-.67-.35-1.35-.71-1.98-1.21-.77-.62-1.32-1.36-1.59-2.14-.27-.8-.25-1.62-.19-2.32.04-.48.15-1.93,1.33-2.57l.44-.24.96,1.75-.44.24s-.23.15-.29.97c-.04.52-.06,1.07.1,1.52.14.42.47.84.94,1.22.48.39,1.08.7,1.66,1,.49.25.9.23,1.59.18.24-.02.46-.03.7-.04,1-.03,1.87-.28,2.5-.71l2.32-1.58-1.21,1.69h.59v.49c0,.42-.19.79-.58,1.06-.96.65-2.16,1.01-3.56,1.05-.21,0-.41.02-.6.03-.28.02-.53.04-.79.04h-.02ZM57.78,359.68s.06.03.1.05c.44.23.87.33,1.42.33.2,0,.4-.01.6-.03-.71.04-1.32.06-2.02-.3-.03-.02-.07-.03-.1-.05ZM63.15,359.42c-.71.34-1.56.54-2.49.57h-.22.22c.96-.03,1.79-.22,2.5-.57h0ZM55.15,357.68c.23.34.53.66.9.95.2.16.4.3.61.43-.21-.13-.42-.28-.61-.43-.37-.29-.67-.61-.9-.95ZM55.15,357.68h0ZM55.07,353.59c-.3.41-.39.99-.42,1.43,0,.1-.02.21-.02.32,0-.11,0-.21.02-.32.04-.45.12-1.03.42-1.43h0Z" style="fill: #fff;"/>
  </g>
  <g>
    <path d="M59.36,357.01h-.14c-.72,0-1.61,0-2.37-.46-.83-.49-1.38-1.43-1.64-2.81l.98-.19c.21,1.08.6,1.8,1.17,2.13.53.31,1.24.32,1.87.32.52,0,.99-.01,1.31-.23l.56.83c-.55.37-1.21.4-1.73.4h0Z" style="fill: #fff;"/>
    <path d="M59.36,357.51h-.08c-.8,0-1.81-.01-2.69-.53-.96-.56-1.59-1.62-1.88-3.14l-.09-.49,1.96-.38.09.49c.18.92.5,1.54.93,1.8.41.24,1.05.25,1.62.25.43,0,.83,0,1.03-.14l.41-.28,1.12,1.66-.41.28c-.63.43-1.34.49-2.01.49h0ZM59.21,356.51h.02l.14.5v-.5c.32,0,.67-.01.99-.1h0c-.34.09-.72.1-1.13.1h-.02ZM55.81,354.14c.26.96.69,1.63,1.29,1.98.52.31,1.13.37,1.7.38-.56-.02-1.19-.08-1.7-.38-.6-.35-1.04-1.02-1.29-1.98h0Z" style="fill: #fff;"/>
  </g>
  <g>
    <path d="M48.68,389.63l-.08-1c3.25-.25,6.46-.94,9.52-2.06l.79-.3c.91-.34,1.85-.7,2.83-.93.26-.06.53-.11.8-.17,1.29-.26,2.62-.53,3.21-1.51.48-.8.33-1.87.13-2.98l-3.24-17.6c-.19-1.01-.38-2.06-.37-3.13h1c0,.99.17,1.99.35,2.95l3.24,17.6c.18.99.46,2.49-.26,3.68-.81,1.36-2.44,1.69-3.87,1.98-.26.05-.52.11-.77.16-.91.21-1.82.56-2.7.89l-.8.3c-3.15,1.15-6.45,1.87-9.79,2.12h0Z" style="fill: #fff;"/>
    <path d="M48.22,390.17l-.15-2,.5-.04c3.21-.24,6.37-.93,9.39-2.03l.78-.29c.94-.36,1.89-.72,2.89-.95.26-.06.54-.12.81-.17,1.19-.24,2.41-.49,2.88-1.28.39-.65.25-1.62.07-2.64l-3.24-17.6c-.19-1.04-.39-2.11-.38-3.23v-.5l2.01.02v.5c-.02.93.16,1.9.34,2.84l3.24,17.6c.2,1.07.49,2.68-.32,4.03-.93,1.55-2.74,1.91-4.19,2.21-.26.05-.51.1-.76.16-.88.2-1.77.54-2.63.87l-.8.3c-3.2,1.17-6.54,1.89-9.93,2.15l-.5.04h0ZM49.14,389.09h0c3.13-.28,6.21-.97,9.16-2.05l.79-.3c.26-.1.52-.2.78-.29-.26.09-.51.19-.76.28l-.81.3c-2.96,1.08-6.03,1.77-9.16,2.05h0ZM66.2,383.89l-.02.04c-.7,1.17-2.21,1.47-3.53,1.74-.27.05-.53.11-.79.17-.25.06-.49.12-.73.2.24-.07.49-.14.73-.2.25-.06.52-.11.78-.17,1.4-.28,2.84-.58,3.54-1.75,0-.01,0-.02.02-.04h0ZM62.78,360.46c.04.86.2,1.71.35,2.54l3.24,17.6c.08.43.15.85.18,1.26-.03-.46-.12-.9-.18-1.26l-3.24-17.6c-.15-.83-.31-1.68-.35-2.54h0Z" style="fill: #fff;"/>
  </g>
  <g>
    <path d="M64.6,361.78c-.66-.01-1.37-.16-1.98-.47l.45-.89c.47.24,1,.36,1.52.36.3.01.61-.05.83-.16l.45.89c-.35.18-.78.27-1.27.27h0Z" style="fill: #fff;"/>
    <path d="M64.6,362.28h0c-.78-.02-1.56-.2-2.19-.52l-.45-.22.89-1.79.45.22c.42.21.89.31,1.36.31.23,0,.43-.05.54-.11l.45-.22.89,1.79-.45.22c-.42.21-.92.32-1.49.32h.01Z" style="fill: #fff;"/>
  </g>
  <g>
    <path d="M64.71,365.34c-.56,0-1.13-.13-1.62-.39l.46-.89c.45.23.97.32,1.47.26l.12.99c-.14.02-.28.03-.42.03h-.01Z" style="fill: #fff;"/>
    <path d="M64.71,365.84c-.64,0-1.28-.15-1.85-.44l-.45-.23.91-1.78.45.23c.36.18.78.26,1.18.21l.5-.06.24,1.99-.5.06c-.16.02-.32.03-.48.03h0Z" style="fill: #fff;"/>
  </g>
  <g>
    <path d="M43.35,389.92c-1.21,0-2.4-.08-3.59-.28-.86-.14-1.93-.41-2.56-1.25-.3-.4-.45-.87-.57-1.25-1.44-4.5-2.28-8.03-2.91-12.16l.99-.15c.62,4.08,1.46,7.56,2.88,12.01.1.32.22.68.42.95.42.56,1.25.76,1.92.87,2.8.47,5.63.23,8.78-.09l.1.99c-1.91.2-3.7.36-5.46.36Z" style="fill: #fff;"/>
    <path d="M43.35,390.42c-1.32,0-2.52-.09-3.67-.28-.95-.16-2.14-.46-2.88-1.45-.35-.47-.52-1-.65-1.39-1.44-4.53-2.29-8.07-2.93-12.23l-.08-.49,1.98-.3.08.49c.62,4.05,1.45,7.51,2.86,11.93.09.28.19.6.34.8.31.42,1.07.58,1.61.67,2.74.46,5.53.23,8.64-.1l.5-.05.21,1.99-.5.05c-1.77.19-3.66.37-5.51.37h0ZM41.96,389.38c1.88.11,4.02-.04,5.99-.24-2.1.21-4.06.35-5.99.24ZM36.3,384.34c.25.85.52,1.73.81,2.65.11.34.24.76.49,1.1.36.47.91.74,1.47.89-.56-.16-1.11-.42-1.47-.89-.25-.33-.39-.76-.5-1.1-.29-.92-.56-1.8-.81-2.65h.01Z" style="fill: #fff;"/>
  </g>
  <g>
    <path d="M39.55,382.65c-.43,0-.88-.08-1.28-.34-.56-.37-.83-.98-1.04-1.52-.66-1.7-1.11-3.48-1.34-5.29l.99-.13c.22,1.73.65,3.43,1.28,5.06.15.4.34.84.66,1.05.42.28,1.06.18,1.68.06,2.93-.58,4.71-.86,6.43-1.12,1.71-.26,3.48-.54,6.4-1.12.24-.05,1.12-.21,2.19-.4,1.83-.33,4.34-.78,4.74-.88.94-.22,2-.78,2.11-1.36.37-1.93-.13-3.45-.7-5.21-.25-.78-.52-1.59-.72-2.48-.08-.35-.18-.8-.29-1.31-.49-2.22-1.3-5.95-1.9-7.37l.92-.39c.63,1.51,1.43,5.14,1.95,7.55.11.51.21.96.29,1.3.19.85.45,1.63.7,2.39.59,1.82,1.15,3.53.73,5.71-.29,1.5-2.6,2.08-2.86,2.15-.42.1-2.85.54-4.79.89-1.06.19-1.94.35-2.18.4-2.94.59-4.72.86-6.44,1.13-1.71.26-3.48.54-6.39,1.12-.31.06-.71.14-1.15.14v-.03Z" style="fill: #fff;"/>
    <path d="M39.55,383.15c-.61,0-1.13-.14-1.56-.43-.65-.43-.98-1.1-1.23-1.76-.67-1.74-1.14-3.56-1.37-5.41l-.06-.5,1.98-.25.06.5c.22,1.69.64,3.35,1.25,4.94.08.22.26.67.47.81.28.19.95.05,1.3-.02,2.91-.58,4.69-.86,6.4-1.12,1.76-.27,3.53-.54,6.43-1.12.24-.05,1.13-.21,2.2-.4,1.72-.31,4.33-.78,4.71-.87.98-.23,1.69-.74,1.74-.97.35-1.8-.11-3.2-.69-4.97-.26-.79-.52-1.6-.73-2.53-.07-.31-.16-.72-.26-1.17l-.03-.14c-.48-2.21-1.29-5.9-1.87-7.29l-.19-.46,1.84-.77.19.46c.65,1.55,1.45,5.21,1.98,7.63.12.55.21.98.29,1.3.19.83.44,1.6.68,2.34.62,1.89,1.19,3.66.75,5.97-.34,1.76-2.76,2.42-3.24,2.54-.41.1-2.43.46-4.82.89-1.06.19-1.93.35-2.17.39-2.94.59-4.72.86-6.45,1.13-1.72.27-3.48.54-6.38,1.11-.33.07-.77.15-1.24.15l.02.02ZM40.36,382.06c-.18.03-.36.06-.54.08.19-.01.38-.04.54-.08ZM37.2,379.2c.15.47.31.94.49,1.4.19.49.41.99.85,1.28.04.03.09.05.13.08-.05-.02-.09-.05-.13-.08-.44-.29-.67-.81-.85-1.28-.18-.46-.34-.93-.49-1.4ZM43.52,381.46c-.49.09-1.02.18-1.6.29.58-.11,1.1-.21,1.6-.29ZM59.7,378.63c-.88.17-2.43.45-4.09.75-.52.09-1,.18-1.38.25.38-.07.86-.16,1.38-.25,1.37-.25,3.12-.56,4.09-.75ZM62.93,376.35c-.02.13-.04.26-.06.39-.07.36-.32.67-.64.92.32-.25.57-.55.64-.92.03-.13.05-.26.06-.39ZM36.45,375.92c.08.5.17,1,.28,1.5-.11-.5-.2-1-.28-1.5h0ZM61.59,369.44c.17.64.37,1.24.56,1.83.04.13.08.25.12.38-.04-.12-.08-.25-.12-.38-.19-.59-.39-1.19-.56-1.83ZM59.4,360.53c.47,1.35,1.02,3.7,1.45,5.63-.44-2-.98-4.3-1.45-5.63h0Z" style="fill: #fff;"/>
  </g>
  <g>
    <path d="M53.2,386.18c-1.07,0-2.13-.43-2.87-1.21-.14-.15-.32-.36-.4-.64-.1-.33-.03-.65.02-.88h0l.05-.25c.16-.82.31-1.6,1.65-1.83,1.05-.18,2.13-.1,3.14.24.24.08.98.34,1.27,1,.11.26.13.52.13.75,0,.38,0,.82-.17,1.24-.26.63-.86,1.14-1.66,1.4-.38.12-.77.18-1.16.18h0ZM50.93,383.65h0c-.03.14-.06.31-.04.4.02.07.1.17.16.23.74.78,1.98,1.09,3,.77.51-.17.89-.46,1.04-.82.1-.25.11-.55.1-.84,0-.14,0-.29-.05-.39-.07-.17-.3-.32-.67-.45-.85-.29-1.76-.36-2.64-.21-.66.12-.69.28-.84,1.04l-.05.26h-.01Z" style="fill: #fff;"/>
    <path d="M53.2,386.68c-1.23,0-2.41-.5-3.23-1.36-.17-.17-.4-.45-.52-.84-.13-.45-.05-.88,0-1.13l.05-.25c.17-.86.38-1.94,2.06-2.23,1.13-.2,2.3-.11,3.39.26.3.1,1.2.41,1.57,1.28.14.32.16.64.17.93,0,.43,0,.94-.21,1.44-.31.77-1.03,1.39-1.97,1.69-.42.13-.86.2-1.32.2h.01ZM50.81,384.73c.83.79,2.15,1.13,3.25.83-1.12.29-2.42-.04-3.25-.83ZM51.39,383.9s.02.02.03.03c.61.64,1.64.91,2.49.63.36-.12.64-.32.72-.53.06-.16.07-.41.06-.63,0-.11,0-.18-.02-.21,0,0-.09-.07-.37-.17-.76-.26-1.59-.32-2.4-.18-.24.04-.29.08-.3.08-.04.05-.09.33-.14.57l-.05.27s-.02.1-.03.15h0ZM50.43,384.23c.05.14.15.26.24.37-.1-.1-.19-.22-.24-.37ZM50.39,383.87c0,.1,0,.2.02.3-.03-.1-.03-.2-.02-.3ZM55.61,382.82c.07.17.08.37.08.55v.18-.18c0-.18-.02-.37-.08-.55ZM50.85,382.27c-.19.23-.26.53-.34.92.08-.4.16-.7.34-.92ZM54.65,382.08c.25.09.45.19.6.3-.22-.17-.48-.26-.6-.3ZM52.75,381.76c.62,0,1.24.1,1.83.29-.85-.28-1.76-.36-2.64-.23.27-.04.54-.06.82-.06h-.01Z" style="fill: #fff;"/>
  </g>
  <g>
    <path d="M63.57,405.98c-1.1-7.03,1.23-14.63,6.06-19.84l.44-.46c.57-.6,1.1-1.16,1.51-1.81.48-.77.96-1.65.65-2.38-3.27-7.58-4.81-15.94-4.47-24.19l1,.04c-.34,8.1,1.18,16.31,4.39,23.75.55,1.27-.28,2.59-.72,3.31-.46.74-1.06,1.37-1.64,1.97l-.43.45c-4.63,4.99-6.86,12.28-5.81,19.01l-.99.15h.01Z" style="fill: #fff;"/>
    <path d="M63.15,406.56l-.08-.49c-1.12-7.17,1.25-14.94,6.19-20.26l.44-.47c.55-.58,1.07-1.12,1.45-1.73.44-.71.82-1.44.62-1.92-3.3-7.65-4.86-16.09-4.51-24.41l.02-.5,2,.08-.02.5c-.34,8.02,1.17,16.16,4.35,23.53.65,1.51-.3,3.03-.75,3.77-.49.79-1.1,1.43-1.7,2.05l-.43.45c-4.53,4.88-6.7,12-5.68,18.59l.08.49-1.98.31h0ZM69.85,386.64c-4.52,4.97-6.74,12.1-5.86,18.77h0c-.88-6.67,1.34-13.8,5.86-18.77ZM72.78,382.45c-.12.57-.44,1.13-.76,1.65.26-.42.63-1.02.76-1.65ZM68.36,363.54c.29,4.05,1.04,8.07,2.21,11.96-1.17-3.89-1.92-7.91-2.21-11.96Z" style="fill: #fff;"/>
  </g>
  <g>
    <path d="M41.71,376.23c-5.34,0-10.65-1.23-15.45-3.58-.58-.28-1.19-.67-1.34-1.37-.12-.56.13-1.08.3-1.43l2.62-5.36c.16-.33.38-.78.8-1.07.57-.39,1.41-.37,2.08.06h0c.76.48,1.15,1.21,1.52,1.91.23.43.45.84.74,1.16.93,1.02,2.65,1.48,4.03,1.84l.23.06c2.49.66,5.04,1.23,7.58,1.68.9.16,2.25.4,2.91,1.47.77,1.23.1,2.89-1,3.67-1.03.73-2.32.88-3.55.93-.49.02-.98.03-1.47.03h0ZM29.58,364.14c-.13,0-.27.03-.38.11-.2.14-.34.43-.47.68l-2.62,5.36c-.15.3-.27.57-.22.78.06.28.44.5.8.68,5.09,2.5,10.77,3.69,16.43,3.45,1.25-.05,2.25-.2,3.02-.75.72-.5,1.19-1.58.73-2.32-.4-.64-1.29-.84-2.24-1.01-2.57-.46-5.15-1.03-7.66-1.7l-.22-.06c-1.51-.4-3.39-.9-4.51-2.14-.38-.42-.64-.9-.88-1.36-.33-.61-.63-1.19-1.18-1.53h0c-.17-.11-.39-.18-.6-.18h0Z" style="fill: #fff;"/>
    <path d="M41.7,376.73c-5.4,0-10.82-1.26-15.66-3.63-.65-.32-1.41-.8-1.61-1.71-.16-.73.15-1.37.34-1.75l2.62-5.36c.18-.36.44-.9.97-1.26.74-.5,1.8-.48,2.63.05.87.55,1.31,1.37,1.69,2.09.22.4.42.78.67,1.06.83.91,2.46,1.35,3.78,1.7l.23.06c2.48.66,5.01,1.22,7.54,1.67.93.16,2.47.44,3.25,1.69.92,1.47.15,3.43-1.14,4.34-1.14.8-2.51.96-3.82,1.02-.5.02-1,.03-1.49.03h0ZM40.48,375.71c.41.01.83.02,1.23.02h0c.48,0,.97,0,1.45-.03.3-.01.6-.03.9-.06-.29.03-.58.05-.9.06-.89.04-1.79.04-2.68,0h0ZM46.49,374.83s-.03.02-.05.04c-.02.01-.04.03-.05.04.02-.01.04-.02.05-.04.02-.01.03-.02.05-.04ZM26.39,370.98s.1.11.53.32c5.01,2.46,10.61,3.64,16.19,3.4,1.16-.05,2.08-.18,2.75-.65.52-.37.89-1.17.59-1.65-.29-.46-1.1-.64-1.9-.78-2.58-.46-5.18-1.04-7.7-1.71l-.23-.06c-1.57-.42-3.52-.93-4.75-2.29-.42-.46-.7-.99-.95-1.46-.31-.58-.57-1.07-1-1.35-.14-.09-.37-.13-.43-.09-.09.06-.22.33-.3.49l-2.62,5.36c-.05.09-.18.38-.18.47h0ZM26.29,372.1c.06.03.13.07.2.1.59.29,1.2.57,1.81.82-.61-.26-1.21-.53-1.81-.82-.07-.03-.13-.07-.2-.1ZM25.43,371.23c.05.18.15.34.31.49-.15-.14-.26-.3-.31-.49ZM44.86,370.65c.51.09,1.01.2,1.44.39-.47-.21-.99-.31-1.44-.39ZM28.32,364.65s-.02.04-.03.06l-2.62,5.37c-.06.13-.14.28-.19.45.05-.15.12-.29.19-.45l2.62-5.36s.02-.04.03-.06h0ZM37.01,368.91l.1.03c1.86.5,3.76.94,5.67,1.32-1.91-.38-3.81-.83-5.67-1.32l-.1-.03ZM33.14,367.37c.84.64,1.97,1.02,3.01,1.31-1.04-.29-2.17-.67-3.01-1.31ZM30.49,363.93c.48.32.8.77,1.07,1.25-.28-.49-.59-.93-1.07-1.25ZM28.97,363.8s-.03.02-.05.03c-.07.04-.13.1-.18.16.06-.06.12-.11.18-.16.02-.01.03-.02.05-.03ZM29.85,363.67c.18.03.37.1.54.2-.17-.1-.35-.17-.54-.2Z" style="fill: #fff;"/>
  </g>
  <g>
    <path d="M48.93,400.28c-2.27-.38-5.31-1.09-6.86-2.29l.61-.79c1.09.84,3.37,1.58,6.42,2.09l-.17.99h0Z" style="fill: #fff;"/>
    <path d="M49.34,400.86l-.49-.08c-2.33-.39-5.45-1.12-7.09-2.38l-.4-.3,1.22-1.59.4.3c1.01.78,3.27,1.5,6.2,2l.49.08-.33,1.97h0ZM42.78,397.88c1.44.89,3.79,1.47,5.74,1.82h0c-2.56-.46-4.55-1.1-5.74-1.82h0Z" style="fill: #fff;"/>
  </g>
  <g>
    <path d="M42.35,398.1c-.47-.02-.95-.04-5.43-9.81-.16-.35-.27-.59-.31-.67-.7-1.45-1.5-2.87-2.36-4.22-.58-.92-1.21-1.81-1.83-2.7-.87-1.25-1.76-2.56-2.66-3.88-.89-1.3-1.77-2.6-2.63-3.83l.82-.57c.86,1.23,1.74,2.53,2.63,3.83.9,1.31,1.79,2.63,2.66,3.87.63.91,1.26,1.81,1.85,2.74.89,1.39,1.7,2.85,2.42,4.32.04.09.16.33.32.7,3.47,7.57,4.46,9.06,4.74,9.28,0,0-.06-.05-.17-.05l-.04,1h-.01Z" style="fill: #fff;"/>
    <path d="M42.83,398.62l-.5-.02c-.78-.03-1.26-.05-5.86-10.1-.18-.38-.27-.59-.31-.66-.69-1.43-1.48-2.83-2.34-4.17-.58-.91-1.2-1.8-1.81-2.69-.84-1.21-1.71-2.49-2.58-3.76l-.08-.12c-.88-1.3-1.77-2.59-2.62-3.82l-.29-.41,1.64-1.14.29.41c.8,1.15,1.62,2.36,2.45,3.57l.18.27c.92,1.34,1.8,2.64,2.65,3.87.64.92,1.26,1.82,1.86,2.75.9,1.41,1.72,2.88,2.45,4.38.04.09.16.34.33.71,3.69,8.04,4.47,8.99,4.59,9.09l-.26.35h.28l-.06,1.51v-.02ZM42.38,397.42l-.1.13s.07.04.09.04v-.17h.01ZM36.62,386.52c.15.29.3.58.44.88.04.08.13.29.28.6.15.32.29.63.43.94-.13-.27-.26-.56-.39-.85-.16-.36-.28-.6-.32-.69-.14-.29-.29-.58-.44-.87h0ZM34.04,382.17c.21.32.42.64.63.96.3.46.58.93.86,1.41-.28-.48-.56-.95-.86-1.41-.21-.32-.41-.64-.63-.96ZM30.12,376.45s.03.05.05.08l.08.12c.8,1.17,1.6,2.34,2.38,3.46-.8-1.15-1.61-2.34-2.42-3.54l-.08-.12h-.01ZM27.83,373.11c.25.36.49.72.74,1.08-.25-.36-.5-.72-.74-1.08Z" style="fill: #fff;"/>
  </g>
  <g>
    <path d="M48.06,409.91l-.99-.14c.31-3.76-1.3-8.35-3.93-11.16l.73-.68c2.74,2.94,4.45,7.7,4.21,11.67h.04l-.06.32h0Z" style="fill: #fff;"/>
    <path d="M48.45,410.48l-1.92-.28.04-.47c.3-3.63-1.26-8.06-3.79-10.78l-.34-.37,1.46-1.37.34.37c2.75,2.95,4.48,7.56,4.36,11.61h.07l-.22,1.28h0ZM43.84,398.64s.06.06.08.1c-.03-.03-.05-.07-.08-.1h0Z" style="fill: #fff;"/>
  </g>
  <g>
    <path d="M50.59,394.91c-.21,0-.42,0-.63-.01-.48-.02-.99-.04-1.5-.12-1.14-.16-2.22-.52-3.27-.88l.32-.95c1.01.34,2.05.69,3.09.83.47.06.95.09,1.4.11,1.09.04,2.31.03,3.16-.62l.61.79c-.9.68-2.03.83-3.17.83v.02Z" style="fill: #fff;"/>
    <path d="M50.59,395.41c-.22,0-.44,0-.65-.01-.49-.02-1.02-.05-1.55-.12-1.19-.16-2.3-.54-3.37-.9l-.47-.16.64-1.89.47.16c.98.33,2,.67,3,.81.46.06.94.09,1.35.1,1,.04,2.13.03,2.84-.51l.4-.3,1.21,1.59-.4.3c-1.09.83-2.43.94-3.48.94h0ZM49.07,394.34c.3.03.61.04.9.05h.31-.31c-.27-.01-.58-.02-.9-.05ZM45.86,393.61c.57.19,1.14.37,1.73.5-.59-.14-1.16-.32-1.73-.5Z" style="fill: #fff;"/>
  </g>
  <g>
    <path d="M45.82,366.43h-.36c-.91-.04-1.82-.2-2.69-.34-.35-.06-.71-.12-1.07-.17-1.04-.15-2.12-.25-3.16-.34-.95-.08-1.93-.17-2.89-.3-2.51-.34-4.4-.94-5.96-1.88-.78-.47-1.56-1.09-2.47-1.94-2.27-2.13-4-4.51-5.14-7.08l-.17-.39.36-.23c.84-.54,1.64-1.17,2.38-1.86.61-.57,1.21-1.22,1.92-2.06l.11-.13.17-.03c.87-.17,1.71.23,2.45.59.16.08.32.16.48.23.21.09.39.18.56.26.44.21.72.36,1.24.42l-.11.99c-.69-.08-1.1-.28-1.57-.51-.16-.08-.32-.16-.52-.25-.17-.07-.34-.16-.51-.24-.57-.27-1.16-.57-1.67-.53-.68.79-1.27,1.43-1.87,1.99-.67.63-1.4,1.21-2.16,1.73,1.08,2.29,2.68,4.43,4.74,6.37.86.8,1.59,1.38,2.31,1.82,1.43.87,3.2,1.42,5.57,1.75.94.13,1.91.21,2.84.3,1.05.09,2.14.19,3.21.35.36.05.72.11,1.09.17.84.14,1.72.29,2.57.33.39.02.8.02,1.15-.11.9-.32,1.3-1.49,1.11-2.37-.25-1.21-1.3-2.06-1.9-2.45-.67-.44-1.41-.76-2.19-1.11-.32-.14-.64-.28-.95-.43-.71-.33-1.4-.71-2.07-1.08-.64-.35-1.28-.7-1.94-1.01-3.35-1.6-7.07-2.18-9.94-2.5l.11-.99c2.95.33,6.78.93,10.26,2.59.67.32,1.33.68,1.98,1.04.66.36,1.34.73,2.02,1.05.31.15.62.28.93.42.78.34,1.59.7,2.33,1.19,1.26.83,2.09,1.92,2.33,3.08.28,1.32-.3,3-1.75,3.52-.39.14-.8.18-1.18.18l.02-.04Z" style="fill: #fff;"/>
    <path d="M45.82,366.93c-.13,0-.26,0-.39-.01-.93-.04-1.84-.2-2.72-.34l-.14-.02c-.31-.05-.63-.11-.94-.15-1.04-.15-2.15-.25-3.13-.34-.9-.08-1.92-.17-2.92-.31-2.58-.35-4.53-.97-6.15-1.95-.81-.49-1.62-1.13-2.56-2.01-2.32-2.18-4.09-4.62-5.26-7.24l-.35-.78.72-.46c.81-.53,1.59-1.13,2.31-1.8.59-.56,1.19-1.2,1.88-2.01l.23-.27.34-.07c1.04-.2,2,.26,2.77.63.16.08.31.15.47.22.22.1.4.19.58.27.42.21.65.32,1.08.37l.5.06-.22,1.99-.5-.06c-.78-.09-1.24-.32-1.74-.56-.16-.08-.32-.16-.5-.24-.17-.08-.35-.16-.53-.25-.46-.22-.89-.43-1.22-.47-.63.73-1.19,1.32-1.75,1.85-.59.55-1.21,1.06-1.86,1.53,1.05,2.09,2.54,4.06,4.44,5.84.83.78,1.54,1.34,2.22,1.75,1.37.83,3.08,1.37,5.38,1.68.93.13,1.89.21,2.82.29,1.07.09,2.16.19,3.24.35.33.05.65.1.98.16l.11.02c.83.14,1.68.28,2.51.33.32.02.68.02.96-.08.64-.23.94-1.13.8-1.8-.22-1.04-1.15-1.78-1.69-2.13-.64-.42-1.36-.73-2.12-1.07-.34-.15-.66-.29-.97-.44-.7-.33-1.38-.7-2.04-1.06-.69-.38-1.32-.72-1.97-1.03-3.28-1.57-6.95-2.14-9.78-2.46l-.5-.06.23-1.99.5.06c2.99.34,6.87.95,10.42,2.64.68.33,1.35.69,2.01,1.05.67.37,1.33.73,1.99,1.04.28.13.56.26.84.38.88.39,1.71.75,2.49,1.26,1.37.9,2.28,2.11,2.55,3.4.32,1.53-.37,3.48-2.07,4.09-.39.14-.82.21-1.35.21h0ZM48.29,362.96c.17,1.07-.32,2.41-1.46,2.82-.11.04-.22.07-.33.09.12-.02.22-.05.33-.09,1.15-.42,1.63-1.73,1.46-2.82ZM42.33,365.5c.14.02.27.04.41.07l.12.02c.09.01.17.03.26.04-.09-.01-.17-.03-.26-.04l-.11-.02c-.14-.02-.28-.05-.41-.07h0ZM38.02,365.01c.2.02.39.04.58.05h.01c-.2-.02-.39-.04-.59-.05ZM29.62,362.73c.11.08.23.15.34.22.72.44,1.53.8,2.44,1.09-.91-.29-1.71-.66-2.44-1.09-.11-.07-.23-.14-.34-.22ZM46.12,360.05s.02.01.03.02c.36.24.87.62,1.31,1.15-.35-.42-.79-.81-1.31-1.15,0,0-.02-.01-.03-.02ZM43.98,358.97c.13.05.25.11.37.17-.12-.06-.25-.11-.37-.17ZM42.37,358.22c.19.1.38.19.57.28.31.14.62.28.92.42h0c-.36-.16-.65-.29-.93-.42-.19-.09-.38-.18-.57-.28h0ZM22.7,354.49c.65,1.39,1.48,2.72,2.49,3.99-.99-1.25-1.81-2.57-2.46-3.94l-.03-.06h0ZM38.61,356.25c.11.05.22.1.33.15.29.14.58.28.86.43-.29-.15-.57-.29-.86-.43-.11-.05-.22-.1-.33-.15ZM22.55,354.15h0l.3-.21c-.1.07-.2.13-.3.2h0ZM29.33,353.91c.47.06.95.12,1.45.19-.5-.07-.99-.14-1.45-.19h0ZM26.95,350.14h0c-.5.6-.96,1.1-1.4,1.55.4-.41.82-.87,1.28-1.41l.13-.15h0ZM30.72,351.45c.1.04.2.07.31.1h0c-.11-.03-.21-.06-.31-.1ZM30.02,351.13s.06.03.09.05c.15.08.29.15.44.21-.14-.06-.27-.13-.42-.2-.04-.02-.07-.04-.11-.05h0ZM28.95,350.62s.05.02.08.04c.23.11.4.19.56.26.04.02.07.03.1.05-.03-.02-.07-.03-.11-.05-.16-.07-.33-.15-.5-.23-.05-.02-.09-.04-.14-.07h.01ZM27.2,350.11s-.09,0-.13.01h.1s.02,0,.04-.01h-.01Z" style="fill: #fff;"/>
  </g>
  <g>
    <path d="M31.85,354.51l-.91-3.09c-.17-.57-.35-1.21-.27-1.88l.99.12c-.05.47.1.99.24,1.49l.91,3.09-.96.28h0Z" style="fill: #fff;"/>
    <path d="M31.51,355.13l-1.05-3.57c-.17-.58-.38-1.31-.29-2.08l.06-.5,1.99.23-.06.5c-.04.37.09.84.22,1.29l1.05,3.57-1.92.56h0ZM31.16,350.1c.03.4.15.8.26,1.18l.77,2.61-.77-2.61c-.11-.37-.23-.77-.26-1.18h0Z" style="fill: #fff;"/>
  </g>
  <g>
    <path d="M60.61,351.73c-.2-1.16-1.24-4.99-2.34-9.05-1.37-5.03-2.78-10.23-2.97-11.72-.02-.18-.06-.44-.16-.54-.11-.11-.41-.11-.52-.12-.87-.03-1.78.1-2.59.22-3.96.56-7.99,1.17-11.96,1.82-4.04.66-7.64,1.35-10.87,2.99-.08.04-.23.12-.26.17-.03.04-.04.14-.04.29,0,.69.23,1.4.44,2.08l1.17,3.74-.95.3-1.17-3.74c-.22-.72-.48-1.53-.48-2.37,0-.24.02-.56.2-.84.17-.26.41-.4.65-.52,3.36-1.71,7.04-2.41,11.16-3.08,3.98-.65,8.01-1.27,11.98-1.82.84-.12,1.8-.25,2.76-.23.39.01.84.07,1.18.39.36.34.43.84.47,1.14.18,1.42,1.65,6.82,2.95,11.58,1.11,4.08,2.16,7.94,2.36,9.14l-.99.17h-.02Z" style="fill: #fff;"/>
    <path d="M60.21,352.31l-.08-.49c-.19-1.12-1.22-4.92-2.31-8.93-1.39-5.12-2.81-10.34-3-11.86,0-.05-.02-.14-.03-.21-.04,0-.09,0-.17-.01-.82-.02-1.71.1-2.48.21-3.97.56-7.99,1.17-11.97,1.82-4,.66-7.56,1.33-10.73,2.94,0,0-.02.01-.03.02,0,.61.21,1.28.41,1.92l1.32,4.22-1.91.6-1.32-4.21c-.24-.75-.5-1.6-.51-2.51,0-.29.02-.72.29-1.12.26-.39.64-.58.84-.69,3.42-1.74,7.14-2.45,11.31-3.13,3.98-.65,8.01-1.27,11.99-1.83.95-.13,1.88-.26,2.84-.23.46.01,1.05.09,1.52.53.49.47.57,1.1.62,1.44.18,1.38,1.64,6.77,2.93,11.52,1.12,4.11,2.16,7.97,2.37,9.19l.08.49-1.97.34v-.02ZM59.47,345.18c.7,2.59,1.29,4.82,1.54,5.98h0c-.25-1.17-.85-3.4-1.54-5.98ZM55.72,330.51c.03.12.05.25.07.39.15,1.13,1.04,4.55,2.07,8.39-1.01-3.76-1.93-7.26-2.07-8.39,0-.11-.03-.25-.07-.39ZM28.42,335.44c-.03.12-.03.24-.03.35v.09-.09c0-.14,0-.25.03-.35ZM29.4,335.67h0ZM28.69,335.04c-.06.04-.11.09-.15.15.04-.06.09-.1.15-.15ZM49.81,330.33c-1.75.25-3.5.52-5.25.79,1.75-.27,3.51-.54,5.25-.79ZM52.28,329.98c-.08.01-.16.02-.24.03.08-.01.16-.02.24-.03ZM54.57,329.8h.06c.27,0,.57.04.79.2-.21-.16-.5-.19-.79-.2h-.06Z" style="fill: #fff;"/>
  </g>
  <g>
    <path d="M41.31,352.64c-5.52,0-10.34-1.97-13.58-3.77l-.44-.24.25-.44c.37-.65.39-1.48.38-2.35h0c0-.86-.03-1.72-.06-2.59v-.24c-.05-.57-.11-1.44.43-1.91.88-.76,2.39.22,3.61,1.01.32.21.62.4.78.47.56.25,1.15.43,1.77.62l.28.09c2.44.74,4.82,1.7,7.13,2.62.53.21,1.07.43,1.57.75,1.24.79,2.08,2.12,2.26,3.58.1.8-.1,1.45-.56,1.83-.36.3-.8.37-1.19.42-.9.11-1.78.15-2.65.15h.02ZM28.63,348.22c3.63,1.94,9.1,3.99,15.22,3.27.26-.03.52-.07.67-.19.26-.21.23-.73.2-.94-.14-1.14-.83-2.24-1.8-2.86-.42-.27-.9-.46-1.41-.66-2.29-.92-4.66-1.87-7.05-2.59l-.28-.08c-.63-.19-1.28-.38-1.9-.67-.23-.11-.53-.3-.91-.54-1.39-.9-2.21-1.27-2.41-1.09-.17.15-.13.78-.1,1.09l.02.27c.03.87.05,1.74.06,2.62h0c0,.83-.02,1.64-.3,2.39v-.02Z" style="fill: #fff;"/>
    <path d="M41.31,353.14c-5.71,0-10.67-2.08-13.82-3.83l-.88-.49.49-.88c.31-.54.33-1.3.32-2.1,0-.86-.03-1.71-.06-2.57v-.22c-.06-.63-.13-1.68.61-2.32,1.16-1.01,2.84.08,4.2.96.3.2.58.38.73.45.53.24,1.1.41,1.71.59l.29.09c2.46.75,4.86,1.71,7.17,2.64.52.21,1.11.44,1.66.79,1.36.87,2.29,2.34,2.48,3.94.12.98-.14,1.79-.73,2.28-.44.37-.96.47-1.45.53-.88.1-1.8.16-2.71.16v-.02ZM44.35,351.91c-.15.04-.3.06-.45.08-.34.04-.68.07-1.02.1.34-.02.68-.06,1.02-.1.15-.02.3-.04.45-.08ZM29.23,347.97c3.48,1.81,8.72,3.71,14.56,3.02.23-.03.37-.05.42-.08,0-.02.05-.2.02-.49-.12-1-.72-1.95-1.57-2.49-.39-.25-.84-.43-1.32-.62-2.3-.92-4.65-1.86-7.01-2.58l-.28-.08c-.65-.19-1.31-.39-1.96-.69-.27-.12-.58-.32-.97-.58-.99-.64-1.51-.89-1.77-.99,0,.12,0,.29.02.53l.02.28c.03.89.05,1.76.06,2.64,0,.7,0,1.43-.19,2.14h-.03ZM43.26,347.13c1.06.7,1.8,1.91,1.96,3.17,0,.07.02.15.02.23,0-.07,0-.15-.02-.23-.16-1.28-.88-2.46-1.96-3.17ZM27.98,348.44h0s.02.01.03.02l.15-.41c.25-.67.27-1.43.27-2.21s-.02-1.56-.05-2.34c.03.79.04,1.57.05,2.34,0,.94-.02,1.84-.45,2.6h0ZM34.04,343.6c.09.03.18.05.27.08l.29.09c1.68.51,3.33,1.12,4.96,1.76-1.62-.64-3.28-1.25-4.96-1.76l-.28-.09c-.09-.03-.19-.06-.28-.08ZM28.33,342.4c0,.21,0,.41.02.59v.13-.13c-.02-.22-.02-.41-.02-.58h0ZM29.8,341.5c.43.18,1.02.51,1.83,1.04.35.22.62.4.82.5-.19-.09-.45-.26-.82-.5-.57-.37-1.24-.8-1.83-1.04ZM29.36,342.15h0Z" style="fill: #fff;"/>
  </g>
  <g>
    <path d="M42.87,352.55c-.9-.28-1.96-1.08-2.82-1.72l-.45-.33c-.25-.18-.44-.32-.6-.52-.37-.49-.36-1.1-.36-1.51,0-.3,0-.71.24-1.07.2-.32.52-.51.75-.62.81-.4,2.34-.58,3.29-.39l-.2.98c-.73-.15-2.04,0-2.65.3-.11.06-.27.14-.34.25-.08.12-.08.36-.08.56,0,.36,0,.7.15.89.07.09.19.17.31.26l.55.41c.75.56,1.78,1.34,2.51,1.56l-.29.96h-.01Z" style="fill: #fff;"/>
    <path d="M43.2,353.18l-.48-.15c-.98-.3-2.09-1.13-2.97-1.8l-.45-.33c-.27-.19-.5-.36-.7-.62-.48-.62-.47-1.38-.46-1.83,0-.34.01-.85.31-1.33.27-.43.67-.66.95-.8.9-.45,2.56-.64,3.61-.43l.49.1-.4,1.96-.49-.1c-.61-.13-1.81,0-2.32.26-.12.06-.16.09-.16.1.02,0,.01.18.01.27,0,.33.01.53.05.59.02.03.13.1.2.16l.56.41c.69.52,1.72,1.29,2.36,1.49l.48.15-.59,1.91h0ZM40.86,350.82c.55.4,1.14.81,1.68,1.07h0c-.54-.26-1.15-.68-1.68-1.07ZM39.74,349.98s.06.04.09.06l-.02-.02-.06-.05h-.01ZM39.15,348.13c-.01.12-.01.23-.02.34,0,.2,0,.44.04.68-.04-.21-.04-.44-.04-.68,0-.11,0-.23.02-.34ZM40.08,347.12c-.09.03-.17.07-.24.1-.06.03-.14.07-.21.12.07-.05.14-.08.21-.12s.15-.07.24-.1Z" style="fill: #fff;"/>
  </g>
  <g>
    <path d="M44.28,366.28l-.5-.26c-.85-.44-1.91-.99-2.55-1.45-.3-.22-.62-.46-.85-.81-.45-.68-.42-1.51-.35-2.23.02-.17.04-.41.16-.64.16-.31.45-.48.63-.6.6-.37,1.45-.87,2.35-.85.34.01.82.1,1.32.19.69.12,1.54.28,1.93.21l.18.98c-.57.1-1.44-.06-2.28-.21-.47-.08-.91-.16-1.18-.17-.59-.04-1.15.3-1.79.7-.1.06-.24.15-.28.22-.03.05-.04.17-.04.25-.05.58-.08,1.18.19,1.59.14.21.36.38.6.55.58.42,1.64.97,2.42,1.37l.5.26-.47.88v.02Z" style="fill: #fff;"/>
    <path d="M44.49,366.95l-.94-.49c-.86-.45-1.94-1-2.61-1.49-.34-.25-.7-.52-.98-.94-.59-.88-.49-1.97-.43-2.56.02-.19.04-.5.21-.83.23-.43.6-.65.81-.79.79-.49,1.65-.93,2.63-.92.39.02.88.1,1.4.2.54.1,1.45.26,1.75.21l.49-.09.35,1.97-.49.09c-.65.12-1.56-.05-2.45-.21-.46-.08-.89-.16-1.12-.17-.46-.02-.97.29-1.51.62-.03.02-.06.03-.08.05v.04c-.04.47-.07,1,.11,1.27.09.14.29.28.48.42.55.39,1.59.94,2.36,1.33l.95.5-.93,1.77v.02ZM41.14,363.86c.12.11.26.21.39.31.53.38,1.4.85,2.14,1.23-.74-.39-1.62-.86-2.14-1.23-.14-.1-.27-.2-.39-.31ZM41.15,360.68s-.04.03-.06.04c-.16.1-.36.22-.46.41-.07.14-.09.3-.1.45v.08-.08c.02-.17.03-.31.1-.44.09-.17.26-.29.45-.41.02-.01.05-.03.07-.04h0ZM43.15,359.94h.14-.14Z" style="fill: #fff;"/>
  </g>
  <g>
    <path d="M44.01,376.14c-.52-.03-1.77-.63-2.08-.84-.72-.5-1.49-1.14-1.74-2.09-.16-.58-.08-1.17,0-1.62.03-.17.1-.5.34-.74.16-.17.36-.25.53-.3.8-.26,2.35-.59,3.31-.49l-.1.99c-.71-.07-2.06.17-2.89.44-.1.03-.13.05-.14.06s-.03.07-.06.22c-.06.34-.13.78-.02,1.17.17.64.78,1.14,1.35,1.53.27.19,1.32.65,1.57.66l-.06,1h-.01Z" style="fill: #fff;"/>
    <path d="M44.48,376.67l-.5-.03c-.66-.04-2.01-.71-2.33-.93-.79-.55-1.64-1.26-1.94-2.38-.18-.68-.1-1.34,0-1.84.04-.21.12-.65.47-1,.24-.24.51-.35.72-.43.79-.26,2.43-.63,3.52-.51l.5.05-.21,1.98-.49-.05c-.56-.06-1.72.12-2.56.38-.05.26-.09.62-.02.89.13.49.65.91,1.15,1.25.22.15,1.12.54,1.33.58l.45.07v.46l-.09,1.5h0ZM40.61,372.66c0,.14.03.28.07.42.16.59.56,1.04,1.03,1.42-.46-.38-.87-.84-1.03-1.43-.04-.14-.06-.28-.07-.42h0ZM40.75,371.44c-.03.09-.05.17-.06.24-.01.07-.03.14-.04.22.01-.08.02-.15.04-.22.02-.1.04-.17.06-.24ZM41.2,371.03c-.11.04-.22.09-.31.17,0,0-.02.02-.02.03.1-.1.19-.15.33-.2ZM43.82,370.54c-.42.01-.91.08-1.36.17.47-.09.95-.15,1.36-.17h0Z" style="fill: #fff;"/>
  </g>
  <g>
    <path d="M58.14,353.27c-.91-5.68-2.12-11.29-3.71-17.17l-.1-.38c-.22-.87-.44-1.69-.95-1.89-.36-.14-2.03.13-2.66.23-.26.04-.48.08-.62.09-4.71.57-9.09,1.34-13.81,2.43l-.22-.97c4.75-1.1,9.17-1.88,13.91-2.45.14-.02.34-.05.59-.09,1.41-.23,2.62-.39,3.18-.17.99.39,1.28,1.5,1.55,2.57l.1.37c1.6,5.91,2.82,11.56,3.73,17.27l-.99.16h0Z" style="fill: #fff;"/>
    <path d="M57.72,353.84l-.08-.49c-.91-5.66-2.12-11.26-3.7-17.12l-.1-.39c-.16-.61-.37-1.44-.65-1.55-.06-.01-.48-.05-2.39.26-.27.04-.49.08-.64.1-4.69.57-9.06,1.34-13.76,2.42l-.49.11-.45-1.95.49-.11c4.77-1.1,9.21-1.88,13.97-2.46.12-.01.29-.04.5-.08,1.6-.26,2.83-.42,3.52-.15,1.23.49,1.56,1.77,1.85,2.91l.1.37c1.6,5.93,2.83,11.59,3.74,17.32l.08.49-1.97.32h-.02ZM54.81,335.59l.1.38c1.31,4.85,2.37,9.52,3.21,14.2-.84-4.68-1.9-9.35-3.21-14.21l-.1-.38h0ZM36.66,335.98h0c.93-.21,1.85-.41,2.76-.6-.91.19-1.83.39-2.76.6ZM54.65,334.98c.06.2.11.4.16.6h0c-.05-.2-.11-.41-.16-.6ZM39.42,335.38h0ZM50.49,333.58s-.08.01-.12.02c.04,0,.08-.01.12-.02ZM52.42,333.32c-.5.04-1.07.13-1.54.2.66-.1,1.16-.17,1.54-.2Z" style="fill: #fff;"/>
  </g>
  <g>
    <path d="M31.68,343.02c-.14-.39-.21-.66-.29-.95-.08-.31-.17-.64-.36-1.19l.94-.33c.2.58.3.93.39,1.26.07.27.14.52.26.88l-.94.33Z" style="fill: #fff;"/>
    <path d="M31.37,343.66l-.17-.47c-.14-.4-.22-.69-.3-.99-.08-.31-.17-.63-.35-1.15l-.17-.47,1.89-.66.17.47c.21.59.31.96.4,1.3.07.27.13.5.25.84l.17.47-1.89.66ZM31.89,342c.03.13.07.25.1.38h0c-.04-.13-.07-.25-.11-.38h.01Z" style="fill: #fff;"/>
  </g>
  <g>
    <path d="M40.27,334.5h-.26c-.43,0-.86-.02-1.28-.04l-.3-.02-.16-.29c-.18-.37.14-.83.14-.83.15-.19.33-.28.46-.35l.15-.08c.18-.1.38-.21.61-.27.59-.15,1.22,0,1.73.12l.13.03c.46.11.61.37.65.57.06.29-.08.58-.36.78-.48.33-1.05.37-1.52.37h.01Z" style="fill: #fff;"/>
    <path d="M40.27,335h-.27c-.43-.01-.87-.02-1.3-.05l-.57-.03-.3-.54c-.23-.48-.06-1.01.17-1.35.23-.3.49-.44.65-.51l.15-.08c.19-.1.42-.23.72-.31.71-.18,1.43,0,1.96.12l.14.03c.55.13.92.48,1.02.96.1.49-.12.99-.57,1.3-.6.41-1.28.46-1.8.46h0ZM38.73,333.95h.02c.42.03.84.04,1.27.04h.25c.4,0,.87-.03,1.24-.28.05-.04.18-.14.16-.27,0-.03-.03-.13-.28-.19l-.14-.03c-.48-.12-1.02-.25-1.49-.12-.17.04-.34.13-.49.22l-.16.08c-.12.06-.23.12-.3.21-.06.09-.11.26-.09.31v.02h.01Z" style="fill: #fff;"/>
  </g>
  <g>
    <path d="M34.8,411.13l-.02-1c10.96-.25,22-1.29,32.82-3.11l.17.99c-10.86,1.82-21.95,2.87-32.96,3.12h-.01Z" style="fill: #fff;"/>
    <path d="M34.31,411.64l-.04-2h.5c10.94-.26,21.96-1.3,32.74-3.12l.49-.08.33,1.97-.49.08c-10.88,1.83-22,2.88-33.03,3.13h-.5v.02ZM35.29,410.62h0c10.65-.27,21.38-1.28,31.89-3.02h0c-10.51,1.74-21.24,2.76-31.89,3.02Z" style="fill: #fff;"/>
  </g>
  <g>
    <path d="M68.63,424.73c-13.96,0-28.03-.48-41.92-1.43l.07-1c15.5,1.06,31.25,1.54,46.8,1.41l.3-.79.94.35-.54,1.43h-.34c-1.76.02-3.53.03-5.29.03h-.02Z" style="fill: #fff;"/>
    <path d="M68.63,425.23c-13.96,0-28.08-.48-41.96-1.43l-.5-.03.14-2,.5.03c15.37,1.05,30.98,1.52,46.42,1.41l.35-.94,1.87.7-.84,2.22h-.69c-1.76.02-3.53.03-5.3.03h0ZM27.24,422.84c15.38,1.04,31.04,1.51,46.48,1.38h-.14c-15.4.13-30.99-.34-46.34-1.38h0ZM73.94,424.14l-.03.07.03-.07Z" style="fill: #fff;"/>
  </g>
  <g>
    <path d="M71.61,426.31l-.64-1.82c-1.87-5.26-3.8-10.7-4.15-16.43l1-.06c.33,5.44,2.15,10.69,3.95,15.76l.26.05-.42,2.5Z" style="fill: #fff;"/>
    <path d="M71.78,428.29l-1.29-3.63c-1.88-5.3-3.82-10.77-4.17-16.57l-.03-.5,2-.12.03.5c.33,5.4,2.17,10.68,3.83,15.35l.46.08-.82,4.89h-.01ZM71.08,423.32c.12.33.24.67.35,1h0l.02-.1h-.06l-.1-.29c-.07-.2-.14-.4-.22-.61h0ZM67.41,409.15c.11,1.12.28,2.23.49,3.33-.21-1.1-.38-2.21-.49-3.33Z" style="fill: #fff;"/>
  </g>
  <g>
    <path d="M37.25,423.32c-.68-3.59-1.59-7.18-2.71-10.66-.22-.67-.43-1.33-.4-2.05l1,.04c-.02.54.15,1.09.34,1.67,1.14,3.55,2.06,7.18,2.75,10.81l-.98.19h0Z" style="fill: #fff;"/>
    <path d="M36.85,423.9l-.09-.49c-.68-3.57-1.58-7.14-2.69-10.6-.22-.7-.46-1.42-.42-2.23l.02-.5,2,.09-.02.5c-.02.45.14.96.32,1.5,1.14,3.57,2.07,7.22,2.76,10.88l.09.49-1.96.37h-.01ZM34.67,411.13c.03.22.07.44.13.65-.06-.22-.1-.43-.13-.65h0Z" style="fill: #fff;"/>
  </g>
  <g>
    <path d="M45.83,419.63c-.46,0-.86-.22-1.15-.38-.47-.25-1.11-.6-1.41-1.26-.38-.86-.22-3.03.89-3.63.49-.26,1.08-.29,1.66-.08.73.27,1.37.88,1.64,1.55.22.55.27,1.2.16,1.87-.08.49-.23.88-.46,1.2-.31.43-.79.7-1.27.72h-.06ZM45.04,415.15c-.13,0-.28.03-.41.1-.47.25-.7,1.77-.45,2.34h0c.15.33.53.55.97.79.28.15.49.28.7.25.17,0,.37-.12.5-.31.13-.18.23-.43.28-.77.08-.5.04-.97-.11-1.35-.16-.41-.59-.81-1.05-.98-.12-.04-.27-.08-.43-.08h0Z" style="fill: #fff;"/>
    <path d="M45.83,420.13c-.59,0-1.07-.26-1.39-.43-.51-.27-1.26-.68-1.63-1.5-.45-1.01-.3-3.51,1.11-4.27.61-.33,1.35-.37,2.07-.11.86.31,1.62,1.04,1.93,1.84.25.63.31,1.37.19,2.13-.09.57-.27,1.03-.55,1.41-.4.55-1.02.9-1.65.92h-.08ZM45.83,419.14v.5l.02-.5h-.02ZM46.78,418.58s-.02.02-.03.04c-.05.07-.11.14-.17.2.06-.06.12-.12.18-.2,0-.01.02-.02.02-.03h0ZM43.96,418.15c.25.29.6.48.91.65-.38-.21-.69-.4-.91-.65ZM45.04,415.65c-.07,0-.12.01-.17.04-.2.18-.4,1.31-.23,1.69.09.2.49.42.75.56.19.1.35.19.41.2.04,0,.09-.03.15-.11.09-.12.15-.3.19-.55.07-.41.04-.79-.08-1.09-.11-.28-.43-.57-.76-.69-.09-.03-.18-.05-.26-.05h0ZM43.7,417.73s.02.04.02.06c0,.03.03.06.04.09,0-.03-.03-.06-.04-.08,0-.02-.02-.04-.02-.06h0ZM47.13,416.53c.06.34.06.71,0,1.1,0,.03,0,.06-.02.09,0-.03,0-.06.02-.09.06-.39.06-.76,0-1.1ZM44.51,414.75s-.08.04-.12.06c-.58.31-.82,1.3-.81,2.09,0-.82.28-1.81.81-2.09.04-.02.08-.04.12-.06ZM45.47,414.71c.06.02.11.03.17.05.38.14.73.4,1,.71-.26-.31-.62-.57-1-.71-.06-.02-.11-.04-.17-.05Z" style="fill: #fff;"/>
  </g>
  <g>
    <path d="M47.91,414.8l-.39-.92c1.29-.55,2.65-.88,4.04-.98l.07,1c-1.29.09-2.54.39-3.72.9h0Z" style="fill: #fff;"/>
    <path d="M47.64,415.45l-.79-1.84.46-.2c1.34-.57,2.75-.91,4.2-1.02l.5-.04.14,2-.5.04c-1.23.09-2.43.38-3.56.86l-.46.2h0ZM48.17,414.15h0l.05-.02-.05.02ZM51.09,413.44c-.25.03-.5.06-.74.11.25-.04.5-.08.74-.11h0Z" style="fill: #fff;"/>
  </g>
  <g>
    <path d="M54.56,419.55c-.29-.13-.64-.17-.99-.22-1.31-.15-2.65-.21-3.98-.16l-.03-1c1.38-.05,2.77,0,4.13.17.42.05.86.11,1.27.29l-.4.92h0Z" style="fill: #fff;"/>
    <path d="M54.82,420.21l-.46-.2c-.23-.1-.54-.14-.85-.18-1.3-.15-2.61-.21-3.91-.16l-.5.02-.07-2,.5-.02c1.39-.05,2.8,0,4.2.17.45.05.94.12,1.42.33l.46.2-.79,1.84h0ZM50.49,418.66c1.04,0,2.09.06,3.13.18.16.02.32.04.48.07-.16-.03-.32-.05-.48-.07-1.18-.14-2.38-.19-3.55-.18h.42Z" style="fill: #fff;"/>
  </g>
  <g>
    <path d="M51,536.09c-11.29-36.19-22.97-73.61-25.02-112.25l1-.05c2.04,38.51,13.7,75.87,24.97,112l-.96.3h.01Z" style="fill: #fff;"/>
    <path d="M50.67,536.72l-.15-.48c-11.3-36.22-22.99-73.67-25.04-112.37l-.03-.5,2-.11.03.5c2.04,38.44,13.69,75.78,24.95,111.88l.15.48-1.91.6h0ZM26.51,424.32c2.11,38.22,13.63,75.29,24.82,111.15h0c-11.19-35.86-22.71-72.92-24.82-111.15h0Z" style="fill: #fff;"/>
  </g>
  <g>
    <path d="M84.45,519.48c-1.22-4.62-2.23-9.36-3-14.08-.61-3.68-1.08-7.42-1.55-11.04-2.93-22.95-5.97-46.68-6.56-70.23l1-.03c.59,23.5,3.62,47.21,6.55,70.13.46,3.61.94,7.34,1.54,11,.77,4.69,1.78,9.39,2.98,13.99l-.97.25h.01Z" style="fill: #fff;"/>
    <path d="M84.09,520.09l-.13-.48c-1.22-4.64-2.23-9.39-3.01-14.12-.61-3.67-1.08-7.4-1.54-11.01-2.94-23.01-5.98-46.75-6.57-70.33v-.5l1.99-.05v.5c.6,23.48,3.63,47.17,6.56,70.08.46,3.6.94,7.33,1.54,10.98.77,4.67,1.77,9.36,2.97,13.94l.13.48-1.93.51h-.01ZM82.7,509.56c.34,1.73.7,3.47,1.1,5.19-.4-1.72-.76-3.45-1.1-5.19ZM80.99,498.94h0ZM77.05,467.04c1.03,9.17,2.19,18.28,3.34,27.26.2,1.53.39,3.07.6,4.61-.21-1.55-.41-3.09-.6-4.61-1.15-8.99-2.31-18.1-3.34-27.26ZM75.99,457v.03-.03ZM73.85,424.62c.28,10.78,1.08,21.61,2.14,32.37-1.06-10.76-1.85-21.59-2.14-32.37h0Z" style="fill: #fff;"/>
  </g>
  <g>
    <path d="M49.43,497.36l-.97-.23c.59-2.52,1.73-4.93,3.3-6.99l.8.61c-1.48,1.95-2.56,4.23-3.12,6.61h-.01Z" style="fill: #fff;"/>
    <path d="M49.81,497.96l-1.95-.46.11-.49c.61-2.58,1.78-5.07,3.39-7.18l.3-.4,1.59,1.21-.3.4c-1.44,1.89-2.49,4.11-3.03,6.43l-.11.49ZM49.07,496.76h0c.02-.07.04-.14.06-.21-.02.07-.04.14-.06.21ZM51.86,490.84c-.25.35-.49.71-.72,1.08.23-.37.47-.73.72-1.08h0Z" style="fill: #fff;"/>
  </g>
  <g>
    <path d="M70.25,461.34c-2.63-1.82-4.64-4.5-5.66-7.53l.95-.32c.95,2.83,2.83,5.33,5.28,7.03l-.57.82h0Z" style="fill: #fff;"/>
    <path d="M70.38,462.03l-.41-.29c-2.72-1.88-4.79-4.65-5.85-7.79l-.16-.47,1.9-.64.16.47c.92,2.73,2.72,5.14,5.09,6.78l.41.29-1.14,1.64h0ZM65.23,454.11c.97,2.58,2.69,4.87,4.9,6.52h0c-2.21-1.65-3.93-3.94-4.9-6.52h0Z" style="fill: #fff;"/>
  </g>
  <g>
    <path d="M76.41,482.74l-.8-.99c-3.62-4.45-6.55-9.41-8.69-14.74l.93-.37c2.03,5.05,4.78,9.77,8.17,14.03l.53.04-.13,2.04h0Z" style="fill: #fff;"/>
    <path d="M76.83,484.05l-1.61-1.98c-3.65-4.49-6.6-9.5-8.77-14.87l-.19-.46,1.86-.75.19.46c1.99,4.94,4.67,9.56,7.96,13.73l.8.05-.25,3.81h0ZM75.77,481.15c.08.09.15.19.23.28h0l.02-.27-.25-.02h0ZM71.04,474.3h0ZM68.54,469.51c.76,1.63,1.59,3.22,2.5,4.77-.91-1.55-1.74-3.14-2.5-4.77ZM68.54,469.5h0s0,.01,0,0ZM68.53,469.49h0Z" style="fill: #fff;"/>
  </g>
  <g>
    <path d="M74.03,475.05c-1.2-1.22-1.72-3.08-1.31-4.74l.97.24c-.33,1.33.09,2.83,1.05,3.8l-.71.7Z" style="fill: #fff;"/>
    <path d="M74.03,475.76l-.35-.36c-1.32-1.34-1.89-3.39-1.44-5.21l.12-.49,1.94.47-.12.49c-.29,1.17.08,2.48.92,3.33l.35.36-1.42,1.41ZM73.12,470.92c-.15,1.2.2,2.45.94,3.41h0c-.74-.95-1.09-2.21-.94-3.41h0Z" style="fill: #fff;"/>
  </g>
  <g>
    <path d="M36.09,342.4c-1.42,0-2.91-.46-4.28-.98l-.36-.14c-.66-.26-1.28-.5-1.91-.52l.04-1c.8.03,1.53.32,2.24.59l.35.13c2.1.8,4.47,1.45,6.16.28.26-.18.87-.87.72-1.37-.07-.23-.63-.66-1-.94-.4-.3-.77-.59-.99-.88-.44-.6-.99-1.15-1.26-1.23-1.82-.58-4.4-1.24-6.42-1.15l-.05-1c2.18-.11,4.88.59,6.77,1.2.76.24,1.61,1.38,1.77,1.6.12.17.47.44.78.67.58.44,1.19.9,1.36,1.44.37,1.17-.78,2.26-1.1,2.48-.85.59-1.81.82-2.8.82h-.02Z" style="fill: #fff;"/>
    <path d="M36.09,342.9c-1.58,0-3.21-.54-4.46-1.02l-.36-.14c-.62-.24-1.2-.47-1.75-.49l-.5-.02.08-2,.5.02c.89.04,1.69.35,2.4.62l.35.13c1.97.75,4.19,1.38,5.7.33.25-.17.57-.67.53-.81-.08-.12-.62-.53-.83-.69-.43-.33-.83-.63-1.09-.99-.43-.6-.88-1-1.01-1.05-1.44-.46-4.16-1.23-6.24-1.13l-.5.02-.1-1.99.5-.03c1.79-.1,4.13.32,6.95,1.22.89.29,1.77,1.44,2.02,1.79.08.11.47.41.68.56.65.49,1.32,1,1.53,1.69.45,1.44-.82,2.71-1.3,3.04-.87.6-1.91.91-3.09.91v.03ZM35.46,341.87c1.06.1,2.03-.05,2.82-.49-.85.47-1.82.59-2.82.49ZM31.32,340.69c.1.04.21.08.31.12l.36.14c.43.16.91.33,1.41.49-.48-.14-.95-.31-1.42-.49l-.35-.14c-.1-.04-.21-.08-.31-.12ZM30.06,340.31s.05,0,.07.01c-.02,0-.05,0-.07-.01h0ZM39.53,339.27c.09.33.01.67-.14.97.15-.3.24-.64.14-.97ZM38.41,338.11c.27.21.48.38.65.53-.2-.18-.43-.36-.65-.53ZM37.68,337.52c.15.14.34.29.54.44-.22-.17-.4-.31-.54-.44ZM36.95,336.66c.18.19.33.39.46.55-.14-.18-.29-.37-.46-.55ZM29.85,334.68c2.02.02,4.4.64,6.1,1.18.02,0,.04.01.06.02-.02,0-.04-.02-.06-.02-2.41-.77-4.5-1.17-6.09-1.18h0Z" style="fill: #fff;"/>
  </g>
  <g>
    <path d="M36.77,342.27c-.58-.36-1.02-.91-1.36-1.36-.3-.39-.64-.82-.84-1.36-.24-.66-.18-1.34.15-1.84.39-.59,1.17-.91,2-.81.67.08,1.25.39,1.77.66l-.47.88c-.46-.24-.94-.49-1.42-.55-.37-.05-.83.05-1.04.37-.15.23-.17.59-.04.95.14.39.42.75.69,1.09.31.4.67.85,1.1,1.12l-.53.85h-.01Z" style="fill: #fff;"/>
    <path d="M36.93,342.96l-.43-.26c-.66-.41-1.14-1.03-1.49-1.47-.31-.39-.69-.89-.92-1.5-.29-.8-.22-1.66.2-2.29.5-.75,1.47-1.16,2.47-1.03.76.09,1.42.43,1.94.71l.44.23-.93,1.77-.44-.23c-.42-.22-.85-.45-1.25-.5-.24-.03-.5.04-.57.15-.04.06-.08.26.01.5.12.32.37.64.61.95.29.37.61.79.97,1.01l.42.26-1.05,1.7h.02ZM34.95,339.07c.02.1.05.2.08.3.12.34.32.65.54.93-.21-.28-.41-.59-.54-.93-.04-.1-.06-.2-.08-.3ZM35.28,337.79c-.06.06-.11.12-.15.19-.06.09-.11.2-.14.31.03-.11.08-.21.14-.31.04-.07.1-.13.15-.19ZM36.88,337.43c.32.07.63.2.92.34h0c-.29-.14-.6-.27-.92-.34ZM36.41,337.37c-.37,0-.71.1-.98.29.29-.2.62-.28.99-.29h-.02.01ZM36.65,337.39h.04-.05.01Z" style="fill: #fff;"/>
  </g>
  <g>
    <path d="M33.25,354.5c-.05-.57-.21-1.12-.38-1.71-.18-.62-.36-1.25-.41-1.93l1-.08c.05.57.21,1.14.38,1.73.17.61.35,1.24.41,1.9l-1,.09h0Z" style="fill: #fff;"/>
    <path d="M32.8,355.04l-.04-.5c-.04-.52-.2-1.05-.36-1.61-.18-.64-.37-1.3-.43-2.03l-.04-.5,1.99-.16.04.5c.04.52.2,1.06.36,1.63.18.64.37,1.29.43,2l.04.5-1.99.17h0ZM33.25,352.27s0,.03.01.04c0-.01,0-.03-.01-.04Z" style="fill: #fff;"/>
  </g>
  <g>
    <path d="M32.87,367.75c-.09-.41-.16-.95-.23-1.51-.09-.72-.18-1.46-.32-1.93l.96-.28c.16.55.26,1.33.35,2.09.07.53.13,1.05.21,1.43l-.98.21h.01Z" style="fill: #fff;"/>
    <path d="M32.48,368.34l-.11-.49c-.09-.43-.16-.97-.23-1.54-.09-.71-.18-1.43-.31-1.87l-.14-.48,1.92-.56.14.48c.17.59.27,1.39.37,2.16.07.54.13,1.02.21,1.39l.11.49-1.95.42h-.01ZM33.04,365.47c.03.23.06.47.09.7.04.35.09.68.13.98h0c-.05-.29-.09-.62-.13-.95-.03-.25-.06-.49-.09-.73Z" style="fill: #fff;"/>
  </g>
  <g>
    <path d="M34.67,368.32l-.7-2.27c-.14-.44-.31-.98-.2-1.56l.98.18c-.06.33.06.71.17,1.08l.7,2.27-.96.29h0Z" style="fill: #fff;"/>
    <path d="M34.34,368.94l-.85-2.74c-.14-.47-.34-1.1-.22-1.79l.09-.49,1.97.36-.09.49c-.04.21.06.53.16.84l.85,2.75-1.91.59h0ZM34.25,365.09c.03.28.12.56.2.81l.19.61-.19-.61c-.08-.25-.16-.53-.2-.81h0Z" style="fill: #fff;"/>
  </g>
  <g>
    <path d="M48.46,306.69c-1.31-1.66-2.61-3.23-3.92-4.69.37-.43.74-.87,1.1-1.31,1.2,1.6,2.4,3.31,3.61,5.1-.26.3-.53.61-.79.91ZM50.49,304.33c-1.31-1.68-2.61-3.27-3.92-4.76.37-.45.74-.9,1.1-1.35,1.2,1.64,2.4,3.36,3.61,5.18-.26.31-.53.63-.79.94Z" style="fill: #fff;"/>
    <path d="M57.12,292.16c-.46-.65-.92-1.28-1.38-1.9-1.17,1.52-2.35,3.03-3.52,4.52,1.13,1.49,2.25,3.05,3.38,4.68,1.21-1.51,2.43-3.04,3.64-4.58.3.44.6.89.9,1.34-1.21,1.54-2.43,3.06-3.64,4.56,1.27,1.88,2.55,3.84,3.82,5.87.52-.63,1.04-1.27,1.56-1.91.3.47.59.95.89,1.43-1.37,1.68-2.73,3.33-4.1,4.94-.3-.48-.59-.95-.89-1.42.44-.52.87-1.03,1.31-1.56-2.7-4.3-5.4-8.25-8.11-11.8-.44.55-.87,1.09-1.31,1.63-.3-.39-.59-.77-.89-1.14,2.34-2.92,4.68-5.95,7.02-9.02.76,1.01,1.51,2.05,2.27,3.12-.32.42-.64.83-.96,1.24Z" style="fill: #fff;"/>
    <path d="M65.38,285.18c1.24.13,2.5,1.16,3.69,3.01,1.18,1.86,1.8,3.78,1.82,5.6.03,1.65-.45,3.26-1.31,4.34-.85,1.09-2.01,1.56-3.14,1.33-1.27-.23-2.49-1.32-3.75-3.26-1.13-1.73-1.76-3.58-1.77-5.24-.03-1.56.45-3.11,1.31-4.23.85-1.11,1.98-1.69,3.14-1.55ZM63.93,294.68c1.87,2.89,3.54,3.67,4.8,2.06,1.25-1.58.93-4.14-.87-6.97-1.82-2.85-3.52-3.41-4.77-1.79-1.25,1.63-.93,3.97.85,6.71Z" style="fill: #fff;"/>
    <path d="M69.9,280.21c-.34-1.81-.15-3.06.61-4.05.58-.76,1.19-.96,2.07-.68.48.73.96,1.48,1.44,2.23-.31.39-.61.78-.92,1.18-.48-.65-.73-.95-.96-1.12-.38-.27-.78-.17-1.11.26-.5.66-.58,1.88-.17,2.99.3.83.76,1.62,1.96,3.53.76,1.21,1.52,2.44,2.28,3.68.43-.55.86-1.1,1.29-1.65.27.44.53.88.8,1.32-1.2,1.53-2.4,3.06-3.6,4.6-.27-.44-.53-.88-.8-1.31.37-.48.75-.96,1.12-1.44-1.8-2.94-3.6-5.78-5.39-8.5-.37.49-.75.97-1.12,1.46-.27-.4-.53-.8-.8-1.2.74-.97,1.48-1.94,2.22-2.91.36.53.71,1.07,1.07,1.61Z" style="fill: #fff;"/>
    <path d="M80.76,281.05c.38-.48.76-.95,1.14-1.42.27.44.53.88.8,1.33-1.16,1.44-2.31,2.9-3.47,4.37-.27-.44-.53-.88-.8-1.32.37-.47.75-.95,1.12-1.42-2.77-4.57-5.54-8.93-8.31-13.03-.37.49-.75.97-1.12,1.46-.27-.39-.53-.78-.8-1.17.78-1.02,1.56-2.04,2.33-3.05,3.04,4.46,6.07,9.24,9.11,14.25Z" style="fill: #fff;"/>
    <path d="M85.47,267.8c1.79,2.88,3.36,3.6,4.65,2.06,1.01-1.19,1.09-2.93.28-4.81.31-.35.61-.71.92-1.06,1.3,2.45,1.15,5.56-.35,7.32-1.21,1.44-2.6,1.61-4.17.49.53,2.24.25,4.21-.86,5.56-1.33,1.63-3.01,1.43-4.17-.46-.95-1.55-1.1-3.56-.43-5.49.41-1.18.79-1.83,2.09-3.71-.13-.21-.26-.41-.39-.62-.7-1.11-.86-1.33-1.18-1.52-.54-.38-1.19-.11-1.86.71-.85,1.06-1.13,1.95-.88,2.8.24.38.48.76.73,1.15-.29.37-.59.74-.88,1.1-.45-.71-.9-1.42-1.35-2.12.11-1.69.7-3.21,1.66-4.41,1.14-1.41,2.14-1.78,3.22-1.13-.13-1.75.22-3.08,1.12-4.16,1.77-2.12,4.3-1.32,6.33,2,.11.2.23.4.34.6-1.61,1.86-3.22,3.76-4.83,5.7ZM84.3,269.12c-1.96,2.47-2.45,4.57-1.47,6.17.67,1.09,1.68,1.22,2.42.31,1.1-1.35.92-3.43-.47-5.7-.16-.26-.32-.52-.47-.77ZM88.27,262.14c-1.44-2.12-2.74-2.56-3.81-1.28-1.03,1.23-.95,3.16.25,5.52,1.19-1.43,2.38-2.85,3.56-4.24Z" style="fill: #fff;"/>
    <path d="M91.14,254.3c-.4-1.9-.14-3.32.82-4.38.93-1.02,2.12-1.1,3.13-.26.5.43.65.62,2.19,3.16,1.05,1.73,2.1,3.49,3.16,5.25.37-.39.75-.78,1.12-1.17.27.45.53.9.8,1.34-1.1,1.14-2.2,2.31-3.3,3.5-.27-.45-.53-.9-.8-1.34.33-.36.66-.72.99-1.07-1.12-1.88-2.24-3.74-3.36-5.58-.9-1.49-1.2-1.88-1.56-2.18-.56-.44-1.19-.35-1.71.22-.57.62-.82,1.67-.68,2.77.13.95.41,1.57,1.39,3.17.98,1.61,1.96,3.23,2.93,4.86.33-.37.66-.73.99-1.1.27.45.53.89.8,1.34-1.1,1.2-2.2,2.43-3.3,3.68-.27-.45-.53-.89-.8-1.34.37-.42.75-.85,1.12-1.27-1.8-3-3.6-5.96-5.39-8.85-.37.42-.75.85-1.12,1.28-.27-.43-.53-.86-.8-1.28.75-.87,1.5-1.72,2.26-2.57.38.6.75,1.21,1.13,1.81Z" style="fill: #fff;"/>
    <path d="M103.54,240.49c-.56.52-1.12,1.04-1.69,1.57.92.15,1.68.74,2.31,1.8.53.88.82,1.89.78,2.82,0,.9-.24,1.63-.92,3.04-.91,1.88-1.06,2.44-.75,2.96.27.45.64.39,1.34-.15,2.87-2.32,4.35-2.28,5.69-.04,1.44,2.43,1.07,4.82-1,6.86-2.11,2.09-4.1,2.09-5.39-.09-.9-1.52-.87-3.05.07-4.75-.93.42-1.41.35-1.79-.29-.52-.87-.34-2.05.51-3.54-1.51.6-2.76.06-3.79-1.65-.62-1.03-.95-2.23-.9-3.38.06-1.32.52-2.26,1.65-3.38.25-.25.5-.5.76-.75.38-.33.61-.56.68-.62.57-.55,1.14-1.09,1.7-1.63.25.41.49.81.74,1.22ZM99.98,247.74c.89,1.47,2.07,1.82,2.98.92.87-.86.88-2.46.02-3.88-.86-1.42-2.02-1.81-2.9-.93-.9.9-.94,2.5-.09,3.9ZM104.88,258.08c.83,1.4,2.16,1.33,3.64-.13,1.36-1.33,1.67-2.92.84-4.32-.81-1.37-2.05-1.38-3.45,0-1.39,1.37-1.8,3.15-1.03,4.45Z" style="fill: #fff;"/>
    <path d="M108.16,243.49c.07.12.15.25.22.37,1.56,2.6,3.23,3.53,4.43,2.47.95-.83,1.03-2.22.28-3.95.36-.31.73-.62,1.09-.92,1.25,2.38,1.03,4.92-.54,6.31-1.89,1.67-4.5.46-6.66-3.15-2.21-3.68-2.44-7.4-.56-9.07,1.75-1.56,4.3-.26,6.35,3.19.09.16.18.32.27.48-1.62,1.37-3.25,2.79-4.87,4.27ZM110.99,238.98c-1.41-2.27-2.67-2.97-3.73-2.04-1.04.92-.98,2.88.16,5.2,1.19-1.08,2.38-2.14,3.57-3.16Z" style="fill: #fff;"/>
    <path d="M113.81,232.35c-.34-1.69-.15-2.72.61-3.31.58-.45,1.19-.41,2.07.15.48.8.96,1.6,1.44,2.4-.3.23-.61.46-.91.69-.48-.72-.73-1.07-.96-1.29-.38-.36-.78-.41-1.11-.16-.5.39-.58,1.43-.17,2.53.3.82.76,1.66,1.96,3.67.76,1.28,1.52,2.56,2.28,3.84.43-.34.86-.68,1.29-1.01.27.45.53.9.8,1.35-1.2.93-2.4,1.88-3.6,2.87-.27-.45-.53-.9-.8-1.35.37-.31.75-.61,1.12-.91-1.8-3.03-3.6-6.04-5.39-9.03-.37.3-.75.61-1.12.92-.27-.44-.53-.89-.8-1.33.74-.62,1.48-1.22,2.22-1.81.36.59.71,1.18,1.07,1.77Z" style="fill: #fff;"/>
    <path d="M123.6,216.02c3.04,5.06,6.07,10.18,9.11,15.28.37-.23.75-.45,1.12-.68.27.45.53.9.8,1.34-.75.45-1.5.91-2.26,1.38-.36-.6-.71-1.19-1.07-1.79.34,1.67.06,2.77-.82,3.34-1.67,1.09-4.47-.66-6.56-4.18-2.09-3.51-2.4-6.98-.73-8.07.88-.58,1.96-.33,3.25.74-1.06-1.78-2.12-3.56-3.19-5.33-.37.23-.75.47-1.12.71-.27-.44-.53-.89-.8-1.33.75-.48,1.5-.96,2.26-1.42ZM125.06,229.84c1.82,3.07,3.52,4.32,4.74,3.53,1.18-.77.84-2.94-.92-5.9-1.76-2.96-3.49-4.27-4.68-3.51-1.18.77-.86,2.99.86,5.88Z" style="fill: #fff;"/>
    <path d="M128.1,213.77c.41.69.83,1.39,1.24,2.08-.49.28-.98.56-1.47.84-.41-.69-.83-1.39-1.24-2.08.49-.28.98-.56,1.47-.84ZM136.99,228.79c.38-.21.76-.42,1.14-.63.27.45.53.89.8,1.34-1.15.63-2.29,1.29-3.44,1.96-.27-.45-.53-.89-.8-1.34.37-.22.75-.44,1.12-.65-1.8-3.02-3.6-6.04-5.39-9.06-.37.22-.75.43-1.12.65-.27-.45-.53-.9-.8-1.34.77-.45,1.54-.89,2.3-1.33,2.06,3.46,4.13,6.94,6.19,10.4Z" style="fill: #fff;"/>
    <path d="M136.15,217.99c-.4-1.68-.14-2.73.82-3.21.93-.46,2.12-.08,3.13.97.5.53.65.75,2.19,3.33,1.05,1.76,2.1,3.53,3.16,5.28.37-.18.75-.36,1.12-.54.27.44.53.89.8,1.33-1.1.52-2.2,1.06-3.3,1.62-.27-.44-.53-.89-.8-1.34.33-.17.66-.33.99-.5-1.12-1.87-2.24-3.75-3.36-5.63-.9-1.52-1.2-1.95-1.56-2.32-.56-.56-1.19-.73-1.71-.47-.57.29-.82,1.03-.68,1.97.13.81.41,1.42,1.39,3.06.98,1.64,1.96,3.28,2.93,4.92.33-.17.66-.34.99-.51.27.45.53.89.8,1.34-1.1.56-2.2,1.14-3.3,1.74-.27-.45-.53-.89-.8-1.34.37-.2.75-.4,1.12-.6-1.8-3.01-3.6-6.03-5.39-9.05-.37.2-.75.4-1.12.6-.27-.45-.53-.9-.8-1.34.75-.41,1.5-.81,2.26-1.2.38.63.75,1.26,1.13,1.89Z" style="fill: #fff;"/>
    <path d="M146.07,218.45c.07.12.15.25.22.37,1.56,2.6,3.23,3.84,4.43,3.31.95-.42,1.03-1.54.28-3.18.36-.16.73-.31,1.09-.47,1.25,2.32,1.03,4.35-.54,5.06-1.89.85-4.5-.88-6.66-4.51-2.21-3.7-2.44-6.87-.56-7.7,1.75-.77,4.3,1.05,6.35,4.49.09.16.18.32.27.48-1.62.69-3.25,1.41-4.87,2.15ZM148.9,215.53c-1.41-2.29-2.67-3.25-3.73-2.78-1.04.46-.98,2.11.16,4.37,1.19-.54,2.38-1.07,3.57-1.58Z" style="fill: #fff;"/>
    <path d="M157.28,213.7c.07.12.15.25.22.37,1.55,2.58,3.23,3.85,4.43,3.37.95-.38,1.03-1.46.28-3.08.36-.14.73-.28,1.09-.43,1.25,2.29,1.03,4.26-.54,4.9-1.89.76-4.5-1.03-6.66-4.63-2.21-3.67-2.44-6.76-.56-7.48,1.75-.68,4.3,1.18,6.36,4.59.09.16.18.31.27.47-1.62.63-3.25,1.27-4.87,1.92ZM160.1,210.97c-1.41-2.28-2.67-3.25-3.73-2.84-1.04.41-.98,2.01.16,4.24,1.19-.47,2.38-.94,3.57-1.4Z" style="fill: #fff;"/>
    <path d="M163.02,206.45c-.4-1.6-.14-2.55.82-2.92.93-.35,2.12.1,3.13,1.16.5.53.65.75,2.19,3.29,1.05,1.73,2.1,3.45,3.16,5.15.37-.15.75-.29,1.12-.44.27.43.53.86.8,1.29-1.1.44-2.2.87-3.3,1.31-.27-.43-.53-.87-.8-1.3.33-.13.66-.26.99-.39-1.12-1.82-2.24-3.66-3.36-5.5-.9-1.49-1.2-1.92-1.56-2.29-.56-.57-1.19-.78-1.71-.58-.57.22-.82.89-.68,1.77.13.77.41,1.36,1.39,2.97.98,1.61,1.96,3.22,2.93,4.82.33-.13.66-.26.99-.39.27.43.53.87.8,1.3-1.1.43-2.2.86-3.3,1.3-.27-.44-.53-.87-.8-1.31.37-.15.75-.29,1.12-.44-1.8-2.94-3.6-5.91-5.39-8.9-.37.14-.75.29-1.12.43-.27-.44-.53-.89-.8-1.33.75-.29,1.5-.57,2.26-.86.38.63.75,1.25,1.13,1.87Z" style="fill: #fff;"/>
    <path d="M171.36,203c-.3-1.46.01-2.36.93-2.73.87-.34,2-.07,2.91.72.73.64.85.81,2.55,3.59,1.05,1.71,2.1,3.41,3.16,5.09.37-.16.75-.31,1.12-.47.27.43.53.85.8,1.27-1.13.48-2.25.95-3.38,1.42-.27-.43-.53-.85-.8-1.28.36-.15.71-.29,1.07-.44-1.12-1.8-2.24-3.61-3.36-5.44-.8-1.3-1.08-1.74-1.42-2.09-.63-.68-1.37-.93-2-.68-.66.26-.87,1.04-.63,2.09.17.66.46,1.27,1.32,2.67.97,1.59,1.95,3.17,2.92,4.74.36-.14.72-.29,1.07-.43.27.43.53.86.8,1.28-1.13.46-2.25.92-3.38,1.37-.27-.43-.53-.86-.8-1.29.37-.15.75-.3,1.12-.45-2.77-4.47-5.54-9.04-8.31-13.65-.37.14-.75.29-1.12.43-.27-.44-.53-.89-.8-1.33.77-.29,1.54-.59,2.3-.88,1.31,2.18,2.62,4.35,3.93,6.5Z" style="fill: #fff;"/>
    <path d="M181.53,204.07c.07.12.15.24.22.36,1.56,2.51,3.23,3.69,4.43,3.15.95-.42,1.03-1.51.28-3.08.36-.16.73-.33,1.09-.5,1.25,2.21,1.03,4.21-.54,4.92-1.89.85-4.5-.82-6.66-4.32-2.21-3.57-2.44-6.62-.56-7.42,1.75-.75,4.29.98,6.35,4.27.09.15.18.31.27.46-1.63.74-3.25,1.46-4.88,2.15ZM184.35,201.23c-1.41-2.2-2.67-3.12-3.73-2.66-1.04.45-.98,2.04.17,4.22,1.19-.51,2.38-1.02,3.56-1.56Z" style="fill: #fff;"/>
    <path d="M187.18,187.99c3.04,4.95,6.07,9.82,9.11,14.51.37-.19.75-.39,1.12-.59.27.41.53.82.8,1.23-.75.4-1.5.8-2.26,1.18-.36-.55-.71-1.1-1.07-1.65.34,1.51.06,2.47-.82,2.91-1.67.84-4.47-.99-6.56-4.32-2.09-3.34-2.4-6.44-.73-7.23.88-.42,1.96-.1,3.25.97-1.06-1.7-2.12-3.42-3.19-5.15-.37.18-.75.36-1.12.54-.27-.43-.53-.87-.8-1.31.75-.36,1.5-.72,2.26-1.09ZM188.65,200.63c1.82,2.9,3.52,4.16,4.74,3.56,1.18-.59.84-2.55-.92-5.33-1.76-2.79-3.5-4.12-4.68-3.55-1.18.56-.86,2.57.86,5.32Z" style="fill: #fff;"/>
    <path d="M196.97,196.67c.07.12.15.23.22.35,1.56,2.43,3.23,3.47,4.43,2.79.95-.54,1.03-1.67.28-3.21.36-.21.73-.42,1.09-.64,1.25,2.14,1.03,4.23-.54,5.13-1.89,1.08-4.5-.37-6.66-3.76-2.21-3.47-2.44-6.59-.56-7.61,1.75-.95,4.3.57,6.35,3.76.09.15.18.3.27.44-1.62.95-3.25,1.86-4.87,2.74ZM199.8,193.44c-1.41-2.13-2.67-2.95-3.73-2.37-1.04.57-.98,2.21.17,4.34,1.19-.64,2.38-1.3,3.57-1.97Z" style="fill: #fff;"/>
    <path d="M202.63,188.09c-.34-1.53-.15-2.42.61-2.89.58-.36,1.19-.28,2.07.26.48.75.96,1.49,1.44,2.22-.31.2-.61.39-.92.58-.48-.67-.73-.99-.96-1.2-.38-.34-.78-.42-1.11-.21-.5.31-.58,1.23-.17,2.23.3.74.76,1.53,1.96,3.36.76,1.16,1.52,2.31,2.28,3.44.43-.27.86-.55,1.29-.82.27.4.53.79.8,1.18-1.2.78-2.4,1.53-3.6,2.26-.27-.4-.53-.8-.8-1.2.37-.23.75-.46,1.12-.69-1.8-2.69-3.6-5.45-5.39-8.27-.37.22-.75.44-1.12.66-.27-.42-.53-.84-.8-1.26.74-.43,1.48-.87,2.22-1.32.36.56.71,1.12,1.07,1.67Z" style="fill: #fff;"/>
    <path d="M211.94,184.61c-1.04-1.5-2.23-1.97-3.26-1.28-.76.5-.88,1.5-.29,2.41.47.73,1.06.93,2.39.84,1.69-.11,2.18-.14,2.86-.02.83.13,1.59.66,2.18,1.53,1.21,1.77,1.05,3.73-.39,4.75-.85.6-1.73.58-2.96-.08.26.44.53.89.79,1.33-.25.17-.5.34-.76.51-.79-1.15-1.58-2.32-2.37-3.5.26-.17.51-.34.77-.51,1.17,1.4,2.62,1.83,3.63,1.13.8-.56.91-1.6.27-2.53-.53-.78-1.04-.94-2.53-.82-1.61.14-2.49.1-3-.08-.78-.26-1.42-.78-1.93-1.58-1.11-1.71-.98-3.66.33-4.52.73-.48,1.56-.48,2.57-.02-.19-.36-.37-.71-.56-1.07.25-.17.49-.34.74-.51.76,1.17,1.52,2.33,2.28,3.48-.26.18-.53.37-.79.55Z" style="fill: #fff;"/>
    <path d="M224.19,184.22c.38-.3.76-.6,1.14-.91.27.37.53.74.8,1.1-1.16.94-2.31,1.85-3.47,2.75-.27-.37-.53-.74-.8-1.12.37-.29.75-.58,1.12-.87-2.77-3.88-5.54-8-8.31-12.28-.37.28-.75.55-1.12.82-.27-.41-.53-.83-.8-1.24.78-.56,1.56-1.14,2.33-1.72,3.04,4.72,6.07,9.24,9.11,13.47Z" style="fill: #fff;"/>
    <path d="M224.87,177.89c.07.11.15.21.22.32,1.56,2.21,3.23,2.89,4.43,1.89.95-.8,1.03-2,.28-3.43.36-.3.73-.61,1.09-.92,1.25,1.94,1.03,4.16-.54,5.5-1.89,1.6-4.5.73-6.66-2.37-2.21-3.17-2.44-6.49-.56-7.97,1.75-1.4,4.3-.3,6.36,2.58.09.14.18.27.27.41-1.62,1.37-3.25,2.7-4.87,4.01ZM227.69,173.83c-1.41-1.93-2.67-2.53-3.73-1.68-1.04.83-.98,2.57.16,4.58,1.19-.95,2.38-1.92,3.57-2.9Z" style="fill: #fff;"/>
    <path d="M230.16,165.45c.27.39.53.77.8,1.15-.32.27-.63.53-.95.8,1.1.94,2.2,1.86,3.3,2.74,1.52,1.23,1.58,1.28,3.4,2.73-.52-1.23-1.08-2.63-1.69-4.2-.53-1.37-1.06-2.75-1.59-4.16-.32.27-.64.55-.96.82-.27-.38-.53-.76-.8-1.15,1.01-.86,2.02-1.72,3.03-2.58.27.38.53.76.8,1.13-.37.32-.74.63-1.1.95,1.32,3.59,2.63,7.06,3.95,10.38-.34.31-.68.61-1.03.92-2.86-1.96-5.71-4.15-8.57-6.51-.38.32-.76.63-1.14.94-.27-.39-.53-.78-.8-1.17,1.12-.92,2.24-1.85,3.36-2.8Z" style="fill: #fff;"/>
    <path d="M239.98,165c.07.1.15.19.22.29,1.56,2.04,3.23,2.53,4.43,1.43.95-.87,1.03-2.03.28-3.36.36-.33.73-.65,1.09-.98,1.25,1.78,1.03,3.91-.54,5.38-1.89,1.75-4.5,1.2-6.66-1.68-2.21-2.94-2.44-6.25-.56-7.86,1.75-1.51,4.3-.57,6.36,2.07.09.12.18.25.27.37-1.62,1.44-3.25,2.89-4.87,4.33ZM242.81,160.77c-1.41-1.78-2.67-2.29-3.73-1.37-1.04.9-.98,2.63.16,4.52,1.19-1.05,2.38-2.1,3.57-3.15Z" style="fill: #fff;"/>
    <path d="M246.08,151.82c.27.37.54.73.82,1.09-.59.5-1.18,1.01-1.77,1.51,1.09,1.46,2.18,2.86,3.28,4.2,1.02,1.25,1.27,1.51,1.63,1.77.48.34,1.02.31,1.46-.09.3-.27.48-.58.66-1.14.31.35.61.7.92,1.04-.34.67-.57.97-.99,1.36-.82.75-1.7.96-2.5.55-.62-.31-.7-.36-2.35-2.4-1.1-1.36-2.19-2.78-3.29-4.25-.35.3-.7.61-1.06.91-.27-.37-.54-.74-.82-1.11.35-.3.7-.61,1.06-.91-.69-.94-1.37-1.9-2.06-2.88.39-.33.79-.66,1.18-1,.69.97,1.37,1.93,2.06,2.86.59-.5,1.18-1,1.77-1.5Z" style="fill: #fff;"/>
    <path d="M246.66,145.31c.41.59.83,1.16,1.24,1.73-.49.4-.98.8-1.47,1.2-.41-.57-.83-1.15-1.24-1.74.49-.4.98-.8,1.47-1.19ZM255.54,156.62c.38-.33.76-.67,1.14-1,.27.29.53.58.8.86-1.15,1.01-2.29,2.04-3.44,3.08-.27-.29-.53-.59-.8-.89.37-.34.75-.67,1.12-1-1.8-2.01-3.6-4.19-5.39-6.54-.37.31-.75.63-1.12.94-.27-.35-.53-.7-.8-1.06.77-.64,1.54-1.28,2.3-1.92,2.06,2.73,4.13,5.25,6.19,7.52Z" style="fill: #fff;"/>
    <path d="M254.62,138.88c3.04,4.15,6.07,7.79,9.11,10.83.37-.3.75-.59,1.12-.88.27.26.53.52.8.77-.75.59-1.5,1.2-2.25,1.81-.36-.35-.71-.7-1.07-1.07.34,1.21.06,2.16-.82,2.92-1.67,1.43-4.47.96-6.56-1.52-2.09-2.47-2.4-5.57-.73-6.84.88-.68,1.96-.67,3.25-.02-1.06-1.3-2.12-2.67-3.19-4.1-.37.27-.75.55-1.12.82-.27-.36-.53-.72-.8-1.09.75-.56,1.5-1.1,2.26-1.63ZM256.08,150.7c1.82,2.13,3.52,2.58,4.74,1.57,1.18-1,.84-2.56-.92-4.54-1.76-1.99-3.5-2.81-4.68-1.88-1.18.91-.86,2.84.86,4.85Z" style="fill: #fff;"/>
    <path d="M260.73,142.14c-1.31-1.47-2.61-3.04-3.92-4.7.37-.24.74-.49,1.1-.72,1.2,1.72,2.4,3.35,3.61,4.88-.26.18-.53.36-.79.54ZM262.77,140.77c-1.31-1.45-2.61-3-3.92-4.64.37-.23.74-.45,1.1-.67,1.2,1.7,2.4,3.31,3.61,4.81-.26.17-.53.34-.79.51Z" style="fill: #fff;"/>
  </g>
  <path d="M25.58,325.35c-5.03-2.94-10.22-5.98-14.52-10.13-7.88-7.6-12.04-18.85-10.86-29.36,1.23-10.91,8.25-20.9,17.88-25.43,3.93-1.85,8.24-2.84,12.4-3.79,4.58-1.05,9.31-2.13,13.46-4.37,7.13-3.83,12.02-10.69,16.76-17.31,4.5-6.3,9.15-12.81,15.76-16.9,6.21-3.84,13.61-5.22,20.77-6.54,7.97-1.48,16.22-3.01,22.54-8,5.71-4.51,8.92-10.96,12.32-17.78,2.16-4.34,4.39-8.82,7.31-12.71,9.59-12.77,25.23-17.93,40.35-22.93,10.42-3.44,21.2-7,30.15-13.02,3.79-2.55,7.39-5.62,10.88-8.6,6.94-5.93,14.12-12.07,23.09-14.23,4.01-.97,8.2-1.08,12.25-1.18,4.02-.1,8.19-.21,12.12-1.17,8.71-2.13,15.75-8.2,22.55-14.07,3.57-3.08,7.26-6.26,11.18-8.89,5.24-3.51,11.08-6.13,16.73-8.67,5.25-2.36,10.67-4.79,15.57-7.92,12.44-7.95,21.72-20.54,29.9-31.66L394.15,0l.81.59-29.96,40.67c-8.24,11.18-17.57,23.86-30.17,31.91-4.96,3.17-10.42,5.62-15.7,7.99-5.61,2.52-11.41,5.13-16.58,8.59-3.87,2.59-7.54,5.76-11.09,8.82-6.9,5.95-14.03,12.1-22.97,14.29-4.04.99-8.25,1.09-12.33,1.2-4,.1-8.13.21-12.04,1.15-8.74,2.11-15.82,8.16-22.68,14.02-3.51,3-7.13,6.09-10.97,8.67-9.07,6.09-19.91,9.67-30.4,13.13-15.67,5.17-30.46,10.06-39.87,22.58-2.87,3.82-5.08,8.26-7.22,12.56-3.3,6.62-6.71,13.47-12.59,18.12-6.51,5.15-14.88,6.7-22.97,8.2-7.07,1.31-14.38,2.67-20.43,6.41-6.44,3.98-11.03,10.41-15.47,16.63-4.8,6.72-9.77,13.67-17.1,17.61-4.27,2.3-9.07,3.4-13.71,4.46-4.11.94-8.37,1.92-12.2,3.72-9.33,4.39-16.12,14.06-17.31,24.64-1.15,10.2,2.9,21.14,10.56,28.53,4.21,4.06,9.35,7.07,14.33,9.99l-.5.86Z" style="fill: #fff;"/>
  <path d="M71.33,329.26c-1.6-4.84,2.47-9.86,7.31-12.31,1.4-.71,2.9-1.32,4.34-1.9,3.25-1.32,6.32-2.57,8.63-4.94,1.76-1.81,2.92-4.17,4.05-6.45,1.18-2.39,2.4-4.86,4.32-6.79,3.56-3.58,8.65-4.56,13.58-5.51,4.3-.83,8.75-1.68,12.12-4.27,2.78-2.14,4.53-5.15,6.37-8.34,1.07-1.85,2.18-3.77,3.51-5.49,5.6-7.23,14.96-11.31,29.45-12.84,2.02-.21,4.05-.39,6.09-.56,8.74-.75,17.78-1.52,25.6-5.47,8.06-4.08,14.1-11.17,19.95-18.04,4.69-5.51,9.55-11.21,15.48-15.45,16.48-11.77,38.89-10.76,56.57-8.56,2.42.3,4.84.62,7.28.95,16.8,2.24,34.16,4.56,50.25-.53,3.14-.99,7.04-2.54,9.43-5.69,1.11-1.46,1.93-3.3,2.57-5.79,2.59-10.01.02-21.1-6.73-28.94-1.04-1.21-2.19-2.37-3.31-3.49-2.04-2.05-4.16-4.17-5.69-6.71-4.13-6.84-3.71-16.68,1.12-26.32,5.12-10.23,13.59-18.65,23.84-23.72,4.26-2.1,8.82-3.64,13.24-5.12,4.12-1.39,8.39-2.82,12.36-4.71,20.66-9.81,32.61-30.15,45.02-53.76l.88.46c-9.64,18.33-22.83,43.44-45.47,54.19-4.03,1.91-8.32,3.36-12.47,4.75-4.38,1.47-8.92,3-13.11,5.07-10.06,4.97-18.37,13.24-23.39,23.27-4.67,9.33-5.11,18.81-1.16,25.35,1.47,2.43,3.54,4.51,5.54,6.52,1.13,1.13,2.3,2.3,3.36,3.54,6.96,8.08,9.62,19.52,6.94,29.84-.68,2.62-1.55,4.57-2.74,6.14-2.56,3.38-6.65,5-9.93,6.04-16.29,5.16-33.77,2.83-50.68.57-2.43-.32-4.86-.65-7.27-.95-17.5-2.18-39.67-3.19-55.87,8.38-5.83,4.17-10.65,9.82-15.3,15.29-5.91,6.94-12.02,14.11-20.26,18.28-7.99,4.04-17.13,4.82-25.96,5.58-2.03.17-4.06.35-6.07.56-14.21,1.49-23.35,5.45-28.76,12.45-1.29,1.66-2.38,3.55-3.44,5.38-1.81,3.14-3.69,6.38-6.63,8.64-3.56,2.73-8.13,3.61-12.54,4.46-5,.96-9.71,1.87-13.06,5.23-1.81,1.82-2.99,4.21-4.13,6.53-1.16,2.35-2.36,4.78-4.23,6.7-2.46,2.53-5.77,3.87-8.97,5.17-1.42.58-2.9,1.18-4.26,1.87-4.46,2.26-8.24,6.8-6.81,11.11l-.95.31Z" style="fill: #fff;"/>
</svg>