<?xml version="1.0" encoding="UTF-8"?>
<svg id="Layer_1" xmlns="http://www.w3.org/2000/svg" viewBox="0 0 403.3 481.3">
  <path d="M184.79,300.21l-.04-.5c-.69-8.04-2.76-15.84-6.15-23.17l-.21-.45,1.82-.84.21.45c3.48,7.54,5.61,15.56,6.33,23.83l.04.5-1.99.17ZM179.71,276.58c.99,2.18,1.86,4.39,2.62,6.64-.76-2.25-1.63-4.47-2.62-6.65h0Z" style="fill: #fff;"/>
  <path d="M78.7,226.78c-.69,0-1.37-.05-2.01-.16l-.49-.08.32-1.98.49.08c3.06.49,6.24-.5,9.33-1.47.68-.21,1.36-.43,2.03-.62,2.72-.8,5.54-1.37,8.37-1.7l.2-.02c.45-.05.87-.1,1.29-.19l.49-.1.42,1.96-.49.1c-.51.11-1,.16-1.48.22l-.19.02c-2.72.32-5.42.87-8.04,1.63-.66.19-1.32.4-1.98.61-2.66.83-5.41,1.7-8.24,1.7ZM77.34,225.7s.06,0,.1,0c-.03,0-.06,0-.1,0h0ZM87.39,223.89c-.1.03-.21.06-.31.1.1-.03.21-.06.31-.1ZM96.97,221.83l-.14.02c-.84.1-1.68.22-2.52.36.84-.14,1.68-.26,2.53-.36l.14-.02ZM97.92,221.71c-.08.01-.16.02-.24.04.08-.01.16-.02.24-.04h0Z" style="fill: #fff;"/>
  <path d="M109.5,284.88c-10.24,0-20.56-.62-30.68-1.83l-.5-.06.24-1.98.5.06c17.08,2.05,34.44,2.37,51.58.94l.5-.04.17,1.99-.5.04c-7.04.59-14.21.88-21.31.88ZM101.69,283.76c4.97.15,9.92.16,14.89.02-4.96.14-9.93.13-14.89-.02Z" style="fill: #fff;"/>
  <path d="M88.27,283.77l-.07-.5c-.21-1.54-.26-3.11-.15-4.66l.04-.5,2,.14-.03.5c-.1,1.42-.05,2.85.14,4.25l.07.5-1.98.27ZM89.04,281.67c.02.32.05.64.09.96h0c-.04-.32-.06-.64-.09-.96Z" style="fill: #fff;"/>
  <rect x="103.01" y="277.97" width="2" height="6.87" style="fill: #fff;"/>
  <rect x="114.55" y="278.38" width="2" height="6.06" style="fill: #fff;"/>
  <path d="M66.93,65.23l-1.97-.36.09-.49c.59-3.21,2.92-5.7,4.79-7.7L123,0l1.46,1.37-53.15,56.68c-1.7,1.81-3.81,4.06-4.29,6.69l-.09.49ZM101.85,24.02l-31.27,33.34c-.37.39-.75.8-1.14,1.24.39-.43.77-.84,1.14-1.24l31.27-33.34Z" style="fill: #fff;"/>
  <path d="M180.04,92.45l-.5-.05c-32.81-3.31-66.16-4.25-99.12-2.79l-.5.02-.09-2,.5-.02c33.05-1.46,66.49-.52,99.41,2.8l.5.05-.2,1.99ZM165.47,90.12c4.57.36,9.12.77,13.67,1.23h0c-4.55-.46-9.11-.87-13.67-1.23ZM110.61,87.94c-9.78,0-19.55.21-29.28.62,14.73-.63,29.55-.78,44.35-.46-5.02-.11-10.05-.16-15.07-.16Z" style="fill: #fff;"/>
  <path d="M169.61,165.76l-.42-.27c-20.87-13.69-45.07-21.68-69.99-23.13l-.5-.03.12-2,.5.03c25.27,1.46,49.81,9.57,70.97,23.45l.42.27-1.1,1.67ZM120.31,144.15c17.39,3.64,34.04,10.48,49.01,20.22h0c-14.96-9.74-31.62-16.58-49.01-20.22Z" style="fill: #fff;"/>
  <path d="M9.75,22.41c-2.92,0-5.88-.15-8.79-.46l-.5-.05.21-1.99.5.05c8.53.89,17.11.45,25.49-1.31l.49-.1.41,1.96-.49.1c-5.69,1.19-11.52,1.8-17.33,1.8Z" style="fill: #fff;"/>
  <path d="M46.25,222.66l-.14-.48C27.9,157.25,9.06,90.1.07,22.01l-.07-.5,1.98-.26.07.5c8.97,67.95,27.79,135.03,45.99,199.9l.14.48-1.93.54Z" style="fill: #fff;"/>
  <path d="M76.86,226.23c-1.65,0-3.5-.1-5.28-.2l-.34-.02c-1.75-.1-3.56-.2-5.14-.18-3.91.03-7.89.05-11.79-.74-2.52-.51-4.95-1.35-7.3-2.17l-.47-.16.13-.48.49-1.42.47.17c2.3.8,4.68,1.62,7.07,2.11,3.71.75,7.6.73,11.36.7,1.6-.02,3.38.08,5.11.18l.48.03c1.38.08,2.79.16,4.12.19-4.39-14.89-7.59-29.16-10.69-42.97-2.19-9.77-4.46-19.88-7.13-30.13-2.6-10-5-18.43-7.13-25.07-8.17-25.51-13.93-52.15-19.5-77.92l-.03-.13c-1.88-8.71-3.83-17.72-5.84-26.53l-.21-.92.91-.26c4.03-1.17,11.59-3.23,16.89-3.96l.5-.07.27,1.98-.5.07c-4.86.67-11.74,2.51-15.7,3.64,1.96,8.62,3.84,17.33,5.66,25.77,5.56,25.73,11.31,52.32,19.44,77.73,2.13,6.66,4.54,15.13,7.16,25.17,2.68,10.29,4.95,20.41,7.15,30.2,3.18,14.18,6.47,28.84,11.04,44.14l.38,1.28h-1.6ZM76.36,222.63c.19.65.38,1.3.57,1.95l.19.64c-.26-.87-.51-1.73-.77-2.6ZM66.4,224.82c1.37,0,2.83.07,4.27.15-1.56-.09-3.14-.17-4.55-.15.09,0,.19,0,.28,0ZM66.05,224.82s-.06,0-.1,0c.03,0,.06,0,.1,0ZM51.72,223.4c.92.27,1.86.51,2.79.7,1.28.26,2.57.43,3.86.54-1.3-.11-2.59-.28-3.86-.54-.94-.19-1.87-.43-2.79-.7ZM76.35,222.59s0,.02,0,.02c0,0,0-.02,0-.02ZM47.78,222.12c.43.15.87.3,1.3.45-.44-.15-.87-.3-1.3-.45h0ZM58.56,149.46c.12.46.24.92.36,1.39,2.44,9.38,4.55,18.63,6.57,27.62-2.02-8.98-4.12-18.23-6.57-27.62-.12-.47-.24-.93-.36-1.39ZM37.16,70.07c2.92,13,6.04,26.07,9.63,38.96-3.6-12.89-6.72-25.96-9.63-38.96ZM28.89,32.16c.41,1.88.82,3.76,1.23,5.63-.41-1.87-.82-3.75-1.23-5.63ZM28.87,32.09s0,.02,0,.02c0,0,0-.02,0-.02ZM41.17,17.62c-4.96.88-11.08,2.56-14.61,3.58l.34-.1c3.4-.98,9.4-2.61,14.27-3.48Z" style="fill: #fff;"/>
  <path d="M98.34,222.74l-22.3-74.04c-5.95-19.73-12.09-40.14-16.74-60.61-1.38-6.08-2.66-12.31-3.9-18.32-3.6-17.52-7.3-35.56-13.92-52.32l-.18-.47,1.86-.73.18.46c6.68,16.92,10.4,35.04,14,52.56,1.25,6.07,2.53,12.3,3.91,18.38,4.63,20.39,10.77,40.77,16.7,60.47l22.31,74.04-1.91.58ZM54.6,60.96c.6,2.85,1.18,5.7,1.76,8.52,1.25,6.1,2.53,12.32,3.91,18.39,3.17,13.97,7.05,27.93,11.08,41.66-4.03-13.74-7.91-27.69-11.08-41.66-1.38-6.09-2.66-12.32-3.9-18.35-.58-2.84-1.17-5.7-1.77-8.57ZM42.6,17.55c1.41,3.62,2.69,7.29,3.87,11-1.17-3.71-2.45-7.38-3.87-11h0Z" style="fill: #fff;"/>
  <path d="M65.42,299.04l-1.76-.35c-15.46-3.06-30.96-4.55-47.37-4.55h-1.4l.45-1.32c5.37-15.78,12.63-31.06,19.65-45.84l11.88-25.01.73.11c2,.3,5.23,1.04,7.16,1.75l.76.28-.12.8c-1.65,11.33-3.35,23.05-1.53,34.37,1.21,7.56,3.97,14.87,6.63,21.94,1.07,2.84,1.64,5.57,2.18,8.21.53,2.57,1.08,5.23,2.1,7.93l.63,1.68ZM63.44,297.63c.14.03.27.05.41.08h0c-.46-1.21-.82-2.41-1.13-3.59.24.91.51,1.84.83,2.77l.28.82-.39-.08ZM17.68,292.14c15.43.08,30.06,1.47,44.65,4.25-.72-2.25-1.17-4.43-1.61-6.55-.53-2.56-1.08-5.22-2.1-7.92-2.7-7.16-5.49-14.57-6.73-22.33-1.84-11.48-.21-23.01,1.41-34.16-1.65-.53-3.76-1-5.27-1.27l-11.24,23.66c-6.8,14.31-13.82,29.1-19.11,44.31ZM50.41,295.45h0,0ZM16.28,293.14c11.73,0,22.99.76,34.1,2.3-10.89-1.51-21.92-2.27-33.41-2.3h-.7s0,0,0,0ZM20.19,282.51s0,.01,0,.02c0,0,0-.01,0-.02ZM41.3,236.02l-5.41,11.39c-5.42,11.4-10.97,23.11-15.69,35.1,4.72-11.99,10.28-23.7,15.69-35.1l5.41-11.39ZM53.4,262.27c.87,4.15,2.14,8.21,3.54,12.2-1.4-3.99-2.67-8.05-3.54-12.2ZM54.17,226.44c-1.53,10.55-2.99,21.43-1.41,32.21-1.56-10.67-.12-21.59,1.41-32.21Z" style="fill: #fff;"/>
  <path d="M138.64,299.78l-1.62-.05c-6.05-.19-12.18-.47-18.12-.74-11.45-.52-22.54-.99-33.45-1h-.64s-5.8-12.58-5.8-12.58c-.94-2.04-2-4.35-2.01-6.86v-1.01s1.01,0,1.01,0c8.73.08,17.73-.02,26.42-.11,8.78-.1,17.78-.2,26.63-.11h.91s.08.91.08.91c.53,6.1,2.41,12.48,5.91,20.09l.68,1.47ZM137.06,298.73h0c-.11-.24-.22-.48-.33-.72l.32.72ZM85.46,296.98c10.93.01,22.04.48,33.4,1,.3.01.6.03.9.04-.28-.01-.56-.03-.84-.04-10.81-.5-21.93-1-32.92-1h-.54ZM136.73,297.99h0s0,0,0,0c0,0,0,0,0,0ZM131.2,279.6c.66,5.63,2.42,11.5,5.52,18.37-3.09-6.86-4.87-12.75-5.52-18.37ZM86.1,295.98c10.98,0,22.07.51,32.8,1,5.47.25,11.06.51,16.58.69-3.02-6.83-4.73-12.71-5.33-18.38-8.54-.07-17.21.03-25.61.12-7.93.09-16.9.19-25.46.12.24,1.74,1.04,3.48,1.75,5.02l5.26,11.41ZM78.03,279.03c.1,1.57.64,3.08,1.25,4.5-.6-1.4-1.14-2.9-1.25-4.46v-.04ZM126.84,278.28c1.26,0,2.52.01,3.77.02h.45s.04.37.04.37c-.01-.12-.02-.24-.03-.36h0c-1.4-.01-2.81-.02-4.22-.03ZM78.01,278.53h.52c.91.01,1.82.02,2.73.02-1.09,0-2.17-.01-3.26-.02h0ZM99.34,278.48c-3.29.03-6.6.06-9.89.08,3.35-.01,6.68-.04,9.89-.08Z" style="fill: #fff;"/>
  <path d="M230.11,437.33l-2-.05v-.5c1.11-44.47-1.28-85.84-7.09-122.96-76.12-7.49-142.89-12.78-204.09-16.17,16.06,37.21,29.3,75.97,39.36,115.23l.12.48-1.94.5-.12-.48c-10.17-39.67-23.59-78.84-39.9-116.41l-.65-1.49,1.62.09c61.83,3.4,129.39,8.75,206.56,16.34l.77.08.12.76c5.92,37.44,8.35,79.19,7.25,124.09v.5ZM229.13,436.3h0c.45-18.59.29-36.63-.48-54.05.77,17.42.93,35.46.48,54.05ZM54.85,411.26c.12.46.24.92.35,1.37h0c-.12-.46-.24-.92-.35-1.37ZM54.82,411.15s0,.01,0,.02c0,0,0-.01,0-.02ZM228.65,382.14s0,.07,0,.11c0-.04,0-.08,0-.11ZM228.65,382.02s0,.07,0,.1c0-.03,0-.07,0-.1ZM228.64,381.9s0,.06,0,.09c0-.03,0-.06,0-.09ZM228.64,381.79s0,.05,0,.08c0-.03,0-.05,0-.08ZM228.63,381.67s0,.04,0,.06c0-.02,0-.04,0-.06ZM228.63,381.55s0,.03,0,.05c0-.01,0-.03,0-.05ZM228.62,381.44s0,.02,0,.04c0-.01,0-.03,0-.04ZM228.62,381.32s0,.02,0,.03c0-.01,0-.01,0-.03ZM228.61,381.2s0,0,0,.01c0,0,0,0,0-.01ZM179.07,308.82c13.82,1.27,27.96,2.61,42.43,4.04l.38.04s0,0,0,0h0c-14.61-1.44-28.87-2.79-42.81-4.07ZM15.38,296.56c.06.14.12.29.19.43l-.19-.43Z" style="fill: #fff;"/>
  <path d="M121.16,261.32c-1.93,0-3.84-.19-5.67-.57-1.47-.3-3.35-.81-4.83-2.07-2.82-2.4-3.09-6.44-2.83-9.41.93-10.37,7.66-19.84,17.14-24.13,9.05-4.1,19.15-3.36,29.57-2.16l.5.06-.23,1.99-.5-.06c-10.13-1.17-19.93-1.89-28.51,1.99-8.84,4-15.11,12.83-15.98,22.49-.22,2.5-.04,5.86,2.13,7.7,1.14.97,2.7,1.38,3.94,1.63,12.6,2.6,25.07-4.86,32.53-12.7l.34-.36,1.45,1.38-.34.36c-8.38,8.8-18.84,13.85-28.71,13.85ZM118.36,260.18c10.22,1.03,21.49-3.83,30.43-13.04h0c-7.15,7.35-18.57,14.22-30.43,13.04ZM114.58,259.51c.38.1.76.19,1.11.26.59.12,1.18.22,1.79.3-.6-.08-1.19-.18-1.79-.3-.35-.07-.72-.16-1.11-.26ZM113.39,236.4c-2.53,3.86-4.15,8.32-4.57,12.96-.06.67-.09,1.41-.07,2.17-.02-.75,0-1.49.07-2.17.42-4.64,2.04-9.1,4.57-12.96ZM144.5,223.11c3.09.13,6.24.45,9.42.81h0c-3.18-.36-6.33-.67-9.42-.81Z" style="fill: #fff;"/>
  <path d="M112.49,260.32l-.71-1.87.47-.18c4.46-1.7,7.33-5.85,10.35-10.71,2.27-3.63,4.83-7.75,5.33-12.21.33-3.01-.93-6.52-3.55-6.96l-.49-.08.33-1.97.49.08c3.83.63,5.65,5.15,5.21,9.15-.54,4.92-3.24,9.24-5.62,13.05-2.49,3.98-5.89,9.44-11.34,11.52l-.47.18ZM125.03,227.52c2.87.84,4.26,4.66,3.89,7.94-.52,4.69-3.15,8.91-5.47,12.63-1.15,1.84-2.27,3.58-3.48,5.14,1.35-1.73,2.49-3.56,3.48-5.14,2.32-3.72,4.95-7.94,5.47-12.63.37-3.35-.99-7.11-3.89-7.94h0Z" style="fill: #fff;"/>
  <path d="M183.14,276.62c-3.95,0-7.9-.48-11.75-1.43-2.26-.56-5.15-1.44-7.47-3.31-2.47-2-3.85-4.92-3.58-7.63.11-1.1.46-2.11.8-3.08l.23-.66c1.81-5.42,1.82-11.89.03-18.7-1.66-6.29-4.6-12.24-7.48-17.78l-.23-.44,1.78-.92.23.44c2.93,5.65,5.93,11.7,7.64,18.2,1.89,7.19,1.87,14.05-.07,19.85l-.23.68c-.32.9-.61,1.76-.7,2.62-.2,2.05.89,4.3,2.85,5.88,2.01,1.62,4.63,2.41,6.69,2.92,4.82,1.19,9.76,1.6,14.7,1.24,27.1-1.97,53.09-15.94,77.39-30.07l.43-.25,1,1.73-.43.25c-24.5,14.25-50.73,28.33-78.25,30.34-1.19.09-2.39.13-3.58.13ZM264.04,245.54c-24.28,14.11-50.24,27.98-77.39,29.95-.45.03-.9.06-1.35.08.45-.02.9-.05,1.35-.08,27.15-1.98,53.11-15.85,77.39-29.95h0ZM161.38,265.84c.12.86.42,1.71.86,2.52-.44-.81-.74-1.67-.86-2.52ZM161.38,265.84h0s0,0,0,0ZM162.2,261.18l-.11.32c-.07.21-.14.41-.21.62.07-.21.14-.41.21-.62l.11-.32ZM163.11,244.87c.96,5.29.82,10.3-.41,14.73,1.23-4.42,1.37-9.44.41-14.73ZM155.04,224.01c.52,1,1.03,2.01,1.54,3.03-.51-1.02-1.03-2.04-1.54-3.03h0Z" style="fill: #fff;"/>
  <path d="M136.33,283.54l-1.29-1.53.38-.32c3.74-3.16,6.27-7.75,6.92-12.61.29-2.15.23-4.39.17-6.57-.06-2.42-.13-4.91.26-7.37l.08-.49,1.98.31-.08.49c-.36,2.28-.3,4.68-.23,7,.06,2.26.12,4.59-.19,6.89-.72,5.34-3.5,10.4-7.61,13.87l-.38.32ZM143.53,263.18c.05,2,.07,4.05-.2,6.04-.58,4.27-2.53,8.34-5.45,11.5,2.93-3.16,4.88-7.24,5.45-11.5.27-2,.25-4.04.2-6.04Z" style="fill: #fff;"/>
  <path d="M112,277.51l-1.27-1.54.39-.32c8.05-6.62,18.15-11.07,28.49-12.54.04-.12.11-.23.19-.33.39-.46,1.05-.5,1.5-.29.49.22.77.73.69,1.25-.06.41-.35,1.11-1.57,1.28-10.16,1.34-20.12,5.67-28.03,12.17l-.39.32ZM136.27,264.71h0,0ZM138.5,264.29c-.74.12-1.48.26-2.22.42.74-.15,1.48-.29,2.22-.42ZM140.16,264.04h-.04s.03,0,.05,0c0,0,0,0,0,0ZM140.57,263.42h0s.02.13.02.13l.25-.17c-.07-.02-.16-.02-.22.01-.02,0-.03.02-.04.03Z" style="fill: #fff;"/>
  <path d="M150.61,307.33h0c-1.71,0-3.34-.29-4.85-.86-1.84-.7-3.07-1.72-3.67-3.04-.55-1.23-.56-2.67,0-4.53.13-.44.28-.9.46-1.36l.18-.47.37.14c.01-.24.04-.49.08-.73.78-4.62,5.85-9.63,8.73-11.86,4.52-3.5,11.76-1.39,15.33.42.75.38,1.52.83,2.08,1.59,1.06,1.43,1.02,3.38-.11,5.97-2.27,5.18-5.27,9.09-8.92,11.63-2.9,2.01-6.33,3.12-9.65,3.12ZM142.96,299.51c-.38,1.45-.36,2.57.06,3.5.48,1.07,1.53,1.92,3.11,2.52,1.03.39,2.12.64,3.26.74-1.13-.1-2.23-.35-3.26-.74-1.58-.6-2.63-1.45-3.11-2.52-.42-.93-.44-2.05-.06-3.5ZM143.82,300.21c-.21,1-.17,1.76.11,2.38.37.82,1.23,1.49,2.55,2,3.87,1.48,8.72.7,12.65-2.03,3.35-2.32,6.12-5.95,8.23-10.78.82-1.87.93-3.17.34-3.98-.31-.42-.84-.72-1.37-.99-3.15-1.59-9.47-3.52-13.2-.62-3.28,2.54-7.04,6.72-7.88,10.14,1.11-1.17,2.53-2.04,4.07-2.46,2.43-.66,5.13-.22,7.21,1.2,1.15.78,2.21,2.15,1.75,3.67-.19.6-.58,1.05-.87,1.38l-2.87,3.25c-.25.28-.59.67-1.1.9-.36.16-.71.21-1.04.24-2.65.23-5.78-.98-7.59-2.94-.4-.43-.72-.88-.98-1.35ZM165.75,296.92c-1.74,2.71-3.77,4.87-6.06,6.46-.3.21-.61.41-.92.6.31-.19.62-.39.92-.6,2.29-1.59,4.32-3.75,6.06-6.46ZM152.84,303.41s-.04.01-.06.02c.02,0,.04-.01.06-.02ZM154.39,302.01l-.61.68c-.17.19-.37.42-.62.58.24-.15.44-.38.62-.58l.61-.69ZM145.59,299.27c.18.32.41.63.68.93,1.43,1.54,3.87,2.49,5.94,2.3.14-.01.3-.03.39-.07.12-.05.3-.26.43-.41l2.87-3.25c.2-.22.4-.46.46-.64.13-.42-.38-1.03-.96-1.42-1.61-1.09-3.69-1.44-5.57-.92-1.82.5-3.4,1.79-4.25,3.48ZM144.43,299.19c.22.54.54,1.05.95,1.53-.37-.42-.66-.88-.87-1.35l-.08-.18ZM155.96,295.88s0,0,.01,0c.85.58,1.66,1.55,1.35,2.54-.04.12-.09.24-.16.36.07-.11.12-.23.16-.36.31-.99-.5-1.97-1.35-2.54,0,0,0,0-.01,0ZM144.83,298.54h0c.05-.09.11-.18.16-.28l-.17.28ZM144.15,298.22h0s-.03-.22-.03-.22c-.06-.45-.04-.91.03-1.37.47-2.83,2.94-6.19,5.65-8.87-2.48,2.43-5.13,5.76-5.65,8.87-.07.42-.09.84-.05,1.25l.03.34ZM165.75,296.92h0ZM149.76,294.78c-.06.01-.12.03-.19.05-.14.04-.29.08-.43.13.14-.05.29-.09.43-.13.06-.02.12-.03.19-.05ZM166.55,285.8c.08.04.15.08.23.11.64.32,1.29.7,1.72,1.29.66.89.74,2.11.25,3.7.49-1.59.4-2.81-.25-3.7-.43-.59-1.08-.97-1.72-1.29-.07-.04-.15-.08-.23-.11ZM153.05,285.02c-.18.12-.36.24-.53.38-.11.08-.22.17-.33.26.11-.09.22-.18.33-.26.17-.13.35-.26.53-.38Z" style="fill: #fff;"/>
  <path d="M137.77,294.02c-.41,0-.82-.03-1.22-.09l-.49-.08.31-1.98.49.08c1.95.3,4.06-.44,5.39-1.89l.34-.37,1.48,1.34-.34.37c-1.51,1.67-3.69,2.62-5.96,2.62ZM137.2,292.99c2.01.17,4-.55,5.44-1.91h0c-1.43,1.35-3.48,2.06-5.44,1.91h0Z" style="fill: #fff;"/>
  <path d="M135.91,288.41l-.93-1.77.44-.23c4.09-2.14,7.62-5.51,9.94-9.5l.25-.43,1.73,1-.25.43c-2.5,4.31-6.32,7.96-10.74,10.27l-.44.23ZM136.33,287.06h0c3.92-2.15,7.32-5.4,9.64-9.22h0c-2.32,3.82-5.72,7.07-9.64,9.22Z" style="fill: #fff;"/>
  <path d="M152.45,281.28l-.34-.37c-2.64-2.85-5.2-5.96-5.05-9.79l.02-.5,2,.08-.02.5c-.12,3.06,2.17,5.81,4.52,8.36l.34.37-1.47,1.36Z" style="fill: #fff;"/>
  <path d="M173.54,300.85c-2.55,0-5.08-.11-7.52-.31l-.5-.04.17-1.99.5.04c20.43,1.73,41.32-4.31,59.75-9.65,5.94-1.72,12.08-3.5,17.86-5.88,6.17-2.54,12.54-6,20.06-10.88l.42-.27,1.09,1.68-.42.27c-7.62,4.95-14.1,8.46-20.39,11.05-5.89,2.43-12.08,4.22-18.06,5.95-16.24,4.7-34.64,10.03-52.96,10.03ZM171.4,299.83c2.58.06,5.2,0,7.8-.14-2.6.15-5.2.2-7.8.14ZM236.68,286.69c-3.48,1.15-7,2.17-10.45,3.16-2.61.75-5.26,1.52-7.96,2.28,2.7-.76,5.35-1.53,7.95-2.28,3.45-1,6.97-2.02,10.45-3.17Z" style="fill: #fff;"/>
  <path d="M270.09,279.72l-.19-.46c-6.87-16.9-8.7-36.76-5.44-59.04,2.6-17.79,9.28-37.01,15.18-53.96l.2-.57c.58-1.68,1.16-3.34,1.73-4.98l.21-.6,79.34-8.16.2,1.99-78.07,8.03c-.57,1.64-1.14,3.29-1.72,4.95-5.87,16.87-12.52,35.99-15.09,53.6-3.2,21.92-1.42,41.43,5.31,58l.19.46-1.85.75ZM270.37,198.04c-2.11,7.52-3.86,15.05-4.92,22.33-1.31,8.99-1.79,17.58-1.44,25.74-.35-8.16.13-16.75,1.44-25.74,1.06-7.28,2.82-14.81,4.92-22.33ZM282.51,161.03l77.71-7.99-77.71,7.99Z" style="fill: #fff;"/>
  <path d="M304.3,153.87l-.38-.33c-6.21-5.39-13.13-9.92-20.56-13.45-4.53-2.16-8.98-4.65-9.31-9.29-.17-2.37.89-4.49,2.09-6.63,2.43-4.33,5.02-8.65,7.71-12.84.72-1.13.89-2.51.46-3.78-.45-1.32-1.46-2.35-2.79-2.82-3.68-1.32-7.06-3.23-10.04-5.68-1.38-1.14-2.23-2.73-2.38-4.47-.15-1.75.39-3.44,1.54-4.77,6.13-7.13,12.67-14.05,19.45-20.57l.9-.86c4.63-4.44,9.42-9.03,11.79-14.87l.19-.46,1.85.75-.19.46c-2.53,6.24-7.47,10.98-12.26,15.56l-.9.86c-6.73,6.47-13.22,13.34-19.32,20.43-.79.92-1.16,2.09-1.06,3.3.1,1.21.68,2.3,1.61,3.06,2.84,2.33,6.03,4.14,9.5,5.38,1.9.68,3.36,2.16,4,4.06.63,1.85.39,3.86-.67,5.51-2.66,4.15-5.23,8.43-7.65,12.73-1.04,1.86-1.97,3.68-1.84,5.51.25,3.57,4.18,5.73,8.17,7.63,7.59,3.61,14.66,8.24,21.01,13.75l.38.33-1.31,1.51ZM285.48,108.1c.22,1.31-.05,2.65-.78,3.78-2.67,4.17-5.26,8.47-7.68,12.79-1.12,2-2.12,3.97-1.97,6.07.29,4.11,4.48,6.43,8.74,8.46,7.36,3.5,14.22,7.97,20.4,13.28h0c-6.18-5.31-13.05-9.77-20.4-13.28-4.26-2.03-8.45-4.35-8.74-8.46-.15-2.1.84-4.07,1.97-6.07,2.42-4.32,5.01-8.62,7.68-12.79.73-1.13,1-2.47.78-3.78ZM272.07,98.24s.03.03.05.04c2.9,2.38,6.18,4.23,9.75,5.51,1.38.5,2.49,1.49,3.12,2.78-.63-1.29-1.74-2.29-3.12-2.78-3.57-1.28-6.87-3.15-9.79-5.55,0,0,0,0,0,0ZM270.27,92.58c-.17.61-.22,1.26-.17,1.91.07.81.31,1.57.7,2.24-.39-.68-.63-1.44-.7-2.24-.06-.65,0-1.3.17-1.91ZM277.65,83.41s0,0,0,0c0,0,0,0,0,0ZM297.02,63.76c-1.71,1.85-3.54,3.6-5.35,5.33l-.9.86c-4.5,4.32-8.89,8.82-13.12,13.45,4.24-4.63,8.63-9.13,13.13-13.45l.9-.86c1.81-1.73,3.64-3.49,5.35-5.33Z" style="fill: #fff;"/>
  <path d="M305.66,80.27h-.2c-3.78-.05-7.54-1.54-10.33-4.09l-.37-.34,1.35-1.48.37.34c2.43,2.22,5.71,3.52,9.01,3.57,3.24.06,6.59-1.15,9.1-3.33l.38-.33,1.31,1.51-.38.33c-2.8,2.43-6.53,3.82-10.24,3.82ZM304.99,79.25c.16,0,.32.01.48.01h0-.01c-.16,0-.32,0-.48-.01ZM296.18,75.77c.96.82,2.04,1.51,3.19,2.06-1.15-.55-2.22-1.24-3.19-2.06h0Z" style="fill: #fff;"/>
  <path d="M278.34,134.83c-.81,0-1.61-.04-2.38-.13l-.5-.06.22-1.99.5.06c3.72.42,7.92-.27,12.82-2.08,2.24-.83,4.45-1.82,6.59-2.77,1.94-.86,3.91-1.74,5.9-2.51l.47-.18.72,1.87-.47.18c-1.97.76-3.92,1.63-5.8,2.47-2.18.97-4.42,1.97-6.71,2.82-4.22,1.57-7.93,2.33-11.35,2.33ZM276.57,133.75c3.58.3,7.47-.32,11.98-1.9-4.5,1.58-8.43,2.21-11.98,1.9h0ZM296.62,128.49c-.2.09-.4.18-.59.26-.31.14-.61.27-.92.41.3-.13.59-.26.89-.4.21-.09.42-.19.63-.28ZM301.38,126.46c-.16.06-.32.13-.48.19.16-.06.32-.13.48-.19h0Z" style="fill: #fff;"/>
  <path d="M366.87,80.52l-1.24-1.57.39-.31c5.94-4.68,8.36-13.23,5.76-20.32-.47-1.28-.99-2.21-1.63-2.9-.41-.45-.93-.84-1.51-1.15.07,1.95-.03,4.37-1.11,6.47-1.27,2.48-3.81,3.98-6.2,3.67-1.51-.2-2.88-1.15-3.74-2.61-.98-1.66-1.18-3.74-.52-5.43,1.3-3.33,4.89-4.88,7.87-4.94.51,0,1,.02,1.48.08-.26-2.02-.73-3.76-1.44-5.28-2.25-4.86-7.52-8.21-13.11-8.36-5.39-.17-10.82,2.61-14.18,7.18-.82,1.12-1.53,2.36-2.1,3.69,1.14,2.7,1.71,5.94,1.63,9.38-.02,1.01-.11,2.17-.83,3.14-.47.64-1.26,1.07-2.06,1.14-.68.05-1.31-.16-1.77-.6l-.23-.23-.06-.32c-.75-4.15-.34-8.57,1.15-12.48-.88-1.83-2.08-3.31-3.56-4.41-2.6-1.93-6.07-2.62-9.12-3.23-1.02-.2-2.17-.42-3.24-.39.41,2.6.42,5.23.43,7.78,0,.76.01,3.08-1.83,3.78-.63.24-1.3.2-1.92-.1-1.13-.56-1.88-1.91-2.21-2.98-.99-3.26-1-7.45,1.95-9.45.37-.25.78-.46,1.22-.62-.05-.18-.09-.36-.14-.53-.98-3.41-2.97-6.1-5.49-7.37-1.46-.74-3.24-1.12-5.6-1.19-4.79-.15-9.55.94-13.8,3.16-1.88.98-5.08,3.09-5.27,6.13-.08,1.23.35,2.51.79,3.59,1.66,4.17,4.28,7.98,7.57,11.03l.37.34-1.36,1.47-.37-.34c-3.51-3.25-6.3-7.31-8.07-11.76-.52-1.29-1.03-2.84-.92-4.46.26-4.02,4.08-6.6,6.34-7.78,4.54-2.37,9.64-3.54,14.79-3.39,2.67.08,4.71.53,6.45,1.41,3,1.52,5.37,4.66,6.5,8.61.07.23.13.46.19.7,1.36-.08,2.79.17,4.03.42,3.26.65,6.96,1.38,9.93,3.58,1.32.98,2.46,2.24,3.39,3.74.49-.93,1.04-1.82,1.64-2.64,3.74-5.08,9.8-8.13,15.84-7.99,6.33.16,12.31,3.99,14.87,9.52.88,1.89,1.43,4.06,1.69,6.62,1.23.45,2.31,1.16,3.13,2.05.83.9,1.47,2.03,2.04,3.57,2.89,7.89.2,17.38-6.4,22.58l-.39.31ZM371.96,56.24c.28.5.53,1.08.77,1.73,2.44,6.65.69,14.52-4.12,19.65,4.81-5.14,6.56-13,4.12-19.65-.24-.65-.49-1.23-.77-1.73ZM366.82,59.92c-.06.12-.11.24-.17.36-.49.95-1.32,1.9-2.35,2.51.95-.55,1.79-1.42,2.35-2.51.06-.12.12-.24.17-.36ZM365.13,53.42h-.15c-2.73.05-5.21,1.56-6.04,3.67-.44,1.13-.3,2.54.38,3.69.56.94,1.37,1.53,2.28,1.65,1.82.24,3.43-1.18,4.15-2.6.92-1.79.96-3.94.88-5.8,0-.16-.01-.31-.02-.47-.48-.09-.98-.14-1.48-.14ZM333.59,61.29c.2.09.43.12.66.1-.24.01-.47-.02-.66-.1ZM335.78,60.34c-.06.11-.12.21-.19.31-.02.03-.04.06-.07.08.02-.03.04-.06.07-.08.07-.1.14-.2.19-.31ZM334.54,51.86c-.7,2.77-.83,5.69-.39,8.53,0,0,.01,0,.02,0,.22-.02.48-.16.61-.34.37-.5.42-1.28.43-1.98.03-1.32-.04-3.69-.68-6.2ZM335,49.95c1.15,3.21,1.26,6.48,1.22,8.14,0,.23-.01.46-.03.69.02-.23.03-.47.03-.69.07-2.95-.35-5.74-1.22-8.14ZM363.08,52.67c-2.12.51-4.2,1.82-5.07,4.06-.08.21-.15.42-.2.64.05-.22.12-.43.2-.64.77-1.97,2.73-3.49,5.07-4.06ZM367.63,53.88s0,.07,0,.11c0,.22.02.44.02.67,0-.23-.01-.46-.02-.67v-.11ZM367.94,52.87l.34.13c.91.35,1.71.86,2.36,1.48-.73-.71-1.66-1.26-2.7-1.61ZM284.37,42.49c.1.28.2.55.3.81,1.65,4.15,4.23,7.96,7.46,11.05h0c-3.23-3.09-5.81-6.9-7.46-11.05-.1-.26-.21-.53-.3-.81ZM365.5,52.43c.58.02,1.15.1,1.7.23l.36.09.02.37s0,.08,0,.12l-.04-.52-.66-.13c-.45-.09-.92-.14-1.4-.16ZM365.11,52.42c-.05,0-.1,0-.16,0-.08,0-.16,0-.24,0,.08,0,.16,0,.24,0h.16ZM366.14,46.35c.69,1.65,1.13,3.52,1.35,5.7v.07c-.21-2.23-.65-4.09-1.35-5.76ZM314.81,51.38c.11.04.22.06.34.07-.11,0-.22-.03-.34-.07ZM315.84,51.32s-.07.03-.1.04c-.02,0-.04.02-.06.02.02,0,.04-.01.06-.02.04-.01.07-.03.1-.04ZM312.67,48c.07.31.15.62.25.93.18.6.54,1.35,1.04,1.87-.5-.53-.85-1.27-1.04-1.87-.09-.3-.17-.61-.25-.93ZM316.32,39.83l.1.54c.48,2.69.5,5.47.51,8.15,0,.83-.1,1.48-.31,1.96.31-.7.31-1.58.31-1.96-.01-2.69-.02-5.47-.51-8.16l-.1-.53ZM315.53,41.13c-.17.08-.34.17-.5.28-2.05,1.4-1.94,4.64-1.16,7.22.25.81.74,1.56,1.18,1.77.14.07.24.06.33.03.35-.13.54-.82.54-1.9,0-2.45-.02-4.97-.39-7.39ZM334.26,48.2c.05.11.11.22.16.33l.07.14v-.03s-.23-.44-.23-.44ZM334.53,48.63v.03s.06-.12.06-.12c.08-.19.16-.38.25-.57l-.31.67ZM324.02,40.81c.75.18,1.49.39,2.23.64-.74-.25-1.48-.45-2.23-.64ZM324.01,40.81s0,0,0,0c0,0,0,0,0,0ZM351.61,36.86c.1,0,.2,0,.3,0,3.6.09,7.07,1.44,9.79,3.63-2.72-2.2-6.2-3.54-9.79-3.63-.1,0-.2,0-.3,0ZM316.07,39.89l-.21.06c-.45.12-.85.3-1.22.53.35-.22.74-.38,1.15-.5l.28-.08ZM317.62,39.74c.78,0,1.57.1,2.32.23-1.04-.18-2.15-.3-3.18-.19h-.13s.23,0,.23,0c.25-.02.51-.04.76-.04ZM290.85,31.71c-.41.19-.82.39-1.22.6-2.07,1.08-5.58,3.42-5.81,6.96-.01.18-.01.36,0,.54,0-.18,0-.36,0-.54.23-3.54,3.74-5.88,5.81-6.96.4-.21.81-.41,1.22-.6ZM316.03,38.63c.06.22.11.44.17.66-.05-.22-.11-.44-.17-.66ZM309.51,30.13c.15.07.29.14.44.21,2.01,1.02,3.71,2.84,4.9,5.17-1.18-2.33-2.89-4.16-4.9-5.17-.14-.07-.29-.14-.44-.21ZM303.6,29.03c.11,0,.21,0,.32,0,.68.02,1.31.07,1.91.14-.6-.07-1.23-.12-1.91-.14-.11,0-.21,0-.32,0Z" style="fill: #fff;"/>
  <path d="M343.79,153.48l-.37-.34c-2.96-2.73-4.44-7.09-4.39-12.97,0-1.35.08-2.71.15-4.04.16-3.01.33-6.09-.25-9l-.1-.49,1.96-.39.1.49c.63,3.15.46,6.37.29,9.47-.07,1.33-.14,2.67-.15,3.97-.04,5.29,1.22,9.15,3.75,11.48l.37.34-1.36,1.47ZM340.06,138.73c-.02.49-.03.97-.03,1.45,0,.28,0,.55,0,.82,0-.27,0-.54,0-.82,0-.48.02-.97.03-1.45ZM340,127.44c.21,1.19.3,2.39.33,3.6-.03-1.21-.12-2.41-.33-3.6h0Z" style="fill: #fff;"/>
  <path d="M349.33,312.66l-.13-.48c-7.78-27.86-7.53-54.55-4.78-86.07,1.16-13.21,3.02-28.66,8.09-43.04.74-2.1,1.56-4.21,2.35-6.26,2.59-6.68,5.25-13.52,5.52-20.58l.02-.5,2,.08-.02.5c-.29,7.4-3,14.39-5.63,21.16-.8,2.07-1.62,4.19-2.36,6.27-5,14.18-6.84,29.47-7.99,42.55-2.74,31.29-2.98,57.78,4.71,85.35l.13.48-1.93.54ZM344.82,233.45c-1.74,22.97-1.84,43.5,2,64.09-3.84-20.59-3.74-41.12-2-64.09ZM353.92,182.1c-.16.43-.31.87-.47,1.3-1.57,4.45-2.83,9-3.85,13.55,1.03-4.56,2.29-9.11,3.85-13.55.15-.43.31-.87.47-1.3ZM357.19,173.54c-.45,1.2-.91,2.38-1.37,3.56-.15.39-.3.77-.45,1.15.15-.38.29-.76.44-1.13.46-1.19.92-2.38,1.38-3.59ZM361.36,156.77c-.09,1.74-.33,3.46-.66,5.16.33-1.7.56-3.43.66-5.16h0Z" style="fill: #fff;"/>
  <path d="M386.56,289.2c-1.59,0-3.21-.87-4.44-1.64-12.96-8.01-24.94-16.29-29.21-29.42-2.36-7.25-1.91-15.19-1.51-22.2.84-14.74,1.71-29.97,5.47-44.58,1.9-7.35,11.36-35.34,23.02-37.9,3.51-.78,6.85.74,9.92,4.51,2.69,3.3,4.11,7.41,5.33,11.35,2.05,6.62,3.83,13.41,5.28,20.19,1.34,6.25,2.87,14.52,2.86,23.06,0,6.71-.96,13.42-1.88,19.9l-2.89,20.35c-1.54,10.88-3.14,22.13-7.5,32.53-.53,1.26-1.21,2.66-2.59,3.39-.57.3-1.21.45-1.88.45ZM385.17,287.96c.99.32,1.99.34,2.81-.1.14-.07.27-.15.39-.24-.12.09-.25.17-.39.24-.88.46-1.84.4-2.81.1ZM358.81,191.92c-3.71,14.4-4.57,29.52-5.4,44.14-.39,6.83-.83,14.58,1.41,21.47,4.06,12.48,15.73,20.53,28.36,28.34,1.46.9,3.12,1.74,4.34,1.11.8-.42,1.28-1.45,1.67-2.39,4.26-10.16,5.84-21.28,7.36-32.04l2.88-20.33c.91-6.42,1.86-13.07,1.86-19.65,0-8.36-1.5-16.49-2.82-22.64-1.44-6.72-3.2-13.45-5.23-20.01-1.16-3.75-2.5-7.65-4.97-10.67-2.56-3.13-5.23-4.42-7.94-3.82-10.56,2.32-19.79,29.77-21.51,36.44v.05ZM354.84,260.42c3.04,7.14,8.55,12.79,15.18,17.83-6.63-5.04-12.15-10.69-15.18-17.83ZM400.58,231.27c-.05.37-.1.73-.16,1.09l-2.88,20.33c-.95,6.71-1.92,13.56-3.55,20.25,1.63-6.69,2.6-13.54,3.55-20.25l2.88-20.33c.05-.36.1-.73.16-1.09ZM354.83,260.42s0,0,0,0c0,0,0,0,0,0ZM357.73,192.1c-3.12,12.33-4.19,25.14-4.96,37.71.76-12.57,1.84-25.38,4.96-37.71h0ZM402.28,213.79h0s0,0,0,0ZM402.3,212.53v.04c0,.4,0,.8-.01,1.21,0-.4.01-.8.01-1.21v-.04ZM396.49,177.52c1.1,4.04,2.09,8.12,2.96,12.2.56,2.62,1.16,5.6,1.66,8.81-.5-3.21-1.1-6.19-1.66-8.81-.87-4.07-1.86-8.16-2.96-12.2ZM357.89,191.47c-.01.05-.03.1-.04.15-.02.07-.04.14-.05.21l.09-.36ZM357.98,191.13h0c2.02-7.45,11.12-33.71,21.77-36.6-10.76,2.9-19.67,28.79-21.77,36.6ZM381.64,154.28c2.57,0,5.06,1.45,7.41,4.33,2.44,2.99,3.81,6.76,4.96,10.41-1.15-3.65-2.51-7.42-4.96-10.41-2.73-3.34-5.64-4.76-8.64-4.22.41-.07.83-.11,1.23-.11Z" style="fill: #fff;"/>
  <path d="M328.14,284.01v-.5c-.48-25.74,1.43-51.66,5.67-77.04,1.58-9.44,3.57-19.35,9.07-27.71l.28-.42,1.67,1.1-.27.42c-5.28,8.03-7.23,17.71-8.77,26.94-4.22,25.26-6.12,51.06-5.65,76.68v.5s-1.99.04-1.99.04ZM329.54,255.84c-.43,9.05-.57,18.11-.42,27.15h0c-.15-9.04-.01-18.1.42-27.15ZM338.37,190.76h0s0,0,0,0ZM343.44,179.72c-2.21,3.46-3.83,7.19-5.08,11.04,1.25-3.85,2.87-7.59,5.08-11.04h0Z" style="fill: #fff;"/>
  <path d="M298.02,270.14l-1.94-.5.13-.48c3.74-14.38,5.54-29.2,5.33-44.06-.06-4.22-.28-9.76-1.48-15.16-1.16-5.24-3.15-10.18-5.77-15.99l-.21-.46,1.82-.82.21.46c2.67,5.92,4.7,10.98,5.9,16.38,1.24,5.58,1.46,11.25,1.52,15.57.2,15.03-1.61,30.03-5.4,44.59l-.13.48ZM297.3,268.92h0c2.02-7.87,3.47-15.88,4.32-23.94-.86,8.07-2.3,16.07-4.32,23.94ZM302.52,223.74c0,.46.02.91.02,1.34.03,2.33.01,4.67-.05,7,.07-2.33.08-4.66.05-7,0-.43-.01-.88-.02-1.34ZM300.59,207.83c.16.62.32,1.25.46,1.89.43,1.94.74,3.89.96,5.79-.22-1.9-.53-3.85-.96-5.79-.14-.63-.29-1.26-.46-1.89ZM295.42,193.99c.41.92.81,1.81,1.19,2.7-.38-.88-.77-1.78-1.19-2.7h0Z" style="fill: #fff;"/>
  <path d="M270.05,320.7l-1.26-1.55.39-.31c17.67-14.28,36.8-26.92,56.87-37.58l.44-.23.94,1.77-.44.23c-19.95,10.59-38.98,23.16-56.55,37.37l-.39.31ZM289.02,305.13c-5.12,3.59-10.15,7.32-15.07,11.18,4.92-3.85,9.95-7.58,15.07-11.18Z" style="fill: #fff;"/>
  <path d="M270.68,320.48l-.2-.46c-3.42-7.8-7.01-15.15-13.14-19.4l-1.4-.97,1.53-.75c14.96-7.35,28.34-17.23,39.76-29.39l-.61-.09.07-.5c.05-.36.25-.66.53-.85l-.04-.19.14.12c.18-.1.39-.16.62-.17.72,0,1.36.46,1.49,1.15.17.89-.44,1.55-.71,1.83-11.22,11.95-24.31,21.75-38.92,29.13,5.76,4.63,9.21,11.75,12.5,19.25l.2.46-1.83.8ZM257.9,299.8h0c6.22,4.31,9.86,11.6,13.28,19.36h0c-3.3-7.48-6.78-14.51-12.62-18.88l-.65-.49.73-.36c5.4-2.69,10.58-5.71,15.55-9.04-5.19,3.49-10.63,6.63-16.29,9.41h0ZM274.21,290.37s0,0,0,0c0,0,0,0,0,0ZM298.28,269.8c-.06.09-.14.19-.22.27.07-.08.15-.17.22-.27Z" style="fill: #fff;"/>
  <path d="M272.87,412.73c-.21,0-.4-.06-.57-.18-8.51.13-17.17-.03-25.55-.18-3.92-.07-7.77-.14-11.62-.18h-.82s-.15-.82-.15-.82c-4.73-25.45-9.62-51.77-8.89-78.2.11-3.95.34-8.53,1.74-12.86,1.18-3.66,3.17-7.24,6.45-11.62,11.63-15.52,27.79-25.54,44.35-27.47l.5-.06.23,1.99-.5.06c-16.01,1.87-31.68,11.6-42.98,26.68-3.14,4.19-5.04,7.59-6.14,11.03-1.32,4.09-1.54,8.49-1.64,12.31-.72,26.07,4.06,51.95,8.71,76.97,3.57.04,7.15.11,10.72.17,8.29.15,16.84.3,25.33.18l-.03-.04.13-.04c.03-.13.06-.26.1-.37-3.65-19.35-7.4-39.35-4.83-59.63.33-2.59.83-5.55,2.6-7.88,1.79-2.36,5.35-3.88,8.2-2.35l.44.24-.95,1.76-.44-.24c-1.91-1.03-4.38.11-5.67,1.8-1.48,1.94-1.91,4.59-2.21,6.92-2.53,20.03,1.27,40.19,4.94,59.69l.08.45-.34.1c0,.07-.02.16-.03.22-.08.62-.18,1.43-1.03,1.54h-.14ZM272.87,411.73v.5s.01-.5.01-.5c.04-.03.07-.12.09-.22l-.42.04h.14s.15.16.15.16l.03.52v-.5ZM245.18,411.35l1.51.03c8.41.15,17.03.3,25.49.18-8.56.12-17.17-.03-25.49-.18-.5,0-1.01-.02-1.51-.03ZM235.13,411.2l-.07-.4c-.18-.96-.36-1.93-.54-2.9.2,1.1.41,2.2.61,3.3h0ZM273.14,410.5l.04.02.07-.06c-.05-.03-.08-.02-.1,0,0,.01,0,.02-.01.03ZM268.42,350.36c-.01.08-.02.16-.03.25-2.43,19.24.87,38.3,4.34,56.78-3.48-18.57-6.76-37.7-4.34-56.78.01-.08.02-.16.03-.25ZM275.68,340.62c-1.1,0-2.21.38-3.16.99,1.41-.91,3.17-1.31,4.72-.71-.5-.19-1.03-.28-1.56-.28ZM226.39,330.02c-.06,1.09-.1,2.16-.13,3.18-.04,1.4-.06,2.8-.07,4.21,0-1.4.03-2.8.07-4.21.03-1.02.06-2.09.13-3.18ZM228.73,318.49c-.3.71-.56,1.42-.79,2.13-.41,1.27-.72,2.57-.95,3.86.23-1.3.54-2.59.95-3.86.23-.71.49-1.42.79-2.13ZM277.41,282.28c-16.11,2.04-31.82,11.87-43.17,27.02-.58.77-1.11,1.51-1.61,2.24.5-.72,1.03-1.47,1.61-2.24,11.35-15.15,27.06-24.97,43.17-27.02h0Z" style="fill: #fff;"/>
  <path d="M287.46,419.92l-.12-.48c-6.42-24.97-9.55-50.7-9.32-76.48v-.5s2,.02,2,.02v.5c-.24,25.61,2.87,51.16,9.25,75.96l.12.49-1.94.5ZM279.01,343.46c-.19,25.36,2.89,50.67,9.17,75.24h0c-6.27-24.57-9.36-49.88-9.17-75.24h0Z" style="fill: #fff;"/>
  <path d="M254.21,429.53l-1.58-6.67c-.78-3.29-1.58-6.68-1.95-10.13l-.05-.5,1.99-.21.05.5c.36,3.31,1.14,6.64,1.9,9.85l1.06,4.5,5.48-2.04c2.18-.81,4.36-1.63,6.55-2.44,6.18-2.29,13.15-4.87,20.29-4.52l.5.02-.1,2-.5-.03c-6.73-.32-13.49,2.17-19.46,4.38-2.09.78-4.14,1.54-6.18,2.3l-.4.15c-2.18.81-4.36,1.63-6.55,2.44l-1.06.39ZM260.69,426.05l-4.93,1.83c1.65-.61,3.29-1.22,4.93-1.83ZM286.61,418.84c-6.28,0-12.46,2.21-18,4.27,5.56-2.06,11.74-4.27,18.02-4.27h.11s-.08,0-.12,0ZM252.32,416.84c.2,1.03.42,2.05.65,3.06-.23-1.01-.45-2.04-.65-3.06ZM252.32,416.83s0,0,0,0c0,0,0,0,0,0Z" style="fill: #fff;"/>
  <path d="M242.68,446.24l-1.98-.3.08-.49c.84-5.43-.41-11.54-1.73-18.02-1.09-5.36-2.23-10.91-2.13-16.21v-.5s2.01.04,2.01.04v.5c-.11,5.08,1,10.52,2.08,15.77,1.36,6.65,2.64,12.94,1.75,18.72l-.08.49ZM237.91,411.73c0,.78.02,1.58.07,2.37-.05-.8-.07-1.59-.07-2.37h0Z" style="fill: #fff;"/>
  <path d="M248.49,475.53v-1.34c-.03-2.44-.36-2.82-2.42-4.13l-.42-.27,1.07-1.69.42.27c2.19,1.39,3.06,2.31,3.28,4.52,3.54-.88,7.82-1.15,12.75-.83l-1.44-7.72c-.77-4.11-1.56-8.35-2.88-12.35-.5-1.52-1.1-3.05-1.67-4.53-.83-2.14-1.68-4.33-2.31-6.61-.65-2.37-.33-5.14-.01-7.82.22-1.9.43-3.69.28-5.19l-.05-.5,1.99-.19.05.5c.17,1.72-.05,3.61-.29,5.61-.29,2.49-.59,5.07-.04,7.06.59,2.17,1.43,4.32,2.24,6.4.59,1.52,1.19,3.08,1.71,4.64,1.36,4.12,2.17,8.44,2.94,12.61l1.92,10.3-1.31-.11c-5.82-.5-10.71-.17-14.53.99l-1.28.39ZM249.47,473.57c0,.19.01.4.02.62,1.92-.58,4.1-.96,6.51-1.14-2.16.16-4.13.48-5.89.96l-.6.16-.03-.6ZM259.32,472.93c1.6,0,3.3.08,5.07.23h0s-.65-.05-.65-.05c-1.7-.13-3.31-.18-4.86-.17.14,0,.29,0,.44,0ZM256,473.05h0,0ZM248.92,471.23c.27.46.42,1,.5,1.72-.08-.72-.23-1.26-.5-1.72ZM256.45,442.6c.51,1.53,1.09,3.02,1.66,4.49.19.49.38.98.57,1.47-.19-.49-.37-.97-.56-1.45-.57-1.48-1.16-2.98-1.67-4.51ZM255.56,439.06c.05.53.14,1.04.27,1.52.07.25.14.5.21.75-.07-.25-.15-.5-.21-.75-.13-.48-.22-.99-.27-1.52ZM256.18,428.25c.06,1.28-.07,2.69-.24,4.18.17-1.48.3-2.89.24-4.18h0Z" style="fill: #fff;"/>
  <path d="M209.14,481.3c-2.4,0-4.59-.49-6.68-1.49-2.64-1.27-4.22-3.31-4.23-5.45,0-2.74,2.21-4.85,6.59-6.27,1.25-.4,2.5-.8,3.75-1.19l.23-.07c5.72-1.8,11.63-3.66,16.97-6.46,5.18-2.71,11.99-7.54,15.06-15.16l.19-.46,1.86.75-.19.46c-3.29,8.18-10.51,13.32-15.99,16.18-5.5,2.88-11.49,4.76-17.29,6.59l-.23.07c-1.25.39-2.49.79-3.74,1.19-2.38.77-5.21,2.15-5.2,4.36,0,2.02,2.36,3.3,3.09,3.65,7.17,3.43,15.33-.71,23.22-4.72,1.92-.98,3.67-1.86,5.42-2.67l1.07-.49c2.35-1.09,4.77-2.22,7.4-2.64,3.64-.6,7.01.39,9.01,2.64l.33.37-1.5,1.33-.33-.37c-1.81-2.04-4.91-2.36-7.19-2-2.37.39-4.66,1.45-6.88,2.49l-1.08.5c-1.73.79-3.48,1.68-5.32,2.62-6.05,3.08-12.28,6.25-18.34,6.25ZM200.18,476.85c.63.8,1.55,1.51,2.71,2.06,1.95.93,3.99,1.39,6.25,1.39,5.82,0,11.94-3.11,17.86-6.12,1.88-.96,3.63-1.85,5.38-2.65l1.07-.5c.41-.19.82-.38,1.23-.57-.41.19-.82.38-1.22.56l-1.08.5c-1.74.79-3.48,1.68-5.32,2.61-8.17,4.16-16.56,8.42-24.17,4.77-.53-.26-1.82-.95-2.71-2.06ZM199.23,474.36h0v.03-.03h0ZM199.23,474.34h0ZM204.94,469.11c-3.78,1.26-5.7,3.02-5.71,5.23,0-2.18,1.98-3.99,5.71-5.23ZM242.4,468.33c2.06,0,4.34.56,5.95,2.1h0c-1.76-1.69-4.52-2.43-7.53-1.99.5-.07,1.03-.11,1.58-.11ZM210,467.5c-.3.09-.6.19-.9.28l-.23.07c-.99.31-1.98.62-2.96.94.98-.32,1.97-.63,2.96-.94l.23-.07c.3-.09.6-.19.9-.28ZM230.09,459c-1.33.88-2.63,1.63-3.85,2.27-1.51.79-3.07,1.51-4.65,2.17,1.58-.66,3.14-1.38,4.65-2.17,1.22-.64,2.52-1.39,3.85-2.27Z" style="fill: #fff;"/>
  <path d="M258.79,452.25l-.39-1.96.49-.1c2-.4,3.85-1.87,5.67-4.49,4.41-6.39,5.87-14.69,3.91-22.2l-.13-.48,1.93-.51.13.48c2.11,8.07.54,16.98-4.2,23.84-2.12,3.07-4.39,4.81-6.92,5.32l-.49.1Z" style="fill: #fff;"/>
  <path d="M278.48,472.95l.03-1.11c.08-3.02-.24-6.04-.94-8.98-4.64,1.74-9.48,2.98-14.38,3.71l-.5.07-.29-1.98.5-.07c5.12-.75,10.17-2.09,14.99-3.99l1.04-.41.29,1.07c.85,3.11,1.29,6.31,1.3,9.53,3.12-.24,6.58-.49,10.12-.42-.84-13.66-3.1-27.28-6.73-40.47l-.11-.39c-.83-3-1.68-6.1-1.29-9.28l.06-.5,1.99.24-.06.5c-.34,2.8.46,5.7,1.24,8.51l.11.39c3.76,13.68,6.07,27.8,6.86,41.98l.06,1.1-1.1-.04c-4.02-.17-7.86.14-11.92.45l-1.27.1ZM279.48,469.22c.04.88.05,1.76.03,2.65h.14c3.19-.26,6.22-.5,9.33-.51-3.08.02-6.04.25-8.92.47l-.54.04v-.55c.01-.7,0-1.4-.03-2.1ZM291.29,471.39c.14,0,.28,0,.42.01h0s-.42-.01-.42-.01ZM263.53,465.5h0c1.12-.17,2.24-.37,3.36-.6-1.11.23-2.23.43-3.36.6ZM284.18,427.02c.18.74.39,1.47.59,2.2l.11.41c3.16,11.5,5.29,23.32,6.35,35.21-1.06-11.89-3.19-23.71-6.35-35.21l-.11-.39c-.2-.73-.41-1.47-.59-2.22ZM278.35,461.89l.05.18c.09.36.18.72.26,1.08-.09-.42-.2-.84-.31-1.26ZM275.95,462.38s0,0,0,0c0,0,0,0,0,0ZM275.97,462.38s0,0,0,0c0,0,0,0,0,0ZM277.16,461.95c-.39.15-.79.29-1.18.43.4-.14.79-.28,1.18-.43ZM277.17,461.94s0,0,0,0c0,0,0,0,0,0ZM277.18,461.94h0s0,0,0,0ZM278.25,461.53h0c-.16.06-.31.12-.47.18l.47-.18s0,0,0,0Z" style="fill: #fff;"/>
  <path d="M366.27,321.43c-.08,0-.16,0-.23-.01-.5-.06-.93-.31-1.23-.72l-.29-.41,1.62-1.18.21.3c.16-.04.45-.17.76-.44,4.61-3.95,9.38-8.04,12.88-13.07,3.85-5.52,5.52-11.49,4.71-16.82l-.08-.49,1.98-.3.08.49c.89,5.83-.9,12.32-5.04,18.26-3.65,5.23-8.51,9.4-13.21,13.44-.33.28-1.19.93-2.15.93ZM366.06,320.41s.06.01.09.02c.55.05,1.19-.32,1.61-.68.26-.23.53-.45.79-.68-.27.23-.53.46-.79.68-.41.35-1.09.74-1.6.68-.03,0-.07,0-.1-.02h0ZM384.55,299.28c-.85,2.43-2.11,4.86-3.75,7.21-.7,1.01-1.46,1.98-2.25,2.92.79-.94,1.54-1.91,2.25-2.92,1.63-2.35,2.89-4.77,3.75-7.21Z" style="fill: #fff;"/>
  <path d="M361.69,353.72c-2.17,0-4.53-.05-7.01-.15-10.39-.42-17.35-1.16-24.71-1.96-5.25-.56-10.67-1.15-17.72-1.65l-1.55-.1c-7.68-.5-28.07-1.82-32.16-7.45-.77-1.06-1-2.21-.69-3.44,1.86-7.33,7.07-14.72,13.94-19.77,6.49-4.78,14.66-7.98,24.99-9.8,10.66-1.88,26.35-2.66,40.57,4.32,13.36,6.56,22.52,19.32,23.33,32.49.08,1.32.04,2.84-.87,4.02-.83,1.08-3.55,1.97-4.69,2.31-2.6.77-7.24,1.18-13.42,1.18ZM324.17,350c2.04.21,3.98.42,5.9.62,7.35.79,14.29,1.54,24.64,1.95.48.02.96.04,1.43.05-.47-.02-.94-.03-1.43-.05-10.37-.42-17.3-1.16-24.64-1.95-1.92-.21-3.87-.42-5.9-.62ZM377.67,350.51c-1.16.55-2.61.99-2.85,1.06-.92.27-2.52.61-5.24.85,2.22-.19,3.98-.48,5.24-.85.92-.27,2-.66,2.85-1.06ZM331.2,310.1c-4.56,0-9.3.43-14.08,1.27-10.02,1.77-17.92,4.86-24.15,9.45-6.51,4.79-11.44,11.76-13.19,18.65-.16.64-.04,1.2.37,1.77,2.35,3.23,12.67,5.46,30.67,6.63l1.56.1c7.06.5,12.5,1.09,17.77,1.65,7.34.79,14.26,1.53,24.6,1.95,12.71.51,17.85-.38,19.79-.95,1.88-.56,3.42-1.29,3.68-1.62.5-.65.52-1.67.46-2.67-.77-12.47-9.49-24.56-22.21-30.81-7.32-3.6-15.82-5.42-25.26-5.42ZM289.86,346.43c7.32,1.56,16.36,2.14,20.89,2.43l1.56.1c2.21.16,4.26.32,6.2.49-1.94-.17-3.99-.33-6.2-.49l-1.56-.1c-6.61-.43-14.56-1.1-20.89-2.43ZM278.76,339.46c-.14.79.01,1.53.48,2.23-.46-.7-.62-1.45-.48-2.23ZM284.3,328.05c-1.06,1.42-2,2.9-2.81,4.41.81-1.51,1.75-2.98,2.81-4.41ZM367.07,321.53s0,0,0,0c0,0,0,0,0,0ZM348.3,311.34c3.01.85,5.88,1.95,8.6,3.28,3.76,1.85,7.19,4.2,10.17,6.91-2.98-2.71-6.41-5.07-10.17-6.91-2.82-1.39-5.71-2.46-8.6-3.28ZM311.68,311.48c-3.12.76-6.01,1.66-8.69,2.73,2.68-1.07,5.58-1.97,8.69-2.73ZM328.5,309.15h-.02.02ZM331.2,309.1c-.91,0-1.81.02-2.7.05,1.3-.05,2.59-.06,3.87-.04-.39,0-.78,0-1.17,0ZM332.38,309.11h0,0Z" style="fill: #fff;"/>
  <path d="M332.83,424.88l-2-.02v-.5c.14-11.89-1.41-23.96-2.92-35.62-1.61-12.51-3.28-25.43-2.89-38.26l.02-.5,2,.06v.5c-.4,12.66,1.25,25.5,2.85,37.91,1.52,11.76,3.08,23.89,2.94,35.93v.5ZM331.84,423.86h0c.05-6.47-.39-12.97-1.04-19.43.65,6.46,1.09,12.96,1.04,19.43ZM326.01,351.01c-.25,9.28.58,18.62,1.67,27.83-1.09-9.21-1.92-18.55-1.67-27.83h0Z" style="fill: #fff;"/>
  <path d="M295,455.15l-.04-.5c-.26-3.15,1.07-6.02,2.46-8.7,3.64-7.01,9.6-16.84,19.37-21.33,2.22-1.02,4.79-1.83,7.86-2.47,11.55-2.43,24.1-1.28,35.33,3.22,11.04,4.43,20.76,11.92,28.11,21.68l.3.4-1.6,1.2-.3-.4c-7.13-9.46-16.56-16.74-27.26-21.03-10.86-4.36-23-5.47-34.17-3.12-2.91.61-5.35,1.38-7.43,2.33-9.21,4.23-14.93,13.69-18.44,20.43-1.25,2.42-2.46,4.99-2.24,7.61l.04.5-1.99.17ZM297.03,449.08c-.31.73-.57,1.47-.76,2.23.19-.75.46-1.5.76-2.23ZM306.94,433.39s0,0,0,0t0,0ZM306.95,433.38h0s0,0,0,0ZM306.96,433.37h0s0,0,0,0ZM306.97,433.36s0,0,0,0c0,0,0,0,0,0ZM306.98,433.35s0,0,0,0c0,0,0,0,0,0ZM308.19,432.05c-.42.43-.82.86-1.22,1.3.39-.44.8-.87,1.22-1.3ZM361.65,427.17c3.34,1.48,6.54,3.25,9.59,5.28-3.04-2.03-6.25-3.8-9.59-5.28ZM308.21,432.04s0,0,0,0c0,0,0,0,0,0ZM308.22,432.03s0,0,0,0c0,0,0,0,0,0ZM308.23,432.02s0,0,0,0c0,0,0,0,0,0ZM318.21,425.11h0ZM321.68,423.91c-1.25.36-2.4.75-3.47,1.19,1.07-.44,2.22-.83,3.47-1.19Z" style="fill: #fff;"/>
  <path d="M328.83,479.25c-2.59,0-5.11-1.06-6.77-1.95-3.33-1.78-6.28-4.12-8.77-6.96-1.61-1.84-2.56-3.39-3.06-5.03-1.31-4.3-.46-10.07,2.04-13.71,1.71-2.49,4.06-3.9,6.79-4.1,6.38-.45,17.88.87,21.52,6.29,1.29,1.93,1.63,4.53,1.02,7.97-.85,4.8-2.82,9.42-5.69,13.37-.76,1.05-1.72,2.23-3.01,3.02-1.18.73-2.55,1.09-4.07,1.09ZM323.08,476.7c1.53.76,3.63,1.55,5.76,1.55.43,0,.85-.03,1.25-.1-2.53.42-5.21-.56-7.01-1.45ZM321.41,449.43c-.82,0-1.56.03-2.2.07-2.11.15-3.93,1.27-5.29,3.23-2.18,3.18-2.93,8.22-1.78,11.99h0c.41,1.36,1.23,2.68,2.65,4.3,2.33,2.66,5.1,4.85,8.21,6.52,2.06,1.1,5.95,2.69,8.84.91,1-.61,1.8-1.61,2.44-2.5,2.69-3.7,4.54-8.03,5.34-12.54.52-2.9.28-5.03-.71-6.51-2.88-4.28-11.93-5.48-17.52-5.48ZM312.4,467.55c.44.67.98,1.38,1.64,2.13,1.32,1.51,2.78,2.87,4.36,4.08-1.58-1.21-3.04-2.57-4.36-4.08-.66-.76-1.2-1.46-1.64-2.13ZM340.58,461.82c-.73,3.92-2.22,7.71-4.36,11.08,2.14-3.37,3.63-7.16,4.36-11.08ZM310.61,460.95c0,1.42.19,2.81.58,4.06.17.55.4,1.1.69,1.65-.29-.55-.52-1.1-.69-1.65-.38-1.25-.57-2.64-.58-4.06ZM321.33,448.43c5.57,0,14.59,1.2,18.04,5.39-3.79-4.63-14.27-5.74-20.23-5.32-2.42.17-4.51,1.44-6.04,3.66-.09.14-.19.28-.28.43.09-.15.18-.29.28-.43,1.53-2.23,3.62-3.49,6.04-3.66.64-.04,1.38-.07,2.19-.07Z" style="fill: #fff;"/>
  <path d="M359.96,472.4c-1.37,0-2.68-.22-3.9-.65-4.15-1.46-7.4-5.45-8.09-9.93-.54-3.52.68-9.38,3.3-12.15,2.67-2.81,7.41-2.25,11.23-1.79.87.11,1.78.21,2.53.26,2.91.17,6.17.55,8.02,3,.96,1.26,1.42,2.97,1.4,5.22-.03,4.83-1.99,9.48-5.24,12.45-2.5,2.29-5.87,3.6-9.24,3.6h0ZM349.89,464.74c1.29,2.8,3.67,5.08,6.5,6.08.5.18,1.02.31,1.55.41-.53-.1-1.05-.23-1.55-.41-2.83-1-5.21-3.28-6.5-6.08ZM367.24,469.11c-1.3.9-2.75,1.55-4.25,1.92,1.51-.38,2.96-1.03,4.25-1.92ZM357.76,449.51c-2.4,0-4.04.5-5.02,1.54-2.16,2.28-3.25,7.41-2.78,10.47.58,3.77,3.3,7.13,6.77,8.35,3.61,1.27,8.09.25,11.14-2.54,2.85-2.6,4.57-6.71,4.59-10.99.01-1.79-.32-3.1-1-4-1.34-1.77-4.08-2.07-6.54-2.21-.8-.04-1.69-.15-2.63-.26-1.43-.17-3.03-.36-4.53-.36ZM357.76,448.51c-2.25,0-4.38.4-5.75,1.85-2.38,2.52-3.51,7.84-3.06,11.15-.44-3.31.75-8.7,3.06-11.15,1.18-1.25,3.06-1.85,5.75-1.85,1.56,0,3.19.2,4.63.37.06,0,.12.01.18.02-.06,0-.12-.01-.18-.02-1.47-.17-3.08-.37-4.63-.37ZM373.46,456.25v.1c0,.07,0,.15,0,.22,0-.07,0-.15,0-.22v-.1ZM372.94,452.98h0s0,0,0,0ZM372.94,452.97h0ZM372.93,452.97h0ZM372.93,452.96s0,0,0,0t0,0ZM372.93,452.96h0s0,0,0,0ZM372.93,452.95s0,0,0,0c0,0,0,0,0,0ZM372.93,452.95s0,0,0,0c0,0,0,0,0,0ZM372.93,452.95s0,0,0,0c0,0,0,0,0,0ZM372.92,452.94s0,0,0,0c0,0,0,0,0,0ZM372.92,452.94s0,0,0,0c0,0,0,0,0,0ZM372.92,452.93s0,0,0,0c0,0,0,0,0,0ZM372.92,452.93s0,0,0,0c0,0,0,0,0,0ZM372.92,452.92s0,0,0,0c0,0,0,0,0,0ZM372.91,452.92s0,0,0,0c0,0,0,0,0,0ZM372.91,452.91s0,0,0,0c0,0,0,0,0,0ZM372.91,452.91s0,0,0,0c0,0,0,0,0,0ZM372.91,452.9s0,0,0,0c0,0,0,0,0,0ZM372.91,452.9s0,0,0,0c0,0,0,0,0,0ZM372.9,452.89s0,0,0,0c0,0,0,0,0,0ZM372.9,452.89s0,0,0,0c0,0,0,0,0,0ZM372.9,452.89s0,0,0,0c0,0,0,0,0,0ZM372.9,452.88s0,0,0,0c0,0,0,0,0,0ZM372.9,452.88s0,0,0,0c0,0,0,0,0,0ZM372.9,452.87s0,0,0,0c0,0,0,0,0,0ZM372.9,452.87s0,0,0,0c0,0,0,0,0,0ZM372.89,452.87h0s0,0,0,0ZM372.89,452.86s0,0,0,0c0,0,0,0,0,0ZM372.89,452.86h0ZM372.89,452.86h0Z" style="fill: #fff;"/>
  <path d="M248.26,351.97c-.14,0-.28-.01-.42-.04-1.7-.29-2.33-2.08-2.36-3.65-.08-4.46,2.02-8.46,4.06-12.33,2.08-3.95,4.04-7.67,3.78-11.75l-.03-.5,2-.12.03.5c.29,4.64-1.89,8.79-4,12.8-1.92,3.65-3.9,7.42-3.83,11.36.02.79.28,1.65.71,1.72.18.03.46-.06.83-.28,1.6-.95,2.75-2.67,3.74-4.39,1.82-3.15,3.36-6.49,4.57-9.9.33-.94.65-1.88.96-2.83.87-2.64,1.77-5.38,3.17-7.89,2.24-4.04,5.57-6.78,9.13-7.51l.49-.1.41,1.96-.49.1c-2.99.62-5.83,3-7.78,6.52-1.3,2.35-2.17,4.99-3.02,7.54-.32.97-.64,1.93-.98,2.88-1.26,3.53-2.85,6.97-4.72,10.23-1.13,1.96-2.45,3.93-4.46,5.12-.41.24-1.03.56-1.77.56ZM249.48,350.57c-.29.17-.55.28-.79.34.31-.08.58-.22.79-.34ZM249.95,337.31c-1.82,3.48-3.55,7.08-3.47,10.95.02,1.09.38,2.31,1.31,2.63-.93-.33-1.29-1.59-1.31-2.63-.07-3.87,1.66-7.47,3.47-10.95ZM256.64,339.82c-.9,2.04-1.91,4.04-3.02,5.97-.41.71-.85,1.42-1.33,2.09.48-.67.92-1.38,1.33-2.09,1.11-1.93,2.12-3.93,3.02-5.97ZM262.74,324.45c-.14.23-.28.47-.41.71-.94,1.69-1.65,3.51-2.29,5.33.64-1.83,1.35-3.64,2.29-5.33.13-.24.27-.48.41-.71ZM268.67,318.84c-.91.42-1.78.99-2.61,1.68.83-.7,1.71-1.26,2.61-1.68Z" style="fill: #fff;"/>
  <path d="M248.5,348.4c-.11,0-.22,0-.34-.02l-1-.1.11-1c.19-1.8.76-3.59,1.64-5.17l.25-.44,1.74.98v.03c.29.14.56.36.76.62.47.62.62,1.47.41,2.34-.39,1.58-1.93,2.76-3.57,2.76ZM250,344.48c-.2.51-.37,1.04-.5,1.58.31-.23.54-.55.62-.89.07-.3.03-.53-.05-.64-.02-.02-.05-.04-.08-.04ZM251.17,344.87c0,.17-.02.35-.07.52-.01.05-.03.1-.04.14.02-.05.03-.1.04-.14.04-.18.07-.35.07-.52ZM249.29,343.59c-.15.34-.29.69-.41,1.04.11-.31.23-.62.36-.92l.05-.12ZM250.83,343.87s.02.03.04.04c.02.03.04.06.07.09-.02-.03-.04-.06-.07-.09-.01-.01-.02-.03-.04-.04ZM250,343.47s.04,0,.07,0h-.07s0,0,0,0Z" style="fill: #fff;"/>
  <path d="M230.95,343.26h0c-.78,0-1.52-.16-2.22-.49-1.55-.72-2.74-2.26-3.25-4.21-.44-1.66-.35-3.34-.23-4.92l.04-.5,1.99.15-.04.5c-.11,1.41-.18,2.9.17,4.26.36,1.36,1.16,2.44,2.16,2.91,2.41,1.11,5.3-1.27,6.13-2.02.7-.64,1.46-1.41,1.82-2.34.38-.98.32-2.15.23-3.26-.05-.65-.12-1.3-.18-1.95-.26-2.67-.53-5.43-.06-8.17.55-3.21,2.51-7.08,6.33-8.3l.48-.15.61,1.91-.48.15c-2.98.95-4.54,4.22-4.97,6.74-.43,2.47-.17,5.09.08,7.63.06.66.13,1.32.18,1.98.11,1.35.17,2.78-.36,4.15-.51,1.31-1.46,2.3-2.33,3.09-1.16,1.06-3.5,2.85-6.1,2.85ZM229.42,341.98c.49.19,1,.28,1.53.28,2.14,0,4.18-1.5,5.17-2.36-1.15.99-4.03,3.09-6.7,2.08ZM226.19,336.74c.04.53.12,1.05.26,1.57.42,1.59,1.33,2.84,2.52,3.47-1.18-.63-2.11-1.91-2.52-3.47-.13-.52-.21-1.04-.26-1.57ZM238.58,331.46c.05.49.09.98.14,1.47-.04-.49-.09-.98-.14-1.47ZM243.67,316.04c-3.09,1.25-4.7,4.57-5.18,7.35-.1.58-.17,1.17-.2,1.77.04-.59.1-1.18.2-1.77.46-2.66,2.08-6.09,5.18-7.35h0Z" style="fill: #fff;"/>
  <path d="M234.4,359.78h-.04c-.6,0-1.07-.14-1.45-.42-.41-.3-.63-.71-.81-1.11-1.81-4.11-1.65-8.94.41-12.92.16-.31.34-.62.51-.93.58-1.04,1.13-2.01,1.17-3.02l.02-.5,2,.07-.02.5c-.05,1.49-.75,2.73-1.42,3.93l-.06.11c-.14.26-.29.51-.42.77-1.76,3.4-1.9,7.69-.36,11.19.1.22.14.29.17.31,0,0,.05.02.29.02,2.79-.03,4.35-3.73,4.9-5.32,1.43-4.19,2.17-8.7,2.89-13.06.89-5.43,1.81-11.04,4.07-16.2l.2-.46,1.83.8-.2.46c-2.16,4.94-3.06,10.42-3.93,15.73-.73,4.44-1.48,9.03-2.96,13.38-.68,1.99-2.7,6.63-6.78,6.67h0ZM234.1,358.77c.08,0,.16.01.25.01h.04c3.43-.04,5.22-4.21,5.83-6,1.14-3.35,1.85-6.86,2.45-10.35-.6,3.48-1.3,7-2.45,10.35-.61,1.79-2.41,5.96-5.84,6-.09,0-.19,0-.29-.01ZM233.07,357.98c.1.21.22.42.4.56-.18-.15-.31-.35-.4-.56ZM233.51,345.57c-.04.07-.08.14-.12.22-1.91,3.68-2.07,8.14-.43,11.95-1.61-3.75-1.45-8.32.43-11.95.04-.07.08-.14.11-.22ZM234.16,344.38c-.09.17-.18.33-.28.5-.1.17-.19.34-.29.51.07-.14.15-.27.23-.41l.06-.11c.09-.17.19-.33.28-.5Z" style="fill: #fff;"/>
  <path d="M227.19,337l-1.98-.3.07-.49c1.28-8.54,5.44-16.51,11.71-22.44,2.76-2.61,5.9-4.8,8.93-6.93l10.84-7.57,1.14,1.64-10.83,7.57c-2.98,2.08-6.05,4.23-8.71,6.74-5.95,5.63-9.9,13.19-11.11,21.29l-.07.49ZM226.35,335.86h0c1.33-8.13,5.34-15.7,11.33-21.37,2.71-2.56,5.82-4.73,8.82-6.84l10.01-7-10.01,7c-3.01,2.1-6.12,4.28-8.82,6.84-5.99,5.67-10,13.24-11.33,21.37Z" style="fill: #fff;"/>
  <path d="M232.55,341.01h-.11c-1.69-.04-3.42-1.19-4.12-2.72-.59-1.28-.4-2.6.51-3.71,1.06-1.29,3.64-1.42,5.39-.73,1.36.54,2.13,1.55,2.06,2.72-.03.52-.25.93-.46,1.28-.48.81-1.02,1.59-1.61,2.31-.23.28-.49.56-.89.72-.3.12-.59.14-.78.14ZM231.99,339.96c.16.03.32.04.49.05l.08.5v-.5s-.05,0-.08,0c-.16,0-.32-.02-.48-.05ZM232.93,339.96c-.06.02-.13.04-.21.05.08,0,.15-.02.21-.05ZM234.15,338.6c-.22.32-.46.62-.7.92-.03.03-.06.07-.08.1.03-.03.06-.07.08-.1.24-.3.48-.61.7-.92ZM231.95,335.44c-.75,0-1.38.18-1.58.42-.42.51-.5,1.03-.23,1.6.39.85,1.42,1.53,2.36,1.55h0s.07,0,.09,0c0-.01.03-.05.08-.11.53-.65,1.02-1.35,1.45-2.07.04-.07.18-.3.18-.38.02-.39-.61-.67-.8-.74-.49-.19-1.04-.27-1.54-.27ZM231.94,334.44c-.97,0-1.9.24-2.34.77-.67.81-.8,1.73-.37,2.66.1.22.23.44.38.63-.15-.2-.28-.41-.38-.63-.42-.92-.29-1.86.37-2.66.74-.9,2.9-.97,4.26-.44.03.01.06.02.09.04-.03-.01-.06-.03-.09-.04-.56-.22-1.25-.34-1.92-.34ZM235.29,336.55c-.02.22-.11.42-.22.62.11-.2.2-.4.22-.62ZM235.01,335.59c.18.24.27.52.28.81,0-.32-.11-.59-.28-.81Z" style="fill: #fff;"/>
  <path d="M234.61,357.2c-.1,0-.19,0-.29,0-.26-.02-.63-.08-.97-.35-.8-.64-.84-1.97-.16-4.76.25-1.03.68-2.16,1.95-2.67,2.09-.86,3.14.19,3.49.68,1.08,1.5.58,4.14-.58,5.49-.87,1.02-2.16,1.62-3.44,1.62ZM234.12,356.14c.09.03.18.04.27.05.03,0,.05,0,.08,0-.03,0-.06,0-.08,0-.11,0-.19-.02-.26-.04h0ZM237.3,354.91s0,.01-.02.02c-.25.29-.55.54-.87.74.32-.2.62-.45.87-.74,0,0,.01-.01.02-.02ZM236.6,351.08c-.19,0-.42.06-.71.17-.37.15-.56.48-.75,1.25-.38,1.56-.44,2.33-.44,2.68.68-.04,1.36-.38,1.82-.92.72-.83.88-2.46.47-3.02-.08-.11-.22-.17-.4-.17ZM234.17,352.27s0,.03-.01.05c-.3,1.22-.45,2.15-.45,2.79,0-.65.16-1.59.46-2.83h0ZM237.87,350.76c.3.48.4,1.17.33,1.88.08-.7-.01-1.38-.33-1.88ZM235.35,350.4c-.3.15-.53.37-.7.63.17-.25.39-.47.7-.63ZM236.62,350.08c.54,0,.89.22,1.11.48-.34-.4-.97-.71-2.12-.27.4-.15.73-.21,1.01-.21Z" style="fill: #fff;"/>
  <path d="M241.65,359c-.14,0-.28-.02-.41-.06-.3-.09-.51-.26-.66-.39-1.17-1.08-1.84-2.66-1.81-4.25v-.5s2.01.04,2.01.04v.5c-.03.95.35,1.91,1.01,2.59.78-.25,1.62-.53,2.18-1.03.57-.5.98-1.31,1.15-2.28.17-.99.1-2.08.05-3.04l-.03-.5,2-.12.03.5c.07,1.08.14,2.29-.07,3.51-.17,1.01-.63,2.42-1.8,3.45-.92.8-2.05,1.16-3.04,1.47-.14.04-.36.11-.61.11ZM241.19,357.74s.06.05.08.08c.05.04.09.08.14.11-.03-.02-.08-.06-.14-.11-.03-.03-.05-.05-.08-.08ZM246.03,354.25c-.25,1.01-.73,1.86-1.38,2.42-.66.58-1.51.89-2.31,1.15.8-.26,1.65-.58,2.31-1.15.79-.69,1.19-1.64,1.38-2.42ZM239.8,354.83c.01.14.03.27.06.41-.02-.14-.04-.27-.06-.41h0Z" style="fill: #fff;"/>
  <path d="M242.9,358.21c-.28,0-.57-.08-.86-.24-1.93-1.08-1.87-4.41-1.3-5.89.55-1.42,2.46-2.06,3.75-1.66,1.08.34,1.6,1.31,1.33,2.48-.33,1.41-.8,2.8-1.39,4.12-.12.27-.43.98-1.22,1.15-.1.02-.21.03-.31.03ZM241.46,355.17c.12.77.41,1.47.93,1.84-.5-.36-.8-1.06-.93-1.84ZM244.38,354.34c-.24.75-.51,1.48-.83,2.19.31-.71.59-1.45.83-2.19ZM243.77,352.27c-.41,0-1.05.25-1.16.53-.33.87-.29,2.42.12,3.12.47-1.12.86-2.29,1.14-3.48.03-.12.02-.17.02-.17-.04,0-.08,0-.13,0ZM243.68,351.31c-.79,0-1.73.43-2,1.13-.02.05-.04.11-.06.17.02-.06.04-.12.06-.17.34-.87,1.69-1.32,2.52-1.06.29.09.49.25.6.47-.1-.19-.28-.37-.6-.47-.16-.05-.33-.07-.52-.07Z" style="fill: #fff;"/>
</svg>