<?xml version="1.0" encoding="UTF-8"?>
<svg id="Layer_1" xmlns="http://www.w3.org/2000/svg" viewBox="0 0 70.35 156.79">
  <g>
    <path d="M11.51,26.2l-.69-3.52c-.12-.64-.27-1.36-.11-2.09l.98.2c-.11.54,0,1.12.12,1.7l.69,3.52-.98.19h0Z" style="fill: #fff;"/>
    <path d="M11.11,26.78l-.79-4.01c-.13-.65-.29-1.46-.11-2.29l.1-.49,1.96.41-.1.49c-.09.44.02.98.12,1.5l.79,4.01-1.96.38h0ZM11.14,21.19c0,.47.08.94.17,1.39l.46,2.37-.46-2.37c-.09-.44-.18-.92-.17-1.39h0Z" style="fill: #fff;"/>
  </g>
  <g>
    <path d="M12.3,13.12c-.14-.39-.21-.66-.29-.95-.08-.31-.17-.64-.36-1.19l.94-.33c.2.58.3.93.39,1.26.07.27.14.52.26.88l-.94.33Z" style="fill: #fff;"/>
    <path d="M11.99,13.75l-.17-.47c-.14-.41-.22-.69-.3-.99s-.17-.62-.35-1.15l-.17-.47,1.89-.66.17.47c.21.6.31.96.4,1.3.07.26.13.5.25.84l.17.47-1.89.67h0ZM12.28,11.28c.1.3.16.53.21.75,0,.03.02.06.03.1,0-.03-.02-.06-.02-.09-.06-.22-.12-.45-.22-.76h0Z" style="fill: #fff;"/>
  </g>
  <g>
    <path d="M14.05,26.33h-1c0-.64-.12-1.28-.24-1.95-.13-.7-.27-1.42-.26-2.16h1c0,.66.11,1.3.24,1.98.13.69.26,1.4.26,2.13Z" style="fill: #fff;"/>
    <path d="M14.55,26.83h-2v-.51c0-.59-.11-1.2-.23-1.85-.14-.73-.28-1.47-.27-2.26v-.5l2,.02v.5c0,.6.11,1.22.23,1.87.13.68.27,1.44.27,2.23v.5h0ZM13.27,24.14s.02.1.03.15c.03.14.05.28.08.42-.02-.14-.05-.28-.08-.42,0-.05-.02-.1-.03-.15Z" style="fill: #fff;"/>
  </g>
  <g>
    <path d="M11.3,40.97c-.06-.46-.08-1.06-.1-1.69-.03-.81-.06-1.64-.16-2.19l.98-.19c.12.62.15,1.5.18,2.34.02.61.04,1.19.09,1.61l-.99.12h0Z" style="fill: #fff;"/>
    <path d="M10.86,41.53l-.06-.5c-.06-.49-.08-1.09-.1-1.74-.03-.79-.06-1.6-.15-2.11l-.09-.49,1.96-.38.09.49c.13.66.16,1.55.19,2.42.02.57.04,1.16.09,1.57l.06.5-1.98.24h-.01ZM11.67,38.46c0,.26.02.53.03.8,0,.41.03.8.05,1.15h0c-.02-.36-.04-.76-.05-1.15,0-.27-.02-.54-.03-.8Z" style="fill: #fff;"/>
  </g>
  <g>
    <path d="M13.24,41.78l-.55-2.58c-.1-.49-.23-1.11-.07-1.71l.96.26c-.1.38,0,.84.08,1.24l.55,2.58-.98.21h0Z" style="fill: #fff;"/>
    <path d="M12.85,42.37l-.65-3.07c-.11-.52-.26-1.22-.06-1.95l.13-.48,1.93.53-.13.48c-.07.26.02.67.09,1.01l.65,3.08-1.96.41h0ZM13.04,38.11c0,.33.07.67.14.98l.44,2.1-.44-2.1c-.06-.29-.14-.64-.14-.98h0Z" style="fill: #fff;"/>
  </g>
  <g>
    <path d="M24.15,4.49h-.15c-.27,0-.54-.01-.8-.03l-.3-.02-.15-.29c-.16-.35.12-.71.12-.71.11-.14.25-.22.35-.26.2-.11.34-.18.5-.23.41-.11.83,0,1.17.07.49.12.6.38.63.52.05.26-.06.51-.3.68-.34.23-.71.27-1.07.27h0ZM23.26,3.46h0Z" style="fill: #fff;"/>
    <path d="M24.15,4.99h-.16c-.27,0-.55-.01-.82-.03l-.59-.03-.28-.55c-.28-.61.11-1.18.22-1.29.14-.18.36-.3.48-.36.21-.11.38-.21.6-.26.54-.14,1.05-.02,1.41.07.75.18.96.65,1.01.91.1.45-.1.91-.51,1.19-.46.31-.94.35-1.35.35h0ZM23.21,3.96h0c.26.02.53.02.79.03h.14c.27,0,.56-.02.79-.18.04-.03.11-.09.1-.16,0-.04-.09-.1-.26-.14-.3-.07-.63-.15-.92-.08-.1.03-.21.09-.38.18-.1.05-.17.08-.21.14-.04.05-.08.16-.06.21h0Z" style="fill: #fff;"/>
  </g>
  <g>
    <path d="M26.89,4.14l.74-.86c.28-.32.89-.43,1.37-.45,1.21-.12,2.44-.23,3.7-.24.36,0,.74,0,1.08.06l.48.08-.06.48c-.06.41-.48.48-.62.5-1.02.17-2.22.28-3.75.34l-2.93.09h-.01Z" style="fill: #fff;"/>
    <path d="M25.77,4.67l1.49-1.72c.41-.47,1.16-.6,1.73-.62,1.23-.12,2.46-.23,3.72-.24.49,0,.85,0,1.17.06l.95.16-.13.96c-.04.29-.23.8-1.04.93-1.04.17-2.26.28-3.81.34l-4.07.13h0ZM32.92,3.08h-.21c-1.22.02-2.43.12-3.67.24-.58.02-.93.15-1.03.27l1.79-.06c1.51-.06,2.68-.16,3.69-.33.16-.03.2-.06.21-.07h0c-.25-.04-.54-.05-.78-.05Z" style="fill: #fff;"/>
  </g>
  <g>
    <path d="M50.84,33.03c-.42-2.83-.37-4.08.77-6.88l.07-.17c.1-.23.19-.45.22-.65.04-.21,0-.4-.09-.5-.1-.11-.33-.16-.57-.12-.19.03-.38.09-.56.15-.15.05-.29.09-.44.13-1.18.29-2.47-.04-3.37-.86-.14-.13-.26-.24-.31-.25-.02,0-.12.02-.42.53-.79,1.36-2.23,2.43-3.94,2.94-1.39.41-2.97.5-4.82.25l.13-.99c1.71.23,3.15.15,4.4-.22,1.47-.44,2.7-1.34,3.36-2.49.23-.39.66-1.13,1.43-1.02.36.05.6.28.78.45.7.64,1.66.88,2.51.68.13-.03.25-.07.38-.11.24-.08.48-.15.72-.19.59-.08,1.12.07,1.45.43.31.33.43.82.34,1.35-.05.32-.17.61-.29.88l-.07.16c-1.07,2.62-1.11,3.65-.71,6.35l-.99.15h.02Z" style="fill: #fff;"/>
    <path d="M50.42,33.6l-.07-.49c-.43-2.89-.38-4.25.81-7.14l.07-.17c.09-.21.17-.39.19-.55v-.05h-.1c-.16.02-.31.07-.46.12-.19.06-.35.11-.51.15-1.3.32-2.72-.02-3.73-.89-.02.03-.03.06-.05.09-.85,1.47-2.4,2.62-4.23,3.17-1.46.43-3.11.52-5.03.27l-.5-.07.26-1.98.5.07c1.63.21,3,.15,4.19-.21,1.35-.4,2.47-1.23,3.07-2.26.25-.43.83-1.42,1.93-1.26.52.07.85.39,1.05.58.56.51,1.35.73,2.05.56.1-.03.21-.06.31-.09.3-.09.56-.18.84-.22.76-.1,1.45.11,1.89.59.41.45.58,1.09.47,1.77-.06.38-.2.7-.32.98l-.07.16c-1.05,2.56-1.06,3.49-.67,6.08l.07.49-1.98.3h.02ZM51.1,30.65c0,.54.07,1.12.17,1.8h0c-.09-.68-.15-1.26-.17-1.8ZM37.94,27.17h.09-.09ZM45.71,24.15h0c-.73,1.25-2.06,2.24-3.65,2.72-.15.04-.3.08-.46.12.16-.04.31-.08.46-.12,1.59-.48,2.92-1.46,3.65-2.71h0ZM52.4,24.93c.03.15.03.31,0,.48-.04.27-.15.52-.26.77l-.03.06.03-.06c.11-.26.21-.5.26-.77.03-.17.03-.33,0-.48ZM52.05,24.37c.05.04.1.07.14.12.04.04.07.08.1.13-.03-.05-.06-.09-.1-.13-.04-.04-.09-.08-.14-.12ZM47.16,23.71s.03.03.05.04c.72.66,1.75.95,2.72.78-.97.17-2.01-.14-2.77-.83h0ZM50.64,24.34s-.08.02-.11.04c-.1.03-.19.06-.27.08.09-.03.18-.05.27-.08.04-.01.08-.02.11-.04ZM51.21,24.21h-.04c-.12.02-.24.05-.37.08.13-.04.25-.07.37-.08h.04ZM45.91,23.84c-.05.07-.1.15-.15.23.05-.08.1-.16.15-.23ZM46.55,23.38h.06c.2.03.33.13.52.31-.14-.13-.3-.28-.5-.3h-.1.02Z" style="fill: #fff;"/>
  </g>
  <g>
    <path d="M43.19,35.67c-.18,0-.36,0-.54-.02-.24-.01-.47-.02-.69-.02-.87-.02-1.69-.04-2.59-.62-.67-.43-1.37-.88-1.97-1.46-.71-.68-1.18-1.45-1.37-2.24-.19-.81-.1-1.64.03-2.35.13-.77.42-1.84,1.36-2.26l.4.92c-.38.17-.63.66-.78,1.51-.1.61-.19,1.31-.04,1.94.14.6.52,1.2,1.09,1.75.54.51,1.19.94,1.82,1.35.66.43,1.25.44,2.07.46.23,0,.47,0,.73.03,1.22.07,2.31-.14,3.16-.61,0,0-.06.07-.07.19l1,.07c-.02.26-.17.46-.44.62-.89.5-1.96.75-3.17.75h0Z" style="fill: #fff;"/>
    <path d="M43.19,36.17c-.19,0-.38,0-.57-.02-.23-.01-.45-.02-.66-.02-.91-.02-1.84-.04-2.86-.7-.66-.42-1.4-.91-2.05-1.52-.78-.75-1.3-1.6-1.51-2.48-.21-.9-.11-1.79.02-2.55.15-.88.49-2.12,1.66-2.63l.46-.2.8,1.83-.46.2c-.09.04-.33.24-.49,1.14-.1.56-.18,1.2-.05,1.74.12.5.45,1.02.95,1.5s1.13.88,1.74,1.28c.56.36,1.03.37,1.82.39.25,0,.5.01.75.03,1.13.06,2.13-.12,2.89-.55l.44-.24.22.4,1.05.07-.04.5c-.02.3-.16.72-.7,1.02-.97.54-2.11.81-3.41.81h0ZM42.74,35.16c1.08.06,2.04-.09,2.87-.43h0c-.82.34-1.8.49-2.86.43h0ZM40.07,34.83c.48.21.95.27,1.46.29-.51-.02-.98-.08-1.46-.29ZM38,33.43c.43.37.91.69,1.38,1-.48-.31-.95-.63-1.38-1ZM36.5,29.32c-.09.59-.14,1.25,0,1.88.14.58.46,1.15.93,1.68-.47-.53-.79-1.1-.93-1.68-.15-.62-.1-1.28,0-1.88ZM36.95,27.79h0ZM37.19,27.46c-.09.1-.18.21-.25.33.07-.12.15-.23.25-.33h0Z" style="fill: #fff;"/>
  </g>
  <g>
    <path d="M39.78,31.22c-.29,0-.6-.07-.92-.3-1.09-.79-1.64-2.64-1.74-3.69l1-.1c.1,1.05.64,2.48,1.33,2.98.21.16.38.13.76.05.26-.05.59-.12.98-.08.4-.02,2.15-1.08,2.72-1.43.24-.15.43-.26.54-.33l.49.88c-.1.06-.29.17-.51.3-1.78,1.08-2.79,1.61-3.33,1.57-.24-.03-.45.02-.68.07-.19.04-.4.08-.62.08h-.02Z" style="fill: #fff;"/>
    <path d="M39.78,31.72c-.45,0-.84-.13-1.21-.4-1.32-.95-1.85-3.07-1.95-4.05l-.05-.5,1.99-.2.05.5c.1,1.04.63,2.27,1.13,2.62.07.03.26-.01.37-.03.28-.06.66-.13,1.12-.09,0-.02.45-.16,2.42-1.36.25-.15.45-.27.56-.33l.44-.25.97,1.75-.44.24c-.08.05-.22.13-.38.23l-.11.07c-1.9,1.16-2.91,1.71-3.63,1.64-.17-.02-.33.01-.52.06-.23.04-.47.09-.74.09h-.02ZM38.16,29.16c.25.55.57,1.05.99,1.35.35.26.79.21,1.14.14.03,0,.06-.01.09-.02-.03,0-.05.01-.08.02-.38.08-.75.15-1.15-.14s-.73-.78-.99-1.35ZM41.05,30.56h.14-.14ZM43.94,29.2c-.54.33-.98.58-1.32.77.46-.25.94-.54,1.32-.77Z" style="fill: #fff;"/>
  </g>
  <g>
    <path d="M27.06,66.76h-.57v-1c3.64.06,7.24-.4,10.74-1.34.3-.08.61-.17.91-.25,1.03-.29,2.1-.59,3.19-.74.29-.04.59-.07.89-.11,1.46-.16,2.97-.33,3.73-1.38.62-.85.57-2.06.45-3.33l-1.81-19.83c-.1-1.14-.21-2.32-.09-3.5l1,.1c-.11,1.08,0,2.21.09,3.31l1.81,19.83c.1,1.11.25,2.78-.64,4.01-1.02,1.41-2.83,1.61-4.43,1.78-.29.03-.58.06-.86.1-1.03.14-2.06.43-3.06.72-.31.09-.61.17-.92.25-3.41.91-6.91,1.38-10.43,1.38h0Z" style="fill: #fff;"/>
    <path d="M27.06,67.26h-1.07l.03-2.01h.5c3.55.06,7.12-.38,10.59-1.31l.91-.25c1.06-.3,2.14-.6,3.26-.76.27-.04.55-.07.83-.1,1.42-.16,2.82-.31,3.45-1.18.52-.71.47-1.82.36-2.99l-1.81-19.83c-.11-1.17-.21-2.37-.09-3.59l.05-.5,1.99.2-.05.5c-.11,1.04,0,2.14.09,3.21l1.81,19.83c.11,1.18.27,2.97-.73,4.35-1.15,1.58-3.16,1.81-4.78,1.99-.29.03-.57.06-.85.1-.99.14-2.01.42-2.99.7l-.93.26c-3.45.92-7,1.39-10.56,1.39h0ZM40.92,64c-.89.16-1.77.41-2.63.65l-.31.09.3-.08c.86-.24,1.75-.49,2.64-.65h0ZM46.26,62.37c-.92,1.1-2.53,1.28-3.97,1.44h-.09.09c1.51-.17,3.06-.34,3.97-1.44ZM45.02,37.8c.02.31.05.62.08.93l1.81,19.84c.04.48.08.95.07,1.4,0-.51-.04-.99-.07-1.4l-1.81-19.83c-.03-.31-.06-.62-.08-.93h0ZM44.97,35.83c0,.13,0,.25,0,.38,0-.13,0-.25,0-.38h0Z" style="fill: #fff;"/>
  </g>
  <g>
    <path d="M47.22,37.5c-.12,0-.25,0-.38-.02-.74-.07-1.47-.31-2.1-.71l.53-.85c.5.31,1.08.51,1.66.56.39.03.7,0,.95-.1l.37.93c-.31.12-.65.18-1.04.18h.01Z" style="fill: #fff;"/>
    <path d="M47.22,38c-.14,0-.28,0-.42-.02-.82-.08-1.62-.35-2.32-.78l-.42-.26,1.06-1.7.42.26c.44.27.94.44,1.44.49.31.03.54,0,.72-.07l.47-.18.74,1.86-.46.18c-.37.15-.77.22-1.22.22h0ZM46.22,36.87c.22.06.44.09.66.11.25.02.48.02.69,0h0c-.21.03-.44.03-.69,0-.22-.02-.45-.06-.66-.11Z" style="fill: #fff;"/>
  </g>
  <g>
    <path d="M46.96,41.45c-.73,0-1.46-.21-2.07-.6l.54-.84c.48.3,1.05.46,1.62.44l.03,1h-.12,0Z" style="fill: #fff;"/>
    <path d="M46.96,41.95c-.82,0-1.65-.24-2.34-.68l-.42-.27,1.07-1.69.42.27c.39.25.87.38,1.34.36h.5l.06,1.99h-.64v.02ZM45.72,40.71c.27.11.56.18.85.22h0c-.29-.04-.58-.11-.85-.22Z" style="fill: #fff;"/>
  </g>
  <g>
    <path d="M24.75,66.71c-2.84,0-5.47-.14-8.08-.82-.93-.24-2.07-.65-2.67-1.62-.29-.47-.4-1-.5-1.42-1.13-5.13-1.71-9.11-1.99-13.76l1-.06c.28,4.59.85,8.53,1.97,13.61.1.45.19.81.37,1.11.41.67,1.28.97,2.07,1.18,3.05.8,6.2.82,9.7.77v1c-.63,0-1.26.02-1.88.02h.01Z" style="fill: #fff;"/>
    <path d="M24.75,67.21c-2.6,0-5.39-.1-8.2-.84-1.02-.27-2.27-.71-2.97-1.84-.33-.54-.46-1.14-.56-1.58-1.14-5.15-1.72-9.16-2-13.84l-.03-.5,2-.12.03.5c.28,4.56.85,8.48,1.96,13.53.09.4.17.72.31.96.32.52,1.07.78,1.77.96,2.98.78,6.1.8,9.57.75h.5l.03,1.99h-.5c-.64.02-1.28.02-1.9.02h-.01ZM18.01,65.68c2.3.46,4.59.53,6.75.53h1.39c-2.89.03-5.56,0-8.13-.52h0ZM14.02,62.81c.05.21.1.44.18.66-.07-.2-.12-.42-.18-.66ZM12.44,53.85c.29,2.4.69,4.8,1.25,7.49-.56-2.69-.97-5.08-1.25-7.49Z" style="fill: #fff;"/>
  </g>
  <g>
    <path d="M17.51,58.12c-.58,0-1.22-.1-1.74-.51-.57-.46-.8-1.15-.98-1.76-.55-1.95-.87-3.96-.95-5.99l1-.04c.07,1.95.38,3.88.91,5.75.13.46.3.98.64,1.26.45.36,1.18.32,1.88.24,3.29-.36,5.29-.48,7.21-.6,1.91-.12,3.89-.25,7.17-.6.27-.03,1.31-.12,2.56-.23,2.02-.18,4.78-.43,5.22-.49,1.08-.16,2.32-.68,2.51-1.34.61-2.12.21-3.86-.25-5.88-.2-.89-.41-1.81-.55-2.82-.05-.39-.12-.9-.19-1.48-.31-2.52-.84-6.73-1.36-8.38l.95-.3c.55,1.73,1.06,5.84,1.4,8.56.07.58.13,1.08.19,1.47.13.96.33,1.86.53,2.73.47,2.07.91,4.02.24,6.38-.46,1.59-3.04,2.01-3.33,2.06-.47.07-3.13.31-5.27.5-1.23.11-2.27.2-2.54.23-3.29.36-5.29.48-7.21.6-1.91.12-3.89.25-7.17.6-.25.03-.55.06-.88.06v-.02Z" style="fill: #fff;"/>
    <path d="M17.51,58.62c-.86,0-1.53-.2-2.05-.62-.74-.6-1-1.52-1.15-2.01-.57-1.99-.89-4.04-.97-6.11l-.02-.5,2-.07.02.5c.07,1.91.37,3.8.89,5.63.08.28.23.8.48,1,.3.24.94.2,1.52.13,3.3-.36,5.29-.48,7.22-.6,1.96-.12,3.92-.25,7.15-.6.24-.03,1.1-.1,2.17-.2l.39-.04c1.9-.17,4.76-.42,5.19-.49,1.09-.16,2.01-.65,2.1-.98.57-1.99.19-3.68-.26-5.63-.21-.9-.42-1.83-.55-2.86-.05-.39-.12-.9-.19-1.48-.31-2.5-.83-6.68-1.34-8.29l-.15-.48,1.91-.6.15.48c.56,1.77,1.07,5.9,1.41,8.63.08.61.14,1.1.19,1.48.12.93.32,1.81.52,2.66.49,2.15.95,4.16.23,6.65-.53,1.85-3.21,2.33-3.74,2.41-.45.07-2.67.26-5.3.5l-.41.04c-1.04.09-1.88.17-2.12.19-3.34.36-5.41.49-7.23.61-1.95.12-3.91.25-7.14.6-.27.03-.59.06-.94.06h.02ZM17.26,57.61c.34.02.72-.01,1.01-.04-.34.04-.68.06-1.01.04ZM15.22,55.51c.02.07.04.13.06.2.16.56.35,1.14.81,1.51.06.05.12.09.19.13-.06-.04-.13-.08-.19-.13-.46-.37-.66-.97-.81-1.51-.02-.07-.04-.13-.06-.2ZM30.06,56.62c-1.06.1-1.96.17-2.8.22.84-.06,1.74-.13,2.8-.22ZM40.58,55.62s-.05,0-.07.01c-.46.07-3.23.31-5.25.49l-.3.03.3-.03c2.02-.18,4.79-.43,5.25-.49,0,0,.03,0,.07-.01ZM43.33,54.2c-.12.22-.3.41-.52.58.22-.16.4-.35.52-.58ZM42.64,44.94v.09c.14.99.35,1.9.55,2.77.04.15.07.31.1.46-.03-.15-.07-.3-.1-.45-.2-.9-.41-1.8-.54-2.78,0-.03,0-.06,0-.09h0ZM41.23,35.57c.49,1.92.95,5.67,1.24,7.99.04.32.08.62.11.89-.03-.26-.07-.55-.11-.86-.31-2.51-.76-6.12-1.24-8.01h0Z" style="fill: #fff;"/>
  </g>
  <g>
    <path d="M32.22,63.4c-1.3,0-2.58-.6-3.39-1.62-.14-.17-.3-.42-.37-.72-.07-.36.03-.7.1-.95h0l.08-.28c.26-.88.5-1.71,1.96-1.83,1.16-.1,2.34.1,3.41.58.26.12,1.03.46,1.27,1.21.09.29.08.58.07.83-.03.44-.08.9-.31,1.33-.34.66-1.04,1.15-1.93,1.35-.3.07-.6.1-.9.1h0ZM29.52,60.4c-.05.16-.1.35-.08.46.02.1.11.21.17.3.75.96,2.11,1.43,3.29,1.17.6-.14,1.06-.44,1.26-.84.14-.27.18-.61.2-.94,0-.16.02-.33-.02-.46-.07-.21-.3-.41-.72-.6-.91-.41-1.92-.58-2.92-.5-.78.07-.84.27-1.08,1.11l-.09.29h0Z" style="fill: #fff;"/>
    <path d="M32.22,63.9c-1.47,0-2.89-.68-3.78-1.81-.16-.2-.38-.52-.46-.93-.1-.48.03-.91.12-1.19l.08-.28c.26-.91.59-2.03,2.4-2.18,1.24-.11,2.51.11,3.66.62.31.14,1.23.56,1.54,1.51.11.36.11.7.09,1.01-.03.49-.1,1.01-.36,1.53-.41.79-1.23,1.38-2.27,1.61-.33.07-.67.11-1.01.11h0ZM29.36,61.63c.85.96,2.25,1.44,3.51,1.21-1.27.22-2.66-.26-3.51-1.21ZM34.46,61.94c-.16.21-.37.4-.62.54.25-.15.47-.33.62-.54ZM29.94,60.77s.03.04.06.08c.63.8,1.78,1.21,2.79.99.44-.1.79-.32.92-.58.1-.19.13-.48.14-.75v-.28h0s-.06-.12-.45-.29c-.84-.37-1.76-.53-2.68-.45-.29.03-.51.28-.64.75l-.09.3c-.02.06-.05.16-.06.22h0ZM28.99,61.09c.04.1.09.19.15.27-.06-.08-.11-.17-.15-.27ZM34.76,61.31h0ZM34.83,60.01c.04.19.04.38.02.57-.02.24-.04.49-.1.73.06-.24.09-.49.1-.73,0-.19.02-.38-.02-.57ZM28.99,60.45c-.04.15-.06.31-.04.46-.02-.16,0-.31.04-.46ZM29.57,58.94c-.21.25-.32.6-.44,1.03l-.08.28s-.03.09-.04.14c0-.05.03-.09.04-.14l.08-.29c.13-.43.23-.78.44-1.03h0ZM31.19,58.47c.91,0,1.81.19,2.63.56.08.04.18.08.27.13-.11-.06-.21-.1-.27-.13-.96-.43-2.01-.61-3.04-.55.13,0,.27-.01.4-.01h0Z" style="fill: #fff;"/>
  </g>
  <g>
    <path d="M42.39,74.78c-.32-2.98.37-6.9,2.05-11.64l.94.33c-1.6,4.54-2.29,8.41-1.99,11.21l-.99.11h0Z" style="fill: #fff;"/>
    <path d="M41.94,75.33l-.05-.5c-.32-3.06.37-7.05,2.07-11.86l.17-.47,1.89.66-.17.47c-1.58,4.47-2.26,8.27-1.97,10.99l.05.5-1.99.21ZM44.74,63.77c-1.44,4.2-2.08,7.71-1.9,10.45h0c-.17-2.72.48-6.31,1.9-10.45h0Z" style="fill: #fff;"/>
  </g>
  <g>
    <path d="M47.45,58.38l-.92-.39c2.01-4.8,3.93-7.59,6.42-9.35l.58.82c-2.33,1.64-4.14,4.3-6.07,8.92h0Z" style="fill: #fff;"/>
    <path d="M47.72,59.03l-1.84-.77.19-.46c2.04-4.89,4.02-7.75,6.59-9.56l.41-.29,1.15,1.64-.41.29c-2.24,1.58-4.01,4.18-5.9,8.7l-.19.46h0ZM47.18,57.72h0c1.79-4.17,3.51-6.72,5.65-8.37h0c-2.14,1.65-3.86,4.21-5.65,8.37Z" style="fill: #fff;"/>
  </g>
  <g>
    <path d="M53.22,49.55h-.07c-.33-.04-.64-.08-.84-2.55-2.68-6.15-2.56-6.95-1.78-11.99.1-.63.21-1.33.32-2.12l.99.14c-.11.79-.22,1.5-.32,2.13-.77,5.03-.85,5.56,1.74,11.52l.04.16c.06.77.19,1.72.28,1.91-.03-.06-.16-.19-.36-.19-.23.03-.33.13-.36.19l.97.27c-.15.45-.41.54-.6.54h-.01Z" style="fill: #fff;"/>
    <path d="M53.22,50.05h-.14c-.81-.1-1.09-.74-1.27-2.93-2.7-6.22-2.56-7.14-1.78-12.19.1-.68.21-1.36.32-2.12l.07-.5,1.98.29-.07.5c-.11.79-.22,1.5-.32,2.14-.77,5.01-.83,5.42,1.71,11.24l.07.24c.08.94.2,1.69.25,1.83h-.02l.44.13-.16.5c-.26.8-.84.88-1.07.88h0ZM53.21,48.93l-.09.04s.06.09.09.09c.01,0,.03,0,.05-.03.01-.01.02-.04.03-.06l-.08-.04ZM51.09,42.6c.35,1.1.89,2.41,1.67,4.2l.04.16c.04.49.08.86.12,1.15h0c-.08-.57-.13-1.19-.14-1.23l-.03-.08c-.78-1.79-1.32-3.1-1.67-4.19h0Z" style="fill: #fff;"/>
  </g>
  <g>
    <path d="M22.62,51.34c-.28,0-.56,0-.85-.02-6.45-.31-12.77-2.25-18.28-5.62-.39-.24-1.21-.74-1.31-1.61-.07-.62.25-1.16.47-1.51l3.42-5.68c.22-.37.5-.82.97-1.09.65-.37,1.55-.26,2.23.27h0c.78.61,1.13,1.44,1.47,2.24.21.5.41.98.71,1.37.93,1.24,2.79,1.92,4.28,2.47l.24.09c2.68.99,5.44,1.87,8.2,2.62.96.26,2.42.66,3.03,1.89.71,1.41-.18,3.15-1.45,3.89-.95.55-2.05.69-3.14.69h0ZM7.9,36.6c-.13,0-.25.03-.37.09-.25.14-.44.45-.6.73l-3.42,5.68c-.2.33-.36.63-.33.88.04.34.45.63.84.87,5.37,3.28,11.53,5.17,17.8,5.47,1.4.07,2.52,0,3.43-.53.86-.5,1.51-1.68,1.06-2.58-.38-.77-1.36-1.09-2.4-1.37-2.78-.76-5.57-1.65-8.28-2.65l-.24-.09c-1.62-.59-3.63-1.33-4.74-2.8-.37-.49-.6-1.05-.83-1.59-.3-.72-.59-1.39-1.16-1.84-.2-.16-.49-.28-.76-.28h0Z" style="fill: #fff;"/>
    <path d="M22.62,51.84c-.29,0-.58,0-.87-.02-6.53-.31-12.93-2.28-18.52-5.69-.42-.26-1.41-.87-1.55-1.97-.09-.79.3-1.44.54-1.83l3.42-5.68c.24-.39.56-.93,1.16-1.27.82-.46,1.94-.34,2.78.31.89.69,1.28,1.62,1.63,2.44.2.48.39.92.65,1.27.84,1.12,2.62,1.77,4.05,2.3l.24.09c2.67.98,5.41,1.86,8.16,2.61.98.27,2.63.72,3.35,2.15.84,1.67-.18,3.7-1.65,4.55-1.17.68-2.49.75-3.39.75h0ZM25.63,50.15s-.08.05-.13.08c-.07.04-.14.08-.22.12.07-.04.15-.08.22-.12.04-.02.08-.05.13-.08ZM2.67,43.97v.07c.08.63.73,1.03,1.08,1.24,3.47,2.12,7.27,3.67,11.21,4.59-3.95-.92-7.74-2.47-11.21-4.59-.5-.3-1.01-.69-1.08-1.24v-.07ZM7.9,37.1c-.05,0-.09,0-.12.03-.13.07-.3.35-.42.55l-3.42,5.68c-.07.11-.28.46-.26.56,0,.03.06.17.61.51,5.3,3.24,11.37,5.11,17.57,5.4,1.31.06,2.35,0,3.16-.47.66-.38,1.17-1.3.86-1.92-.29-.58-1.16-.86-2.09-1.11-2.79-.77-5.59-1.66-8.32-2.66l-.24-.09c-1.68-.61-3.77-1.38-4.97-2.97-.41-.54-.65-1.12-.89-1.69-.29-.69-.54-1.28-1.01-1.64-.13-.1-.32-.17-.46-.17h0ZM26.73,46.92s.02.05.04.07c0,.03.02.05.04.08,0-.03-.02-.05-.04-.08,0-.02-.02-.05-.04-.07ZM14.57,42.26c.34.13.67.25.99.37l.24.09c2.7.99,5.47,1.88,8.24,2.64.45.12.88.25,1.28.42-.44-.19-.9-.32-1.28-.42-2.77-.76-5.54-1.65-8.24-2.64l-.24-.09c-.32-.12-.65-.24-.99-.37ZM2.99,43s-.06.1-.09.16c.03-.05.06-.11.09-.16ZM10.97,39.88s.05.08.08.11c.19.25.4.48.64.68-.24-.21-.46-.43-.64-.68-.03-.04-.06-.08-.08-.11ZM7.18,36.32c-.3.21-.5.54-.68.84l-1.27,2.1,1.27-2.1c.17-.28.38-.62.68-.84ZM9.13,36.61c.58.52.87,1.22,1.16,1.91.02.06.05.12.08.18-.02-.06-.05-.12-.07-.17-.3-.72-.59-1.4-1.16-1.91h0ZM7.97,36.1c.31.02.64.13.92.32-.29-.2-.61-.31-.92-.32Z" style="fill: #fff;"/>
  </g>
  <g>
    <path d="M23.38,80.54h-1c0-1.59-1.72-10.24-4.28-11.78-2.22-1.33-4.54-5.05-4.67-5.41-.63-1.67-1.36-3.33-2.19-4.92-.29-.55-.56-1.45-.84-2.4-.29-.96-.59-1.96-.88-2.47-.81-1.43-1.63-2.5-2.5-3.63-.85-1.11-1.74-2.26-2.58-3.75l.87-.49c.81,1.43,1.63,2.5,2.5,3.63.85,1.11,1.74,2.26,2.58,3.75.34.6.66,1.65.97,2.67.26.86.53,1.75.78,2.23.84,1.63,1.59,3.32,2.23,5.03.16.36,2.34,3.76,4.25,4.9,3.11,1.87,4.77,11.05,4.77,12.64h0Z" style="fill: #fff;"/>
    <path d="M23.88,81.04h-2v-.5c0-1.75-1.81-10.02-4.04-11.35-2.37-1.42-4.73-5.27-4.88-5.66-.62-1.65-1.35-3.29-2.16-4.87-.31-.59-.58-1.51-.88-2.48-.27-.9-.58-1.91-.84-2.37-.79-1.4-1.6-2.46-2.46-3.58-.86-1.13-1.76-2.29-2.62-3.81l-.25-.44,1.74-.98.25.44c.79,1.4,1.6,2.46,2.46,3.58.86,1.13,1.76,2.29,2.62,3.81.37.65.69,1.73,1.01,2.77.24.81.52,1.71.74,2.14.85,1.65,1.61,3.36,2.26,5.08.16.33,2.27,3.59,4.04,4.65,3.33,2,5.01,11.37,5.01,13.07v.5h0ZM22.85,80.04h0c-.24-2.39-1.83-10.11-4.49-11.71-1.32-.79-2.74-2.56-3.61-3.8.87,1.25,2.27,3,3.61,3.8,2.6,1.56,4.24,9.33,4.49,11.71ZM13.3,61.66c.21.5.41,1.01.6,1.52h0c-.19-.5-.4-1.01-.61-1.52h0ZM13.29,61.65h0ZM12.84,60.61h0ZM11.08,56.55c.21.67.41,1.27.61,1.66.4.79.79,1.58,1.15,2.39-.36-.81-.75-1.61-1.15-2.39-.2-.39-.41-1-.61-1.66ZM9.65,52.8c.1.17.2.34.3.52.31.56.62,1.58.92,2.57,0,.04.02.07.03.11,0-.03-.02-.07-.03-.1-.3-1-.61-2.02-.93-2.58-.1-.18-.2-.35-.3-.52h0ZM7.12,49.23c.1.13.2.26.3.39s.2.26.29.38c-.1-.13-.2-.26-.29-.38-.1-.13-.2-.26-.3-.39ZM5.13,46.37s.03.05.05.08c-.02-.03-.03-.05-.05-.08h0Z" style="fill: #fff;"/>
  </g>
  <g>
    <path d="M29.04,72.85c-.57,0-1.13-.06-1.67-.13-.52-.07-1.08-.15-1.64-.28-1.24-.29-2.4-.8-3.51-1.29l.41-.91c1.07.48,2.19.97,3.33,1.23.51.12,1.04.19,1.54.26,1.2.15,2.57.27,3.59-.37l.53.85c-.79.5-1.69.65-2.58.65h0Z" style="fill: #fff;"/>
    <path d="M29.04,73.35c-.61,0-1.22-.07-1.73-.13-.5-.07-1.09-.15-1.69-.28-1.28-.3-2.46-.82-3.6-1.32l-.46-.2.8-1.83.46.2c1.05.47,2.14.95,3.24,1.2.49.11,1.01.19,1.49.25,1.12.14,2.38.25,3.26-.3l.42-.27,1.07,1.69-.42.27c-.78.49-1.71.73-2.85.73h0ZM24.63,71.6c.4.14.81.26,1.22.36.55.13,1.11.21,1.59.27,1.08.14,2.34.19,3.23-.12-1.02.36-2.18.25-3.23.12-.51-.07-1.05-.14-1.59-.27-.41-.1-.82-.22-1.22-.36Z" style="fill: #fff;"/>
  </g>
  <g>
    <path d="M26.13,40.78c-.3,0-.59-.03-.86-.07-1-.14-1.98-.4-2.93-.65-.38-.1-.76-.2-1.15-.29-1.14-.28-2.31-.49-3.45-.7-1.04-.19-2.11-.38-3.16-.62-2.73-.63-4.75-1.48-6.36-2.67-.81-.6-1.61-1.36-2.52-2.39-2.29-2.59-3.96-5.39-4.95-8.34l-.14-.4.38-.2c.99-.52,1.94-1.14,2.81-1.83.72-.57,1.46-1.23,2.33-2.09l.13-.12.18-.02c.97-.11,1.84.43,2.62.89.17.1.34.21.51.3.22.12.41.24.59.35.45.28.77.47,1.35.59l-.2.98c-.75-.15-1.17-.42-1.67-.72-.16-.1-.34-.21-.55-.32-.18-.1-.36-.21-.54-.32-.61-.37-1.25-.75-1.84-.76-.83.82-1.56,1.47-2.27,2.03-.81.64-1.68,1.22-2.59,1.72.97,2.67,2.52,5.23,4.61,7.6.86.98,1.62,1.69,2.37,2.25,1.5,1.11,3.4,1.91,5.99,2.5,1.03.24,2.08.43,3.11.61,1.15.21,2.34.43,3.51.71.39.1.78.2,1.17.3.92.24,1.87.5,2.82.63.41.06.88.1,1.3,0,1.05-.28,1.63-1.56,1.51-2.58-.16-1.39-1.24-2.44-1.87-2.94-.71-.56-1.49-1-2.32-1.46-.34-.19-.67-.37-1-.57-.74-.44-1.47-.93-2.17-1.4-.66-.45-1.35-.91-2.04-1.32-3.54-2.11-7.59-3.12-10.73-3.77l.2-.98c3.21.66,7.37,1.71,11.04,3.89.72.43,1.41.9,2.09,1.35.69.46,1.4.94,2.12,1.37.32.19.65.37.98.55.83.46,1.69.94,2.46,1.55,1.3,1.03,2.09,2.31,2.25,3.61.17,1.46-.62,3.24-2.25,3.66-.28.07-.56.1-.84.1h-.03Z" style="fill: #fff;"/>
    <path d="M26.13,41.28c-.33,0-.64-.03-.93-.07-1.03-.14-2.03-.41-2.99-.66-.38-.1-.76-.2-1.14-.29-1.13-.28-2.35-.5-3.42-.69-1.07-.19-2.13-.39-3.18-.63-2.8-.65-4.88-1.52-6.55-2.76-.84-.62-1.67-1.4-2.6-2.46-2.33-2.64-4.03-5.5-5.05-8.51l-.27-.81.75-.4c.97-.51,1.89-1.11,2.74-1.78.7-.55,1.43-1.21,2.28-2.05l.25-.25.35-.04c1.12-.12,2.1.47,2.89.94.22.13.37.22.52.31.22.12.4.23.58.34.46.29.73.45,1.21.55l.49.1-.4,1.96-.49-.1c-.83-.17-1.32-.47-1.83-.78-.16-.1-.33-.2-.53-.31-.17-.09-.33-.19-.51-.3-.52-.31-1.02-.61-1.44-.7-.78.76-1.46,1.37-2.15,1.91-.72.57-1.49,1.09-2.28,1.55.95,2.47,2.42,4.84,4.37,7.04.84.95,1.57,1.64,2.29,2.18,1.44,1.07,3.29,1.84,5.81,2.42,1.02.24,2.07.43,3.09.61,1.1.2,2.35.43,3.54.71.34.08.69.17,1.03.26l.15.04c.92.24,1.85.49,2.76.62.34.05.77.09,1.11,0,.79-.21,1.23-1.24,1.14-2.04-.14-1.21-1.12-2.15-1.69-2.61-.68-.54-1.44-.96-2.25-1.41-.34-.19-.68-.38-1.01-.57-.75-.44-1.48-.93-2.18-1.41-.64-.43-1.34-.91-2.03-1.32-3.47-2.07-7.47-3.07-10.58-3.71l-.49-.1.4-1.96.49.1c3.25.67,7.46,1.73,11.19,3.95.72.43,1.41.9,2.08,1.35.71.48,1.41.95,2.12,1.37.29.17.59.34.89.51.92.51,1.79.99,2.6,1.63,1.4,1.11,2.26,2.51,2.43,3.94.2,1.68-.73,3.71-2.62,4.2-.3.08-.61.12-.97.12h.03ZM25.72,40.26c.37.03.76.02,1.08-.05-.36.09-.73.08-1.08.05ZM28.73,37.18c.09,1.17-.55,2.59-1.78,2.99,1.25-.4,1.87-1.79,1.78-2.99ZM22.22,39.51c.08.02.17.04.25.07.44.12.9.24,1.35.34-.45-.11-.9-.22-1.34-.34l-.16-.04s-.07-.02-.1-.03ZM17.25,38.47c.18.03.36.07.54.1,1.12.2,2.35.43,3.52.71.11.03.22.05.33.08-.11-.03-.22-.06-.33-.08-1.16-.28-2.34-.49-3.48-.7-.19-.04-.39-.07-.58-.11ZM13.22,37.57c.47.14.96.27,1.48.39.13.03.26.06.39.09-.13-.03-.26-.06-.39-.09-.52-.12-1.01-.25-1.48-.39ZM26.45,33.63c.07.05.14.11.21.16.39.31.94.81,1.37,1.47-.34-.52-.81-1.02-1.37-1.47-.07-.06-.14-.11-.21-.16ZM22.75,31.4c.18.11.36.22.54.33.08.05.16.09.23.14-.08-.05-.16-.09-.23-.14-.18-.11-.36-.21-.54-.33ZM3.95,30.31h0ZM2.07,27c.52,1.13,1.15,2.23,1.88,3.31-.73-1.08-1.35-2.18-1.88-3.31ZM10.65,25.73c2.68.67,5.7,1.65,8.42,3.28.27.16.54.33.8.5-.27-.17-.54-.34-.8-.5-2.73-1.63-5.74-2.61-8.42-3.28ZM2.07,27h0ZM1.23,24.88h0l.37-.2c.88-.49,1.73-1.05,2.52-1.68.7-.55,1.41-1.19,2.23-2l.14-.14h0c-.88.88-1.63,1.55-2.37,2.13-.9.71-1.87,1.34-2.89,1.88h0ZM9.78,22.27s.07.04.11.07c.34.21.64.39,1.02.52h0c-.39-.13-.68-.31-1.02-.53-.04-.02-.07-.04-.11-.06ZM9.2,21.94s.08.04.12.07c.07.04.13.08.2.11-.06-.04-.13-.08-.2-.11-.04-.02-.08-.04-.11-.06h0ZM6.63,20.86h.07c.72.02,1.41.43,2.08.83.04.02.07.04.1.06-.03-.01-.05-.03-.08-.04-.74-.44-1.44-.83-2.18-.85h0Z" style="fill: #fff;"/>
  </g>
  <g>
    <path d="M43.51,25.98c-.1-1.3-.87-5.66-1.68-10.27-1-5.71-2.04-11.62-2.1-13.28,0-.26-.03-.52-.14-.65s-.38-.17-.6-.2c-.96-.11-1.94-.07-2.89-.02-4.46.22-8.96.5-13.37.82-4.52.33-8.57.73-12.31,2.23-.11.04-.27.11-.33.18s-.08.23-.09.34c-.06.78.11,1.58.28,2.36l.91,4.26-.98.21-.91-4.26c-.17-.81-.37-1.73-.29-2.66.02-.26.08-.6.3-.88.21-.26.48-.39.74-.49,3.87-1.55,8-1.96,12.61-2.3,4.43-.32,8.93-.6,13.4-.82.94-.05,2.01-.1,3.05.02.42.05.9.15,1.23.53.35.4.37.95.39,1.27.06,1.59,1.14,7.73,2.09,13.14.81,4.64,1.58,9.02,1.69,10.37l-1,.08v.02Z" style="fill: #fff;"/>
    <path d="M43.05,26.52l-.04-.5c-.1-1.28-.86-5.62-1.67-10.23-1-5.73-2.04-11.65-2.11-13.34,0-.17-.02-.28-.03-.34-.02.01-.1,0-.27-.03-.92-.11-1.88-.06-2.8-.02-4.45.22-8.95.5-13.36.82-4.48.33-8.49.72-12.16,2.19-.02,0-.06.03-.1.04v.07c-.06.7.11,1.47.27,2.21l1.02,4.75-1.96.42-1.02-4.75c-.18-.84-.39-1.8-.3-2.8.02-.3.09-.76.4-1.15.28-.36.64-.52.95-.65,3.94-1.58,8.11-1.99,12.76-2.33,4.43-.32,8.94-.6,13.41-.82.91-.05,2.04-.11,3.14.03.49.06,1.1.19,1.55.7.47.53.5,1.21.51,1.58.06,1.56,1.13,7.68,2.08,13.07.82,4.65,1.59,9.04,1.69,10.42l.04.5-1.99.16h0ZM42.57,17.02c.63,3.62,1.2,6.9,1.39,8.42h0c-.19-1.53-.75-4.81-1.39-8.42ZM40.26,2.79c.14,1.67.82,5.71,1.58,10.06-.74-4.23-1.44-8.38-1.58-10.06ZM28.85,1.47c-2.06.13-4.11.27-6.15.42-4.57.33-8.65.74-12.46,2.26-.12.05-.24.1-.34.16.1-.06.22-.11.34-.16,3.8-1.53,7.89-1.93,12.46-2.27,2.04-.15,4.09-.29,6.15-.42h0ZM40.21,2.07c0,.07,0,.15.02.23,0-.07,0-.15-.02-.23ZM39.98,1.47h0s0,.01,0,0ZM39.26,1.12c.25.04.5.12.68.3-.18-.18-.42-.26-.68-.3Z" style="fill: #fff;"/>
  </g>
  <g>
    <path d="M24.35,25.12c-7.08,0-13.04-3.03-16.84-5.63l-.41-.28.28-.41c.48-.69.59-1.62.67-2.59h0c.08-.96.14-1.91.19-2.87v-.27c.02-.63.04-1.57.67-2.03,1.01-.73,2.57.49,3.82,1.47.33.26.64.51.82.61.59.34,1.22.59,1.89.86l.32.13c2.6,1.06,5.14,2.36,7.59,3.61.56.29,1.14.58,1.66.99,1.27.99,2.06,2.54,2.11,4.15.03.88-.25,1.56-.77,1.92-.41.28-.88.32-1.32.33h-.68ZM8.46,18.93c3.81,2.53,9.68,5.37,16.53,5.18.31,0,.6-.03.79-.16.33-.23.35-.82.34-1.07-.04-1.32-.68-2.58-1.72-3.39-.45-.35-.96-.61-1.5-.88-2.44-1.25-4.96-2.54-7.52-3.58l-.31-.13c-.67-.27-1.36-.55-2.01-.92-.24-.14-.55-.38-.94-.69-.6-.48-2.21-1.74-2.62-1.45-.23.16-.24.86-.25,1.24v.3c-.06.97-.13,1.94-.21,2.9-.08.93-.18,1.84-.58,2.64h0Z" style="fill: #fff;"/>
    <path d="M24.35,25.62c-7.23,0-13.3-3.11-17.13-5.71l-.83-.56.57-.83c.41-.59.51-1.45.58-2.35.08-.95.14-1.9.19-2.86v-.26c.02-.68.05-1.82.88-2.42,1.32-.96,3.04.4,4.42,1.49.32.25.62.49.76.57.56.32,1.16.56,1.81.82l.33.13c2.62,1.07,5.17,2.37,7.63,3.63.59.3,1.19.61,1.74,1.04,1.39,1.08,2.25,2.77,2.3,4.53.03,1.05-.32,1.89-.99,2.35-.52.36-1.09.4-1.59.42h-.68,0ZM8.06,19.27c3.84,2.57,9.84,5.54,16.94,5.35h.22-.22c-7.06.18-13.04-2.76-16.82-5.27l-.12-.08h0ZM26.14,24.31s-.05.04-.08.06c-.04.03-.08.05-.13.08.04-.02.09-.05.13-.07.03-.02.05-.04.08-.06h0ZM24.34,18.85c.12.08.24.16.36.25,1.15.9,1.87,2.3,1.91,3.77,0,.21,0,.5-.09.79.07-.23.1-.49.09-.79-.04-1.46-.76-2.87-1.92-3.77-.12-.09-.23-.17-.36-.25h0ZM9.09,18.74c3.67,2.37,9.31,5.07,15.89,4.87.11,0,.44-.01.51-.07.05-.03.14-.26.12-.64-.04-1.17-.61-2.29-1.53-3.01-.41-.32-.9-.57-1.41-.83-2.44-1.25-4.95-2.53-7.49-3.57l-.31-.13c-.68-.27-1.39-.56-2.07-.95-.28-.16-.6-.41-1-.73-1.24-.97-1.79-1.27-2.02-1.35,0,.13-.03.39-.04.76v.31c-.06.98-.13,1.96-.21,2.93-.07.8-.16,1.63-.46,2.41h.02ZM7.79,19.08s.02.01.02.02l.2-.39c.3-.61.42-1.3.49-2.02-.09.88-.25,1.72-.71,2.4h0ZM15.94,14.73c2.45,1.02,4.85,2.25,7.17,3.44.29.15.56.29.83.44-.27-.15-.54-.29-.81-.43-2.33-1.19-4.73-2.42-7.18-3.44h-.01ZM8.79,12.38c-.03.25-.04.49-.04.7v.27c-.03.4-.05.79-.08,1.19.03-.39.05-.78.07-1.17v-.29c0-.24.02-.48.05-.7h0ZM12.93,13.3c.14.11.27.19.37.25.04.02.09.05.13.07-.04-.02-.09-.05-.13-.07-.1-.06-.23-.15-.37-.25ZM10.71,11.69c.39.23.87.57,1.47,1.03-.47-.37-.98-.75-1.47-1.03Z" style="fill: #fff;"/>
  </g>
  <g>
    <path d="M23.82,25.08c-.96-.39-2.05-1.38-2.92-2.18l-.54-.48c-.17-.15-.37-.32-.52-.56-.35-.56-.28-1.23-.23-1.67.03-.33.08-.77.36-1.14.25-.33.61-.5.86-.59.92-.36,2.62-.41,3.63-.1l-.29.96c-.8-.24-2.28-.2-2.98.07-.14.05-.33.14-.43.26-.11.15-.14.41-.16.64-.04.42-.07.79.09,1.04.07.11.2.22.33.34l.56.5c.77.7,1.83,1.67,2.63,1.99l-.38.93h-.01Z" style="fill: #fff;"/>
    <path d="M24.09,25.73l-.46-.19c-1.04-.43-2.17-1.45-3.07-2.27l-.54-.48c-.19-.16-.42-.37-.61-.67-.44-.7-.36-1.51-.31-1.99.04-.36.09-.91.46-1.39.36-.48.9-.69,1.08-.76,1.02-.4,2.84-.45,3.96-.11l.48.14-.58,1.91-.48-.14c-.69-.21-2.06-.18-2.66.06-.17.06-.21.1-.22.11-.02.04-.04.26-.05.38-.02.2-.06.61,0,.72.03.05.15.15.23.23l.57.51c.71.65,1.77,1.61,2.49,1.9l.46.19-.76,1.85h0ZM21.54,22.81c.64.58,1.36,1.2,2.02,1.58h0c-.67-.39-1.41-1.03-2.02-1.58ZM20.55,21.93s.09.08.13.12l.27.25-.28-.25s-.08-.07-.13-.11h0ZM20.24,21.56s0,.02.02.03c0,.02.03.05.05.07-.02-.02-.03-.05-.05-.07l-.02-.03ZM20.41,19.28s-.03.04-.05.06c-.19.26-.23.61-.26.89-.02.17-.04.37-.04.58,0-.18.02-.38.04-.58.03-.28.07-.63.26-.89.02-.02.03-.04.05-.06ZM22.82,18.65c-.68,0-1.36.09-1.82.27-.03.01-.06.03-.1.04.03-.01.07-.03.1-.04.67-.26,1.9-.34,2.82-.19h0c-.31-.05-.65-.07-1-.07h0Z" style="fill: #fff;"/>
  </g>
  <g>
    <path d="M24.01,40.44l-.54-.35c-.89-.57-1.99-1.28-2.64-1.84-.31-.27-.63-.57-.85-.97-.42-.78-.3-1.69-.16-2.47.03-.18.08-.43.23-.67.2-.31.51-.46.74-.58.7-.35,1.65-.83,2.66-.7.37.05.89.19,1.43.34.75.21,1.67.46,2.12.42l.09,1c-.62.06-1.56-.2-2.47-.46-.51-.14-.99-.28-1.3-.31-.65-.09-1.33.22-2.08.6-.13.07-.29.15-.35.23-.04.06-.06.19-.08.3-.12.65-.21,1.33.05,1.82.14.25.37.47.62.69.59.51,1.71,1.23,2.52,1.75l.55.35-.55.84h.01Z" style="fill: #fff;"/>
    <path d="M24.16,41.13l-.96-.62c-.91-.59-2.03-1.3-2.69-1.88-.33-.28-.7-.63-.96-1.11-.5-.92-.37-1.93-.21-2.8.04-.2.1-.53.3-.85.28-.42.69-.63.93-.75.71-.36,1.79-.9,2.95-.75.41.05.94.2,1.5.36.64.17,1.59.43,1.95.41l.49-.04.18,1.99-.5.04c-.71.07-1.7-.21-2.65-.47-.47-.13-.96-.27-1.22-.3-.51-.08-1.08.2-1.79.55-.04.02-.1.05-.15.08,0,.03,0,.06-.02.09-.1.54-.19,1.15,0,1.5.1.18.3.36.51.55.57.49,1.71,1.23,2.46,1.71l.97.63-1.09,1.67h0ZM21.55,38.19c.24.18.51.38.79.57-.28-.19-.56-.39-.79-.57ZM20.51,37.18c.13.19.29.36.45.51-.17-.16-.33-.32-.45-.51ZM20.4,34.57c-.04.11-.06.22-.08.32.02-.12.04-.22.08-.32ZM21.8,33.64c-.28.12-.55.25-.78.37-.19.1-.41.21-.54.41,0,0,0,.02-.02.03,0-.01,0-.02.02-.03.13-.2.36-.31.54-.41.27-.14.53-.26.78-.37ZM24.79,33.7c.6.17,1.24.34,1.75.41h0c-.46-.06-1.06-.22-1.75-.41ZM23.34,33.35h.05s.05,0,.08.01c-.03,0-.06,0-.08-.01h-.05Z" style="fill: #fff;"/>
  </g>
  <g>
    <path d="M22.7,51.34c-.56-.09-1.87-.86-2.18-1.13-.73-.62-1.51-1.4-1.69-2.46-.11-.65.03-1.28.17-1.76.05-.18.15-.52.43-.76.19-.16.42-.23.59-.27.9-.21,2.63-.41,3.67-.21l-.19.98c-.8-.16-2.31-.02-3.25.2-.12.03-.17.05-.18.06-.05.04-.1.21-.11.27-.11.38-.22.87-.14,1.32.13.75.75,1.36,1.35,1.87.29.25,1.42.86,1.69.91l-.15.99h-.01Z" style="fill: #fff;"/>
    <path d="M23.12,51.91l-.49-.08c-.71-.11-2.1-.97-2.43-1.24-.8-.68-1.65-1.54-1.86-2.76-.13-.75.03-1.45.18-1.98.06-.22.19-.67.59-1.01.28-.23.59-.33.8-.38.88-.2,2.7-.45,3.88-.21l.49.1-.39,1.96-.49-.09c-.7-.14-2.07-.02-2.96.18-.09.33-.19.75-.13,1.1.1.59.65,1.12,1.18,1.57.25.21,1.24.75,1.45.8l.45.11-.04.46-.23,1.48h0ZM22.25,50.65s.03.01.04.02h0s-.03-.01-.04-.02ZM20.45,49.48c.13.12.26.24.39.35.11.1.36.26.64.42-.28-.16-.53-.32-.64-.42-.13-.11-.26-.23-.39-.35ZM19.31,46.95c-.02.23-.02.47.02.71,0,.06.02.12.04.19-.02-.06-.03-.12-.04-.19-.04-.24-.04-.48-.02-.71ZM19.62,45.76c-.08.12-.11.26-.14.36,0,.05-.03.1-.04.15,0-.05.03-.1.04-.15.04-.15.08-.27.14-.36ZM20.48,46.27h0ZM19.76,45.6h0s-.05.04-.07.07c.02-.02.04-.05.07-.07h0ZM20.12,45.44s-.09.02-.14.04c.04-.01.09-.03.14-.04ZM20.25,45.41s-.07.02-.11.02c.04,0,.07-.02.11-.02ZM22.62,45.16c.17,0,.33,0,.48.01h0c-.18-.01-.37-.02-.56-.01h.08Z" style="fill: #fff;"/>
  </g>
  <g>
    <path d="M40.63,27.2c-.42-6.21-1.18-12.3-2.37-19.17l-.07-.43c-.16-1-.32-1.94-.89-2.23-.39-.2-2.27-.07-2.97-.02-.29.02-.54.04-.7.04-5.88.18-12.08.97-16.23,1.54l-.14-.99c4.17-.58,10.41-1.37,16.33-1.55.15,0,.39-.02.67-.04,1.56-.11,2.9-.17,3.49.12,1.03.52,1.23,1.76,1.43,2.96l.07.42c1.2,6.9,1.96,13.03,2.39,19.27l-1,.07h-.01Z" style="fill: #fff;"/>
    <path d="M40.16,27.74l-.03-.5c-.42-6.19-1.17-12.27-2.37-19.12l-.07-.44c-.13-.8-.28-1.69-.62-1.87-.12-.04-.65-.11-2.67.03-.37.03-.61.04-.77.05-5.85.18-12.03.96-16.17,1.54l-.5.07-.27-1.98.49-.07c4.18-.58,10.43-1.37,16.38-1.55.15,0,.38-.02.65-.04,1.75-.12,3.05-.18,3.75.18,1.25.64,1.49,2.07,1.69,3.33l.07.42c1.21,6.91,1.97,13.05,2.39,19.32l.03.5-2,.14h.02ZM40.33,18.62c.32,2.71.57,5.37.76,8.05h0c-.19-2.68-.44-5.34-.76-8.05ZM40.33,18.61h0ZM38.7,7.68l.04.27c.43,2.44.79,4.78,1.11,7.06-.32-2.28-.69-4.63-1.11-7.07l-.04-.27h0ZM38.43,6.29c.08.29.14.6.19.92-.05-.32-.11-.64-.19-.92ZM33.89,4.88c-.12,0-.22.01-.29.01-4.94.15-10.1.73-14.09,1.25,3.99-.52,9.15-1.1,14.09-1.25.08,0,.18,0,.29-.01ZM37.45,4.89s.05.02.07.03c.05.03.11.06.15.09-.05-.03-.1-.06-.16-.09-.02-.01-.04-.02-.06-.03ZM36.23,4.76c-.58,0-1.23.04-1.78.08,1.08-.07,1.81-.09,2.3-.06-.16,0-.34-.01-.53-.01h0Z" style="fill: #fff;"/>
  </g>
  <g>
    <path d="M16.76,12.48c-1.42,0-2.91-.46-4.28-.98l-.35-.14c-.66-.26-1.28-.5-1.92-.53l.04-1c.81.03,1.54.32,2.25.59l.34.13c2.1.8,4.47,1.45,6.16.28.26-.18.87-.87.72-1.36-.07-.23-.63-.66-1.01-.94-.4-.3-.77-.59-.99-.88-.44-.6-.99-1.15-1.26-1.23-1.95-.62-4.78-1.51-6.73-1.43l-.05-1c2.13-.11,5.06.83,7.01,1.45.83.26,1.68,1.4,1.84,1.62.12.17.47.44.78.67.58.44,1.19.9,1.36,1.44.37,1.17-.78,2.26-1.11,2.48-.85.59-1.81.82-2.81.82h.01Z" style="fill: #fff;"/>
    <path d="M16.76,12.98c-1.58,0-3.21-.54-4.46-1.02l-.35-.14c-.62-.24-1.2-.47-1.76-.49l-.5-.02.08-2,.5.02c.89.04,1.66.34,2.4.63l.34.13c1.97.75,4.2,1.38,5.7.33.25-.17.57-.67.53-.8-.08-.12-.62-.53-.83-.69-.43-.33-.84-.64-1.09-.99-.43-.6-.88-1-1.02-1.05-1.73-.55-4.65-1.48-6.55-1.41l-.5.02-.1-1.99.5-.03c2.2-.12,5.15.83,7.1,1.45,1.04.33,1.93,1.49,2.18,1.84.08.11.45.39.67.55.66.5,1.33,1.01,1.54,1.7.45,1.44-.82,2.71-1.3,3.04-.87.6-1.91.91-3.09.91h.01ZM15.83,11.92c1.21.17,2.33.01,3.22-.52-.96.57-2.07.67-3.22.52ZM10.72,10.4c.54.1,1.07.3,1.58.5l.35.14c.48.18,1.02.37,1.58.54-.54-.16-1.07-.34-1.59-.54l-.34-.13c-.52-.2-1.04-.41-1.59-.5h0ZM20.18,9.3v.03c.11.34.02.7-.14,1.01.16-.31.25-.66.14-1.01v-.03ZM18.38,7.64c.18.16.4.33.63.5.3.23.54.42.72.58-.22-.2-.47-.39-.72-.58-.26-.2-.47-.36-.63-.5ZM10.21,4.49c1.96.06,4.54.86,6.21,1.4-1.8-.58-4.29-1.36-6.21-1.4h0Z" style="fill: #fff;"/>
  </g>
  <g>
    <path d="M17.41,12.4c-.51-.32-1.52-1.12-1.94-1.65-.3-.39-.64-.82-.84-1.36-.24-.66-.18-1.35.15-1.84.39-.59,1.17-.9,2-.81.67.08,1.25.39,1.77.66l-.47.88c-.46-.24-.94-.49-1.42-.55-.37-.04-.83.06-1.04.37-.15.23-.17.59-.04.95.14.39.42.75.69,1.09.3.39,1.19,1.12,1.68,1.42l-.53.85h-.01Z" style="fill: #fff;"/>
    <path d="M17.57,13.09l-.42-.26c-.56-.35-1.61-1.19-2.07-1.77-.31-.39-.69-.89-.92-1.5-.29-.81-.22-1.66.2-2.29.49-.74,1.46-1.14,2.47-1.03.76.09,1.42.44,1.95.71l.44.23-.93,1.77-.44-.23c-.42-.22-.85-.45-1.25-.5-.24-.03-.5.04-.57.15-.04.07-.08.25,0,.5.11.32.37.64.61.95s1.07,1,1.55,1.3l.42.26-1.06,1.7h.01ZM15.96,10.56c.18.2.44.44.71.67-.28-.23-.53-.47-.71-.67ZM15.27,7.72s-.05.07-.08.1c-.24.37-.28.89-.09,1.4.12.33.31.63.52.91-.2-.27-.4-.57-.52-.91-.18-.51-.15-1.03.09-1.4.02-.04.05-.07.08-.1ZM16.57,7.22c.05,0,.1,0,.15.01.4.05.79.2,1.15.38h0c-.37-.18-.74-.33-1.15-.38-.05,0-.1,0-.15-.01Z" style="fill: #fff;"/>
  </g>
  <g>
    <path d="M44.86,29.21l-.71-.7s.15-.13.29-.25c.13-.1.29-.23.39-.32-.02-.39-.12-.69-.31-.88-.4-.42-.63-.46-.65-.45l-.38-.92c.36-.15.96-.15,1.76.69.36.38.57.93.58,1.55,0,.12,0,.27-.06.42-.06.17-.18.28-.71.69-.09.07-.17.13-.2.16h0Z" style="fill: #fff;"/>
    <path d="M44.84,29.9l-1.39-1.37.33-.36s.17-.16.35-.3l.1-.08s.06-.04.08-.06c-.03-.14-.08-.25-.14-.32-.17-.18-.29-.26-.35-.29l-.27.02-.71-1.72.46-.19c.42-.17,1.27-.3,2.32.81.45.47.7,1.14.72,1.89,0,.16,0,.38-.1.61-.12.31-.34.49-.87.91-.08.07-.15.12-.18.15l-.35.31h0ZM45.18,27.17c.09.22.15.47.16.76h0c0-.27-.06-.53-.16-.76ZM44.78,26.61s.08.08.12.12c.02.02.04.04.06.06-.02-.02-.04-.04-.06-.06-.04-.04-.07-.08-.12-.12ZM44.26,26.22c.07.04.15.08.23.14-.07-.05-.15-.1-.23-.14h0Z" style="fill: #fff;"/>
  </g>
  <g>
    <path d="M17.36,95.24c-1.16,0-2.32-.06-3.47-.21l-.3-.04-3.54-9.08c-.34-.88-.55-2.1-.5-3.02l.02-.5.5.02c3.05.13,6.07-.46,8.99-1.03,9.21-1.82,18.5-3.71,27.61-5.62l.59-.12v.6c.12,4.97.93,9.03,2.45,12.08.08-.03.15-.06.23-.1l.55-.25.14.59c.05.22-.03.52-.41.67,0,0-.11.04-.26.07-1.63.65-3.38.86-5.08,1.06l-.97.12c-3.51.46-7.03,1.31-10.43,2.14-1.44.35-2.89.7-4.33,1.02-3.81.85-7.83,1.6-11.81,1.6h.02ZM14.31,94.08c4.85.54,9.9-.35,14.64-1.41,1.44-.32,2.88-.67,4.31-1.02,3.43-.83,6.97-1.69,10.54-2.16l.98-.12c1.34-.16,2.71-.33,3.99-.71-1.48-3.04-2.31-7.01-2.47-11.79-8.93,1.88-18.02,3.73-27.04,5.5-2.69.53-5.72,1.13-8.71,1.07.04.7.2,1.51.43,2.12l3.32,8.52h.01Z" style="fill: #fff;"/>
    <path d="M17.36,95.74c-1.22,0-2.41-.07-3.53-.21l-.59-.07-3.64-9.36c-.37-.94-.58-2.24-.54-3.22l.05-1,1,.05c3.01.13,5.99-.46,8.87-1.03,9.2-1.82,18.49-3.71,27.6-5.62l1.18-.25.03,1.21c.1,4.66.83,8.51,2.18,11.44l.89-.4.28,1.18c.1.43-.08,1.01-.73,1.25-.04.01-.16.05-.33.09-1.6.65-3.39.86-5.12,1.07l-.96.12c-3.49.46-6.99,1.3-10.37,2.13-1.46.35-2.9.7-4.34,1.02-3.57.8-7.78,1.61-11.92,1.61h-.01ZM14.63,94.61c1.59.16,3.31.16,5.02.05-1.68.11-3.35.11-5.02-.05ZM32.9,92.25c-1.28.31-2.56.62-3.84.9-1.06.24-2.13.46-3.21.67,1.11-.21,2.19-.44,3.21-.67,1.28-.29,2.56-.59,3.84-.9ZM14.67,93.61c4.7.47,9.59-.41,14.17-1.43,1.39-.31,2.78-.65,4.16-.98l.14-.04c3.44-.83,7-1.7,10.59-2.17l.98-.12c1.12-.13,2.27-.27,3.35-.54-1.29-2.9-2.05-6.54-2.24-10.86-8.71,1.83-17.61,3.64-26.46,5.38-2.54.5-5.4,1.07-8.25,1.08.07.51.19,1.03.35,1.43l3.21,8.24h0ZM44.3,89.94l-.44.05c-.96.12-1.92.28-2.87.45.96-.17,1.92-.33,2.88-.45l.44-.05h-.01ZM48.94,89.13h-.03c-.56.18-1.13.3-1.71.41.59-.1,1.17-.23,1.73-.41h.01ZM48.61,87.03c.19.49.4.97.62,1.42l.25.51h0l-.2-.41c-.24-.48-.46-.99-.67-1.52h0ZM50.16,88.68l-.45.19s.05-.02.08-.03c.19-.05.27-.07.28-.08.03-.01.1-.04.09-.08h0ZM10.06,83.4c.03.74.19,1.59.44,2.26-.23-.63-.4-1.46-.44-2.19v-.07ZM10.06,82.93h.51c.33.02.66.01,1,0-.5.01-1,0-1.51-.01h0ZM46.78,76.26l.02.59c.03.89.08,1.76.16,2.59-.09-1.02-.15-2.08-.17-3.19h-.01Z" style="fill: #fff;"/>
  </g>
  <g>
    <path d="M23.22,90.4c-1,0-1.98-.47-2.61-1.24h0c-.77-.96-.97-2.06-.53-2.93.43-.85,1.38-1.32,2.55-1.28.23,0,.49.02.76.09.67.18,1.22.72,1.48,1.43.21.56.24,1.2.09,1.91-.09.44-.24.87-.44,1.27-.09.19-.22.4-.43.54-.22.15-.47.19-.66.2h-.21ZM22.47,85.94c-.71,0-1.26.27-1.5.73-.26.51-.1,1.21.42,1.86h0c.47.58,1.22.92,1.96.87.13,0,.16-.02.17-.03,0,0,.04-.04.1-.16.16-.33.28-.67.35-1.03.11-.53.09-.99-.05-1.37-.15-.41-.46-.72-.81-.81-.16-.04-.35-.05-.53-.06h-.12,0Z" style="fill: #fff;"/>
    <path d="M23.22,90.9c-1.16,0-2.28-.54-3-1.43-.9-1.12-1.12-2.42-.59-3.47.51-1.02,1.66-1.57,3.01-1.55.25.01.55.02.87.11.82.22,1.5.87,1.82,1.74.24.65.28,1.38.11,2.19-.1.48-.26.95-.48,1.4-.12.23-.29.52-.6.73-.32.22-.67.27-.91.28h-.23ZM23.82,89.77c-.13.08-.25.11-.43.13h0c.13,0,.29-.03.41-.11,0,0,0,0,.02-.01h0ZM20.36,87.02c-.06.58.16,1.23.64,1.83.09.11.19.22.3.32-.11-.1-.21-.2-.3-.32-.48-.6-.7-1.25-.64-1.83ZM22.47,86.44c-.51,0-.91.17-1.05.46-.17.33-.03.83.36,1.32.35.43.9.71,1.43.69.14-.29.22-.55.28-.82.09-.43.08-.8-.03-1.09-.09-.25-.28-.45-.47-.5-.11-.03-.27-.04-.42-.04h-.1v-.02ZM24.55,87.41h0ZM23.33,85.54c.47.16.87.57,1.07,1.1.09.24.14.49.15.77,0-.28-.06-.53-.15-.77-.2-.54-.59-.94-1.07-1.1ZM21.72,85.54c-.49.13-.88.4-1.12.78.24-.38.63-.64,1.12-.78ZM22.5,85.44h.11c.07,0,.14,0,.22.01-.07,0-.15,0-.22-.01h-.11Z" style="fill: #fff;"/>
  </g>
  <g>
    <path d="M27.11,87.21c-.29,0-.58,0-.87-.01l.03-1c1.8.05,3.62-.07,5.39-.36l.16.99c-1.55.26-3.14.39-4.71.39h0Z" style="fill: #fff;"/>
    <path d="M27.11,87.71c-.3,0-.59,0-.89-.01l-.5-.02.06-2h.5c1.77.07,3.55-.05,5.3-.34l.49-.08.33,1.97-.49.08c-1.58.26-3.19.39-4.8.39h0ZM26.75,86.71h.13-.13Z" style="fill: #fff;"/>
  </g>
  <g>
    <path d="M68.8,145.14l-10.71-32.32c-2.38-7.19-4.94-15.53-5.37-24.02-1.14.41-2.33.65-3.55.73l-.06-1c1.34-.09,2.65-.39,3.88-.91l.67-.28.03.72c.31,8.6,2.93,17.13,5.35,24.45l10.43,31.47.07-.02.22.9-.96.28h0Z" style="fill: #fff;"/>
    <path d="M68.48,145.76l-10.86-32.77c-2.32-7.01-4.83-15.16-5.36-23.5-.99.3-2.01.48-3.05.55l-.5.03-.13-2,.5-.03c1.29-.08,2.54-.38,3.72-.87l1.33-.56.05,1.45c.31,8.54,2.91,17.02,5.32,24.31l10.28,31.03h.04l.19.46.34,1.37-1.88.54h.01ZM61.54,121.63l7.59,22.9h.04l-.03-.12-.14-.27-7.46-22.51ZM53.39,91.09c.56,5.91,2.07,11.72,3.72,17.05-1.65-5.34-3.16-11.14-3.72-17.05ZM53.39,91.09h0ZM53.19,88.11l.03.55c0-.19-.02-.38-.02-.57h0c-.44.18-.88.34-1.34.47.24-.07.47-.14.7-.23l.63-.23h0Z" style="fill: #fff;"/>
  </g>
  <g>
    <path d="M23.95,156.29c-.23,0-.46-.1-.62-.25-.28-.27-.29-.67-.04-.95l.74.68c.12-.13.1-.35,0-.44-.07-.07-.19-.02-.25.04h0s0-.08-.04-.33l-7.18-34.02c-.67-3.16-1.36-6.42-2.36-9.54-.48-1.48-.92-3.01-1.39-4.63-1.22-4.2-2.48-8.54-4.4-12.12l-.39-.74h6.06v1h-4.41c1.75,3.52,2.94,7.61,4.09,11.58.47,1.61.91,3.13,1.38,4.6,1.02,3.17,1.71,6.46,2.39,9.64l7.18,34.02c.05.24.18.86-.25,1.27-.15.14-.33.2-.51.2h0Z" style="fill: #fff;"/>
    <path d="M23.95,156.79c-.36,0-.72-.15-.97-.4-.47-.46-.49-1.17-.06-1.64l.2-.22-7.05-33.42c-.67-3.15-1.35-6.4-2.35-9.49-.48-1.47-.91-2.99-1.38-4.59-1.23-4.23-2.48-8.54-4.37-12.08l-.79-1.47h7.4v2h-4.11c1.59,3.39,2.7,7.22,3.78,10.94.47,1.61.91,3.12,1.38,4.59,1.03,3.18,1.72,6.48,2.4,9.67l7.18,34.03c.06.28.24,1.13-.4,1.74-.23.22-.54.34-.85.34h0ZM24.21,154.84h0l-7.16-33.94c-.19-.88-.37-1.76-.57-2.65.19.88.38,1.76.56,2.64l7.16,33.95h.01ZM14.29,110.08c.13.42.26.82.39,1.23.4,1.26.76,2.53,1.08,3.82-.32-1.29-.68-2.56-1.08-3.82-.13-.41-.26-.82-.39-1.23ZM11.68,101.37c.58,1.76,1.1,3.55,1.61,5.32.09.32.19.64.28.96-.09-.31-.18-.63-.27-.94-.52-1.78-1.04-3.58-1.61-5.34h0ZM8.85,94.48c.12.22.23.43.34.66l-.34-.66Z" style="fill: #fff;"/>
  </g>
  <g>
    <path d="M52.64,120.26c-4-4.73-7.66-9.81-10.87-15.1l.85-.52c3.19,5.25,6.82,10.29,10.78,14.98l-.76.65h0Z" style="fill: #fff;"/>
    <path d="M52.58,120.96l-.32-.38c-4.02-4.75-7.69-9.85-10.92-15.17l-.26-.43,1.71-1.04.26.43c3.18,5.22,6.79,10.24,10.74,14.91l.32.38-1.53,1.29h0ZM42.46,105.32c3.05,4.97,6.49,9.76,10.24,14.23h0c-3.75-4.47-7.19-9.26-10.24-14.23h0Z" style="fill: #fff;"/>
  </g>
  <g>
    <path d="M51.47,133.75l-.7-.81c-.93-1.08-1.96-2.1-3.04-3.02-.43-.36-.93-.76-1.48-1-1.03-.44-2.19-.32-3.42-.2-1.04.11-2.11.21-3.17-.02l.21-.98c.9.2,1.85.1,2.86,0,1.3-.13,2.65-.27,3.92.28.68.29,1.25.75,1.73,1.16.84.71,1.63,1.47,2.39,2.27.06-2.24-.78-4.52-2.31-6.16l.73-.68c1.98,2.13,2.93,5.23,2.46,8.11l-.17,1.06h-.01Z" style="fill: #fff;"/>
    <path d="M51.79,134.89l-1.4-1.62c-.92-1.06-1.92-2.06-2.99-2.96-.4-.34-.86-.71-1.36-.93-.92-.39-2.01-.28-3.18-.16-1.03.1-2.19.22-3.33-.03l-.49-.11.43-1.95.49.11c.83.18,1.74.09,2.7,0,1.3-.13,2.78-.28,4.17.31.75.32,1.35.81,1.86,1.24s1.01.89,1.49,1.36c-.23-1.68-.97-3.31-2.1-4.52l-.34-.37,1.46-1.36.34.37c2.09,2.24,3.08,5.51,2.59,8.53l-.34,2.12v-.03ZM50.49,131.89c.22.24.44.48.65.73h0v-.03l-.66-.7h.01ZM47.05,128.79c.29.18.56.39.81.6-.25-.2-.51-.41-.81-.6ZM44.46,128.11c.65,0,1.29.08,1.89.32-1.13-.45-2.38-.32-3.59-.2-.12.01-.24.02-.36.04.12-.01.24-.02.36-.04.56-.06,1.13-.11,1.7-.11h0Z" style="fill: #fff;"/>
  </g>
  <g>
    <path d="M28.09,149.63c-1.32-1.21-1.42-3.15-1.42-4.87l.02-12.06h1l-.02,12.06c0,1.58.08,3.19,1.1,4.13l-.68.74h0Z" style="fill: #fff;"/>
    <path d="M28.12,150.34l-.37-.34c-1.47-1.35-1.59-3.41-1.58-5.24l.02-12.56h2l-.02,12.57c0,1.46.07,2.96.94,3.76l.37.34-1.35,1.47h0ZM27.18,133.2v11.56h0v-11.57s0,.01,0,.01Z" style="fill: #fff;"/>
  </g>
  <g>
    <path d="M17.71,105.65c-.78-1.4-1.23-2.99-1.31-4.59l1-.05c.07,1.45.48,2.89,1.19,4.15l-.87.49h-.01Z" style="fill: #fff;"/>
    <path d="M17.52,106.33l-.24-.44c-.82-1.47-1.29-3.13-1.37-4.81l-.02-.5,2-.1.02.5c.07,1.37.46,2.73,1.12,3.94l.24.44-1.75.97ZM16.94,101.53c.12,1.19.45,2.36.98,3.43h0c-.53-1.07-.86-2.24-.98-3.43h0Z" style="fill: #fff;"/>
  </g>
</svg>