<?xml version="1.0" encoding="UTF-8"?>
<svg id="Layer_1" xmlns="http://www.w3.org/2000/svg" viewBox="0 0 302.25 311.75">
  <g>
    <path d="M11.51,181.16l-.69-3.52c-.12-.64-.27-1.36-.11-2.09l.98.2c-.11.54,0,1.12.12,1.7l.69,3.52-.98.19h0Z"/>
    <path d="M11.11,181.74l-.79-4.01c-.13-.65-.29-1.46-.11-2.29l.1-.49,1.96.41-.1.49c-.09.44.02.98.12,1.5l.79,4.01-1.96.38h0ZM11.14,176.15c0,.47.08.94.17,1.39l.46,2.37-.46-2.37c-.09-.44-.18-.92-.17-1.39h0Z"/>
  </g>
  <g>
    <path d="M12.3,168.08c-.14-.39-.21-.66-.29-.95-.08-.31-.17-.64-.36-1.19l.94-.33c.2.58.3.93.39,1.26.07.27.14.52.26.88l-.94.33Z"/>
    <path d="M11.99,168.71l-.17-.47c-.14-.41-.22-.69-.3-.99s-.17-.62-.35-1.15l-.17-.47,1.89-.66.17.47c.21.6.31.96.4,1.3.07.26.13.5.25.84l.17.47-1.89.67h0ZM12.28,166.24c.1.3.16.53.21.75,0,.03.02.06.03.1,0-.03-.02-.06-.02-.09-.06-.22-.12-.45-.22-.76h0Z"/>
  </g>
  <g>
    <path d="M14.05,181.29h-1c0-.64-.12-1.28-.24-1.95-.13-.7-.27-1.42-.26-2.16h1c0,.66.11,1.3.24,1.98.13.69.26,1.4.26,2.13Z"/>
    <path d="M14.55,181.79h-2v-.51c0-.59-.11-1.2-.23-1.85-.14-.73-.28-1.47-.27-2.26v-.5l2,.02v.5c0,.6.11,1.22.23,1.87.13.68.27,1.44.27,2.23v.5h0ZM13.27,179.1s.02.1.03.15c.03.14.05.28.08.42-.02-.14-.05-.28-.08-.42,0-.05-.02-.1-.03-.15Z"/>
  </g>
  <g>
    <path d="M11.3,195.93c-.06-.46-.08-1.06-.1-1.69-.03-.81-.06-1.64-.16-2.19l.98-.19c.12.62.15,1.5.18,2.34.02.61.04,1.19.09,1.61l-.99.12h0Z"/>
    <path d="M10.86,196.49l-.06-.5c-.06-.49-.08-1.09-.1-1.74-.03-.79-.06-1.6-.15-2.11l-.09-.49,1.96-.38.09.49c.13.66.16,1.55.19,2.42.02.57.04,1.16.09,1.57l.06.5-1.98.24h-.01ZM11.67,193.42c0,.26.02.53.03.8,0,.41.03.8.05,1.15h0c-.02-.36-.04-.76-.05-1.15,0-.27-.02-.54-.03-.8Z"/>
  </g>
  <g>
    <path d="M13.24,196.74l-.55-2.58c-.1-.49-.23-1.11-.07-1.71l.96.26c-.1.38,0,.84.08,1.24l.55,2.58-.98.21h0Z"/>
    <path d="M12.85,197.33l-.65-3.07c-.11-.52-.26-1.22-.06-1.95l.13-.48,1.93.53-.13.48c-.07.26.02.67.09,1.01l.65,3.08-1.96.41h0ZM13.04,193.07c0,.33.07.67.14.98l.44,2.1-.44-2.1c-.06-.29-.14-.64-.14-.98h0Z"/>
  </g>
  <g>
    <g>
      <path d="M24.15,159.45h-.15c-.27,0-.54-.01-.8-.03l-.3-.02-.15-.29c-.16-.35.12-.71.12-.71.11-.14.25-.22.35-.26.2-.11.34-.18.5-.23.41-.11.83,0,1.17.07.49.12.6.38.63.52.05.26-.06.51-.3.68-.34.23-.71.27-1.07.27h0ZM23.26,158.42h0Z" style="fill: #fff;"/>
      <path d="M24.15,159.95h-.16c-.27,0-.55-.01-.82-.03l-.59-.03-.28-.55c-.28-.61.11-1.18.22-1.29.14-.18.36-.3.48-.36.21-.11.38-.21.6-.26.54-.14,1.05-.02,1.41.07.75.18.96.65,1.01.91.1.45-.1.91-.51,1.19-.46.31-.94.35-1.35.35h0ZM23.21,158.92h0c.26.02.53.02.79.03h.14c.27,0,.56-.02.79-.18.04-.03.11-.09.1-.16,0-.04-.09-.1-.26-.14-.3-.07-.63-.15-.92-.08-.1.03-.21.09-.38.18-.1.05-.17.08-.21.14-.04.05-.08.16-.06.21h0Z" style="fill: #fff;"/>
    </g>
    <g>
      <path d="M26.89,159.1l.74-.86c.28-.32.89-.43,1.37-.45,1.21-.12,2.44-.23,3.7-.24.36,0,.74,0,1.08.06l.48.08-.06.48c-.06.41-.48.48-.62.5-1.02.17-2.22.28-3.75.34l-2.93.09h-.01Z" style="fill: #fff;"/>
      <path d="M25.77,159.63l1.49-1.72c.41-.47,1.16-.6,1.73-.62,1.23-.12,2.46-.23,3.72-.24.49,0,.85,0,1.17.06l.95.16-.13.96c-.04.29-.23.8-1.04.93-1.04.17-2.26.28-3.81.34l-4.07.13h0ZM32.92,158.04h-.21c-1.22.02-2.43.12-3.67.24-.58.02-.93.15-1.03.27l1.79-.06c1.51-.06,2.68-.16,3.69-.33.16-.03.2-.06.21-.07h0c-.25-.04-.54-.05-.78-.05Z" style="fill: #fff;"/>
    </g>
    <g>
      <path d="M50.84,187.99c-.42-2.83-.37-4.08.77-6.88l.07-.17c.1-.23.19-.45.22-.65.04-.21,0-.4-.09-.5-.1-.11-.33-.16-.57-.12-.19.03-.38.09-.56.15-.15.05-.29.09-.44.13-1.18.29-2.47-.04-3.37-.86-.14-.13-.26-.24-.31-.25-.02,0-.12.02-.42.53-.79,1.36-2.23,2.43-3.94,2.94-1.39.41-2.97.5-4.82.25l.13-.99c1.71.23,3.15.15,4.4-.22,1.47-.44,2.7-1.34,3.36-2.49.23-.39.66-1.13,1.43-1.02.36.05.6.28.78.45.7.64,1.66.88,2.51.68.13-.03.25-.07.38-.11.24-.08.48-.15.72-.19.59-.08,1.12.07,1.45.43.31.33.43.82.34,1.35-.05.32-.17.61-.29.88l-.07.16c-1.07,2.62-1.11,3.65-.71,6.35l-.99.15h.02Z" style="fill: #fff;"/>
      <path d="M50.42,188.56l-.07-.49c-.43-2.89-.38-4.25.81-7.14l.07-.17c.09-.21.17-.39.19-.55v-.05h-.1c-.16.02-.31.07-.46.12-.19.06-.35.11-.51.15-1.3.32-2.72-.02-3.73-.89-.02.03-.03.06-.05.09-.85,1.47-2.4,2.62-4.23,3.17-1.46.43-3.11.52-5.03.27l-.5-.07.26-1.98.5.07c1.63.21,3,.15,4.19-.21,1.35-.4,2.47-1.23,3.07-2.26.25-.43.83-1.42,1.93-1.26.52.07.85.39,1.05.58.56.51,1.35.73,2.05.56.1-.03.21-.06.31-.09.3-.09.56-.18.84-.22.76-.1,1.45.11,1.89.59.41.45.58,1.09.47,1.77-.06.38-.2.7-.32.98l-.07.16c-1.05,2.56-1.06,3.49-.67,6.08l.07.49-1.98.3h.02ZM51.1,185.61c0,.54.07,1.12.17,1.8h0c-.09-.68-.15-1.26-.17-1.8ZM37.94,182.13h.09-.09ZM45.71,179.11h0c-.73,1.25-2.06,2.24-3.65,2.72-.15.04-.3.08-.46.12.16-.04.31-.08.46-.12,1.59-.48,2.92-1.46,3.65-2.71h0ZM52.4,179.89c.03.15.03.31,0,.48-.04.27-.15.52-.26.77l-.03.06.03-.06c.11-.26.21-.5.26-.77.03-.17.03-.33,0-.48ZM52.05,179.33c.05.04.1.07.14.12.04.04.07.08.1.13-.03-.05-.06-.09-.1-.13-.04-.04-.09-.08-.14-.12ZM47.16,178.67s.03.03.05.04c.72.66,1.75.95,2.72.78-.97.17-2.01-.14-2.77-.83h0ZM50.64,179.3s-.08.02-.11.04c-.1.03-.19.06-.27.08.09-.03.18-.05.27-.08.04-.01.08-.02.11-.04ZM51.21,179.17h-.04c-.12.02-.24.05-.37.08.13-.04.25-.07.37-.08h.04ZM45.91,178.8c-.05.07-.1.15-.15.23.05-.08.1-.16.15-.23ZM46.55,178.34h.06c.2.03.33.13.52.31-.14-.13-.3-.28-.5-.3h-.1.02Z" style="fill: #fff;"/>
    </g>
    <g>
      <path d="M43.19,190.63c-.18,0-.36,0-.54-.02-.24-.01-.47-.02-.69-.02-.87-.02-1.69-.04-2.59-.62-.67-.43-1.37-.88-1.97-1.46-.71-.68-1.18-1.45-1.37-2.24-.19-.81-.1-1.64.03-2.35.13-.77.42-1.84,1.36-2.26l.4.92c-.38.17-.63.66-.78,1.51-.1.61-.19,1.31-.04,1.94.14.6.52,1.2,1.09,1.75.54.51,1.19.94,1.82,1.35.66.43,1.25.44,2.07.46.23,0,.47,0,.73.03,1.22.07,2.31-.14,3.16-.61,0,0-.06.07-.07.19l1,.07c-.02.26-.17.46-.44.62-.89.5-1.96.75-3.17.75h0Z" style="fill: #fff;"/>
      <path d="M43.19,191.13c-.19,0-.38,0-.57-.02-.23-.01-.45-.02-.66-.02-.91-.02-1.84-.04-2.86-.7-.66-.42-1.4-.91-2.05-1.52-.78-.75-1.3-1.6-1.51-2.48-.21-.9-.11-1.79.02-2.55.15-.88.49-2.12,1.66-2.63l.46-.2.8,1.83-.46.2c-.09.04-.33.24-.49,1.14-.1.56-.18,1.2-.05,1.74.12.5.45,1.02.95,1.5s1.13.88,1.74,1.28c.56.36,1.03.37,1.82.39.25,0,.5.01.75.03,1.13.06,2.13-.12,2.89-.55l.44-.24.22.4,1.05.07-.04.5c-.02.3-.16.72-.7,1.02-.97.54-2.11.81-3.41.81h0ZM42.74,190.12c1.08.06,2.04-.09,2.87-.43h0c-.82.34-1.8.49-2.86.43h0ZM40.07,189.79c.48.21.95.27,1.46.29-.51-.02-.98-.08-1.46-.29ZM38,188.39c.43.37.91.69,1.38,1-.48-.31-.95-.63-1.38-1ZM36.5,184.28c-.09.59-.14,1.25,0,1.88.14.58.46,1.15.93,1.68-.47-.53-.79-1.1-.93-1.68-.15-.62-.1-1.28,0-1.88ZM36.95,182.75h0ZM37.19,182.42c-.09.1-.18.21-.25.33.07-.12.15-.23.25-.33h0Z" style="fill: #fff;"/>
    </g>
    <g>
      <path d="M39.78,186.18c-.29,0-.6-.07-.92-.3-1.09-.79-1.64-2.64-1.74-3.69l1-.1c.1,1.05.64,2.48,1.33,2.98.21.16.38.13.76.05.26-.05.59-.12.98-.08.4-.02,2.15-1.08,2.72-1.43.24-.15.43-.26.54-.33l.49.88c-.1.06-.29.17-.51.3-1.78,1.08-2.79,1.61-3.33,1.57-.24-.03-.45.02-.68.07-.19.04-.4.08-.62.08h-.02Z" style="fill: #fff;"/>
      <path d="M39.78,186.68c-.45,0-.84-.13-1.21-.4-1.32-.95-1.85-3.07-1.95-4.05l-.05-.5,1.99-.2.05.5c.1,1.04.63,2.27,1.13,2.62.07.03.26-.01.37-.03.28-.06.66-.13,1.12-.09,0-.02.45-.16,2.42-1.36.25-.15.45-.27.56-.33l.44-.25.97,1.75-.44.24c-.08.05-.22.13-.38.23l-.11.07c-1.9,1.16-2.91,1.71-3.63,1.64-.17-.02-.33.01-.52.06-.23.04-.47.09-.74.09h-.02ZM38.16,184.12c.25.55.57,1.05.99,1.35.35.26.79.21,1.14.14.03,0,.06-.01.09-.02-.03,0-.05.01-.08.02-.38.08-.75.15-1.15-.14s-.73-.78-.99-1.35ZM41.05,185.52h.14-.14ZM43.94,184.16c-.54.33-.98.58-1.32.77.46-.25.94-.54,1.32-.77Z" style="fill: #fff;"/>
    </g>
    <g>
      <path d="M27.06,221.72h-.57v-1c3.64.06,7.24-.4,10.74-1.34.3-.08.61-.17.91-.25,1.03-.29,2.1-.59,3.19-.74.29-.04.59-.07.89-.11,1.46-.16,2.97-.33,3.73-1.38.62-.85.57-2.06.45-3.33l-1.81-19.83c-.1-1.14-.21-2.32-.09-3.5l1,.1c-.11,1.08,0,2.21.09,3.31l1.81,19.83c.1,1.11.25,2.78-.64,4.01-1.02,1.41-2.83,1.61-4.43,1.78-.29.03-.58.06-.86.1-1.03.14-2.06.43-3.06.72-.31.09-.61.17-.92.25-3.41.91-6.91,1.38-10.43,1.38h0Z" style="fill: #fff;"/>
      <path d="M27.06,222.22h-1.07l.03-2.01h.5c3.55.06,7.12-.38,10.59-1.31l.91-.25c1.06-.3,2.14-.6,3.26-.76.27-.04.55-.07.83-.1,1.42-.16,2.82-.31,3.45-1.18.52-.71.47-1.82.36-2.99l-1.81-19.83c-.11-1.17-.21-2.37-.09-3.59l.05-.5,1.99.2-.05.5c-.11,1.04,0,2.14.09,3.21l1.81,19.83c.11,1.18.27,2.97-.73,4.35-1.15,1.58-3.16,1.81-4.78,1.99-.29.03-.57.06-.85.1-.99.14-2.01.42-2.99.7l-.93.26c-3.45.92-7,1.39-10.56,1.39h0ZM40.92,218.96c-.89.16-1.77.41-2.63.65l-.31.09.3-.08c.86-.24,1.75-.49,2.64-.65h0ZM46.26,217.33c-.92,1.1-2.53,1.28-3.97,1.44h-.09.09c1.51-.17,3.06-.34,3.97-1.44ZM45.02,192.76c.02.31.05.62.08.93l1.81,19.84c.04.48.08.95.07,1.4,0-.51-.04-.99-.07-1.4l-1.81-19.83c-.03-.31-.06-.62-.08-.93h0ZM44.97,190.79c0,.13,0,.25,0,.38,0-.13,0-.25,0-.38h0Z" style="fill: #fff;"/>
    </g>
    <g>
      <path d="M47.22,192.46c-.12,0-.25,0-.38-.02-.74-.07-1.47-.31-2.1-.71l.53-.85c.5.31,1.08.51,1.66.56.39.03.7,0,.95-.1l.37.93c-.31.12-.65.18-1.04.18h.01Z" style="fill: #fff;"/>
      <path d="M47.22,192.96c-.14,0-.28,0-.42-.02-.82-.08-1.62-.35-2.32-.78l-.42-.26,1.06-1.7.42.26c.44.27.94.44,1.44.49.31.03.54,0,.72-.07l.47-.18.74,1.86-.46.18c-.37.15-.77.22-1.22.22h0ZM46.22,191.83c.22.06.44.09.66.11.25.02.48.02.69,0h0c-.21.03-.44.03-.69,0-.22-.02-.45-.06-.66-.11Z" style="fill: #fff;"/>
    </g>
    <g>
      <path d="M46.96,196.41c-.73,0-1.46-.21-2.07-.6l.54-.84c.48.3,1.05.46,1.62.44l.03,1h-.12,0Z" style="fill: #fff;"/>
      <path d="M46.96,196.91c-.82,0-1.65-.24-2.34-.68l-.42-.27,1.07-1.69.42.27c.39.25.87.38,1.34.36h.5l.06,1.99h-.64v.02ZM45.72,195.67c.27.11.56.18.85.22h0c-.29-.04-.58-.11-.85-.22Z" style="fill: #fff;"/>
    </g>
    <g>
      <path d="M24.75,221.67c-2.84,0-5.47-.14-8.08-.82-.93-.24-2.07-.65-2.67-1.62-.29-.47-.4-1-.5-1.42-1.13-5.13-1.71-9.11-1.99-13.76l1-.06c.28,4.59.85,8.53,1.97,13.61.1.45.19.81.37,1.11.41.67,1.28.97,2.07,1.18,3.05.8,6.2.82,9.7.77v1c-.63,0-1.26.02-1.88.02h.01Z" style="fill: #fff;"/>
      <path d="M24.75,222.17c-2.6,0-5.39-.1-8.2-.84-1.02-.27-2.27-.71-2.97-1.84-.33-.54-.46-1.14-.56-1.58-1.14-5.15-1.72-9.16-2-13.84l-.03-.5,2-.12.03.5c.28,4.56.85,8.48,1.96,13.53.09.4.17.72.31.96.32.52,1.07.78,1.77.96,2.98.78,6.1.8,9.57.75h.5l.03,1.99h-.5c-.64.02-1.28.02-1.9.02h-.01ZM18.01,220.64c2.3.46,4.59.53,6.75.53h1.39c-2.89.03-5.56,0-8.13-.52h0ZM14.02,217.77c.05.21.1.44.18.66-.07-.2-.12-.42-.18-.66ZM12.44,208.81c.29,2.4.69,4.8,1.25,7.49-.56-2.69-.97-5.08-1.25-7.49Z" style="fill: #fff;"/>
    </g>
    <g>
      <path d="M17.51,213.08c-.58,0-1.22-.1-1.74-.51-.57-.46-.8-1.15-.98-1.76-.55-1.95-.87-3.96-.95-5.99l1-.04c.07,1.95.38,3.88.91,5.75.13.46.3.98.64,1.26.45.36,1.18.32,1.88.24,3.29-.36,5.29-.48,7.21-.6,1.91-.12,3.89-.25,7.17-.6.27-.03,1.31-.12,2.56-.23,2.02-.18,4.78-.43,5.22-.49,1.08-.16,2.32-.68,2.51-1.34.61-2.12.21-3.86-.25-5.88-.2-.89-.41-1.81-.55-2.82-.05-.39-.12-.9-.19-1.48-.31-2.52-.84-6.73-1.36-8.38l.95-.3c.55,1.73,1.06,5.84,1.4,8.56.07.58.13,1.08.19,1.47.13.96.33,1.86.53,2.73.47,2.07.91,4.02.24,6.38-.46,1.59-3.04,2.01-3.33,2.06-.47.07-3.13.31-5.27.5-1.23.11-2.27.2-2.54.23-3.29.36-5.29.48-7.21.6-1.91.12-3.89.25-7.17.6-.25.03-.55.06-.88.06v-.02Z" style="fill: #fff;"/>
      <path d="M17.51,213.58c-.86,0-1.53-.2-2.05-.62-.74-.6-1-1.52-1.15-2.01-.57-1.99-.89-4.04-.97-6.11l-.02-.5,2-.07.02.5c.07,1.91.37,3.8.89,5.63.08.28.23.8.48,1,.3.24.94.2,1.52.13,3.3-.36,5.29-.48,7.22-.6,1.96-.12,3.92-.25,7.15-.6.24-.03,1.1-.1,2.17-.2l.39-.04c1.9-.17,4.76-.42,5.19-.49,1.09-.16,2.01-.65,2.1-.98.57-1.99.19-3.68-.26-5.63-.21-.9-.42-1.83-.55-2.86-.05-.39-.12-.9-.19-1.48-.31-2.5-.83-6.68-1.34-8.29l-.15-.48,1.91-.6.15.48c.56,1.77,1.07,5.9,1.41,8.63.08.61.14,1.1.19,1.48.12.93.32,1.81.52,2.66.49,2.15.95,4.16.23,6.65-.53,1.85-3.21,2.33-3.74,2.41-.45.07-2.67.26-5.3.5l-.41.04c-1.04.09-1.88.17-2.12.19-3.34.36-5.41.49-7.23.61-1.95.12-3.91.25-7.14.6-.27.03-.59.06-.94.06h.02ZM17.26,212.57c.34.02.72-.01,1.01-.04-.34.04-.68.06-1.01.04ZM15.22,210.47c.02.07.04.13.06.2.16.56.35,1.14.81,1.51.06.05.12.09.19.13-.06-.04-.13-.08-.19-.13-.46-.37-.66-.97-.81-1.51-.02-.07-.04-.13-.06-.2ZM30.06,211.58c-1.06.1-1.96.17-2.8.22.84-.06,1.74-.13,2.8-.22ZM40.58,210.58s-.05,0-.07.01c-.46.07-3.23.31-5.25.49l-.3.03.3-.03c2.02-.18,4.79-.43,5.25-.49,0,0,.03,0,.07-.01ZM43.33,209.16c-.12.22-.3.41-.52.58.22-.16.4-.35.52-.58ZM42.64,199.9v.09c.14.99.35,1.9.55,2.77.04.15.07.31.1.46-.03-.15-.07-.3-.1-.45-.2-.9-.41-1.8-.54-2.78,0-.03,0-.06,0-.09h0ZM41.23,190.53c.49,1.92.95,5.67,1.24,7.99.04.32.08.62.11.89-.03-.26-.07-.55-.11-.86-.31-2.51-.76-6.12-1.24-8.01h0Z" style="fill: #fff;"/>
    </g>
    <g>
      <path d="M32.22,218.36c-1.3,0-2.58-.6-3.39-1.62-.14-.17-.3-.42-.37-.72-.07-.36.03-.7.1-.95h0l.08-.28c.26-.88.5-1.71,1.96-1.83,1.16-.1,2.34.1,3.41.58.26.12,1.03.46,1.27,1.21.09.29.08.58.07.83-.03.44-.08.9-.31,1.33-.34.66-1.04,1.15-1.93,1.35-.3.07-.6.1-.9.1h0ZM29.52,215.36c-.05.16-.1.35-.08.46.02.1.11.21.17.3.75.96,2.11,1.43,3.29,1.17.6-.14,1.06-.44,1.26-.84.14-.27.18-.61.2-.94,0-.16.02-.33-.02-.46-.07-.21-.3-.41-.72-.6-.91-.41-1.92-.58-2.92-.5-.78.07-.84.27-1.08,1.11l-.09.29h0Z" style="fill: #fff;"/>
      <path d="M32.22,218.86c-1.47,0-2.89-.68-3.78-1.81-.16-.2-.38-.52-.46-.93-.1-.48.03-.91.12-1.19l.08-.28c.26-.91.59-2.03,2.4-2.18,1.24-.11,2.51.11,3.66.62.31.14,1.23.56,1.54,1.51.11.36.11.7.09,1.01-.03.49-.1,1.01-.36,1.53-.41.79-1.23,1.38-2.27,1.61-.33.07-.67.11-1.01.11h0ZM29.36,216.59c.85.96,2.25,1.44,3.51,1.21-1.27.22-2.66-.26-3.51-1.21ZM34.46,216.9c-.16.21-.37.4-.62.54.25-.15.47-.33.62-.54ZM29.94,215.73s.03.04.06.08c.63.8,1.78,1.21,2.79.99.44-.1.79-.32.92-.58.1-.19.13-.48.14-.75v-.28h0s-.06-.12-.45-.29c-.84-.37-1.76-.53-2.68-.45-.29.03-.51.28-.64.75l-.09.3c-.02.06-.05.16-.06.22h0ZM28.99,216.05c.04.1.09.19.15.27-.06-.08-.11-.17-.15-.27ZM34.76,216.27h0ZM34.83,214.97c.04.19.04.38.02.57-.02.24-.04.49-.1.73.06-.24.09-.49.1-.73,0-.19.02-.38-.02-.57ZM28.99,215.41c-.04.15-.06.31-.04.46-.02-.16,0-.31.04-.46ZM29.57,213.9c-.21.25-.32.6-.44,1.03l-.08.28s-.03.09-.04.14c0-.05.03-.09.04-.14l.08-.29c.13-.43.23-.78.44-1.03h0ZM31.19,213.43c.91,0,1.81.19,2.63.56.08.04.18.08.27.13-.11-.06-.21-.1-.27-.13-.96-.43-2.01-.61-3.04-.55.13,0,.27-.01.4-.01h0Z" style="fill: #fff;"/>
    </g>
    <g>
      <path d="M42.39,229.74c-.32-2.98.37-6.9,2.05-11.64l.94.33c-1.6,4.54-2.29,8.41-1.99,11.21l-.99.11h0Z" style="fill: #fff;"/>
      <path d="M41.94,230.29l-.05-.5c-.32-3.06.37-7.05,2.07-11.86l.17-.47,1.89.66-.17.47c-1.58,4.47-2.26,8.27-1.97,10.99l.05.5-1.99.21ZM44.74,218.73c-1.44,4.2-2.08,7.71-1.9,10.45h0c-.17-2.72.48-6.31,1.9-10.45h0Z" style="fill: #fff;"/>
    </g>
    <g>
      <path d="M47.45,213.34l-.92-.39c2.01-4.8,3.93-7.59,6.42-9.35l.58.82c-2.33,1.64-4.14,4.3-6.07,8.92h0Z" style="fill: #fff;"/>
      <path d="M47.72,213.99l-1.84-.77.19-.46c2.04-4.89,4.02-7.75,6.59-9.56l.41-.29,1.15,1.64-.41.29c-2.24,1.58-4.01,4.18-5.9,8.7l-.19.46h0ZM47.18,212.68h0c1.79-4.17,3.51-6.72,5.65-8.37h0c-2.14,1.65-3.86,4.21-5.65,8.37Z" style="fill: #fff;"/>
    </g>
    <g>
      <path d="M53.22,204.51h-.07c-.33-.04-.64-.08-.84-2.55-2.68-6.15-2.56-6.95-1.78-11.99.1-.63.21-1.33.32-2.12l.99.14c-.11.79-.22,1.5-.32,2.13-.77,5.03-.85,5.56,1.74,11.52l.04.16c.06.77.19,1.72.28,1.91-.03-.06-.16-.19-.36-.19-.23.03-.33.13-.36.19l.97.27c-.15.45-.41.54-.6.54h-.01Z" style="fill: #fff;"/>
      <path d="M53.22,205.01h-.14c-.81-.1-1.09-.74-1.27-2.93-2.7-6.22-2.56-7.14-1.78-12.19.1-.68.21-1.36.32-2.12l.07-.5,1.98.29-.07.5c-.11.79-.22,1.5-.32,2.14-.77,5.01-.83,5.42,1.71,11.24l.07.24c.08.94.2,1.69.25,1.83h-.02l.44.13-.16.5c-.26.8-.84.88-1.07.88h0ZM53.21,203.89l-.09.04s.06.09.09.09c.01,0,.03,0,.05-.03.01-.01.02-.04.03-.06l-.08-.04ZM51.09,197.56c.35,1.1.89,2.41,1.67,4.2l.04.16c.04.49.08.86.12,1.15h0c-.08-.57-.13-1.19-.14-1.23l-.03-.08c-.78-1.79-1.32-3.1-1.67-4.19h0Z" style="fill: #fff;"/>
    </g>
    <g>
      <path d="M22.62,206.3c-.28,0-.56,0-.85-.02-6.45-.31-12.77-2.25-18.28-5.62-.39-.24-1.21-.74-1.31-1.61-.07-.62.25-1.16.47-1.51l3.42-5.68c.22-.37.5-.82.97-1.09.65-.37,1.55-.26,2.23.27h0c.78.61,1.13,1.44,1.47,2.24.21.5.41.98.71,1.37.93,1.24,2.79,1.92,4.28,2.47l.24.09c2.68.99,5.44,1.87,8.2,2.62.96.26,2.42.66,3.03,1.89.71,1.41-.18,3.15-1.45,3.89-.95.55-2.05.69-3.14.69h0ZM7.9,191.56c-.13,0-.25.03-.37.09-.25.14-.44.45-.6.73l-3.42,5.68c-.2.33-.36.63-.33.88.04.34.45.63.84.87,5.37,3.28,11.53,5.17,17.8,5.47,1.4.07,2.52,0,3.43-.53.86-.5,1.51-1.68,1.06-2.58-.38-.77-1.36-1.09-2.4-1.37-2.78-.76-5.57-1.65-8.28-2.65l-.24-.09c-1.62-.59-3.63-1.33-4.74-2.8-.37-.49-.6-1.05-.83-1.59-.3-.72-.59-1.39-1.16-1.84-.2-.16-.49-.28-.76-.28h0Z" style="fill: #fff;"/>
      <path d="M22.62,206.8c-.29,0-.58,0-.87-.02-6.53-.31-12.93-2.28-18.52-5.69-.42-.26-1.41-.87-1.55-1.97-.09-.79.3-1.44.54-1.83l3.42-5.68c.24-.39.56-.93,1.16-1.27.82-.46,1.94-.34,2.78.31.89.69,1.28,1.62,1.63,2.44.2.48.39.92.65,1.27.84,1.12,2.62,1.77,4.05,2.3l.24.09c2.67.98,5.41,1.86,8.16,2.61.98.27,2.63.72,3.35,2.15.84,1.67-.18,3.7-1.65,4.55-1.17.68-2.49.75-3.39.75h0ZM25.63,205.11s-.08.05-.13.08c-.07.04-.14.08-.22.12.07-.04.15-.08.22-.12.04-.02.08-.05.13-.08ZM2.67,198.93v.07c.08.63.73,1.03,1.08,1.24,3.47,2.12,7.27,3.67,11.21,4.59-3.95-.92-7.74-2.47-11.21-4.59-.5-.3-1.01-.69-1.08-1.24v-.07ZM7.9,192.06c-.05,0-.09,0-.12.03-.13.07-.3.35-.42.55l-3.42,5.68c-.07.11-.28.46-.26.56,0,.03.06.17.61.51,5.3,3.24,11.37,5.11,17.57,5.4,1.31.06,2.35,0,3.16-.47.66-.38,1.17-1.3.86-1.92-.29-.58-1.16-.86-2.09-1.11-2.79-.77-5.59-1.66-8.32-2.66l-.24-.09c-1.68-.61-3.77-1.38-4.97-2.97-.41-.54-.65-1.12-.89-1.69-.29-.69-.54-1.28-1.01-1.64-.13-.1-.32-.17-.46-.17h0ZM26.73,201.88s.02.05.04.07c0,.03.02.05.04.08,0-.03-.02-.05-.04-.08,0-.02-.02-.05-.04-.07ZM14.57,197.22c.34.13.67.25.99.37l.24.09c2.7.99,5.47,1.88,8.24,2.64.45.12.88.25,1.28.42-.44-.19-.9-.32-1.28-.42-2.77-.76-5.54-1.65-8.24-2.64l-.24-.09c-.32-.12-.65-.24-.99-.37ZM2.99,197.96s-.06.1-.09.16c.03-.05.06-.11.09-.16ZM10.97,194.84s.05.08.08.11c.19.25.4.48.64.68-.24-.21-.46-.43-.64-.68-.03-.04-.06-.08-.08-.11ZM7.18,191.28c-.3.21-.5.54-.68.84l-1.27,2.1,1.27-2.1c.17-.28.38-.62.68-.84ZM9.13,191.57c.58.52.87,1.22,1.16,1.91.02.06.05.12.08.18-.02-.06-.05-.12-.07-.17-.3-.72-.59-1.4-1.16-1.91h0ZM7.97,191.06c.31.02.64.13.92.32-.29-.2-.61-.31-.92-.32Z" style="fill: #fff;"/>
    </g>
    <g>
      <path d="M23.38,235.5h-1c0-1.59-1.72-10.24-4.28-11.78-2.22-1.33-4.54-5.05-4.67-5.41-.63-1.67-1.36-3.33-2.19-4.92-.29-.55-.56-1.45-.84-2.4-.29-.96-.59-1.96-.88-2.47-.81-1.43-1.63-2.5-2.5-3.63-.85-1.11-1.74-2.26-2.58-3.75l.87-.49c.81,1.43,1.63,2.5,2.5,3.63.85,1.11,1.74,2.26,2.58,3.75.34.6.66,1.65.97,2.67.26.86.53,1.75.78,2.23.84,1.63,1.59,3.32,2.23,5.03.16.36,2.34,3.76,4.25,4.9,3.11,1.87,4.77,11.05,4.77,12.64h0Z" style="fill: #fff;"/>
      <path d="M23.88,236h-2v-.5c0-1.75-1.81-10.02-4.04-11.35-2.37-1.42-4.73-5.27-4.88-5.66-.62-1.65-1.35-3.29-2.16-4.87-.31-.59-.58-1.51-.88-2.48-.27-.9-.58-1.91-.84-2.37-.79-1.4-1.6-2.46-2.46-3.58-.86-1.13-1.76-2.29-2.62-3.81l-.25-.44,1.74-.98.25.44c.79,1.4,1.6,2.46,2.46,3.58.86,1.13,1.76,2.29,2.62,3.81.37.65.69,1.73,1.01,2.77.24.81.52,1.71.74,2.14.85,1.65,1.61,3.36,2.26,5.08.16.33,2.27,3.59,4.04,4.65,3.33,2,5.01,11.37,5.01,13.07v.5h0ZM22.85,235h0c-.24-2.39-1.83-10.11-4.49-11.71-1.32-.79-2.74-2.56-3.61-3.8.87,1.25,2.27,3,3.61,3.8,2.6,1.56,4.24,9.33,4.49,11.71ZM13.3,216.62c.21.5.41,1.01.6,1.52h0c-.19-.5-.4-1.01-.61-1.52h0ZM13.29,216.61h0ZM12.84,215.57h0ZM11.08,211.51c.21.67.41,1.27.61,1.66.4.79.79,1.58,1.15,2.39-.36-.81-.75-1.61-1.15-2.39-.2-.39-.41-1-.61-1.66ZM9.65,207.76c.1.17.2.34.3.52.31.56.62,1.58.92,2.57,0,.04.02.07.03.11,0-.03-.02-.07-.03-.1-.3-1-.61-2.02-.93-2.58-.1-.18-.2-.35-.3-.52h0ZM7.12,204.19c.1.13.2.26.3.39s.2.26.29.38c-.1-.13-.2-.26-.29-.38-.1-.13-.2-.26-.3-.39ZM5.13,201.33s.03.05.05.08c-.02-.03-.03-.05-.05-.08h0Z" style="fill: #fff;"/>
    </g>
    <g>
      <path d="M29.04,227.81c-.57,0-1.13-.06-1.67-.13-.52-.07-1.08-.15-1.64-.28-1.24-.29-2.4-.8-3.51-1.29l.41-.91c1.07.48,2.19.97,3.33,1.23.51.12,1.04.19,1.54.26,1.2.15,2.57.27,3.59-.37l.53.85c-.79.5-1.69.65-2.58.65h0Z" style="fill: #fff;"/>
      <path d="M29.04,228.31c-.61,0-1.22-.07-1.73-.13-.5-.07-1.09-.15-1.69-.28-1.28-.3-2.46-.82-3.6-1.32l-.46-.2.8-1.83.46.2c1.05.47,2.14.95,3.24,1.2.49.11,1.01.19,1.49.25,1.12.14,2.38.25,3.26-.3l.42-.27,1.07,1.69-.42.27c-.78.49-1.71.73-2.85.73h0ZM24.63,226.56c.4.14.81.26,1.22.36.55.13,1.11.21,1.59.27,1.08.14,2.34.19,3.23-.12-1.02.36-2.18.25-3.23.12-.51-.07-1.05-.14-1.59-.27-.41-.1-.82-.22-1.22-.36Z" style="fill: #fff;"/>
    </g>
    <g>
      <path d="M26.13,195.74c-.3,0-.59-.03-.86-.07-1-.14-1.98-.4-2.93-.65-.38-.1-.76-.2-1.15-.29-1.14-.28-2.31-.49-3.45-.7-1.04-.19-2.11-.38-3.16-.62-2.73-.63-4.75-1.48-6.36-2.67-.81-.6-1.61-1.36-2.52-2.39-2.29-2.59-3.96-5.39-4.95-8.34l-.14-.4.38-.2c.99-.52,1.94-1.14,2.81-1.83.72-.57,1.46-1.23,2.33-2.09l.13-.12.18-.02c.97-.11,1.84.43,2.62.89.17.1.34.21.51.3.22.12.41.24.59.35.45.28.77.47,1.35.59l-.2.98c-.75-.15-1.17-.42-1.67-.72-.16-.1-.34-.21-.55-.32-.18-.1-.36-.21-.54-.32-.61-.37-1.25-.75-1.84-.76-.83.82-1.56,1.47-2.27,2.03-.81.64-1.68,1.22-2.59,1.72.97,2.67,2.52,5.23,4.61,7.6.86.98,1.62,1.69,2.37,2.25,1.5,1.11,3.4,1.91,5.99,2.5,1.03.24,2.08.43,3.11.61,1.15.21,2.34.43,3.51.71.39.1.78.2,1.17.3.92.24,1.87.5,2.82.63.41.06.88.1,1.3,0,1.05-.28,1.63-1.56,1.51-2.58-.16-1.39-1.24-2.44-1.87-2.94-.71-.56-1.49-1-2.32-1.46-.34-.19-.67-.37-1-.57-.74-.44-1.47-.93-2.17-1.4-.66-.45-1.35-.91-2.04-1.32-3.54-2.11-7.59-3.12-10.73-3.77l.2-.98c3.21.66,7.37,1.71,11.04,3.89.72.43,1.41.9,2.09,1.35.69.46,1.4.94,2.12,1.37.32.19.65.37.98.55.83.46,1.69.94,2.46,1.55,1.3,1.03,2.09,2.31,2.25,3.61.17,1.46-.62,3.24-2.25,3.66-.28.07-.56.1-.84.1h-.03Z" style="fill: #fff;"/>
      <path d="M26.13,196.24c-.33,0-.64-.03-.93-.07-1.03-.14-2.03-.41-2.99-.66-.38-.1-.76-.2-1.14-.29-1.13-.28-2.35-.5-3.42-.69-1.07-.19-2.13-.39-3.18-.63-2.8-.65-4.88-1.52-6.55-2.76-.84-.62-1.67-1.4-2.6-2.46-2.33-2.64-4.03-5.5-5.05-8.51l-.27-.81.75-.4c.97-.51,1.89-1.11,2.74-1.78.7-.55,1.43-1.21,2.28-2.05l.25-.25.35-.04c1.12-.12,2.1.47,2.89.94.22.13.37.22.52.31.22.12.4.23.58.34.46.29.73.45,1.21.55l.49.1-.4,1.96-.49-.1c-.83-.17-1.32-.47-1.83-.78-.16-.1-.33-.2-.53-.31-.17-.09-.33-.19-.51-.3-.52-.31-1.02-.61-1.44-.7-.78.76-1.46,1.37-2.15,1.91-.72.57-1.49,1.09-2.28,1.55.95,2.47,2.42,4.84,4.37,7.04.84.95,1.57,1.64,2.29,2.18,1.44,1.07,3.29,1.84,5.81,2.42,1.02.24,2.07.43,3.09.61,1.1.2,2.35.43,3.54.71.34.08.69.17,1.03.26l.15.04c.92.24,1.85.49,2.76.62.34.05.77.09,1.11,0,.79-.21,1.23-1.24,1.14-2.04-.14-1.21-1.12-2.15-1.69-2.61-.68-.54-1.44-.96-2.25-1.41-.34-.19-.68-.38-1.01-.57-.75-.44-1.48-.93-2.18-1.41-.64-.43-1.34-.91-2.03-1.32-3.47-2.07-7.47-3.07-10.58-3.71l-.49-.1.4-1.96.49.1c3.25.67,7.46,1.73,11.19,3.95.72.43,1.41.9,2.08,1.35.71.48,1.41.95,2.12,1.37.29.17.59.34.89.51.92.51,1.79.99,2.6,1.63,1.4,1.11,2.26,2.51,2.43,3.94.2,1.68-.73,3.71-2.62,4.2-.3.08-.61.12-.97.12h.03ZM25.72,195.22c.37.03.76.02,1.08-.05-.36.09-.73.08-1.08.05ZM28.73,192.14c.09,1.17-.55,2.59-1.78,2.99,1.25-.4,1.87-1.79,1.78-2.99ZM22.22,194.47c.08.02.17.04.25.07.44.12.9.24,1.35.34-.45-.11-.9-.22-1.34-.34l-.16-.04s-.07-.02-.1-.03ZM17.25,193.43c.18.03.36.07.54.1,1.12.2,2.35.43,3.52.71.11.03.22.05.33.08-.11-.03-.22-.06-.33-.08-1.16-.28-2.34-.49-3.48-.7-.19-.04-.39-.07-.58-.11ZM13.22,192.53c.47.14.96.27,1.48.39.13.03.26.06.39.09-.13-.03-.26-.06-.39-.09-.52-.12-1.01-.25-1.48-.39ZM26.45,188.59c.07.05.14.11.21.16.39.31.94.81,1.37,1.47-.34-.52-.81-1.02-1.37-1.47-.07-.06-.14-.11-.21-.16ZM22.75,186.36c.18.11.36.22.54.33.08.05.16.09.23.14-.08-.05-.16-.09-.23-.14-.18-.11-.36-.21-.54-.33ZM3.95,185.27h0ZM2.07,181.96c.52,1.13,1.15,2.23,1.88,3.31-.73-1.08-1.35-2.18-1.88-3.31ZM10.65,180.69c2.68.67,5.7,1.65,8.42,3.28.27.16.54.33.8.5-.27-.17-.54-.34-.8-.5-2.73-1.63-5.74-2.61-8.42-3.28ZM2.07,181.96h0ZM1.23,179.84h0l.37-.2c.88-.49,1.73-1.05,2.52-1.68.7-.55,1.41-1.19,2.23-2l.14-.14h0c-.88.88-1.63,1.55-2.37,2.13-.9.71-1.87,1.34-2.89,1.88h0ZM9.78,177.23s.07.04.11.07c.34.21.64.39,1.02.52h0c-.39-.13-.68-.31-1.02-.53-.04-.02-.07-.04-.11-.06ZM9.2,176.9s.08.04.12.07c.07.04.13.08.2.11-.06-.04-.13-.08-.2-.11-.04-.02-.08-.04-.11-.06h0ZM6.63,175.82h.07c.72.02,1.41.43,2.08.83.04.02.07.04.1.06-.03-.01-.05-.03-.08-.04-.74-.44-1.44-.83-2.18-.85h0Z" style="fill: #fff;"/>
    </g>
    <g>
      <path d="M43.51,180.94c-.1-1.3-.87-5.66-1.68-10.27-1-5.71-2.04-11.62-2.1-13.28,0-.26-.03-.52-.14-.65s-.38-.17-.6-.2c-.96-.11-1.94-.07-2.89-.02-4.46.22-8.96.5-13.37.82-4.52.33-8.57.73-12.31,2.23-.11.04-.27.11-.33.18s-.08.23-.09.34c-.06.78.11,1.58.28,2.36l.91,4.26-.98.21-.91-4.26c-.17-.81-.37-1.73-.29-2.66.02-.26.08-.6.3-.88.21-.26.48-.39.74-.49,3.87-1.55,8-1.96,12.61-2.3,4.43-.32,8.93-.6,13.4-.82.94-.05,2.01-.1,3.05.02.42.05.9.15,1.23.53.35.4.37.95.39,1.27.06,1.59,1.14,7.73,2.09,13.14.81,4.64,1.58,9.02,1.69,10.37l-1,.08v.02Z" style="fill: #fff;"/>
      <path d="M43.05,181.48l-.04-.5c-.1-1.28-.86-5.62-1.67-10.23-1-5.73-2.04-11.65-2.11-13.34,0-.17-.02-.28-.03-.34-.02.01-.1,0-.27-.03-.92-.11-1.88-.06-2.8-.02-4.45.22-8.95.5-13.36.82-4.48.33-8.49.72-12.16,2.19-.02,0-.06.03-.1.04v.07c-.06.7.11,1.47.27,2.21l1.02,4.75-1.96.42-1.02-4.75c-.18-.84-.39-1.8-.3-2.8.02-.3.09-.76.4-1.15.28-.36.64-.52.95-.65,3.94-1.58,8.11-1.99,12.76-2.33,4.43-.32,8.94-.6,13.41-.82.91-.05,2.04-.11,3.14.03.49.06,1.1.19,1.55.7.47.53.5,1.21.51,1.58.06,1.56,1.13,7.68,2.08,13.07.82,4.65,1.59,9.04,1.69,10.42l.04.5-1.99.16h0ZM42.57,171.98c.63,3.62,1.2,6.9,1.39,8.42h0c-.19-1.53-.75-4.81-1.39-8.42ZM40.26,157.75c.14,1.67.82,5.71,1.58,10.06-.74-4.23-1.44-8.38-1.58-10.06ZM28.85,156.43c-2.06.13-4.11.27-6.15.42-4.57.33-8.65.74-12.46,2.26-.12.05-.24.1-.34.16.1-.06.22-.11.34-.16,3.8-1.53,7.89-1.93,12.46-2.27,2.04-.15,4.09-.29,6.15-.42h0ZM40.21,157.03c0,.07,0,.15.02.23,0-.07,0-.15-.02-.23ZM39.98,156.43h0s0,.01,0,0ZM39.26,156.08c.25.04.5.12.68.3-.18-.18-.42-.26-.68-.3Z" style="fill: #fff;"/>
    </g>
    <g>
      <path d="M24.35,180.08c-7.08,0-13.04-3.03-16.84-5.63l-.41-.28.28-.41c.48-.69.59-1.62.67-2.59h0c.08-.96.14-1.91.19-2.87v-.27c.02-.63.04-1.57.67-2.03,1.01-.73,2.57.49,3.82,1.47.33.26.64.51.82.61.59.34,1.22.59,1.89.86l.32.13c2.6,1.06,5.14,2.36,7.59,3.61.56.29,1.14.58,1.66.99,1.27.99,2.06,2.54,2.11,4.15.03.88-.25,1.56-.77,1.92-.41.28-.88.32-1.32.33h-.68ZM8.46,173.89c3.81,2.53,9.68,5.37,16.53,5.18.31,0,.6-.03.79-.16.33-.23.35-.82.34-1.07-.04-1.32-.68-2.58-1.72-3.39-.45-.35-.96-.61-1.5-.88-2.44-1.25-4.96-2.54-7.52-3.58l-.31-.13c-.67-.27-1.36-.55-2.01-.92-.24-.14-.55-.38-.94-.69-.6-.48-2.21-1.74-2.62-1.45-.23.16-.24.86-.25,1.24v.3c-.06.97-.13,1.94-.21,2.9-.08.93-.18,1.84-.58,2.64h0Z" style="fill: #fff;"/>
      <path d="M24.35,180.58c-7.23,0-13.3-3.11-17.13-5.71l-.83-.56.57-.83c.41-.59.51-1.45.58-2.35.08-.95.14-1.9.19-2.86v-.26c.02-.68.05-1.82.88-2.42,1.32-.96,3.04.4,4.42,1.49.32.25.62.49.76.57.56.32,1.16.56,1.81.82l.33.13c2.62,1.07,5.17,2.37,7.63,3.63.59.3,1.19.61,1.74,1.04,1.39,1.08,2.25,2.77,2.3,4.53.03,1.05-.32,1.89-.99,2.35-.52.36-1.09.4-1.59.42h-.68,0ZM8.06,174.23c3.84,2.57,9.84,5.54,16.94,5.35h.22-.22c-7.06.18-13.04-2.76-16.82-5.27l-.12-.08h0ZM26.14,179.27s-.05.04-.08.06c-.04.03-.08.05-.13.08.04-.02.09-.05.13-.07.03-.02.05-.04.08-.06h0ZM24.34,173.81c.12.08.24.16.36.25,1.15.9,1.87,2.3,1.91,3.77,0,.21,0,.5-.09.79.07-.23.1-.49.09-.79-.04-1.46-.76-2.87-1.92-3.77-.12-.09-.23-.17-.36-.25h0ZM9.09,173.7c3.67,2.37,9.31,5.07,15.89,4.87.11,0,.44-.01.51-.07.05-.03.14-.26.12-.64-.04-1.17-.61-2.29-1.53-3.01-.41-.32-.9-.57-1.41-.83-2.44-1.25-4.95-2.53-7.49-3.57l-.31-.13c-.68-.27-1.39-.56-2.07-.95-.28-.16-.6-.41-1-.73-1.24-.97-1.79-1.27-2.02-1.35,0,.13-.03.39-.04.76v.31c-.06.98-.13,1.96-.21,2.93-.07.8-.16,1.63-.46,2.41h.02ZM7.79,174.04s.02.01.02.02l.2-.39c.3-.61.42-1.3.49-2.02-.09.88-.25,1.72-.71,2.4h0ZM15.94,169.69c2.45,1.02,4.85,2.25,7.17,3.44.29.15.56.29.83.44-.27-.15-.54-.29-.81-.43-2.33-1.19-4.73-2.42-7.18-3.44h-.01ZM8.79,167.34c-.03.25-.04.49-.04.7v.27c-.03.4-.05.79-.08,1.19.03-.39.05-.78.07-1.17v-.29c0-.24.02-.48.05-.7h0ZM12.93,168.26c.14.11.27.19.37.25.04.02.09.05.13.07-.04-.02-.09-.05-.13-.07-.1-.06-.23-.15-.37-.25ZM10.71,166.65c.39.23.87.57,1.47,1.03-.47-.37-.98-.75-1.47-1.03Z" style="fill: #fff;"/>
    </g>
    <g>
      <path d="M23.82,180.04c-.96-.39-2.05-1.38-2.92-2.18l-.54-.48c-.17-.15-.37-.32-.52-.56-.35-.56-.28-1.23-.23-1.67.03-.33.08-.77.36-1.14.25-.33.61-.5.86-.59.92-.36,2.62-.41,3.63-.1l-.29.96c-.8-.24-2.28-.2-2.98.07-.14.05-.33.14-.43.26-.11.15-.14.41-.16.64-.04.42-.07.79.09,1.04.07.11.2.22.33.34l.56.5c.77.7,1.83,1.67,2.63,1.99l-.38.93h-.01Z" style="fill: #fff;"/>
      <path d="M24.09,180.69l-.46-.19c-1.04-.43-2.17-1.45-3.07-2.27l-.54-.48c-.19-.16-.42-.37-.61-.67-.44-.7-.36-1.51-.31-1.99.04-.36.09-.91.46-1.39.36-.48.9-.69,1.08-.76,1.02-.4,2.84-.45,3.96-.11l.48.14-.58,1.91-.48-.14c-.69-.21-2.06-.18-2.66.06-.17.06-.21.1-.22.11-.02.04-.04.26-.05.38-.02.2-.06.61,0,.72.03.05.15.15.23.23l.57.51c.71.65,1.77,1.61,2.49,1.9l.46.19-.76,1.85h0ZM21.54,177.77c.64.58,1.36,1.2,2.02,1.58h0c-.67-.39-1.41-1.03-2.02-1.58ZM20.55,176.89s.09.08.13.12l.27.25-.28-.25s-.08-.07-.13-.11h0ZM20.24,176.52s0,.02.02.03c0,.02.03.05.05.07-.02-.02-.03-.05-.05-.07l-.02-.03ZM20.41,174.24s-.03.04-.05.06c-.19.26-.23.61-.26.89-.02.17-.04.37-.04.58,0-.18.02-.38.04-.58.03-.28.07-.63.26-.89.02-.02.03-.04.05-.06ZM22.82,173.61c-.68,0-1.36.09-1.82.27-.03.01-.06.03-.1.04.03-.01.07-.03.1-.04.67-.26,1.9-.34,2.82-.19h0c-.31-.05-.65-.07-1-.07h0Z" style="fill: #fff;"/>
    </g>
    <g>
      <path d="M24.01,195.4l-.54-.35c-.89-.57-1.99-1.28-2.64-1.84-.31-.27-.63-.57-.85-.97-.42-.78-.3-1.69-.16-2.47.03-.18.08-.43.23-.67.2-.31.51-.46.74-.58.7-.35,1.65-.83,2.66-.7.37.05.89.19,1.43.34.75.21,1.67.46,2.12.42l.09,1c-.62.06-1.56-.2-2.47-.46-.51-.14-.99-.28-1.3-.31-.65-.09-1.33.22-2.08.6-.13.07-.29.15-.35.23-.04.06-.06.19-.08.3-.12.65-.21,1.33.05,1.82.14.25.37.47.62.69.59.51,1.71,1.23,2.52,1.75l.55.35-.55.84h.01Z" style="fill: #fff;"/>
      <path d="M24.16,196.09l-.96-.62c-.91-.59-2.03-1.3-2.69-1.88-.33-.28-.7-.63-.96-1.11-.5-.92-.37-1.93-.21-2.8.04-.2.1-.53.3-.85.28-.42.69-.63.93-.75.71-.36,1.79-.9,2.95-.75.41.05.94.2,1.5.36.64.17,1.59.43,1.95.41l.49-.04.18,1.99-.5.04c-.71.07-1.7-.21-2.65-.47-.47-.13-.96-.27-1.22-.3-.51-.08-1.08.2-1.79.55-.04.02-.1.05-.15.08,0,.03,0,.06-.02.09-.1.54-.19,1.15,0,1.5.1.18.3.36.51.55.57.49,1.71,1.23,2.46,1.71l.97.63-1.09,1.67h0ZM21.55,193.15c.24.18.51.38.79.57-.28-.19-.56-.39-.79-.57ZM20.51,192.14c.13.19.29.36.45.51-.17-.16-.33-.32-.45-.51ZM20.4,189.53c-.04.11-.06.22-.08.32.02-.12.04-.22.08-.32ZM21.8,188.6c-.28.12-.55.25-.78.37-.19.1-.41.21-.54.41,0,0,0,.02-.02.03,0-.01,0-.02.02-.03.13-.2.36-.31.54-.41.27-.14.53-.26.78-.37ZM24.79,188.66c.6.17,1.24.34,1.75.41h0c-.46-.06-1.06-.22-1.75-.41ZM23.34,188.31h.05s.05,0,.08.01c-.03,0-.06,0-.08-.01h-.05Z" style="fill: #fff;"/>
    </g>
    <g>
      <path d="M22.7,206.3c-.56-.09-1.87-.86-2.18-1.13-.73-.62-1.51-1.4-1.69-2.46-.11-.65.03-1.28.17-1.76.05-.18.15-.52.43-.76.19-.16.42-.23.59-.27.9-.21,2.63-.41,3.67-.21l-.19.98c-.8-.16-2.31-.02-3.25.2-.12.03-.17.05-.18.06-.05.04-.1.21-.11.27-.11.38-.22.87-.14,1.32.13.75.75,1.36,1.35,1.87.29.25,1.42.86,1.69.91l-.15.99h-.01Z" style="fill: #fff;"/>
      <path d="M23.12,206.87l-.49-.08c-.71-.11-2.1-.97-2.43-1.24-.8-.68-1.65-1.54-1.86-2.76-.13-.75.03-1.45.18-1.98.06-.22.19-.67.59-1.01.28-.23.59-.33.8-.38.88-.2,2.7-.45,3.88-.21l.49.1-.39,1.96-.49-.09c-.7-.14-2.07-.02-2.96.18-.09.33-.19.75-.13,1.1.1.59.65,1.12,1.18,1.57.25.21,1.24.75,1.45.8l.45.11-.04.46-.23,1.48h0ZM22.25,205.61s.03.01.04.02h0s-.03-.01-.04-.02ZM20.45,204.44c.13.12.26.24.39.35.11.1.36.26.64.42-.28-.16-.53-.32-.64-.42-.13-.11-.26-.23-.39-.35ZM19.31,201.91c-.02.23-.02.47.02.71,0,.06.02.12.04.19-.02-.06-.03-.12-.04-.19-.04-.24-.04-.48-.02-.71ZM19.62,200.72c-.08.12-.11.26-.14.36,0,.05-.03.1-.04.15,0-.05.03-.1.04-.15.04-.15.08-.27.14-.36ZM20.48,201.23h0ZM19.76,200.56h0s-.05.04-.07.07c.02-.02.04-.05.07-.07h0ZM20.12,200.4s-.09.02-.14.04c.04-.01.09-.03.14-.04ZM20.25,200.37s-.07.02-.11.02c.04,0,.07-.02.11-.02ZM22.62,200.12c.17,0,.33,0,.48.01h0c-.18-.01-.37-.02-.56-.01h.08Z" style="fill: #fff;"/>
    </g>
    <g>
      <path d="M40.63,182.16c-.42-6.21-1.18-12.3-2.37-19.17l-.07-.43c-.16-1-.32-1.94-.89-2.23-.39-.2-2.27-.07-2.97-.02-.29.02-.54.04-.7.04-5.88.18-12.08.97-16.23,1.54l-.14-.99c4.17-.58,10.41-1.37,16.33-1.55.15,0,.39-.02.67-.04,1.56-.11,2.9-.17,3.49.12,1.03.52,1.23,1.76,1.43,2.96l.07.42c1.2,6.9,1.96,13.03,2.39,19.27l-1,.07h-.01Z" style="fill: #fff;"/>
      <path d="M40.16,182.7l-.03-.5c-.42-6.19-1.17-12.27-2.37-19.12l-.07-.44c-.13-.8-.28-1.69-.62-1.87-.12-.04-.65-.11-2.67.03-.37.03-.61.04-.77.05-5.85.18-12.03.96-16.17,1.54l-.5.07-.27-1.98.49-.07c4.18-.58,10.43-1.37,16.38-1.55.15,0,.38-.02.65-.04,1.75-.12,3.05-.18,3.75.18,1.25.64,1.49,2.07,1.69,3.33l.07.42c1.21,6.91,1.97,13.05,2.39,19.32l.03.5-2,.14h.02ZM40.33,173.58c.32,2.71.57,5.37.76,8.05h0c-.19-2.68-.44-5.34-.76-8.05ZM40.33,173.57h0ZM38.7,162.64l.04.27c.43,2.44.79,4.78,1.11,7.06-.32-2.28-.69-4.63-1.11-7.07l-.04-.27h0ZM38.43,161.25c.08.29.14.6.19.92-.05-.32-.11-.64-.19-.92ZM33.89,159.84c-.12,0-.22.01-.29.01-4.94.15-10.1.73-14.09,1.25,3.99-.52,9.15-1.1,14.09-1.25.08,0,.18,0,.29-.01ZM37.45,159.85s.05.02.07.03c.05.03.11.06.15.09-.05-.03-.1-.06-.16-.09-.02-.01-.04-.02-.06-.03ZM36.23,159.72c-.58,0-1.23.04-1.78.08,1.08-.07,1.81-.09,2.3-.06-.16,0-.34-.01-.53-.01h0Z" style="fill: #fff;"/>
    </g>
    <g>
      <path d="M16.76,167.44c-1.42,0-2.91-.46-4.28-.98l-.35-.14c-.66-.26-1.28-.5-1.92-.53l.04-1c.81.03,1.54.32,2.25.59l.34.13c2.1.8,4.47,1.45,6.16.28.26-.18.87-.87.72-1.36-.07-.23-.63-.66-1.01-.94-.4-.3-.77-.59-.99-.88-.44-.6-.99-1.15-1.26-1.23-1.95-.62-4.78-1.51-6.73-1.43l-.05-1c2.13-.11,5.06.83,7.01,1.45.83.26,1.68,1.4,1.84,1.62.12.17.47.44.78.67.58.44,1.19.9,1.36,1.44.37,1.17-.78,2.26-1.11,2.48-.85.59-1.81.82-2.81.82h.01Z" style="fill: #fff;"/>
      <path d="M16.76,167.94c-1.58,0-3.21-.54-4.46-1.02l-.35-.14c-.62-.24-1.2-.47-1.76-.49l-.5-.02.08-2,.5.02c.89.04,1.66.34,2.4.63l.34.13c1.97.75,4.2,1.38,5.7.33.25-.17.57-.67.53-.8-.08-.12-.62-.53-.83-.69-.43-.33-.84-.64-1.09-.99-.43-.6-.88-1-1.02-1.05-1.73-.55-4.65-1.48-6.55-1.41l-.5.02-.1-1.99.5-.03c2.2-.12,5.15.83,7.1,1.45,1.04.33,1.93,1.49,2.18,1.84.08.11.45.39.67.55.66.5,1.33,1.01,1.54,1.7.45,1.44-.82,2.71-1.3,3.04-.87.6-1.91.91-3.09.91h.01ZM15.83,166.88c1.21.17,2.33.01,3.22-.52-.96.57-2.07.67-3.22.52ZM10.72,165.36c.54.1,1.07.3,1.58.5l.35.14c.48.18,1.02.37,1.58.54-.54-.16-1.07-.34-1.59-.54l-.34-.13c-.52-.2-1.04-.41-1.59-.5h0ZM20.18,164.26v.03c.11.34.02.7-.14,1.01.16-.31.25-.66.14-1.01v-.03ZM18.38,162.6c.18.16.4.33.63.5.3.23.54.42.72.58-.22-.2-.47-.39-.72-.58-.26-.2-.47-.36-.63-.5ZM10.21,159.45c1.96.06,4.54.86,6.21,1.4-1.8-.58-4.29-1.36-6.21-1.4h0Z" style="fill: #fff;"/>
    </g>
    <g>
      <path d="M17.41,167.36c-.51-.32-1.52-1.12-1.94-1.65-.3-.39-.64-.82-.84-1.36-.24-.66-.18-1.35.15-1.84.39-.59,1.17-.9,2-.81.67.08,1.25.39,1.77.66l-.47.88c-.46-.24-.94-.49-1.42-.55-.37-.04-.83.06-1.04.37-.15.23-.17.59-.04.95.14.39.42.75.69,1.09.3.39,1.19,1.12,1.68,1.42l-.53.85h-.01Z" style="fill: #fff;"/>
      <path d="M17.57,168.05l-.42-.26c-.56-.35-1.61-1.19-2.07-1.77-.31-.39-.69-.89-.92-1.5-.29-.81-.22-1.66.2-2.29.49-.74,1.46-1.14,2.47-1.03.76.09,1.42.44,1.95.71l.44.23-.93,1.77-.44-.23c-.42-.22-.85-.45-1.25-.5-.24-.03-.5.04-.57.15-.04.07-.08.25,0,.5.11.32.37.64.61.95s1.07,1,1.55,1.3l.42.26-1.06,1.7h.01ZM15.96,165.52c.18.2.44.44.71.67-.28-.23-.53-.47-.71-.67ZM15.27,162.68s-.05.07-.08.1c-.24.37-.28.89-.09,1.4.12.33.31.63.52.91-.2-.27-.4-.57-.52-.91-.18-.51-.15-1.03.09-1.4.02-.04.05-.07.08-.1ZM16.57,162.18c.05,0,.1,0,.15.01.4.05.79.2,1.15.38h0c-.37-.18-.74-.33-1.15-.38-.05,0-.1,0-.15-.01Z" style="fill: #fff;"/>
    </g>
    <g>
      <path d="M44.86,184.17l-.71-.7s.15-.13.29-.25c.13-.1.29-.23.39-.32-.02-.39-.12-.69-.31-.88-.4-.42-.63-.46-.65-.45l-.38-.92c.36-.15.96-.15,1.76.69.36.38.57.93.58,1.55,0,.12,0,.27-.06.42-.06.17-.18.28-.71.69-.09.07-.17.13-.2.16h0Z" style="fill: #fff;"/>
      <path d="M44.84,184.86l-1.39-1.37.33-.36s.17-.16.35-.3l.1-.08s.06-.04.08-.06c-.03-.14-.08-.25-.14-.32-.17-.18-.29-.26-.35-.29l-.27.02-.71-1.72.46-.19c.42-.17,1.27-.3,2.32.81.45.47.7,1.14.72,1.89,0,.16,0,.38-.1.61-.12.31-.34.49-.87.91-.08.07-.15.12-.18.15l-.35.31h0ZM45.18,182.13c.09.22.15.47.16.76h0c0-.27-.06-.53-.16-.76ZM44.78,181.57s.08.08.12.12c.02.02.04.04.06.06-.02-.02-.04-.04-.06-.06-.04-.04-.07-.08-.12-.12ZM44.26,181.18c.07.04.15.08.23.14-.07-.05-.15-.1-.23-.14h0Z" style="fill: #fff;"/>
    </g>
    <g>
      <path d="M17.36,250.2c-1.16,0-2.32-.06-3.47-.21l-.3-.04-3.54-9.08c-.34-.88-.55-2.1-.5-3.02l.02-.5.5.02c3.05.13,6.07-.46,8.99-1.03,9.21-1.82,18.5-3.71,27.61-5.62l.59-.12v.6c.12,4.97.93,9.03,2.45,12.08.08-.03.15-.06.23-.1l.55-.25.14.59c.05.22-.03.52-.41.67,0,0-.11.04-.26.07-1.63.65-3.38.86-5.08,1.06l-.97.12c-3.51.46-7.03,1.31-10.43,2.14-1.44.35-2.89.7-4.33,1.02-3.81.85-7.83,1.6-11.81,1.6h.02ZM14.31,249.04c4.85.54,9.9-.35,14.64-1.41,1.44-.32,2.88-.67,4.31-1.02,3.43-.83,6.97-1.69,10.54-2.16l.98-.12c1.34-.16,2.71-.33,3.99-.71-1.48-3.04-2.31-7.01-2.47-11.79-8.93,1.88-18.02,3.73-27.04,5.5-2.69.53-5.72,1.13-8.71,1.07.04.7.2,1.51.43,2.12l3.32,8.52h.01Z" style="fill: #fff;"/>
      <path d="M17.36,250.7c-1.22,0-2.41-.07-3.53-.21l-.59-.07-3.64-9.36c-.37-.94-.58-2.24-.54-3.22l.05-1,1,.05c3.01.13,5.99-.46,8.87-1.03,9.2-1.82,18.49-3.71,27.6-5.62l1.18-.25.03,1.21c.1,4.66.83,8.51,2.18,11.44l.89-.4.28,1.18c.1.43-.08,1.01-.73,1.25-.04.01-.16.05-.33.09-1.6.65-3.39.86-5.12,1.07l-.96.12c-3.49.46-6.99,1.3-10.37,2.13-1.46.35-2.9.7-4.34,1.02-3.57.8-7.78,1.61-11.92,1.61h-.01ZM14.63,249.57c1.59.16,3.31.16,5.02.05-1.68.11-3.35.11-5.02-.05ZM32.9,247.21c-1.28.31-2.56.62-3.84.9-1.06.24-2.13.46-3.21.67,1.11-.21,2.19-.44,3.21-.67,1.28-.29,2.56-.59,3.84-.9ZM14.67,248.57c4.7.47,9.59-.41,14.17-1.43,1.39-.31,2.78-.65,4.16-.98l.14-.04c3.44-.83,7-1.7,10.59-2.17l.98-.12c1.12-.13,2.27-.27,3.35-.54-1.29-2.9-2.05-6.54-2.24-10.86-8.71,1.83-17.61,3.64-26.46,5.38-2.54.5-5.4,1.07-8.25,1.08.07.51.19,1.03.35,1.43l3.21,8.24h0ZM44.3,244.9l-.44.05c-.96.12-1.92.28-2.87.45.96-.17,1.92-.33,2.88-.45l.44-.05h-.01ZM48.94,244.09h-.03c-.56.18-1.13.3-1.71.41.59-.1,1.17-.23,1.73-.41h.01ZM48.61,241.99c.19.49.4.97.62,1.42l.25.51h0l-.2-.41c-.24-.48-.46-.99-.67-1.52h0ZM50.16,243.64l-.45.19s.05-.02.08-.03c.19-.05.27-.07.28-.08.03-.01.1-.04.09-.08h0ZM10.06,238.36c.03.74.19,1.59.44,2.26-.23-.63-.4-1.46-.44-2.19v-.07ZM10.06,237.89h.51c.33.02.66.01,1,0-.5.01-1,0-1.51-.01h0ZM46.78,231.22l.02.59c.03.89.08,1.76.16,2.59-.09-1.02-.15-2.08-.17-3.19h-.01Z" style="fill: #fff;"/>
    </g>
    <g>
      <path d="M23.22,245.36c-1,0-1.98-.47-2.61-1.24h0c-.77-.96-.97-2.06-.53-2.93.43-.85,1.38-1.32,2.55-1.28.23,0,.49.02.76.09.67.18,1.22.72,1.48,1.43.21.56.24,1.2.09,1.91-.09.44-.24.87-.44,1.27-.09.19-.22.4-.43.54-.22.15-.47.19-.66.2h-.21ZM22.47,240.9c-.71,0-1.26.27-1.5.73-.26.51-.1,1.21.42,1.86h0c.47.58,1.22.92,1.96.87.13,0,.16-.02.17-.03,0,0,.04-.04.1-.16.16-.33.28-.67.35-1.03.11-.53.09-.99-.05-1.37-.15-.41-.46-.72-.81-.81-.16-.04-.35-.05-.53-.06h-.12,0Z" style="fill: #fff;"/>
      <path d="M23.22,245.86c-1.16,0-2.28-.54-3-1.43-.9-1.12-1.12-2.42-.59-3.47.51-1.02,1.66-1.57,3.01-1.55.25.01.55.02.87.11.82.22,1.5.87,1.82,1.74.24.65.28,1.38.11,2.19-.1.48-.26.95-.48,1.4-.12.23-.29.52-.6.73-.32.22-.67.27-.91.28h-.23ZM23.82,244.73c-.13.08-.25.11-.43.13h0c.13,0,.29-.03.41-.11,0,0,0,0,.02-.01h0ZM20.36,241.98c-.06.58.16,1.23.64,1.83.09.11.19.22.3.32-.11-.1-.21-.2-.3-.32-.48-.6-.7-1.25-.64-1.83ZM22.47,241.4c-.51,0-.91.17-1.05.46-.17.33-.03.83.36,1.32.35.43.9.71,1.43.69.14-.29.22-.55.28-.82.09-.43.08-.8-.03-1.09-.09-.25-.28-.45-.47-.5-.11-.03-.27-.04-.42-.04h-.1v-.02ZM24.55,242.37h0ZM23.33,240.5c.47.16.87.57,1.07,1.1.09.24.14.49.15.77,0-.28-.06-.53-.15-.77-.2-.54-.59-.94-1.07-1.1ZM21.72,240.5c-.49.13-.88.4-1.12.78.24-.38.63-.64,1.12-.78ZM22.5,240.4h.11c.07,0,.14,0,.22.01-.07,0-.15,0-.22-.01h-.11Z" style="fill: #fff;"/>
    </g>
    <g>
      <path d="M27.11,242.17c-.29,0-.58,0-.87-.01l.03-1c1.8.05,3.62-.07,5.39-.36l.16.99c-1.55.26-3.14.39-4.71.39h0Z" style="fill: #fff;"/>
      <path d="M27.11,242.67c-.3,0-.59,0-.89-.01l-.5-.02.06-2h.5c1.77.07,3.55-.05,5.3-.34l.49-.08.33,1.97-.49.08c-1.58.26-3.19.39-4.8.39h0ZM26.75,241.67h.13-.13Z" style="fill: #fff;"/>
    </g>
    <g>
      <path d="M68.8,300.1l-10.71-32.32c-2.38-7.19-4.94-15.53-5.37-24.02-1.14.41-2.33.65-3.55.73l-.06-1c1.34-.09,2.65-.39,3.88-.91l.67-.28.03.72c.31,8.6,2.93,17.13,5.35,24.45l10.43,31.47.07-.02.22.9-.96.28h0Z" style="fill: #fff;"/>
      <path d="M68.48,300.72l-10.86-32.77c-2.32-7.01-4.83-15.16-5.36-23.5-.99.3-2.01.48-3.05.55l-.5.03-.13-2,.5-.03c1.29-.08,2.54-.38,3.72-.87l1.33-.56.05,1.45c.31,8.54,2.91,17.02,5.32,24.31l10.28,31.03h.04l.19.46.34,1.37-1.88.54h.01ZM61.54,276.59l7.59,22.9h.04l-.03-.12-.14-.27-7.46-22.51ZM53.39,246.05c.56,5.91,2.07,11.72,3.72,17.05-1.65-5.34-3.16-11.14-3.72-17.05ZM53.39,246.05h0ZM53.19,243.07l.03.55c0-.19-.02-.38-.02-.57h0c-.44.18-.88.34-1.34.47.24-.07.47-.14.7-.23l.63-.23h0Z" style="fill: #fff;"/>
    </g>
    <g>
      <path d="M23.95,311.25c-.23,0-.46-.1-.62-.25-.28-.27-.29-.67-.04-.95l.74.68c.12-.13.1-.35,0-.44-.07-.07-.19-.02-.25.04h0s0-.08-.04-.33l-7.18-34.02c-.67-3.16-1.36-6.42-2.36-9.54-.48-1.48-.92-3.01-1.39-4.63-1.22-4.2-2.48-8.54-4.4-12.12l-.39-.74h6.06v1h-4.41c1.75,3.52,2.94,7.61,4.09,11.58.47,1.61.91,3.13,1.38,4.6,1.02,3.17,1.71,6.46,2.39,9.64l7.18,34.02c.05.24.18.86-.25,1.27-.15.14-.33.2-.51.2h0Z" style="fill: #fff;"/>
      <path d="M23.95,311.75c-.36,0-.72-.15-.97-.4-.47-.46-.49-1.17-.06-1.64l.2-.22-7.05-33.42c-.67-3.15-1.35-6.4-2.35-9.49-.48-1.47-.91-2.99-1.38-4.59-1.23-4.23-2.48-8.54-4.37-12.08l-.79-1.47h7.4v2h-4.11c1.59,3.39,2.7,7.22,3.78,10.94.47,1.61.91,3.12,1.38,4.59,1.03,3.18,1.72,6.48,2.4,9.67l7.18,34.03c.06.28.24,1.13-.4,1.74-.23.22-.54.34-.85.34h0ZM24.21,309.8h0l-7.16-33.94c-.19-.88-.37-1.76-.57-2.65.19.88.38,1.76.56,2.64l7.16,33.95h.01ZM14.29,265.04c.13.42.26.82.39,1.23.4,1.26.76,2.53,1.08,3.82-.32-1.29-.68-2.56-1.08-3.82-.13-.41-.26-.82-.39-1.23ZM11.68,256.33c.58,1.76,1.1,3.55,1.61,5.32.09.32.19.64.28.96-.09-.31-.18-.63-.27-.94-.52-1.78-1.04-3.58-1.61-5.34h0ZM8.85,249.44c.12.22.23.43.34.66l-.34-.66Z" style="fill: #fff;"/>
    </g>
    <g>
      <path d="M52.64,275.22c-4-4.73-7.66-9.81-10.87-15.1l.85-.52c3.19,5.25,6.82,10.29,10.78,14.98l-.76.65h0Z" style="fill: #fff;"/>
      <path d="M52.58,275.92l-.32-.38c-4.02-4.75-7.69-9.85-10.92-15.17l-.26-.43,1.71-1.04.26.43c3.18,5.22,6.79,10.24,10.74,14.91l.32.38-1.53,1.29h0ZM42.46,260.28c3.05,4.97,6.49,9.76,10.24,14.23h0c-3.75-4.47-7.19-9.26-10.24-14.23h0Z" style="fill: #fff;"/>
    </g>
    <g>
      <path d="M51.47,288.71l-.7-.81c-.93-1.08-1.96-2.1-3.04-3.02-.43-.36-.93-.76-1.48-1-1.03-.44-2.19-.32-3.42-.2-1.04.11-2.11.21-3.17-.02l.21-.98c.9.2,1.85.1,2.86,0,1.3-.13,2.65-.27,3.92.28.68.29,1.25.75,1.73,1.16.84.71,1.63,1.47,2.39,2.27.06-2.24-.78-4.52-2.31-6.16l.73-.68c1.98,2.13,2.93,5.23,2.46,8.11l-.17,1.06h-.01Z" style="fill: #fff;"/>
      <path d="M51.79,289.85l-1.4-1.62c-.92-1.06-1.92-2.06-2.99-2.96-.4-.34-.86-.71-1.36-.93-.92-.39-2.01-.28-3.18-.16-1.03.1-2.19.22-3.33-.03l-.49-.11.43-1.95.49.11c.83.18,1.74.09,2.7,0,1.3-.13,2.78-.28,4.17.31.75.32,1.35.81,1.86,1.24s1.01.89,1.49,1.36c-.23-1.68-.97-3.31-2.1-4.52l-.34-.37,1.46-1.36.34.37c2.09,2.24,3.08,5.51,2.59,8.53l-.34,2.12v-.03ZM50.49,286.85c.22.24.44.48.65.73h0v-.03l-.66-.7h.01ZM47.05,283.75c.29.18.56.39.81.6-.25-.2-.51-.41-.81-.6ZM44.46,283.07c.65,0,1.29.08,1.89.32-1.13-.45-2.38-.32-3.59-.2-.12.01-.24.02-.36.04.12-.01.24-.02.36-.04.56-.06,1.13-.11,1.7-.11h0Z" style="fill: #fff;"/>
    </g>
    <g>
      <path d="M28.09,304.59c-1.32-1.21-1.42-3.15-1.42-4.87l.02-12.06h1l-.02,12.06c0,1.58.08,3.19,1.1,4.13l-.68.74h0Z" style="fill: #fff;"/>
      <path d="M28.12,305.3l-.37-.34c-1.47-1.35-1.59-3.41-1.58-5.24l.02-12.56h2l-.02,12.57c0,1.46.07,2.96.94,3.76l.37.34-1.35,1.47h0ZM27.18,288.16v11.56h0v-11.57s0,.01,0,.01Z" style="fill: #fff;"/>
    </g>
    <g>
      <path d="M17.71,260.61c-.78-1.4-1.23-2.99-1.31-4.59l1-.05c.07,1.45.48,2.89,1.19,4.15l-.87.49h-.01Z" style="fill: #fff;"/>
      <path d="M17.52,261.29l-.24-.44c-.82-1.47-1.29-3.13-1.37-4.81l-.02-.5,2-.1.02.5c.07,1.37.46,2.73,1.12,3.94l.24.44-1.75.97ZM16.94,256.49c.12,1.19.45,2.36.98,3.43h0c-.53-1.07-.86-2.24-.98-3.43h0Z" style="fill: #fff;"/>
    </g>
    <g>
      <path d="M36.3,125.95c-1.09-1.39-2.19-2.67-3.28-3.86.32-.44.64-.87.96-1.31,1,1.35,2,2.78,3.01,4.3-.23.29-.46.58-.69.87ZM38.07,123.71c-1.09-1.43-2.19-2.77-3.28-4.02.32-.43.64-.86.96-1.29,1,1.4,2,2.88,3.01,4.45-.23.29-.46.58-.69.87Z" style="fill: #fff;"/>
      <path d="M39.61,113.28c1.76-2.29,2.19-2.73,2.99-3.07,1.21-.52,2.33-.07,3.2,1.28,1.13,1.77,1.23,4.04.27,5.76,1.62,1.02,3.24,2.16,4.86,3.39.34-.39.69-.77,1.03-1.15.25.45.49.9.74,1.35-.63.69-1.25,1.39-1.88,2.1-1.89-1.56-3.79-2.99-5.68-4.25-.58.69-1.15,1.39-1.73,2.09,1.01,1.6,2.02,3.27,3.03,5.01.37-.42.73-.85,1.1-1.27.25.43.5.87.74,1.3-1.1,1.25-2.2,2.52-3.29,3.79-.25-.43-.5-.85-.74-1.27.38-.44.76-.89,1.14-1.33-2.26-3.85-4.51-7.33-6.77-10.43-.38.5-.76.99-1.14,1.49-.25-.33-.5-.66-.74-.98.96-1.28,1.92-2.55,2.88-3.81ZM43.76,118.19c1.04-1.27,1.31-1.69,1.47-2.44.23-.94.03-1.94-.55-2.84-.63-.97-1.39-1.28-2.18-.9-.43.23-.79.6-1.78,1.86-.34.44-.69.88-1.03,1.33.99,1.38,1.97,2.83,2.96,4.35.37-.46.74-.91,1.11-1.36Z" style="fill: #fff;"/>
      <path d="M51.4,113.98c.06.11.12.22.19.32,1.3,2.27,2.72,3.04,3.77,1.91.82-.88.91-2.24.3-3.84.32-.34.63-.67.95-1.01,1.04,2.18.82,4.7-.55,6.17-1.65,1.77-3.87.76-5.67-2.36-1.84-3.16-1.99-6.5-.36-8.4,1.52-1.75,3.69-.96,5.41,2.11.07.14.15.29.22.44-1.41,1.51-2.83,3.06-4.24,4.65ZM53.89,109.35c-1.18-1.99-2.25-2.44-3.17-1.4-.91,1.04-.88,2.84.07,4.85,1.03-1.17,2.07-2.32,3.1-3.45Z" style="fill: #fff;"/>
      <path d="M56.55,93.32c2.54,4.27,5.07,8.86,7.61,13.71.32-.31.65-.61.97-.91.22.43.45.86.67,1.29-.65.61-1.31,1.22-1.96,1.85-.3-.57-.59-1.14-.89-1.7.27,1.69.01,2.9-.76,3.66-1.45,1.43-3.84.06-5.58-3.08-1.75-3.13-1.96-6.49-.51-8.02.77-.8,1.69-.83,2.79-.03-.89-1.58-1.77-3.12-2.66-4.62-.32.33-.65.67-.97,1.01-.22-.37-.45-.75-.67-1.11.65-.69,1.31-1.37,1.96-2.04ZM57.6,106.99c1.52,2.76,2.97,3.79,4.02,2.74,1.03-1.01.77-3.26-.71-5.98-1.47-2.71-2.94-3.62-3.97-2.56-1.03,1.07-.78,3.21.66,5.8Z" style="fill: #fff;"/>
      <path d="M65.73,99.87c1.16,2.2,1.21,2.3,1.58,2.67.55.52,1.13.6,1.64.16.51-.44.77-1.31.66-2.28-.09-.78-.36-1.48-1.15-2.99-.82-1.55-1.63-3.08-2.45-4.58-.33.28-.66.57-.99.86-.22-.41-.45-.81-.67-1.22.67-.59,1.34-1.17,2.02-1.74,1.72,3.15,3.45,6.42,5.17,9.77.32-.26.65-.53.97-.79.22.43.45.87.67,1.31-.64.51-1.28,1.03-1.92,1.56-.33-.64-.65-1.27-.98-1.9.33,1.71.07,3-.76,3.72-.89.77-2.04.56-2.99-.53-.41-.47-.61-.79-1.73-2.91-.86-1.61-1.72-3.19-2.58-4.74-.32.3-.65.61-.97.92-.22-.4-.45-.8-.67-1.19.67-.64,1.34-1.27,2-1.88,1.05,1.88,2.1,3.81,3.14,5.78Z" style="fill: #fff;"/>
      <path d="M73.01,85.55c.65,1.21,1.3,2.43,1.94,3.67-.27.19-.53.37-.8.57-.96-1.61-1.88-2.13-2.67-1.55-1.03.78-.76,2.94.7,5.73,1.42,2.73,2.89,3.97,3.89,3.23.77-.56.78-1.83.04-3.63.3-.21.6-.43.91-.64,1.18,2.58,1.06,4.74-.27,5.71-1.58,1.16-3.81-.37-5.59-3.78-1.82-3.47-2.02-6.73-.5-7.89.6-.46,1.28-.41,2.07.15-.18-.33-.36-.66-.53-1,.27-.19.53-.38.8-.57Z" style="fill: #fff;"/>
      <path d="M78.15,89.79c.06.12.12.24.19.36,1.3,2.52,2.72,3.67,3.77,3.01.82-.51.91-1.68.3-3.3.32-.19.63-.38.95-.56,1.04,2.29.82,4.41-.55,5.27-1.65,1.03-3.87-.56-5.67-4.06-1.84-3.56-1.99-6.72-.36-7.76,1.52-.97,3.69.61,5.41,3.95.07.16.15.31.22.47-1.41.82-2.83,1.7-4.24,2.63ZM80.64,86.54c-1.18-2.2-2.25-3.04-3.17-2.46-.91.58-.88,2.23.07,4.42,1.03-.68,2.07-1.33,3.1-1.96Z" style="fill: #fff;"/>
      <path d="M83.16,81.52c-.27-1.49-.09-2.32.57-2.66.51-.26,1.02-.1,1.77.54.4.77.8,1.54,1.2,2.31-.27.13-.53.26-.8.4-.4-.7-.61-1.05-.8-1.28-.32-.38-.66-.5-.95-.35-.44.23-.52,1.09-.18,2.1.25.75.63,1.55,1.63,3.51.64,1.24,1.27,2.49,1.91,3.74.38-.2.75-.4,1.13-.59.22.44.45.88.67,1.32-1.04.54-2.09,1.1-3.13,1.69-.22-.44-.45-.88-.67-1.32.32-.18.65-.36.97-.54-1.5-2.96-3-5.89-4.51-8.76-.32.18-.65.36-.97.55-.22-.43-.45-.85-.67-1.27.65-.37,1.29-.73,1.94-1.08.3.57.59,1.13.89,1.7Z" style="fill: #fff;"/>
      <path d="M89.72,83.33c.06.12.12.24.19.36,1.3,2.54,2.72,3.81,3.77,3.35.82-.36.91-1.43.3-3.03.32-.13.63-.26.95-.39,1.04,2.27.82,4.22-.55,4.82-1.65.73-3.87-1.06-5.67-4.59-1.84-3.6-1.99-6.58-.36-7.31,1.52-.67,3.69,1.13,5.41,4.48.07.16.15.31.22.47-1.41.57-2.83,1.19-4.24,1.84ZM92.21,80.66c-1.18-2.23-2.25-3.17-3.17-2.77-.91.4-.88,1.96.07,4.14,1.03-.48,2.07-.94,3.1-1.37Z" style="fill: #fff;"/>
      <path d="M94.73,76.31c-.27-1.44-.09-2.19.57-2.42.51-.18,1.02.04,1.77.74.4.77.8,1.55,1.2,2.33-.27.09-.53.18-.8.28-.4-.71-.61-1.06-.8-1.31-.32-.4-.66-.56-.95-.46-.44.16-.52.96-.18,1.95.25.74.63,1.54,1.63,3.5.64,1.24,1.27,2.49,1.91,3.74.38-.14.75-.28,1.13-.41.22.44.45.88.67,1.31-1.04.38-2.09.77-3.13,1.18-.22-.44-.45-.88-.67-1.32.32-.13.65-.25.97-.38-1.5-2.95-3-5.89-4.51-8.79-.32.12-.65.25-.97.38-.22-.43-.45-.86-.67-1.29.64-.26,1.29-.5,1.93-.74.3.57.59,1.15.89,1.72Z" style="fill: #fff;"/>
      <path d="M105.97,74.9c-.87-1.63-1.89-2.41-2.78-2.15-.66.19-.78,1-.28,1.96.4.77.89,1.12,2.04,1.48,1.45.47,1.88.62,2.46.96.71.41,1.35,1.14,1.85,2.1,1.02,1.98.84,3.62-.41,3.99-.74.22-1.5-.11-2.54-1.11.22.48.44.96.66,1.45-.22.07-.44.13-.66.2-.66-1.29-1.32-2.58-1.98-3.87.22-.07.45-.14.67-.2.98,1.6,2.22,2.48,3.1,2.22.7-.21.81-1.06.28-2.1-.45-.87-.88-1.19-2.16-1.6-1.39-.43-2.14-.73-2.57-1.04-.67-.47-1.21-1.11-1.64-1.95-.93-1.8-.78-3.43.36-3.76.63-.18,1.35.08,2.21.8-.15-.36-.31-.72-.46-1.08.21-.06.43-.12.64-.18.64,1.23,1.27,2.46,1.91,3.7-.23.06-.46.13-.69.19Z" style="fill: #fff;"/>
      <path d="M105.62,65.84c.35.66.69,1.33,1.04,2-.43.11-.85.22-1.28.34-.35-.67-.69-1.33-1.04-2,.43-.11.85-.23,1.28-.34ZM113.04,80.31c.33-.09.66-.17.99-.26.22.43.45.86.67,1.3-1,.26-1.99.53-2.99.81-.22-.43-.45-.87-.67-1.3.32-.09.65-.18.97-.27-1.5-2.92-3-5.85-4.5-8.76-.32.09-.65.17-.97.26-.22-.43-.45-.86-.67-1.29.67-.18,1.34-.36,2-.53,1.72,3.34,3.45,6.7,5.17,10.04Z" style="fill: #fff;"/>
      <path d="M114.36,74.71c.09-1.57.18-3.14.27-4.7-.3.08-.6.15-.91.23-.22-.43-.45-.86-.67-1.29.95-.24,1.9-.47,2.85-.71.22.43.45.86.67,1.29-.3.08-.6.15-.91.23-.05,1.12-.1,2.24-.15,3.37,1.68,1.75,3.36,3.51,5.04,5.25.32-.08.65-.17.97-.25.22.43.45.86.67,1.28-.98.25-1.97.51-2.95.76-.22-.43-.45-.86-.67-1.29.25-.06.5-.13.75-.19-1.33-1.43-2.67-2.88-4-4.32-.03.7-.06,1.41-.09,2.11.5.96.99,1.92,1.49,2.88.29-.08.59-.15.88-.22.22.43.45.86.67,1.29-.95.24-1.9.49-2.85.74-.22-.43-.45-.86-.67-1.29.32-.08.65-.17.97-.25-2.31-4.48-4.63-8.99-6.94-13.44-.32.08-.65.17-.97.25-.22-.43-.45-.86-.67-1.28.66-.17,1.33-.34,1.99-.51,1.74,3.34,3.48,6.72,5.22,10.1Z" style="fill: #fff;"/>
      <path d="M121.7,72.86c.09-1.57.18-3.13.27-4.71-.3.08-.6.16-.91.24-.22-.43-.45-.86-.67-1.29.95-.25,1.9-.5,2.85-.75.22.43.45.86.67,1.29-.3.08-.6.16-.91.24-.05,1.13-.1,2.26-.15,3.38,1.68,1.74,3.36,3.47,5.04,5.18.32-.09.65-.18.97-.27.22.42.45.85.67,1.27-.98.28-1.97.55-2.95.81-.22-.42-.45-.85-.67-1.28.25-.07.5-.13.75-.2-1.33-1.41-2.67-2.84-4-4.27-.03.7-.06,1.4-.09,2.11.5.95.99,1.9,1.49,2.85.29-.08.59-.15.88-.23.22.43.45.85.67,1.28-.95.25-1.9.5-2.85.75-.22-.43-.45-.85-.67-1.28.32-.08.65-.17.97-.25-2.31-4.44-4.63-8.94-6.94-13.4-.32.08-.65.16-.97.24-.22-.43-.45-.86-.67-1.29.66-.17,1.33-.33,1.99-.5,1.74,3.35,3.48,6.73,5.22,10.09Z" style="fill: #fff;"/>
      <path d="M128.21,71.55c.06.12.12.24.19.36,1.3,2.49,2.72,3.81,3.77,3.5.82-.25.91-1.22.3-2.76.32-.1.63-.19.95-.29,1.04,2.19.82,3.97-.55,4.38-1.65.5-3.87-1.41-5.67-4.88-1.84-3.54-1.99-6.32-.36-6.79,1.52-.44,3.69,1.47,5.41,4.77.07.15.15.3.22.45-1.41.44-2.83.85-4.24,1.25ZM130.7,69.38c-1.18-2.2-2.25-3.2-3.17-2.94-.91.26-.88,1.71.07,3.84,1.03-.29,2.07-.59,3.1-.9Z" style="fill: #fff;"/>
      <path d="M133.22,65.38c-.27-1.42-.09-2.15.57-2.37.51-.17,1.02.04,1.77.73.4.77.8,1.54,1.2,2.3-.27.09-.53.19-.8.28-.4-.7-.61-1.05-.8-1.29-.32-.39-.66-.56-.95-.46-.44.15-.52.93-.18,1.9.25.72.63,1.52,1.63,3.43.64,1.21,1.27,2.41,1.91,3.6.38-.13.75-.26,1.13-.39.22.42.45.83.67,1.25-1.04.37-2.09.72-3.13,1.06-.22-.42-.45-.84-.67-1.26.32-.1.65-.21.97-.32-1.5-2.82-3-5.69-4.51-8.59-.32.1-.65.21-.97.31-.22-.43-.45-.86-.67-1.29.64-.2,1.29-.41,1.93-.62.3.57.59,1.14.89,1.72Z" style="fill: #fff;"/>
      <path d="M138.12,63.54c-.23-1.39.05-2.24.85-2.55.75-.3,1.72,0,2.5.78.62.63.72.8,2.14,3.49.88,1.66,1.76,3.3,2.64,4.92.32-.14.65-.28.97-.42.22.41.45.82.67,1.22-.98.44-1.96.85-2.94,1.26-.22-.41-.45-.82-.67-1.23.31-.13.62-.26.93-.39-.94-1.73-1.87-3.48-2.81-5.26-.67-1.26-.91-1.69-1.19-2.03-.53-.67-1.17-.93-1.72-.72-.58.23-.77.96-.58,1.96.13.63.38,1.22,1.09,2.58.81,1.54,1.62,3.07,2.44,4.58.31-.12.62-.24.93-.37.22.41.45.83.67,1.24-.98.39-1.96.77-2.94,1.13-.22-.41-.45-.83-.67-1.24.32-.12.65-.24.97-.36-2.31-4.31-4.63-8.75-6.94-13.23-.32.12-.65.23-.97.35-.22-.43-.45-.86-.67-1.29.67-.24,1.34-.48,2-.73,1.09,2.12,2.19,4.23,3.28,6.33Z" style="fill: #fff;"/>
      <path d="M146.88,64.86c.06.12.12.23.19.35,1.3,2.43,2.72,3.57,3.77,3.07.82-.4.91-1.44.3-2.95.32-.16.63-.32.95-.48,1.04,2.13.82,4.04-.55,4.71-1.65.81-3.87-.82-5.67-4.21-1.84-3.46-1.99-6.4-.36-7.16,1.52-.71,3.69.99,5.41,4.19.07.15.15.3.22.44-1.41.71-2.83,1.39-4.24,2.03ZM149.37,62.15c-1.18-2.14-2.25-3.04-3.17-2.61-.91.42-.88,1.96.07,4.07,1.03-.47,2.07-.95,3.1-1.46Z" style="fill: #fff;"/>
      <path d="M152.03,49.19c2.54,4.91,5.07,9.66,7.61,14.13.32-.19.65-.39.97-.59.22.39.45.78.67,1.16-.65.4-1.31.79-1.96,1.18-.3-.52-.59-1.04-.89-1.57.27,1.45.01,2.37-.76,2.81-1.45.83-3.84-.89-5.58-4.13-1.75-3.23-1.96-6.27-.51-7.05.77-.41,1.69-.1,2.79.95-.89-1.66-1.77-3.35-2.66-5.06-.32.18-.65.36-.97.53-.22-.43-.45-.86-.67-1.29.65-.35,1.31-.71,1.96-1.08ZM153.08,61.57c1.52,2.81,2.97,4,4.02,3.41,1.03-.59.77-2.45-.71-5.14-1.47-2.7-2.94-4-3.97-3.45-1.03.55-.78,2.52.66,5.18Z" style="fill: #fff;"/>
      <path d="M161.75,54.08c-.87-1.51-1.89-2.08-2.78-1.53-.66.4-.78,1.33-.28,2.24.4.73.89.98,2.04,1.02,1.45.06,1.88.08,2.46.25.71.2,1.35.77,1.85,1.63,1.01,1.76.84,3.56-.41,4.38-.74.48-1.5.39-2.54-.33.22.44.44.87.66,1.31-.22.14-.44.28-.66.41-.66-1.14-1.32-2.3-1.98-3.47.22-.14.45-.27.67-.41.98,1.41,2.22,1.94,3.1,1.38.7-.45.81-1.4.28-2.33-.45-.78-.88-.97-2.16-1-1.39-.03-2.14-.14-2.58-.36-.67-.32-1.21-.87-1.64-1.67-.93-1.72-.78-3.55.36-4.23.63-.38,1.35-.3,2.21.24-.15-.35-.31-.71-.46-1.07.21-.13.43-.27.64-.4.64,1.19,1.27,2.36,1.91,3.51-.23.15-.46.29-.69.43Z" style="fill: #fff;"/>
      <path d="M164.46,49.92c-.27-1.48-.09-2.35.57-2.78.51-.34,1.02-.24,1.77.3.4.73.8,1.45,1.2,2.16-.26.18-.53.36-.79.54-.4-.64-.61-.96-.8-1.17-.32-.34-.66-.42-.95-.22-.44.29-.52,1.18-.18,2.14.25.72.63,1.48,1.63,3.23.64,1.11,1.27,2.19,1.91,3.26.38-.26.75-.52,1.13-.79.22.37.45.74.67,1.1-1.04.74-2.09,1.47-3.13,2.19-.22-.37-.45-.75-.67-1.13.32-.22.65-.44.97-.66-1.5-2.53-3-5.19-4.51-7.94-.32.21-.65.42-.97.63-.22-.41-.45-.82-.67-1.24.64-.41,1.29-.83,1.93-1.25.3.55.59,1.1.89,1.64Z" style="fill: #fff;"/>
      <path d="M166.77,40.37c.35.66.69,1.31,1.04,1.95-.43.29-.85.57-1.28.86-.35-.65-.69-1.3-1.04-1.96.43-.28.85-.57,1.28-.85ZM174.19,53.51c.33-.24.66-.49.99-.73.22.36.45.71.67,1.06-1,.75-1.99,1.49-2.99,2.22-.22-.36-.45-.72-.67-1.08.32-.24.65-.47.97-.71-1.5-2.44-3-5.02-4.51-7.72-.32.22-.65.44-.97.66-.22-.4-.45-.81-.67-1.21.67-.45,1.34-.9,2-1.36,1.72,3.13,3.45,6.1,5.17,8.87Z" style="fill: #fff;"/>
      <path d="M176.3,44.14c-.87-1.4-1.89-1.88-2.78-1.26-.66.46-.78,1.4-.28,2.26.4.69.89.87,2.04.8,1.45-.09,1.88-.11,2.46,0,.71.12,1.35.61,1.85,1.38,1.02,1.58.84,3.31-.41,4.28-.74.57-1.5.59-2.54.03.22.4.44.8.66,1.19-.22.17-.44.33-.66.5-.66-1.02-1.32-2.08-1.98-3.16.22-.16.45-.33.67-.49.98,1.27,2.22,1.62,3.1.95.7-.53.81-1.46.28-2.29-.45-.7-.88-.84-2.16-.72-1.39.13-2.14.11-2.57-.06-.67-.24-1.21-.73-1.64-1.48-.93-1.62-.78-3.49.36-4.27.63-.44,1.35-.41,2.21.05-.15-.34-.31-.67-.46-1.02.21-.15.43-.3.64-.45.64,1.12,1.27,2.22,1.91,3.28-.23.16-.46.33-.69.49Z" style="fill: #fff;"/>
      <path d="M175.94,34.22c.35.64.69,1.26,1.04,1.88-.43.28-.85.57-1.28.86-.35-.62-.69-1.26-1.04-1.89.43-.28.85-.56,1.28-.84ZM183.36,46.59c.33-.25.66-.5.99-.75.22.32.45.64.67.95-1,.77-1.99,1.54-2.99,2.31-.22-.33-.45-.66-.67-.99.32-.25.65-.49.97-.74-1.5-2.22-3-4.63-4.5-7.19-.32.22-.65.45-.97.68-.22-.38-.45-.77-.67-1.16.67-.46,1.34-.92,2-1.37,1.72,2.98,3.45,5.75,5.17,8.27Z" style="fill: #fff;"/>
      <path d="M184.85,33.94c.65,1.06,1.3,2.09,1.94,3.08-.27.17-.53.35-.8.52-.96-1.3-1.88-1.76-2.67-1.25-1.03.66-.76,2.63.7,4.88,1.42,2.18,2.89,2.9,3.89,2.16.77-.58.78-1.54.04-2.87.3-.21.6-.42.91-.63,1.18,1.86,1.06,3.47-.27,4.49-1.58,1.2-3.81.42-5.59-2.35-1.82-2.83-2.02-5.85-.5-6.81.6-.39,1.28-.33,2.07.15-.18-.29-.36-.58-.53-.87.27-.17.53-.33.8-.49Z" style="fill: #fff;"/>
      <path d="M185.6,28.35c.35.6.69,1.19,1.04,1.77-.43.23-.85.47-1.28.71-.35-.59-.69-1.18-1.04-1.79.43-.24.85-.47,1.28-.7ZM193.03,39.54c.33-.22.66-.45.99-.66.22.27.45.54.67.8-1,.68-1.99,1.38-2.99,2.11-.22-.28-.45-.56-.67-.85.32-.23.65-.46.97-.68-1.5-1.91-3-4.05-4.51-6.4-.32.19-.65.39-.97.59-.22-.35-.45-.71-.67-1.07.67-.4,1.34-.79,2-1.17,1.72,2.75,3.45,5.21,5.17,7.35Z" style="fill: #fff;"/>
      <path d="M53.66,139.53c.22.45.45.91.67,1.36-.27.3-.55.59-.82.89.93,1.14,1.85,2.31,2.78,3.5,1.28,1.68,1.33,1.74,2.87,3.87-.42-1.64-.88-3.47-1.38-5.46-.43-1.72-.87-3.42-1.3-5.11-.28.3-.56.6-.84.9-.22-.46-.45-.91-.67-1.37.88-.95,1.76-1.89,2.63-2.83.22.46.45.91.67,1.37-.32.34-.64.68-.96,1.03,1.07,4.31,2.15,8.75,3.22,13.31-.3.32-.59.64-.89.96-2.41-3.12-4.83-6.14-7.24-8.97-.33.35-.66.71-.99,1.06-.22-.45-.45-.9-.67-1.35.97-1.05,1.95-2.11,2.92-3.16Z" style="fill: #fff;"/>
      <path d="M62.08,139.93c.06.13.12.26.19.4,1.3,2.77,2.72,3.84,3.77,2.73.82-.87.91-2.35.3-4.19.32-.33.63-.65.95-.98,1.04,2.53.82,5.27-.55,6.72-1.65,1.75-3.87.31-5.67-3.55-1.84-3.92-1.99-7.71-.36-9.43,1.52-1.6,3.69-.28,5.41,3.36.07.17.15.34.22.51-1.41,1.45-2.83,2.93-4.24,4.43ZM64.56,135.24c-1.18-2.4-2.25-3.12-3.17-2.16-.91.95-.88,2.97.07,5.41,1.03-1.09,2.07-2.18,3.1-3.25Z" style="fill: #fff;"/>
      <path d="M67.22,118.02c2.54,5.12,5.07,10.44,7.61,15.82.32-.31.65-.63.97-.94.22.47.45.94.67,1.42-.65.63-1.31,1.26-1.96,1.91-.3-.63-.59-1.27-.89-1.9.27,1.85.01,3.15-.75,3.92-1.46,1.47-3.84-.23-5.58-3.93-1.75-3.7-1.96-7.47-.51-8.91.77-.76,1.69-.64,2.79.38-.89-1.84-1.77-3.67-2.66-5.47-.32.31-.65.63-.97.95-.22-.45-.45-.9-.67-1.35.65-.64,1.31-1.27,1.96-1.9ZM68.28,133.19c1.52,3.23,2.97,4.47,4.02,3.41,1.03-1.03.77-3.47-.71-6.57-1.47-3.1-2.94-4.31-3.97-3.3-1.03,1.02-.78,3.43.66,6.46Z" style="fill: #fff;"/>
      <path d="M77.78,108.84c2.54,5.13,5.07,10.38,7.61,15.59.32-.26.65-.52.97-.78.22.46.45.91.67,1.37-.65.52-1.31,1.06-1.96,1.6-.3-.61-.59-1.22-.89-1.84.27,1.74.01,2.93-.75,3.59-1.45,1.26-3.84-.48-5.58-4.12-1.75-3.64-1.96-7.26-.51-8.47.77-.64,1.69-.43,2.79.64-.89-1.82-1.77-3.64-2.66-5.44-.32.26-.65.52-.97.79-.22-.45-.45-.91-.67-1.36.65-.53,1.31-1.06,1.96-1.57ZM78.83,123.27c1.52,3.17,2.97,4.43,4.02,3.52,1.03-.88.77-3.16-.71-6.19-1.47-3.04-2.94-4.33-3.97-3.48-1.03.86-.78,3.17.66,6.16Z" style="fill: #fff;"/>
      <path d="M84.11,115.92c-.35-.89-.71-1.78-1.06-2.66.13-1.38.61-2.41,1.38-2.96.82-.59,1.77-.53,2.57.17.54.47.88,1.01,1.95,3.16.97,1.97,1.95,3.94,2.92,5.89.32-.23.64-.45.96-.67.22.45.45.89.67,1.34-.63.43-1.25.88-1.88,1.33-.29-.58-.58-1.16-.87-1.74.29,1.55-.01,2.72-.83,3.34-1.17.88-2.7.1-3.68-1.93-.78-1.6-.89-3.22-.33-4.6.34-.87.57-1.22,1.76-2.77-.07-.15-.15-.3-.22-.45-.47-.95-.72-1.35-.99-1.57-.41-.35-.89-.35-1.37-.01-.56.4-.84,1.09-.78,1.8.05.41.11.61.54,1.8-.24.18-.48.36-.73.55ZM88.29,115.06c-1.66,2.16-1.93,3.47-1.1,5.16.62,1.26,1.49,1.73,2.18,1.22.6-.45.83-1.43.6-2.52-.11-.53-.53-1.52-1.16-2.8-.17-.35-.35-.7-.52-1.05Z" style="fill: #fff;"/>
      <path d="M91.78,105.84c.23.46.45.91.68,1.37-.51.31-1.02.62-1.54.93.91,1.83,1.82,3.67,2.74,5.49.85,1.71,1.07,2.09,1.37,2.51.4.55.87.74,1.25.5.26-.16.42-.43.59-.95.26.5.51,1.01.77,1.51-.3.57-.5.8-.87,1.03-.71.46-1.47.31-2.15-.46-.53-.57-.59-.69-1.97-3.47-.92-1.84-1.83-3.68-2.75-5.53-.31.2-.61.39-.92.59-.23-.46-.45-.92-.68-1.38.31-.2.61-.4.92-.59-.57-1.16-1.15-2.31-1.72-3.47.34-.22.69-.43,1.03-.64.57,1.15,1.15,2.31,1.72,3.46.51-.32,1.02-.63,1.54-.93Z" style="fill: #fff;"/>
      <path d="M94.86,108.74c-.35-.86-.71-1.72-1.06-2.57.13-1.25.61-2.15,1.38-2.57.82-.44,1.77-.28,2.57.45.54.49.88,1.03,1.95,3.13.97,1.91,1.95,3.82,2.92,5.7.32-.17.64-.34.96-.51.22.43.45.86.67,1.28-.63.33-1.25.67-1.88,1.02-.29-.56-.58-1.12-.87-1.68.29,1.44-.01,2.47-.83,2.95-1.17.68-2.7-.18-3.69-2.14-.78-1.54-.89-3.05-.33-4.25.34-.76.57-1.05,1.76-2.35-.07-.15-.15-.29-.22-.44-.47-.93-.72-1.32-.99-1.55-.41-.37-.89-.43-1.37-.17-.56.3-.84.9-.78,1.56.05.38.11.57.54,1.72-.24.14-.48.28-.73.42ZM99.04,108.42c-1.66,1.79-1.93,2.96-1.1,4.59.62,1.22,1.49,1.74,2.18,1.35.6-.35.83-1.21.6-2.23-.11-.5-.53-1.44-1.16-2.68-.17-.34-.35-.68-.52-1.02Z" style="fill: #fff;"/>
      <path d="M106.33,110.98c.33-.16.66-.32.99-.47.22.42.45.85.67,1.27-1.01.48-2.01.98-3.02,1.5-.22-.43-.45-.85-.67-1.28.32-.17.65-.33.97-.49-2.31-4.43-4.63-8.98-6.94-13.56-.32.15-.65.3-.97.46-.22-.44-.45-.88-.67-1.33.68-.32,1.35-.63,2.03-.93,2.54,5.02,5.08,10.01,7.61,14.85Z" style="fill: #fff;"/>
      <path d="M105.05,103.58c-.35-.83-.71-1.65-1.06-2.48.13-1.15.61-1.93,1.38-2.24.82-.33,1.77-.09,2.57.66.54.51.88,1.04,1.95,3.07.97,1.86,1.95,3.7,2.92,5.51.32-.13.64-.26.96-.39.22.41.45.82.67,1.24-.63.25-1.25.51-1.88.78-.29-.54-.58-1.07-.87-1.61.29,1.35-.01,2.27-.83,2.64-1.17.52-2.7-.41-3.69-2.3-.78-1.49-.89-2.89-.33-3.94.34-.67.57-.92,1.76-2-.07-.14-.15-.28-.22-.43-.47-.9-.72-1.29-.99-1.53-.41-.38-.89-.48-1.37-.29-.56.23-.84.75-.78,1.37.05.36.11.54.54,1.64-.24.1-.48.21-.73.31ZM109.23,103.68c-1.66,1.51-1.93,2.55-1.1,4.13.62,1.18,1.49,1.73,2.18,1.43.6-.26.83-1.04.6-2-.11-.47-.53-1.37-1.16-2.57-.17-.33-.35-.66-.52-.99Z" style="fill: #fff;"/>
      <path d="M115.7,96.88c-.49.15-.98.3-1.47.45.79.49,1.43,1.21,1.96,2.21.45.84.68,1.66.63,2.3-.02.63-.23,1.06-.83,1.79-.8.98-.94,1.31-.68,1.79.22.41.54.51,1.15.4,2.49-.56,3.76-.01,4.88,1.97,1.2,2.13.86,3.62-.94,4.33-1.84.73-3.54.07-4.62-1.89-.75-1.37-.71-2.43.12-3.26-.81-.05-1.21-.28-1.53-.88-.43-.8-.26-1.57.49-2.29-1.3-.16-2.36-1.04-3.23-2.69-.52-.99-.78-1.99-.73-2.8.07-.93.47-1.4,1.46-1.74.22-.07.44-.15.66-.22.33-.08.53-.15.59-.17.49-.16.99-.32,1.48-.48.21.39.41.78.62,1.17ZM112.55,100.63c.74,1.41,1.75,2.12,2.54,1.84.75-.27.78-1.39.06-2.75-.72-1.35-1.71-2.1-2.48-1.84-.78.27-.84,1.41-.13,2.75ZM116.62,109.75c.69,1.26,1.83,1.66,3.12,1.16,1.18-.46,1.47-1.43.78-2.67-.68-1.21-1.74-1.65-2.96-1.2-1.21.45-1.58,1.54-.94,2.71Z" style="fill: #fff;"/>
      <path d="M118.74,96.5c-.27-1.37-.09-2.08.57-2.27.51-.15,1.02.08,1.77.76.4.75.8,1.49,1.2,2.23-.27.08-.53.16-.8.24-.4-.68-.61-1.02-.8-1.25-.32-.39-.66-.55-.95-.46-.44.13-.52.88-.18,1.83.25.7.63,1.48,1.63,3.31.64,1.16,1.27,2.31,1.91,3.45.38-.12.75-.25,1.12-.37.22.4.45.79.67,1.19-1.04.35-2.09.7-3.13,1.06-.22-.4-.45-.8-.67-1.2.32-.11.65-.22.97-.33-1.5-2.7-3-5.47-4.5-8.3-.32.1-.65.2-.97.3-.22-.42-.45-.84-.67-1.26.65-.2,1.29-.4,1.94-.59.3.56.59,1.12.89,1.68Z" style="fill: #fff;"/>
      <path d="M121.05,88.93c.35.66.69,1.31,1.04,1.96-.43.12-.85.24-1.28.36-.35-.65-.69-1.31-1.04-1.97.43-.12.85-.23,1.28-.35ZM128.47,102.6c.33-.1.66-.21.99-.31.22.39.45.78.67,1.16-1,.32-1.99.64-2.99.96-.22-.39-.45-.78-.67-1.18.32-.1.65-.21.97-.31-1.5-2.64-3-5.37-4.51-8.15-.32.09-.65.19-.97.28-.22-.41-.45-.83-.67-1.25.67-.19,1.34-.38,2-.57,1.72,3.21,3.45,6.34,5.17,9.36Z" style="fill: #fff;"/>
      <path d="M127.91,93.92c-.32-1.42-.08-2.23.76-2.47.81-.23,1.83.27,2.68,1.26.42.49.55.7,1.83,2.99.88,1.55,1.76,3.08,2.64,4.57.32-.1.65-.21.97-.31.22.38.45.75.67,1.13-.96.32-1.91.63-2.87.93-.22-.38-.45-.76-.67-1.14.29-.09.58-.18.86-.27-.94-1.6-1.87-3.23-2.81-4.9-.75-1.34-1.01-1.74-1.31-2.09-.47-.54-1.02-.77-1.47-.64-.49.14-.72.7-.62,1.48.1.67.33,1.21,1.15,2.67.82,1.46,1.63,2.89,2.45,4.3.29-.09.58-.18.86-.27.22.38.45.77.67,1.14-.96.31-1.91.61-2.87.92-.22-.38-.45-.77-.67-1.16.32-.1.65-.2.97-.31-1.5-2.6-3-5.29-4.51-8.05-.32.09-.65.19-.97.28-.22-.41-.45-.82-.67-1.23.65-.18,1.31-.37,1.96-.55.31.58.63,1.15.94,1.72Z" style="fill: #fff;"/>
      <path d="M138.72,90.01c-.49.15-.98.3-1.47.45.79.45,1.43,1.12,1.96,2.04.45.77.68,1.54.63,2.13-.02.59-.23.99-.83,1.67-.8.9-.94,1.19-.68,1.63.22.38.54.47,1.15.37,2.49-.52,3.76-.08,4.88,1.72,1.2,1.92.86,3.32-.94,3.98-1.84.67-3.54.05-4.62-1.73-.75-1.25-.71-2.19.12-2.93-.81-.05-1.21-.27-1.53-.82-.43-.74-.26-1.42.49-2.07-1.3-.16-2.36-.99-3.23-2.52-.52-.92-.78-1.85-.73-2.59.07-.85.47-1.28,1.46-1.59.22-.07.44-.14.66-.2.33-.08.53-.14.59-.16.49-.16.99-.31,1.48-.47.21.37.41.73.62,1.1ZM135.57,93.51c.74,1.31,1.75,1.98,2.54,1.72.75-.25.78-1.29.06-2.55-.72-1.25-1.71-1.95-2.48-1.71-.78.24-.84,1.29-.13,2.54ZM139.64,101.86c.69,1.14,1.83,1.52,3.12,1.05,1.18-.43,1.47-1.33.78-2.45-.68-1.1-1.74-1.47-2.96-1.05-1.21.41-1.58,1.38-.94,2.44Z" style="fill: #fff;"/>
      <path d="M145.03,95.91c.42.69.84,1.37,1.26,2.05-.47.18-.94.36-1.41.54-.42-.68-.84-1.37-1.26-2.06.47-.17.94-.34,1.41-.52Z" style="fill: #fff;"/>
      <path d="M142.58,88.89c-1.09-1.8-2.19-3.65-3.28-5.52.32-.11.64-.22.96-.33,1,1.9,2,3.77,3.01,5.6-.23.08-.46.17-.69.25ZM144.35,88.25c-1.09-1.79-2.19-3.62-3.28-5.49.32-.11.64-.23.96-.34,1,1.89,2.01,3.75,3.01,5.57-.23.09-.46.17-.69.26Z" style="fill: #fff;"/>
    </g>
    <path d="M16.3,149.56c-2.81-2.65-6.21-6.28-7.63-10.92-1.23-4.02-.76-9.49,3.07-12.65.66-.55,1.4-1,2.11-1.44,1.09-.67,2.12-1.31,2.87-2.24,2.05-2.55,1.23-5.99.36-9.63-.86-3.63-1.76-7.38.33-10.37,1.11-1.59,2.82-2.5,4.47-3.38,1.2-.64,2.44-1.3,3.4-2.21,2.82-2.67,2.92-6.66,3.02-10.9.07-3.09.15-6.29,1.33-9.09,3.16-7.47,12.23-9.05,20.24-10.45,1.34-.23,2.67-.47,3.94-.72,8.69-1.73,16.81-5.7,23.5-11.5l.51-.44c1.37-1.2,2.79-2.45,4.56-3.07,1.98-.7,4.09-.51,6.13-.33h.17c7.83.71,16.9.9,24.76-2.86,5.43-2.6,9.86-6.92,14.16-11.1,2.78-2.71,5.66-5.52,8.81-7.87,6.62-4.94,14.79-8.03,23.02-8.7,7.44-.61,15.06.67,22.42,1.9,10.66,1.78,20.73,3.46,30.44.03,3.1-1.1,6.13-2.73,9.06-4.32,5.36-2.9,10.92-5.89,17.07-5.66,3.3.13,6.51,1.19,9.61,2.22,3.96,1.32,7.71,2.56,11.62,2.02,3.81-.53,7.19-2.75,10.46-4.89.62-.41,1.24-.82,1.86-1.21C279.7,4.89,288.52,1.51,297.51,0l.17.99c-8.86,1.49-17.55,4.82-25.13,9.64-.62.39-1.23.8-1.85,1.2-3.36,2.2-6.83,4.48-10.87,5.04-4.15.58-8.18-.76-12.08-2.06-3.04-1.01-6.18-2.05-9.33-2.17-5.91-.23-11.07,2.57-16.56,5.54-2.96,1.6-6.03,3.26-9.21,4.38-9.95,3.52-20.62,1.74-30.93.02-7.31-1.22-14.86-2.48-22.18-1.89-8.05.65-16.04,3.67-22.51,8.5-3.1,2.31-5.95,5.1-8.71,7.79-4.35,4.24-8.85,8.62-14.42,11.29-8.07,3.87-17.31,3.67-25.28,2.97h-.17c-1.94-.18-3.94-.36-5.71.26-1.59.56-2.93,1.74-4.23,2.88l-.51.45c-6.82,5.91-15.11,9.97-23.96,11.73-1.28.25-2.62.49-3.97.72-8.13,1.42-16.54,2.89-19.49,9.85-1.11,2.62-1.18,5.73-1.25,8.73-.1,4.25-.2,8.65-3.33,11.6-1.06,1-2.36,1.69-3.61,2.37-1.62.87-3.15,1.68-4.12,3.08-1.83,2.61-1.03,5.99-.18,9.56.88,3.72,1.8,7.56-.56,10.49-.86,1.07-2.01,1.78-3.13,2.46-.68.42-1.39.85-2,1.36-2.96,2.44-4.09,7.21-2.75,11.59,1.35,4.41,4.64,7.92,7.36,10.49l-.69.73Z" style="fill: #fff;"/>
    <path d="M63.76,174.7c-.72-1.78-.56-3.68.49-5.5,1.59-2.78,5.02-5,8.53-5.51,2.15-.31,4.37-.27,6.51-.22,3.1.07,6.03.13,8.83-.8,5.1-1.7,8.54-6.34,11.86-10.83,3.5-4.73,7.12-9.62,12.75-11.25,2.7-.78,5.58-.69,8.37-.61,3.58.11,6.96.21,9.91-1.38,3.61-1.95,5.4-5.73,7.29-9.73.75-1.59,1.53-3.24,2.43-4.75,4.86-8.13,14.48-12.52,22.86-10.44,4.2,1.04,7.82,3.51,11.33,5.91,1.12.76,2.27,1.55,3.42,2.27,14.39,9.06,32.57,10.22,46.33,2.96,14.69-7.75,23.07-25.6,19.06-40.64-.24-.9-.52-1.79-.8-2.69-.67-2.15-1.36-4.37-1.5-6.68-.58-10.08,9.35-17.68,19.44-20.73,2.72-.82,5.56-1.48,8.31-2.12,6.93-1.61,14.09-3.27,19.67-7.65,11.01-8.64,12.46-24.59,12.38-40.54h1c.08,16.2-1.41,32.42-12.76,41.33-5.75,4.51-13.02,6.2-20.06,7.83-2.73.63-5.56,1.29-8.24,2.1-9.72,2.94-19.28,10.17-18.73,19.71.13,2.18.8,4.34,1.45,6.44.28.91.57,1.81.81,2.73,4.12,15.47-4.47,33.83-19.56,41.79-14.07,7.42-32.65,6.25-47.33-3-1.16-.73-2.33-1.52-3.45-2.29-3.44-2.34-6.99-4.76-11.01-5.76-7.97-1.98-17.12,2.22-21.77,9.98-.88,1.46-1.64,3.09-2.39,4.66-1.88,3.97-3.82,8.08-7.72,10.18-3.19,1.72-6.87,1.61-10.42,1.5-2.71-.08-5.52-.17-8.07.57-5.3,1.53-8.66,6.07-12.22,10.88-3.42,4.61-6.95,9.38-12.35,11.18-2.97.99-6.12.92-9.17.85-2.1-.05-4.27-.09-6.35.21-3.17.46-6.38,2.52-7.81,5.02-.88,1.54-1.03,3.14-.43,4.63l-.93.38Z" style="fill: #fff;"/>
  </g>
</svg>