<?xml version="1.0" encoding="UTF-8"?>
<svg id="Layer_16" xmlns="http://www.w3.org/2000/svg" viewBox="0 0 245.13 264.61">
  <path d="M96.16,178.84l-1.27-.95c-20.3-15.09-42.34-27.88-65.52-38.02-1.95-.85-4.37-1.91-5.74-4.09-1.28-2.02-1.29-4.42-1.31-6.34-.13-18.73.02-37.69.44-56.35.03-1.46-.11-3.27-.27-5.17-.46-5.69-.99-12.15,2.34-16.13.31-.37.68-.73,1.1-1.08l-.35-.31.46-.52c3.86-4.36,8.17-8.51,12.34-12.53,2.31-2.22,4.68-4.51,6.96-6.82l22.5-22.78c1.71-1.73,3.64-3.69,6.11-4.86,3.27-1.56,6.91-1.51,10.13-1.48l125.49,1.49c3.88.05,8.25.35,10.99,3.39,2.07,2.31,2.5,5.42,2.77,8.41,1.64,18.62,1.05,37.61.48,55.98-.64,20.69-1.3,42.06,1.23,62.86l.11.9-73.5,43.12-.66-1.34c-1.87-3.8-3.8-7.74-6.65-10.85-6.09-6.66-16.6-9.19-26.13-6.31-8.55,2.59-16.31,9.28-21.27,18.37l-.76,1.39ZM80.49,166.12c5.17,3.41,10.25,6.97,15.21,10.67h0c.41-.75.84-1.48,1.28-2.2-.31.5-.61,1-.9,1.52l-.39.68-.63-.46c-4.77-3.53-9.63-6.93-14.58-10.2ZM151.39,173.95c.28.56.55,1.12.82,1.67h0s71.43-41.91,71.43-41.91h0c-.66-5.41-1.1-10.85-1.38-16.3.28,5.3.7,10.59,1.33,15.85l.05.45-.39.23-71.04,41.68-.33-.67c-.17-.34-.33-.67-.5-1ZM42.33,48.87c-4.8,0-12.82,1.63-15.38,4.7-2.6,3.11-2.13,8.97-1.71,14.13.16,2,.31,3.86.28,5.46-.42,18.61-.56,37.54-.44,56.26.01,1.58.02,3.53.88,4.89.92,1.46,2.83,2.3,4.51,3.03,22.88,10.01,44.68,22.59,64.81,37.4,5.32-9.01,13.35-15.66,22.12-18.31,10.53-3.18,22.17-.33,28.97,7.08,2.71,2.96,4.55,6.36,6.44,10.16l69.37-40.7c-2.43-20.71-1.77-41.88-1.14-62.36.57-18.29,1.15-37.21-.47-55.68-.22-2.53-.57-5.14-2.07-6.81-1.99-2.21-5.52-2.43-8.96-2.47l-125.49-1.49c-2.6-.04-5.52-.07-8.04.84.96,10.38,1.02,23.54.16,32.92-.28,3.09-.71,6.32-2.48,9.04-3.45,5.29-10.56,6.39-16.07,5.65-2.57-.34-4.84-1.14-7.03-1.92-2.61-.92-5.06-1.79-7.86-1.85h-.4ZM140.52,160.48c1.79,1.11,3.41,2.44,4.82,3.97,1.84,2.01,3.3,4.32,4.6,6.7-1.33-2.45-2.76-4.7-4.6-6.7-1.41-1.54-3.03-2.86-4.82-3.97ZM80.45,166.09s.01,0,.02.01c0,0-.01,0-.02-.01ZM65.52,156.78s0,0,0,0c0,0,0,0,0,0ZM65.45,156.74s.01,0,.02.01c0,0-.01,0-.02-.01ZM65.38,156.7s.02.01.03.02c-.01,0-.02-.01-.03-.02ZM65.32,156.66s.03.02.04.02c-.01,0-.03-.02-.04-.02ZM65.25,156.62s.03.02.05.03c-.02,0-.04-.02-.05-.03ZM37.72,142.14c9.39,4.4,18.58,9.23,27.53,14.48-8.95-5.25-18.14-10.08-27.53-14.48ZM37.68,142.12s.02,0,.03.01c-.01,0-.02,0-.03-.01ZM24.11,71.42c.02.6.04,1.17.02,1.71-.42,18.65-.57,37.59-.44,56.31,0,.28,0,.57.01.87,0-.3,0-.59-.01-.87-.13-18.74.02-37.68.44-56.31.01-.53,0-1.11-.02-1.71ZM222.26,117.37s0,.01,0,.02c0,0,0-.01,0-.02ZM26.29,52.24c-.15.14-.28.29-.41.44-2.6,3.11-2.53,8.23-2.18,13.11-.35-4.89-.42-10,2.18-13.11.13-.15.26-.3.41-.44ZM58.01,51.29c5.06.62,11.46-.38,14.52-5.07,1.6-2.45,1.99-5.5,2.26-8.41.05-.55.1-1.11.14-1.68-.04.57-.09,1.13-.14,1.68-.27,2.91-.66,5.96-2.26,8.41-3.06,4.68-9.46,5.69-14.52,5.07ZM28.1,50.8l.02.02-.59.41c.48-.33,1.02-.63,1.59-.91l-1.02.48ZM42.39,46.1h.4c3.25.07,6.03,1.06,8.72,2.01,2.06.73,4.18,1.48,6.47,1.79,4.67.62,10.65-.22,13.39-4.43,1.43-2.18,1.79-5.04,2.04-7.78.81-8.83.78-21.22-.06-31.23-1.28.93-2.43,2.1-3.56,3.24l-22.5,22.79c-2.3,2.33-4.7,4.64-7.01,6.86-2.85,2.75-5.78,5.57-8.57,8.47,3.66-1.17,7.83-1.71,10.68-1.71ZM31.68,45.87c-1.08,1.1-2.14,2.22-3.18,3.34l.11-.12c1-1.09,2.03-2.16,3.07-3.22ZM42.46,47.49h.3c.16,0,.32.01.47.02-.16,0-.31-.01-.47-.02h-.3ZM31.7,45.85h0s0,0,0,0ZM40.76,36.97c-.48.46-.96.92-1.43,1.38-.25.24-.49.48-.74.71.25-.24.5-.48.74-.71.47-.46.95-.92,1.43-1.38ZM69.57,7.96c-.26.26-.51.51-.76.77l-22.5,22.78c-1.16,1.18-2.35,2.35-3.53,3.5,1.19-1.16,2.37-2.33,3.53-3.5l22.5-22.78c.25-.25.51-.51.76-.77ZM219.29,6.98c.08.08.15.16.23.24,1.62,1.81,2.09,4.33,2.35,6.85-.25-2.52-.72-5.04-2.35-6.85-.07-.08-.15-.16-.23-.24ZM74.6,4.88l.03.3c.04.45.08.91.12,1.37-.05-.56-.1-1.12-.15-1.67ZM83.92,2.8s.09,0,.13,0l125.49,1.49h.3c-.1,0-.2,0-.3,0l-125.49-1.49s-.09,0-.13,0ZM75.3,3.81,75.32,3.81s0,0,0,0c0,0,0,0,0,0ZM75.33,3.8s0,0,0,0h0ZM75.35,3.79s0,0,0,0c0,0,0,0,0,0ZM75.49,3.74s-.09.03-.14.05c.05-.02.09-.04.14-.05ZM75.5,3.74s0,0-.01,0c0,0,0,0,.01,0ZM75.52,3.73s0,0-.01,0c0,0,0,0,.01,0ZM75.53,3.73s0,0-.01,0c0,0,0,0,.01,0ZM75.55,3.72s0,0-.01,0c0,0,0,0,.01,0ZM75.56,3.72h0s0,0,0,0Z" style="fill: #fff;"/>
  <path d="M94.26,22.97c-2.74,0-6.38-.42-8.22-2.43-.84-.92-1.21-2.04-1.09-3.32.38-4.07,5.76-4.29,8.97-4.43.58-.02,1.1-.05,1.51-.09,8.9-.89,17.89-.72,26.72.5l1.6.23c2.98.43,6.06.88,9.02.6,1.63-.16,3.33-.54,4.97-.91,3.67-.83,7.47-1.68,11.19-.34,1.3.47,3.05,1.41,3.98,3.22.98,1.92.57,4.3-.96,5.54-1.2.97-2.68,1.06-4.1,1.07l-53.57.37ZM86.72,16.23c-.21.32-.35.69-.39,1.12-.08.89.15,1.63.73,2.26,1.58,1.72,5.19,1.98,7.2,1.98h.16s53.41-.37,53.41-.37c.88,0,1.69-.04,2.39-.29-.7.25-1.51.28-2.39.29l-53.4.37c-2.1.02-5.78-.25-7.37-1.98-.57-.62-.81-1.38-.73-2.26.04-.43.18-.8.39-1.12ZM106.69,14.92c-3.66,0-7.36.18-10.99.55-.45.05-1.02.07-1.66.1-2.16.09-6.18.26-6.33,1.93-.05.5.07.87.37,1.2.88.96,3.31,1.56,6.34,1.53l53.4-.37c1.01,0,1.88-.05,2.38-.45.58-.47.58-1.48.24-2.13-.4-.79-1.27-1.45-2.45-1.88-2.97-1.06-6.21-.33-9.65.44-1.73.39-3.52.79-5.31.96-3.28.32-6.53-.15-9.68-.61l-1.59-.23c-4.97-.68-10.04-1.03-15.08-1.03ZM151.71,16.69c.29.6.42,1.35.31,2.07.11-.67.01-1.4-.31-2.07ZM148.79,14.21c1.3.53,2.29,1.34,2.83,2.31-.66-1.2-1.84-1.91-2.83-2.31ZM139.95,14.05c-.64.13-1.28.28-1.91.42-.7.16-1.4.32-2.11.46.71-.14,1.42-.3,2.11-.46.64-.14,1.28-.29,1.91-.42ZM123.44,14.79l.11.02c.16.02.33.05.49.07-.16-.02-.33-.05-.49-.07l-.11-.02ZM94.67,14.15c-.22.01-.45.02-.69.03-.73.03-1.55.07-2.38.14.83-.08,1.65-.11,2.38-.14.24-.01.47-.02.69-.03ZM108.28,13.55c3.81.05,7.63.3,11.41.74-3.78-.44-7.59-.69-11.41-.74ZM104.82,13.55c-2.64.04-5.28.18-7.91.41,2.62-.23,5.27-.37,7.91-.41Z" style="fill: #fff;"/>
  <path d="M177.6,22.62c-3.25,0-8.14-.08-13-.8-1.54-.23-3.29-.57-4.64-1.77-1.89-1.68-2.56-3.3-2-4.81,1.28-3.41,8.49-3.52,8.79-3.52,5.07-.06,10.37.89,15.65,2.8,2.28.82,4.7,2.69,3.98,5.24-.35,1.26-1.54,2.78-5.2,2.83-1.16.02-2.35.03-3.58.03ZM181.38,21.21c-.18,0-.36,0-.54.01.18,0,.35,0,.54-.01ZM167.18,14.48h-.39c-2.78.03-5.93.9-6.24,1.73-.07.17.11.77,1.25,1.78.78.7,2.01.93,3.21,1.1,5.59.82,11.26.81,16.14.74,1.46-.02,2.45-.33,2.58-.82.17-.61-1.04-1.46-2.26-1.9-4.85-1.75-9.66-2.64-14.29-2.64ZM159.16,16.34c.03.79.6,1.69,1.72,2.68.06.06.13.11.19.16-.06-.05-.13-.11-.19-.16-1.12-.99-1.69-1.89-1.72-2.68ZM183.04,16.31c.88.47,1.64,1.11,1.95,1.87-.31-.76-1.07-1.4-1.95-1.87ZM167.1,13.1c-.13,0-.25,0-.38,0,.02,0,.03,0,.05,0h.33Z" style="fill: #fff;"/>
  <path d="M129.68,126.16c-4.63,0-8.75-.22-12.6-.68-2.43-.29-4.86-.69-7.22-1.07-1.55-.25-3.08-.5-4.62-.72-17.07-2.47-34.73-1.49-51.8-.53l-3.04.17c-2.11.11-5.96,0-7.98-2.08-.95-.98-1.36-2.23-1.23-3.71.4-4.36,5.38-4.76,8.06-4.98.29-.02.57-.05.82-.07,8.31-.82,17.02-1.39,26.62-1.73,17.56-.63,35.35-.24,52.87,1.16,3.62.29,7.25.62,10.88.96,14.26,1.31,29.01,2.66,43.39,1.22.75-.08,1.51-.16,2.26-.24l.18-.02c3.31-.37,6.73-.75,10.18-.52,3.55.23,8.55,1.27,12.2,4.88l.96.95-.93.98c-2.99,3.14-7.45,4.07-10.99,4.52-7.19.92-14.51.62-21.58.33h-.16c-3.24-.14-6.6-.28-9.88-.29-6.17-.05-12.71.38-18.47.74-5.87.37-11.91.75-17.93.75ZM121.37,124.49c3.08.22,6.43.31,9.95.27-3.32.04-6.64-.03-9.95-.27ZM176.01,123.57l.13.7.03-.69c-.05,0-.11,0-.16,0ZM165.32,123.28c-5.84,0-11.76.37-17.49.73l-.31.02c-.09,0-.18.01-.27.02.08,0,.16-.01.24-.01,5.81-.36,12.38-.79,18.6-.75,3.05.01,6.15.13,9.17.25-3.01-.12-6.1-.24-9.17-.25-.25,0-.51,0-.76,0ZM109.13,122.89c.31.05.62.1.93.15,1.86.3,3.74.61,5.63.87-1.88-.26-3.77-.56-5.61-.86l-.23-.04-.73-.12ZM199.54,122.95c-.69.13-1.37.23-2.01.31-2.82.36-5.67.53-8.52.59,2.85-.06,5.7-.23,8.52-.59.65-.08,1.32-.18,2.01-.31ZM81.02,119.36c9.2,0,17.26.52,24.63,1.58,1.48.21,2.96.46,4.43.7l.21.03c2.35.38,4.76.78,7.12,1.06,9.93,1.18,20.15.54,30.03-.08l.31-.02c6.01-.38,12.21-.77,18.35-.73,3.37.02,6.76.16,10.05.29,6.98.29,14.2.58,21.21-.31,2.63-.34,5.87-.95,8.25-2.73-2.93-2.24-6.64-2.94-9.32-3.11-3.2-.21-6.5.16-9.69.51l-.18.02c-.76.08-1.53.17-2.29.25-14.65,1.47-29.53.1-43.92-1.22-3.64-.33-7.24-.67-10.84-.95-17.4-1.39-35.08-1.78-52.55-1.15-9.55.34-18.2.91-26.45,1.72-.26.03-.55.05-.86.07-3.39.27-5.38.77-5.54,2.47-.06.66.09,1.15.46,1.54,1.06,1.1,3.71,1.36,5.84,1.25l3-.17c9.06-.51,18.42-1.03,27.76-1.03ZM100.44,121.68c1.67.18,3.34.39,5.01.63.86.12,1.71.26,2.57.39-.85-.14-1.71-.27-2.57-.39-1.63-.24-3.3-.45-5.01-.63ZM203.24,121.96h0,0ZM207.21,119.63l-.05.05c-1.14,1.03-2.5,1.76-3.91,2.29,1.44-.54,2.81-1.28,3.96-2.34ZM81.02,120.74c-7.87,0-15.77.37-23.49.8,8.83-.48,17.78-.9,26.7-.77-1.06-.01-2.13-.02-3.21-.02ZM44.4,114.99c-1.01.54-1.71,1.36-1.82,2.66-.1,1.08.18,1.93.85,2.62.07.07.15.15.23.21-.08-.07-.15-.14-.23-.21-.66-.68-.94-1.57-.85-2.62.12-1.3.84-2.13,1.82-2.66ZM195.83,114.64c.18,0,.37.02.55.03,3.09.2,7.46,1.06,10.77,3.97l.03.02c-3.29-2.92-7.65-3.79-10.8-4-.18-.01-.37-.02-.55-.03ZM145.32,114.69c12.77,1.14,25.83,2.05,38.67.77.25-.03.51-.05.76-.08-.25.03-.51.05-.76.08-12.84,1.29-25.91.37-38.67-.77ZM50.21,113.85c-.14.01-.3.03-.45.04.16-.01.31-.03.45-.04ZM93.06,111.83c12.16,0,24.35.48,36.4,1.45.63.05,1.26.1,1.89.15-.63-.05-1.26-.1-1.89-.15-16.68-1.33-33.6-1.75-50.33-1.23,4.63-.14,9.27-.21,13.92-.21Z" style="fill: #fff;"/>
  <path d="M140.11,142.44h-2.14c-24.24,0-44.37-.8-63.35-2.52l-.98-.09-.24-.95c-.38-1.55-.11-2.9.79-3.93,2.36-2.69,8.35-2.26,13.78-1.65.83.09,1.41.16,1.79.18l25.8,1.26c9.89.48,20.07.98,29.83-1.06,1.43-.3,2.84-.65,4.26-1,3.26-.81,6.62-1.64,10.07-1.82,6.02-.33,11.19,1.6,14.18,5.27l1.23,1.52-1.84.66c-10.69,3.82-22.74,4.14-33.2,4.14ZM137.96,141.05h.01-.01ZM137.93,141.05h0,0ZM136.93,141.05h.98-.98ZM136.79,141.05h.13-.13ZM136.75,141.05s.02,0,.03,0c0,0-.02,0-.03,0ZM136.72,141.05h.02-.02ZM136.69,141.05h.02-.02ZM136.66,141.05h.01-.01ZM136.62,141.05h.01-.01ZM136.59,141.05h0,0ZM136.56,141.05h0,0ZM172.09,137.26l-.23.08c-5.94,1.99-12.24,2.92-18.35,3.35,6.3-.44,12.59-1.39,18.58-3.43ZM76.03,137.27c18.56,1.64,38.27,2.4,61.95,2.4,9.63.01,21.55.05,32.3-3.28-2.53-2-6.25-3.01-10.4-2.79-3.19.17-6.42.97-9.54,1.74-1.46.36-2.91.72-4.37,1.02-10.11,2.11-20.49,1.6-30.52,1.12l-25.81-1.26c-.44-.02-1.12-.1-1.96-.19-2.68-.3-9.79-1.1-11.4.73-.09.1-.2.26-.25.5ZM75.49,135.61c-.09.08-.17.16-.25.25-.51.58-.71,1.3-.59,2.19v-.06c-.11-.85.09-1.57.59-2.13.08-.09.16-.17.25-.25ZM120.93,136.36c6.88.28,13.86.35,20.72-.63-6.86.98-13.84.91-20.72.63ZM81.43,134.22c1.95,0,4.16.2,6.4.45.4.05.77.09,1.09.12-.29-.03-.61-.07-.97-.11-2.27-.25-5.62-.63-8.39-.39.59-.05,1.22-.07,1.88-.07Z" style="fill: #fff;"/>
  <path d="M140.82,264.61c-13.34,0-26.75-.16-39.72-.32h-.17c-10.49-.13-21.27-.27-31.85-1.25-4.08-.38-8.29-.88-12.01-1.33-13.27-1.58-25.78-3.08-38.56-.81-3.54.63-7.13-1.1-8.94-4.3-.78-1.38-1.77-2.89-2.72-4.34-1.2-1.84-2.43-3.71-3.38-5.51-1.11-2.1-1.72-4.44-1.82-6.94-.04-1-.09-1.95-.14-2.88-.21-3.73-.39-6.84.25-10.24,1.66-8.85,2.42-16.17,2.4-23.03l-.24-76.1c0-1.66-.01-3.54.75-5.3.89-2.05,2.54-3.43,4.3-4.78,4.15-3.18,8.53-6.18,13-8.92l.59-.36,1.44,2.35-.59.36c-4.39,2.69-8.68,5.64-12.76,8.76-1.46,1.12-2.82,2.24-3.44,3.68-.53,1.24-.53,2.81-.52,4.2l.24,76.1c.02,7.04-.75,14.52-2.45,23.54-.57,3.07-.41,6.03-.22,9.45.06.98.11,1.99.15,3.05.08,2.09.59,4.03,1.5,5.77.89,1.69,2.09,3.52,3.24,5.29.98,1.49,1.99,3.03,2.82,4.5,1.24,2.18,3.67,3.37,6.06,2.94,13.19-2.34,25.89-.82,39.35.79,3.95.47,7.97.95,11.96,1.32,10.5.98,21.24,1.11,31.62,1.24,35.96.45,73.14.9,109.63-2.02,1.1-.09,2.15-.11,3.17-.13,2.84-.06,5.26-.11,7.59-1.47,1.53-.9,3.6-1.38,5.59-1.83,1.4-.32,2.71-.62,3.69-1.03,1.96-.81,4.79-3,6.3-4.18,1.55-1.2,2.93-4.21,3.32-6.3,1.87-10.06,1.59-20.75,1.32-31.09-.14-5.14-.28-10.45-.15-15.63.15-6.23.3-11.64.44-16.46.5-18.06.78-28,.15-42.61-.22-5.07-.87-11.6-4.02-17.09-3.71-6.47-10.41-10.87-16.33-14.75l-.58-.38,1.52-2.31.58.38c6.17,4.05,13.17,8.64,17.21,15.68,3.45,6,4.15,12.96,4.39,18.34.63,14.72.35,24.7-.15,42.81-.13,4.82-.28,10.22-.44,16.45-.13,5.09.01,10.37.15,15.48.28,10.49.56,21.33-1.36,31.68-.5,2.68-2.15,6.28-4.35,7.98-2.24,1.74-4.82,3.67-6.94,4.55-1.19.49-2.61.82-4.12,1.17-1.8.41-3.66.84-4.83,1.53-2.95,1.73-5.84,1.79-8.9,1.85-.99.02-2,.04-3.04.12-20.05,1.61-42.29,2.36-69.98,2.36ZM100.51,262.9h.38s.23,0,.23,0c.08,0,.16,0,.23,0-.28,0-.56,0-.84-.01ZM60.54,260.73c2.81.33,5.77.66,8.66.93,3.85.36,7.72.6,11.6.77-3.88-.17-7.75-.42-11.6-.77-2.89-.27-5.8-.59-8.66-.93ZM214.76,260.73c-.31,0-.62.01-.94.02-.1,0-.2,0-.3,0,.1,0,.19,0,.29,0,.32,0,.63-.01.95-.02ZM222.55,258.82s0,0,0,0c0,0,0,0,0,0ZM228.68,257.08c-.46.11-.94.22-1.43.33-1.68.39-3.4.78-4.71,1.41,1.31-.63,3.03-1.03,4.7-1.41.49-.11.97-.22,1.44-.34ZM235.48,253.69c-1.41,1.02-3.02,2.09-4.33,2.63-.23.1-.48.19-.73.27.26-.08.5-.17.73-.27,1.3-.54,2.82-1.53,4.33-2.63ZM237.99,251.78c-.07.06-.14.12-.22.18-.12.1-.26.2-.4.31.13-.1.27-.2.4-.31.07-.06.14-.11.22-.18ZM3.28,242.03c.27,1.44.74,2.81,1.41,4.07.44.84.96,1.71,1.5,2.59-.54-.88-1.06-1.75-1.5-2.59-.67-1.27-1.14-2.63-1.41-4.07ZM243.13,227.09c-.07,5.98-.45,11.94-1.52,17.72-.03.17-.07.35-.11.53.04-.18.08-.36.11-.53,1.07-5.78,1.45-11.74,1.52-17.72ZM2.91,237.47c.03.49.05.96.07,1.44-.02-.49-.05-.97-.07-1.44ZM242.78,206.15v.02-.02ZM242.95,191.91c-.05,1.9-.1,3.89-.15,5.96-.07,2.72-.06,5.49-.02,8.25-.04-2.76-.05-5.53.02-8.25.05-2.08.1-4.06.15-5.96ZM5.93,122.81c-.65,1.5-.64,3.23-.64,4.75l.24,76.1v.06-.06l-.24-76.1c0-1.52-.01-3.25.64-4.75ZM243.74,152.39c.05,7.28-.11,14.44-.36,23.75.25-9.31.41-16.46.36-23.75ZM222.99,106.17c5.9,3.88,12.44,8.3,16.19,14.84,2.17,3.78,3.21,7.99,3.73,11.92-.52-3.93-1.56-8.14-3.73-11.92-3.75-6.54-10.29-10.96-16.19-14.84h0ZM12.83,116.32c-1.02.74-2.04,1.5-3.03,2.26-1.21.92-2.36,1.86-3.18,3,.82-1.14,1.97-2.08,3.17-3,1-.76,2.01-1.52,3.03-2.26Z" style="fill: #fff;"/>
  <path d="M6.63,249.31l-2.39-1.38.34-.6c5.9-10.24,17.62-19.39,21.07-21.96,2.24-1.67,4.62-3.34,6.71-4.83,5.08-3.59,10.31-7.3,14.93-11.51,2.84-2.6,5.55-5.46,8.17-8.23,2.45-2.59,4.97-5.26,7.62-7.74,2.95-2.76,5.88-5.33,8.99-8.05,4.94-4.33,9.99-8.75,15.19-14.03l.48-.49,1.97,1.94-.48.49c-5.28,5.36-10.38,9.83-15.31,14.15-3.09,2.7-6,5.26-8.95,8.01-2.59,2.42-5.08,5.05-7.48,7.6-2.68,2.83-5.42,5.73-8.33,8.39-4.75,4.33-10.05,8.09-15.18,11.72-2.08,1.47-4.43,3.13-6.67,4.8-3.34,2.48-14.69,11.34-20.32,21.12l-.35.6ZM6.13,247.42h0c5.87-9.77,17.01-18.47,20.34-20.94.38-.28.76-.56,1.14-.84-.38.28-.77.56-1.14.84-3.33,2.47-14.47,11.17-20.34,20.94ZM38.36,217.95c-1.73,1.26-3.47,2.49-5.19,3.71-.19.13-.38.27-.57.41.19-.13.37-.26.55-.39,1.73-1.22,3.47-2.46,5.21-3.72ZM50.64,207.75s0,0,0,0c0,0,0,0,0,0ZM61.29,196.73c-1.65,1.65-3.24,3.35-4.81,5-1.9,2.01-3.83,4.05-5.83,6.02,2-1.96,3.92-4,5.8-5.99,1.58-1.68,3.19-3.38,4.84-5.03Z" style="fill: #fff;"/>
  <path d="M190.42,254.14c-6.46,0-12.99-.25-19.41-.75-2-.16-4.01-.33-6.01-.52-4.14-.37-8.42-.76-12.64-.91-6.88-.25-13.83.12-20.55.47l-4.11.21c-28.35,1.38-57.07.68-85.36-2.06-2.23-.22-4.33-.43-6.34-.16-1.11.15-2.2.44-3.36.74-.97.26-1.95.52-2.95.7-4.67.84-9.33-.21-14.26-3.22l-1.05-.64.52-1.12c4.72-10.11,13.94-17.08,20.46-21.45,2.76-1.85,5.62-3.62,8.4-5.33,5.39-3.33,10.94-6.75,15.82-10.82,1.14-.95,2.22-2.09,3.25-3.18,1.56-1.65,3.18-3.36,5.18-4.65,5.75-3.73,9.97-8.64,13.69-12.97,1.35-1.57,2.62-3.05,3.92-4.43,1.08-1.15,2.31-2.88,3.5-4.54,2.43-3.4,3.6-4.97,4.94-5.11.4-.38,1.13-.88,1.97-.3l.23.16.3,1.49-.11.22c-.45.89-1.27,1.71-2.25,1.44-.73.76-1.97,2.5-2.83,3.71-1.25,1.74-2.53,3.55-3.74,4.83-1.26,1.35-2.51,2.8-3.83,4.34-3.85,4.48-8.2,9.54-14.28,13.49-1.72,1.11-3.15,2.63-4.67,4.23-1.09,1.16-2.23,2.35-3.49,3.41-5.03,4.19-10.65,7.67-16.1,11.03-2.77,1.71-5.62,3.47-8.35,5.3-9.42,6.31-15.46,12.43-18.94,19.2,3.97,2.19,7.55,2.9,11.24,2.23.9-.16,1.82-.41,2.71-.65,1.2-.32,2.44-.65,3.73-.82,2.36-.31,4.75-.07,6.87.13,28.21,2.73,56.83,3.43,85.07,2.06l4.1-.21c6.78-.35,13.79-.72,20.79-.47,4.3.16,8.61.54,12.79.92,2,.18,3.99.36,5.98.52,19.33,1.5,38.83.73,57.98-2.31-1.34-2.38-3.97-4.11-6.53-5.78-.83-.54-1.65-1.08-2.44-1.64-6.5-4.63-11.62-10.22-17.04-16.13-6.17-6.73-12.54-13.68-21.44-19.67-5.91-3.98-11.35-9.97-16.61-15.75-4.26-4.68-8.66-9.52-13.12-13.04l-.54-.43,1.71-2.17.54.43c4.64,3.66,9.12,8.58,13.45,13.35,5.15,5.67,10.48,11.53,16.11,15.32,9.17,6.17,15.65,13.25,21.92,20.09,5.34,5.82,10.36,11.3,16.62,15.76.73.52,1.5,1.03,2.28,1.53,3.54,2.32,7.13,4.67,8.36,8.83l.44,1.5-1.54.25c-13.48,2.23-27.26,3.36-40.96,3.36ZM188.83,252.75c2.16.02,4.32,0,6.48-.04-2.16.04-4.32.06-6.48.04ZM42.39,249.2s.05,0,.08,0c26.03,2.52,52.42,3.31,78.55,2.34-26.14.97-52.56.18-78.63-2.34ZM163.41,251.34c.57.05,1.14.1,1.71.15,1.4.13,2.8.25,4.2.37-1.4-.12-2.79-.24-4.19-.37-.57-.05-1.15-.1-1.72-.15ZM134.12,250.93c-.8.04-1.59.08-2.38.12l-2.25.11,2.25-.11c.79-.04,1.59-.08,2.38-.12ZM149.41,250.51c1,.01,1.99.04,2.99.07,1.45.05,2.9.13,4.35.23-1.45-.1-2.9-.18-4.35-.23-1-.04-1.99-.06-2.99-.07ZM33.46,249.53c-.4.1-.81.21-1.2.31-.92.24-1.87.5-2.82.67-.09.01-.17.03-.26.04.09-.01.17-.03.26-.04.95-.17,1.9-.43,2.82-.67.41-.11.81-.21,1.2-.31ZM230.75,249.48l-.41.07c-2.15.35-4.31.67-6.47.96,2.3-.31,4.6-.65,6.88-1.03ZM38.07,248.92c1.42,0,2.86.14,4.27.27-2.13-.21-4.33-.42-6.52-.14-.26.03-.51.08-.77.12.25-.05.51-.09.77-.12.74-.1,1.49-.14,2.25-.14ZM222.09,240.51c.44.3.89.59,1.34.89,3.01,1.97,6.12,4,7.43,7.21l.03.07c-1.29-3.24-4.43-5.29-7.46-7.28-.47-.31-.91-.6-1.34-.89ZM16.68,246.36c-.13.25-.25.49-.37.74l.1-.2c.09-.18.18-.36.27-.54ZM35.19,227.21c-3.32,2.27-7.22,5.18-10.8,8.79,2.94-2.95,6.52-5.86,10.8-8.79ZM166.31,188.57c5.16,5.68,10.5,11.53,16.23,15.39,5.29,3.56,9.68,7.44,13.67,11.41-3.99-3.97-8.38-7.85-13.67-11.41-5.72-3.85-11.06-9.71-16.23-15.39ZM64.53,206.29c-.24.25-.48.5-.71.75-.9.95-1.81,1.92-2.8,2.8.98-.88,1.9-1.85,2.8-2.8.24-.25.48-.51.72-.76ZM73.26,199.22c-1.4,1.19-2.9,2.33-4.52,3.38-.18.11-.35.23-.52.35.17-.12.34-.24.52-.35,1.62-1.05,3.12-2.19,4.52-3.38ZM83.6,188.36c-.29.33-.58.67-.88,1.02-.5.58-1.01,1.18-1.53,1.78.52-.6,1.03-1.19,1.53-1.77.3-.35.59-.69.88-1.03ZM154.01,176.14c4.14,3.46,8.18,7.91,12.1,12.22-3.92-4.32-7.96-8.76-12.1-12.22ZM92.03,177.83c-.57.73-1.19,1.6-1.82,2.48-.31.44-.63.88-.95,1.32.32-.44.63-.88.95-1.32.65-.92,1.27-1.77,1.82-2.48ZM94.19,175.77l.32.29c.09.04.34-.18.56-.53l-.04-.19c-.06.05-.13.12-.22.21l-.23.24-.33-.03s-.05,0-.07,0Z" style="fill: #fff;"/>
  <path d="M238.59,244.28l-.47-.51c-15.64-17-35.55-35.22-54.75-52.37-2.6-2.32-5.29-4.73-8.16-6.73-.95-.66-1.98-1.35-3.05-2.06-4.93-3.28-10.47-6.96-13.31-11.5l-.37-.59,2.34-1.47.37.59c2.53,4.04,7.8,7.55,12.45,10.64,1.11.74,2.17,1.45,3.15,2.13,3.01,2.1,5.76,4.56,8.41,6.93,19.25,17.2,39.22,35.47,54.95,52.56l.47.51-2.03,1.87ZM196.54,201.39c15.03,13.65,29.86,27.65,42.13,40.94h0c-12.27-13.29-27.1-27.29-42.13-40.94ZM175.78,183.39c.08.05.15.11.23.16,2.82,1.97,5.43,4.28,7.96,6.54-2.53-2.26-5.14-4.57-7.96-6.54-.08-.05-.15-.11-.23-.16ZM160.41,170.96c1.2,1.74,2.84,3.37,4.68,4.9-1.84-1.53-3.48-3.15-4.68-4.9h0Z" style="fill: #fff;"/>
  <path d="M19.94,197.69c-.81,0-1.58-.17-2.22-.49-1.49-.73-2.54-2.39-2.74-4.32-.16-1.48.13-2.85.41-4.18l.03-.16c1.81-8.63,2.19-16.01,1.17-22.57-.06-.36-.14-.75-.22-1.15-.46-2.27-1.16-5.67,1.59-7.52,2.71-1.83,7.21-.12,8.99,1.82,1.62,1.76,2.07,4.13,2.32,6.43.92,8.47.14,17.27-2.25,25.45-.46,1.56-1.05,3.33-2.35,4.68-1.13,1.18-2.71,1.91-4.34,2.02-.13,0-.26.01-.39.01ZM22.93,195.34c-.79.56-1.73.89-2.69.96h-.01.01c.96-.06,1.9-.4,2.69-.96ZM22.93,195.34s0,0,0,0c0,0,0,0,0,0ZM23.14,195.18h0,0ZM23.15,195.18s0,0,0,0c0,0,0,0,0,0ZM23.79,194.57s-.08.09-.12.13c-.16.17-.34.33-.53.48.19-.15.36-.31.53-.48.04-.04.08-.09.12-.13ZM18.12,189.09l-.03.16c-.25,1.17-.48,2.28-.37,3.32.08.75.45,1.76,1.22,2.14.32.16.74.23,1.21.19.95-.06,1.87-.49,2.53-1.17.87-.91,1.31-2.25,1.69-3.55,2.29-7.83,3.04-16.26,2.16-24.37-.18-1.7-.48-3.62-1.61-4.86-1.08-1.17-4.1-2.28-5.41-1.4-1.13.77-.89,2.42-.43,4.67.1.48.18.9.24,1.3,1.08,6.9.68,14.6-1.2,23.56h0ZM16.37,192.92c.1.69.33,1.32.67,1.85-.37-.58-.58-1.24-.67-1.85ZM28.14,168.42c.48,7.43-.36,15.04-2.44,22.16-.04.14-.08.28-.13.42.04-.14.08-.28.13-.42,2.08-7.12,2.92-14.73,2.44-22.16ZM18.3,178.66s0,0,0,0c0,0,0,0,0,0ZM18.3,178.64s0,0,0,0c0,0,0,0,0,0ZM18.3,178.61s0,0,0,.01c0,0,0,0,0-.01ZM18.31,178.59s0,.01,0,.02c0,0,0-.01,0-.02ZM17.66,159.68c-.64,1.4-.26,3.26.06,4.83.09.44.17.85.23,1.23.62,3.97.74,8.22.35,12.84.38-4.62.26-8.88-.35-12.84-.06-.37-.14-.78-.23-1.2-.33-1.6-.71-3.46-.07-4.86ZM25.78,159.87c.06.05.11.11.16.16.06.06.12.13.17.2-.06-.07-.11-.13-.17-.2-.05-.05-.1-.11-.16-.16Z" style="fill: #fff;"/>
  <path d="M21.05,212.14h-.01c-2.16,0-4.2-1.36-5.1-3.37-.85-1.91-.58-4.27.69-5.99.12-.16.24-.33.34-.48.13-1.98,1.98-3.38,3.71-3.7,1.15-.21,2.26-.08,3.24.03.45.05.84.1,1.24.12h.17c.67.04,1.58.07,2.38.67,1.16.88,1.46,2.37.88,4.45-.51,1.83-1.05,3.61-2.15,5.17-1.36,1.94-3.38,3.09-5.4,3.09ZM17.8,203.52s-.03.04-.04.06c-1,1.36-1.21,3.17-.56,4.64.67,1.52,2.22,2.54,3.84,2.55v.69s0-.69,0-.69c1.47,0,2.97-.82,4.06-2.22-1.08,1.38-2.61,2.22-4.06,2.22-1.6,0-3.18-1.05-3.84-2.55-.65-1.46-.42-3.3.6-4.7ZM19.87,202.12c.01.92-.55,1.68-.94,2.2-.74,1-.92,2.31-.46,3.34.44,1,1.53,1.72,2.58,1.73,1.11,0,2.31-.73,3.14-1.92.84-1.2,1.31-2.73,1.75-4.32.34-1.23.12-1.51.12-1.51-.11-.08-.56-.1-.83-.11h-.19c-.47-.03-.94-.09-1.41-.14-.87-.1-1.69-.19-2.43-.06-.54.1-1.07.42-1.32.8ZM27.1,204.11c-.35,1.22-.74,2.39-1.34,3.44.59-1.05.99-2.22,1.34-3.44ZM18.29,202.79l-.03.06c-.11.2-.28.43-.43.64.15-.21.33-.45.46-.7ZM26.82,200.48s.04.03.07.05c.76.58.67,1.7.52,2.44.15-.74.25-1.86-.52-2.44-.02-.02-.04-.03-.07-.05ZM18.46,201.87c-.07.2-.11.42-.12.64v.17c.1-.22.16-.43.14-.64l-.02-.17ZM25.28,200.14h0s.03,0,.04,0c-.01,0-.03,0-.04,0ZM23.37,199.96c.13.01.27.03.4.04.17.02.34.04.51.06-.15-.02-.3-.03-.45-.05-.15-.02-.3-.03-.46-.05ZM21.21,199.92c-.09.01-.18.03-.28.04-.09.02-.18.04-.26.06.09-.02.18-.04.27-.06.09-.02.18-.03.27-.04Z" style="fill: #fff;"/>
  <path d="M232.03,218.81c-1.93,0-3.83-1.09-5.08-2.92-1.11-1.61-1.57-3.49-1.91-5.12-1.55-7.35-1.93-15.57-1.2-25.84.45-6.33,1.12-14.65,2.34-22.95.25-1.7.95-4.66,2.83-5.26.55-.17,1.64-.28,2.79.92,1.42,1.47,1.69,5.1,1.89,9.69.05,1.08.09,2,.16,2.54,1.87,14.98,2.48,30.21,1.83,45.27-.02.55-.06,1.39-.53,2.14-.56.9-1.6,1.46-2.85,1.53-.09,0-.18,0-.27,0ZM231.93,217.43s.07,0,.1,0h0,0s-.07,0-.11,0ZM233.91,216.64c-.45.6-1.24.74-1.59.77.7-.06,1.27-.34,1.59-.77ZM233.91,216.64s0,0,0,0c0,0,0,0,0,0ZM227.68,214.44c.12.23.26.45.41.66.4.59.89,1.08,1.43,1.46-.59-.42-1.08-.95-1.43-1.46-.15-.21-.28-.44-.41-.66ZM227.74,210.2c.29,1.37.67,2.93,1.49,4.13.57.83,1.69,1.75,2.93,1.72.34-.02.6-.15.66-.23.09-.14.1-.55.11-.8.64-14.91.03-29.98-1.81-44.81-.08-.64-.12-1.6-.17-2.72-.1-2.16-.32-7.1-1.12-7.93-.03-.03-.05-.05-.07-.07-.17.33-.6,1.28-.83,2.9-1.21,8.2-1.88,16.46-2.32,22.74-.71,10.02-.34,17.99,1.15,25.08h0ZM234.3,215.14c-.01.27-.03.53-.08.77.05-.26.07-.53.08-.77ZM224.86,195.43c.06,5.35.52,10.1,1.41,14.52-.89-4.42-1.36-9.17-1.41-14.52ZM232.34,167.92c.03.73.07,1.37.11,1.84-.05-.48-.08-1.12-.11-1.84ZM231.8,161.26c.29,1.64.41,3.8.51,6.06-.09-1.92-.19-4.25-.51-6.06ZM228.03,160.05c-.2.61-.37,1.32-.49,2.12-.14.98-.28,1.96-.41,2.93.13-.98.27-1.96.41-2.93.05-.31.19-1.22.49-2.12ZM229.69,157.99c.37,0,.73.2,1.12.6.07.07.13.15.19.23-.06-.09-.12-.17-.19-.24-.49-.51-.95-.69-1.38-.56-.01,0-.02,0-.03.01.01,0,.02,0,.03-.01.09-.02.17-.04.26-.04Z" style="fill: #fff;"/>
  <path d="M174.04,221.98c-1.5,0-3.13-.47-4.47-1.28-2.15-1.31-3.66-3.24-5.11-5.12l-.5-.64c-.26-.33-1.13-1.2-2.15-2.22-6.02-6.02-11.88-12.22-11.54-16.05.08-.97.54-1.78,1.33-2.33,2.44-1.72,7.46,1.36,12.38,4.66.54.36.95.64,1.23.81,4.68,2.89,9.22,6.1,13.49,9.55.45.36,1.06.85,1.44,1.62.36.72.41,1.49.43,2.15.05,2.18-.13,5.31-2.27,7.28-1.12,1.03-2.59,1.57-4.25,1.57ZM168.63,218.26c.52.47,1.07.9,1.66,1.26,1.13.68,2.5,1.08,3.75,1.08.86,0,2.08-.19,3.14-1.06-1.92,1.57-4.88,1.2-6.89-.02-.6-.36-1.15-.79-1.66-1.26ZM153.42,196.58c-.18,0-.23.04-.23.04-.1.07-.15.13-.16.3-.25,2.87,7.74,10.85,10.74,13.86,1.22,1.22,2.01,2.01,2.37,2.47l.5.64c1.31,1.68,2.65,3.42,4.37,4.46,1.63.99,4.01,1.32,5.42.03,1.3-1.2,1.42-3.4,1.38-5.18,0-.38-.03-.76-.13-.98s-.38-.44-.71-.7c-4.18-3.38-8.62-6.52-13.2-9.34-.31-.19-.76-.49-1.32-.87-4.69-3.14-7.72-4.73-9.02-4.73ZM179.04,211.95c.11.38.13.79.14,1.21,0,.17,0,.33,0,.51,0-.17,0-.34,0-.51-.01-.42-.03-.83-.14-1.21ZM154.22,202.33c2.39,3.21,5.92,6.76,8.34,9.18-3.23-3.23-6.28-6.44-8.34-9.18ZM174.22,207.63c1.22.92,2.42,1.85,3.6,2.8.35.28.66.54.89.86-.25-.34-.59-.61-.89-.86-1.18-.95-2.38-1.89-3.6-2.8ZM163.89,200.61c.24.16.44.29.6.38,1.22.75,2.43,1.53,3.63,2.32-1.2-.79-2.41-1.57-3.63-2.32-.16-.1-.36-.23-.59-.38ZM157.27,196.52c1.75.91,3.72,2.16,5.51,3.35-1.49-1-3.57-2.36-5.51-3.35ZM151.73,196.36c-.04.14-.07.28-.09.44,0,.08,0,.15,0,.23,0-.08,0-.16,0-.24.01-.16.04-.3.09-.44Z" style="fill: #fff;"/>
  <path d="M188.36,232.09c-.34,0-.69-.05-1.02-.16-1.83-.6-5.63-3.44-6.13-6.11-.21-1.15.17-2.19,1.07-2.92,1.31-1.06,3.28-1.11,5.41-.16,2.16.97,4.4,2.95,4.51,5.21.06,1.26-.56,2.54-1.63,3.35-.67.51-1.44.79-2.23.79ZM184.43,228.36c1.13,1.08,2.49,1.98,3.33,2.25.65.21,1.37.06,1.98-.41.71-.54,1.12-1.38,1.08-2.19-.01-.27-.08-.54-.18-.81.11.27.17.54.18.81.04.81-.38,1.65-1.08,2.19-.61.47-1.33.62-1.98.41-.75-.25-2.16-1.14-3.33-2.25ZM184.83,224.82c-.35,0-.63.08-.81.22-.11.09-.12.11-.1.27.23,1.27,2.99,3.57,4.27,3.98.21.07.46,0,.71-.19.34-.26.56-.67.54-1.02-.04-.74-1.23-2.09-2.88-2.82-.64-.29-1.24-.44-1.73-.44ZM183.07,224.04c-.43.38-.6.85-.52,1.42-.08-.57.1-1.05.52-1.42ZM184.83,223.44c.69,0,1.48.19,2.3.56.43.19.86.43,1.27.71-.41-.28-.84-.52-1.27-.71-1.6-.71-3.02-.74-3.91-.08.42-.31.98-.48,1.61-.48Z" style="fill: #fff;"/>
  <path d="M51.85,99.46c-1.85,0-3.6-.51-5.67-1.65-2.85-1.58-3.11-5.38-2.1-8.46l.33-1,1.05.05c2.7.13,4.95.67,7.11,1.2,2.14.52,4.16,1,6.6,1.12.56.03,1.09.13,1.59.24.77.15,1.43.29,1.8.05.69-.45.91-1.19.97-1.74.13-1.15-.29-2.42-1.07-3.24-1.62-1.68-4.23-2.19-6.57-2.46l-1.1-.12c-2.45-.26-4.98-.53-7.27-1.78-4.21-2.3-6.52-7.87-5.36-12.97,1-4.39,4.34-8.42,8.95-10.79,7.2-3.7,16.36-2.89,22.81,2.01.65.49,1.41,1.2,1.54,2.28.13,1.03-.36,2.03-1.47,2.97-2.97,2.54-6.12,2.07-9.16,1.61-.78-.12-1.57-.24-2.4-.32-2.88-.28-7.54.08-8.43,1.45-.09.14-.38.58.33,1.83.66,1.17,2.23,1.87,3.61,2.49,2.1.94,4.16,1.41,6.15,1.87,2.63.6,5.35,1.22,8.16,2.9,1.67.99,3.41,5.31,3.74,6.17.42,1.09.35,2.16.24,3.26-.39,3.79-1.31,8.45-4.99,10.81-2.24,1.44-4.81,1.58-7.3,1.71-.84.05-1.61.09-2.37.17-1.26.15-2.6.11-3.89.06-1.42-.04-2.83-.09-4.03.11-.64.11-1.24.16-1.83.16ZM55.93,97.77c-.73,0-1.45.03-2.13.12,1.24-.16,2.6-.12,3.91-.08.42.01.83.03,1.24.03-.38,0-.77-.02-1.17-.03-.62-.02-1.24-.04-1.85-.04ZM63.68,97.58c-.18,0-.37.02-.55.03.18-.01.36-.02.55-.03ZM45.26,90.24c-.67,2.44-.44,5.23,1.59,6.36.2.11.4.22.59.31-.19-.1-.39-.2-.59-.31-2.11-1.16-2.19-4.1-1.62-6.27l.02-.09ZM46.44,91.25c-.32,1.68-.11,3.49,1.08,4.14,2.17,1.2,3.71,1.52,5.72,1.19,1.47-.25,3.03-.19,4.54-.15,1.28.04,2.45.07,3.51-.05.83-.1,1.68-.14,2.53-.19,2.23-.12,4.33-.23,5.96-1.28,2.68-1.72,3.4-5.59,3.73-8.76.08-.78.13-1.47-.07-1.98-.84-2.2-2.14-4.51-2.57-4.79-2.44-1.45-4.83-2-7.37-2.58-2.13-.49-4.32-.99-6.67-2.04-1.78-.8-3.78-1.7-4.89-3.66-1.26-2.24-.83-3.79-.24-4.69,2.25-3.46,10.12-2.78,11.01-2.69.88.08,1.73.21,2.54.33,2.87.43,4.95.74,6.96-.98.4-.34.49-.53.52-.58-.02.01-.12-.11-.47-.38-5.61-4.27-13.6-4.97-19.87-1.75-3.89,2-6.7,5.34-7.52,8.95-.89,3.93.82,8.2,3.99,9.93,1.81.99,4.07,1.23,6.25,1.46l1.11.12c2.83.33,6.02.98,8.25,3.29,1.35,1.41,2.05,3.5,1.82,5.47-.19,1.61-.98,2.94-2.22,3.74-1.32.85-2.72.57-3.85.34-.43-.09-.83-.17-1.19-.18-2.7-.13-4.95-.67-7.11-1.2-1.81-.44-3.53-.85-5.49-1.04ZM71.21,95.57c-.22.18-.44.35-.69.5-.07.05-.14.09-.22.13.07-.04.15-.09.22-.13.24-.16.47-.32.69-.5ZM59.96,92.21c.18.03.36.07.54.11.16.03.32.06.48.09-.16-.03-.31-.06-.47-.09-.18-.04-.36-.07-.55-.11ZM63.42,92.11s-.06.04-.09.06c-.02.02-.05.03-.07.05.02-.01.05-.03.07-.05.03-.02.06-.04.09-.06ZM58.51,92.07c.2.01.4.03.61.04.11,0,.21.01.32.03-.11-.01-.21-.02-.32-.03-.21-.01-.41-.02-.61-.04ZM74.93,85.79c-.01.17-.03.34-.05.51-.12,1.17-.29,2.42-.59,3.65.3-1.23.47-2.48.59-3.65.02-.17.03-.34.05-.51ZM56.85,82.3c2.38.33,4.9.98,6.63,2.78,1.06,1.1,1.63,2.81,1.45,4.36-.01.11-.03.22-.05.34.02-.11.04-.22.05-.34.18-1.57-.37-3.24-1.45-4.36-1.73-1.8-4.26-2.45-6.63-2.78ZM72.07,78.63c.99,1.13,2.14,3.73,2.57,4.8-.63-1.58-1.69-3.79-2.57-4.8ZM44.6,76.72h0s0,0,0,0ZM43.91,75.17c.19.54.42,1.06.69,1.55-.27-.49-.5-1.01-.69-1.55ZM62.01,75.03c.61.15,1.2.29,1.8.42.41.09.82.19,1.22.28-.4-.1-.81-.19-1.21-.28-.6-.14-1.2-.27-1.81-.42ZM54.24,71.72c.92.78,2.08,1.3,3.15,1.78.7.31,1.38.57,2.06.8-.68-.23-1.36-.49-2.06-.8-1.07-.48-2.24-1-3.16-1.78ZM54.24,71.72h0s0,0,0,0ZM53.43,70.86s0,0,0,0c0,0,0,0,0,0ZM52.8,67.27c-.49.84-.37,1.88.35,3.15.09.15.18.3.28.43-.1-.14-.2-.28-.28-.43-.71-1.26-.83-2.32-.35-3.15ZM60.39,65c-2.29,0-5.3.29-6.86,1.47,2.46-1.86,8.54-1.41,9.02-1.38-.54-.05-1.3-.09-2.16-.09ZM73.55,63.71c-.14.15-.29.29-.43.41-1.48,1.26-2.99,1.64-4.59,1.65,1.61,0,3.12-.38,4.59-1.65.1-.08.26-.22.43-.41ZM67.54,65.73,63.68,65.22c.47.06.92.13,1.37.2.86.13,1.69.25,2.49.31-.79-.06-1.62-.18-2.47-.31-.45-.07-.92-.14-1.39-.2ZM60.87,56.98c-3.14,0-6.28.71-9.1,2.16-2.56,1.31-4.69,3.18-6.18,5.32,1.49-2.14,3.63-4,6.18-5.32,5.2-2.67,11.48-2.83,16.86-.66-2.46-.99-5.1-1.5-7.75-1.5ZM72.61,60.65c.17.12.34.24.5.37.14.1.27.21.4.33-.12-.11-.26-.22-.4-.33-.17-.13-.33-.25-.5-.37Z" style="fill: #fff;"/>
  <path d="M86.82,99.32c-.09,0-.17,0-.26,0-1.28-.08-2.58-.75-3.4-1.75-1.25-1.54-1.51-3.45-1.61-5.29-.22-4.04.13-8.07.47-11.98.32-3.71.65-7.53.48-11.27-.03-.59-.15-1.3-.28-2.05-.4-2.27-.9-5.1,1.02-7.07,2.3-2.38,7.67-2.8,9.88-2.87,2.68-.09,5.25.45,7.72.98,3.35.71,6.82,1.44,10.02,3.05.89.45,1.9,1.05,2.53,2.08.64,1.04.72,2.24.77,3.12.27,4.4.64,10.43-2.47,15.04-.87,1.28-1.87,2.22-2.99,2.77-1.54.76-3.18.79-4.63.82l-12.74.24c.01,4.23-.51,8.44-1.55,12.55l-.1.38-.28.27c-.67.64-1.58.99-2.56.99ZM86.82,97.94h0c.44,0,.84-.1,1.18-.29-.34.19-.74.29-1.18.29h0ZM86.43,97.91h0,0ZM85.78,97.76c.21.07.43.13.65.15-.22-.03-.44-.08-.65-.15ZM85.78,97.76s0,0,0,0c0,0,0,0,0,0ZM88,97.65h0ZM93.67,59.77c-.16,0-.32,0-.48,0-3.77.13-6.91.92-7.98,2.04-.93.96-.6,2.85-.28,4.67.15.84.29,1.63.32,2.4.19,3.92-.15,7.84-.48,11.63-.33,3.83-.67,7.76-.46,11.6.08,1.38.25,2.78,1,3.7.33.41.9.7,1.42.73.18.01.34,0,.48-.06,1.01-4.15,1.45-8.42,1.32-12.68l-.04-1.4,15.51-.29c1.16-.02,2.48-.05,3.46-.53.68-.34,1.33-.96,1.93-1.84,2.39-3.53,2.31-8.32,2.01-13.32-.04-.65-.09-1.39-.36-1.85-.27-.44-.84-.77-1.42-1.07-2.88-1.45-6.16-2.14-9.34-2.82-2.17-.46-4.41-.93-6.59-.93ZM83.61,77.77c-.07.89-.15,1.77-.22,2.64-.14,1.61-.28,3.25-.38,4.9.1-1.64.24-3.27.38-4.88.08-.88.15-1.77.22-2.66ZM89.91,83.77h0c0,.22.01.45.02.67l-.02-.67ZM109.87,81.38c-.56.65-1.16,1.13-1.8,1.45-1.26.62-2.74.65-4.04.68l-5.72.11,5.71-.11c1.31-.02,2.79-.05,4.05-.68.64-.32,1.24-.8,1.8-1.45ZM109.87,81.38s0,0,0,0c0,0,0,0,0,0ZM112.77,66.52c.17,2.87.26,5.68-.13,8.27.45-2.86.28-5.82.13-8.27ZM84.26,60.81s-.03.03-.04.04c-1.42,1.47-1.03,3.71-.65,5.87.14.79.27,1.55.3,2.23.04.74.05,1.48.05,2.23,0-.74-.02-1.48-.05-2.23-.03-.68-.16-1.43-.3-2.23-.36-2.07-.77-4.41.65-5.87.01-.01.03-.03.04-.04ZM112.27,63.99c.37.68.44,1.52.48,2.23-.05-.73-.11-1.54-.48-2.23ZM100.98,59.44c2.09.44,4.2.91,6.24,1.6-2.04-.69-4.16-1.16-6.24-1.6ZM98.44,58.92c.52.1,1.04.21,1.56.31-.52-.11-1.04-.22-1.56-.31ZM92.65,58.42c-.58.03-1.18.08-1.78.14.69-.08,1.31-.12,1.78-.14Z" style="fill: #fff;"/>
  <path d="M88.81,79.04l.13-1.69c.08-1-.06-2.28-.21-3.64-.26-2.39-.53-4.87.23-6.81,1.42-3.67,5.76-3.27,8.36-3.04l.3.03c2.27.2,5.52.92,8.05,3.2.41.37.86.83,1.14,1.5.37.89.28,1.81.12,2.67-.28,1.48-.67,3.04-1.65,4.37-1.49,2.03-4.2,3.19-7.6,3.27-1.03.02-2.04-.03-3.02-.09-1.45-.08-2.82-.16-4.15.02l-1.68.22ZM101.51,76.78c-1.39.57-2.88.72-3.88.74-.04,0-.08,0-.12,0,.04,0,.08,0,.12,0,1.47-.04,2.78-.29,3.88-.74ZM90.34,76.77c0,.24,0,.47-.02.69h0c.22-.03.43-.05.65-.07l-.62.04v-.67ZM94.4,77.41c.11,0,.21.01.32.02.1,0,.2.01.29.02-.07,0-.14,0-.21-.01-.14,0-.27-.02-.41-.02ZM92.29,75.96c.84,0,1.68.05,2.5.09.99.05,1.92.11,2.8.08,1.47-.04,4.13-.36,5.45-2.15.65-.88.94-2.07,1.15-3.23.06-.3.16-.85.05-1.1-.07-.18-.34-.42-.44-.51-1.96-1.77-4.59-2.34-6.44-2.5l-.3-.03c-3.16-.29-4.97-.17-5.54,1.29-.51,1.31-.28,3.45-.06,5.51.1.9.19,1.75.23,2.56.2,0,.39,0,.59,0ZM92.37,65.42c-.97.32-1.72.92-2.13,1.97-.59,1.51-.41,3.61-.19,5.69-.22-2.09-.39-4.18.19-5.69.41-1.06,1.19-1.66,2.13-1.98ZM105.01,68.38c.21.21.4.46.52.74.25.59.15,1.26.03,1.89-.04.23-.09.45-.14.68.05-.23.1-.46.14-.68.12-.63.21-1.3-.03-1.89-.12-.28-.31-.53-.52-.74ZM97.88,65.3c1.65.19,3.75.67,5.61,1.87-1.86-1.19-3.96-1.68-5.61-1.87Z" style="fill: #fff;"/>
  <path d="M120.49,99.7c-1.15,0-2.12-.75-2.88-2.22-3.3-6.4,2.12-15.56,5.71-21.63.52-.88.99-1.67,1.38-2.37.64-1.15,1.2-2.43,1.75-3.67.71-1.6,1.43-3.24,2.36-4.74.03-.07.2-.58.35-1.03.56-1.66,1.41-4.17,2.33-5.48.76-1.08,2-1.64,3.31-1.52,1.32.13,2.43.93,2.97,2.13l14.35,33.71c.67,1.49.54,3.19-.33,4.42-.58.81-1.37,1.3-2.3,1.41-1.06.13-2.24-.28-3.17-1.07-1.24-1.07-1.87-2.49-2.48-3.86-.56-1.27-1.1-2.47-2.03-3.04-.3-.18-.68-.33-1.19-.45-1.13-.27-2.35-.4-3.75-.35-6.8.16-9.89.43-12.05,5.27-1.35,3.02-2.7,4.45-4.26,4.49h-.07s0,0,0,0ZM120.5,98.32v.69l.03-.69h-.03ZM150.35,96.88c-.29.26-.63.42-1.01.47,0,0,0,0-.01,0h.02c.38-.05.72-.2,1.01-.47ZM134.46,59.77c-.28,0-.54.13-.7.37-.7.99-1.53,3.45-1.97,4.77-.33.99-.46,1.35-.62,1.61-.83,1.34-1.52,2.9-2.18,4.4-.57,1.3-1.16,2.64-1.87,3.9-.39.7-.86,1.49-1.38,2.37-3.12,5.26-8.27,13.97-5.67,19.02.19.38.36.58.46.68.21-.15.85-.73,1.78-2.81,2.82-6.32,7.35-6.75,14.5-6.91,1.64-.05,3.1.1,4.47.43.8.19,1.43.44,1.99.78,1.67,1.02,2.44,2.75,3.11,4.27.51,1.14.99,2.22,1.76,2.89.39.34.8.45,1.03.43.11-.01.23-.06.39-.27.31-.44.33-1.09.05-1.71l-14.35-33.71c-.13-.28-.39-.47-.71-.5h-.09ZM151.04,93.89c.27.92.14,1.89-.36,2.61-.08.12-.17.23-.27.32.1-.09.19-.2.27-.32.51-.71.63-1.68.36-2.61ZM124.99,75.76c-.15.25-.31.52-.47.79-3.42,5.77-8.57,14.47-5.73,20.2-2.84-5.73,2.52-14.78,5.73-20.19.16-.27.32-.54.47-.79ZM122.45,96.74h0ZM122.46,96.73s0,0,0,0c0,0,0,0,0,0ZM122.6,96.51c-.05.08-.1.15-.14.23.05-.07.1-.15.14-.23ZM122.6,96.5s0,0,0,0c0,0,0,0,0,0ZM142.6,89.59c1.15.73,1.78,1.98,2.35,3.24-.59-1.31-1.19-2.51-2.35-3.24ZM137.36,88.54c-.17,0-.34,0-.51,0-5.07.12-8.45.33-10.88,2.55,2.42-2.22,5.8-2.44,10.87-2.55.27,0,.53,0,.79,0-.09,0-.18,0-.28,0ZM141.13,88.98c.5.13.9.29,1.26.48-.35-.2-.76-.35-1.26-.48ZM127.98,69.78c-.08.19-.17.38-.25.57-.44,1-.89,2.01-1.38,2.97.49-.96.94-1.97,1.37-2.96.09-.19.17-.39.26-.59ZM130.02,65.75c-.16.26-.31.52-.46.78.14-.25.28-.5.43-.74,0-.01.01-.03.02-.04ZM130.61,64.07c-.05.14-.09.28-.14.41-.12.34-.2.59-.26.78.08-.22.17-.48.26-.78.04-.13.09-.27.14-.41ZM136.53,59.73l2.07,4.86-2.07-4.85s0,0,0,0ZM132.66,59.31s-.02.03-.03.04c-.69.98-1.37,2.84-1.89,4.35.5-1.47,1.2-3.38,1.89-4.35,0-.01.02-.03.03-.04ZM136.38,59.45s0,0,0,0c0,0,0,0,0,0ZM134.8,58.42c.66.1,1.23.47,1.58,1.03-.35-.56-.92-.93-1.58-1.03Z" style="fill: #fff;"/>
  <path d="M138.22,84.13c-.08,0-8.01-.62-9.28-3.65-1.12-2.67.91-6.57,2.4-9.41.32-.62.58-1.1.76-1.5l1.01-2.18,1.37,1.97c2.73,3.92,4.46,8.5,5.01,13.24l.14,1.19-1.41.33ZM138.22,83.35v.08-.08s0,0,0,0ZM130.31,80.14c.75,1.17,3.71,1.97,5.84,2.35-1.74-.33-5.04-1.11-5.84-2.35ZM133.95,71.05l.07.11c2.04,3.23,3.42,6.94,3.99,10.73v.05c-.56-3.87-1.95-7.6-4.06-10.89ZM133.48,72.94c-1.04,2.02-2.55,5.13-1.99,6.48.25.49,2.58,1.28,4.99,1.73-.54-2.87-1.56-5.67-3-8.21ZM133.35,70.15h0c-.1.21-.22.45-.35.7l.36-.69s0,0-.01-.01h0Z" style="fill: #fff;"/>
  <path d="M198.62,100.25c-.61,0-1.17-.15-1.69-.45-1.9-1.11-2.18-3.75-2.21-4.83-.06-2.08.09-4.2.23-6.26.28-4.19.55-8.15-.71-11.62-1.23,1.85-1.77,4.25-2.34,6.78-.29,1.3-.59,2.61-.98,3.87-1.26,4-3.59,7.49-5.92,10.66-.3.41-.81,1.1-1.66,1.4-.83.3-1.63.11-2.16-.06-4.05-1.3-6.02-5.38-7.55-9.1l-5.33-15.97c-.58,5.3.06,13.44.36,16.79.16,1.78-.71,5.11-2.76,6.72-1.18.92-2.61,1.15-4.03.66-3.07-1.07-3.2-5.66-3.28-8.7-.02-.62-.03-1.08-.06-1.44-.7-7.83-.85-15.78-.45-23.62.15-2.86.71-6.85,3.95-8.4,2.02-.97,4.65-.59,6.72.96,1.72,1.29,2.84,3.11,3.79,4.89,2.76,5.15,4.67,10.72,6.52,16.1.48,1.41.97,2.82,1.47,4.22.45,1.27.93,1.85,1.22,1.81.3,0,.77-.53,1.18-1.68.64-1.79,1.24-3.67,1.81-5.5,2.13-6.78,4.33-13.77,9.74-18.58,1.82-1.61,3.65-2.07,5.16-1.29.11.06.29.13.48.2,1.21.48,2.07.87,2.5,1.63,2.94,5.26,2.48,11.37,2.04,17.28-.11,1.53-.23,3.1-.28,4.6-.08,2.3,0,4.56.07,6.76.06,1.8.12,3.66.1,5.55-.02,2.52-1.39,4.81-3.56,5.96-.84.45-1.64.67-2.37.67ZM196.11,93.13c-.01.6-.01,1.21,0,1.8.02.66.18,2.89,1.52,3.68.62.36,1.37.35,2.27-.04-.9.38-1.66.39-2.27.04-1.34-.78-1.5-3.01-1.52-3.68-.02-.59-.01-1.2,0-1.8ZM182.97,98.46s-.06.02-.09.03c-.03.01-.06.02-.08.03.03,0,.06-.02.08-.03.03-.01.06-.02.09-.04ZM183.81,97.7c-.1.13-.2.26-.31.37.12-.12.22-.25.31-.37ZM194.97,72.42l.84,1.48c2.6,4.6,2.24,9.87,1.9,14.97-.13,2-.27,4.06-.22,6.02.03,1.18.39,2.26.84,2.52.26.15.75.06,1.37-.27,1.28-.68,2.08-2.04,2.1-3.55.02-1.83-.04-3.66-.1-5.43-.08-2.24-.15-4.55-.07-6.94.05-1.55.17-3.16.29-4.7.41-5.46.83-11.1-1.64-15.62-.11-.07-.4-.21-1.12-.5-.31-.13-.59-.24-.78-.33-.46-.23-1.37.28-2.06.9-4.84,4.3-6.92,10.93-8.93,17.33-.58,1.85-1.18,3.77-1.85,5.61-.82,2.28-2.06,3.46-3.67,3.51-1.81.02-3.05-1.2-3.92-3.65-.5-1.41-.99-2.83-1.48-4.25-1.81-5.28-3.69-10.74-6.34-15.7-.8-1.49-1.72-3.01-3.01-3.98-1.25-.94-2.77-1.21-3.87-.68-1.91.92-2.28,3.89-2.39,6.05-.39,7.71-.24,15.53.44,23.23.04.42.05.98.07,1.62.05,1.71.15,5.72,1.42,6.16.54.19.98.12,1.42-.23,1.12-.88,1.81-3.21,1.71-4.3-.41-4.42-.99-12.64-.28-17.98.16-1.21,1.08-2.13,2.28-2.29,1.19-.16,2.3.49,2.76,1.6l5.55,16.63c1.27,3.08,2.89,6.5,5.81,7.43.3.1.4.09.41.08.05-.04.26-.32.34-.43,2.19-2.98,4.37-6.24,5.51-9.85.36-1.15.64-2.4.92-3.62.8-3.56,1.62-7.22,4.49-9.75l1.28-1.13ZM166.94,74.54c-.56,5.21-.02,12.84.37,17.04.13,1.43-.68,4.29-2.24,5.51-.02.01-.04.03-.05.04.02-.01.04-.03.05-.04,1.59-1.24,2.37-4.05,2.24-5.51-.31-3.38-.95-11.61-.37-17.04ZM203.01,85.97c.02.72.04,1.44.07,2.14.06,1.78.12,3.63.1,5.49,0,.71-.15,1.39-.4,2.02.25-.63.39-1.32.4-2.02.02-1.86-.04-3.71-.1-5.49-.02-.71-.05-1.42-.07-2.14ZM190.35,84.51c-.22.96-.45,1.91-.74,2.81-.88,2.79-2.32,5.35-3.93,7.73,1.6-2.38,3.05-4.94,3.93-7.73.29-.91.52-1.86.74-2.81ZM196.42,87.45c-.03.44-.06.89-.09,1.33-.03.39-.05.79-.08,1.18.03-.4.05-.79.08-1.18.03-.44.06-.89.09-1.33ZM159.7,85.91c.06.89.14,1.78.22,2.66.02.24.04.53.05.85-.01-.32-.02-.61-.05-.85-.08-.89-.15-1.77-.22-2.66ZM187.04,74.81c-.33,1.02-.66,2.05-.98,3.07-.58,1.85-1.18,3.75-1.83,5.56-.61,1.7-1.42,2.57-2.41,2.6h0,.02c.99-.03,1.8-.9,2.41-2.6.65-1.82,1.25-3.72,1.83-5.56.32-1.02.64-2.05.98-3.07ZM177.79,79.13c.48,1.39.96,2.79,1.45,4.17.04.12.08.23.13.33-.04-.11-.08-.22-.13-.33-.49-1.39-.97-2.78-1.45-4.17ZM201.36,60.03c2.78,4.98,2.35,10.88,1.92,16.58-.04.57-.08,1.15-.12,1.72.04-.58.08-1.15.12-1.72.42-5.71.86-11.61-1.87-16.51-.01-.03-.03-.05-.05-.08ZM159.26,74.07h0s0,0,0,0ZM164.47,57.52c-.65,0-1.27.13-1.83.4-2.57,1.24-3.04,4.72-3.17,7.23-.15,2.96-.22,5.94-.21,8.92,0-2.98.06-5.96.21-8.92.13-2.51.59-5.99,3.17-7.23,1.56-.74,3.64-.42,5.29.82,1.51,1.13,2.53,2.8,3.4,4.43.85,1.59,1.63,3.23,2.34,4.9-.72-1.66-1.49-3.3-2.34-4.9-.88-1.63-1.89-3.3-3.4-4.43-1.07-.8-2.3-1.22-3.47-1.22ZM168.12,72.81h-.02c-.17.02-.32.08-.46.15.15-.08.31-.13.46-.15,0,0,.01,0,.02,0ZM197.15,58.81c-.7.26-1.33.74-1.75,1.12-1.14,1.01-2.13,2.14-3.01,3.35.88-1.21,1.87-2.33,3.01-3.35.42-.37,1.05-.85,1.75-1.12ZM199.66,59.11s0,0,0,0c.29.11.53.22.73.3-.22-.1-.47-.2-.73-.31,0,0,0,0,0,0ZM197.15,58.81s0,0,0,0t0,0Z" style="fill: #fff;"/>
</svg>