<?xml version="1.0" encoding="UTF-8"?>
<svg id="Layer_16" xmlns="http://www.w3.org/2000/svg" viewBox="0 0 106.63 115.1">
  <path d="M41.48,77.59l-.56-.41c-8.88-6.6-18.52-12.19-28.65-16.63-.85-.37-1.91-.84-2.51-1.79-.56-.89-.57-1.93-.57-2.77-.06-8.19,0-16.48.19-24.64.01-.64-.05-1.43-.12-2.26-.2-2.49-.43-5.31,1.02-7.05.14-.16.3-.32.48-.47l-.15-.14.2-.23c1.69-1.91,3.57-3.72,5.4-5.48,1.01-.97,2.05-1.97,3.04-2.98L29.09,2.78c.75-.76,1.59-1.61,2.67-2.13C33.19-.03,34.79-.01,36.19,0l54.88.65c1.7.02,3.61.15,4.8,1.48.91,1.01,1.09,2.37,1.21,3.68.72,8.14.46,16.45.21,24.48-.28,9.05-.57,18.39.54,27.49l.05.39-32.14,18.86-.29-.58c-.82-1.66-1.66-3.38-2.91-4.75-2.67-2.91-7.26-4.02-11.43-2.76-3.74,1.13-7.13,4.06-9.3,8.03l-.33.61ZM34.63,72.03c2.26,1.49,4.48,3.05,6.65,4.66h0c.18-.33.37-.65.56-.96-.14.22-.27.44-.4.66l-.17.3-.27-.2c-2.09-1.54-4.21-3.03-6.38-4.46ZM65.64,75.46c.12.24.24.49.36.73h0s31.24-18.33,31.24-18.33h0c-.29-2.36-.48-4.74-.61-7.13.12,2.32.31,4.63.58,6.93l.02.2-.17.1-31.07,18.23-.14-.29c-.07-.15-.15-.29-.22-.44ZM17.94,20.75c-2.1,0-5.61.71-6.73,2.06-1.14,1.36-.93,3.92-.75,6.18.07.87.14,1.69.12,2.39-.18,8.14-.25,16.42-.19,24.61,0,.69.01,1.55.38,2.14.4.64,1.24,1,1.97,1.33,10.01,4.38,19.54,9.88,28.34,16.36,2.33-3.94,5.84-6.85,9.67-8.01,4.61-1.39,9.7-.15,12.67,3.1,1.19,1.29,1.99,2.78,2.82,4.44l30.34-17.8c-1.06-9.06-.77-18.32-.5-27.27.25-8,.5-16.27-.21-24.35-.1-1.11-.25-2.25-.9-2.98-.87-.97-2.41-1.06-3.92-1.08l-54.88-.65c-1.14-.02-2.41-.03-3.51.37.42,4.54.45,10.29.07,14.4-.12,1.35-.31,2.77-1.09,3.95-1.51,2.31-4.62,2.79-7.03,2.47-1.12-.15-2.11-.5-3.07-.84-1.14-.4-2.21-.78-3.44-.81h-.18ZM60.88,69.57c.78.48,1.49,1.07,2.11,1.74.81.88,1.44,1.89,2.01,2.93-.58-1.07-1.21-2.05-2.01-2.93-.61-.67-1.33-1.25-2.11-1.74ZM34.61,72.02s0,0,0,0c0,0,0,0,0,0ZM28.08,67.95s0,0,0,0c0,0,0,0,0,0ZM28.05,67.93s0,0,0,0c0,0,0,0,0,0ZM28.02,67.91s0,0,.01,0c0,0,0,0-.01,0ZM27.99,67.9s.01,0,.02.01c0,0-.01,0-.02-.01ZM27.96,67.88s.01,0,.02.01c0,0-.02,0-.02-.01ZM15.92,61.55c4.11,1.92,8.13,4.04,12.04,6.33-3.91-2.29-7.93-4.41-12.04-6.33ZM15.91,61.54s0,0,.01,0c0,0,0,0-.01,0ZM9.97,30.62c.01.26.02.51.01.75-.18,8.16-.25,16.44-.19,24.62,0,.12,0,.25,0,.38,0-.13,0-.26,0-.38-.06-8.19,0-16.48.19-24.62,0-.23,0-.48-.01-.75ZM96.63,50.71s0,0,0,0c0,0,0,0,0,0ZM10.93,22.23c-.06.06-.12.13-.18.19-1.14,1.36-1.11,3.6-.95,5.73-.15-2.14-.18-4.37.95-5.73.06-.07.11-.13.18-.19ZM24.8,21.82c2.21.27,5.01-.17,6.35-2.22.7-1.07.87-2.4.99-3.68.02-.24.04-.48.06-.74-.02.25-.04.49-.06.73-.12,1.27-.29,2.61-.99,3.68-1.34,2.05-4.14,2.49-6.35,2.22ZM11.72,21.6h.01s-.26.19-.26.19c.21-.14.45-.28.7-.4l-.45.21ZM17.97,19.55h.17c1.42.03,2.64.46,3.81.88.9.32,1.83.65,2.83.78,2.04.27,4.66-.09,5.86-1.94.62-.95.78-2.2.89-3.4.35-3.86.34-9.28-.03-13.66-.56.41-1.06.92-1.55,1.42l-9.84,9.96c-1.01,1.02-2.05,2.03-3.06,3-1.25,1.2-2.53,2.44-3.75,3.7,1.6-.51,3.43-.75,4.67-.75ZM13.28,19.44c-.47.48-.94.97-1.39,1.46l.05-.05c.44-.47.89-.94,1.34-1.41ZM18,20.15h.13c.07,0,.14,0,.21,0-.07,0-.14,0-.21,0h-.13ZM13.29,19.43h0s0,0,0,0ZM17.26,15.55c-.21.2-.42.4-.63.6-.11.1-.22.21-.32.31.11-.1.22-.21.32-.31.21-.2.42-.4.63-.6ZM29.86,2.87c-.11.11-.22.22-.33.33l-9.84,9.96c-.51.51-1.03,1.03-1.55,1.53.52-.51,1.04-1.02,1.55-1.53L29.52,3.2c.11-.11.22-.22.33-.34ZM95.33,2.44s.07.07.1.11c.71.79.91,1.89,1.03,2.99-.11-1.1-.32-2.2-1.03-2.99-.03-.04-.07-.07-.1-.11ZM32.05,1.52v.13c.03.2.05.4.06.6-.02-.25-.04-.49-.06-.73ZM36.13.61s.04,0,.06,0l54.88.65h.13s-.09,0-.13,0l-54.88-.65s-.04,0-.06,0ZM32.36,1.05,32.37,1.05s0,0,0,0c0,0,0,0,0,0ZM32.37,1.05s0,0,0,0h0ZM32.38,1.04s0,0,0,0c0,0,0,0,0,0ZM32.44,1.02s-.04.02-.06.02c.02,0,.04-.02.06-.02ZM32.45,1.02s0,0,0,0c0,0,0,0,0,0ZM32.46,1.02s0,0,0,0c0,0,0,0,0,0ZM32.46,1.01s0,0,0,0c0,0,0,0,0,0ZM32.47,1.01s0,0,0,0c0,0,0,0,0,0ZM32.47,1.01h0s0,0,0,0Z" style="fill: #fff;"/>
  <path d="M40.65,9.43c-1.2,0-2.79-.18-3.6-1.06-.37-.4-.53-.89-.48-1.45.17-1.78,2.52-1.88,3.92-1.94.25-.01.48-.02.66-.04,3.89-.39,7.82-.31,11.68.22l.7.1c1.3.19,2.65.38,3.94.26.71-.07,1.45-.24,2.17-.4,1.61-.36,3.26-.73,4.89-.15.57.2,1.33.61,1.74,1.41.43.84.25,1.88-.42,2.42-.52.42-1.17.46-1.79.47l-23.43.16ZM37.35,6.48c-.09.14-.15.3-.17.49-.04.39.07.71.32.99.69.75,2.27.87,3.15.87h.07s23.36-.16,23.36-.16c.39,0,.74-.02,1.04-.13-.31.11-.66.12-1.04.13l-23.35.16c-.92,0-2.53-.11-3.22-.87-.25-.27-.36-.6-.32-.99.02-.19.08-.35.17-.49ZM46.09,5.91c-1.6,0-3.22.08-4.81.24-.2.02-.45.03-.73.04-.94.04-2.7.11-2.77.84-.02.22.03.38.16.52.39.42,1.45.68,2.77.67l23.35-.16c.44,0,.82-.02,1.04-.2.26-.21.25-.65.11-.93-.18-.34-.56-.64-1.07-.82-1.3-.46-2.72-.14-4.22.19-.76.17-1.54.35-2.32.42-1.44.14-2.86-.07-4.23-.27l-.69-.1c-2.17-.3-4.39-.45-6.59-.45ZM65.77,6.68c.13.26.18.59.14.9.05-.29,0-.61-.14-.9ZM64.5,5.6c.57.23,1,.59,1.24,1.01-.29-.53-.8-.84-1.24-1.01ZM60.63,5.53c-.28.06-.56.12-.83.18-.3.07-.61.14-.92.2.31-.06.62-.13.92-.2.28-.06.56-.13.83-.18ZM53.41,5.85h.05c.07.02.14.03.21.04-.07-.01-.14-.02-.21-.03h-.05ZM40.83,5.57c-.09,0-.2,0-.3.01-.32.01-.68.03-1.04.06.36-.03.72-.05,1.04-.06.1,0,.2,0,.3-.01ZM46.78,5.31c1.67.02,3.34.13,4.99.33-1.65-.19-3.32-.3-4.99-.33ZM45.27,5.31c-1.15.02-2.31.08-3.46.18,1.15-.1,2.31-.16,3.46-.18Z" style="fill: #fff;"/>
  <path d="M77.1,9.28c-1.42,0-3.56-.04-5.68-.35-.67-.1-1.44-.25-2.03-.78-.83-.74-1.12-1.44-.87-2.1.56-1.49,3.71-1.54,3.85-1.54,2.22-.03,4.53.39,6.84,1.22,1,.36,2.05,1.17,1.74,2.29-.15.55-.67,1.22-2.28,1.24-.51,0-1.03.01-1.57.01ZM78.75,8.66c-.08,0-.16,0-.24,0,.08,0,.15,0,.24,0ZM72.54,5.72h-.17c-1.22.01-2.59.39-2.73.76-.03.08.05.34.55.78.34.31.88.41,1.4.48,2.44.36,4.92.35,7.06.32.64,0,1.07-.15,1.13-.36.07-.27-.46-.64-.99-.83-2.12-.76-4.23-1.15-6.25-1.15ZM69.03,6.53c.01.34.26.74.75,1.17.03.02.06.05.08.07-.03-.02-.06-.05-.08-.07-.49-.43-.74-.83-.75-1.17ZM79.48,6.52c.38.21.72.49.85.82-.13-.33-.47-.61-.85-.82ZM72.51,5.11c-.06,0-.11,0-.17,0,0,0,.01,0,.02,0h.15Z" style="fill: #fff;"/>
  <path d="M56.14,54.55c-2.03,0-3.83-.1-5.51-.3-1.06-.13-2.13-.3-3.16-.47-.68-.11-1.35-.22-2.02-.32-7.47-1.08-15.19-.65-22.65-.23l-1.33.07c-.92.05-2.61,0-3.49-.91-.41-.43-.6-.98-.54-1.62.17-1.91,2.35-2.08,3.52-2.18.13-.01.25-.02.36-.03,3.63-.36,7.44-.61,11.64-.76,7.68-.28,15.46-.11,23.12.51,1.58.13,3.17.27,4.76.42,6.24.57,12.69,1.16,18.98.53.33-.03.66-.07.99-.11h.08c1.45-.17,2.94-.33,4.45-.24,1.55.1,3.74.56,5.33,2.13l.42.42-.41.43c-1.31,1.38-3.26,1.78-4.81,1.98-3.14.4-6.34.27-9.44.15h-.07c-1.42-.06-2.89-.12-4.32-.13-2.7-.02-5.56.17-8.08.32-2.57.16-5.21.33-7.84.33ZM52.51,53.83c1.35.1,2.81.14,4.35.12-1.45.02-2.9-.01-4.35-.12ZM76.4,53.43l.06.3v-.3s-.03,0-.06,0ZM71.73,53.3c-2.55,0-5.14.16-7.65.32h-.13s-.08.01-.12.02c.03,0,.07,0,.1,0,2.54-.16,5.41-.35,8.13-.33,1.33,0,2.69.06,4.01.11-1.32-.05-2.67-.1-4.01-.11-.11,0-.22,0-.33,0ZM47.15,53.12c.14.02.27.04.41.07.81.13,1.64.27,2.46.38-.82-.11-1.65-.25-2.45-.38l-.1-.02-.32-.05ZM86.69,53.15c-.3.06-.6.1-.88.13-1.23.16-2.48.23-3.72.26,1.25-.02,2.49-.1,3.72-.26.28-.04.58-.08.88-.13ZM34.86,51.58c4.02,0,7.55.23,10.77.69.65.09,1.29.2,1.94.3h.09c1.03.18,2.08.35,3.12.48,4.34.52,8.81.24,13.13-.03h.13c2.63-.17,5.34-.34,8.02-.33,1.47,0,2.96.07,4.39.13,3.05.13,6.21.26,9.28-.14,1.15-.15,2.57-.42,3.61-1.19-1.28-.98-2.9-1.28-4.07-1.36-1.4-.09-2.84.07-4.24.22h-.08c-.33.05-.67.08-1,.12-6.41.64-12.91.05-19.21-.53-1.59-.15-3.17-.29-4.74-.42-7.61-.61-15.34-.78-22.98-.5-4.18.15-7.96.4-11.57.75-.12.01-.24.02-.38.03-1.48.12-2.35.33-2.42,1.08-.03.29.04.5.2.67.46.48,1.62.59,2.55.54l1.31-.07c3.96-.22,8.06-.45,12.14-.45ZM43.35,52.6c.73.08,1.46.17,2.19.27.37.05.75.11,1.12.17-.37-.06-.75-.12-1.12-.17-.71-.1-1.44-.2-2.19-.27ZM88.31,52.72h0,0ZM90.04,51.7l-.02.02c-.5.45-1.09.77-1.71,1,.63-.24,1.23-.56,1.73-1.02ZM34.86,52.19c-3.44,0-6.9.16-10.27.35,3.86-.21,7.77-.39,11.68-.34-.46,0-.93,0-1.41,0ZM18.85,49.67c-.44.24-.75.6-.8,1.16-.04.47.08.85.37,1.15.03.03.06.06.1.09-.03-.03-.07-.06-.1-.09-.29-.3-.41-.68-.37-1.15.05-.57.37-.93.8-1.16ZM85.07,49.52c.08,0,.16,0,.24.01,1.35.09,3.26.46,4.71,1.74h.01c-1.44-1.27-3.34-1.65-4.72-1.74-.08,0-.16,0-.24-.01ZM62.98,49.54c5.59.5,11.3.9,16.91.33.11-.01.22-.02.33-.03-.11.01-.22.02-.33.03-5.61.56-11.33.16-16.91-.33ZM21.39,49.17c-.06,0-.13.01-.2.02.07,0,.14-.01.2-.02ZM40.13,48.29c5.32,0,10.65.21,15.92.63.28.02.55.04.83.07-.28-.02-.55-.05-.83-.07-7.29-.58-14.69-.76-22.01-.54,2.02-.06,4.06-.09,6.09-.09Z" style="fill: #fff;"/>
  <path d="M60.7,61.67h-.93c-10.6,0-19.4-.35-27.7-1.1l-.43-.04-.1-.42c-.17-.68-.05-1.27.35-1.72,1.03-1.18,3.65-.99,6.03-.72.36.04.62.07.78.08l11.28.55c4.33.21,8.78.43,13.04-.46.62-.13,1.24-.28,1.86-.44,1.43-.35,2.89-.72,4.4-.8,2.63-.14,4.89.7,6.2,2.31l.54.66-.8.29c-4.67,1.67-9.94,1.81-14.52,1.81ZM59.76,61.07h0,0ZM59.75,61.07h0,0ZM59.31,61.07h.43-.43ZM59.25,61.07h.06-.06ZM59.24,61.07s0,0,.01,0c0,0,0,0-.01,0ZM59.22,61.07h.01-.01ZM59.21,61.07h0,0ZM59.19,61.07h0,0ZM59.18,61.07h0,0ZM59.16,61.07h0,0ZM59.15,61.07h0,0ZM74.69,59.41l-.1.03c-2.6.87-5.35,1.28-8.03,1.47,2.75-.19,5.51-.61,8.13-1.5ZM32.68,59.42c8.12.72,16.74,1.05,27.09,1.05,4.21,0,9.42.02,14.13-1.43-1.11-.88-2.73-1.32-4.55-1.22-1.4.07-2.81.42-4.17.76-.64.16-1.27.31-1.91.45-4.42.92-8.96.7-13.35.49l-11.29-.55c-.19,0-.49-.04-.86-.08-1.17-.13-4.28-.48-4.98.32-.04.05-.09.11-.11.22ZM32.44,58.69s-.08.07-.11.11c-.22.25-.31.57-.26.96v-.03c-.05-.37.04-.68.26-.93.03-.04.07-.08.11-.11ZM52.32,59.02c3.01.12,6.06.15,9.06-.28-3,.43-6.05.4-9.06.28ZM35.04,58.08c.85,0,1.82.09,2.8.2.18.02.34.04.48.05-.13-.01-.27-.03-.42-.05-.99-.11-2.46-.28-3.67-.17.26-.02.53-.03.82-.03Z" style="fill: #fff;"/>
  <path d="M61.01,115.1c-5.84,0-11.7-.07-17.37-.14h-.07c-4.59-.06-9.3-.12-13.93-.55-1.78-.17-3.63-.39-5.25-.58-5.8-.69-11.27-1.35-16.86-.36-1.55.28-3.12-.48-3.91-1.88-.34-.61-.77-1.26-1.19-1.9-.53-.8-1.06-1.62-1.48-2.41-.48-.92-.75-1.94-.8-3.04-.02-.44-.04-.85-.06-1.26-.09-1.63-.17-2.99.11-4.48.73-3.87,1.06-7.07,1.05-10.07l-.1-33.28c0-.72,0-1.55.33-2.32.39-.9,1.11-1.5,1.88-2.09,1.82-1.39,3.73-2.7,5.68-3.9l.26-.16.63,1.03-.26.16c-1.92,1.18-3.8,2.47-5.58,3.83-.64.49-1.23.98-1.5,1.61-.23.54-.23,1.23-.23,1.84l.1,33.28c0,3.08-.33,6.35-1.07,10.3-.25,1.34-.18,2.64-.09,4.13.02.43.05.87.07,1.33.04.91.26,1.76.66,2.52.39.74.91,1.54,1.42,2.31.43.65.87,1.33,1.23,1.97.54.96,1.61,1.47,2.65,1.29,5.77-1.02,11.32-.36,17.21.34,1.73.21,3.49.42,5.23.58,4.59.43,9.29.48,13.83.54,15.72.19,31.99.4,47.94-.88.48-.04.94-.05,1.39-.06,1.24-.03,2.3-.05,3.32-.64.67-.39,1.57-.6,2.44-.8.61-.14,1.18-.27,1.62-.45.86-.36,2.09-1.31,2.76-1.83.68-.53,1.28-1.84,1.45-2.75.82-4.4.69-9.08.58-13.6-.06-2.25-.12-4.57-.06-6.83.07-2.72.13-5.09.19-7.2.22-7.9.34-12.24.07-18.63-.1-2.22-.38-5.07-1.76-7.47-1.62-2.83-4.55-4.75-7.14-6.45l-.25-.17.66-1.01.25.17c2.7,1.77,5.76,3.78,7.52,6.86,1.51,2.63,1.82,5.67,1.92,8.02.28,6.44.16,10.8-.07,18.72-.06,2.11-.12,4.47-.19,7.19-.06,2.23,0,4.54.06,6.77.12,4.59.25,9.33-.59,13.85-.22,1.17-.94,2.74-1.9,3.49-.98.76-2.11,1.6-3.03,1.99-.52.22-1.14.36-1.8.51-.79.18-1.6.37-2.11.67-1.29.76-2.55.78-3.89.81-.43,0-.88.02-1.33.05-8.77.7-18.49,1.03-30.61,1.03ZM43.38,114.36h.16s.1,0,.1,0c.03,0,.07,0,.1,0-.12,0-.24,0-.37,0ZM25.9,113.41c1.23.14,2.53.29,3.79.41,1.68.16,3.38.26,5.07.34-1.7-.08-3.39-.18-5.07-.34-1.27-.12-2.54-.26-3.79-.41ZM93.35,113.41c-.14,0-.27,0-.41,0-.04,0-.09,0-.13,0,.04,0,.08,0,.13,0,.14,0,.28,0,.41,0ZM96.75,112.57s0,0,0,0c0,0,0,0,0,0ZM99.44,111.81c-.2.05-.41.1-.62.15-.74.17-1.49.34-2.06.62.57-.28,1.32-.45,2.05-.62.21-.05.43-.1.63-.15ZM102.41,110.33c-.62.45-1.32.91-1.89,1.15-.1.04-.21.08-.32.12.11-.04.22-.08.32-.12.57-.24,1.23-.67,1.89-1.15ZM103.51,109.49s-.06.05-.09.08c-.05.04-.11.09-.17.13.06-.04.12-.09.17-.13.03-.02.06-.05.09-.08ZM.86,105.23c.12.63.32,1.23.62,1.78.19.37.42.75.66,1.13-.24-.38-.46-.76-.66-1.13-.29-.55-.5-1.15-.62-1.78ZM105.76,98.7c-.03,2.61-.2,5.22-.67,7.75-.01.07-.03.15-.05.23.02-.08.04-.16.05-.23.47-2.53.63-5.14.67-7.75ZM.7,103.24c.01.21.02.42.03.63-.01-.21-.02-.42-.03-.63ZM105.6,89.54h0s0,0,0,0ZM105.68,83.31c-.02.83-.04,1.7-.07,2.61-.03,1.19-.03,2.4,0,3.61-.02-1.21-.02-2.42,0-3.61.02-.91.04-1.78.07-2.61ZM2.02,53.09c-.28.66-.28,1.41-.28,2.08l.1,33.28v.03-.03l-.1-33.28c0-.67,0-1.42.28-2.08ZM106.02,66.03c.02,3.18-.05,6.31-.16,10.39.11-4.07.18-7.2.16-10.39ZM96.95,45.81c2.58,1.69,5.44,3.63,7.08,6.49.95,1.65,1.4,3.5,1.63,5.21-.23-1.72-.68-3.56-1.63-5.21-1.64-2.86-4.5-4.79-7.08-6.49h0ZM5.04,50.25c-.45.32-.89.65-1.33.99-.53.4-1.03.81-1.39,1.31.36-.5.86-.91,1.39-1.31.44-.33.88-.66,1.33-.99Z" style="fill: #fff;"/>
  <path d="M2.33,108.41l-1.05-.6.15-.26c2.58-4.48,7.7-8.48,9.21-9.6.98-.73,2.02-1.46,2.94-2.11,2.22-1.57,4.51-3.19,6.53-5.03,1.24-1.14,2.43-2.39,3.57-3.6,1.07-1.13,2.17-2.3,3.33-3.38,1.29-1.21,2.57-2.33,3.93-3.52,2.16-1.89,4.37-3.83,6.64-6.14l.21-.22.86.85-.21.22c-2.31,2.35-4.54,4.3-6.7,6.19-1.35,1.18-2.63,2.3-3.91,3.5-1.13,1.06-2.22,2.21-3.27,3.32-1.17,1.24-2.37,2.51-3.64,3.67-2.08,1.89-4.39,3.54-6.64,5.12-.91.64-1.94,1.37-2.92,2.1-1.46,1.09-6.42,4.96-8.89,9.24l-.15.26ZM2.11,107.59h0c2.57-4.27,7.44-8.08,8.9-9.16.17-.12.33-.25.5-.37-.17.12-.33.25-.5.37-1.46,1.08-6.33,4.89-8.9,9.16ZM16.21,94.7c-.76.55-1.52,1.09-2.27,1.62-.08.06-.17.12-.25.18.08-.06.16-.11.24-.17.76-.53,1.52-1.07,2.28-1.63ZM21.58,90.24s0,0,0,0c0,0,0,0,0,0ZM26.23,85.42c-.72.72-1.42,1.46-2.1,2.19-.83.88-1.67,1.77-2.55,2.63.87-.86,1.72-1.75,2.54-2.62.69-.73,1.4-1.48,2.12-2.2Z" style="fill: #fff;"/>
  <path d="M82.7,110.52c-2.83,0-5.68-.11-8.49-.33-.88-.07-1.75-.15-2.63-.23-1.81-.16-3.68-.33-5.53-.4-3.01-.11-6.05.05-8.98.21l-1.8.09c-12.4.6-24.96.3-37.33-.9-.97-.1-1.89-.19-2.77-.07-.49.06-.96.19-1.47.33-.42.11-.85.23-1.29.31-2.04.37-4.08-.09-6.24-1.41l-.46-.28.23-.49c2.06-4.42,6.09-7.47,8.95-9.38,1.21-.81,2.46-1.58,3.67-2.33,2.36-1.46,4.78-2.95,6.92-4.73.5-.42.97-.91,1.42-1.39.68-.72,1.39-1.47,2.26-2.03,2.51-1.63,4.36-3.78,5.99-5.67.59-.68,1.15-1.33,1.71-1.94.47-.5,1.01-1.26,1.53-1.99,1.06-1.49,1.58-2.17,2.16-2.24.18-.16.49-.38.86-.13l.1.07.13.65-.05.09c-.2.39-.56.75-.98.63-.32.33-.86,1.09-1.24,1.62-.54.76-1.11,1.55-1.63,2.11-.55.59-1.1,1.22-1.68,1.9-1.68,1.96-3.59,4.17-6.25,5.9-.75.49-1.38,1.15-2.04,1.85-.48.51-.97,1.03-1.53,1.49-2.2,1.83-4.66,3.35-7.04,4.82-1.21.75-2.46,1.52-3.65,2.32-4.12,2.76-6.76,5.44-8.28,8.4,1.73.96,3.3,1.27,4.92.97.39-.07.8-.18,1.19-.28.53-.14,1.07-.28,1.63-.36,1.03-.14,2.08-.03,3,.06,12.34,1.19,24.85,1.5,37.2.9l1.79-.09c2.96-.15,6.03-.31,9.09-.21,1.88.07,3.77.24,5.59.4.88.08,1.74.16,2.61.23,8.45.66,16.98.32,25.36-1.01-.58-1.04-1.74-1.8-2.85-2.53-.36-.24-.72-.47-1.07-.72-2.84-2.02-5.08-4.47-7.45-7.06-2.7-2.94-5.48-5.98-9.37-8.6-2.59-1.74-4.96-4.36-7.26-6.89-1.86-2.05-3.79-4.16-5.74-5.7l-.24-.19.75-.95.24.19c2.03,1.6,3.99,3.75,5.88,5.84,2.25,2.48,4.58,5.04,7.05,6.7,4.01,2.7,6.84,5.79,9.59,8.78,2.33,2.55,4.53,4.94,7.27,6.89.32.23.66.45,1,.67,1.55,1.01,3.12,2.04,3.66,3.86l.19.66-.67.11c-5.9.98-11.92,1.47-17.91,1.47ZM82.01,109.92c.95,0,1.89,0,2.83-.02-.94.02-1.89.03-2.83.02ZM17.97,108.36s.02,0,.04,0c11.38,1.1,22.92,1.45,34.35,1.02-11.43.42-22.98.08-34.39-1.02ZM70.89,109.3c.25.02.5.04.75.07.61.06,1.23.11,1.84.16-.61-.05-1.22-.11-1.83-.16-.25-.02-.5-.04-.75-.07ZM58.08,109.12c-.35.02-.7.04-1.04.05l-.98.05.99-.05c.35-.02.69-.04,1.04-.05ZM64.77,108.94c.44,0,.87.02,1.31.03.63.02,1.27.06,1.9.1-.63-.04-1.27-.08-1.9-.1-.44-.02-.87-.03-1.31-.03ZM14.06,108.51c-.18.04-.35.09-.53.14-.4.11-.82.22-1.23.29-.04,0-.08.01-.11.02.04,0,.08-.01.11-.02.42-.08.83-.19,1.23-.29.18-.05.35-.09.53-.14ZM100.34,108.49l-.18.03c-.94.15-1.89.29-2.83.42,1.01-.14,2.01-.29,3.01-.45ZM16.08,108.24c.62,0,1.25.06,1.87.12-.93-.09-1.9-.19-2.85-.06-.11.01-.22.03-.33.05.11-.02.22-.04.34-.05.32-.04.65-.06.98-.06ZM96.56,104.56c.19.13.39.26.59.39,1.32.86,2.68,1.75,3.25,3.15v.03c-.55-1.42-1.92-2.31-3.25-3.18-.2-.13-.4-.26-.59-.39ZM6.73,107.12c-.05.11-.11.22-.16.32l.04-.09c.04-.08.08-.16.12-.24ZM14.82,98.75c-1.45.99-3.16,2.26-4.72,3.84,1.29-1.29,2.85-2.56,4.72-3.84ZM72.16,81.85c2.26,2.48,4.59,5.04,7.1,6.73,2.31,1.56,4.24,3.25,5.98,4.99-1.74-1.74-3.67-3.43-5.98-4.99-2.5-1.68-4.84-4.24-7.1-6.73ZM27.65,89.6c-.1.11-.21.22-.31.33-.39.41-.79.84-1.22,1.22.43-.39.83-.81,1.22-1.22.11-.11.21-.22.31-.33ZM31.47,86.51c-.61.52-1.27,1.02-1.98,1.48-.08.05-.15.1-.23.16.07-.05.15-.1.23-.16.71-.46,1.37-.96,1.98-1.48ZM35.99,81.76c-.13.15-.25.29-.38.45-.22.25-.44.51-.67.78.23-.26.45-.52.67-.77.13-.15.26-.3.39-.45ZM66.78,76.41c1.81,1.51,3.58,3.46,5.29,5.34-1.72-1.89-3.48-3.83-5.29-5.34ZM39.68,77.15c-.25.32-.52.7-.79,1.09-.14.19-.28.39-.41.58.14-.19.28-.38.41-.58.29-.4.56-.77.79-1.09ZM40.62,76.25l.14.13s.15-.08.25-.23l-.02-.08s-.06.05-.1.09l-.1.1h-.14s-.02-.01-.03-.01Z" style="fill: #fff;"/>
  <path d="M103.77,106.21l-.2-.22c-6.84-7.44-15.55-15.4-23.94-22.9-1.14-1.02-2.31-2.07-3.57-2.94-.41-.29-.87-.59-1.33-.9-2.16-1.43-4.58-3.04-5.82-5.03l-.16-.26,1.02-.64.16.26c1.11,1.77,3.41,3.3,5.44,4.65.48.32.95.63,1.38.93,1.32.92,2.52,1.99,3.68,3.03,8.42,7.52,17.15,15.51,24.03,22.99l.2.22-.89.82ZM85.38,87.46c6.57,5.97,13.06,12.09,18.43,17.9h0c-5.37-5.81-11.85-11.94-18.43-17.9ZM76.3,79.58s.07.05.1.07c1.23.86,2.38,1.87,3.48,2.86-1.11-.99-2.25-2-3.48-2.86-.03-.02-.07-.05-.1-.07ZM69.58,74.15c.53.76,1.24,1.47,2.05,2.14-.8-.67-1.52-1.38-2.05-2.14h0Z" style="fill: #fff;"/>
  <path d="M8.15,85.84c-.35,0-.69-.07-.97-.21-.65-.32-1.11-1.05-1.2-1.89-.07-.65.06-1.25.18-1.83l.02-.07c.79-3.77.96-7,.51-9.87-.02-.16-.06-.33-.1-.5-.2-.99-.51-2.48.7-3.29,1.19-.8,3.15-.05,3.93.79.71.77.91,1.81,1.01,2.81.4,3.7.06,7.55-.98,11.13-.2.68-.46,1.46-1.03,2.05-.49.52-1.19.84-1.9.88-.06,0-.11,0-.17,0ZM9.46,84.81c-.34.24-.76.39-1.18.42h0,0c.42-.03.83-.18,1.17-.42ZM9.46,84.81s0,0,0,0c0,0,0,0,0,0ZM9.55,84.74h0,0ZM9.55,84.74s0,0,0,0c0,0,0,0,0,0ZM9.83,84.47s-.03.04-.05.06c-.07.07-.15.14-.23.21.08-.06.16-.13.23-.21.02-.02.04-.04.05-.06ZM7.35,82.08l-.02.07c-.11.51-.21,1-.16,1.45.04.33.2.77.53.94.14.07.32.1.53.08.42-.03.82-.21,1.11-.51.38-.4.57-.98.74-1.55,1-3.43,1.33-7.11.94-10.66-.08-.74-.21-1.58-.7-2.12-.47-.51-1.79-1-2.37-.61-.5.33-.39,1.06-.19,2.04.04.21.08.4.11.57.47,3.02.3,6.39-.52,10.3h0ZM6.59,83.75c.04.3.15.58.29.81-.16-.25-.25-.54-.29-.81ZM11.73,73.04c.21,3.25-.16,6.58-1.07,9.69-.02.06-.04.12-.05.18.02-.06.04-.12.05-.18.91-3.12,1.28-6.44,1.07-9.69ZM7.43,77.52s0,0,0,0c0,0,0,0,0,0ZM7.43,77.51s0,0,0,0c0,0,0,0,0,0ZM7.43,77.5s0,0,0,0c0,0,0,0,0,0ZM7.44,77.49s0,0,0,0c0,0,0,0,0,0ZM7.15,69.22c-.28.61-.11,1.43.03,2.11.04.19.08.37.1.54.27,1.73.32,3.59.15,5.62.17-2.02.12-3.88-.15-5.62-.03-.16-.06-.34-.1-.52-.14-.7-.31-1.51-.03-2.13ZM10.7,69.3s.05.05.07.07c.03.03.05.06.08.09-.02-.03-.05-.06-.08-.09-.02-.02-.05-.05-.07-.07Z" style="fill: #fff;"/>
  <path d="M8.64,92.16h0c-.94,0-1.84-.59-2.23-1.47-.37-.84-.25-1.87.3-2.62.05-.07.11-.14.15-.21.06-.87.86-1.48,1.62-1.62.5-.09.99-.04,1.42.01.2.02.37.04.54.05h.08c.29.02.69.03,1.04.29.51.38.64,1.04.38,1.95-.22.8-.46,1.58-.94,2.26-.6.85-1.48,1.35-2.36,1.35ZM7.22,88.39s-.01.02-.02.02c-.44.6-.53,1.39-.24,2.03.3.66.97,1.11,1.68,1.11v.3s0-.3,0-.3c.64,0,1.3-.36,1.77-.97-.47.6-1.14.97-1.77.97-.7,0-1.39-.46-1.68-1.11-.28-.64-.18-1.44.26-2.05ZM8.12,87.77c0,.4-.24.74-.41.96-.32.44-.4,1.01-.2,1.46.19.44.67.75,1.13.75.48,0,1.01-.32,1.37-.84.37-.52.57-1.19.76-1.89.15-.54.05-.66.05-.66-.05-.03-.25-.04-.36-.05h-.08c-.21-.01-.41-.04-.62-.06-.38-.04-.74-.08-1.06-.03-.24.04-.47.19-.58.35ZM11.28,88.64c-.15.53-.32,1.05-.58,1.51.26-.46.43-.97.58-1.51ZM7.43,88.07l-.02.03c-.05.09-.12.19-.19.28.07-.09.15-.2.2-.3ZM11.16,87.06s.02.01.03.02c.33.25.29.74.23,1.07.07-.32.11-.81-.23-1.07,0,0-.02-.01-.03-.02ZM7.5,87.67c-.03.09-.05.18-.05.28v.07c.04-.09.07-.19.06-.28v-.07ZM10.49,86.91h0s.01,0,.02,0c0,0-.01,0-.02,0ZM9.65,86.83c.06,0,.12.01.18.02.07,0,.15.02.22.02-.07,0-.13-.01-.2-.02-.07,0-.13-.01-.2-.02ZM8.71,86.81s-.08.01-.12.02c-.04,0-.08.02-.12.03.04-.01.08-.02.12-.03.04,0,.08-.01.12-.02Z" style="fill: #fff;"/>
  <path d="M100.9,95.08c-.84,0-1.67-.48-2.22-1.28-.48-.71-.69-1.53-.84-2.24-.68-3.22-.84-6.81-.53-11.3.2-2.77.49-6.41,1.02-10.04.11-.75.42-2.04,1.24-2.3.24-.08.72-.12,1.22.4.62.64.74,2.23.83,4.24.02.47.04.87.07,1.11.82,6.55,1.09,13.21.8,19.8-.01.24-.03.61-.23.94-.25.4-.7.64-1.25.67-.04,0-.08,0-.12,0ZM100.86,94.47s.03,0,.05,0h0,0s-.03,0-.05,0ZM101.72,94.13c-.19.26-.54.32-.7.34.31-.03.55-.15.7-.34ZM101.73,94.13s0,0,0,0c0,0,0,0,0,0ZM99,93.16c.05.1.11.2.18.29.18.26.39.47.63.64-.26-.18-.47-.41-.63-.64-.06-.09-.12-.19-.18-.29ZM99.02,91.31c.13.6.29,1.28.65,1.81.25.37.74.77,1.28.75.15,0,.26-.06.29-.1.04-.06.05-.24.05-.35.28-6.52.01-13.11-.79-19.6-.04-.28-.05-.7-.08-1.19-.04-.94-.14-3.1-.49-3.47-.01-.01-.02-.02-.03-.03-.08.14-.26.56-.36,1.27-.53,3.59-.82,7.2-1.01,9.95-.31,4.38-.15,7.87.5,10.97h0ZM101.89,93.47c0,.12-.01.23-.04.34.02-.12.03-.23.04-.34ZM97.77,84.85c.02,2.34.23,4.42.62,6.35-.39-1.93-.59-4.01-.62-6.35ZM101.04,72.82c.01.32.03.6.05.81-.02-.21-.03-.49-.05-.81ZM100.8,69.91c.13.72.18,1.66.22,2.65-.04-.84-.08-1.86-.22-2.65ZM99.15,69.38c-.09.27-.16.58-.21.93-.06.43-.12.86-.18,1.28.06-.43.12-.86.18-1.28.02-.13.09-.53.21-.93ZM99.88,68.48c.16,0,.32.09.49.26.03.03.06.06.08.1-.03-.04-.05-.07-.08-.1-.21-.22-.42-.3-.6-.24,0,0,0,0-.01,0,0,0,0,0,.01,0,.04-.01.08-.02.11-.02Z" style="fill: #fff;"/>
  <path d="M75.54,96.46c-.66,0-1.37-.2-1.95-.56-.94-.57-1.6-1.42-2.24-2.24l-.22-.28c-.11-.14-.5-.53-.94-.97-2.63-2.63-5.19-5.34-5.05-7.02.04-.43.24-.78.58-1.02,1.07-.75,3.26.6,5.41,2.04.24.16.42.28.54.35,2.05,1.26,4.03,2.67,5.9,4.17.2.16.47.37.63.71.16.32.18.65.19.94.02.95-.06,2.32-.99,3.18-.49.45-1.13.69-1.86.69ZM73.17,94.83c.23.21.47.39.73.55.49.3,1.09.47,1.64.47.38,0,.91-.08,1.37-.46-.84.69-2.14.52-3.01,0-.26-.16-.5-.35-.73-.55ZM66.52,85.35c-.08,0-.1.02-.1.02-.04.03-.06.06-.07.13-.11,1.26,3.38,4.75,4.7,6.06.53.53.88.88,1.04,1.08l.22.28c.57.73,1.16,1.49,1.91,1.95.71.43,1.76.58,2.37.01.57-.52.62-1.49.6-2.27,0-.16-.01-.33-.06-.43s-.17-.19-.31-.31c-1.83-1.48-3.77-2.85-5.77-4.09-.13-.08-.33-.22-.58-.38-2.05-1.37-3.38-2.07-3.94-2.07ZM77.73,92.08c.05.17.06.34.06.53,0,.07,0,.15,0,.22,0-.08,0-.15,0-.22,0-.18-.01-.36-.06-.53ZM66.87,87.87c1.04,1.4,2.59,2.96,3.65,4.02-1.41-1.41-2.75-2.82-3.65-4.02ZM75.62,90.19c.53.4,1.06.81,1.57,1.23.15.12.29.24.39.37-.11-.15-.26-.27-.39-.37-.52-.42-1.04-.83-1.57-1.23ZM71.1,87.11c.1.07.19.13.26.17.53.33,1.06.67,1.59,1.01-.52-.35-1.05-.69-1.59-1.01-.07-.04-.16-.1-.26-.17ZM68.2,85.33c.77.4,1.63.94,2.41,1.47-.65-.44-1.56-1.03-2.41-1.47ZM65.79,85.26c-.02.06-.03.12-.04.19,0,.03,0,.07,0,.1,0-.04,0-.07,0-.1,0-.07.02-.13.04-.19Z" style="fill: #fff;"/>
  <path d="M81.8,100.88c-.15,0-.3-.02-.45-.07-.8-.26-2.46-1.51-2.68-2.67-.09-.5.07-.96.47-1.28.57-.46,1.43-.49,2.37-.07.95.42,1.92,1.29,1.97,2.28.03.55-.25,1.11-.71,1.47-.3.22-.63.34-.97.34ZM80.09,99.25c.49.47,1.09.87,1.46.98.29.09.6.03.87-.18.31-.24.49-.6.47-.96,0-.12-.03-.24-.08-.35.05.12.07.24.08.35.02.35-.16.72-.47.96-.27.21-.58.27-.87.18-.33-.11-.95-.5-1.46-.98ZM80.26,97.7c-.15,0-.28.03-.36.1-.05.04-.05.05-.04.12.1.55,1.31,1.56,1.87,1.74.09.03.2,0,.31-.08.15-.11.25-.29.24-.45-.02-.33-.54-.91-1.26-1.23-.28-.13-.54-.19-.76-.19ZM79.49,97.36c-.19.17-.26.37-.23.62-.03-.25.04-.46.23-.62ZM80.26,97.1c.3,0,.65.08,1,.24.19.08.38.19.56.31-.18-.12-.37-.23-.56-.31-.7-.31-1.32-.32-1.71-.03.18-.14.43-.21.71-.21Z" style="fill: #fff;"/>
  <path d="M22.11,42.88c-.81,0-1.57-.22-2.48-.72-1.25-.69-1.36-2.35-.92-3.7l.14-.44.46.02c1.18.06,2.16.29,3.11.52.94.23,1.82.44,2.89.49.25.01.48.06.7.1.34.07.63.13.79.02.3-.19.4-.52.43-.76.06-.5-.13-1.06-.47-1.42-.71-.74-1.85-.96-2.87-1.08l-.48-.05c-1.07-.11-2.18-.23-3.18-.78-1.84-1.01-2.85-3.44-2.34-5.67.44-1.92,1.9-3.68,3.91-4.72,3.15-1.62,7.16-1.27,9.97.88.28.22.62.52.67,1,.06.45-.16.89-.64,1.3-1.3,1.11-2.67.9-4.01.71-.34-.05-.69-.1-1.05-.14-1.26-.12-3.3.04-3.69.63-.04.06-.17.25.14.8.29.51.98.82,1.58,1.09.92.41,1.82.62,2.69.82,1.15.26,2.34.53,3.57,1.27.73.43,1.49,2.32,1.64,2.7.18.48.15.95.1,1.42-.17,1.66-.57,3.69-2.18,4.73-.98.63-2.11.69-3.19.75-.37.02-.7.04-1.03.08-.55.06-1.14.05-1.7.03-.62-.02-1.24-.04-1.76.05-.28.05-.54.07-.8.07ZM23.89,42.14c-.32,0-.63.01-.93.05.54-.07,1.13-.05,1.71-.04.18,0,.36.01.54.01-.17,0-.34,0-.51-.01-.27,0-.54-.02-.81-.02ZM27.28,42.06c-.08,0-.16,0-.24.01.08,0,.16,0,.24-.01ZM19.22,38.85c-.29,1.07-.19,2.29.7,2.78.09.05.17.09.26.14-.09-.04-.17-.09-.26-.14-.92-.51-.96-1.79-.71-2.74v-.04ZM19.74,39.29c-.14.73-.05,1.53.47,1.81.95.52,1.62.66,2.5.52.64-.11,1.33-.09,1.99-.06.56.02,1.07.03,1.54-.02.36-.04.73-.06,1.11-.08.97-.05,1.89-.1,2.6-.56,1.17-.75,1.49-2.44,1.63-3.83.04-.34.06-.64-.03-.87-.37-.96-.94-1.97-1.13-2.09-1.07-.63-2.11-.87-3.22-1.13-.93-.21-1.89-.43-2.92-.89-.78-.35-1.66-.74-2.14-1.6-.55-.98-.36-1.66-.1-2.05.98-1.51,4.43-1.22,4.82-1.18.39.04.76.09,1.11.15,1.26.19,2.16.32,3.04-.43.17-.15.22-.23.23-.25-.01,0-.05-.05-.2-.16-2.45-1.87-5.95-2.18-8.69-.76-1.7.87-2.93,2.34-3.29,3.91-.39,1.72.36,3.59,1.74,4.34.79.43,1.78.54,2.73.64l.49.05c1.24.14,2.63.43,3.61,1.44.59.62.9,1.53.8,2.39-.08.7-.43,1.28-.97,1.64-.58.37-1.19.25-1.68.15-.19-.04-.36-.07-.52-.08-1.18-.06-2.16-.29-3.11-.52-.79-.19-1.54-.37-2.4-.46ZM30.57,41.18c-.09.08-.19.15-.3.22-.03.02-.06.04-.1.06.03-.02.06-.04.1-.06.11-.07.21-.14.3-.22ZM25.65,39.71c.08.01.16.03.24.05.07.01.14.03.21.04-.07-.01-.14-.03-.21-.04-.08-.02-.16-.03-.24-.05ZM27.17,39.67s-.03.02-.04.03c-.01,0-.02.01-.03.02.01,0,.02-.01.03-.02.01,0,.03-.02.04-.03ZM25.02,39.65c.09,0,.18.01.27.02.05,0,.09,0,.14.01-.05,0-.09,0-.14-.01-.09,0-.18-.01-.27-.02ZM32.2,36.9c0,.07-.01.15-.02.22-.05.51-.13,1.06-.26,1.6.13-.54.2-1.09.26-1.6,0-.07.02-.15.02-.22ZM24.29,35.37c1.04.14,2.14.43,2.9,1.21.46.48.71,1.23.63,1.9,0,.05-.01.1-.02.15,0-.05.02-.1.02-.15.08-.69-.16-1.42-.63-1.9-.76-.79-1.86-1.07-2.9-1.21ZM30.95,33.77c.43.5.94,1.63,1.12,2.1-.28-.69-.74-1.66-1.12-2.1ZM18.93,32.94h0s0,0,0,0ZM18.63,32.26c.08.24.18.46.3.68-.12-.22-.22-.44-.3-.68ZM26.55,32.2c.26.07.53.13.79.18.18.04.36.08.53.12-.18-.04-.35-.08-.53-.12-.26-.06-.52-.12-.79-.19ZM23.15,30.75c.4.34.91.57,1.38.78.3.14.6.25.9.35-.3-.1-.6-.21-.9-.35-.47-.21-.98-.44-1.38-.78ZM23.15,30.75h0s0,0,0,0ZM22.8,30.37s0,0,0,0c0,0,0,0,0,0ZM22.52,28.8c-.21.37-.16.82.15,1.38.04.07.08.13.12.19-.04-.06-.09-.12-.12-.19-.31-.55-.36-1.01-.15-1.38ZM25.84,27.81c-1,0-2.32.13-3,.64,1.08-.81,3.74-.62,3.95-.6-.24-.02-.57-.04-.95-.04ZM31.59,27.25c-.06.07-.13.13-.19.18-.65.55-1.31.72-2.01.72.7,0,1.36-.17,2.01-.72.04-.04.11-.1.19-.18ZM28.97,28.13,27.28,27.91c.2.03.4.06.6.09.38.06.74.11,1.09.14-.35-.03-.71-.08-1.08-.14-.2-.03-.4-.06-.61-.09ZM26.05,24.3c-1.37,0-2.75.31-3.98.94-1.12.58-2.05,1.39-2.7,2.33.65-.94,1.59-1.75,2.7-2.33,2.27-1.17,5.02-1.24,7.37-.29-1.07-.43-2.23-.65-3.39-.65ZM31.18,25.91c.07.05.15.11.22.16.06.05.12.09.17.14-.05-.05-.11-.1-.17-.14-.07-.05-.15-.11-.22-.16Z" style="fill: #fff;"/>
  <path d="M37.4,42.82s-.08,0-.12,0c-.56-.03-1.13-.33-1.48-.76-.55-.67-.66-1.51-.71-2.32-.1-1.76.06-3.53.2-5.24.14-1.62.29-3.29.21-4.93-.01-.26-.07-.57-.12-.9-.17-.99-.39-2.23.44-3.09,1.01-1.04,3.36-1.22,4.32-1.26,1.17-.04,2.29.2,3.38.43,1.47.31,2.98.63,4.38,1.34.39.2.83.46,1.11.91.28.46.31.98.34,1.37.12,1.93.28,4.56-1.08,6.58-.38.56-.82.97-1.31,1.21-.67.33-1.39.35-2.03.36l-5.57.11c0,1.85-.22,3.69-.68,5.49l-.04.17-.12.12c-.29.28-.69.43-1.12.43ZM37.4,42.22h0c.19,0,.37-.04.51-.13-.15.08-.32.13-.51.13h0ZM37.23,42.2h0,0ZM36.94,42.14c.09.03.19.05.28.07-.1-.01-.19-.04-.28-.07ZM36.94,42.14s0,0,0,0c0,0,0,0,0,0ZM37.91,42.09h0ZM40.39,25.52c-.07,0-.14,0-.21,0-1.65.05-3.02.4-3.49.89-.41.42-.26,1.25-.12,2.04.06.37.13.71.14,1.05.08,1.71-.07,3.43-.21,5.09-.15,1.67-.29,3.39-.2,5.07.03.6.11,1.22.44,1.62.14.18.39.31.62.32.08,0,.15,0,.21-.03.44-1.81.64-3.68.58-5.55l-.02-.61,6.78-.13c.51,0,1.08-.02,1.51-.23.3-.15.58-.42.84-.8,1.05-1.54,1.01-3.64.88-5.83-.02-.29-.04-.61-.16-.81-.12-.19-.37-.34-.62-.47-1.26-.63-2.7-.94-4.09-1.23-.95-.2-1.93-.41-2.88-.41ZM35.99,33.4c-.03.39-.06.77-.1,1.16-.06.71-.12,1.42-.17,2.14.04-.72.11-1.43.17-2.13.03-.39.07-.77.1-1.16ZM38.75,36.02h0c0,.1,0,.19,0,.29v-.29ZM47.48,34.97c-.24.28-.51.49-.79.63-.55.27-1.2.29-1.77.3l-2.5.05,2.5-.05c.57-.01,1.22-.02,1.77-.3.28-.14.54-.35.79-.63ZM47.48,34.97s0,0,0,0c0,0,0,0,0,0ZM48.75,28.48c.08,1.26.12,2.48-.06,3.61.2-1.25.12-2.54.06-3.61ZM36.28,25.98s-.01.01-.02.02c-.62.64-.45,1.62-.28,2.57.06.35.12.68.13.97.02.32.02.65.02.97,0-.32,0-.65-.02-.97-.01-.3-.07-.63-.13-.97-.16-.9-.34-1.93.28-2.57,0,0,.01-.01.02-.02ZM48.53,27.37c.16.3.19.66.21.97-.02-.32-.05-.67-.21-.97ZM43.59,25.38c.91.19,1.84.4,2.73.7-.89-.3-1.82-.51-2.73-.7ZM42.48,25.15c.23.04.46.09.68.14-.23-.05-.45-.09-.68-.14ZM39.95,24.93c-.25.01-.51.03-.78.06.3-.03.57-.05.78-.06Z" style="fill: #fff;"/>
  <path d="M38.27,33.95l.06-.74c.03-.44-.03-1-.09-1.59-.11-1.05-.23-2.13.1-2.98.62-1.6,2.52-1.43,3.66-1.33h.13c.99.1,2.41.41,3.52,1.41.18.16.38.37.5.65.16.39.12.79.05,1.17-.12.65-.29,1.33-.72,1.91-.65.89-1.83,1.4-3.33,1.43-.45.01-.89-.01-1.32-.04-.64-.04-1.23-.07-1.82,0l-.74.09ZM43.82,32.96c-.61.25-1.26.31-1.7.32-.02,0-.04,0-.05,0,.02,0,.04,0,.05,0,.64-.02,1.22-.13,1.7-.32ZM38.94,32.96c0,.1,0,.2-.01.3h0c.1-.01.19-.02.28-.03l-.27.02v-.29ZM40.71,33.24s.09,0,.14,0c.04,0,.09,0,.13,0-.03,0-.06,0-.09,0-.06,0-.12,0-.18-.01ZM39.79,32.6c.37,0,.73.02,1.09.04.43.02.84.05,1.23.04.64-.02,1.81-.16,2.38-.94.28-.38.41-.91.5-1.41.02-.13.07-.37.02-.48-.03-.08-.15-.18-.19-.22-.86-.77-2.01-1.02-2.82-1.09h-.13c-1.38-.14-2.17-.08-2.42.55-.22.57-.12,1.51-.02,2.41.04.39.08.77.1,1.12.09,0,.17,0,.26,0ZM39.83,28c-.42.14-.75.4-.93.86-.26.66-.18,1.58-.08,2.49-.1-.91-.17-1.83.08-2.49.18-.46.52-.72.93-.86ZM45.35,29.29c.09.09.17.2.23.32.11.26.07.55.01.83-.02.1-.04.2-.06.3.02-.1.04-.2.06-.3.05-.28.09-.57-.01-.83-.05-.12-.14-.23-.23-.32ZM42.24,27.94c.72.08,1.64.29,2.45.82-.81-.52-1.73-.73-2.45-.82Z" style="fill: #fff;"/>
  <path d="M52.12,42.98c-.5,0-.93-.33-1.26-.97-1.44-2.8.93-6.81,2.5-9.46.23-.38.43-.73.6-1.04.28-.5.53-1.06.77-1.6.31-.7.63-1.42,1.03-2.07.01-.03.09-.25.15-.45.25-.73.61-1.82,1.02-2.4.33-.47.87-.72,1.45-.66.58.06,1.06.4,1.3.93l6.28,14.74c.29.65.24,1.39-.15,1.93-.25.36-.6.57-1.01.62-.46.06-.98-.12-1.39-.47-.54-.47-.82-1.09-1.09-1.69-.25-.56-.48-1.08-.89-1.33-.13-.08-.3-.14-.52-.2-.49-.12-1.03-.17-1.64-.15-2.97.07-4.32.19-5.27,2.31-.59,1.32-1.18,1.95-1.86,1.97h-.03s0,0,0,0ZM52.12,42.38v.3-.3s0,0,0,0ZM65.18,41.75c-.13.11-.27.18-.44.2,0,0,0,0,0,0h0c.17-.02.31-.09.44-.2ZM58.23,25.52c-.12,0-.24.06-.31.16-.31.43-.67,1.51-.86,2.09-.15.43-.2.59-.27.7-.36.59-.66,1.27-.95,1.92-.25.57-.51,1.15-.82,1.71-.17.31-.38.65-.6,1.04-1.36,2.3-3.62,6.11-2.48,8.32.08.16.16.26.2.3.09-.06.37-.32.78-1.23,1.23-2.77,3.21-2.95,6.34-3.02.72-.02,1.36.04,1.95.19.35.08.63.19.87.34.73.45,1.07,1.2,1.36,1.87.22.5.43.97.77,1.26.17.15.35.2.45.19.05,0,.1-.02.17-.12.14-.19.14-.48.02-.75l-6.27-14.74c-.06-.12-.17-.2-.31-.22h-.04ZM65.48,40.44c.12.4.06.83-.16,1.14-.04.05-.08.1-.12.14.04-.04.08-.09.12-.14.22-.31.28-.73.16-1.14ZM54.09,32.51c-.07.11-.13.23-.2.34-1.49,2.52-3.75,6.33-2.5,8.83-1.24-2.5,1.1-6.46,2.5-8.83.07-.12.14-.23.2-.34ZM52.98,41.69h0ZM52.98,41.69s0,0,0,0c0,0,0,0,0,0ZM53.05,41.59s-.04.07-.06.1c.02-.03.04-.06.06-.1ZM53.05,41.59s0,0,0,0c0,0,0,0,0,0ZM61.79,38.57c.5.32.78.87,1.03,1.42-.26-.57-.52-1.1-1.03-1.42ZM59.5,38.1c-.07,0-.15,0-.22,0-2.22.05-3.7.14-4.76,1.12,1.06-.97,2.54-1.07,4.76-1.12.12,0,.23,0,.35,0-.04,0-.08,0-.12,0ZM61.15,38.3c.22.06.4.13.55.21-.15-.09-.33-.15-.55-.21ZM55.4,29.9c-.04.08-.07.17-.11.25-.19.44-.39.88-.6,1.3.21-.42.41-.86.6-1.29.04-.09.08-.17.11-.26ZM56.29,28.14c-.07.11-.14.23-.2.34.06-.11.12-.22.19-.32,0,0,0-.01.01-.02ZM56.55,27.4c-.02.06-.04.12-.06.18-.05.15-.09.26-.12.34.03-.09.07-.21.12-.34.02-.06.04-.12.06-.18ZM59.14,25.5l.9,2.12-.9-2.12s0,0,0,0ZM57.44,25.32s0,.01-.01.02c-.3.43-.6,1.24-.83,1.9.22-.64.53-1.48.83-1.9,0,0,0-.01.01-.02ZM59.07,25.38s0,0,0,0c0,0,0,0,0,0ZM58.38,24.93c.29.04.54.21.69.45-.15-.24-.4-.41-.69-.45Z" style="fill: #fff;"/>
  <path d="M59.87,36.17s-3.5-.27-4.06-1.59c-.49-1.17.4-2.87,1.05-4.11.14-.27.25-.48.33-.66l.44-.95.6.86c1.19,1.71,1.95,3.72,2.19,5.79l.06.52-.62.14ZM59.87,35.84v.04-.04s0,0,0,0ZM56.42,34.43c.33.51,1.62.86,2.55,1.03-.76-.14-2.2-.48-2.55-1.03ZM58.01,30.45l.03.05c.89,1.41,1.5,3.04,1.74,4.69v.02c-.25-1.69-.85-3.32-1.77-4.76ZM57.8,31.28c-.46.89-1.11,2.25-.87,2.83.11.22,1.13.56,2.18.76-.23-1.25-.68-2.48-1.31-3.59ZM57.75,30.06h0c-.04.09-.09.2-.15.31l.16-.3s0,0,0,0h0Z" style="fill: #fff;"/>
  <path d="M86.29,43.23c-.27,0-.51-.07-.74-.2-.83-.49-.95-1.64-.96-2.11-.02-.91.04-1.84.1-2.74.12-1.83.24-3.56-.31-5.08-.54.81-.77,1.86-1.02,2.96-.13.57-.26,1.14-.43,1.69-.55,1.75-1.57,3.27-2.59,4.66-.13.18-.35.48-.73.61-.36.13-.71.05-.94-.03-1.77-.57-2.63-2.35-3.3-3.98l-2.33-6.99c-.25,2.32.02,5.88.16,7.34.07.78-.31,2.24-1.21,2.94-.51.4-1.14.5-1.76.29-1.34-.47-1.4-2.47-1.43-3.8,0-.27-.01-.47-.03-.63-.31-3.42-.37-6.9-.2-10.33.06-1.25.31-3,1.73-3.68.88-.42,2.04-.26,2.94.42.75.57,1.24,1.36,1.66,2.14,1.21,2.25,2.04,4.69,2.85,7.04.21.62.42,1.23.64,1.84.2.56.41.81.53.79.13,0,.34-.23.52-.74.28-.78.54-1.61.79-2.4.93-2.96,1.89-6.02,4.26-8.13.79-.71,1.6-.9,2.26-.56.05.03.13.05.21.09.53.21.91.38,1.09.71,1.28,2.3,1.08,4.97.89,7.56-.05.67-.1,1.36-.12,2.01-.03,1,0,2,.03,2.95.03.79.05,1.6.05,2.43-.01,1.1-.61,2.1-1.56,2.61-.37.19-.72.29-1.04.29ZM85.19,40.11c0,.26,0,.53,0,.79,0,.29.08,1.27.67,1.61.27.16.6.15.99-.02-.39.17-.73.17-.99.02-.59-.34-.66-1.32-.67-1.61,0-.26,0-.52,0-.79ZM79.45,42.44s-.02.01-.04.02c-.01,0-.02,0-.04.01.01,0,.02,0,.04-.01.01,0,.03,0,.04-.02ZM79.81,42.11c-.04.06-.09.11-.14.16.05-.05.1-.11.14-.16ZM84.7,31.06l.37.65c1.14,2.01.98,4.32.83,6.55-.06.87-.12,1.78-.1,2.63.01.52.17.99.37,1.1.12.07.33.02.6-.12.56-.3.91-.89.92-1.55,0-.8-.02-1.6-.04-2.38-.03-.98-.07-1.99-.03-3.03.02-.68.07-1.38.12-2.06.18-2.39.36-4.86-.72-6.83-.05-.03-.18-.09-.49-.22-.14-.05-.26-.1-.34-.15-.2-.1-.6.12-.9.39-2.12,1.88-3.03,4.78-3.91,7.58-.25.81-.52,1.65-.81,2.45-.36,1-.9,1.51-1.61,1.54-.79,0-1.34-.52-1.72-1.59-.22-.62-.43-1.24-.65-1.86-.79-2.31-1.61-4.7-2.77-6.86-.35-.65-.75-1.32-1.32-1.74-.55-.41-1.21-.53-1.69-.3-.84.4-1,1.7-1.04,2.65-.17,3.37-.11,6.79.19,10.16.02.19.02.43.03.71.02.75.07,2.5.62,2.7.24.08.43.05.62-.1.49-.38.79-1.41.75-1.88-.18-1.93-.43-5.53-.12-7.86.07-.53.47-.93,1-1,.52-.07,1,.21,1.21.7l2.43,7.27c.56,1.35,1.26,2.84,2.54,3.25.13.04.17.04.18.04.02-.02.12-.14.15-.19.96-1.3,1.91-2.73,2.41-4.31.16-.5.28-1.05.4-1.58.35-1.56.71-3.16,1.96-4.26l.56-.49ZM72.43,31.98c-.25,2.28,0,5.62.16,7.45.06.63-.3,1.87-.98,2.41,0,0-.02.01-.02.02,0,0,.02-.01.02-.02.69-.54,1.04-1.77.98-2.41-.14-1.48-.41-5.08-.16-7.45ZM88.21,36.98c0,.32.02.63.03.94.03.78.05,1.59.05,2.4,0,.31-.06.61-.17.89.11-.28.17-.58.17-.89,0-.82-.02-1.62-.04-2.4-.01-.31-.02-.62-.03-.94ZM82.67,36.34c-.1.42-.2.83-.32,1.23-.38,1.22-1.02,2.34-1.72,3.38.7-1.04,1.33-2.16,1.72-3.38.12-.4.23-.81.32-1.23ZM85.33,37.63c-.01.19-.03.39-.04.58-.01.17-.02.34-.03.52.01-.17.02-.35.03-.52.01-.19.03-.39.04-.58ZM69.27,36.95c.03.39.06.78.09,1.16,0,.11.02.23.02.37,0-.14-.01-.27-.02-.37-.03-.39-.07-.78-.09-1.16ZM81.23,32.1c-.15.45-.29.9-.43,1.34-.25.81-.52,1.64-.8,2.43-.27.74-.62,1.12-1.06,1.14h0,0c.43-.01.79-.39,1.05-1.14.29-.79.55-1.63.8-2.43.14-.45.28-.89.43-1.34ZM77.18,33.99c.21.61.42,1.22.63,1.82.02.05.04.1.05.15-.02-.05-.04-.1-.05-.15-.22-.61-.42-1.22-.63-1.82ZM87.49,25.64c1.22,2.18,1.03,4.76.84,7.25-.02.25-.04.5-.05.75.02-.25.04-.5.05-.75.19-2.5.38-5.08-.82-7.22,0-.01-.01-.02-.02-.03ZM69.08,31.77h0s0,0,0,0ZM71.35,24.54c-.28,0-.56.06-.8.17-1.13.54-1.33,2.06-1.39,3.16-.07,1.3-.1,2.6-.09,3.9,0-1.3.03-2.61.09-3.9.06-1.1.26-2.62,1.39-3.16.68-.32,1.59-.18,2.32.36.66.5,1.1,1.22,1.49,1.94.37.7.71,1.41,1.02,2.14-.31-.73-.65-1.44-1.02-2.14-.38-.71-.83-1.44-1.49-1.94-.47-.35-1.01-.53-1.52-.53ZM72.95,31.22h0c-.07.01-.14.03-.2.07.07-.04.14-.06.2-.07,0,0,0,0,0,0ZM85.65,25.1c-.3.11-.58.32-.76.49-.5.44-.93.94-1.32,1.46.38-.53.82-1.02,1.32-1.46.18-.16.46-.37.76-.49ZM86.74,25.23s0,0,0,0c.13.05.23.09.32.13-.1-.04-.21-.09-.32-.13,0,0,0,0,0,0ZM85.65,25.1s0,0,0,0t0,0Z" style="fill: #fff;"/>
</svg>