<?xml version="1.0" encoding="UTF-8"?>
<svg id="Layer_2" xmlns="http://www.w3.org/2000/svg" viewBox="0 0 595.28 841.89">
  <path d="M319.47,259.31c-.59,0-1.19-.08-1.77-.23-58.65-15.42-120.12-25.54-187.91-30.95-4.26-.33-4.37-.5-4.62-.9-1.38-2.23-1.32-5.12.15-7.38,1.68-2.57,3.61-4.87,5.49-7.09,2.48-2.94,5.04-5.98,6.96-9.62,2.3-4.39,5.87-7.56,8.67-7.73,1.21-.07,2.23.37,2.99,1.27.1,0,.2,0,.3,0l.5.05-.19,1.95h-.46s-.09,0-.09,0c-.28.03-1,.11-1.44-.53-.37-.54-.84-.78-1.48-.74-2.07.12-5.09,2.98-7.02,6.66-2.01,3.83-4.65,6.95-7.19,9.97-1.84,2.18-3.74,4.43-5.35,6.9-.97,1.48-1.09,3.36-.34,4.85.9.11,2.97.31,3.29.34,67.91,5.42,129.49,15.56,188.26,31.01,1.6.42,3.26.02,4.43-1.07,4.15-3.85,9.31-7.46,14.29-10.95l1.81-1.27c.84-.59,1.33-1.56,1.29-2.59-.03-1.03-.57-1.96-1.45-2.49l-1.4-.86c-2.91-1.81-5.93-3.67-9.24-4.81-22.43-7.72-45.3-10.66-69.52-13.78-26.65-3.43-54.19-6.99-81.56-17.42l-.47-.18.71-1.87.47.18c27.15,10.35,54.58,13.89,81.1,17.31,24.32,3.13,47.29,6.09,69.92,13.88,3.52,1.21,6.63,3.14,9.63,5l1.4.86c1.45.89,2.35,2.43,2.4,4.13.05,1.71-.75,3.31-2.14,4.29l-1.82,1.27c-4.93,3.45-10.02,7.02-14.08,10.78-1.23,1.14-2.84,1.76-4.53,1.76ZM319.74,258.31h0ZM319.75,258.31h0,0ZM319.76,258.31h0,0ZM319.77,258.31h0,0ZM319.78,258.3h0,0ZM320.08,258.28c-.1.01-.2.02-.3.02.1,0,.2-.01.3-.02ZM320.09,258.28s0,0,0,0c0,0,0,0,0,0ZM320.09,258.28s0,0,0,0c0,0,0,0,0,0ZM340.51,243.37c-.29.51-.69.96-1.19,1.31l-1.2.84,1.2-.84c.5-.35.9-.8,1.19-1.31ZM126.1,226.73c.36.09,1.63.24,3.77.4,36.89,2.94,71.9,7.28,105.61,13.11-33.71-5.83-68.73-10.16-105.61-13.11-.29-.02-2.87-.27-3.61-.38l-.16-.02ZM328.38,232.19c.86.3,1.7.64,2.51,1.02-.82-.38-1.65-.72-2.51-1.02ZM125.9,220.83c-.49.9-.73,1.89-.73,2.87,0-.98.25-1.98.73-2.87ZM132.8,211.95c-.41.49-.82.98-1.23,1.46-1.56,1.86-3.17,3.76-4.62,5.82,1.45-2.06,3.05-3.96,4.62-5.81.41-.48.82-.97,1.23-1.46ZM132.82,211.93s0,0-.01.01c0,0,0,0,.01-.01ZM177.7,201.14c6.26,2.37,12.53,4.38,18.8,6.11-6.27-1.73-12.54-3.74-18.8-6.11h0ZM148.82,197.54s.03.04.04.06c0,.01.02.02.02.03l-.06-.09ZM146.67,196.41c.85,0,1.57.35,2.09,1.03-.56-.73-1.33-1.08-2.26-1.03-.08,0-.16.01-.24.02.08-.01.16-.02.24-.02.06,0,.11,0,.17,0Z" style="fill: #fff;"/>
  <path d="M164.89,219.58h0c-.21,0-.43,0-.64,0l-.91-.03-.06-.91c-.01-.2,0-.39.04-.56-.42-.23-.8-.65-1.17-1.27-8.6-14.38-21.62-35.52-35.39-52.96l-.31-.39,1.57-1.24.31.39c13.84,17.54,26.91,38.75,35.54,53.18.15.24.26.38.33.46.53-.14.89.11,1.03.24.37.34.39.75.32,1.1,6.58-.24,13-3.9,16.99-9.69-11.96-19.04-25.8-39.04-42.3-61.12l-.3-.4,1.6-1.2.3.4c16.68,22.33,30.66,42.55,42.74,61.81l.34.54-.35.53c-4.46,6.87-12,11.14-19.67,11.14ZM182.28,209.88c-4.23,5.26-10.47,8.51-16.83,8.69,6.37-.18,12.6-3.43,16.83-8.69ZM163.47,216.93c.22.24.41.32.54.35l.54.11-.17.53c-.03.09-.06.18-.08.29l.15-.51c.1-.28.14-.44.08-.48-.04-.04-.13,0-.19.02-.34.12-.65-.06-.89-.31ZM173.57,192.15c3.47,5.24,6.79,10.39,9.98,15.47l.17.27s0,0,0,0h0c-3.24-5.17-6.62-10.41-10.15-15.74ZM127.84,163.61c5.57,7.08,11.01,14.75,16.08,22.32-5.07-7.57-10.51-15.24-16.08-22.32h0Z" style="fill: #fff;"/>
  <path d="M66.05,216.97l-1.68-1.08.27-.42c7.21-11.26,12.64-24.79,17.9-37.87,5.54-13.79,11.27-28.04,19.1-39.77.46-.7,1.13-1.13,1.88-1.21.76-.09,1.51.18,2.13.75.39.36.64.83.85,1.24l.05.09c.7,1.32,1.52,2.5,2.43,3.52.07.07.13.13.18.18,0-.3-.05-.75-.08-1-.11-.98-.24-2.08.47-2.89.59-.67,1.56-.77,2.36-.25.37.24.65.56.9.84l.21.24c1.04,1.12,2.55,1.58,4.48,1.38,1.13-.12,1.98-.41,2.65-.92.31-.23.62-.54.94-.86.3-.29.59-.59.9-.84,1.32-1.1,2.4-1.09,3.07-.88,1.55.47,2.26,2.15,2.94,3.78.13.31.26.61.39.9.78,1.7,1.92,3.06,3.21,3.82.55.33,1.18.57,1.78.8l1.48.58c.75.29,1.49.11,2.42-.1.35-.08.71-.17,1.08-.23.34-.06.68-.23,1.03-.42.77-.4,1.92-1,3.16-.02.24.13.41.46.66.96.05.11.1.2.13.27l.69-.18-.38.74.04.07-.11.06-.16.32.41,1.57-1-.89c-.77.22-1.08-.4-1.41-1.07l-.16-.33c-.15-.11-.28-.08-.94.27-.43.23-.97.51-1.62.62-.32.05-.62.13-.93.2-1.1.26-2.31.55-3.63.03l-1.48-.58c-.68-.26-1.38-.53-2.07-.95-1.65-.97-3.07-2.64-4.02-4.72-.13-.29-.26-.6-.4-.91-.5-1.19-1.04-2.48-1.69-2.68-.28-.09-.72.1-1.21.51-.26.22-.51.47-.76.72-.37.36-.74.73-1.16,1.04-.98.73-2.13,1.15-3.64,1.31-2.59.28-4.66-.4-6.16-2.02-.08-.09-.16-.18-.24-.27-.11-.12-.21-.24-.3-.33-.02.31.04.8.07,1.07.11.99.24,2.12-.51,2.91-.32.33-.73.51-1.2.52-.79-.01-1.45-.58-1.87-1.05-1.02-1.14-1.93-2.46-2.7-3.91l-.05-.1c-.15-.27-.31-.58-.45-.71-.18-.17-.37-.25-.54-.23-.2.02-.36.2-.45.34-7.72,11.55-13.41,25.71-18.9,39.4-5.29,13.17-10.76,26.79-18.07,38.21l-.27.42ZM81.21,183.57c-3.26,8.02-6.66,16.07-10.58,23.53,3.92-7.47,7.33-15.51,10.58-23.53ZM138.12,147.84c-.18.04-.36.08-.54.12.18-.04.36-.08.54-.12ZM139.87,147.24s0,0-.01,0c-.34.18-.71.37-1.12.47.41-.1.77-.29,1.12-.47,0,0,0,0,.01,0ZM141.85,147.06s.08.06.13.1l.04.03s-.02-.02-.02-.03c-.05-.04-.1-.07-.14-.1ZM131.54,146.84c.25.13.51.24.76.35-.26-.11-.51-.22-.76-.35ZM130.15,145.93s0,0,0,0c0,0,0,0,0,0ZM127.39,142.11c.03.07.06.14.09.21.67,1.47,1.6,2.72,2.67,3.61-1.07-.89-2-2.14-2.67-3.61-.03-.07-.06-.14-.09-.21ZM102.54,138.29s-.05.07-.07.1c-1.44,2.15-2.81,4.4-4.12,6.71,1.31-2.31,2.68-4.55,4.12-6.71.02-.03.05-.07.07-.1ZM109.07,143.53c.1.04.21.06.3.07h0c-.1,0-.2-.03-.31-.07ZM110.36,139.12s-.04.04-.05.06c-.42.47-.32,1.27-.23,2.11.09.74.17,1.5-.14,1.97.31-.47.23-1.2.14-1.97-.09-.81-.19-1.64.23-2.11.02-.02.03-.04.05-.06ZM107.82,142.4c.14.17.28.33.42.48.04.05.09.1.13.14-.05-.05-.09-.09-.13-.14-.14-.16-.28-.32-.42-.48ZM107.82,142.4h0s0,0,0,0ZM112.67,140.4c1.19,1.05,2.76,1.5,4.69,1.35-1.93.16-3.5-.3-4.69-1.35ZM126.21,139.54c.32.55.6,1.21.87,1.85,0,.02.02.04.02.06,0-.02-.02-.04-.02-.05-.27-.65-.55-1.3-.87-1.85ZM112.07,139.79c.07.08.14.16.21.23l-.21-.23ZM111.36,139.1s0,0,.01,0c0,0,.01,0,.02.01,0,0-.01,0-.02-.01,0,0,0,0-.01,0ZM104.83,137.99s.09.08.14.12c.18.17.33.39.46.62-.14-.24-.28-.45-.46-.62-.04-.04-.09-.08-.14-.12ZM124.77,138.19s0,0,.01,0c0,0-.01,0-.01,0ZM103.8,137.6c.2,0,.39.04.59.12-.25-.1-.5-.14-.75-.11-.04,0-.08.01-.12.02.04,0,.08-.01.12-.02.06,0,.11-.01.17-.01Z" style="fill: #fff;"/>
  <path d="M83.71,231.04l-1.89-.65.16-.47c4.89-14.1,11.35-25.27,18.19-37.1,4.35-7.51,8.84-15.28,12.85-23.82l.21-.45,1.81.85-.21.45c-4.04,8.61-8.56,16.42-12.93,23.97-6.8,11.75-13.21,22.84-18.04,36.76l-.16.47ZM100.01,195.11c-4.64,8.02-9.06,15.82-12.9,24.53,3.84-8.71,8.27-16.51,12.9-24.53Z" style="fill: #fff;"/>
  <path d="M114.97,170.87c-.7,0-1.27-.37-1.64-.65-2.39-1.8-3.68-5.11-3.2-8.25l.07-.49,1.98.3-.07.49c-.36,2.39.64,5,2.43,6.35.32.24.44.24.44.24.03,0,.2-.1.59-.79.76-1.32,1.38-3.36,1.92-5.15.31-1.01.6-1.97.9-2.77.21-.55.68-.93,1.25-1.02.57-.08,1.12.14,1.48.61.63.82.37,2.45.02,3.52.56-.49,1.11-.98,1.65-1.48.55-.51,1.32-.61,1.96-.24.58.33.91.95.9,1.61,2.12-1.3,4.36-2.4,6.65-3.26l.47-.17.7,1.87-.47.17c-2.34.88-4.62,2.01-6.77,3.38-.58.37-1.3.36-1.86-.03-.46-.31-.73-.82-.77-1.37-.65.59-1.32,1.18-2,1.75-.66.55-1.56.54-2.2-.02-.17-.15-.32-.34-.43-.56-.47,1.5-1.01,3.01-1.67,4.16-.31.53-.95,1.65-2.12,1.78-.07,0-.14.01-.21.01ZM114.23,169.63c.25.15.54.26.84.23.04,0,.09-.01.13-.02-.04.01-.09.02-.13.02-.3.03-.59-.09-.84-.23ZM116.89,167.68c-.15.32-.3.63-.46.9-.19.32-.39.66-.65.91.28-.27.49-.64.65-.91.16-.28.31-.58.46-.9ZM111.06,162.62c-.21,2.51.79,5.06,2.6,6.58-1.78-1.51-2.8-4.11-2.6-6.58h0ZM120.01,164.68s.03.03.05.04c.27.23.6.24.88.03-.33.25-.67.15-.87-.03-.02-.01-.03-.03-.05-.05ZM124.95,164.31c.23.15.51.16.75,0,.29-.18.58-.37.88-.54-.29.18-.59.36-.88.54-.35.21-.63.07-.75,0ZM124.25,162.42c.25.15.48.48.36,1-.07.35.06.7.33.89h0c-.28-.2-.4-.55-.32-.95.08-.39-.07-.76-.38-.94ZM119.33,160.5s0,.01,0,.02c-.29.76-.58,1.7-.88,2.7-.03.11-.06.21-.1.32.03-.11.06-.21.1-.32.31-1.01.59-1.95.88-2.7v-.02ZM120.31,160.36h0c.41.55.03,2.33-.31,3.07.34-.74.72-2.52.31-3.06,0,0,0,0,0,0ZM123.57,162.44s-.05.04-.08.06c.02-.02.05-.04.08-.06ZM124.06,162.35c.06.01.12.04.18.07-.06-.03-.12-.05-.18-.07ZM119.87,160.13s-.06,0-.09,0c-.1.01-.18.05-.26.1l.47-.1s-.08-.01-.13-.01Z" style="fill: #fff;"/>
  <path d="M113.07,158.79l-.18-.47c-1.48-3.95-4.75-6.81-7.64-9.32l-.38-.33,1.31-1.51.38.33c2.91,2.54,6.54,5.71,8.2,10.13l.18.47-1.87.7ZM106.29,148.57c.06.05.11.1.17.15-.06-.05-.12-.1-.17-.15h0Z" style="fill: #fff;"/>
  <path d="M115.96,158.73c-.11,0-.21,0-.31-.01l-1.01-.09,1.17-11.57,1.99.2-.93,9.25c.11-.06.22-.13.32-.21l.39-.31,1.25,1.56-.39.31c-.71.57-1.59.88-2.48.88ZM117.39,157.35c-.32.18-.67.3-1.04.35h-.03c.37-.04.73-.17,1.07-.35h0ZM116.69,148.15l-.36,3.56.36-3.56Z" style="fill: #fff;"/>
  <path d="M121.26,157.48c-.07,0-.15,0-.22-.02-.41-.06-.8-.31-1.04-.66-.26-.38-.38-.86-.35-1.43.06-1.2.63-2.2,1.13-3.08l.12-.21c.89-1.57,1.62-3.25,2.18-5l.15-.48,1.91.61-.15.48c-.6,1.88-1.39,3.69-2.35,5.38l-.12.22c-.41.72-.84,1.46-.87,2.19,0,.16.01.22.01.22l.82,1.21-.37.29c-.24.19-.54.29-.85.29ZM120.8,156.21s.01.02.02.02c0,0,0,0,0,0h0s0-.02-.01-.03ZM120.65,155.25c0,.06-.01.11-.01.17,0,.09,0,.17,0,.24,0-.08,0-.16,0-.25,0-.06,0-.11.01-.17ZM123.87,147.86c-.56,1.65-1.26,3.23-2.11,4.72l-.12.22c-.08.14-.16.29-.25.44.08-.15.16-.29.25-.44l.12-.22c.84-1.49,1.55-3.07,2.11-4.72h0Z" style="fill: #fff;"/>
  <path d="M125.24,168.74l-.46-6.13-.27-.03-.07-.85-.07-.04.06-.15-.03-.31h.15s.02-.08.03-.11c.05-.16.09-.3.14-.41l.19-1.03c-.9.87-1.72,1.84-2.44,2.9l-.28.41-1.65-1.13.28-.41c1.07-1.56,2.33-2.96,3.73-4.16.5-.43,1.2-.5,1.77-.17.6.35.91,1.05.78,1.75l-1.85,9.87ZM121.92,161.6h0c.97-1.34,2.08-2.54,3.31-3.56l.09-.08s-.1.05-.14.09c-1.21,1.04-2.31,2.23-3.27,3.55ZM125.6,161.19l.04.02.04-.2-.03.06s-.03.08-.05.12ZM125.82,157.99c.06.03.11.08.16.14-.04-.06-.1-.11-.16-.14Z" style="fill: #fff;"/>
  <path d="M72.4,238.94c-1.32,0-2.52-.17-3.57-.51-2.61-.84-4.93-2.87-6.53-5.72-2.28-4.05-4.58-12.92.11-16.08,4.02-2.71,11.55,1.3,13.77,2.6,3.01,1.76,5.13,3.97,6.29,6.56,1.46,3.27,1.18,7.13-.7,9.59-1.5,1.97-3.91,3.09-7.37,3.45-.47.05-1.19.11-2,.11ZM71.48,237.91c1.02.07,2.18-.01,2.81-.07.64-.07,1.24-.16,1.81-.28-.56.12-1.16.21-1.81.28-.77.08-1.76.15-2.81.07ZM62.56,231c.2.44.4.85.61,1.22,1.41,2.52,3.42,4.34,5.68,5.16-2.23-.82-4.28-2.68-5.68-5.16-.2-.36-.41-.77-.61-1.22ZM65.79,217.73c-.94,0-1.7.19-2.25.56-3.36,2.25-1.45,9.95.51,13.44,1.33,2.37,3.3,4.12,5.4,4.79,1.68.54,3.51.44,4.75.31,2.88-.29,4.84-1.17,5.99-2.67,1.42-1.87,1.61-4.98.46-7.56-.99-2.21-2.83-4.11-5.47-5.65-2.54-1.49-6.53-3.22-9.39-3.22ZM66.64,216.77c2.92.27,6.51,1.84,9.04,3.32,2.83,1.65,4.8,3.71,5.88,6.11,1.27,2.84,1.07,6.27-.47,8.43,1.56-2.19,1.76-5.54.47-8.43-1.07-2.4-3.05-4.46-5.88-6.11-2.72-1.59-6.19-3.06-9.04-3.32ZM63.01,217.43h0s0,0,0,0ZM63.16,217.34c-.05.03-.1.06-.15.09.05-.03.1-.06.15-.09Z" style="fill: #fff;"/>
  <path d="M83.64,219.1l-1.99-.18.04-.5c.25-2.79,1.45-5.13,2.41-7.01,5.69-11.13,11.62-22.22,17.64-32.95l.24-.44,1.74.98-.24.44c-6,10.71-11.92,21.77-17.6,32.88-.88,1.73-1.98,3.88-2.2,6.28l-.04.5ZM82.75,218.02h0c.06-.41.13-.81.23-1.2-.09.39-.17.79-.23,1.2ZM100.52,182.71c-5.29,9.54-10.5,19.33-15.52,29.16-.16.32-.33.65-.5,1,.17-.35.34-.68.5-1,5.02-9.82,10.23-19.61,15.52-29.16Z" style="fill: #fff;"/>
  <polygon points="153.58 168.83 139.38 153.79 140.83 152.42 151.73 163.96 152.08 163.85 153.58 168.83" style="fill: #fff;"/>
  <path d="M74.77,235.66c-.11,0-.21,0-.32-.02l-.5-.06.25-1.99.5.06c.12.01.28,0,.49-.21.51-.52.81-1.7.68-2.7-.38-2.84-2.46-5.31-4.94-5.87l-.49-.11.44-1.95.49.11c3.27.74,6,3.91,6.48,7.55.22,1.64-.28,3.4-1.25,4.37-.52.53-1.16.8-1.84.8ZM75.08,234.62h0c.24-.05.47-.17.68-.35-.23.2-.47.3-.68.35ZM76.52,229.13c.16.48.27.98.34,1.48.08.59.04,1.22-.1,1.8.14-.58.18-1.21.1-1.8-.07-.51-.18-1-.34-1.48ZM76.52,229.13h0s0,0,0,0Z" style="fill: #fff;"/>
  <path d="M161.8,184.99l-.3-.4c-2.38-3.22-4.59-6.65-6.59-10.18l-.25-.44,1.74-.98.25.44c1.96,3.46,4.13,6.82,6.46,9.98l.3.4-1.61,1.19Z" style="fill: #fff;"/>
  <path d="M323.2,616.72c-.13,0-.28-.02-.52-.05-.45-.06-1.33-.17-3.27-.33l-.17-.03c-29.34-9.2-56.69-19.9-83.14-30.25-21.23-8.31-43.14-16.88-65.88-24.61-9.87-3.36-15.3-14.18-12.1-24.13,5.19-16.12,9.75-30.78,14.59-46.31,3.95-12.67,8.03-25.78,12.66-40.34,1.48-4.67,3.95-9.53,6.56-14.67,5.72-11.26,11.63-22.9,6.27-31.9l-25.39-42.56c-5.9-9.89-12-20.11-16.76-30.84-4.99-11.23-8.51-22.9-12.27-35.9-1.78-6.15-3.05-10.34-4.27-14.39-3.25-10.75-5.79-19.16-15.23-55.42l-.13-.48,1.94-.5.13.48c9.42,36.22,11.96,44.62,15.18,55.26,1.25,4.15,2.52,8.34,4.31,14.5,3.74,12.93,7.24,24.53,12.18,35.65,4.71,10.61,10.78,20.78,16.64,30.61l25.4,42.57c5.93,9.94-.24,22.08-6.2,33.83-2.58,5.07-5.01,9.86-6.44,14.37-4.64,14.6-8.72,27.68-12.66,40.33l-.06.19c-4.82,15.48-9.38,30.11-14.54,46.14-2.87,8.92,2,18.62,10.84,21.63,22.81,7.76,44.75,16.34,65.97,24.64,26.39,10.33,53.68,21,82.85,30.16,1.83.15,2.71.26,3.16.32,7.37-45.96,19.45-89.82,35.3-141.49l12.6-41.06,1.91.59-.15.48-12.45,40.58c-15.9,51.83-27.99,95.78-35.33,141.85-.08.5-.46.9-.96,1.02-.22.05-.38.08-.57.08ZM319.49,615.35h.06c1.9.16,2.8.27,3.23.33.29.04.37.06.55.03-.14.02-.25,0-.53-.03-.42-.05-1.28-.16-3.25-.33h-.05ZM346.92,514.47c-9.98,35.03-17.81,67.36-23.16,100.82l-.03.19s0-.01,0-.02c5.34-33.51,13.19-65.89,23.18-100.99ZM160.32,551.73c2.1,4,5.66,7.23,10.22,8.78,15.11,5.14,29.84,10.64,44.24,16.18-14.39-5.54-29.13-11.05-44.24-16.18-4.56-1.55-8.12-4.78-10.22-8.78ZM164.82,519.59c-1.86,5.88-3.76,11.85-5.74,18.04-.6,1.87-.88,3.77-.87,5.65-.01-1.87.27-3.78.87-5.65,1.99-6.18,3.89-12.15,5.74-18.04ZM346.94,514.39s-.01.04-.02.06c0-.02.01-.04.02-.06ZM186.61,450.13c-.1.28-.19.57-.28.85-.59,1.85-1.17,3.69-1.74,5.5.57-1.81,1.15-3.64,1.74-5.5.09-.28.18-.57.28-.85ZM141.46,283.39c.95,3.16,1.98,6.62,3.29,11.14,3.75,12.96,7.26,24.6,12.22,35.77,3.97,8.94,8.88,17.54,13.83,25.9-4.95-8.36-9.86-16.96-13.83-25.9-4.96-11.17-8.47-22.81-12.22-35.77-1.31-4.53-2.35-8-3.29-11.14ZM129.33,240.29c5.45,20.64,7.83,28.81,10.16,36.55-2.34-7.77-4.72-15.97-10.16-36.55Z" style="fill: #fff;"/>
  <path d="M314.24,579.22l-.91-.4c-1.75-.78-10.4-3.02-14.72-3.89-26.24-2.89-47.91-10.84-70.85-19.26-14.72-5.4-29.93-10.99-46.65-15.2-.54-.13-1.25-.34-1.93-.71-.2-.11-.63-.21-1.1-.26.02,0-.07,0-.15,0-.2-.01-.66-.05-.93-.45-.67-.3-1.97-.98-1.61-2.21,5.43-18.6,11.76-37.6,17.88-55.96,6.14-18.41,12.46-37.39,17.89-55.99.65-2.22,1.56-4.56,2.44-6.82,2.64-6.79,5.37-13.81,1.85-19.23-21.7-33.4-41.79-68.35-59.7-103.87-6.17-12.25-10.93-33.87-12.24-40.2l-.31-1.48,1.48.3c52.62,10.69,108.72,16.09,162.97,21.32l1.89.18.21.6c18.26,52.26,31.89,100.29,41.67,146.86l.09.64c.05.4.08.78.07,1.17v.57c-.05,1.45-.1,3.64,0,4.75.03.32-.03.86-.16,1.86-.06.46-.19,1.54-.17,1.74,2.05,12.78-1.33,22.39-5.25,33.52-1.49,4.23-3.03,8.59-4.35,13.4-2.39,8.67-4.76,18.96-7.27,29.86-5.44,23.58-11.6,50.3-19.75,68.25l-.41.9ZM313.4,577.77c.13.05.24.09.34.14,0,0,0,0,0-.01l-.34-.13ZM334.33,505.93c-.3,1.29-.6,2.6-.9,3.91-5.38,23.33-11.48,49.77-19.49,67.63l-.14.31c8.08-17.87,14.21-44.47,19.63-67.94.3-1.31.6-2.62.9-3.91ZM178.51,537.52c.59.08,1.31.29,1.64.47.38.21.82.37,1.45.53,16.81,4.24,32.08,9.84,46.85,15.26,22.83,8.38,44.4,16.3,70.45,19.17,3.92.79,11.31,2.67,14.31,3.69,7.88-17.77,13.91-43.92,19.24-67.02,2.52-10.93,4.9-21.25,7.29-29.95,1.35-4.89,2.89-9.28,4.39-13.53,3.83-10.87,7.13-20.26,5.16-32.55-.06-.38,0-.99.16-2.29.06-.46.16-1.29.15-1.45-.1-1.21-.05-3.46-.02-4.95v-.59c.02-.28,0-.56-.04-.85l-.08-.57c-9.72-46.25-23.25-94-41.38-145.94l-.62-.06c-53.78-5.18-109.39-10.54-161.68-21.05,1.49,6.97,6.05,26.9,11.76,38.22,17.88,35.46,37.92,70.34,59.59,103.68,4.08,6.28,1.16,13.78-1.66,21.04-.91,2.33-1.76,4.53-2.39,6.67-5.43,18.61-11.76,37.6-17.88,55.96-6.09,18.28-12.38,37.13-17.78,55.61.17.09.43.21.78.36.11.05.21.09.31.14ZM298.77,573.95c1.8.36,4.25.94,6.67,1.55-2.45-.62-4.92-1.2-6.65-1.55,0,0-.01,0-.02,0ZM263.8,566.87s.03,0,.04.01c-.01,0-.03,0-.04-.01ZM217.32,550.79c3.64,1.31,7.23,2.63,10.79,3.93,11.96,4.39,23.57,8.65,35.66,12.13-12.1-3.48-23.71-7.74-35.66-12.13-3.56-1.31-7.15-2.63-10.79-3.93ZM180.24,539.14c.36.15.72.25,1.02.33-.39-.1-.73-.21-1.02-.33ZM179.65,538.86s.01,0,.02.01c.08.04.16.08.24.12-.08-.04-.16-.08-.24-.12,0,0-.01,0-.02-.01ZM178.1,538.49c.14.01.31.03.48.06-.1-.02-.2-.03-.29-.05l-.19-.06c-.08-.05-.18-.09-.28-.13-.19-.08-.38-.17-.55-.25.09.04.19.09.29.13l.19.08.07.2s.12,0,.17.01c.03,0,.07,0,.1,0ZM179.39,526.93c-1.04,3.41-2.06,6.8-3.05,10.19,0,0,0,.01,0,.02v-.02c.99-3.39,2.01-6.79,3.05-10.19ZM346.21,463.21c-.37,1.07-.75,2.16-1.14,3.26-1.49,4.23-3.03,8.61-4.37,13.47-.82,2.97-1.63,6.13-2.45,9.44.82-3.31,1.64-6.47,2.45-9.44,1.33-4.84,2.87-9.22,4.36-13.45.39-1.1.77-2.19,1.14-3.27ZM194.99,478.88c-.25.76-.5,1.51-.75,2.26-.25.74-.5,1.49-.74,2.23.25-.75.5-1.49.74-2.23.25-.75.5-1.51.75-2.26ZM350.27,433.41v.02c.06.33.1.66.15.98-.05-.33-.09-.65-.15-.98,0,0,0-.01,0-.02ZM350.55,430.44c-.03.24-.06.56-.11.96-.04.35-.09.72-.12,1.05.03-.28.07-.62.12-1.03.04-.36.08-.7.11-.98ZM212.21,424.88c-.03.09-.06.19-.08.28-.25.86-.5,1.72-.76,2.58.25-.86.51-1.72.76-2.58.03-.09.06-.19.08-.28ZM350.58,423.89c0,.15,0,.3,0,.45v.57c-.02.26-.03.54-.03.84,0-.3.01-.58.02-.84v-.57c.02-.15.01-.3,0-.45ZM184.75,346.69c10.05,17.51,20.59,34.75,31.54,51.6,1.48,2.28,1.96,4.78,1.82,7.4.13-2.61-.34-5.11-1.82-7.4-10.95-16.85-21.48-34.09-31.54-51.6ZM238.6,268.83c23.05,2.64,46.17,4.86,68.96,7.06l.35.03-.35-.03c-22.79-2.2-45.91-4.42-68.96-7.06ZM238.45,268.82s.07,0,.1.01c-.03,0-.07,0-.1-.01ZM171.15,259.5s0,0,0,0h0ZM170.99,259.47s.05,0,.08.01c-.03,0-.05,0-.08-.01ZM144.49,254.56l.74.15c8.5,1.72,17.08,3.3,25.74,4.76-8.9-1.51-17.74-3.14-26.48-4.91h0ZM144.57,254.96c.09.43.19.92.31,1.47-.08-.4-.16-.77-.24-1.12l-.07-.34Z" style="fill: #fff;"/>
  <path d="M246.29,581.58c-1.84,0-3.88-.56-5.88-1.63-3.25-1.73-5.23-3.74-6.07-6.14-.59-1.68-.47-3.65.33-5.27.34-.7.81-1.32,1.37-1.8l-.21-.61.47-.16c5.33-1.81,10.51-1.29,13.87,1.41,2.15,1.73,3.41,4.73,3.21,7.65-.17,2.45-1.3,4.41-3.17,5.53-1.14.68-2.46,1.02-3.92,1.02ZM238.75,567.33l.06.18-.47.16c-1,.34-1.57,1.13-1.87,1.74-.55,1.13-.64,2.56-.23,3.73.67,1.9,2.34,3.55,5.12,5.04,3,1.6,5.85,1.84,7.83.66,1.3-.78,2.08-2.18,2.2-3.95.16-2.29-.81-4.63-2.47-5.96-2.46-1.97-6.14-2.54-10.17-1.6ZM235.65,568.82c-.03.05-.05.1-.08.15-.68,1.38-.78,3.07-.28,4.5.75,2.15,2.58,3.98,5.6,5.59.23.12.47.24.7.35-.23-.11-.47-.23-.7-.35-3.01-1.61-4.84-3.44-5.6-5.59-.49-1.41-.39-3.14.28-4.5.02-.05.05-.1.08-.15ZM252.19,572.54c.18.79.25,1.6.19,2.42-.03.48-.11.94-.22,1.37.12-.43.19-.89.22-1.37.06-.81-.01-1.63-.19-2.42ZM252.19,572.54s0,0,0,0t0,0ZM237.1,566.75l.11.33-.14.1c.15-.1.31-.19.48-.28l-.09-.27c-.12.04-.24.07-.36.11ZM238.96,566.26c-.38.08-.75.17-1.14.27l.15-.04c.33-.09.66-.17.98-.23Z" style="fill: #fff;"/>
  <path d="M263.25,433.41c-2.15,0-4.31-.17-6.44-.51-2.62-.42-6.38-1.29-8.86-4.02-2.32-2.56-2.97-7.19-.19-9.73,1.15-1.05,2.6-1.52,3.99-1.88,8.81-2.24,15.36-1.4,21.21,2.72,2.42,1.71,3.74,3.58,3.91,5.58.19,2.17-1.06,4.45-3.19,5.81-1.9,1.21-4.11,1.59-6.02,1.79-1.46.16-2.94.24-4.41.24ZM262.12,432.39c1.09.03,2.18.02,3.28-.04-1.09.06-2.19.07-3.28.04ZM251.95,430.52c1.73.79,3.56,1.17,5.02,1.4.44.07.89.13,1.34.19-.45-.06-.89-.12-1.34-.19-1.99-.32-3.64-.78-5.02-1.4ZM260.4,418.06c-2.48,0-5.18.38-8.16,1.14-1.14.29-2.31.66-3.14,1.41-1.86,1.7-1.37,5.05.32,6.91,1.57,1.73,4.01,2.81,7.7,3.39,3.41.54,6.88.63,10.32.26,1.68-.18,3.61-.5,5.16-1.49,1.51-.96,2.4-2.51,2.28-3.95-.12-1.38-1.15-2.77-3.07-4.12-3.39-2.39-7.07-3.56-11.4-3.56ZM275.04,428.68c-.47.71-1.11,1.35-1.9,1.85-.43.27-.88.5-1.34.69.46-.19.91-.42,1.34-.69.78-.5,1.43-1.14,1.9-1.85ZM250.98,418.53c-.93.3-1.82.7-2.54,1.36-2.27,2.08-1.79,5.85.06,8.1-1.84-2.25-2.27-6.08-.06-8.1.72-.66,1.62-1.06,2.54-1.36ZM271.59,420.28c.26.17.53.35.79.53,2.07,1.46,3.23,3.01,3.47,4.61-.23-1.6-1.4-3.16-3.47-4.61-.26-.18-.52-.36-.79-.53Z" style="fill: #fff;"/>
  <path d="M244.25,414.1l-7.62-11.41.99-.51c9.33-4.84,18.69-7.03,27.85-6.48,3.1.18,7.64.71,11.33,3.18l1.65,1.11-1.87.67c-1.03.37-1.94,1.37-2.78,3.05-1.05,2.12-1.77,4.38-2.14,6.71l-.08.49-1.96-.28v-.08c-2.9-.53-6.01-.43-9.03-.32-1.44.05-3.05.1-4.59.08-4.25-.08-8,.09-10.9,2.96l-.86.86ZM244.4,412.52h0c.12-.1.23-.21.35-.32l-.36.32ZM239.53,403.44l5.06,7.58c3.29-2.64,7.28-2.8,11.44-2.74,1.46.03,2.98-.03,4.45-.08,3.14-.11,6.37-.22,9.49.35.44-1.99,1.12-3.93,2.03-5.75.67-1.36,1.42-2.38,2.26-3.09-3.03-1.51-6.5-1.88-8.93-2.02-8.47-.5-17.15,1.44-25.81,5.75ZM270.74,409.76h.02c.02-.14.05-.28.08-.42l-.08.39-.24-.05.23.05v.03ZM264.28,409.12c1.84,0,3.68.09,5.46.41-3-.54-6.15-.43-9.2-.33-.09,0-.19,0-.28,0,.09,0,.19,0,.28,0,1.24-.04,2.49-.08,3.74-.08ZM255.95,409.28c.05,0,.1,0,.16,0-.05,0-.1,0-.16,0ZM262.71,396.61c-8,0-16.15,2.1-24.29,6.27l.15-.08c8.86-4.51,17.76-6.57,26.45-6.13-.77-.04-1.54-.06-2.31-.06ZM276.16,399.64l-.69.43c-.86.53-1.62,1.42-2.31,2.69.9-1.64,1.91-2.65,3.08-3.07h0l-.08-.05ZM267.1,396.82c2.53.25,5.65.84,8.36,2.39h.02c-2.71-1.55-5.82-2.14-8.38-2.39Z" style="fill: #fff;"/>
  <path d="M237.74,395.36l-.54-.95c-1.96-3.44-5.03-6.45-8.41-8.25l-1.26-.67,1.06-.95c4.26-3.85,9.59-6.73,15.84-8.58,5.22-1.54,11.03-2.35,17.77-2.46,6.79-.11,12.58.53,17.68,1.96,6.19,1.74,11.61,4.79,15.66,8.82l1.25,1.24-1.7.44c-3.69.95-7.2,2.47-10.41,4.52-.69.44-1.36.9-2.04,1.37-1.48,1.02-3,2.06-4.65,2.85l-.52.25-.48-.33c-5.57-3.79-12.35-5.88-19.09-5.88h-.1c-6.78.02-13.58,2.15-19.16,6.01l-.9.62ZM229.27,385.28h0c3.54,1.89,6.75,5.04,8.81,8.64h0s0,0,0,0c.73-.5,1.47-.97,2.23-1.42-.61.35-1.21.73-1.8,1.12l-.44.29-.27-.45c-1.94-3.22-4.76-6.01-7.93-7.84l-.6-.35s0,0,0,0h0ZM275.96,392.78c.54.33,1.07.67,1.59,1.02h0s0,0,0,0l-.24-.16c-.44-.3-.9-.58-1.36-.86ZM278.89,393.09c-.35.2-.71.4-1.07.58l-.07.04c.39-.19.77-.4,1.15-.62ZM257.9,386.74c6.93,0,13.93,2.09,19.73,5.9,1.33-.7,2.63-1.59,3.88-2.45.71-.49,1.4-.96,2.1-1.41,2.88-1.84,5.99-3.28,9.26-4.28-3.65-3.2-8.3-5.65-13.52-7.12-4.93-1.38-10.52-2.01-17.11-1.89-6.55.11-12.19.89-17.23,2.38-5.45,1.61-10.17,4.05-14.02,7.25,2.92,1.83,5.52,4.42,7.41,7.39,5.73-3.7,12.6-5.75,19.4-5.77h.11ZM282.29,390.87c-.07.05-.13.09-.2.14-.13.09-.25.17-.38.26.12-.08.24-.17.36-.25.07-.05.15-.1.22-.15ZM257.79,387.74c-.23,0-.45,0-.68,0,.23,0,.45,0,.68,0h.13-.13ZM257.95,387.74h0,0ZM257.94,387.74h0,0ZM257.92,387.74h0,0ZM294.84,384.98l-.77.22c.26-.07.52-.14.78-.21h0ZM278.53,376.13c.37.09.73.19,1.09.29,5.34,1.5,10.11,4.01,13.87,7.3-3.75-3.28-8.51-5.79-13.87-7.3-.36-.1-.72-.2-1.09-.29ZM231.23,383.64h0s0,0,0,0ZM243.35,377.34c-4.61,1.51-8.67,3.62-12.12,6.3,3.45-2.67,7.52-4.78,12.12-6.3ZM243.36,377.34s0,0-.01,0c0,0,0,0,.01,0ZM262.49,374.49c-.09,0-.18,0-.26,0-.92.02-1.81.04-2.7.08.88-.04,1.78-.07,2.7-.08.09,0,.18,0,.26,0Z" style="fill: #fff;"/>
  <path d="M296.95,380.16l-.87-.88c-.37-.37-.7-.74-1.03-1.09-1.06-1.14-1.96-2.11-3.33-2.87-11.2-6.21-24.35-9.15-38.02-8.48-12.59.61-25.63,4.35-37.73,10.82l-.83.44-.49-.8c-2.42-3.92-5.93-7.26-10.43-9.93l-1.5-.89,1.52-.85c10.69-5.98,22.29-10.23,34.47-12.64,4.15-.82,8.59-1.48,13.98-2.06,3.77-.41,8.74-.87,13.7-.81,16.15.19,32.02,5.72,44.69,15.57l1.08.84-1.13.77c-4.05,2.76-7.91,5.88-11.46,9.26-.73.69-1.35,1.63-1.95,2.54l-.68,1.03ZM296.8,378.57h0c.1-.14.19-.29.29-.43l-.29.43ZM295.82,377.55c.22.23.43.46.66.7l-.66-.7ZM257.5,364.75c12.62,0,24.79,3.05,35.19,8.82,1.64.91,2.69,2.04,3.81,3.24l.16.17c.44-.63.96-1.29,1.54-1.85,3.29-3.14,6.85-6.05,10.57-8.68-12.13-9.06-27.16-14.14-42.4-14.32-4.86-.05-9.75.4-13.47.8-5.33.58-9.71,1.22-13.8,2.03-11.41,2.26-22.3,6.17-32.39,11.61,3.79,2.48,6.86,5.47,9.14,8.9,12.12-6.34,25.17-10.01,37.76-10.62,1.29-.06,2.6-.09,3.9-.09ZM213.7,374.2c.65.83,1.26,1.69,1.81,2.58h0c.13-.07.26-.14.39-.21l-.38.2-.25-.39c-.48-.75-1-1.48-1.56-2.19ZM310.47,366.49l-.56.39c-.73.51-1.46,1.03-2.18,1.56.9-.67,1.82-1.31,2.74-1.95h0s0,0,0,0ZM204.74,366.52h0c.24.14.48.28.71.43l-.7-.44s0,0,0,0h0ZM254.35,365.82c-.23,0-.46.02-.69.03-2,.1-4.01.27-6.02.52,2.02-.25,4.02-.43,6.02-.52.23-.01.46-.02.69-.03ZM223.38,358.18c-6.29,2.17-12.36,4.87-18.17,8.08l.28-.15c5.72-3.14,11.7-5.79,17.89-7.92ZM266.06,351.13c.11,0,.22,0,.33,0,15.68.19,31.14,5.49,43.54,14.94l.12.09c-12.42-9.51-27.91-14.85-43.66-15.04-.11,0-.22,0-.33,0ZM223.4,358.17s0,0-.01,0c0,0,0,0,.01,0ZM223.42,358.16h0,0Z" style="fill: #fff;"/>
  <path d="M368.55,436.29l-.21-.45c-9.51-19.98-14.92-41.71-20.16-62.72-4.68-18.77-9.48-38.03-14.29-57.28l-1.5-6.02c-4.3-17.24-8.6-34.45-12.79-51.26l-.12-.49,1.94-.48.12.49c4.68,18.77,9.48,38.02,14.29,57.28l1.5,6.02c4.3,17.24,8.6,34.45,12.79,51.26,5.21,20.92,10.6,42.55,20.02,62.35l.21.45-1.8.86ZM320.69,258.8c4.15,16.65,8.4,33.69,12.66,50.77l1.5,6.02c4.81,19.26,9.61,38.51,14.29,57.28.96,3.86,1.93,7.74,2.92,11.62-1-3.89-1.96-7.77-2.92-11.62-4.19-16.81-8.48-34.01-12.79-51.26l-1.5-6.02c-4.76-19.09-9.53-38.18-14.17-56.79h0Z" style="fill: #fff;"/>
  <path d="M368.77,437.37l-1.37-1.46.36-.34c2.6-2.43,4.68-4.53,6.53-6.38,4.56-4.58,7.88-7.91,14.83-12.54-9.74-28.39-17.47-59.36-24.96-89.32-7.27-29.11-14.78-59.17-24.08-86.7l-.16-.47,1.89-.64.16.47c9.34,27.63,16.86,57.74,24.13,86.86,7.54,30.18,15.33,61.38,25.16,89.89l.25.74-.65.43c-7.22,4.74-10.55,8.08-15.16,12.7-1.88,1.89-3.97,3.99-6.58,6.43l-.37.34ZM368.82,435.96h0c2.42-2.29,4.4-4.27,6.15-6.03,4.68-4.7,8.04-8.08,15.35-12.87-3.96-11.48-7.59-23.4-11-35.51,3.38,11.98,6.97,23.77,10.88,35.14l.13.37-.32.21c-7.09,4.68-10.41,8.01-15,12.62-1.76,1.77-3.75,3.76-6.19,6.06ZM379.3,381.47s0,.03.01.04c0-.01,0-.03-.01-.04ZM349.04,265.95c3.73,12.83,7.2,25.95,10.54,39.04-3.34-13.1-6.81-26.21-10.54-39.04ZM349.02,265.87s0,.03.01.05c0-.02,0-.04-.01-.05Z" style="fill: #fff;"/>
  <path d="M323.09,616.73l-.22-1.99.5-.06c2.83-.32,4.87-.5,6.5-.65,4.96-.45,5.47-.5,10.97-2.73l.46-.19.75,1.85-.46.19c-5.77,2.34-6.43,2.4-11.51,2.87-1.53.14-3.62.33-6.49.65l-.5.06ZM323.97,615.62h0c1.46-.16,2.72-.29,3.79-.39-1.09.1-2.33.23-3.79.39ZM331.23,614.91c-.39.04-.8.07-1.25.12-.3.03-.61.05-.93.08.33-.03.64-.06.93-.08.45-.04.87-.08,1.25-.12Z" style="fill: #fff;"/>
  <path d="M341.58,613.23l-1.84-.79.2-.46c4.18-9.71,11.84-35.06,13.9-45.97,7.29-38.72,14.07-64.86,21.92-95.13,4.26-16.43,8.66-33.37,13.59-54.05l.12-.49,1.95.46-.12.49c-4.96,20.79-9.35,37.72-13.6,54.09-7.84,30.24-14.62,56.35-21.89,95-2.07,11.01-9.81,36.59-14.03,46.39l-.2.46ZM348.77,589.31s0,0,0,0h0ZM352.13,577.53c-.99,3.72-2.15,7.76-3.36,11.78,1.21-4.02,2.37-8.06,3.36-11.78ZM386.74,431.85c-2.96,11.99-5.74,22.8-8.44,33.25,2.7-10.43,5.48-21.24,8.44-33.25ZM390.21,417.55c-.08.35-.17.7-.25,1.05.08-.35.17-.7.25-1.05h0Z" style="fill: #fff;"/>
  <path d="M368.71,437.02l-.29-.41c-.96-1.36-1.96-2.65-2.97-3.83-1.19-1.39-2.13-2.31-3.02-2.98-3.26-2.41-6.89-1.94-10.41-1.5l-.5.06-.25-1.98.5-.06c3.73-.47,7.95-1.01,11.85,1.87,1.02.76,2.06,1.77,3.36,3.28,1.06,1.23,2.09,2.57,3.08,3.98l.29.41-1.63,1.15ZM365.9,431.78c.1.12.2.23.31.36.83.97,1.65,2,2.44,3.09-.79-1.08-1.61-2.12-2.44-3.09-.1-.12-.21-.24-.31-.36ZM362.92,428.93s.07.05.1.07c.09.07.18.13.27.2-.09-.07-.18-.14-.27-.2-.03-.02-.07-.05-.1-.07ZM352.39,427.26h0s.03,0,.05,0c-.02,0-.03,0-.05,0Z" style="fill: #fff;"/>
  <path d="M364.69,443.45l-.26-.43c-.76-1.27-2.66-3.43-10.34-7.49-.32-.17-.63-.36-.94-.54-1.04-.63-1.88-1.13-2.7-.98l-.49.09-.36-1.97.49-.09c1.57-.29,2.88.51,4.04,1.21.3.18.6.36.9.52,6.27,3.31,9.7,5.85,11.12,8.23l.26.43-1.71,1.03ZM354.26,434.48c.1.06.2.11.3.17,5.5,2.9,8.14,4.91,9.52,6.32-1.75-1.81-4.8-3.83-9.52-6.32-.1-.05-.2-.11-.3-.17ZM350.8,432.97c.99.02,1.91.58,2.81,1.12.02.01.04.03.07.04-.02-.01-.04-.02-.06-.04-.94-.57-1.83-1.1-2.81-1.12Z" style="fill: #fff;"/>
  <path d="M370.16,433.15c-.23,0-.41-.06-.53-.1-.52-.21-.8-.75-.7-1.31.1-.51.55-1.06,1.19-1.07.04,0,.08,0,.12,0,7.08-10.89,10.17-24.49,8.48-37.36l-.06-.5,1.98-.26.07.5c1.78,13.53-1.54,27.82-9.1,39.18-.51.76-1.07.92-1.45.92ZM370.17,431.68c-.09,0-.17.06-.21.14l.27-.06s-.02-.06-.05-.08h-.02ZM379.79,393.67c1.36,11.19-.81,22.88-6,32.91,5.2-10.03,7.36-21.71,6-32.91h0Z" style="fill: #fff;"/>
  <path d="M369.96,462.52l-.05-.5c-.74-7.27,1.78-14.82,6.71-20.2l.34-.37,1.47,1.35-.34.37c-4.56,4.97-6.88,11.94-6.2,18.64l.05.5-1.99.2Z" style="fill: #fff;"/>
  <path d="M351.43,317.93c-1.38,0-2.58-.98-3.59-2.91-2.47-4.75-6.59-14.16-6.47-23.88.04-3.27,1.12-4.24,2.02-4.48,1.28-.34,2.58.6,3.87,2.78,2.08,3.51,3.1,7.47,4.08,11.3l2.81,10.95c.26,1.02.56,2.18.33,3.4-.24,1.31-1.29,2.71-2.83,2.84-.08,0-.16.01-.24.01h0ZM349.26,315.45c.6.88,1.24,1.36,1.92,1.46-.67-.1-1.32-.59-1.92-1.46ZM353.1,315.92c-.08.12-.16.23-.25.33.09-.1.18-.21.25-.33ZM343.9,288.59c-.11.09-.51.74-.53,2.57-.12,9.29,3.86,18.35,6.24,22.93.64,1.23,1.27,1.87,1.88,1.83.51-.04.93-.66,1.03-1.21.15-.79-.09-1.72-.3-2.53l-2.8-10.91c-.96-3.72-1.94-7.56-3.88-10.82-.86-1.45-1.47-1.83-1.65-1.86ZM353.1,315.92h0s0,0,0,0ZM347.61,292.27c1.25,2.79,2.03,5.81,2.78,8.75l2.8,10.91c.06.24.12.48.18.73-.06-.25-.12-.49-.18-.72l-2.82-10.96c-.75-2.93-1.52-5.93-2.77-8.71ZM342.38,290.98c0,.06,0,.11,0,.17,0,.35,0,.7,0,1.04,0-.35,0-.69,0-1.04,0-.06,0-.11,0-.17ZM343.96,287.59c.56.04,1.2.55,1.87,1.46-.67-.92-1.32-1.42-1.87-1.46ZM343.74,287.6s-.06.01-.08.02c-.05.01-.1.03-.16.06.05-.02.1-.04.16-.06.03,0,.05-.01.08-.02Z" style="fill: #fff;"/>
  <path d="M360.69,353.77c-1.75,0-3.53-.85-4.88-2.33-1.34-1.47-2.11-3.31-2.68-4.93-2.03-5.69-4.42-13.64-1.72-17,.51-.63,1.19-.94,1.94-.85,2.23.26,4.51,4.1,7.23,9.79.19.4.34.7.44.91.67,1.32,1.37,2.69,1.81,4.21.75,2.6.64,5.26.54,7.83-.02.4-.05,1.05-.49,1.59-.35.42-.86.66-1.55.75-.21.02-.42.04-.63.04ZM361.42,352.7c-.07.01-.14.03-.22.04-.04,0-.08,0-.12.01.04,0,.08,0,.12-.01.08,0,.15-.02.22-.04ZM362.18,352.24s-.05.07-.08.11c-.03.03-.06.06-.09.09.03-.03.06-.06.09-.09.03-.03.05-.07.08-.11ZM362.42,349.72c-.01.55-.04,1.1-.06,1.64,0,.2-.02.39-.06.56.05-.19.06-.39.06-.56.02-.55.05-1.09.06-1.65ZM355.01,345.84c.51,1.43,1.18,3.05,2.28,4.25,1.09,1.2,2.52,1.81,3.79,1.66.22-.03.29-.07.29-.07-.03,0,0-.13,0-.36.1-2.41.21-4.9-.46-7.19-.38-1.32-1.04-2.61-1.67-3.86-.11-.21-.26-.52-.44-.91-3.55-7.42-5.08-8.64-5.68-8.71-.03,0-.06.02-.15.12-1.05,1.31-1.55,4.98,2.04,15.07h0ZM355.9,349.96c.2.28.41.55.64.8.09.1.19.2.29.3-.1-.1-.2-.2-.29-.3-.23-.25-.45-.52-.64-.8ZM355.9,349.96h0s0,0,0,0ZM351.3,335.7c.41,3.73,1.9,8.04,2.66,10.17-1.48-4.18-2.36-7.56-2.66-10.17ZM360.85,341.26c.4.83.76,1.69,1.02,2.58.15.51.26,1.02.34,1.54-.08-.52-.2-1.03-.34-1.54-.26-.89-.62-1.75-1.02-2.58ZM356.17,332.42c.99,1.5,2.14,3.63,3.5,6.46.09.19.17.35.24.5-.07-.14-.15-.31-.23-.48-.76-1.58-2.1-4.37-3.51-6.48ZM352.63,329.76c-.16.08-.3.21-.44.38-.04.05-.07.09-.11.14.03-.05.07-.09.11-.14.14-.17.29-.3.44-.38ZM353.24,329.66s0,0,0,0h0Z" style="fill: #fff;"/>
  <path d="M209.32,259.08c-.56,0-1.17-.11-1.81-.31-.37-.12-.78-.29-1.12-.65-.37-.4-.55-.91-.5-1.47.06-.74.5-1.52,1.15-2.03,1.16-.92,2.78-1.27,4.22-.91l.49.12-.1.42c.55.38.93.96,1.02,1.59.17,1.25-.68,2.55-1.99,3.02-.41.15-.86.23-1.34.23ZM210.92,257.57c-.19.15-.4.27-.61.34-.05.02-.1.04-.15.05.05-.02.1-.03.16-.05.22-.08.43-.2.6-.34ZM207.17,257.5c.07.06.16.12.25.17-.09-.05-.17-.1-.25-.17ZM206.87,256.83c0,.22.07.4.21.56-.13-.16-.2-.35-.21-.56ZM207.87,256.78s.09.03.24.08c.76.25,1.38.28,1.85.11.37-.14.74-.52.69-.87,0-.07-.1-.19-.24-.25-.05-.02-.09-.02-.11-.03l-.41.29-.33-.5c-.48.08-.94.28-1.31.58-.22.18-.38.45-.4.6,0,0,0,0,0,0ZM211.62,255.81c.02.05.03.1.03.16,0,.03,0,.05,0,.08,0-.03,0-.05,0-.08,0-.05-.02-.1-.03-.16ZM210.32,254.82c.16,0,.33.04.5.11,0,0,0,0,.01,0l-.37-.17.05-.18c-.15-.02-.3-.02-.45-.02l.18.26s.05,0,.07,0Z" style="fill: #fff;"/>
  <path d="M234.84,263.45c-.31,0-.62-.02-.93-.04-4.22-.29-7.46-1-10.22-2.25l-.55-.24c-1.3-.56-3.08-1.34-3.88-2.35-.94-1.18-.6-2.17-.41-2.54.46-.89,1.55-1.39,2.83-1.33,3.31.17,6.51,1.03,9.61,1.86.92.25,1.86.5,2.78.88,1.59.66,3.04,1.67,4.2,2.94l.42.45-.22.58c-.33.88-1.15,1.58-2.2,1.87-.43.12-.89.17-1.44.17ZM230.88,262.1c.97.14,2,.24,3.1.31.07,0,.15,0,.22.01-.07,0-.15,0-.22-.01-1.1-.07-2.13-.18-3.1-.31ZM235.94,262.33c-.18.04-.36.07-.54.09.19-.02.37-.05.54-.09ZM237.37,261.4l-.02.03c-.27.38-.71.69-1.22.85.54-.17.98-.49,1.25-.88ZM221.47,256.69c-.5,0-.79.18-.83.26,0,.02.01.15.2.38.49.62,2.13,1.33,3.11,1.76l.57.25c2.54,1.15,5.57,1.81,9.54,2.08h0c.64.04,1.21.07,1.71-.07.17-.05.33-.12.47-.21-.85-.78-1.84-1.42-2.9-1.85-.8-.33-1.69-.57-2.54-.8-3-.8-6.09-1.63-9.19-1.8-.04,0-.08,0-.12,0ZM231.78,257.73c.64.18,1.29.38,1.91.64,1.34.55,2.58,1.39,3.6,2.43l.03.03c-1.02-1.05-2.27-1.9-3.63-2.46-.62-.26-1.27-.46-1.91-.64ZM221.18,258.86c.73.44,1.63.83,2.36,1.15l.56.25c.18.08.35.16.53.23-.18-.07-.35-.15-.53-.23l-.56-.25c-.87-.38-1.7-.75-2.36-1.15ZM221.46,255.69c-.81,0-1.46.3-1.72.8-.15.29-.22.76.24,1.39-.47-.63-.39-1.1-.24-1.39.27-.53,1.01-.84,1.89-.79,1.04.05,2.07.18,3.1.35-1.03-.17-2.06-.3-3.1-.35-.06,0-.12,0-.17,0ZM231.43,257.63h0ZM230.68,257.43c.12.03.24.06.36.1.13.03.26.07.39.1-.13-.04-.26-.07-.39-.1-.12-.03-.24-.06-.36-.1Z" style="fill: #fff;"/>
  <path d="M319.13,426.02l-.11-.49c-.49-2.13-2.07-3.98-3.46-5.61-5.34-6.25-11.99-14.03-20.68-17.07l-.47-.17.66-1.89.47.16c9.2,3.22,16.04,11.22,21.54,17.65,1.54,1.81,3.29,3.85,3.89,6.47l.11.49-1.95.45ZM295.69,402.08c6.79,2.52,12.31,7.78,16.93,12.92-4.62-5.15-10.13-10.4-16.93-12.92h0Z" style="fill: #fff;"/>
  <path d="M329.2,418.22l-.29-.41c-5.85-8.4-13.12-15.56-21.61-21.28l-.42-.28,1.12-1.66.41.28c8.69,5.86,16.14,13.2,22.13,21.8l.29.41-1.64,1.14Z" style="fill: #fff;"/>
  <path d="M328.2,399.8l-.5-.05c-1.99-.2-3.69-1.18-5.33-2.12-7.47-4.3-15.17-8.41-22.89-12.22l-.45-.22.89-1.79.45.22c7.76,3.83,15.5,7.96,23,12.28,1.46.84,2.97,1.71,4.54,1.87l.5.05-.2,1.99ZM326.09,398.36c.4.14.8.25,1.22.32h0c-.41-.07-.82-.19-1.22-.32ZM300.36,384.72c7.59,3.76,15.15,7.8,22.5,12.03l.1.06-.1-.06c-7.34-4.22-14.91-8.27-22.5-12.03h0Z" style="fill: #fff;"/>
  <path d="M233.84,412.9l-.12-.48c-1.55-6.17-4.95-11.98-9.57-16.37l-.36-.34,1.38-1.45.36.34c4.89,4.64,8.49,10.79,10.14,17.33l.12.48-1.94.49ZM225.2,395.67c2.48,2.43,4.61,5.26,6.29,8.34-1.68-3.08-3.8-5.91-6.29-8.34h0Z" style="fill: #fff;"/>
  <path d="M227.29,411.06l-1.99-.24.06-.5c.25-2.08-1.34-4.25-3.39-4.66l-.49-.1.39-1.96.49.1c3.07.61,5.36,3.74,4.99,6.85l-.06.5ZM226.38,409.95h0c.03-2.27-1.56-4.46-3.73-5.13h0c2.14.67,3.75,2.89,3.73,5.13Z" style="fill: #fff;"/>
  <path d="M205.76,408.19l-1.87-.7.18-.47c1.02-2.74,4.12-5.45,7.19-6.47-5.45-2.56-11.08-4.79-16.78-6.64l-.48-.15.62-1.9.48.15c7.02,2.28,13.92,5.12,20.51,8.43l.41.21-.73,1.78-.44-.15c-2.95-.97-7.75,2.37-8.9,5.44l-.18.47ZM213.69,401.11c.34,0,.68.03,1.01.1l.04-.09c-.12-.06-.24-.12-.35-.18l-1.18.18c.16-.01.33-.02.49-.02ZM197.3,393.81c5.32,1.84,10.57,4,15.65,6.44l.08.04c-5.1-2.46-10.37-4.63-15.72-6.48Z" style="fill: #fff;"/>
  <path d="M201.16,421.42l-1.3-1.52.38-.33c5.45-4.69,10.05-10.23,13.66-16.45l.25-.43,1.73,1.01-.25.43c-3.73,6.41-8.47,12.12-14.09,16.96l-.38.33ZM213.8,405.23c-3.1,5.01-6.85,9.55-11.17,13.54,4.32-4,8.06-8.54,11.17-13.54Z" style="fill: #fff;"/>
  <path d="M309.52,235.67l-.39-.32c-5.19-4.26-12.27-6.24-18.92-5.3l-.5.07-.28-1.98.5-.07c7.2-1.02,14.85,1.12,20.47,5.73l.39.32-1.27,1.54ZM290.57,229h0s.03,0,.04,0c-.01,0-.03,0-.04,0Z" style="fill: #fff;"/>
  <path d="M345.78,274.86l-4.2-9.69c-1.01-2.33-2.27-5.24-1.97-8.23l.05-.5,1.99.2-.05.5c-.25,2.48.85,5.01,1.81,7.24l4.2,9.69-1.83.79ZM342.11,263.86c.13.31.26.62.39.91l3.8,8.77-3.8-8.77c-.13-.3-.26-.6-.39-.91ZM340.57,257.54s0,.06,0,.08c0-.03,0-.06,0-.08h0Z" style="fill: #fff;"/>
  <path d="M307.04,352l-.37-.34c-2.01-1.87-4.09-3.81-6.48-5.14-2.56-1.43-5.23-1.95-7.5-1.47l-.49.1-.42-1.96.49-.1c2.75-.59,5.91,0,8.9,1.68,2.6,1.45,4.77,3.47,6.87,5.42l.37.34-1.36,1.47ZM305.14,348.9c.63.55,1.24,1.12,1.85,1.68h0c-.61-.56-1.22-1.13-1.85-1.68ZM294.41,343.87c2.01,0,4.18.6,6.27,1.77.62.35,1.22.73,1.8,1.14-.58-.41-1.18-.79-1.8-1.14-2.59-1.44-5.29-2.03-7.68-1.67.46-.07.93-.1,1.41-.1Z" style="fill: #fff;"/>
  <path d="M263.55,323.16l-.38-.32c-5.97-5.08-12.38-9.77-19.04-13.92-4.74-2.96-10.43-6.17-16.62-7.54-5.6-1.25-11.51-.97-17.23-.71-4.42.2-8.99.41-13.47-.06l-.5-.05.21-1.99.5.05c4.35.45,8.83.25,13.17.05,5.85-.27,11.89-.54,17.75.76,6.49,1.44,12.36,4.75,17.24,7.8,6.74,4.21,13.23,8.95,19.28,14.09l.38.32-1.3,1.52ZM240.16,305.4c1.58.88,3.08,1.78,4.5,2.67,6.56,4.09,12.88,8.69,18.78,13.68h0c-5.9-4.99-12.22-9.59-18.78-13.68-1.42-.88-2.92-1.79-4.5-2.67ZM237.98,304.24s0,0,0,0c0,0,0,0,0,0ZM226.77,300.2c.32.06.63.13.95.2,3.63.81,7.07,2.22,10.26,3.84-3.19-1.62-6.63-3.04-10.26-3.84-.32-.07-.63-.14-.95-.2ZM210.55,299.65c-.1,0-.21,0-.31.01-.07,0-.13,0-.2,0,.07,0,.13,0,.2,0,.1,0,.21,0,.31-.01Z" style="fill: #fff;"/>
  <path d="M299.61,514.99l-1.97-.32.08-.49c.94-5.8-2.5-11.45-5.6-15.71-6.85-9.42-15.19-17.55-24.79-24.14l-.41-.28,1.13-1.65.41.28c9.79,6.73,18.29,15.01,25.28,24.62,3.33,4.58,7.02,10.68,5.95,17.21l-.08.49ZM295.53,501.79c1.39,2.34,2.57,4.91,3.08,7.6-.51-2.7-1.69-5.27-3.08-7.6ZM268.3,473.78c2.04,1.42,4.03,2.9,5.95,4.46-1.93-1.55-3.91-3.04-5.95-4.46h0Z" style="fill: #fff;"/>
  <path d="M253.04,486.92l-1.95-.45.11-.49c.51-2.18-1.22-4.44-2.77-6.15-7.45-8.22-16.23-14.98-26.09-20.08l-.44-.23.92-1.78.44.23c10.07,5.21,19.04,12.11,26.65,20.51,1.88,2.08,3.96,4.86,3.24,7.95l-.11.49ZM223.25,459.1c9.78,5.13,18.5,11.87,25.93,20.06,1.04,1.15,2.14,2.52,2.72,4.01-.58-1.49-1.68-2.86-2.72-4.01-7.42-8.19-16.14-14.94-25.93-20.06h0Z" style="fill: #fff;"/>
  <path d="M363,425.8l-.19-.46c-1.34-3.23-3.73-5.99-6.74-7.77l-.43-.25,1.02-1.72.43.25c3.38,2,6.06,5.1,7.56,8.72l.19.46-1.85.77ZM357.01,416.97c2.85,1.81,5.14,4.45,6.53,7.53h0c-1.38-3.08-3.68-5.72-6.53-7.53h0Z" style="fill: #fff;"/>
  <path d="M200.63,390.77l-.35-.35c-3.14-3.16-6.67-5.91-10.51-8.16l-.43-.25,1.01-1.72.43.25c3.99,2.34,7.66,5.2,10.92,8.48l.35.35-1.42,1.41ZM190.7,381.64c1.29.77,2.54,1.6,3.76,2.48-1.22-.88-2.47-1.71-3.76-2.48h0Z" style="fill: #fff;"/>
  <path d="M319.88,598.43l-1.6-1c-2.75-1.72-7.05-2.48-10.94-1.92l-.5.07-.28-1.98.5-.07c3.63-.51,7.65,0,10.7,1.37-.07-3.23-.01-6.49.17-9.71l.03-.5,2,.12-.03.5c-.22,3.73-.26,7.51-.12,11.24l.07,1.88ZM318.1,596.18c.25.13.48.27.71.41h0c-.12-3.32-.1-6.67.05-10-.14,3.02-.17,6.08-.08,9.11l.02.85-.7-.37Z" style="fill: #fff;"/>
  <path d="M333.99,603.96l-.09-.49c-1.11-5.95-.15-12,.85-17.2,1.86-9.73,4.47-19.41,7.75-28.76l.17-.47,1.89.66-.17.47c-3.25,9.26-5.83,18.84-7.67,28.48-.96,5.02-1.9,10.85-.85,16.46l.09.49-1.96.37ZM341.01,565.25c-2.14,6.97-3.91,14.07-5.28,21.21-.67,3.52-1.33,7.42-1.33,11.4,0-3.98.66-7.88,1.33-11.4,1.37-7.14,3.13-14.24,5.28-21.21Z" style="fill: #fff;"/>
  <path d="M170.73,528.24l-1.93-.52,5.12-19.03,1.93.52-5.12,19.03ZM170.02,527.01l4.6-17.1-4.6,17.1Z" style="fill: #fff;"/>
  <path d="M143.49,209.97l-1.97-.36.09-.49c.48-2.61,1.36-5.13,2.63-7.47.87-1.61,2.04-2.38,3.27-2.16l.49.09-.36,1.97-.49-.09c-.29-.06-.76.41-1.16,1.15-1.17,2.15-1.98,4.46-2.42,6.87l-.09.49ZM146.83,200.49c-.33.07-.62.27-.88.51.28-.27.58-.44.88-.51h0Z" style="fill: #fff;"/>
  <path d="M148.13,224.84l-.49-.09c-4.77-.86-9.14-1.2-13-1.01l-1.16.06.11-1.15c.19-1.9,1.1-3.73,2.51-5.02l.37-.34,1.35,1.48-.37.34c-.76.7-1.33,1.6-1.64,2.6,3.68-.07,7.77.29,12.17,1.08l.49.09-.35,1.97ZM136.74,222.69c3.24,0,6.79.33,10.59.99h0c-4.41-.76-8.49-1.09-12.13-.96l-.6.02s0,0,0,0c.7-.03,1.41-.05,2.14-.05Z" style="fill: #fff;"/>
  <path d="M136.39,260.38l-.24-.44c-3.59-6.7-5.13-14.55-4.32-22.11l.05-.5,1.99.21-.05.5c-.77,7.16.68,14.6,4.09,20.95l.24.44-1.76.95Z" style="fill: #fff;"/>
  <path d="M153.38,303.73l-.23-.45c-3.06-6.02-5.91-12.24-8.47-18.49l-.19-.46,1.85-.76.19.46c2.54,6.2,5.37,12.37,8.41,18.34l.23.45-1.78.91ZM148.33,290.81c1.73,3.91,3.57,7.78,5.49,11.58h0c-1.92-3.79-3.75-7.67-5.49-11.58Z" style="fill: #fff;"/>
  <path d="M259.67,330.85l-.42-.28c-3.21-2.16-6.83-3.78-10.33-5.35-3.93-1.76-8.37-3.75-12.86-3.34l-.21.02c-.69.07-1.55.15-2.37-.21-.66-.29-1.18-.92-1.35-1.62-.14-.6-.02-1.18.35-1.64l.32-.39,1.55,1.27-.26.32c.04.1.12.2.2.23.33.15.83.1,1.36.05l.23-.02c5.01-.46,9.91,1.73,13.84,3.5,3.6,1.61,7.3,3.27,10.65,5.52l.42.28-1.12,1.66ZM248.01,323.72c.45.2.89.39,1.32.59,3.4,1.52,6.9,3.09,10.07,5.16h0c-3.17-2.06-6.67-3.63-10.06-5.15-.43-.19-.88-.39-1.33-.59ZM233.84,320.76s.03.01.05.02c.56.25,1.19.2,1.81.14-.62.06-1.25.11-1.81-.14-.02,0-.03-.01-.05-.02ZM236.45,320.85c-.16,0-.32.02-.47.04h-.13s.13,0,.13,0c.16-.01.32-.03.48-.04ZM233.07,319.56c0,.05,0,.11,0,.16,0-.06-.01-.11,0-.16h0Z" style="fill: #fff;"/>
  <path d="M248.6,577.29l-2.16-2.87.4-.3c-.02-1.13-.55-2.26-1.4-2.99-.25-.22-.5-.37-.73-.46-.48-.18-1.07-.16-1.7-.13-.51.02-1.01.04-1.52-.01l-.5-.05.21-1.99.5.05c.36.04.73.02,1.19,0,.77-.04,1.65-.08,2.51.25.45.17.9.44,1.33.82,1.43,1.23,2.23,3.17,2.07,5.06l-.21,2.62ZM247.83,574.28s0,.07,0,.1v.03s0-.09,0-.13ZM243.65,569.52c.49,0,.96.04,1.41.21.34.13.69.34,1.03.64.06.05.11.1.17.15-.06-.05-.11-.1-.17-.15-.34-.29-.69-.51-1.03-.64-.68-.25-1.41-.22-2.11-.19.24,0,.47-.02.71-.02ZM242.1,569.56c.07,0,.14,0,.21,0-.07,0-.14,0-.21,0h0Z" style="fill: #fff;"/>
  <path d="M245.99,577.94h-3.53v-2h3.53v2ZM243.46,576.94h1.53-1.53Z" style="fill: #fff;"/>
</svg>