<?xml version="1.0" encoding="UTF-8"?>
<svg xmlns="http://www.w3.org/2000/svg" version="1.1" viewBox="0 0 403.3 481.3">
  <defs>
    <style>
      .cls-1 {
        fill: #fff;
      }
    </style>
  </defs>
  <!-- Generator: Adobe Illustrator 28.6.0, SVG Export Plug-In . SVG Version: 1.2.0 Build 709)  -->
  <g>
    <g id="Layer_1">
      <g id="Layer_1-2" data-name="Layer_1">
        <path class="cls-1" d="M184.8,300.2v-.5c-.7-8-2.8-15.8-6.2-23.2l-.2-.5,1.8-.8.2.5c3.5,7.5,5.6,15.6,6.3,23.8v.5s-2,.2-2,.2h0ZM179.7,276.6c1,2.2,1.9,4.4,2.6,6.6-.8-2.2-1.6-4.5-2.6-6.6h0Z"/>
        <path class="cls-1" d="M78.7,226.8c-.7,0-1.4,0-2-.2h-.5c0,0,.3-2.1.3-2.1h.5c3.1.6,6.2-.4,9.3-1.4.7-.2,1.4-.4,2-.6,2.7-.8,5.5-1.4,8.4-1.7h.2c.4,0,.9-.1,1.3-.2h.5c0-.1.4,1.9.4,1.9h-.5c-.5.2-1,.3-1.5.3h-.2c-2.7.3-5.4.9-8,1.6-.7.2-1.3.4-2,.6-2.7.8-5.4,1.7-8.2,1.7h0ZM77.3,225.7h.1-.1ZM87.4,223.9c-.1,0-.2,0-.3.1.1,0,.2,0,.3-.1ZM97,221.8h-.1c-.8.1-1.7.2-2.5.4.8-.1,1.7-.3,2.5-.4h.1s0,0,0,0ZM97.9,221.7c0,0-.2,0-.2,0,0,0,.2,0,.2,0h0Z"/>
        <path class="cls-1" d="M109.5,284.9c-10.2,0-20.6-.6-30.7-1.8h-.5c0,0,.2-2,.2-2h.5c17.1,2.1,34.4,2.4,51.6,1h.5s.2,1.9.2,1.9h-.5c-7,.6-14.2.9-21.3.9h0ZM101.7,283.8c5,.1,9.9.2,14.9,0-5,.1-9.9.1-14.9,0Z"/>
        <path class="cls-1" d="M88.3,283.8v-.5c-.3-1.5-.3-3.1-.2-4.7v-.5s2,.1,2,.1v.5c-.1,1.4,0,2.9.1,4.2v.5c0,0-1.9.3-1.9.3h0ZM89,281.7c0,.3,0,.6,0,1h0c0-.3,0-.6,0-1Z"/>
        <rect class="cls-1" x="103" y="278" width="2" height="6.9"/>
        <rect class="cls-1" x="114.6" y="278.4" width="2" height="6.1"/>
        <path class="cls-1" d="M66.9,65.2l-2-.4v-.5c.7-3.2,3-5.7,4.9-7.7L123,0l1.5,1.4-53.2,56.7c-1.7,1.8-3.8,4.1-4.3,6.7v.5c0,0,0,0,0,0ZM101.9,24l-31.3,33.3c-.4.4-.8.8-1.1,1.2.4-.4.8-.8,1.1-1.2l31.3-33.3h0Z"/>
        <path class="cls-1" d="M180,92.4h-.5c-32.8-3.4-66.2-4.3-99.1-2.8h-.5s0-2,0-2h.5c33.1-1.5,66.5-.5,99.4,2.8h.5s-.2,2-.2,2h0ZM165.5,90.1c4.6.4,9.1.8,13.7,1.2h0c-4.6-.5-9.1-.9-13.7-1.2ZM110.6,87.9c-9.8,0-19.6.2-29.3.6,14.7-.6,29.6-.8,44.3-.5-5-.1-10.1-.2-15.1-.2h0Z"/>
        <path class="cls-1" d="M169.6,165.8l-.4-.3c-20.9-13.7-45.1-21.7-70-23.1h-.5s.1-2,.1-2h.5c25.3,1.5,49.8,9.6,71,23.5l.4.3-1.1,1.7h0ZM120.3,144.1c17.4,3.6,34,10.5,49,20.2h0c-15-9.7-31.6-16.6-49-20.2Z"/>
      </g>
      <g id="Layer_2">
        <path class="cls-1" d="M9.8,22.4c-2.9,0-5.9-.1-8.8-.5H.5c0,0,.2-2,.2-2h.5c8.5.9,17.1.5,25.5-1.3h.5c0-.1.4,1.9.4,1.9h-.5c-5.7,1.3-11.5,1.9-17.3,1.9h0Z"/>
        <path class="cls-1" d="M46.3,222.7v-.5C27.9,157.3,9.1,90.1,0,22v-.5c0,0,1.9-.3,1.9-.3v.5c9,67.9,27.9,135,46.1,199.9v.5c.1,0-1.8.5-1.8.5h0Z"/>
        <path class="cls-1" d="M76.9,226.2c-1.6,0-3.5-.1-5.3-.2h-.3c-1.8-.1-3.6-.2-5.1-.2-3.9,0-7.9,0-11.8-.7-2.5-.5-4.9-1.4-7.3-2.2l-.5-.2v-.5c.1,0,.6-1.4.6-1.4l.5.2c2.3.8,4.7,1.6,7.1,2.1,3.7.8,7.6.7,11.4.7,1.6,0,3.4,0,5.1.2h.5c1.4.1,2.8.2,4.1.2-4.4-14.9-7.6-29.2-10.7-43-2.2-9.8-4.5-19.9-7.1-30.1-2.6-10-5-18.4-7.1-25.1-8.2-25.5-13.9-52.1-19.5-77.9h0c-1.9-8.8-3.8-17.9-5.8-26.7l-.2-.9.9-.3c4-1.2,11.6-3.2,16.9-4h.5c0,0,.3,1.9.3,1.9h-.5c-4.9.7-11.7,2.6-15.7,3.7,2,8.6,3.8,17.3,5.7,25.8,5.6,25.7,11.3,52.3,19.4,77.7,2.1,6.7,4.5,15.1,7.2,25.2,2.7,10.3,4.9,20.4,7.1,30.2,3.2,14.2,6.5,28.8,11,44.1l.4,1.3h-1.6,0ZM76.4,222.6c.2.6.4,1.3.6,2l.2.6c-.3-.9-.5-1.7-.8-2.6h0ZM66.4,224.8c1.4,0,2.8,0,4.3.1-1.6,0-3.1-.2-4.6-.1h.3ZM66.1,224.8h-.1.1ZM51.7,223.4c.9.3,1.9.5,2.8.7,1.3.3,2.6.4,3.9.5-1.3-.1-2.6-.3-3.9-.5-.9-.2-1.9-.4-2.8-.7ZM76.4,222.6h0s0,0,0,0ZM47.8,222.1c.4.1.9.3,1.3.5-.4-.1-.9-.3-1.3-.5h0ZM58.6,149.5c.1.5.2.9.4,1.4,2.4,9.4,4.6,18.6,6.6,27.6-2-9-4.1-18.2-6.6-27.6-.1-.5-.2-.9-.4-1.4ZM37.2,70.1c2.9,13,6,26.1,9.6,39-3.6-12.9-6.7-26-9.6-39ZM28.9,32.2c.4,1.9.8,3.8,1.2,5.6-.4-1.9-.8-3.8-1.2-5.6ZM28.9,32.1h0s0,0,0,0ZM41.2,17.6c-5,.9-11.1,2.6-14.6,3.6h.3c3.4-1.1,9.4-2.7,14.3-3.6Z"/>
        <path class="cls-1" d="M98.3,222.7l-22.3-74c-5.9-19.7-12.1-40.1-16.7-60.6-1.4-6.1-2.7-12.3-3.9-18.3-3.6-17.5-7.3-35.6-13.9-52.3l-.2-.5,1.9-.7.2.5c6.7,16.9,10.4,35,14,52.6,1.2,6.1,2.5,12.3,3.9,18.4,4.6,20.4,10.8,40.8,16.7,60.5l22.3,74-1.9.6h0ZM54.6,61c.6,2.9,1.2,5.7,1.8,8.5,1.2,6.1,2.5,12.3,3.9,18.4,3.2,14,7.1,27.9,11.1,41.7-4-13.7-7.9-27.7-11.1-41.7-1.4-6.1-2.7-12.3-3.9-18.4-.6-2.8-1.2-5.7-1.8-8.6h0ZM42.6,17.5c1.4,3.6,2.7,7.3,3.9,11-1.2-3.7-2.4-7.4-3.9-11h0Z"/>
        <path class="cls-1" d="M65.4,299l-1.8-.3c-15.5-3.1-31-4.5-47.4-4.5h-1.4l.4-1.3c5.4-15.8,12.6-31.1,19.7-45.8l11.9-25h.7c2,.4,5.2,1.1,7.2,1.9l.8.3v.8c-1.8,11.3-3.5,23-1.7,34.4,1.2,7.6,4,14.9,6.6,21.9,1.1,2.8,1.6,5.6,2.2,8.2.5,2.6,1.1,5.2,2.1,7.9l.6,1.7h0ZM63.4,297.6c.1,0,.3,0,.4,0h0c-.5-1.2-.8-2.4-1.1-3.6.2.9.5,1.8.8,2.8l.3.8h-.4ZM17.7,292.1c15.4,0,30.1,1.5,44.7,4.2-.7-2.2-1.2-4.4-1.6-6.5-.5-2.6-1.1-5.2-2.1-7.9-2.7-7.2-5.5-14.6-6.7-22.3-1.8-11.5-.2-23,1.4-34.2-1.7-.5-3.8-1-5.3-1.3l-11.2,23.7c-6.8,14.3-13.8,29.1-19.1,44.3h0ZM50.4,295.4h0ZM16.3,293.1c11.7,0,23,.8,34.1,2.3-10.9-1.5-21.9-2.3-33.4-2.3h-.7,0ZM20.2,282.5h0s0,0,0,0ZM41.3,236l-5.4,11.4c-5.4,11.4-11,23.1-15.7,35.1,4.7-12,10.3-23.7,15.7-35.1,0,0,5.4-11.4,5.4-11.4ZM53.4,262.3c.9,4.1,2.1,8.2,3.5,12.2-1.4-4-2.7-8-3.5-12.2ZM54.2,226.4c-1.5,10.5-3,21.4-1.4,32.2-1.6-10.7-.1-21.6,1.4-32.2Z"/>
        <path class="cls-1" d="M138.7,299.8h-1.6c-6.1-.2-12.2-.5-18.1-.8-11.4-.5-22.5-1-33.4-1h-.6l-5.8-12.6c-.9-2-2-4.4-2-6.9v-1h1c8.7,0,17.7,0,26.4-.1,8.8-.1,17.8-.2,26.6-.1h.9v.9c.6,6.1,2.5,12.5,6,20.1l.7,1.5h0ZM137.1,298.7h0l-.3-.7.3.7h0ZM85.5,297c10.9,0,22,.5,33.4,1,.3,0,.6,0,.9,0-.3,0-.6,0-.8,0-10.8-.5-21.9-1-32.9-1h-.5ZM136.7,298h0ZM131.2,279.6c.7,5.6,2.4,11.5,5.5,18.4-3.1-6.9-4.9-12.8-5.5-18.4ZM86.1,296c11,0,22.1.5,32.8,1,5.5.2,11.1.5,16.6.7-3-6.8-4.7-12.7-5.3-18.4-8.5,0-17.2,0-25.6.1-7.9,0-16.9.2-25.5.1.2,1.7,1,3.5,1.8,5l5.3,11.4h0ZM78,279c.1,1.6.6,3.1,1.2,4.5-.6-1.4-1.1-2.9-1.2-4.5h0ZM126.8,278.3c1.3,0,2.5,0,3.8,0h.4v.4c0-.1,0-.2,0-.4h0c-1.4,0-2.8,0-4.2,0h0ZM78,278.5h.5c.9,0,1.8,0,2.7,0-1.1,0-2.2,0-3.3,0h0ZM99.3,278.5c-3.3,0-6.6,0-9.9,0,3.4,0,6.7,0,9.9,0Z"/>
        <path class="cls-1" d="M230.1,437.3h-2v-.5c1.1-44.5-1.3-85.8-7.1-123-76.1-7.5-142.9-12.8-204.1-16.2,16.1,37.2,29.3,76,39.4,115.2v.5c.1,0-1.8.5-1.8.5v-.5c-10.3-39.7-23.7-78.8-40-116.4l-.7-1.5h1.6c61.8,3.5,129.4,8.8,206.6,16.4h.8c0,0,.1.8.1.8,5.9,37.4,8.4,79.2,7.2,124.1v.5h0ZM229.1,436.3h0c.5-18.6.3-36.6-.5-54,.8,17.4.9,35.5.5,54ZM54.9,411.3c.1.5.2.9.3,1.4h0c-.1-.5-.2-.9-.3-1.4ZM54.8,411.1h0s0,0,0,0ZM228.7,382.1h0c0,0,0,0,0,0ZM228.7,382h0c0,0,0,0,0,0ZM228.6,381.9h0c0,0,0,0,0,0ZM228.6,381.8h0s0,0,0,0ZM228.6,381.7h0s0,0,0,0ZM228.6,381.5h0s0,0,0,0ZM228.6,381.4h0s0,0,0,0ZM228.6,381.3h0s0,0,0,0ZM228.6,381.2h0s0,0,0,0ZM179.1,308.8c13.8,1.3,28,2.6,42.4,4h.4c-14.6-1.4-28.9-2.8-42.8-4h0ZM15.4,296.6c0,.1.1.3.2.4l-.2-.4Z"/>
        <path class="cls-1" d="M121.2,261.3c-1.9,0-3.8-.2-5.7-.6-1.5-.3-3.4-.8-4.8-2.1-2.8-2.4-3.1-6.4-2.8-9.4.9-10.4,7.7-19.8,17.1-24.1,9.1-4.1,19.1-3.4,29.6-2.2h.5c0,0-.2,2-.2,2h-.5c-10.1-1.2-19.9-2-28.5,1.9-8.8,4-15.1,12.8-16,22.5-.2,2.5,0,5.9,2.1,7.7,1.1,1,2.7,1.4,3.9,1.6,12.6,2.6,25.1-4.9,32.5-12.7l.3-.4,1.4,1.4-.3.4c-8.4,8.8-18.8,13.9-28.7,13.9h0ZM118.4,260.2c10.2,1,21.5-3.8,30.4-13h0c-7.1,7.4-18.6,14.2-30.4,13h0ZM114.6,259.5c.4.1.8.2,1.1.3.6.1,1.2.2,1.8.3-.6,0-1.2-.2-1.8-.3-.4,0-.7-.2-1.1-.3ZM113.4,236.4c-2.5,3.9-4.1,8.3-4.6,13,0,.7,0,1.4,0,2.2,0-.8,0-1.5,0-2.2.4-4.6,2-9.1,4.6-13ZM144.5,223.1c3.1.1,6.2.5,9.4.8h0c-3.2-.4-6.3-.7-9.4-.8Z"/>
        <path class="cls-1" d="M112.5,260.3l-.7-1.9.5-.2c4.5-1.7,7.3-5.9,10.4-10.7,2.3-3.6,4.8-7.8,5.3-12.2.3-3-.9-6.5-3.6-7h-.5c0,0,.3-2,.3-2h.5c3.8.7,5.6,5.2,5.2,9.2-.5,4.9-3.2,9.2-5.6,13-2.5,4-5.9,9.4-11.3,11.5l-.5.2h0ZM125,227.5c2.9.8,4.3,4.7,3.9,7.9-.5,4.7-3.1,8.9-5.5,12.6-1.1,1.8-2.3,3.6-3.5,5.1,1.4-1.7,2.5-3.6,3.5-5.1,2.3-3.7,4.9-7.9,5.5-12.6.4-3.4-1-7.1-3.9-7.9h0Z"/>
        <path class="cls-1" d="M183.2,276.6c-3.9,0-7.9-.5-11.8-1.4-2.3-.6-5.1-1.4-7.5-3.3-2.5-2-3.9-4.9-3.6-7.6.1-1.1.5-2.1.8-3.1l.2-.7c1.8-5.4,1.8-11.9,0-18.7-1.7-6.3-4.6-12.2-7.5-17.8l-.2-.4,1.8-.9.2.4c2.9,5.6,5.9,11.7,7.6,18.2,1.9,7.2,1.9,14,0,19.9l-.2.7c-.3.9-.6,1.8-.7,2.6-.2,2,.9,4.3,2.9,5.9,2,1.6,4.6,2.4,6.7,2.9,4.8,1.2,9.8,1.6,14.7,1.2,27.1-2,53.1-15.9,77.4-30.1l.4-.2,1,1.7-.4.2c-24.5,14.2-50.7,28.3-78.2,30.3-1.2,0-2.4.1-3.6.1h0ZM264.1,245.5c-24.3,14.1-50.2,28-77.4,30-.4,0-.9,0-1.4,0,.4,0,.9,0,1.4,0,27.2-2,53.1-15.9,77.4-30h0ZM161.4,265.8c.1.9.4,1.7.9,2.5-.4-.8-.7-1.7-.9-2.5ZM161.4,265.8h0ZM162.2,261.2v.3c-.2.2-.2.4-.3.6,0-.2.1-.4.2-.6v-.3ZM163.1,244.9c1,5.3.8,10.3-.4,14.7,1.2-4.4,1.4-9.4.4-14.7ZM155,224c.5,1,1,2,1.5,3-.5-1-1-2-1.5-3h0Z"/>
        <path class="cls-1" d="M136.3,283.5l-1.3-1.5.4-.3c3.7-3.2,6.3-7.8,6.9-12.6.3-2.1.2-4.4.2-6.6,0-2.4-.1-4.9.3-7.4v-.5c0,0,2.1.3,2.1.3v.5c-.4,2.3-.4,4.7-.3,7,0,2.3.1,4.6-.2,6.9-.7,5.3-3.5,10.4-7.6,13.9l-.4.3h0ZM143.5,263.2c0,2,0,4-.2,6-.6,4.3-2.5,8.3-5.4,11.5,2.9-3.2,4.9-7.2,5.4-11.5.3-2,.2-4,.2-6Z"/>
        <path class="cls-1" d="M112,277.5l-1.3-1.5.4-.3c8.1-6.6,18.1-11.1,28.5-12.5,0-.1.1-.2.2-.3.4-.5,1.1-.5,1.5-.3.5.2.8.7.7,1.2,0,.4-.4,1.1-1.6,1.3-10.2,1.3-20.1,5.7-28,12.2l-.4.3ZM136.3,264.7h0ZM138.5,264.3c-.7.1-1.5.3-2.2.4.7-.1,1.5-.3,2.2-.4ZM140.2,264h0,0,0ZM140.6,263.4h0c0,.1.2,0,.2,0,0,0-.2,0-.2,0,0,0,0,0,0,0h0Z"/>
        <path class="cls-1" d="M150.6,307.3h0c-1.7,0-3.3-.3-4.9-.9-1.8-.7-3.1-1.7-3.7-3-.6-1.2-.6-2.7,0-4.5.1-.4.3-.9.5-1.4l.2-.5h.4c0,0,0-.3,0-.6.8-4.6,5.9-9.6,8.7-11.9,4.5-3.5,11.8-1.4,15.3.4.8.4,1.5.8,2.1,1.6,1.1,1.4,1,3.4-.1,6-2.3,5.2-5.3,9.1-8.9,11.6-2.9,2-6.3,3.1-9.6,3.1h0ZM143,299.5c-.4,1.5-.4,2.6,0,3.5.5,1.1,1.5,1.9,3.1,2.5,1,.4,2.1.6,3.3.7-1.1,0-2.2-.3-3.3-.7-1.6-.6-2.6-1.5-3.1-2.5-.4-.9-.4-2,0-3.5ZM143.8,300.2c-.2,1-.2,1.8.1,2.4.4.8,1.2,1.5,2.6,2,3.9,1.5,8.7.7,12.6-2,3.4-2.3,6.1-6,8.2-10.8.8-1.9.9-3.2.3-4-.3-.4-.8-.7-1.4-1-3.1-1.6-9.5-3.5-13.2-.6-3.3,2.5-7,6.7-7.9,10.1,1.1-1.2,2.5-2,4.1-2.5,2.4-.7,5.1-.2,7.2,1.2,1.1.8,2.2,2.2,1.8,3.7-.2.6-.6,1-.9,1.4l-2.9,3.2c-.2.3-.6.7-1.1.9-.4.2-.7.2-1,.2-2.6.2-5.8-1-7.6-2.9-.4-.4-.7-.9-1-1.3h0ZM165.8,296.9c-1.7,2.7-3.8,4.9-6.1,6.5-.3.2-.6.4-.9.6.3-.2.6-.4.9-.6,2.3-1.6,4.3-3.8,6.1-6.5ZM152.8,303.4s0,0,0,0c0,0,0,0,0,0ZM154.4,302l-.6.7c-.2.2-.4.4-.6.6.2-.2.4-.4.6-.6l.6-.7h0ZM145.6,299.3c.2.3.4.6.7.9,1.4,1.5,3.9,2.5,5.9,2.3.1,0,.3,0,.4,0,.1,0,.3-.3.4-.4l2.9-3.2c.2-.2.4-.5.5-.6.1-.4-.4-1-1-1.4-1.6-1.1-3.7-1.4-5.6-.9-1.8.5-3.4,1.8-4.2,3.5h0ZM144.4,299.2c.2.5.5,1,.9,1.5-.4-.4-.7-.9-.9-1.3v-.2q0,0,0,0ZM156,295.9h0c.9.6,1.7,1.5,1.4,2.5,0,.1,0,.2-.2.4,0-.1.1-.2.2-.4.3-1-.5-2-1.4-2.5h0ZM144.8,298.5h0c0,0,.1-.2.2-.3l-.2.3h0ZM144.2,298.2h0v-.2c0-.5,0-.9,0-1.4.5-2.8,2.9-6.2,5.6-8.9-2.5,2.4-5.1,5.8-5.6,8.9,0,.4,0,.8,0,1.2v.3s0,0,0,0ZM165.8,296.9h0ZM149.8,294.8c0,0-.1,0-.2,0-.1,0-.3,0-.4.1.1,0,.3,0,.4-.1,0,0,.1,0,.2,0ZM166.6,285.8c0,0,.1,0,.2.1.6.3,1.3.7,1.7,1.3.7.9.7,2.1.2,3.7.5-1.6.4-2.8-.2-3.7-.4-.6-1.1-1-1.7-1.3,0,0-.1,0-.2-.1h0ZM153.1,285c-.2.1-.4.2-.5.4-.1,0-.2.2-.3.3.1,0,.2-.2.3-.3.2-.1.4-.3.5-.4Z"/>
        <path class="cls-1" d="M137.8,294c-.4,0-.8,0-1.2,0h-.5c0,0,.3-2.1.3-2.1h.5c1.9.4,4.1-.4,5.4-1.8l.3-.4,1.5,1.3-.3.4c-1.5,1.7-3.7,2.6-6,2.6h0ZM137.2,293c2,.2,4-.5,5.4-1.9h0c-1.4,1.3-3.5,2.1-5.4,1.9h0Z"/>
        <path class="cls-1" d="M135.9,288.4l-.9-1.8.4-.2c4.1-2.1,7.6-5.5,9.9-9.5l.2-.4,1.7,1-.2.4c-2.5,4.3-6.3,8-10.7,10.3l-.4.2ZM136.3,287.1h0c3.9-2.1,7.3-5.4,9.6-9.2h0c-2.3,3.8-5.7,7.1-9.6,9.2Z"/>
        <path class="cls-1" d="M152.5,281.3l-.3-.4c-2.6-2.9-5.2-6-5.1-9.8v-.5s2,0,2,0v.5c-.1,3.1,2.1,5.8,4.5,8.4l.3.4-1.5,1.4h0Z"/>
        <path class="cls-1" d="M173.5,300.8c-2.6,0-5.1-.1-7.5-.3h-.5s.2-2,.2-2h.5c20.4,1.8,41.3-4.3,59.7-9.6,5.9-1.7,12.1-3.5,17.9-5.9,6.2-2.5,12.5-6,20.1-10.9l.4-.3,1.1,1.7-.4.3c-7.6,5-14.1,8.5-20.4,11-5.9,2.4-12.1,4.2-18.1,6-16.2,4.7-34.6,10-53,10h0ZM171.4,299.8c2.6,0,5.2,0,7.8-.1-2.6.2-5.2.2-7.8.1ZM236.7,286.7c-3.5,1.1-7,2.2-10.5,3.2-2.6.8-5.3,1.5-8,2.3,2.7-.8,5.4-1.5,8-2.3,3.5-1,7-2,10.5-3.2h0Z"/>
        <path class="cls-1" d="M270.1,279.7l-.2-.5c-6.9-16.9-8.7-36.8-5.4-59,2.6-17.8,9.3-37,15.2-54l.2-.6c.6-1.7,1.2-3.3,1.7-5l.2-.6,79.3-8.2.2,2-78.1,8c-.6,1.6-1.1,3.3-1.7,5-5.9,16.9-12.5,36-15.1,53.6-3.2,21.9-1.4,41.4,5.3,58l.2.5-1.9.8h0ZM270.4,198c-2.1,7.5-3.9,15-4.9,22.3-1.3,9-1.8,17.6-1.4,25.7-.4-8.2.1-16.8,1.4-25.7,1.1-7.3,2.8-14.8,4.9-22.3ZM282.5,161l77.7-8-77.7,8Z"/>
        <path class="cls-1" d="M304.3,153.9l-.4-.3c-6.2-5.4-13.1-9.9-20.6-13.5-4.5-2.2-9-4.6-9.3-9.3-.2-2.4.9-4.5,2.1-6.6,2.4-4.3,5-8.6,7.7-12.8.7-1.1.9-2.5.5-3.8-.5-1.3-1.5-2.4-2.8-2.8-3.7-1.3-7.1-3.2-10-5.7-1.4-1.1-2.2-2.7-2.4-4.5-.1-1.8.4-3.4,1.5-4.8,6.1-7.1,12.7-14,19.5-20.6l.9-.9c4.6-4.4,9.4-9,11.8-14.9l.2-.5,1.9.8-.2.5c-2.5,6.2-7.5,11-12.3,15.6l-.9.9c-6.7,6.5-13.2,13.3-19.3,20.4-.8.9-1.2,2.1-1.1,3.3s.7,2.3,1.6,3.1c2.8,2.3,6,4.1,9.5,5.4,1.9.7,3.4,2.2,4,4.1.6,1.9.4,3.9-.7,5.5-2.7,4.1-5.2,8.4-7.6,12.7-1,1.9-2,3.7-1.8,5.5.2,3.6,4.2,5.7,8.2,7.6,7.6,3.6,14.7,8.2,21,13.8l.4.3-1.3,1.5h0ZM285.5,108.1c.2,1.3,0,2.6-.8,3.8-2.7,4.2-5.3,8.5-7.7,12.8-1.1,2-2.1,4-2,6.1.3,4.1,4.5,6.4,8.7,8.5,7.4,3.5,14.2,8,20.4,13.3h0c-6.2-5.3-13-9.8-20.4-13.3-4.3-2-8.5-4.4-8.7-8.5-.1-2.1.8-4.1,2-6.1,2.4-4.3,5-8.6,7.7-12.8.7-1.1,1-2.5.8-3.8ZM272.1,98.2s0,0,0,0c2.9,2.4,6.2,4.2,9.8,5.5,1.4.5,2.5,1.5,3.1,2.8-.6-1.3-1.7-2.3-3.1-2.8-3.6-1.3-6.9-3.1-9.8-5.5h0ZM270.3,92.6c-.2.6-.2,1.3-.2,1.9,0,.8.3,1.6.7,2.2-.4-.7-.6-1.4-.7-2.2,0-.6,0-1.3.2-1.9ZM277.7,83.4h0ZM297,63.8c-1.7,1.9-3.5,3.6-5.4,5.3l-.9.9c-4.5,4.3-8.9,8.8-13.1,13.5,4.2-4.6,8.6-9.1,13.1-13.5l.9-.9c1.8-1.7,3.6-3.5,5.4-5.3h0Z"/>
        <path class="cls-1" d="M305.7,80.3h-.2c-3.8,0-7.5-1.5-10.3-4.1l-.4-.3,1.4-1.5.4.3c2.4,2.2,5.7,3.5,9,3.6,3.2,0,6.6-1.1,9.1-3.3l.4-.3,1.3,1.5-.4.3c-2.8,2.4-6.5,3.8-10.2,3.8h0ZM305,79.2c.2,0,.3,0,.5,0h0c-.2,0-.3,0-.5,0h0ZM296.2,75.8c1,.8,2,1.5,3.2,2.1-1.1-.5-2.2-1.2-3.2-2.1h0Z"/>
        <path class="cls-1" d="M278.3,134.8c-.8,0-1.6,0-2.4-.1h-.5c0,0,.2-2,.2-2h.5c3.7.5,7.9-.2,12.8-2,2.2-.8,4.5-1.8,6.6-2.8,1.9-.9,3.9-1.7,5.9-2.5l.5-.2.7,1.9-.5.2c-2,.8-3.9,1.6-5.8,2.5-2.2,1-4.4,2-6.7,2.8-4.2,1.6-7.9,2.3-11.4,2.3h0ZM276.6,133.7c3.6.3,7.5-.3,12-1.9-4.5,1.6-8.4,2.2-12,1.9h0ZM296.6,128.5c-.2,0-.4.2-.6.3-.3.1-.6.3-.9.4.3-.1.6-.3.9-.4.2,0,.4-.2.6-.3h0ZM301.4,126.5c-.2,0-.3.1-.5.2.2,0,.3-.1.5-.2h0Z"/>
        <path class="cls-1" d="M366.9,80.5l-1.2-1.6.4-.3c5.9-4.7,8.4-13.2,5.8-20.3-.5-1.3-1-2.2-1.6-2.9-.4-.5-.9-.8-1.5-1.1,0,2,0,4.4-1.1,6.5-1.3,2.5-3.8,4-6.2,3.7-1.5-.2-2.9-1.1-3.7-2.6-1-1.7-1.2-3.7-.5-5.4,1.3-3.3,4.9-4.9,7.9-4.9.5,0,1,0,1.5,0-.3-2-.7-3.8-1.4-5.3-2.2-4.9-7.5-8.2-13.1-8.4-5.4-.2-10.8,2.6-14.2,7.2-.8,1.1-1.5,2.4-2.1,3.7,1.1,2.7,1.7,5.9,1.6,9.4,0,1-.1,2.2-.8,3.1-.5.6-1.3,1.1-2.1,1.1-.7,0-1.3-.2-1.8-.6l-.2-.2v-.3c-.8-4.1-.4-8.6,1.1-12.5-.9-1.8-2.1-3.3-3.6-4.4-2.6-1.9-6.1-2.6-9.1-3.2-1-.2-2.2-.4-3.2-.4.4,2.6.4,5.2.4,7.8,0,.8,0,3.1-1.8,3.8-.6.2-1.3.2-1.9-.1-1.1-.6-1.9-1.9-2.2-3-1-3.3-1-7.5,2-9.5.4-.2.8-.5,1.2-.6,0-.2,0-.4-.1-.5-1-3.4-3-6.1-5.5-7.4-1.5-.7-3.2-1.1-5.6-1.2-4.8-.1-9.5.9-13.8,3.2-1.9,1-5.1,3.1-5.3,6.1,0,1.2.4,2.5.8,3.6,1.7,4.2,4.3,8,7.6,11l.4.3-1.4,1.5-.4-.3c-3.5-3.2-6.3-7.3-8.1-11.8-.5-1.3-1-2.8-.9-4.5.3-4,4.1-6.6,6.3-7.8,4.5-2.4,9.6-3.5,14.8-3.4,2.7,0,4.7.5,6.5,1.4,3,1.5,5.4,4.7,6.5,8.6,0,.2.1.5.2.7,1.4,0,2.8.2,4,.4,3.3.6,7,1.4,9.9,3.6,1.3,1,2.5,2.2,3.4,3.7.5-.9,1-1.8,1.6-2.6,3.7-5.1,9.8-8.1,15.8-8,6.3.2,12.3,4,14.9,9.5.9,1.9,1.4,4.1,1.7,6.6,1.2.5,2.3,1.2,3.1,2,.8.9,1.5,2,2,3.6,2.9,7.9.2,17.4-6.4,22.6l-.4.3h0ZM372,56.2c.3.5.5,1.1.8,1.7,2.4,6.6.7,14.5-4.1,19.6,4.8-5.1,6.6-13,4.1-19.6-.2-.6-.5-1.2-.8-1.7ZM366.8,59.9c0,.1-.1.2-.2.4-.5,1-1.3,1.9-2.4,2.5,1-.5,1.8-1.4,2.4-2.5,0-.1.1-.2.2-.4ZM365.1,53.4h-.1c-2.7,0-5.2,1.6-6,3.7-.4,1.1-.3,2.5.4,3.7.6.9,1.4,1.5,2.3,1.6,1.8.2,3.4-1.2,4.1-2.6.9-1.8,1-3.9.9-5.8,0-.2,0-.3,0-.5-.5,0-1-.1-1.5-.1ZM333.6,61.3c.2,0,.4.1.7.1-.2,0-.5,0-.7-.1ZM335.8,60.3c0,.1-.1.2-.2.3,0,0,0,0,0,0,0,0,0,0,0,0,0-.1.1-.2.2-.3ZM334.6,51.9c-.7,2.8-.8,5.7-.4,8.5h0c.2,0,.5-.2.6-.3.4-.5.4-1.3.4-2,0-1.3,0-3.7-.7-6.2h0ZM335,49.9c1.1,3.2,1.3,6.5,1.2,8.1,0,.2,0,.5,0,.7,0-.2,0-.5,0-.7,0-3-.4-5.7-1.2-8.1ZM363.1,52.7c-2.1.5-4.2,1.8-5.1,4.1,0,.2-.1.4-.2.6,0-.2.1-.4.2-.6.8-2,2.7-3.5,5.1-4.1ZM367.6,53.9h0c0,.3,0,.5,0,.8,0-.2,0-.5,0-.7h0ZM368,52.9h.3c.9.5,1.7,1,2.4,1.6-.7-.7-1.7-1.3-2.7-1.6h0ZM284.4,42.5c.1.3.2.5.3.8,1.6,4.1,4.2,8,7.5,11h0c-3.2-3.1-5.8-6.9-7.5-11-.1-.3-.2-.5-.3-.8ZM365.5,52.4c.6,0,1.1.1,1.7.2h.4c0,0,0,.5,0,.5h0c0,.1,0-.4,0-.4h-.7c-.5-.2-.9-.3-1.4-.3h0ZM365.1,52.4h-.4.4ZM366.1,46.3c.7,1.6,1.1,3.5,1.4,5.7h0c-.2-2.2-.6-4-1.4-5.7h0ZM314.8,51.4c.1,0,.2,0,.3,0-.1,0-.2,0-.3,0ZM315.8,51.3s0,0-.1,0c0,0,0,0,0,0,0,0,0,0,0,0,0,0,0,0,.1,0ZM312.7,48c0,.3.1.6.2.9.2.6.5,1.4,1,1.9-.5-.5-.9-1.3-1-1.9,0-.3-.2-.6-.2-.9ZM316.3,39.8v.5c.6,2.7.6,5.5.6,8.1,0,.8-.1,1.5-.3,2,.3-.7.3-1.6.3-2,0-2.7,0-5.5-.5-8.2v-.5ZM315.5,41.1c-.2,0-.3.2-.5.3-2,1.4-1.9,4.6-1.2,7.2.2.8.7,1.6,1.2,1.8.1,0,.2,0,.3,0,.4-.1.5-.8.5-1.9,0-2.5,0-5-.4-7.4h0ZM334.3,48.2c0,.1.1.2.2.3h0c0,.1,0,.1,0,.1l-.2-.4ZM334.5,48.6h0s0,0,0,0c0-.2.2-.4.2-.6l-.3.7h0ZM324,40.8c.8.2,1.5.4,2.2.6-.7-.2-1.5-.5-2.2-.6ZM324,40.8h0ZM351.6,36.9h.3c3.6,0,7.1,1.4,9.8,3.6-2.7-2.2-6.2-3.5-9.8-3.6h-.3ZM316.1,39.9h-.2c-.5.2-.9.4-1.2.6.4-.2.7-.4,1.1-.5h.3ZM317.6,39.7c.8,0,1.6.1,2.3.2-1-.2-2.1-.3-3.2-.2h-.1.2c.2,0,.5,0,.8,0h0ZM290.9,31.7c-.4.2-.8.4-1.2.6-2.1,1.1-5.6,3.4-5.8,7,0,.2,0,.4,0,.5v-.5c.2-3.5,3.7-5.9,5.8-7,.4-.2.8-.4,1.2-.6ZM316,38.6c0,.2.1.4.2.7,0-.2-.1-.4-.2-.7ZM309.5,30.1c.1,0,.3.1.4.2,2,1,3.7,2.8,4.9,5.2-1.2-2.3-2.9-4.2-4.9-5.2-.1,0-.3-.1-.4-.2ZM303.6,29h.3c.7,0,1.3,0,1.9.1-.6,0-1.2-.1-1.9-.1h-.3Z"/>
        <path class="cls-1" d="M343.8,153.5l-.4-.3c-3-2.7-4.4-7.1-4.4-13,0-1.4,0-2.7.1-4,.2-3,.3-6.1-.2-9v-.5c-.1,0,1.9-.4,1.9-.4v.5c.7,3.1.6,6.4.4,9.5,0,1.3-.1,2.7-.1,4,0,5.3,1.2,9.1,3.8,11.5l.4.3-1.4,1.5h0ZM340.1,138.7c0,.5,0,1,0,1.5v.8-.8c0-.5,0-1,0-1.5ZM340,127.4c.2,1.2.3,2.4.3,3.6,0-1.2-.1-2.4-.3-3.6h0Z"/>
        <path class="cls-1" d="M349.3,312.7v-.5c-7.9-27.9-7.7-54.5-4.9-86.1,1.2-13.2,3-28.7,8.1-43,.7-2.1,1.6-4.2,2.4-6.3,2.6-6.7,5.2-13.5,5.5-20.6v-.5s2,0,2,0v.5c-.3,7.4-3,14.4-5.6,21.2-.8,2.1-1.6,4.2-2.4,6.3-5,14.2-6.8,29.5-8,42.5-2.7,31.3-3,57.8,4.7,85.4v.5c.1,0-1.8.5-1.8.5h0ZM344.8,233.4c-1.7,23-1.8,43.5,2,64.1-3.8-20.6-3.7-41.1-2-64.1ZM353.9,182.1c-.2.4-.3.9-.5,1.3-1.6,4.5-2.8,9-3.9,13.5,1-4.6,2.3-9.1,3.9-13.5.1-.4.3-.9.5-1.3ZM357.2,173.5c-.5,1.2-.9,2.4-1.4,3.6-.1.4-.3.8-.5,1.1.1-.4.3-.8.4-1.1.5-1.2.9-2.4,1.4-3.6h0ZM361.4,156.8c0,1.7-.3,3.5-.7,5.2.3-1.7.6-3.4.7-5.2h0Z"/>
        <path class="cls-1" d="M386.6,289.2c-1.6,0-3.2-.9-4.4-1.6-13-8-24.9-16.3-29.2-29.4-2.4-7.2-1.9-15.2-1.5-22.2.8-14.7,1.7-30,5.5-44.6,1.9-7.4,11.4-35.3,23-37.9,3.5-.8,6.9.7,9.9,4.5,2.7,3.3,4.1,7.4,5.3,11.4,2,6.6,3.8,13.4,5.3,20.2,1.3,6.2,2.9,14.5,2.9,23.1,0,6.7-1,13.4-1.9,19.9l-2.9,20.4c-1.5,10.9-3.1,22.1-7.5,32.5-.5,1.3-1.2,2.7-2.6,3.4-.6.3-1.2.5-1.9.5h0ZM385.2,288c1,.3,2,.3,2.8,0,.1,0,.3-.2.4-.2-.1,0-.2.2-.4.2-.9.5-1.8.4-2.8,0ZM358.8,191.9c-3.7,14.4-4.6,29.5-5.4,44.1-.4,6.8-.8,14.6,1.4,21.5,4.1,12.5,15.7,20.5,28.4,28.3,1.5.9,3.1,1.7,4.3,1.1.8-.4,1.3-1.5,1.7-2.4,4.3-10.2,5.8-21.3,7.4-32l2.9-20.3c.9-6.4,1.9-13.1,1.9-19.6s-1.5-16.5-2.8-22.6c-1.4-6.7-3.2-13.5-5.2-20-1.2-3.8-2.5-7.6-5-10.7-2.6-3.1-5.2-4.4-7.9-3.8-10.6,2.3-19.8,29.8-21.5,36.4h0s0,0,0,0ZM354.8,260.4c3,7.1,8.5,12.8,15.2,17.8-6.6-5-12.1-10.7-15.2-17.8ZM400.6,231.3c0,.4-.1.7-.2,1.1l-2.9,20.3c-1,6.7-1.9,13.6-3.5,20.2,1.6-6.7,2.6-13.5,3.5-20.2l2.9-20.3c0-.4.1-.7.2-1.1ZM354.8,260.4h0ZM357.7,192.1c-3.1,12.3-4.2,25.1-5,37.7.8-12.6,1.8-25.4,5-37.7h0ZM402.3,213.8h0ZM402.3,212.5h0c0,.4,0,.8,0,1.2,0-.4,0-.8,0-1.2h0ZM396.5,177.5c1.1,4,2.1,8.1,3,12.2.6,2.6,1.2,5.6,1.7,8.8-.5-3.2-1.1-6.2-1.7-8.8-.9-4.1-1.9-8.2-3-12.2ZM357.9,191.5s0,.1,0,.1c0,0,0,.1,0,.2v-.4ZM358,191.1h0c2-7.5,11.1-33.7,21.8-36.6-10.8,2.9-19.7,28.8-21.8,36.6ZM381.7,154.3c2.6,0,5.1,1.5,7.4,4.3,2.4,3,3.8,6.8,5,10.4-1.1-3.6-2.5-7.4-5-10.4-2.7-3.3-5.6-4.8-8.6-4.2.4,0,.8-.1,1.2-.1Z"/>
        <path class="cls-1" d="M328.1,284v-.5c-.5-25.7,1.4-51.7,5.7-77,1.6-9.4,3.6-19.4,9.1-27.7l.3-.4,1.7,1.1-.3.4c-5.3,8-7.2,17.7-8.8,26.9-4.2,25.3-6.1,51.1-5.6,76.7v.5h-2s0,0,0,0ZM329.6,255.8c-.4,9-.6,18.1-.4,27.1h0c-.1-9,0-18.1.4-27.1ZM338.4,190.8h0ZM343.5,179.7c-2.2,3.5-3.8,7.2-5.1,11,1.2-3.9,2.9-7.6,5.1-11h0Z"/>
        <path class="cls-1" d="M298,270.1l-1.9-.5v-.5c3.9-14.4,5.7-29.2,5.5-44.1,0-4.2-.3-9.8-1.5-15.2-1.2-5.2-3.1-10.2-5.8-16l-.2-.5,1.8-.8.2.5c2.7,5.9,4.7,11,5.9,16.4,1.2,5.6,1.5,11.2,1.5,15.6.2,15-1.6,30-5.4,44.6v.5c-.1,0-.1,0-.1,0ZM297.3,268.9h0c2-7.9,3.5-15.9,4.3-23.9-.9,8.1-2.3,16.1-4.3,23.9ZM302.5,223.7c0,.5,0,.9,0,1.3,0,2.3,0,4.7,0,7,0-2.3,0-4.7,0-7,0-.4,0-.9,0-1.3ZM300.6,207.8c.2.6.3,1.2.5,1.9.4,1.9.7,3.9,1,5.8-.2-1.9-.5-3.9-1-5.8-.1-.6-.3-1.3-.5-1.9ZM295.4,194c.4.9.8,1.8,1.2,2.7-.4-.9-.8-1.8-1.2-2.7h0Z"/>
        <path class="cls-1" d="M270.1,320.7l-1.3-1.5.4-.3c17.7-14.3,36.8-26.9,56.9-37.6l.4-.2.9,1.8-.4.2c-20,10.6-39,23.2-56.5,37.4l-.4.3h0ZM289,305.1c-5.1,3.6-10.1,7.3-15.1,11.2,4.9-3.8,10-7.6,15.1-11.2Z"/>
        <path class="cls-1" d="M270.7,320.5l-.2-.5c-3.4-7.8-7-15.2-13.1-19.4l-1.4-1,1.5-.8c15-7.3,28.3-17.2,39.8-29.4h-.6c0,0,0-.6,0-.6,0-.4.2-.7.5-.9v-.2s.1.1.1.1c.2-.1.4-.2.6-.2.7,0,1.4.5,1.5,1.1.2.9-.4,1.5-.7,1.8-11.2,12-24.3,21.7-38.9,29.1,5.8,4.6,9.2,11.8,12.5,19.2l.2.5-1.8.8h0ZM257.9,299.8h0c6.2,4.3,9.9,11.6,13.3,19.4h0c-3.3-7.5-6.8-14.5-12.6-18.9l-.6-.5.7-.4c5.4-2.7,10.6-5.7,15.5-9-5.2,3.5-10.6,6.6-16.3,9.4h0ZM274.2,290.4h0ZM298.3,269.8c0,0-.1.2-.2.3,0,0,.1-.2.2-.3Z"/>
        <path class="cls-1" d="M272.9,412.7c-.2,0-.4,0-.6-.2-8.5.1-17.2,0-25.5-.2-3.9,0-7.8-.1-11.6-.2h-.8v-.8c-4.9-25.5-9.8-51.8-9-78.2.1-4,.3-8.5,1.7-12.9,1.2-3.7,3.2-7.2,6.5-11.6,11.6-15.5,27.8-25.5,44.4-27.5h.5c0,0,.2,1.9.2,1.9h-.5c-16,1.9-31.7,11.7-43,26.7-3.1,4.2-5,7.6-6.1,11-1.3,4.1-1.5,8.5-1.6,12.3-.7,26.1,4.1,52,8.7,77,3.6,0,7.1.1,10.7.2,8.3.2,16.8.3,25.3.2h0s.1,0,.1,0c0-.1,0-.3.1-.4-3.6-19.3-7.4-39.3-4.8-59.6.3-2.6.8-5.5,2.6-7.9,1.8-2.4,5.4-3.9,8.2-2.3l.4.2-1,1.8-.4-.2c-1.9-1-4.4.1-5.7,1.8-1.5,1.9-1.9,4.6-2.2,6.9-2.5,20,1.3,40.2,4.9,59.7v.5c0,0-.3,0-.3,0,0,0,0,.2,0,.2,0,.6-.2,1.4-1,1.5h-.1,0ZM272.9,411.7v.5-.5c0,0,0-.1.1-.2h-.4s.1,0,.1,0v.2c.1,0,.2.5.2.5v-.5ZM245.2,411.3h1.5c8.4.2,17,.3,25.5.2-8.6.1-17.2,0-25.5-.2-.5,0-1,0-1.5,0ZM235.1,411.2v-.4c-.2-1-.4-1.9-.6-2.9.2,1.1.4,2.2.6,3.3h0ZM273.2,410.5h0s0,0,0,0c0,0,0,0-.1,0,0,0,0,0,0,0h0ZM268.4,350.4c0,0,0,.2,0,.2-2.4,19.2.9,38.3,4.3,56.8-3.5-18.6-6.8-37.7-4.3-56.8,0,0,0-.2,0-.2h0ZM275.7,340.6c-1.1,0-2.2.4-3.2,1,1.4-.9,3.2-1.3,4.7-.7-.5-.2-1-.3-1.6-.3h0ZM226.4,330c0,1.1-.1,2.2-.1,3.2,0,1.4,0,2.8,0,4.2,0-1.4,0-2.8,0-4.2,0-1,0-2.1.1-3.2ZM228.7,318.5c-.3.7-.6,1.4-.8,2.1-.4,1.3-.7,2.6-1,3.9.2-1.3.5-2.6,1-3.9.2-.7.5-1.4.8-2.1ZM277.4,282.3c-16.1,2-31.8,11.9-43.2,27-.6.8-1.1,1.5-1.6,2.2.5-.7,1-1.5,1.6-2.2,11.4-15.2,27.1-25,43.2-27h0Z"/>
        <path class="cls-1" d="M287.5,419.9v-.5c-6.5-25-9.7-50.7-9.4-76.5v-.5h2v.5c-.2,25.6,2.9,51.2,9.2,76v.5c.1,0-1.8.5-1.8.5h0ZM279,343.5c-.2,25.4,2.9,50.7,9.2,75.2h0c-6.3-24.6-9.4-49.9-9.2-75.2h0Z"/>
        <path class="cls-1" d="M254.2,429.5l-1.6-6.7c-.8-3.3-1.6-6.7-2-10.1v-.5s1.9-.2,1.9-.2v.5c.4,3.3,1.2,6.6,1.9,9.8l1.1,4.5,5.5-2c2.2-.8,4.4-1.6,6.5-2.4,6.2-2.3,13.1-4.9,20.3-4.5h.5s-.1,2-.1,2h-.5c-6.7-.4-13.5,2.1-19.5,4.3-2.1.8-4.1,1.5-6.2,2.3l-.4.2c-2.2.8-4.4,1.6-6.5,2.4l-1.1.4h0ZM260.7,426l-4.9,1.8c1.6-.6,3.3-1.2,4.9-1.8ZM286.6,418.8c-6.3,0-12.5,2.2-18,4.3,5.6-2.1,11.7-4.3,18-4.3h.1-.1ZM252.3,416.8c.2,1,.4,2,.6,3.1-.2-1-.5-2-.6-3.1ZM252.3,416.8h0Z"/>
        <path class="cls-1" d="M242.7,446.2l-2-.3v-.5c.9-5.4-.3-11.5-1.7-18-1.1-5.4-2.2-10.9-2.1-16.2v-.5h2v.5c-.1,5.1,1,10.5,2.1,15.8,1.4,6.7,2.6,12.9,1.8,18.7v.5q0,0,0,0ZM237.9,411.7c0,.8,0,1.6,0,2.4,0-.8,0-1.6,0-2.4h0Z"/>
        <path class="cls-1" d="M248.5,475.5v-1.3c0-2.4-.4-2.8-2.4-4.1l-.4-.3,1.1-1.7.4.3c2.2,1.4,3.1,2.3,3.3,4.5,3.5-.9,7.8-1.2,12.8-.8l-1.4-7.7c-.8-4.1-1.6-8.3-2.9-12.3-.5-1.5-1.1-3-1.7-4.5-.8-2.1-1.7-4.3-2.3-6.6-.6-2.4-.3-5.1,0-7.8.2-1.9.4-3.7.3-5.2v-.5s1.9-.2,1.9-.2v.5c.2,1.7,0,3.6-.2,5.6-.3,2.5-.6,5.1,0,7.1.6,2.2,1.4,4.3,2.2,6.4.6,1.5,1.2,3.1,1.7,4.6,1.4,4.1,2.2,8.4,2.9,12.6l1.9,10.3h-1.3c-5.8-.6-10.7-.3-14.5.9l-1.3.4h0ZM249.5,473.6c0,.2,0,.4,0,.6,1.9-.6,4.1-1,6.5-1.1-2.2.2-4.1.5-5.9,1l-.6.2v-.6h0ZM259.3,472.9c1.6,0,3.3,0,5.1.2h-.6c-1.7-.2-3.3-.2-4.9-.2h.4,0ZM256,473h0ZM248.9,471.2c.3.5.4,1,.5,1.7,0-.7-.2-1.3-.5-1.7ZM256.5,442.6c.5,1.5,1.1,3,1.7,4.5l.6,1.5c-.2-.5-.4-1-.6-1.5-.6-1.5-1.2-3-1.7-4.5h0ZM255.6,439.1c0,.5.1,1,.3,1.5,0,.2.1.5.2.8,0-.2-.1-.5-.2-.8-.1-.5-.2-1-.3-1.5ZM256.2,428.2c0,1.3,0,2.7-.2,4.2.2-1.5.3-2.9.2-4.2h0Z"/>
        <path class="cls-1" d="M209.1,481.3c-2.4,0-4.6-.5-6.7-1.5-2.6-1.3-4.2-3.3-4.2-5.5,0-2.7,2.2-4.8,6.6-6.3,1.2-.4,2.5-.8,3.8-1.2h.2c5.7-1.9,11.6-3.7,17-6.5,5.2-2.7,12-7.5,15.1-15.2l.2-.5,1.9.8-.2.5c-3.3,8.2-10.5,13.3-16,16.2-5.5,2.9-11.5,4.8-17.3,6.6h-.2c-1.2.5-2.5.9-3.7,1.3-2.4.8-5.2,2.2-5.2,4.4,0,2,2.4,3.3,3.1,3.7,7.2,3.4,15.3-.7,23.2-4.7,1.9-1,3.7-1.9,5.4-2.7l1.1-.5c2.4-1.1,4.8-2.2,7.4-2.6,3.6-.6,7,.4,9,2.6l.3.4-1.5,1.3-.3-.4c-1.8-2-4.9-2.4-7.2-2-2.4.4-4.7,1.5-6.9,2.5l-1.1.5c-1.7.8-3.5,1.7-5.3,2.6-6,3.1-12.3,6.2-18.3,6.2h0ZM200.2,476.8c.6.8,1.5,1.5,2.7,2.1,2,.9,4,1.4,6.2,1.4,5.8,0,11.9-3.1,17.9-6.1,1.9-1,3.6-1.8,5.4-2.7l1.1-.5,1.2-.6c-.4.2-.8.4-1.2.6l-1.1.5c-1.7.8-3.5,1.7-5.3,2.6-8.2,4.2-16.6,8.4-24.2,4.8-.5-.3-1.8-1-2.7-2.1h0ZM199.2,474.4h0s0,0,0,0h0ZM199.2,474.3h0ZM205,469.1c-3.8,1.3-5.7,3-5.7,5.2,0-2.2,2-4,5.7-5.2ZM242.4,468.3c2.1,0,4.3.6,6,2.1h0c-1.8-1.7-4.5-2.4-7.5-2,.5,0,1-.1,1.6-.1ZM210,467.5c-.3,0-.6.2-.9.3h-.2c-1,.4-2,.7-3,1,1-.3,2-.6,3-.9h.2c.3-.2.6-.3.9-.4ZM230.1,459c-1.3.9-2.6,1.6-3.9,2.3-1.5.8-3.1,1.5-4.6,2.2,1.6-.7,3.1-1.4,4.6-2.2,1.2-.6,2.5-1.4,3.9-2.3Z"/>
        <path class="cls-1" d="M258.8,452.2l-.4-2h.5c2-.5,3.9-2,5.7-4.6,4.4-6.4,5.9-14.7,3.9-22.2v-.5c-.1,0,1.8-.5,1.8-.5v.5c2.2,8.1.7,17-4.1,23.8-2.1,3.1-4.4,4.8-6.9,5.3h-.5q0,0,0,0Z"/>
        <path class="cls-1" d="M278.5,472.9v-1.1c.1-3-.2-6-.9-9-4.6,1.7-9.5,3-14.4,3.7h-.5c0,0-.3-1.9-.3-1.9h.5c5.1-.8,10.2-2.2,15-4.1l1-.4.3,1.1c.9,3.1,1.3,6.3,1.3,9.5,3.1-.2,6.6-.5,10.1-.4-.8-13.7-3.1-27.3-6.7-40.5v-.4c-.9-3-1.8-6.1-1.4-9.3v-.5c0,0,2,.2,2,.2v.5c-.4,2.8.4,5.7,1.2,8.5v.4c3.9,13.7,6.2,27.8,7,42v1.1c0,0-1,0-1,0-4-.2-7.9.1-11.9.5h-1.3c0,0,0,0,0,0ZM279.5,469.2c0,.9,0,1.8,0,2.7h.1c3.2-.3,6.2-.5,9.3-.5-3.1,0-6,.2-8.9.5h-.5s0-.5,0-.5c0-.7,0-1.4,0-2.1h0ZM291.3,471.4c.1,0,.3,0,.4,0h-.4ZM263.5,465.5h0c1.1-.2,2.2-.4,3.4-.6-1.1.2-2.2.4-3.4.6ZM284.2,427c.2.7.4,1.5.6,2.2v.4c3.3,11.5,5.4,23.3,6.5,35.2-1.1-11.9-3.2-23.7-6.4-35.2v-.4c-.3-.7-.5-1.5-.7-2.2ZM278.4,461.9v.2c.1.4.2.7.3,1.1,0-.4-.2-.8-.3-1.3ZM276,462.4h0ZM276,462.4h0ZM277.2,461.9c-.4.2-.8.3-1.2.4.4-.1.8-.3,1.2-.4ZM277.2,461.9h0ZM277.2,461.9h0ZM278.3,461.5h0c-.2,0-.3.1-.5.2l.5-.2h0Z"/>
        <path class="cls-1" d="M366.3,321.4c0,0-.2,0-.2,0-.5,0-.9-.3-1.2-.7l-.3-.4,1.6-1.2.2.3c.2,0,.5-.2.8-.4,4.6-4,9.4-8,12.9-13.1,3.9-5.5,5.5-11.5,4.7-16.8v-.5c0,0,1.9-.3,1.9-.3v.5c1,5.8-.8,12.3-5,18.3-3.6,5.2-8.5,9.4-13.2,13.4-.3.3-1.2.9-2.1.9h0ZM366.1,320.4s0,0,0,0c.5,0,1.2-.3,1.6-.7.3-.2.5-.5.8-.7-.3.2-.5.5-.8.7-.4.3-1.1.7-1.6.7,0,0,0,0-.1,0h0ZM384.6,299.3c-.9,2.4-2.1,4.9-3.8,7.2-.7,1-1.5,2-2.2,2.9.8-.9,1.5-1.9,2.2-2.9,1.6-2.3,2.9-4.8,3.8-7.2Z"/>
        <path class="cls-1" d="M361.7,353.7c-2.2,0-4.5,0-7-.2-10.4-.4-17.4-1.2-24.7-2-5.2-.6-10.7-1.2-17.7-1.7h-1.5c-7.7-.6-28.1-1.9-32.2-7.5-.8-1.1-1-2.2-.7-3.4,1.9-7.3,7.1-14.7,13.9-19.8,6.5-4.8,14.7-8,25-9.8,10.7-1.9,26.4-2.7,40.6,4.3,13.4,6.6,22.5,19.3,23.3,32.5,0,1.3,0,2.8-.9,4-.8,1.1-3.5,2-4.7,2.3-2.6.8-7.2,1.2-13.4,1.2h0ZM324.2,350c2,.2,4,.4,5.9.6,7.4.8,14.3,1.5,24.6,2,.5,0,1,0,1.4,0-.5,0-.9,0-1.4,0-10.4-.4-17.3-1.2-24.6-2-1.9-.2-3.9-.4-5.9-.6ZM377.7,350.5c-1.2.5-2.6,1-2.9,1.1-.9.3-2.5.6-5.2.8,2.2-.2,4-.5,5.2-.8.9-.3,2-.7,2.9-1.1ZM331.2,310.1c-4.6,0-9.3.4-14.1,1.3-10,1.8-17.9,4.9-24.1,9.5-6.5,4.8-11.4,11.8-13.2,18.7-.2.6,0,1.2.4,1.8,2.4,3.2,12.7,5.5,30.7,6.6h1.6c7.1.6,12.5,1.2,17.8,1.8,7.3.8,14.3,1.5,24.6,2,12.7.5,17.9-.4,19.8-1,1.9-.6,3.4-1.3,3.7-1.6.5-.7.5-1.7.5-2.7-.8-12.5-9.5-24.6-22.2-30.8-7.3-3.6-15.8-5.4-25.3-5.4h0ZM289.9,346.4c7.3,1.6,16.4,2.1,20.9,2.4h1.6c2.2.3,4.3.4,6.2.6-1.9-.2-4-.3-6.2-.5h-1.6c-6.6-.5-14.6-1.2-20.9-2.5h0ZM278.8,339.5c-.1.8,0,1.5.5,2.2-.5-.7-.6-1.5-.5-2.2ZM284.3,328c-1.1,1.4-2,2.9-2.8,4.4.8-1.5,1.8-3,2.8-4.4ZM367.1,321.5h0ZM348.3,311.3c3,.8,5.9,2,8.6,3.3,3.8,1.8,7.2,4.2,10.2,6.9-3-2.7-6.4-5.1-10.2-6.9-2.8-1.4-5.7-2.5-8.6-3.3ZM311.7,311.5c-3.1.8-6,1.7-8.7,2.7,2.7-1.1,5.6-2,8.7-2.7ZM328.5,309.1h0,0ZM331.2,309.1c-.9,0-1.8,0-2.7,0,1.3,0,2.6,0,3.9,0h-1.2,0ZM332.4,309.1h0Z"/>
        <path class="cls-1" d="M332.8,424.9h-2v-.5c.1-11.9-1.4-24-2.9-35.6-1.6-12.5-3.3-25.4-2.9-38.3v-.5s2,0,2,0v.5c-.4,12.7,1.2,25.5,2.9,37.9,1.5,11.8,3.1,23.9,2.9,35.9v.5h0ZM331.8,423.9h0c0-6.5-.4-13-1-19.4.6,6.5,1.1,13,1,19.4ZM326,351c-.2,9.3.6,18.6,1.7,27.8-1.1-9.2-1.9-18.5-1.7-27.8h0Z"/>
        <path class="cls-1" d="M295,455.2v-.5c-.3-3.2,1-6,2.4-8.7,3.6-7,9.6-16.8,19.4-21.3,2.2-1,4.8-1.8,7.9-2.5,11.5-2.4,24.1-1.3,35.3,3.2,11,4.4,20.8,11.9,28.1,21.7l.3.4-1.6,1.2-.3-.4c-7.1-9.5-16.6-16.7-27.3-21-10.9-4.4-23-5.5-34.2-3.1-2.9.6-5.4,1.4-7.4,2.3-9.2,4.2-14.9,13.7-18.4,20.4-1.2,2.4-2.5,5-2.2,7.6v.5s-1.9.2-1.9.2h0ZM297,449.1c-.3.7-.6,1.5-.8,2.2.2-.8.5-1.5.8-2.2ZM307,433.4h0ZM307,433.4h0ZM307,433.4h0ZM307,433.4h0ZM307,433.3h0ZM308.2,432c-.4.4-.8.9-1.2,1.3.4-.4.8-.9,1.2-1.3ZM361.7,427.2c3.3,1.5,6.5,3.2,9.6,5.3-3-2-6.2-3.8-9.6-5.3ZM308.2,432h0ZM308.2,432h0ZM308.2,432h0ZM318.2,425.1h0ZM321.7,423.9c-1.2.4-2.4.8-3.5,1.2,1.1-.4,2.2-.8,3.5-1.2Z"/>
        <path class="cls-1" d="M328.8,479.2c-2.6,0-5.1-1.1-6.8-2-3.3-1.8-6.3-4.1-8.8-7-1.6-1.8-2.6-3.4-3.1-5-1.3-4.3-.5-10.1,2-13.7,1.7-2.5,4.1-3.9,6.8-4.1,6.4-.5,17.9.9,21.5,6.3,1.3,1.9,1.6,4.5,1,8-.9,4.8-2.8,9.4-5.7,13.4-.8,1-1.7,2.2-3,3-1.2.7-2.5,1.1-4.1,1.1h0ZM323.1,476.7c1.5.8,3.6,1.5,5.8,1.5s.9,0,1.2,0c-2.5.4-5.2-.6-7-1.5ZM321.4,449.4c-.8,0-1.6,0-2.2,0-2.1.2-3.9,1.3-5.3,3.2-2.2,3.2-2.9,8.2-1.8,12h0c.4,1.4,1.2,2.7,2.6,4.3,2.3,2.7,5.1,4.8,8.2,6.5,2.1,1.1,6,2.7,8.8.9,1-.6,1.8-1.6,2.4-2.5,2.7-3.7,4.5-8,5.3-12.5.5-2.9.3-5-.7-6.5-2.9-4.3-11.9-5.5-17.5-5.5h0ZM312.4,467.5c.4.7,1,1.4,1.6,2.1,1.3,1.5,2.8,2.9,4.4,4.1-1.6-1.2-3-2.6-4.4-4.1-.7-.8-1.2-1.5-1.6-2.1ZM340.6,461.8c-.7,3.9-2.2,7.7-4.4,11.1,2.1-3.4,3.6-7.2,4.4-11.1ZM310.6,460.9c0,1.4.2,2.8.6,4.1.2.5.4,1.1.7,1.7-.3-.5-.5-1.1-.7-1.7-.4-1.2-.6-2.6-.6-4.1ZM321.3,448.4c5.6,0,14.6,1.2,18,5.4-3.8-4.6-14.3-5.7-20.2-5.3-2.4.2-4.5,1.4-6,3.7,0,.1-.2.3-.3.4,0-.2.2-.3.3-.4,1.5-2.2,3.6-3.5,6-3.7.6,0,1.4,0,2.2,0Z"/>
        <path class="cls-1" d="M360,472.4c-1.4,0-2.7-.2-3.9-.7-4.1-1.5-7.4-5.5-8.1-9.9-.5-3.5.7-9.4,3.3-12.2,2.7-2.8,7.4-2.2,11.2-1.8.9.1,1.8.2,2.5.3,2.9.2,6.2.5,8,3,1,1.3,1.4,3,1.4,5.2,0,4.8-2,9.5-5.2,12.5-2.5,2.3-5.9,3.6-9.2,3.6h0ZM349.9,464.7c1.3,2.8,3.7,5.1,6.5,6.1.5.2,1,.3,1.5.4-.5,0-1-.2-1.5-.4-2.8-1-5.2-3.3-6.5-6.1ZM367.2,469.1c-1.3.9-2.8,1.5-4.2,1.9,1.5-.4,3-1,4.2-1.9ZM357.8,449.5c-2.4,0-4,.5-5,1.5-2.2,2.3-3.2,7.4-2.8,10.5.6,3.8,3.3,7.1,6.8,8.3,3.6,1.3,8.1.2,11.1-2.5,2.9-2.6,4.6-6.7,4.6-11,0-1.8-.3-3.1-1-4-1.3-1.8-4.1-2.1-6.5-2.2-.8,0-1.7-.2-2.6-.3-1.4-.2-3-.4-4.5-.4h0ZM357.8,448.5c-2.2,0-4.4.4-5.8,1.8-2.4,2.5-3.5,7.8-3.1,11.2-.4-3.3.8-8.7,3.1-11.2,1.2-1.2,3.1-1.8,5.8-1.8s3.2.2,4.6.4c0,0,.1,0,.2,0,0,0-.1,0-.2,0-1.5-.2-3.1-.4-4.6-.4ZM373.5,456.2h0v.3-.2h0ZM373,453h0ZM373,453h0ZM373,453h0ZM372.9,453h0ZM372.9,453h0ZM372.9,452.9h0ZM372.9,452.9h0ZM372.9,452.9h0ZM372.9,452.9h0ZM372.9,452.9h0ZM372.9,452.9h0ZM372.9,452.9h0ZM372.9,452.9h0ZM372.9,452.9h0ZM372.9,452.9h0ZM372.9,452.9h0ZM372.9,452.9h0ZM372.9,452.9h0ZM372.9,452.9h0ZM372.9,452.9h0ZM372.9,452.9h0ZM372.9,452.9h0ZM372.9,452.9h0ZM372.9,452.9h0ZM372.9,452.9h0ZM372.9,452.9h0ZM372.9,452.9h0ZM372.9,452.9h0ZM372.9,452.9h0Z"/>
        <path class="cls-1" d="M248.3,352c-.1,0-.3,0-.4,0-1.7-.3-2.3-2.1-2.4-3.7,0-4.5,2-8.5,4.1-12.3,2.1-4,4-7.7,3.8-11.8v-.5s2-.1,2-.1v.5c.3,4.6-1.9,8.8-4,12.8-1.9,3.7-3.9,7.4-3.8,11.4,0,.8.3,1.7.7,1.7.2,0,.5,0,.8-.3,1.6-1,2.8-2.7,3.7-4.4,1.8-3.2,3.4-6.5,4.6-9.9.3-.9.6-1.9,1-2.8.9-2.6,1.8-5.4,3.2-7.9,2.2-4,5.6-6.8,9.1-7.5h.5c0,0,.4,1.9.4,1.9h-.5c-3,.7-5.8,3.1-7.8,6.6-1.3,2.3-2.2,5-3,7.5-.3,1-.6,1.9-1,2.9-1.3,3.5-2.9,7-4.7,10.2-1.1,2-2.5,3.9-4.5,5.1-.4.2-1,.6-1.8.6h0ZM249.5,350.6c-.3.2-.5.3-.8.3.3,0,.6-.2.8-.3ZM250,337.3c-1.8,3.5-3.5,7.1-3.5,11,0,1.1.4,2.3,1.3,2.6-.9-.3-1.3-1.6-1.3-2.6,0-3.9,1.7-7.5,3.5-11ZM256.6,339.8c-.9,2-1.9,4-3,6-.4.7-.9,1.4-1.3,2.1.5-.7.9-1.4,1.3-2.1,1.1-1.9,2.1-3.9,3-6ZM262.7,324.4c-.1.2-.3.5-.4.7-.9,1.7-1.6,3.5-2.3,5.3.6-1.8,1.4-3.6,2.3-5.3.1-.2.3-.5.4-.7ZM268.7,318.8c-.9.4-1.8,1-2.6,1.7.8-.7,1.7-1.3,2.6-1.7Z"/>
        <path class="cls-1" d="M248.5,348.4c-.1,0-.2,0-.3,0h-1c0,0,.1-1.1.1-1.1.2-1.8.8-3.6,1.6-5.2l.2-.4,1.7,1h0c.3.2.6.4.8.7.5.6.6,1.5.4,2.3-.4,1.6-1.9,2.8-3.6,2.8h0ZM250,344.5c-.2.5-.4,1-.5,1.6.3-.2.5-.5.6-.9,0-.3,0-.5,0-.6,0,0,0,0,0,0h0ZM251.2,344.9c0,.2,0,.3,0,.5,0,0,0,0,0,.1,0,0,0,0,0-.1,0-.2,0-.3,0-.5ZM249.3,343.6c-.1.3-.3.7-.4,1,.1-.3.2-.6.4-.9h0q0-.1,0-.1ZM250.8,343.9s0,0,0,0c0,0,0,0,0,0,0,0,0,0,0,0,0,0,0,0,0,0ZM250,343.5h0,0Z"/>
        <path class="cls-1" d="M231,343.3h0c-.8,0-1.5-.2-2.2-.5-1.5-.7-2.7-2.3-3.2-4.2-.4-1.7-.4-3.3-.2-4.9v-.5s2,.2,2,.2v.5c-.1,1.4-.2,2.9.1,4.3.4,1.4,1.2,2.4,2.2,2.9,2.4,1.1,5.3-1.3,6.1-2,.7-.6,1.5-1.4,1.8-2.3.4-1,.3-2.2.2-3.3,0-.7-.1-1.3-.2-2-.3-2.7-.5-5.4,0-8.2.5-3.2,2.5-7.1,6.3-8.3l.5-.2.6,1.9-.5.2c-3,1-4.5,4.2-5,6.7-.4,2.5-.2,5.1,0,7.6,0,.7.1,1.3.2,2,.1,1.3.2,2.8-.4,4.2-.5,1.3-1.5,2.3-2.3,3.1-1.2,1.1-3.5,2.8-6.1,2.8h0ZM229.4,342c.5.2,1,.3,1.5.3,2.1,0,4.2-1.5,5.2-2.4-1.1,1-4,3.1-6.7,2.1h0ZM226.2,336.7c0,.5.1,1,.3,1.6.4,1.6,1.3,2.8,2.5,3.5-1.2-.6-2.1-1.9-2.5-3.5-.1-.5-.2-1-.3-1.6ZM238.6,331.5c0,.5,0,1,.1,1.5,0-.5,0-1-.1-1.5ZM243.7,316c-3.1,1.2-4.7,4.6-5.2,7.3-.1.6-.2,1.2-.2,1.8,0-.6.1-1.2.2-1.8.5-2.7,2.1-6.1,5.2-7.3h0Z"/>
        <path class="cls-1" d="M234.4,359.8h0c-.6,0-1.1-.1-1.5-.4-.4-.3-.6-.7-.8-1.1-1.8-4.1-1.6-8.9.4-12.9.2-.3.3-.6.5-.9.6-1,1.1-2,1.2-3v-.5s2,0,2,0v.5c0,1.5-.8,2.7-1.4,3.9h0c-.1.4-.3.6-.4.9-1.8,3.4-1.9,7.7-.4,11.2.1.2.1.3.2.3,0,0,0,0,.3,0,2.8,0,4.4-3.7,4.9-5.3,1.4-4.2,2.2-8.7,2.9-13.1.9-5.4,1.8-11,4.1-16.2l.2-.5,1.8.8-.2.5c-2.2,4.9-3.1,10.4-3.9,15.7-.7,4.4-1.5,9-3,13.4-.7,2-2.7,6.6-6.8,6.7h0ZM234.1,358.8c0,0,.2,0,.2,0h0c3.4,0,5.2-4.2,5.8-6,1.1-3.3,1.9-6.9,2.5-10.3-.6,3.5-1.3,7-2.5,10.3-.6,1.8-2.4,6-5.8,6,0,0-.2,0-.3,0h0ZM233.1,358c.1.2.2.4.4.6-.2-.2-.3-.3-.4-.6ZM233.5,345.6c0,0,0,.1-.1.2-1.9,3.7-2.1,8.1-.4,12-1.6-3.8-1.5-8.3.4-12,0,0,0-.1.1-.2h0ZM234.2,344.4c0,.2-.2.3-.3.5s-.2.3-.3.5c0-.1.1-.3.2-.4h0c0-.3.2-.4.3-.6h0Z"/>
        <path class="cls-1" d="M227.2,337l-2-.3v-.5c1.4-8.5,5.5-16.5,11.8-22.4,2.8-2.6,5.9-4.8,8.9-6.9l10.8-7.6,1.1,1.6-10.8,7.6c-3,2.1-6,4.2-8.7,6.7-6,5.6-9.9,13.2-11.1,21.3v.5c0,0,0,0,0,0ZM226.4,335.9h0c1.3-8.1,5.3-15.7,11.3-21.4,2.7-2.6,5.8-4.7,8.8-6.8l10-7-10,7c-3,2.1-6.1,4.3-8.8,6.8-6,5.7-10,13.2-11.3,21.4Z"/>
        <path class="cls-1" d="M232.6,341h-.1c-1.7,0-3.4-1.2-4.1-2.7-.6-1.3-.4-2.6.5-3.7,1.1-1.3,3.6-1.4,5.4-.7,1.4.5,2.1,1.5,2.1,2.7,0,.5-.2.9-.5,1.3-.5.8-1,1.6-1.6,2.3-.2.3-.5.6-.9.7-.3.1-.6.1-.8.1h0ZM232,340c.2,0,.3,0,.5,0v.5c0,0,0-.5,0-.5h0c-.2,0-.3,0-.5,0h0ZM232.9,340c0,0-.1,0-.2,0,0,0,.1,0,.2,0ZM234.2,338.6c-.2.3-.5.6-.7.9,0,0,0,0,0,0,0,0,0,0,0,0,.2-.3.5-.6.7-.9ZM232,335.4c-.8,0-1.4.2-1.6.4-.4.5-.5,1-.2,1.6.4.8,1.4,1.5,2.4,1.5h0s0,0,0-.1c.5-.7,1-1.3,1.5-2.1,0,0,.2-.3.2-.4,0-.4-.6-.7-.8-.7-.5-.2-1-.3-1.5-.3h0ZM232,334.4c-1,0-1.9.2-2.3.8-.7.8-.8,1.7-.4,2.7.1.2.2.4.4.6-.1-.2-.3-.4-.4-.6-.4-.9-.3-1.9.4-2.7.7-.9,2.9-1,4.3-.4,0,0,0,0,0,0,0,0,0,0,0,0-.6-.2-1.2-.3-1.9-.3h0ZM235.3,336.5c0,.2-.1.4-.2.6.1-.2.2-.4.2-.6ZM235,335.6c.2.2.3.5.3.8,0-.3-.1-.6-.3-.8Z"/>
        <path class="cls-1" d="M234.6,357.2h-.3c-.3,0-.6,0-1-.3-.8-.6-.8-2-.2-4.8.2-1,.7-2.2,2-2.7,2.1-.9,3.1.2,3.5.7,1.1,1.5.6,4.1-.6,5.5-.9,1-2.2,1.6-3.4,1.6h0ZM234.1,356.1c0,0,.2,0,.3,0h0,0c-.1,0-.2,0-.3,0h0ZM237.3,354.9s0,0,0,0c-.2.3-.5.5-.9.7.3-.2.6-.5.9-.7,0,0,0,0,0,0ZM236.6,351.1c-.2,0-.4,0-.7.2-.4.2-.6.5-.8,1.2-.4,1.6-.4,2.3-.4,2.7.7,0,1.4-.4,1.8-.9.7-.8.9-2.5.5-3,0-.1-.2-.2-.4-.2h0ZM234.2,352.3s0,0,0,0c-.3,1.2-.5,2.2-.5,2.8,0-.7.2-1.6.5-2.8h0ZM237.9,350.8c.3.5.4,1.2.3,1.9,0-.7,0-1.4-.3-1.9ZM235.4,350.4c-.3.2-.5.4-.7.6.2-.2.4-.5.7-.6ZM236.6,350.1c.5,0,.9.2,1.1.5-.3-.4-1-.7-2.1-.3.4-.2.7-.2,1-.2h0Z"/>
        <path class="cls-1" d="M241.7,359c-.1,0-.3,0-.4,0-.3,0-.5-.3-.7-.4-1.2-1.1-1.8-2.7-1.8-4.2v-.5h2v.5c0,1,.4,1.9,1,2.6.8-.2,1.6-.5,2.2-1,.6-.5,1-1.3,1.1-2.3.2-1,.1-2.1,0-3v-.5s2-.1,2-.1v.5c.1,1.1.2,2.3,0,3.5-.2,1-.6,2.4-1.8,3.5-.9.8-2,1.2-3,1.5-.1,0-.4.1-.6.1h0ZM241.2,357.7s0,0,0,0c0,0,0,0,.1.1,0,0,0,0-.1-.1,0,0,0,0,0,0ZM246,354.2c-.2,1-.7,1.9-1.4,2.4-.7.6-1.5.9-2.3,1.2.8-.3,1.6-.6,2.3-1.2.8-.7,1.2-1.6,1.4-2.4ZM239.8,354.8c0,.1,0,.3,0,.4,0-.1,0-.3,0-.4h0Z"/>
        <path class="cls-1" d="M242.9,358.2c-.3,0-.6,0-.9-.2-1.9-1.1-1.9-4.4-1.3-5.9.5-1.4,2.5-2.1,3.8-1.7,1.1.3,1.6,1.3,1.3,2.5-.3,1.4-.8,2.8-1.4,4.1-.1.3-.4,1-1.2,1.2-.1,0-.2,0-.3,0h0ZM241.5,355.2c.1.8.4,1.5.9,1.8-.5-.4-.8-1.1-.9-1.8ZM244.4,354.3c-.2.8-.5,1.5-.8,2.2.3-.7.6-1.5.8-2.2ZM243.8,352.3c-.4,0-1,.2-1.2.5-.3.9-.3,2.4.1,3.1.5-1.1.9-2.3,1.1-3.5,0-.1,0-.2,0-.2h-.1,0ZM243.7,351.3c-.8,0-1.7.4-2,1.1,0,0,0,.1,0,.2,0,0,0-.1,0-.2.3-.9,1.7-1.3,2.5-1.1.3,0,.5.2.6.5-.1-.2-.3-.4-.6-.5s-.3,0-.5,0Z"/>
      </g>
    </g>
  </g>
</svg>