<?xml version="1.0" encoding="UTF-8"?>
<svg id="Layer_1" xmlns="http://www.w3.org/2000/svg" viewBox="0 0 413.55 310.2">
  <g>
    <path d="M45.65,288.94c-1.23-1.57-2.46-3.04-3.69-4.42.35-.41.69-.82,1.04-1.24,1.13,1.51,2.27,3.11,3.4,4.8-.25.29-.5.57-.74.85ZM47.57,286.71c-1.23-1.58-2.46-3.08-3.69-4.49.35-.42.69-.84,1.04-1.27,1.13,1.54,2.26,3.17,3.4,4.88-.25.3-.5.59-.74.88Z" style="fill: #fff;"/>
    <path d="M53.81,275.25c-.43-.61-.87-1.21-1.3-1.79-1.1,1.43-2.21,2.86-3.31,4.26,1.06,1.41,2.12,2.88,3.18,4.41,1.14-1.42,2.29-2.86,3.43-4.32.28.42.57.84.85,1.26-1.14,1.45-2.29,2.89-3.43,4.3,1.2,1.77,2.4,3.61,3.6,5.53.49-.6.98-1.2,1.47-1.8.28.45.56.9.84,1.35-1.29,1.58-2.58,3.14-3.86,4.66-.28-.45-.56-.9-.84-1.34.41-.49.82-.98,1.23-1.47-2.55-4.05-5.09-7.78-7.64-11.12-.41.52-.82,1.03-1.23,1.54-.28-.36-.56-.72-.84-1.07,2.2-2.75,4.41-5.6,6.61-8.5.71.95,1.42,1.93,2.14,2.94-.3.39-.6.78-.91,1.17Z" style="fill: #fff;"/>
    <path d="M61.59,268.67c1.17.12,2.36,1.09,3.47,2.84,1.12,1.75,1.7,3.56,1.72,5.28.02,1.55-.43,3.07-1.23,4.09-.8,1.02-1.9,1.47-2.96,1.25-1.19-.22-2.34-1.25-3.53-3.07-1.06-1.63-1.66-3.37-1.66-4.94-.02-1.47.43-2.93,1.23-3.98.8-1.05,1.87-1.6,2.96-1.46ZM60.22,277.62c1.76,2.72,3.33,3.46,4.52,1.94,1.17-1.49.88-3.9-.82-6.57-1.72-2.68-3.32-3.21-4.49-1.69-1.17,1.54-.88,3.74.8,6.32Z" style="fill: #fff;"/>
    <path d="M65.85,263.99c-.32-1.71-.14-2.88.58-3.81.55-.71,1.12-.9,1.95-.64.45.69.9,1.39,1.35,2.1-.29.37-.57.74-.86,1.11-.45-.61-.69-.9-.9-1.06-.36-.25-.73-.16-1.04.25-.48.62-.54,1.77-.16,2.82.29.78.72,1.53,1.85,3.32.72,1.14,1.43,2.3,2.15,3.47.41-.52.81-1.04,1.22-1.56.25.41.5.83.75,1.24-1.13,1.44-2.26,2.88-3.39,4.33-.25-.41-.5-.83-.75-1.24.35-.45.7-.9,1.06-1.35-1.69-2.77-3.39-5.45-5.08-8.01-.35.46-.7.92-1.06,1.38-.25-.38-.5-.76-.75-1.13.7-.91,1.4-1.83,2.1-2.74.34.5.67,1.01,1.01,1.52Z" style="fill: #fff;"/>
    <path d="M76.08,264.78c.36-.45.71-.89,1.07-1.34.25.42.5.83.75,1.25-1.09,1.36-2.18,2.73-3.27,4.11-.25-.42-.5-.83-.75-1.25.35-.45.7-.89,1.06-1.34-2.61-4.3-5.22-8.41-7.83-12.27-.35.46-.7.92-1.06,1.37-.25-.37-.5-.74-.75-1.1.73-.96,1.47-1.92,2.2-2.87,2.86,4.2,5.72,8.7,8.58,13.42Z" style="fill: #fff;"/>
    <path d="M80.52,252.3c1.69,2.71,3.17,3.39,4.38,1.94.95-1.12,1.03-2.76.26-4.53.29-.33.57-.67.86-1,1.22,2.31,1.08,5.23-.33,6.9-1.14,1.35-2.45,1.51-3.93.47.5,2.11.23,3.97-.81,5.24-1.25,1.53-2.84,1.35-3.92-.44-.89-1.46-1.04-3.35-.41-5.17.39-1.11.75-1.72,1.97-3.49-.12-.19-.24-.39-.36-.58-.66-1.05-.81-1.25-1.11-1.43-.51-.35-1.13-.11-1.75.67-.8,1-1.07,1.84-.82,2.64.23.36.46.72.68,1.08-.28.35-.55.69-.83,1.04-.42-.67-.85-1.34-1.27-2,.11-1.59.66-3.03,1.57-4.15,1.07-1.33,2.02-1.67,3.03-1.07-.12-1.65.21-2.91,1.06-3.92,1.66-2,4.05-1.24,5.96,1.88.11.19.21.38.32.57-1.52,1.75-3.03,3.54-4.55,5.37ZM79.42,253.54c-1.84,2.33-2.31,4.31-1.39,5.81.63,1.03,1.58,1.15,2.28.29,1.04-1.27.87-3.23-.45-5.37-.15-.24-.3-.49-.45-.73ZM83.15,246.96c-1.36-2-2.58-2.41-3.59-1.21-.97,1.16-.89,2.97.23,5.2,1.12-1.35,2.24-2.68,3.36-3.99Z" style="fill: #fff;"/>
    <path d="M85.86,239.58c-.38-1.79-.13-3.13.78-4.13.88-.96,1.99-1.04,2.95-.25.47.41.61.59,2.06,2.97.99,1.63,1.98,3.28,2.97,4.95.35-.37.7-.74,1.05-1.11.25.42.5.84.75,1.27-1.04,1.08-2.07,2.18-3.11,3.3-.25-.42-.5-.84-.75-1.26.31-.34.62-.67.94-1.01-1.06-1.77-2.11-3.52-3.17-5.26-.85-1.4-1.13-1.77-1.47-2.05-.53-.41-1.12-.33-1.61.21-.54.59-.78,1.58-.64,2.61.12.9.39,1.48,1.31,2.99.92,1.51,1.84,3.04,2.76,4.58.31-.35.62-.69.94-1.03.25.42.5.84.75,1.26-1.04,1.14-2.07,2.29-3.11,3.47-.25-.42-.5-.84-.75-1.26.35-.4.7-.8,1.06-1.19-1.69-2.83-3.39-5.62-5.08-8.34-.35.4-.7.8-1.06,1.21-.25-.4-.5-.81-.75-1.21.71-.82,1.42-1.62,2.13-2.42.35.57.71,1.14,1.06,1.71Z" style="fill: #fff;"/>
    <path d="M97.55,226.57c-.53.49-1.06.98-1.59,1.48.87.15,1.58.7,2.18,1.7.5.83.77,1.78.73,2.66,0,.85-.23,1.53-.87,2.87-.85,1.77-1,2.3-.7,2.78.25.42.6.37,1.27-.14,2.71-2.19,4.1-2.14,5.36-.03,1.35,2.29,1.01,4.54-.94,6.46-1.99,1.97-3.86,1.97-5.08-.08-.85-1.44-.82-2.88.06-4.48-.88.4-1.33.33-1.69-.27-.49-.82-.32-1.94.48-3.33-1.42.57-2.6.05-3.58-1.56-.59-.97-.89-2.1-.85-3.18.06-1.24.49-2.12,1.56-3.19.24-.24.48-.47.71-.7.36-.31.58-.53.64-.58.53-.52,1.07-1.03,1.6-1.54.23.38.47.76.7,1.15ZM94.19,233.4c.84,1.38,1.95,1.71,2.81.86.82-.81.82-2.32.01-3.66-.81-1.34-1.9-1.7-2.74-.87-.85.84-.88,2.36-.09,3.67ZM98.81,243.15c.78,1.32,2.03,1.25,3.43-.13,1.28-1.26,1.58-2.75.79-4.07-.77-1.29-1.93-1.3-3.25,0-1.31,1.29-1.7,2.97-.97,4.2Z" style="fill: #fff;"/>
    <path d="M101.89,229.39c.07.12.14.23.21.35,1.47,2.45,3.04,3.33,4.17,2.33.89-.79.97-2.09.27-3.72.34-.29.68-.58,1.02-.87,1.18,2.24.97,4.63-.51,5.94-1.78,1.58-4.24.43-6.28-2.97-2.08-3.46-2.3-6.97-.53-8.55,1.65-1.47,4.05-.24,5.99,3,.08.15.17.3.25.46-1.53,1.29-3.06,2.63-4.59,4.02ZM104.56,225.14c-1.33-2.14-2.52-2.8-3.51-1.92-.98.87-.92,2.72.16,4.9,1.12-1.02,2.24-2.01,3.36-2.98Z" style="fill: #fff;"/>
    <path d="M107.22,218.9c-.32-1.6-.14-2.56.58-3.12.55-.42,1.12-.38,1.95.14.45.75.9,1.51,1.35,2.26-.29.22-.57.43-.86.65-.45-.68-.69-1-.9-1.22-.36-.34-.73-.39-1.04-.15-.48.37-.54,1.35-.16,2.39.29.77.72,1.56,1.85,3.46.72,1.2,1.43,2.41,2.15,3.61.41-.32.81-.64,1.22-.95.25.42.5.85.75,1.27-1.13.87-2.26,1.78-3.39,2.71-.25-.42-.5-.85-.75-1.27.35-.29.7-.58,1.05-.86-1.69-2.85-3.39-5.69-5.08-8.51-.35.29-.7.57-1.06.87-.25-.42-.5-.83-.75-1.25.7-.58,1.4-1.15,2.1-1.71.34.56.67,1.11,1.01,1.67Z" style="fill: #fff;"/>
    <path d="M116.44,203.52c2.86,4.76,5.72,9.59,8.58,14.39.35-.22.7-.43,1.06-.64.25.42.5.84.75,1.27-.71.42-1.42.86-2.13,1.3-.34-.56-.67-1.13-1.01-1.69.32,1.57.06,2.61-.77,3.15-1.58,1.03-4.22-.62-6.18-3.93-1.97-3.31-2.26-6.57-.68-7.6.83-.54,1.85-.32,3.06.69-1-1.68-2-3.35-3-5.02-.35.22-.7.44-1.05.67-.25-.42-.5-.84-.75-1.25.71-.46,1.42-.9,2.12-1.34ZM117.82,216.54c1.72,2.89,3.32,4.07,4.46,3.33,1.11-.72.79-2.77-.87-5.56-1.66-2.79-3.29-4.03-4.41-3.3-1.11.72-.81,2.82.81,5.54Z" style="fill: #fff;"/>
    <path d="M120.68,201.4c.39.65.78,1.31,1.17,1.96-.46.26-.92.52-1.38.79-.39-.65-.78-1.31-1.17-1.96.46-.27.92-.53,1.38-.79ZM129.06,215.54c.36-.2.71-.4,1.07-.6.25.42.5.84.75,1.26-1.08.6-2.16,1.21-3.24,1.85-.25-.42-.5-.84-.75-1.26.35-.21.7-.41,1.05-.62-1.69-2.84-3.39-5.69-5.08-8.54-.35.2-.7.41-1.06.61-.25-.42-.5-.84-.75-1.27.72-.43,1.45-.84,2.17-1.25,1.94,3.26,3.89,6.54,5.83,9.8Z" style="fill: #fff;"/>
    <path d="M128.26,205.37c-.38-1.58-.13-2.57.78-3.02.88-.44,1.99-.07,2.95.92.47.5.61.7,2.06,3.14.99,1.66,1.98,3.32,2.97,4.98.35-.17.7-.34,1.06-.51.25.42.5.84.75,1.26-1.04.49-2.07,1-3.11,1.52-.25-.42-.5-.84-.75-1.26.31-.16.62-.31.94-.47-1.06-1.76-2.11-3.53-3.17-5.31-.85-1.43-1.13-1.84-1.47-2.19-.53-.53-1.12-.69-1.61-.44-.53.27-.78.97-.64,1.85.12.76.39,1.33,1.31,2.88.92,1.55,1.84,3.09,2.76,4.63.31-.16.62-.32.94-.48.25.42.5.84.75,1.26-1.04.53-2.07,1.08-3.11,1.64-.25-.42-.5-.84-.75-1.26.35-.19.7-.38,1.06-.57-1.69-2.84-3.39-5.68-5.08-8.53-.35.19-.7.38-1.06.57-.25-.42-.5-.84-.75-1.27.71-.38,1.42-.76,2.13-1.13.35.59.71,1.19,1.06,1.78Z" style="fill: #fff;"/>
    <path d="M137.61,205.81c.07.12.14.23.21.35,1.47,2.45,3.04,3.62,4.17,3.12.89-.4.97-1.45.27-3,.34-.15.68-.3,1.03-.44,1.18,2.18.97,4.1-.51,4.77-1.78.8-4.24-.83-6.28-4.25-2.08-3.48-2.3-6.48-.53-7.26,1.65-.73,4.05.99,5.99,4.23.08.15.17.3.25.45-1.53.65-3.06,1.33-4.59,2.03ZM140.28,203.06c-1.33-2.16-2.52-3.06-3.51-2.62-.98.43-.92,1.99.16,4.12,1.12-.51,2.24-1.01,3.36-1.49Z" style="fill: #fff;"/>
    <path d="M148.17,201.33c.07.12.14.23.21.35,1.46,2.43,3.04,3.63,4.17,3.18.89-.36.97-1.38.27-2.9.34-.13.68-.27,1.03-.4,1.18,2.15.97,4.01-.51,4.61-1.78.71-4.24-.97-6.28-4.36-2.08-3.46-2.3-6.36-.53-7.05,1.65-.64,4.05,1.11,5.99,4.32.08.15.17.3.25.44-1.53.59-3.06,1.19-4.59,1.81ZM150.83,198.76c-1.33-2.14-2.52-3.06-3.51-2.67-.98.38-.92,1.89.15,4,1.12-.45,2.24-.89,3.36-1.32Z" style="fill: #fff;"/>
    <path d="M153.58,194.5c-.38-1.51-.13-2.4.78-2.75.88-.33,1.99.1,2.95,1.1.47.5.61.71,2.06,3.1.99,1.63,1.98,3.25,2.97,4.86.35-.14.7-.28,1.06-.42.25.41.5.81.75,1.22-1.04.41-2.07.82-3.11,1.23-.25-.41-.5-.82-.75-1.22.31-.12.62-.24.94-.37-1.06-1.72-2.11-3.45-3.17-5.19-.85-1.4-1.13-1.81-1.47-2.16-.53-.54-1.12-.74-1.61-.55-.53.2-.77.84-.64,1.67.13.72.39,1.28,1.31,2.8.92,1.52,1.84,3.03,2.76,4.54.31-.12.62-.24.94-.37.25.41.5.82.75,1.23-1.04.41-2.07.81-3.11,1.22-.25-.41-.5-.82-.75-1.23.35-.14.7-.28,1.06-.41-1.69-2.77-3.39-5.57-5.08-8.38-.35.13-.7.27-1.06.4-.25-.42-.5-.84-.75-1.26.71-.27,1.42-.54,2.13-.81.35.59.71,1.18,1.06,1.76Z" style="fill: #fff;"/>
    <path d="M161.43,191.25c-.28-1.37.01-2.23.87-2.57.82-.32,1.88-.06,2.74.67.68.6.8.76,2.4,3.38.99,1.61,1.98,3.21,2.97,4.79.35-.15.7-.3,1.06-.45.25.4.5.8.75,1.2-1.06.45-2.12.9-3.18,1.34-.25-.4-.5-.8-.75-1.21.34-.14.67-.28,1.01-.42-1.06-1.69-2.11-3.4-3.17-5.12-.75-1.23-1.02-1.64-1.33-1.97-.6-.64-1.29-.88-1.89-.64-.62.25-.82.98-.59,1.97.16.62.43,1.19,1.24,2.52.92,1.5,1.83,2.99,2.75,4.46.34-.14.67-.27,1.01-.41.25.4.5.81.75,1.21-1.06.43-2.12.86-3.18,1.29-.25-.4-.5-.81-.75-1.22.35-.14.7-.28,1.06-.42-2.61-4.21-5.22-8.52-7.83-12.86-.35.14-.7.27-1.06.4-.25-.42-.5-.84-.75-1.25.72-.28,1.45-.55,2.17-.83,1.23,2.05,2.47,4.09,3.7,6.12Z" style="fill: #fff;"/>
    <path d="M171.01,192.26c.07.11.14.23.21.34,1.47,2.36,3.04,3.48,4.17,2.97.89-.4.97-1.43.27-2.9.34-.16.68-.31,1.03-.47,1.18,2.08.97,3.96-.51,4.63-1.78.8-4.24-.77-6.28-4.07-2.08-3.36-2.3-6.24-.53-6.99,1.65-.71,4.05.92,5.99,4.03.08.14.17.29.25.43-1.53.7-3.06,1.37-4.59,2.03ZM173.68,189.58c-1.33-2.08-2.52-2.94-3.51-2.51-.98.42-.92,1.92.16,3.97,1.12-.48,2.24-.97,3.36-1.47Z" style="fill: #fff;"/>
    <path d="M176.35,177.11c2.86,4.67,5.72,9.25,8.58,13.67.35-.18.7-.37,1.06-.55.25.39.5.77.75,1.16-.71.38-1.42.75-2.13,1.12-.34-.52-.67-1.03-1.01-1.55.32,1.42.06,2.32-.77,2.74-1.58.79-4.22-.93-6.18-4.07-1.97-3.15-2.26-6.07-.68-6.81.83-.4,1.85-.1,3.06.91-1-1.6-2-3.22-3-4.85-.35.17-.7.34-1.06.51-.25-.41-.5-.82-.75-1.23.71-.34,1.42-.68,2.13-1.03ZM177.73,189.02c1.72,2.73,3.32,3.92,4.46,3.35,1.12-.56.79-2.4-.87-5.02-1.66-2.63-3.29-3.88-4.41-3.34-1.11.53-.81,2.43.81,5.01Z" style="fill: #fff;"/>
    <path d="M185.57,185.29c.07.11.14.22.21.33,1.47,2.29,3.04,3.27,4.17,2.63.89-.51.97-1.58.27-3.02.34-.2.68-.4,1.02-.6,1.18,2.02.97,3.98-.51,4.84-1.78,1.02-4.24-.35-6.28-3.54-2.08-3.27-2.3-6.21-.53-7.17,1.65-.9,4.05.54,5.99,3.54.08.14.17.28.25.42-1.53.9-3.06,1.75-4.59,2.58ZM188.23,182.24c-1.33-2.01-2.52-2.78-3.51-2.23-.98.53-.92,2.08.16,4.09,1.12-.6,2.24-1.22,3.36-1.86Z" style="fill: #fff;"/>
    <path d="M190.89,177.2c-.32-1.44-.14-2.28.58-2.72.55-.34,1.12-.27,1.95.24.45.7.9,1.4,1.35,2.09-.29.18-.57.37-.86.55-.45-.63-.69-.93-.9-1.13-.36-.32-.73-.39-1.04-.2-.48.29-.54,1.16-.16,2.1.29.7.72,1.44,1.85,3.16.72,1.09,1.43,2.17,2.15,3.24.41-.26.81-.51,1.22-.78.25.37.5.74.75,1.11-1.13.73-2.26,1.44-3.39,2.13-.25-.37-.5-.75-.75-1.13.35-.21.7-.43,1.06-.65-1.69-2.53-3.39-5.14-5.08-7.8-.35.21-.7.42-1.05.62-.25-.4-.5-.79-.75-1.19.7-.41,1.4-.82,2.1-1.24.33.53.67,1.05,1,1.58Z" style="fill: #fff;"/>
    <path d="M199.67,173.93c-.98-1.41-2.1-1.86-3.07-1.21-.71.48-.83,1.41-.27,2.27.45.68.99.87,2.25.79,1.59-.1,2.06-.13,2.7-.02.78.12,1.5.62,2.05,1.44,1.14,1.67.99,3.52-.36,4.47-.8.56-1.63.54-2.79-.08.25.42.5.84.75,1.25-.24.16-.48.32-.71.48-.74-1.08-1.49-2.18-2.23-3.3.24-.16.49-.32.73-.48,1.1,1.32,2.47,1.73,3.42,1.06.76-.53.86-1.51.26-2.38-.5-.74-.98-.88-2.38-.77-1.52.13-2.35.1-2.82-.07-.74-.24-1.33-.73-1.82-1.49-1.05-1.61-.92-3.44.31-4.26.68-.45,1.47-.46,2.42-.02-.18-.33-.35-.67-.53-1.01.23-.16.47-.32.7-.48.72,1.1,1.43,2.2,2.15,3.28-.25.17-.5.35-.74.52Z" style="fill: #fff;"/>
    <path d="M211.21,173.55c.36-.28.71-.57,1.07-.85.25.35.5.69.75,1.04-1.09.88-2.18,1.75-3.27,2.59-.25-.35-.5-.7-.75-1.06.35-.27.7-.54,1.06-.82-2.61-3.65-5.22-7.53-7.83-11.57-.35.26-.7.52-1.06.77-.25-.39-.5-.78-.75-1.17.73-.53,1.47-1.07,2.2-1.62,2.86,4.45,5.72,8.71,8.58,12.69Z" style="fill: #fff;"/>
    <path d="M211.85,167.59c.07.1.14.2.21.3,1.47,2.08,3.04,2.73,4.17,1.78.89-.75.97-1.88.27-3.23.34-.29.68-.58,1.03-.87,1.18,1.83.97,3.92-.51,5.18-1.78,1.51-4.24.69-6.28-2.23-2.08-2.99-2.3-6.11-.53-7.51,1.65-1.32,4.05-.29,5.99,2.43.08.13.17.26.25.38-1.53,1.29-3.06,2.55-4.59,3.78ZM214.51,163.76c-1.33-1.82-2.52-2.39-3.51-1.58-.98.78-.92,2.43.15,4.32,1.12-.9,2.24-1.81,3.36-2.73Z" style="fill: #fff;"/>
    <path d="M216.84,155.88c.25.36.5.73.75,1.09-.3.25-.59.5-.89.75,1.04.89,2.07,1.75,3.11,2.58,1.43,1.15,1.49,1.21,3.2,2.57-.49-1.15-1.02-2.48-1.6-3.96-.5-1.29-1-2.59-1.5-3.92-.3.26-.6.52-.91.77-.25-.36-.5-.72-.75-1.08.95-.81,1.9-1.62,2.85-2.43.25.36.5.71.75,1.06-.35.3-.69.6-1.04.9,1.24,3.39,2.48,6.65,3.72,9.78-.32.29-.64.58-.97.87-2.69-1.85-5.38-3.91-8.08-6.14-.36.3-.71.59-1.07.89-.25-.36-.5-.73-.75-1.1,1.06-.87,2.11-1.75,3.17-2.63Z" style="fill: #fff;"/>
    <path d="M226.09,155.45c.07.09.14.18.21.27,1.47,1.92,3.04,2.38,4.17,1.35.89-.82.97-1.92.27-3.17.34-.31.68-.62,1.03-.92,1.18,1.67.97,3.68-.51,5.07-1.78,1.65-4.24,1.13-6.28-1.58-2.08-2.77-2.3-5.89-.53-7.4,1.65-1.42,4.05-.54,5.99,1.95.08.12.17.24.25.35-1.53,1.36-3.06,2.72-4.59,4.08ZM228.75,151.46c-1.33-1.68-2.52-2.16-3.51-1.29-.98.85-.92,2.48.15,4.26,1.12-.99,2.24-1.97,3.36-2.96Z" style="fill: #fff;"/>
    <path d="M231.84,143.03c.26.34.51.69.77,1.02-.56.47-1.11.95-1.67,1.42,1.03,1.37,2.06,2.69,3.09,3.96.96,1.18,1.2,1.42,1.54,1.67.45.32.96.29,1.38-.09.28-.26.45-.55.63-1.08.29.33.58.66.86.98-.32.63-.53.91-.93,1.28-.77.71-1.6.9-2.36.52-.58-.29-.66-.34-2.22-2.26-1.03-1.28-2.07-2.62-3.1-4.01-.33.29-.66.57-1,.86-.26-.35-.51-.69-.77-1.05.33-.29.66-.57,1-.85-.65-.88-1.29-1.79-1.94-2.71.37-.31.74-.63,1.11-.94.65.92,1.29,1.82,1.94,2.69.55-.47,1.11-.95,1.66-1.41Z" style="fill: #fff;"/>
    <path d="M232.38,136.9c.39.55.78,1.09,1.17,1.63-.46.37-.92.75-1.38,1.13-.39-.54-.78-1.09-1.17-1.64.46-.38.92-.75,1.38-1.12ZM240.75,147.55c.36-.32.71-.63,1.07-.94.25.27.5.54.75.81-1.08.96-2.16,1.93-3.24,2.91-.25-.28-.5-.56-.75-.84.35-.32.7-.63,1.05-.94-1.69-1.89-3.39-3.95-5.08-6.16-.35.3-.7.59-1.06.89-.25-.33-.5-.66-.75-1,.72-.61,1.45-1.21,2.17-1.81,1.94,2.57,3.89,4.94,5.83,7.09Z" style="fill: #fff;"/>
    <path d="M239.88,130.84c2.86,3.91,5.72,7.34,8.58,10.2.35-.28.7-.56,1.06-.83.25.25.5.49.75.73-.71.56-1.42,1.13-2.12,1.71-.34-.33-.67-.66-1.01-1.01.32,1.14.06,2.04-.77,2.75-1.58,1.34-4.21.9-6.18-1.44-1.97-2.33-2.26-5.25-.68-6.45.83-.64,1.85-.63,3.06-.02-1-1.22-2-2.51-3-3.86-.35.26-.7.51-1.06.78-.25-.34-.5-.68-.75-1.03.71-.52,1.42-1.03,2.13-1.53ZM241.26,141.98c1.72,2.01,3.32,2.43,4.46,1.48,1.11-.94.79-2.41-.87-4.27-1.66-1.87-3.29-2.64-4.41-1.77-1.12.85-.81,2.67.81,4.57Z" style="fill: #fff;"/>
    <path d="M245.64,133.91c-1.23-1.38-2.46-2.86-3.69-4.43.35-.23.69-.46,1.04-.68,1.13,1.62,2.27,3.16,3.4,4.6-.25.17-.5.34-.74.51ZM247.55,132.62c-1.23-1.36-2.46-2.82-3.69-4.37.35-.22.69-.43,1.04-.64,1.13,1.6,2.26,3.12,3.4,4.53-.25.16-.49.32-.74.48Z" style="fill: #fff;"/>
  </g>
  <path d="M24.1,306.52c-4.74-2.77-9.63-5.64-13.68-9.54-7.42-7.16-11.34-17.76-10.23-27.66,1.16-10.28,7.77-19.69,16.84-23.96,3.7-1.74,7.76-2.67,11.69-3.57,4.31-.99,8.77-2.01,12.68-4.11,6.71-3.61,11.33-10.07,15.79-16.31,4.24-5.93,8.62-12.07,14.85-15.92,5.85-3.62,12.82-4.91,19.57-6.17,7.51-1.39,15.28-2.83,21.23-7.54,5.38-4.25,8.4-10.33,11.6-16.76,2.03-4.08,4.14-8.31,6.89-11.98,9.04-12.03,23.77-16.9,38.02-21.6,9.82-3.24,19.97-6.6,28.41-12.26,3.57-2.4,6.97-5.3,10.25-8.1,6.54-5.59,13.31-11.37,21.76-13.41,3.78-.91,7.73-1.01,11.54-1.11,3.79-.1,7.71-.2,11.42-1.1,8.2-2,14.83-7.73,21.25-13.26,3.36-2.9,6.84-5.9,10.53-8.37,4.93-3.3,10.44-5.78,15.76-8.17,4.94-2.22,10.05-4.52,14.67-7.47,11.72-7.49,20.46-19.36,28.17-29.82L371.33,0l.76.56-28.23,38.32c-7.76,10.53-16.56,22.48-28.42,30.06-4.67,2.99-9.81,5.3-14.79,7.53-5.29,2.38-10.75,4.83-15.62,8.09-3.65,2.44-7.1,5.42-10.44,8.31-6.5,5.61-13.22,11.4-21.64,13.46-3.8.93-7.78,1.03-11.62,1.13-3.77.1-7.66.2-11.35,1.09-8.23,1.99-14.91,7.69-21.37,13.21-3.3,2.82-6.72,5.74-10.34,8.17-8.54,5.74-18.76,9.11-28.64,12.37-14.76,4.88-28.7,9.48-37.56,21.27-2.7,3.6-4.79,7.78-6.8,11.83-3.11,6.24-6.32,12.69-11.86,17.07-6.13,4.85-14.02,6.31-21.64,7.73-6.66,1.24-13.55,2.51-19.24,6.04-6.06,3.75-10.39,9.81-14.58,15.67-4.52,6.33-9.2,12.88-16.11,16.59-4.03,2.16-8.55,3.2-12.92,4.2-3.88.89-7.88,1.81-11.49,3.51-8.79,4.14-15.19,13.25-16.31,23.21-1.08,9.61,2.73,19.91,9.95,26.88,3.97,3.83,8.81,6.66,13.5,9.41l-.48.81Z" style="fill: #fff;"/>
  <path d="M67.2,310.2c-1.51-4.56,2.32-9.29,6.89-11.6,1.32-.67,2.73-1.24,4.09-1.79,3.06-1.24,5.95-2.42,8.13-4.66,1.66-1.7,2.76-3.93,3.82-6.08,1.11-2.25,2.26-4.58,4.07-6.4,3.36-3.38,8.15-4.3,12.79-5.19,4.05-.78,8.24-1.58,11.42-4.02,2.62-2.01,4.26-4.85,6-7.86,1.01-1.75,2.06-3.55,3.31-5.17,5.27-6.81,14.09-10.66,27.75-12.09,1.9-.2,3.82-.36,5.74-.53,8.24-.7,16.75-1.43,24.12-5.16,7.59-3.84,13.29-10.53,18.79-16.99,4.42-5.19,9-10.56,14.59-14.56,15.52-11.09,36.64-10.13,53.3-8.06,2.28.28,4.56.59,6.86.89,15.82,2.11,32.19,4.29,47.34-.5,2.95-.93,6.63-2.39,8.89-5.36,1.04-1.38,1.81-3.11,2.42-5.45,2.44-9.43.01-19.88-6.34-27.26-.98-1.14-2.07-2.23-3.12-3.28-1.93-1.93-3.92-3.93-5.36-6.32-3.89-6.44-3.49-15.71,1.06-24.79,4.83-9.63,12.8-17.57,22.46-22.35,4.01-1.98,8.31-3.43,12.47-4.83,3.88-1.31,7.9-2.66,11.65-4.43,19.46-9.24,30.72-28.41,42.41-50.64l.83.44c-9.08,17.27-21.51,40.93-42.84,51.06-3.8,1.8-7.84,3.16-11.75,4.48-4.13,1.39-8.4,2.82-12.35,4.78-9.48,4.69-17.3,12.47-22.04,21.93-4.4,8.79-4.81,17.72-1.09,23.89,1.38,2.29,3.33,4.25,5.22,6.14,1.06,1.07,2.17,2.17,3.17,3.33,6.55,7.62,9.06,18.39,6.54,28.11-.64,2.46-1.46,4.3-2.58,5.78-2.41,3.18-6.27,4.71-9.35,5.69-15.35,4.86-31.82,2.66-47.75.54-2.29-.31-4.58-.61-6.85-.89-16.49-2.05-37.37-3.01-52.63,7.89-5.5,3.93-10.03,9.25-14.42,14.4-5.57,6.54-11.32,13.3-19.09,17.22-7.53,3.81-16.14,4.54-24.46,5.25-1.91.16-3.82.33-5.72.53-13.38,1.41-21.99,5.14-27.1,11.73-1.21,1.57-2.24,3.34-3.24,5.06-1.71,2.96-3.48,6.01-6.25,8.14-3.35,2.58-7.66,3.4-11.82,4.2-4.71.9-9.15,1.76-12.3,4.93-1.7,1.71-2.81,3.97-3.89,6.15-1.09,2.22-2.22,4.51-3.99,6.32-2.32,2.38-5.44,3.65-8.45,4.87-1.34.55-2.73,1.11-4.02,1.76-4.21,2.13-7.76,6.41-6.42,10.46l-.89.3Z" style="fill: #fff;"/>
</svg>