<?xml version="1.0" encoding="UTF-8"?>
<svg id="Layer_1" xmlns="http://www.w3.org/2000/svg" viewBox="0 0 294.18 174.7">
  <g>
    <path d="M28.23,125.96c-1.09-1.39-2.19-2.67-3.28-3.86.32-.44.64-.87.96-1.31,1,1.35,2,2.78,3.01,4.3-.23.29-.46.58-.69.87ZM30,123.71c-1.09-1.43-2.19-2.77-3.28-4.02.32-.43.64-.86.96-1.29,1,1.4,2,2.88,3.01,4.45-.23.29-.46.58-.69.87Z" style="fill: #fff;"/>
    <path d="M31.54,113.28c1.76-2.29,2.19-2.73,2.99-3.07,1.21-.52,2.33-.07,3.2,1.28,1.13,1.77,1.23,4.04.27,5.76,1.62,1.02,3.24,2.16,4.86,3.39.34-.39.69-.77,1.03-1.15.25.45.49.9.74,1.35-.63.69-1.25,1.39-1.88,2.1-1.89-1.56-3.79-2.99-5.68-4.25-.58.69-1.15,1.39-1.73,2.09,1.01,1.6,2.02,3.27,3.03,5.01.37-.42.73-.85,1.1-1.27.25.43.5.87.74,1.3-1.1,1.25-2.2,2.52-3.29,3.79-.25-.43-.5-.85-.74-1.27.38-.44.76-.89,1.14-1.33-2.26-3.85-4.51-7.33-6.77-10.43-.38.5-.76.99-1.14,1.49-.25-.33-.5-.66-.74-.98.96-1.28,1.92-2.55,2.88-3.81ZM35.69,118.19c1.04-1.27,1.31-1.69,1.47-2.44.23-.94.03-1.94-.55-2.84-.63-.97-1.39-1.28-2.18-.9-.43.23-.79.6-1.78,1.86-.34.44-.69.88-1.03,1.33.99,1.38,1.97,2.83,2.96,4.35.37-.46.74-.91,1.11-1.36Z" style="fill: #fff;"/>
    <path d="M43.33,113.98c.06.11.12.22.19.32,1.3,2.27,2.72,3.04,3.77,1.91.82-.88.91-2.24.3-3.84.32-.34.63-.67.95-1.01,1.04,2.18.82,4.7-.55,6.17-1.65,1.77-3.87.76-5.67-2.36-1.84-3.16-1.99-6.5-.36-8.4,1.52-1.75,3.69-.96,5.41,2.11.07.14.15.29.22.44-1.41,1.51-2.83,3.06-4.24,4.65ZM45.82,109.35c-1.18-1.99-2.25-2.44-3.17-1.4-.91,1.04-.88,2.84.07,4.85,1.03-1.17,2.07-2.32,3.1-3.45Z" style="fill: #fff;"/>
    <path d="M48.48,93.32c2.54,4.27,5.07,8.86,7.61,13.71.32-.31.65-.61.97-.91.22.43.45.86.67,1.29-.65.61-1.31,1.22-1.96,1.85-.3-.57-.59-1.14-.89-1.7.27,1.69.01,2.9-.76,3.66-1.45,1.43-3.84.06-5.58-3.08-1.75-3.13-1.96-6.49-.51-8.02.77-.8,1.69-.83,2.79-.03-.89-1.58-1.77-3.12-2.66-4.62-.32.33-.65.67-.97,1.01-.22-.37-.45-.75-.67-1.11.65-.69,1.31-1.37,1.96-2.04ZM49.53,106.99c1.52,2.76,2.97,3.79,4.02,2.74,1.03-1.01.77-3.26-.71-5.98-1.47-2.71-2.94-3.62-3.97-2.56-1.03,1.07-.78,3.21.66,5.8Z" style="fill: #fff;"/>
    <path d="M57.66,99.87c1.16,2.2,1.21,2.3,1.58,2.67.55.52,1.13.6,1.64.16.51-.44.77-1.31.66-2.28-.09-.78-.36-1.48-1.15-2.99-.82-1.55-1.63-3.08-2.45-4.58-.33.28-.66.57-.99.86-.22-.41-.45-.81-.67-1.22.67-.59,1.34-1.17,2.02-1.74,1.72,3.15,3.45,6.42,5.17,9.77.32-.26.65-.53.97-.79.22.43.45.87.67,1.31-.64.51-1.28,1.03-1.92,1.56-.33-.64-.65-1.27-.98-1.9.33,1.71.07,3-.76,3.72-.89.77-2.04.56-2.99-.53-.41-.47-.61-.79-1.73-2.91-.86-1.61-1.72-3.19-2.58-4.74-.32.3-.65.61-.97.92-.22-.4-.45-.8-.67-1.19.67-.64,1.34-1.27,2-1.88,1.05,1.88,2.1,3.81,3.14,5.78Z" style="fill: #fff;"/>
    <path d="M64.95,85.55c.65,1.21,1.3,2.43,1.94,3.67-.27.19-.53.37-.8.57-.96-1.61-1.88-2.13-2.67-1.55-1.03.78-.76,2.94.7,5.73,1.42,2.73,2.89,3.97,3.89,3.23.77-.56.78-1.83.04-3.63.3-.21.6-.43.91-.64,1.18,2.58,1.06,4.74-.27,5.71-1.58,1.16-3.81-.37-5.59-3.78-1.82-3.47-2.02-6.73-.5-7.89.6-.46,1.28-.41,2.07.15-.18-.33-.36-.66-.53-1,.27-.19.53-.38.8-.57Z" style="fill: #fff;"/>
    <path d="M70.09,89.79c.06.12.12.24.19.36,1.3,2.52,2.72,3.67,3.77,3.01.82-.51.91-1.68.3-3.3.32-.19.63-.38.95-.56,1.04,2.29.82,4.41-.55,5.27-1.65,1.03-3.87-.56-5.67-4.06-1.84-3.56-1.99-6.72-.36-7.76,1.52-.97,3.69.61,5.41,3.95.07.16.15.31.22.47-1.41.82-2.83,1.7-4.24,2.63ZM72.57,86.54c-1.18-2.2-2.25-3.04-3.17-2.46-.91.58-.88,2.23.07,4.42,1.03-.68,2.07-1.33,3.1-1.96Z" style="fill: #fff;"/>
    <path d="M75.09,81.52c-.27-1.49-.09-2.32.57-2.66.51-.26,1.02-.1,1.77.54.4.77.8,1.54,1.2,2.31-.27.13-.53.26-.8.4-.4-.7-.61-1.05-.8-1.28-.32-.38-.66-.5-.95-.35-.44.23-.52,1.09-.18,2.1.25.75.63,1.55,1.63,3.51.64,1.24,1.27,2.49,1.91,3.74.38-.2.75-.4,1.13-.59.22.44.45.88.67,1.32-1.04.54-2.09,1.1-3.13,1.69-.22-.44-.45-.88-.67-1.32.32-.18.65-.36.97-.54-1.5-2.96-3-5.89-4.51-8.76-.32.18-.65.36-.97.55-.22-.43-.45-.85-.67-1.27.65-.37,1.29-.73,1.94-1.08.3.57.59,1.13.89,1.7Z" style="fill: #fff;"/>
    <path d="M81.66,83.33c.06.12.12.24.19.36,1.3,2.54,2.72,3.81,3.77,3.35.82-.36.91-1.43.3-3.03.32-.13.63-.26.95-.39,1.04,2.27.82,4.22-.55,4.82-1.65.73-3.87-1.06-5.67-4.59-1.84-3.6-1.99-6.58-.36-7.31,1.52-.67,3.69,1.13,5.41,4.48.07.16.15.31.22.47-1.41.57-2.83,1.19-4.24,1.84ZM84.14,80.66c-1.18-2.23-2.25-3.17-3.17-2.77-.91.4-.88,1.96.07,4.14,1.03-.48,2.07-.94,3.1-1.37Z" style="fill: #fff;"/>
    <path d="M86.66,76.31c-.27-1.44-.09-2.19.57-2.42.51-.18,1.02.04,1.77.74.4.77.8,1.55,1.2,2.33-.27.09-.53.18-.8.28-.4-.71-.61-1.06-.8-1.31-.32-.4-.66-.56-.95-.46-.44.16-.52.96-.18,1.95.25.74.63,1.54,1.63,3.5.64,1.24,1.27,2.49,1.91,3.74.38-.14.75-.28,1.13-.41.22.44.45.88.67,1.31-1.04.38-2.09.77-3.13,1.18-.22-.44-.45-.88-.67-1.32.32-.13.65-.25.97-.38-1.5-2.95-3-5.89-4.51-8.79-.32.12-.65.25-.97.38-.22-.43-.45-.86-.67-1.29.64-.26,1.29-.5,1.93-.74.3.57.59,1.15.89,1.72Z" style="fill: #fff;"/>
    <path d="M97.91,74.9c-.87-1.63-1.89-2.41-2.78-2.15-.66.19-.78,1-.28,1.96.4.77.89,1.12,2.04,1.48,1.45.47,1.88.62,2.46.96.71.41,1.35,1.14,1.85,2.1,1.02,1.98.84,3.62-.41,3.99-.74.22-1.5-.11-2.54-1.11.22.48.44.96.66,1.45-.22.07-.44.13-.66.2-.66-1.29-1.32-2.58-1.98-3.87.22-.07.45-.14.67-.2.98,1.6,2.22,2.48,3.1,2.22.7-.21.81-1.06.28-2.1-.45-.87-.88-1.19-2.16-1.6-1.39-.43-2.14-.73-2.57-1.04-.67-.47-1.21-1.11-1.64-1.95-.93-1.8-.78-3.43.36-3.76.63-.18,1.35.08,2.21.8-.15-.36-.31-.72-.46-1.08.21-.06.43-.12.64-.18.64,1.23,1.27,2.46,1.91,3.7-.23.06-.46.13-.69.19Z" style="fill: #fff;"/>
    <path d="M97.55,65.84c.35.66.69,1.33,1.04,2-.43.11-.85.22-1.28.34-.35-.67-.69-1.33-1.04-2,.43-.11.85-.23,1.28-.34ZM104.97,80.31c.33-.09.66-.17.99-.26.22.43.45.86.67,1.3-1,.26-1.99.53-2.99.81-.22-.43-.45-.87-.67-1.3.32-.09.65-.18.97-.27-1.5-2.92-3-5.85-4.5-8.76-.32.09-.65.17-.97.26-.22-.43-.45-.86-.67-1.29.67-.18,1.34-.36,2-.53,1.72,3.34,3.45,6.7,5.17,10.04Z" style="fill: #fff;"/>
    <path d="M106.29,74.71c.09-1.57.18-3.14.27-4.7-.3.08-.6.15-.91.23-.22-.43-.45-.86-.67-1.29.95-.24,1.9-.47,2.85-.71.22.43.45.86.67,1.29-.3.08-.6.15-.91.23-.05,1.12-.1,2.24-.15,3.37,1.68,1.75,3.36,3.51,5.04,5.25.32-.08.65-.17.97-.25.22.43.45.86.67,1.28-.98.25-1.97.51-2.95.76-.22-.43-.45-.86-.67-1.29.25-.06.5-.13.75-.19-1.33-1.43-2.67-2.88-4-4.32-.03.7-.06,1.41-.09,2.11.5.96.99,1.92,1.49,2.88.29-.08.59-.15.88-.22.22.43.45.86.67,1.29-.95.24-1.9.49-2.85.74-.22-.43-.45-.86-.67-1.29.32-.08.65-.17.97-.25-2.31-4.48-4.63-8.99-6.94-13.44-.32.08-.65.17-.97.25-.22-.43-.45-.86-.67-1.28.66-.17,1.33-.34,1.99-.51,1.74,3.34,3.48,6.72,5.22,10.1Z" style="fill: #fff;"/>
    <path d="M113.63,72.86c.09-1.57.18-3.13.27-4.71-.3.08-.6.16-.91.24-.22-.43-.45-.86-.67-1.29.95-.25,1.9-.5,2.85-.75.22.43.45.86.67,1.29-.3.08-.6.16-.91.24-.05,1.13-.1,2.26-.15,3.38,1.68,1.74,3.36,3.47,5.04,5.18.32-.09.65-.18.97-.27.22.42.45.85.67,1.27-.98.28-1.97.55-2.95.81-.22-.42-.45-.85-.67-1.28.25-.07.5-.13.75-.2-1.33-1.41-2.67-2.84-4-4.27-.03.7-.06,1.4-.09,2.11.5.95.99,1.9,1.49,2.85.29-.08.59-.15.88-.23.22.43.45.85.67,1.28-.95.25-1.9.5-2.85.75-.22-.43-.45-.85-.67-1.28.32-.08.65-.17.97-.25-2.31-4.44-4.63-8.94-6.94-13.4-.32.08-.65.16-.97.24-.22-.43-.45-.86-.67-1.29.66-.17,1.33-.33,1.99-.5,1.74,3.35,3.48,6.73,5.22,10.09Z" style="fill: #fff;"/>
    <path d="M120.15,71.56c.06.12.12.24.19.36,1.3,2.49,2.72,3.81,3.77,3.5.82-.25.91-1.22.3-2.76.32-.1.63-.19.95-.29,1.04,2.19.82,3.97-.55,4.38-1.65.5-3.87-1.41-5.67-4.88-1.84-3.54-1.99-6.32-.36-6.79,1.52-.44,3.69,1.47,5.41,4.77.07.15.15.3.22.45-1.41.44-2.83.85-4.24,1.25ZM122.63,69.38c-1.18-2.2-2.25-3.2-3.17-2.94-.91.26-.88,1.71.07,3.84,1.03-.29,2.07-.59,3.1-.9Z" style="fill: #fff;"/>
    <path d="M125.15,65.38c-.27-1.42-.09-2.15.57-2.37.51-.17,1.02.04,1.77.73.4.77.8,1.54,1.2,2.3-.27.09-.53.19-.8.28-.4-.7-.61-1.05-.8-1.29-.32-.39-.66-.56-.95-.46-.44.15-.52.93-.18,1.9.25.72.63,1.52,1.63,3.43.64,1.21,1.27,2.41,1.91,3.6.38-.13.75-.26,1.13-.39.22.42.45.83.67,1.25-1.04.37-2.09.72-3.13,1.06-.22-.42-.45-.84-.67-1.26.32-.1.65-.21.97-.32-1.5-2.82-3-5.69-4.51-8.59-.32.1-.65.21-.97.31-.22-.43-.45-.86-.67-1.29.64-.2,1.29-.41,1.93-.62.3.57.59,1.14.89,1.72Z" style="fill: #fff;"/>
    <path d="M130.06,63.54c-.23-1.39.05-2.24.85-2.55.75-.3,1.72,0,2.5.78.62.63.72.8,2.14,3.49.88,1.66,1.76,3.3,2.64,4.92.32-.14.65-.28.97-.42.22.41.45.82.67,1.22-.98.44-1.96.85-2.94,1.26-.22-.41-.45-.82-.67-1.23.31-.13.62-.26.93-.39-.94-1.73-1.87-3.48-2.81-5.26-.67-1.26-.91-1.69-1.19-2.03-.53-.67-1.17-.93-1.72-.72-.58.23-.77.96-.58,1.96.13.63.38,1.22,1.09,2.58.81,1.54,1.62,3.07,2.44,4.58.31-.12.62-.24.93-.37.22.41.45.83.67,1.24-.98.39-1.96.77-2.94,1.13-.22-.41-.45-.83-.67-1.24.32-.12.65-.24.97-.36-2.31-4.31-4.63-8.75-6.94-13.23-.32.12-.65.23-.97.35-.22-.43-.45-.86-.67-1.29.67-.24,1.34-.48,2-.73,1.09,2.12,2.19,4.23,3.28,6.33Z" style="fill: #fff;"/>
    <path d="M138.82,64.86c.06.12.12.23.19.35,1.3,2.43,2.72,3.57,3.77,3.07.82-.4.91-1.44.3-2.95.32-.16.63-.32.95-.48,1.04,2.13.82,4.04-.55,4.71-1.65.81-3.87-.82-5.67-4.21-1.84-3.46-1.99-6.4-.36-7.16,1.52-.71,3.69.99,5.41,4.19.07.15.15.3.22.44-1.41.71-2.83,1.39-4.24,2.03ZM141.3,62.15c-1.18-2.14-2.25-3.04-3.17-2.61-.91.42-.88,1.96.07,4.07,1.03-.47,2.07-.95,3.1-1.46Z" style="fill: #fff;"/>
    <path d="M143.96,49.19c2.54,4.91,5.07,9.66,7.61,14.13.32-.19.65-.39.97-.59.22.39.45.78.67,1.16-.65.4-1.31.79-1.96,1.18-.3-.52-.59-1.04-.89-1.57.27,1.45.01,2.37-.76,2.81-1.45.83-3.84-.89-5.58-4.13-1.75-3.23-1.96-6.27-.51-7.05.77-.41,1.69-.1,2.79.95-.89-1.66-1.77-3.35-2.66-5.06-.32.18-.65.36-.97.53-.22-.43-.45-.86-.67-1.29.65-.35,1.31-.71,1.96-1.08ZM145.02,61.57c1.52,2.81,2.97,4,4.02,3.41,1.03-.59.77-2.45-.71-5.14-1.47-2.7-2.94-4-3.97-3.45-1.03.55-.78,2.52.66,5.18Z" style="fill: #fff;"/>
    <path d="M153.68,54.08c-.87-1.51-1.89-2.08-2.78-1.53-.66.4-.78,1.33-.28,2.24.4.73.89.98,2.04,1.02,1.45.06,1.88.08,2.46.25.71.2,1.35.77,1.85,1.63,1.01,1.76.84,3.56-.41,4.38-.74.48-1.5.39-2.54-.33.22.44.44.87.66,1.31-.22.14-.44.28-.66.41-.66-1.14-1.32-2.3-1.98-3.47.22-.14.45-.27.67-.41.98,1.41,2.22,1.94,3.1,1.38.7-.45.81-1.4.28-2.33-.45-.78-.88-.97-2.16-1-1.39-.03-2.14-.14-2.58-.36-.67-.32-1.21-.87-1.64-1.67-.93-1.72-.78-3.55.36-4.23.63-.38,1.35-.3,2.21.24-.15-.35-.31-.71-.46-1.07.21-.13.43-.27.64-.4.64,1.19,1.27,2.36,1.91,3.51-.23.15-.46.29-.69.43Z" style="fill: #fff;"/>
    <path d="M156.39,49.92c-.27-1.48-.09-2.35.57-2.78.51-.34,1.02-.24,1.77.3.4.73.8,1.45,1.2,2.16-.26.18-.53.36-.79.54-.4-.64-.61-.96-.8-1.17-.32-.34-.66-.42-.95-.22-.44.29-.52,1.18-.18,2.14.25.72.63,1.48,1.63,3.23.64,1.11,1.27,2.19,1.91,3.26.38-.26.75-.52,1.13-.79.22.37.45.74.67,1.1-1.04.74-2.09,1.47-3.13,2.19-.22-.37-.45-.75-.67-1.13.32-.22.65-.44.97-.66-1.5-2.53-3-5.19-4.51-7.94-.32.21-.65.42-.97.63-.22-.41-.45-.82-.67-1.24.64-.41,1.29-.83,1.93-1.25.3.55.59,1.1.89,1.64Z" style="fill: #fff;"/>
    <path d="M158.7,40.37c.35.66.69,1.31,1.04,1.95-.43.29-.85.57-1.28.86-.35-.65-.69-1.3-1.04-1.96.43-.28.85-.57,1.28-.85ZM166.12,53.51c.33-.24.66-.49.99-.73.22.36.45.71.67,1.06-1,.75-1.99,1.49-2.99,2.22-.22-.36-.45-.72-.67-1.08.32-.24.65-.47.97-.71-1.5-2.44-3-5.02-4.51-7.72-.32.22-.65.44-.97.66-.22-.4-.45-.81-.67-1.21.67-.45,1.34-.9,2-1.36,1.72,3.13,3.45,6.1,5.17,8.87Z" style="fill: #fff;"/>
    <path d="M168.23,44.14c-.87-1.4-1.89-1.88-2.78-1.26-.66.46-.78,1.4-.28,2.26.4.69.89.87,2.04.8,1.45-.09,1.88-.11,2.46,0,.71.12,1.35.61,1.85,1.38,1.02,1.58.84,3.31-.41,4.28-.74.57-1.5.59-2.54.03.22.4.44.8.66,1.19-.22.17-.44.33-.66.5-.66-1.02-1.32-2.08-1.98-3.16.22-.16.45-.33.67-.49.98,1.27,2.22,1.62,3.1.95.7-.53.81-1.46.28-2.29-.45-.7-.88-.84-2.16-.72-1.39.13-2.14.11-2.57-.06-.67-.24-1.21-.73-1.64-1.48-.93-1.62-.78-3.49.36-4.27.63-.44,1.35-.41,2.21.05-.15-.34-.31-.67-.46-1.02.21-.15.43-.3.64-.45.64,1.12,1.27,2.22,1.91,3.28-.23.16-.46.33-.69.49Z" style="fill: #fff;"/>
    <path d="M167.87,34.22c.35.64.69,1.26,1.04,1.88-.43.28-.85.57-1.28.86-.35-.62-.69-1.26-1.04-1.89.43-.28.85-.56,1.28-.84ZM175.29,46.59c.33-.25.66-.5.99-.75.22.32.45.64.67.95-1,.77-1.99,1.54-2.99,2.31-.22-.33-.45-.66-.67-.99.32-.25.65-.49.97-.74-1.5-2.22-3-4.63-4.5-7.19-.32.22-.65.45-.97.68-.22-.38-.45-.77-.67-1.16.67-.46,1.34-.92,2-1.37,1.72,2.98,3.45,5.75,5.17,8.27Z" style="fill: #fff;"/>
    <path d="M176.78,33.94c.65,1.06,1.3,2.09,1.94,3.08-.27.17-.53.35-.8.52-.96-1.3-1.88-1.76-2.67-1.25-1.03.66-.76,2.63.7,4.88,1.42,2.18,2.89,2.9,3.89,2.16.77-.58.78-1.54.04-2.87.3-.21.6-.42.91-.63,1.18,1.86,1.06,3.47-.27,4.49-1.58,1.2-3.81.42-5.59-2.35-1.82-2.83-2.02-5.85-.5-6.81.6-.39,1.28-.33,2.07.15-.18-.29-.36-.58-.53-.87.27-.17.53-.33.8-.49Z" style="fill: #fff;"/>
    <path d="M177.54,28.36c.35.6.69,1.19,1.04,1.77-.43.23-.85.47-1.28.71-.35-.59-.69-1.18-1.04-1.79.43-.24.85-.47,1.28-.7ZM184.96,39.54c.33-.22.66-.45.99-.66.22.27.45.54.67.8-1,.68-1.99,1.38-2.99,2.11-.22-.28-.45-.56-.67-.85.32-.23.65-.46.97-.68-1.5-1.91-3-4.05-4.51-6.4-.32.19-.65.39-.97.59-.22-.35-.45-.71-.67-1.07.67-.4,1.34-.79,2-1.17,1.72,2.75,3.45,5.21,5.17,7.35Z" style="fill: #fff;"/>
    <path d="M45.59,139.53c.22.45.45.91.67,1.36-.27.3-.55.59-.82.89.93,1.14,1.85,2.31,2.78,3.5,1.28,1.68,1.33,1.74,2.87,3.87-.42-1.64-.88-3.47-1.38-5.46-.43-1.72-.87-3.42-1.3-5.11-.28.3-.56.6-.84.9-.22-.46-.45-.91-.67-1.37.88-.95,1.76-1.89,2.63-2.83.22.46.45.91.67,1.37-.32.34-.64.68-.96,1.03,1.07,4.31,2.15,8.75,3.22,13.31-.3.32-.59.64-.89.96-2.41-3.12-4.83-6.14-7.24-8.97-.33.35-.66.71-.99,1.06-.22-.45-.45-.9-.67-1.35.97-1.05,1.95-2.11,2.92-3.16Z" style="fill: #fff;"/>
    <path d="M54.01,139.93c.06.13.12.26.19.4,1.3,2.77,2.72,3.84,3.77,2.73.82-.87.91-2.35.3-4.19.32-.33.63-.65.95-.98,1.04,2.53.82,5.27-.55,6.72-1.65,1.75-3.87.31-5.67-3.55-1.84-3.92-1.99-7.71-.36-9.43,1.52-1.6,3.69-.28,5.41,3.36.07.17.15.34.22.51-1.41,1.45-2.83,2.93-4.24,4.43ZM56.5,135.24c-1.18-2.4-2.25-3.12-3.17-2.16-.91.95-.88,2.97.07,5.41,1.03-1.09,2.07-2.18,3.1-3.25Z" style="fill: #fff;"/>
    <path d="M59.16,118.02c2.54,5.12,5.07,10.44,7.61,15.82.32-.31.65-.63.97-.94.22.47.45.94.67,1.42-.65.63-1.31,1.26-1.96,1.91-.3-.63-.59-1.27-.89-1.9.27,1.85.01,3.15-.75,3.92-1.46,1.47-3.84-.23-5.58-3.93-1.75-3.7-1.96-7.47-.51-8.91.77-.76,1.69-.64,2.79.38-.89-1.84-1.77-3.67-2.66-5.47-.32.31-.65.63-.97.95-.22-.45-.45-.9-.67-1.35.65-.64,1.31-1.27,1.96-1.9ZM60.21,133.19c1.52,3.23,2.97,4.47,4.02,3.41,1.03-1.03.77-3.47-.71-6.57-1.47-3.1-2.94-4.31-3.97-3.3-1.03,1.02-.78,3.43.66,6.46Z" style="fill: #fff;"/>
    <path d="M69.71,108.84c2.54,5.13,5.07,10.38,7.61,15.59.32-.26.65-.52.97-.78.22.46.45.91.67,1.37-.65.52-1.31,1.06-1.96,1.6-.3-.61-.59-1.22-.89-1.84.27,1.74.01,2.93-.75,3.59-1.45,1.26-3.84-.48-5.58-4.12-1.75-3.64-1.96-7.26-.51-8.47.77-.64,1.69-.43,2.79.64-.89-1.82-1.77-3.64-2.66-5.44-.32.26-.65.52-.97.79-.22-.45-.45-.91-.67-1.36.65-.53,1.31-1.06,1.96-1.57ZM70.77,123.27c1.52,3.17,2.97,4.43,4.02,3.52,1.03-.88.77-3.16-.71-6.19-1.47-3.04-2.94-4.33-3.97-3.48-1.03.86-.78,3.17.66,6.16Z" style="fill: #fff;"/>
    <path d="M76.04,115.92c-.35-.89-.71-1.78-1.06-2.66.13-1.38.61-2.41,1.38-2.96.82-.59,1.77-.53,2.57.17.54.47.88,1.01,1.95,3.16.97,1.97,1.95,3.94,2.92,5.89.32-.23.64-.45.96-.67.22.45.45.89.67,1.34-.63.43-1.25.88-1.88,1.33-.29-.58-.58-1.16-.87-1.74.29,1.55-.01,2.72-.83,3.34-1.17.88-2.7.1-3.68-1.93-.78-1.6-.89-3.22-.33-4.6.34-.87.57-1.22,1.76-2.77-.07-.15-.15-.3-.22-.45-.47-.95-.72-1.35-.99-1.57-.41-.35-.89-.35-1.37-.01-.56.4-.84,1.09-.78,1.8.05.41.11.61.54,1.8-.24.18-.48.36-.73.55ZM80.23,115.06c-1.66,2.16-1.93,3.47-1.1,5.16.62,1.26,1.49,1.73,2.18,1.22.6-.45.83-1.43.6-2.52-.11-.53-.53-1.52-1.16-2.8-.17-.35-.35-.7-.52-1.05Z" style="fill: #fff;"/>
    <path d="M83.71,105.84c.23.46.45.91.68,1.37-.51.31-1.02.62-1.54.93.91,1.83,1.82,3.67,2.74,5.49.85,1.71,1.07,2.09,1.37,2.51.4.55.87.74,1.25.5.26-.16.42-.43.59-.95.26.5.51,1.01.77,1.51-.3.57-.5.8-.87,1.03-.71.46-1.47.31-2.15-.46-.53-.57-.59-.69-1.97-3.47-.92-1.84-1.83-3.68-2.75-5.53-.31.2-.61.39-.92.59-.23-.46-.45-.92-.68-1.38.31-.2.61-.4.92-.59-.57-1.16-1.15-2.31-1.72-3.47.34-.22.69-.43,1.03-.64.57,1.15,1.15,2.31,1.72,3.46.51-.32,1.02-.63,1.54-.93Z" style="fill: #fff;"/>
    <path d="M86.79,108.74c-.35-.86-.71-1.72-1.06-2.57.13-1.25.61-2.15,1.38-2.57.82-.44,1.77-.28,2.57.45.54.49.88,1.03,1.95,3.13.97,1.91,1.95,3.82,2.92,5.7.32-.17.64-.34.96-.51.22.43.45.86.67,1.28-.63.33-1.25.67-1.88,1.02-.29-.56-.58-1.12-.87-1.68.29,1.44-.01,2.47-.83,2.95-1.17.68-2.7-.18-3.69-2.14-.78-1.54-.89-3.05-.33-4.25.34-.76.57-1.05,1.76-2.35-.07-.15-.15-.29-.22-.44-.47-.93-.72-1.32-.99-1.55-.41-.37-.89-.43-1.37-.17-.56.3-.84.9-.78,1.56.05.38.11.57.54,1.72-.24.14-.48.28-.73.42ZM90.97,108.42c-1.66,1.79-1.93,2.96-1.1,4.59.62,1.22,1.49,1.74,2.18,1.35.6-.35.83-1.21.6-2.23-.11-.5-.53-1.44-1.16-2.68-.17-.34-.35-.68-.52-1.02Z" style="fill: #fff;"/>
    <path d="M98.26,110.98c.33-.16.66-.32.99-.47.22.42.45.85.67,1.27-1.01.48-2.01.98-3.02,1.5-.22-.43-.45-.85-.67-1.28.32-.17.65-.33.97-.49-2.31-4.43-4.63-8.98-6.94-13.56-.32.15-.65.3-.97.46-.22-.44-.45-.88-.67-1.33.68-.32,1.35-.63,2.03-.93,2.54,5.02,5.08,10.01,7.61,14.85Z" style="fill: #fff;"/>
    <path d="M96.98,103.58c-.35-.83-.71-1.65-1.06-2.48.13-1.15.61-1.93,1.38-2.24.82-.33,1.77-.09,2.57.66.54.51.88,1.04,1.95,3.07.97,1.86,1.95,3.7,2.92,5.51.32-.13.64-.26.96-.39.22.41.45.82.67,1.24-.63.25-1.25.51-1.88.78-.29-.54-.58-1.07-.87-1.61.29,1.35-.01,2.27-.83,2.64-1.17.52-2.7-.41-3.69-2.3-.78-1.49-.89-2.89-.33-3.94.34-.67.57-.92,1.76-2-.07-.14-.15-.28-.22-.43-.47-.9-.72-1.29-.99-1.53-.41-.38-.89-.48-1.37-.29-.56.23-.84.75-.78,1.37.05.36.11.54.54,1.64-.24.1-.48.21-.73.31ZM101.16,103.68c-1.66,1.51-1.93,2.55-1.1,4.13.62,1.18,1.49,1.73,2.18,1.43.6-.26.83-1.04.6-2-.11-.47-.53-1.37-1.16-2.57-.17-.33-.35-.66-.52-.99Z" style="fill: #fff;"/>
    <path d="M107.63,96.88c-.49.15-.98.3-1.47.45.79.49,1.43,1.21,1.96,2.21.45.84.68,1.66.63,2.3-.02.63-.23,1.06-.83,1.79-.8.98-.94,1.31-.68,1.79.22.41.54.51,1.15.4,2.49-.56,3.76-.01,4.88,1.97,1.2,2.13.86,3.62-.94,4.33-1.84.73-3.54.07-4.62-1.89-.75-1.37-.71-2.43.12-3.26-.81-.05-1.21-.28-1.53-.88-.43-.8-.26-1.57.49-2.29-1.3-.16-2.36-1.04-3.23-2.69-.52-.99-.78-1.99-.73-2.8.07-.93.47-1.4,1.46-1.74.22-.07.44-.15.66-.22.33-.08.53-.15.59-.17.49-.16.99-.32,1.48-.48.21.39.41.78.62,1.17ZM104.49,100.63c.74,1.41,1.75,2.12,2.54,1.84.75-.27.78-1.39.06-2.75-.72-1.35-1.71-2.1-2.48-1.84-.78.27-.84,1.41-.13,2.75ZM108.55,109.75c.69,1.26,1.83,1.66,3.12,1.16,1.18-.46,1.47-1.43.78-2.67-.68-1.21-1.74-1.65-2.96-1.2-1.21.45-1.58,1.54-.94,2.71Z" style="fill: #fff;"/>
    <path d="M110.67,96.5c-.27-1.37-.09-2.08.57-2.27.51-.15,1.02.08,1.77.76.4.75.8,1.49,1.2,2.23-.27.08-.53.16-.8.24-.4-.68-.61-1.02-.8-1.25-.32-.39-.66-.55-.95-.46-.44.13-.52.88-.18,1.83.25.7.63,1.48,1.63,3.31.64,1.16,1.27,2.31,1.91,3.45.38-.12.75-.25,1.12-.37.22.4.45.79.67,1.19-1.04.35-2.09.7-3.13,1.06-.22-.4-.45-.8-.67-1.2.32-.11.65-.22.97-.33-1.5-2.7-3-5.47-4.5-8.3-.32.1-.65.2-.97.3-.22-.42-.45-.84-.67-1.26.65-.2,1.29-.4,1.94-.59.3.56.59,1.12.89,1.68Z" style="fill: #fff;"/>
    <path d="M112.98,88.93c.35.66.69,1.31,1.04,1.96-.43.12-.85.24-1.28.36-.35-.65-.69-1.31-1.04-1.97.43-.12.85-.23,1.28-.35ZM120.4,102.6c.33-.1.66-.21.99-.31.22.39.45.78.67,1.16-1,.32-1.99.64-2.99.96-.22-.39-.45-.78-.67-1.18.32-.1.65-.21.97-.31-1.5-2.64-3-5.37-4.51-8.15-.32.09-.65.19-.97.28-.22-.41-.45-.83-.67-1.25.67-.19,1.34-.38,2-.57,1.72,3.21,3.45,6.34,5.17,9.36Z" style="fill: #fff;"/>
    <path d="M119.85,93.92c-.32-1.42-.08-2.23.76-2.47.81-.23,1.83.27,2.68,1.26.42.49.55.7,1.83,2.99.88,1.55,1.76,3.08,2.64,4.57.32-.1.65-.21.97-.31.22.38.45.75.67,1.13-.96.32-1.91.63-2.87.93-.22-.38-.45-.76-.67-1.14.29-.09.58-.18.86-.27-.94-1.6-1.87-3.23-2.81-4.9-.75-1.34-1.01-1.74-1.31-2.09-.47-.54-1.02-.77-1.47-.64-.49.14-.72.7-.62,1.48.1.67.33,1.21,1.15,2.67.82,1.46,1.63,2.89,2.45,4.3.29-.09.58-.18.86-.27.22.38.45.77.67,1.14-.96.31-1.91.61-2.87.92-.22-.38-.45-.77-.67-1.16.32-.1.65-.2.97-.31-1.5-2.6-3-5.29-4.51-8.05-.32.09-.65.19-.97.28-.22-.41-.45-.82-.67-1.23.65-.18,1.31-.37,1.96-.55.31.58.63,1.15.94,1.72Z" style="fill: #fff;"/>
    <path d="M130.65,90.01c-.49.15-.98.3-1.47.45.79.45,1.43,1.12,1.96,2.04.45.77.68,1.54.63,2.13-.02.59-.23.99-.83,1.67-.8.9-.94,1.19-.68,1.63.22.38.54.47,1.15.37,2.49-.52,3.76-.08,4.88,1.72,1.2,1.92.86,3.32-.94,3.98-1.84.67-3.54.05-4.62-1.73-.75-1.25-.71-2.19.12-2.93-.81-.05-1.21-.27-1.53-.82-.43-.74-.26-1.42.49-2.07-1.3-.16-2.36-.99-3.23-2.52-.52-.92-.78-1.85-.73-2.59.07-.85.47-1.28,1.46-1.59.22-.07.44-.14.66-.2.33-.08.53-.14.59-.16.49-.16.99-.31,1.48-.47.21.37.41.73.62,1.1ZM127.5,93.51c.74,1.31,1.75,1.98,2.54,1.72.75-.25.78-1.29.06-2.55-.72-1.25-1.71-1.95-2.48-1.71-.78.24-.84,1.29-.13,2.54ZM131.57,101.86c.69,1.14,1.83,1.52,3.12,1.05,1.18-.43,1.47-1.33.78-2.45-.68-1.1-1.74-1.47-2.96-1.05-1.21.41-1.58,1.38-.94,2.44Z" style="fill: #fff;"/>
    <path d="M136.96,95.91c.42.69.84,1.37,1.26,2.05-.47.18-.94.36-1.41.54-.42-.68-.84-1.37-1.26-2.06.47-.17.94-.34,1.41-.52Z" style="fill: #fff;"/>
    <path d="M134.52,88.89c-1.09-1.8-2.19-3.65-3.28-5.52.32-.11.64-.22.96-.33,1,1.9,2,3.77,3.01,5.6-.23.08-.46.17-.69.25ZM136.29,88.25c-1.09-1.79-2.19-3.62-3.28-5.49.32-.11.64-.23.96-.34,1,1.89,2.01,3.75,3.01,5.57-.23.09-.46.17-.69.26Z" style="fill: #fff;"/>
  </g>
  <path d="M8.23,149.56c-2.81-2.65-6.21-6.28-7.63-10.92-1.23-4.02-.76-9.49,3.07-12.65.66-.55,1.4-1,2.11-1.44,1.09-.67,2.12-1.31,2.87-2.24,2.05-2.55,1.23-5.99.36-9.63-.86-3.63-1.76-7.38.33-10.37,1.11-1.59,2.82-2.5,4.47-3.38,1.2-.64,2.44-1.3,3.4-2.21,2.82-2.67,2.92-6.66,3.02-10.9.07-3.09.15-6.29,1.33-9.09,3.16-7.47,12.23-9.05,20.24-10.45,1.34-.23,2.67-.47,3.94-.72,8.69-1.73,16.81-5.7,23.5-11.5l.51-.44c1.37-1.2,2.79-2.45,4.56-3.07,1.98-.7,4.09-.51,6.13-.33h.17c7.83.71,16.9.9,24.76-2.86,5.43-2.6,9.86-6.92,14.16-11.1,2.78-2.71,5.66-5.52,8.81-7.87,6.62-4.94,14.79-8.03,23.02-8.7,7.44-.61,15.06.67,22.42,1.9,10.66,1.78,20.73,3.46,30.44.03,3.1-1.1,6.13-2.73,9.06-4.32,5.36-2.9,10.92-5.89,17.07-5.66,3.3.13,6.51,1.19,9.61,2.22,3.96,1.32,7.71,2.56,11.62,2.02,3.81-.53,7.19-2.75,10.46-4.89.62-.41,1.24-.82,1.86-1.21,7.7-4.89,16.52-8.27,25.5-9.78l.17.99c-8.86,1.49-17.55,4.82-25.13,9.64-.62.39-1.23.8-1.85,1.2-3.36,2.2-6.83,4.48-10.87,5.04-4.15.58-8.18-.76-12.08-2.06-3.04-1.01-6.18-2.05-9.33-2.17-5.91-.23-11.07,2.57-16.56,5.54-2.96,1.6-6.03,3.26-9.21,4.38-9.95,3.52-20.62,1.74-30.93.02-7.31-1.22-14.86-2.48-22.18-1.89-8.05.65-16.04,3.67-22.51,8.5-3.1,2.31-5.95,5.1-8.71,7.79-4.35,4.24-8.85,8.62-14.42,11.29-8.07,3.87-17.31,3.67-25.28,2.97h-.17c-1.94-.18-3.94-.36-5.71.26-1.59.56-2.93,1.74-4.23,2.88l-.51.45c-6.82,5.91-15.11,9.97-23.96,11.73-1.28.25-2.62.49-3.97.72-8.13,1.42-16.54,2.89-19.49,9.85-1.11,2.62-1.18,5.73-1.25,8.73-.1,4.25-.2,8.65-3.33,11.6-1.06,1-2.36,1.69-3.61,2.37-1.62.87-3.15,1.68-4.12,3.08-1.83,2.61-1.03,5.99-.18,9.56.88,3.72,1.8,7.56-.56,10.49-.86,1.07-2.01,1.78-3.13,2.46-.68.42-1.39.85-2,1.36-2.96,2.44-4.09,7.21-2.75,11.59,1.35,4.41,4.64,7.92,7.36,10.49l-.69.73Z" style="fill: #fff;"/>
  <path d="M55.69,174.7c-.72-1.78-.56-3.68.49-5.5,1.59-2.78,5.02-5,8.53-5.51,2.15-.31,4.37-.27,6.51-.22,3.1.07,6.03.13,8.83-.8,5.1-1.7,8.54-6.34,11.86-10.83,3.5-4.73,7.12-9.62,12.75-11.25,2.7-.78,5.58-.69,8.37-.61,3.58.11,6.96.21,9.91-1.38,3.61-1.95,5.4-5.73,7.29-9.73.75-1.59,1.53-3.24,2.43-4.75,4.86-8.13,14.48-12.52,22.86-10.44,4.2,1.04,7.82,3.51,11.33,5.91,1.12.76,2.27,1.55,3.42,2.27,14.39,9.06,32.57,10.22,46.33,2.96,14.69-7.75,23.07-25.6,19.06-40.64-.24-.9-.52-1.79-.8-2.69-.67-2.15-1.36-4.37-1.5-6.68-.58-10.08,9.35-17.68,19.44-20.73,2.72-.82,5.56-1.48,8.31-2.12,6.93-1.61,14.09-3.27,19.67-7.65,11.01-8.64,12.46-24.59,12.38-40.54h1c.08,16.2-1.41,32.42-12.76,41.33-5.75,4.51-13.02,6.2-20.06,7.83-2.73.63-5.56,1.29-8.24,2.1-9.72,2.94-19.28,10.17-18.73,19.71.13,2.18.8,4.34,1.45,6.44.28.91.57,1.81.81,2.73,4.12,15.47-4.47,33.83-19.56,41.79-14.07,7.42-32.65,6.25-47.33-3-1.16-.73-2.33-1.52-3.45-2.29-3.44-2.34-6.99-4.76-11.01-5.76-7.97-1.98-17.12,2.22-21.77,9.98-.88,1.46-1.64,3.09-2.39,4.66-1.88,3.97-3.82,8.08-7.72,10.18-3.19,1.72-6.87,1.61-10.42,1.5-2.71-.08-5.52-.17-8.07.57-5.3,1.53-8.66,6.07-12.22,10.88-3.42,4.61-6.95,9.38-12.35,11.18-2.97.99-6.12.92-9.17.85-2.1-.05-4.27-.09-6.35.21-3.17.46-6.38,2.52-7.81,5.02-.88,1.54-1.03,3.14-.43,4.63l-.93.38Z" style="fill: #fff;"/>
</svg>