<?xml version="1.0" encoding="UTF-8"?>
<svg id="Layer_1" xmlns="http://www.w3.org/2000/svg" viewBox="0 0 360.93 268.62">
  <path d="M360.81,73.05c-4,.77-8.14,1.57-12.15,2.54-17.44,4.21-29.41,12.15-34.64,22.96-.42.87-.81,1.78-1.18,2.66-.78,1.83-1.59,3.73-2.75,5.35-2.15,2.98-5.52,5.01-8.5,6.79-17.17,10.3-36.63,21.98-58.08,23.4-3.9.26-7.9.17-11.77.09-5.52-.12-11.22-.24-16.78.63-8.81,1.39-19.29,6.39-22.27,16.27-.85,2.83-1.02,5.9-1.18,8.88-.26,4.77-.51,9.28-3.38,12.69-2.71,3.23-7.14,4.48-11.08,5.41-15.73,3.69-31.88,5.06-48,4.07l-.61-.04c-11.72-.73-26.3-1.63-33.54,8.13-2.62,3.52-3.8,7.95-4.94,12.23-1.49,5.59-2.91,10.87-7.24,14.08-4.11,3.05-9.6,3.14-14.9,3.22-.86.01-1.71.03-2.55.05-4.82.15-13.31,1.36-16.07,7.87-1.22,2.86-.98,6.09-.75,9.2.27,3.64.53,7.07-1.42,9.8-2,2.82-5.74,3.83-9.48,4.51l-.25.05c-3.56.65-7.59,1.38-10.23,4.11-1.6,1.66-2.29,4.33-1.72,6.64.43,1.73,1.5,2.96,3.01,3.46l.31-.95c-1.17-.39-2.01-1.37-2.35-2.75-.49-1.96.12-4.31,1.47-5.71,2.41-2.5,6.11-3.17,9.69-3.82l.25-.05c3.95-.72,7.9-1.81,10.11-4.92,2.15-3.02,1.87-6.8,1.6-10.45-.22-3-.45-6.1.67-8.74,2.54-5.99,10.6-7.12,15.18-7.26.84-.03,1.68-.04,2.54-.05,5.46-.08,11.11-.17,15.48-3.42,4.62-3.43,6.14-9.12,7.61-14.63,1.12-4.19,2.28-8.52,4.78-11.89,6.92-9.32,20.61-8.47,32.68-7.73l.61.04c16.22,1,32.47-.38,48.29-4.09,4.09-.96,8.71-2.28,11.62-5.74,3.09-3.67,3.35-8.55,3.61-13.28.16-2.91.32-5.93,1.14-8.64,2.84-9.44,12.95-14.23,21.47-15.57,5.47-.86,11.13-.74,16.6-.62,3.89.08,7.91.17,11.85-.09,21.7-1.44,41.27-13.18,58.53-23.54,3.06-1.84,6.52-3.92,8.79-7.06,1.23-1.71,2.06-3.66,2.86-5.54.37-.87.75-1.76,1.16-2.61,6.43-13.31,22.02-19.54,33.97-22.43,3.97-.96,8.07-1.75,12.04-2.52-.04-.33-.08-.66-.12-.99Z" style="fill: #fff;"/>
  <path d="M.9,268.62c-2.15-2.97-.05-6.16,1.98-9.24,1.72-2.62,3.51-5.33,2.88-7.97-.3-1.26-1.11-2.3-1.98-3.41-.48-.62-.98-1.26-1.39-1.94-3.18-5.34-.5-10.91,2.34-16.8,2.11-4.38,4.29-8.91,3.92-13.39-.14-1.65-.58-3.47-1.02-5.23-1.08-4.39-2.21-8.94,1.34-11.58,1.02-.76,2.22-1.11,3.38-1.46.49-.15.98-.29,1.46-.47,9.09-3.38,9.6-16.4,9.39-21.84l-.06-1.57c-.34-8.28-.72-17.67,5.24-23.58,1.04-1.03,2.23-1.9,3.38-2.74,1.3-.95,2.65-1.93,3.73-3.12,4.08-4.53,3.94-11.19,3.8-17.63l-.03-1.53c-.24-14.21,2.63-28.6,8.31-41.62,1.92-4.41,4.47-9.35,8.82-12.52,4-2.93,10.36-4.15,14.79-.82.55.41,1.05.88,1.54,1.34,1,.93,1.95,1.81,3.16,2.16,2.75.8,5.53-1.27,8.5-6.34,5.8-9.88,15.84-19.34,26.59-16.28,1.36.39,2.79.97,4.16,1.53,3.94,1.61,7.66,3.13,10.45.76,1.33-1.13,1.91-2.84,2.51-4.65.28-.84.58-1.72.96-2.54,3.1-6.68,11.55-8.75,18.08-7.85,4.61.63,8.99,2.39,13.22,4.09,2.04.82,4.16,1.67,6.26,2.38,20.44,6.87,41.89,1.28,56.29-4.62,5.49-2.25,11.73-5.2,16.43-10.07,4.24-4.39,6.94-10.08,9.56-15.57,2.39-5.02,4.86-10.21,8.5-14.5l.76.65c-3.56,4.19-6,9.32-8.36,14.28-2.65,5.57-5.39,11.33-9.74,15.84-4.83,5-11.19,8.02-16.77,10.31-14.56,5.97-36.26,11.61-56.99,4.64-2.13-.72-4.26-1.57-6.32-2.4-4.18-1.68-8.5-3.41-12.99-4.03-6.18-.85-14.15,1.06-17.04,7.28-.36.77-.64,1.61-.92,2.43-.62,1.86-1.27,3.78-2.81,5.09-3.25,2.76-7.43,1.05-11.47-.6-1.35-.55-2.75-1.12-4.06-1.5-10.2-2.91-19.84,6.26-25.46,15.82-1.19,2.03-4.82,8.19-9.64,6.79-1.43-.42-2.51-1.42-3.56-2.39-.47-.44-.96-.89-1.47-1.27-4.04-3.04-9.9-1.89-13.6.82-4.15,3.04-6.62,7.83-8.49,12.12-5.62,12.9-8.46,27.14-8.23,41.21l.03,1.53c.14,6.33.29,13.49-4.06,18.32-1.15,1.27-2.54,2.28-3.88,3.26-1.12.82-2.28,1.66-3.26,2.64-5.65,5.61-5.27,14.76-4.95,22.83l.06,1.57c.21,5.66-.33,19.21-10.04,22.82-.5.19-1.01.34-1.52.49-1.13.34-2.19.65-3.06,1.3-3.01,2.25-2.02,6.27-.97,10.54.44,1.79.9,3.65,1.04,5.38.39,4.75-1.85,9.41-4.01,13.91-2.72,5.65-5.28,10.98-2.38,15.85.38.63.86,1.25,1.32,1.84.89,1.14,1.81,2.32,2.16,3.79.73,3.06-1.18,5.95-3.02,8.75-2.01,3.05-3.75,5.69-2,8.11l-.81.59Z" style="fill: #fff;"/>
  <g>
    <path d="M56.4,154.62c.63,1.24,1.25,2.52,1.88,3.83-.28.3-.56.61-.84.91-.77-1.14-1.53-2.25-2.3-3.31.42-.48.84-.95,1.26-1.43ZM59.55,151.09c.63,1.29,1.25,2.62,1.88,3.97-.28.3-.56.6-.84.9-.77-1.19-1.53-2.35-2.3-3.46.42-.47.84-.94,1.26-1.41Z" style="fill: #fff;"/>
    <path d="M61.98,148.39c.42-.46.84-.93,1.26-1.39.94,1.71,1.88,3.47,2.81,5.3,2.27-2.36,4.54-4.69,6.81-6.95-.94-1.92-1.88-3.78-2.81-5.6.42-.44.84-.87,1.26-1.3,2.11,4.12,4.22,8.5,6.33,13.14-.42.4-.84.8-1.26,1.2-.96-2.11-1.92-4.16-2.89-6.15-2.27,2.24-4.54,4.55-6.81,6.89.96,1.9,1.92,3.86,2.89,5.89-.42.42-.84.83-1.26,1.25-2.11-4.41-4.22-8.51-6.33-12.3Z" style="fill: #fff;"/>
    <path d="M74.12,135.36c.43-.43.86-.85,1.3-1.27.31.62.62,1.25.93,1.88-.43.42-.87.84-1.3,1.26-.31-.63-.62-1.25-.93-1.86ZM80.78,154.14c-.19-.44-.39-.88-.58-1.31.18-.11.37-.25.56-.43.7-.64.77-1.41.34-2.38-1.72-3.85-3.43-7.54-5.15-11.06.41-.4.82-.79,1.23-1.19,1.76,3.63,3.52,7.43,5.28,11.4.72,1.64.52,3.13-.9,4.42-.28.25-.55.45-.78.55Z" style="fill: #fff;"/>
    <path d="M84.63,136.72c.88-.77,1.75-1.52,2.63-2.26-.11-.23-.21-.46-.32-.69-.72-1.58-1.9-1.82-3.17-.71-1.09.96-1.5,2.29-1.18,3.57-.41.36-.81.73-1.22,1.1-.6-2.07.11-4.3,1.79-5.79,1.38-1.22,2.69-1.48,3.79-.53.02-1.81.87-3.46,2.12-4.47,2.48-2,4.83-.74,6.07,2.01.08.18.16.36.24.54-2.14,1.6-4.28,3.3-6.42,5.07,1.04,2.14,2.79,3.15,4.52,1.78,1.31-1.04,1.64-2.55,1.44-3.98.39-.3.79-.6,1.18-.9.49,2.32-.26,4.7-2.08,6.13-1.56,1.23-3.29,1.14-4.42.02.31,1.69-.33,3.85-2.07,5.35-1.95,1.68-3.76,1.37-4.61-.5-.89-1.95-.16-4.11,1.69-5.74ZM87.12,141.73c1.62-1.39,1.81-3.57.79-5.84-.05-.1-.09-.2-.14-.3-.78.66-1.57,1.33-2.35,2.02-1.48,1.29-1.84,2.54-1.27,3.8.59,1.3,1.74,1.39,2.97.32ZM93.73,129.24c-.99-1.75-2.51-2.39-4.12-1.1-1.51,1.22-1.73,3.32-1.11,5.27,1.74-1.45,3.48-2.84,5.22-4.17Z" style="fill: #fff;"/>
    <path d="M93.23,118.33c.41-.3.82-.6,1.23-.89,2.2,4.67,4.4,9.54,6.61,14.58-.41.29-.82.58-1.23.88-2.2-5.04-4.4-9.91-6.61-14.57Z" style="fill: #fff;"/>
    <path d="M100.48,118.93c.31.67.62,1.35.92,2.02-.16-1.52.53-3.27,1.9-4.12,2.19-1.34,4.88.14,6.22,3.13,1.34,2.99.82,6.37-1.37,7.72-1.36.84-2.98.53-3.94-.51.86,1.96,1.73,3.94,2.59,5.94-.41.27-.82.54-1.23.82-2.1-4.88-4.2-9.62-6.3-14.19.4-.27.8-.53,1.2-.79ZM107.45,126.39c1.61-.99,1.83-3.54.85-5.72-.98-2.18-2.9-3.44-4.5-2.45-1.61.99-1.94,3.63-.96,5.81.98,2.19,3.01,3.35,4.62,2.36Z" style="fill: #fff;"/>
    <path d="M112.42,111.79c2.48-1.22,4.79.47,6.03,3.21.11.23.21.47.32.7-2.14.97-4.28,2.03-6.42,3.16,1.02,2.06,2.72,3.27,4.44,2.41,1.25-.62,1.6-1.78,1.47-3.04.4-.19.8-.38,1.2-.56.4,2.11-.36,3.99-2.11,4.87-2.51,1.27-5.05-.46-6.37-3.39-1.39-3.11-.79-6.26,1.44-7.36ZM117.07,115.01c-.98-1.82-2.53-2.81-4.12-2.03-1.52.76-1.75,2.7-1.12,4.64,1.75-.93,3.49-1.79,5.24-2.61Z" style="fill: #fff;"/>
    <path d="M118.44,109.31c.39-.17.78-.33,1.17-.49.37.81.74,1.62,1.11,2.43-.41-1.7-.02-3.03,1.49-3.62.26-.1.53-.18.72-.18.2.43.39.85.59,1.28-.2.03-.34.08-.57.17-1.56.6-2.05,2.57-.88,5.15.75,1.65,1.49,3.31,2.24,4.98-.41.17-.82.35-1.23.53-1.54-3.47-3.09-6.9-4.63-10.26Z" style="fill: #fff;"/>
    <path d="M128.3,105.59c.39-.13.78-.26,1.17-.38.27.57.53,1.15.8,1.73-.18-1.32.37-2.37,1.59-2.74,1.3-.39,2.51.08,3.51,1.1-.02-1.28.62-2.3,1.9-2.64,2-.53,3.79.8,4.92,3.25.96,2.07,1.91,4.15,2.87,6.23-.41.11-.82.22-1.23.32-.92-2.01-1.84-4.01-2.76-6.01-.83-1.8-2-2.8-3.38-2.43-1.33.36-1.72,1.66-.79,3.69.9,1.96,1.8,3.94,2.71,5.92-.41.12-.82.24-1.23.36-.92-2.02-1.84-4.04-2.76-6.04-.83-1.81-2-2.79-3.36-2.37-1.33.41-1.73,1.75-.8,3.79.9,1.97,1.8,3.96,2.71,5.95-.41.14-.82.27-1.23.41-1.54-3.42-3.09-6.82-4.63-10.16Z" style="fill: #fff;"/>
    <path d="M146.22,100.45c2.48-.57,4.79,1.37,6.03,4.04.11.23.21.46.32.68-2.14.48-4.28.97-6.42,1.48,1.02,2.02,2.72,3.44,4.44,3.03,1.25-.29,1.6-1.24,1.47-2.37.4-.09.8-.18,1.2-.27.4,1.94-.36,3.44-2.11,3.86-2.51.6-5.06-1.46-6.37-4.31-1.39-3.02-.79-5.63,1.44-6.14ZM150.86,104.24c-.98-1.8-2.53-2.98-4.12-2.62-1.52.35-1.75,2-1.12,3.83,1.75-.42,3.49-.82,5.24-1.21Z" style="fill: #fff;"/>
    <path d="M162.98,107.98c-.31-.66-.62-1.32-.92-1.98.17,1.31-.53,2.56-1.9,2.86-2.19.49-4.88-1.49-6.22-4.38-1.34-2.89-.82-5.56,1.37-6.04,1.36-.3,2.98.44,3.93,1.58-.97-2.07-1.93-4.14-2.9-6.21.41-.09.82-.18,1.23-.27,2.2,4.71,4.4,9.46,6.61,14.17-.4.09-.8.18-1.2.27ZM156.01,99.7c-1.61.35-1.83,2.41-.85,4.51.98,2.1,2.9,3.7,4.5,3.34,1.61-.35,1.94-2.44.96-4.54-.98-2.1-3.01-3.67-4.62-3.32Z" style="fill: #fff;"/>
    <path d="M170.32,99.69c.86-.29,1.72-.58,2.58-.88-.06-.12-.11-.25-.17-.37-.71-1.54-1.8-2.28-3.13-1.95-1.18.29-1.52,1.28-1.21,2.37-.41.1-.81.19-1.22.29-.6-1.87.04-3.4,1.86-3.85,2.13-.53,3.92.63,4.93,2.8,1.02,2.19,2.04,4.38,3.06,6.54-.4.1-.8.21-1.2.31-.24-.51-.48-1.03-.72-1.54.13,1.05-.45,2.1-1.86,2.45-1.82.45-3.57-.56-4.43-2.4-.84-1.8-.23-3.19,1.52-3.77ZM172.87,104.72c1.41-.35,1.95-1.8.99-3.85-.15-.33-.31-.66-.46-.99-.71.25-1.42.49-2.12.73-1.41.47-1.88,1.28-1.29,2.53.56,1.2,1.62,1.89,2.89,1.58Z" style="fill: #fff;"/>
    <path d="M178.75,100.83c-.89-1.9-1.77-3.8-2.66-5.72-.53.15-1.06.29-1.59.44-.19-.42-.39-.83-.58-1.25.53-.14,1.06-.29,1.59-.44-.41-.89-.82-1.77-1.23-2.66.41-.12.82-.23,1.23-.35.41.89.82,1.78,1.23,2.67.82-.23,1.64-.48,2.46-.72.19.42.39.84.58,1.25-.82.25-1.64.49-2.46.72.9,1.94,1.8,3.88,2.7,5.8.52,1.12,1.27,1.61,2.21,1.34.42-.12.77-.34,1-.51.2.42.39.83.59,1.25-.2.21-.68.44-1.18.59-1.62.47-2.93-.36-3.88-2.39Z" style="fill: #fff;"/>
    <path d="M184.71,91.04c.39-.13.78-.26,1.17-.4.37.81.74,1.61,1.11,2.42-.41-1.65-.02-2.93,1.49-3.48.26-.09.53-.17.72-.17.2.43.39.85.59,1.28-.2.03-.34.08-.57.16-1.56.57-2.05,2.45-.88,4.96.75,1.6,1.49,3.19,2.24,4.76-.41.14-.82.28-1.23.42-1.54-3.26-3.09-6.59-4.63-9.95Z" style="fill: #fff;"/>
    <path d="M193.86,87.35c2.48-1.02,4.79.67,6.03,3.34.11.23.21.45.32.68-2.14.94-4.28,1.82-6.42,2.64,1.02,1.99,2.72,3.24,4.44,2.54,1.25-.51,1.6-1.58,1.47-2.77.4-.17.8-.34,1.2-.52.4,2-.36,3.75-2.11,4.47-2.51,1.03-5.05-.79-6.37-3.61-1.39-3-.79-5.87,1.43-6.77ZM198.51,90.69c-.98-1.78-2.53-2.79-4.12-2.14-1.52.62-1.75,2.42-1.12,4.27,1.75-.67,3.49-1.38,5.24-2.13Z" style="fill: #fff;"/>
    <path d="M210.63,92.02c-.31-.64-.62-1.28-.92-1.92.17,1.4-.53,2.94-1.9,3.61-2.19,1.06-4.88-.48-6.22-3.36-1.34-2.88-.82-5.98,1.37-7.02,1.36-.65,2.98-.21,3.94.84-.97-2.1-1.93-4.22-2.9-6.38.41-.2.82-.41,1.23-.62,2.2,4.92,4.4,9.69,6.61,14.24-.4.21-.8.41-1.2.62ZM203.66,84.58c-1.61.77-1.83,3.11-.85,5.21.98,2.1,2.9,3.39,4.5,2.61,1.61-.78,1.94-3.15.96-5.24-.98-2.09-3.01-3.35-4.62-2.58Z" style="fill: #fff;"/>
    <path d="M209.87,80.15c.41-.22.82-.43,1.23-.65.92,2.01,1.83,3.98,2.75,5.91.85,1.79,2.03,2.57,3.4,1.8,1.36-.76,1.77-2.39.88-4.24-.91-1.9-1.82-3.84-2.72-5.81.41-.23.82-.46,1.23-.69,1.54,3.36,3.09,6.6,4.63,9.71-.39.23-.78.45-1.17.68-.26-.52-.52-1.05-.78-1.58.16,1.26-.38,2.53-1.69,3.27-1.93,1.08-3.79.12-4.94-2.31-.94-1.99-1.89-4.02-2.83-6.09Z" style="fill: #fff;"/>
    <path d="M222.64,72.76c1.99-1.15,3.91-.41,5.15,1.16-.41.24-.81.48-1.22.72-.91-.94-2.05-1.35-3.34-.6-1.67.97-1.89,3.46-.93,5.45.96,2,2.91,3.1,4.58,2.08,1.28-.78,1.63-2.02,1.43-3.34.41-.25.81-.49,1.22-.74.5,1.95-.06,4.03-2.05,5.26-2.4,1.48-5.15.12-6.42-2.54-1.27-2.64-.83-6.07,1.57-7.45Z" style="fill: #fff;"/>
    <path d="M231.66,67.54c2.48-1.41,4.79.02,6.04,2.4.11.2.21.41.32.61-2.14,1.26-4.28,2.54-6.42,3.83,1.02,1.84,2.72,2.7,4.44,1.63,1.25-.78,1.6-1.89,1.47-3.03.4-.24.8-.48,1.2-.72.4,1.86-.36,3.69-2.11,4.8-2.51,1.59-5.05.38-6.37-2.28-1.39-2.82-.79-5.98,1.44-7.24ZM236.31,70.16c-.98-1.59-2.53-2.4-4.12-1.48-1.52.88-1.75,2.8-1.12,4.58,1.75-1.04,3.49-2.08,5.24-3.1Z" style="fill: #fff;"/>
    <path d="M237.68,64.47c.39-.21.78-.42,1.17-.63.37.74.74,1.48,1.11,2.2-.41-1.56-.02-2.92,1.49-3.68.26-.13.53-.24.72-.27.2.38.39.76.59,1.14-.2.06-.34.13-.57.25-1.56.79-2.05,2.79-.88,4.98.75,1.39,1.49,2.74,2.24,4.04-.41.25-.82.5-1.23.75-1.54-2.73-3.09-5.65-4.63-8.77Z" style="fill: #fff;"/>
    <path d="M246.83,59.71c2.48-1.04,4.79.41,6.04,2.42.11.17.21.35.32.52-2.14.9-4.28,1.93-6.42,3.04,1.02,1.63,2.72,2.35,4.44,1.44,1.25-.66,1.6-1.56,1.47-2.51.4-.19.8-.37,1.2-.55.4,1.52-.36,2.99-2.11,3.94-2.51,1.38-5.05.41-6.37-1.98-1.39-2.52-.79-5.38,1.43-6.31ZM251.48,62.22c-.98-1.37-2.53-2.19-4.12-1.5-1.52.67-1.75,2.37-1.12,3.96,1.75-.88,3.49-1.71,5.24-2.46Z" style="fill: #fff;"/>
    <path d="M72.65,181.17c-1.68-4.07-1.27-9.56,2.08-12.71,2.46-2.31,4.91-2.05,6.64.13-.43.4-.87.79-1.3,1.19-1.29-1.29-2.87-1.55-4.71.16-2.66,2.48-2.76,6.89-1.44,10.1,1.32,3.2,4.1,5.36,6.76,2.97,1.83-1.65,2.36-3.96,2.17-6.34.43-.39.87-.79,1.3-1.18.52,3.38-.37,6.93-2.84,9.15-3.34,3-6.98.57-8.66-3.48Z" style="fill: #fff;"/>
    <path d="M84.61,170.33c-1.65-4.09-1.15-9.97,2.17-12.94,3.32-2.96,7.11-.81,8.76,3.29,1.65,4.08,1.15,10.12-2.17,13.09-3.33,2.97-7.11.65-8.76-3.44ZM94.28,161.75c-1.31-3.26-4.27-5.16-6.84-2.86-2.58,2.3-2.87,7.03-1.56,10.29,1.31,3.26,4.3,5.24,6.88,2.94,2.58-2.3,2.84-7.12,1.52-10.37Z" style="fill: #fff;"/>
    <path d="M100.14,165.67c.66-3.69,1.32-7.31,1.98-10.85.29-1.61.39-2.88-.17-4.24-.7-1.69-2.1-2.19-3.48-1.1-1.56,1.24-1.89,3.32-1.09,5.54-.41.33-.81.67-1.22,1.01-1.17-3.12-.46-6.29,1.72-8.01,2.12-1.68,4.28-.91,5.32,1.61.75,1.82.56,3.86.27,5.29-.6,3-1.21,6.07-1.81,9.18,1.89-1.57,3.77-3.09,5.66-4.56.2.5.4,1.01.61,1.51-2.42,1.9-4.84,3.88-7.27,5.94-.17-.44-.34-.87-.52-1.31Z" style="fill: #fff;"/>
    <path d="M107.13,151.74c1.42-1.06,2.84-2.08,4.27-3.07.18.44.37.89.55,1.34-1.42.99-2.84,2.02-4.27,3.08-.18-.45-.37-.9-.55-1.35Z" style="fill: #fff;"/>
    <path d="M112.43,143.16c.41-.27.82-.54,1.23-.8.92,2.18,1.83,4.38,2.75,6.58.85,2.05,2.03,2.93,3.41,2.03,1.36-.88,1.77-2.73.88-4.83-.91-2.15-1.82-4.3-2.72-6.44.41-.24.82-.48,1.23-.72,1.54,3.63,3.09,7.28,4.63,10.93-.39.24-.78.48-1.17.72-.26-.62-.52-1.23-.78-1.85.16,1.44-.38,2.9-1.69,3.76-1.93,1.27-3.79.2-4.94-2.58-.94-2.28-1.89-4.54-2.83-6.8Z" style="fill: #fff;"/>
    <path d="M132.68,144.94c-.31-.7-.61-1.41-.92-2.11.16,1.51-.53,3.16-1.9,3.92-2.19,1.2-4.88-.39-6.22-3.54-1.34-3.15-.82-6.58,1.37-7.7,1.36-.69,2.98-.19,3.93.93-.97-2.22-1.93-4.43-2.9-6.64.41-.19.82-.38,1.23-.57,2.2,5.02,4.4,10.09,6.61,15.1-.4.2-.8.4-1.2.61ZM125.71,136.83c-1.61.82-1.82,3.39-.85,5.68.98,2.29,2.9,3.66,4.5,2.79,1.61-.87,1.94-3.41.96-5.66-.98-2.24-3.01-3.63-4.62-2.81Z" style="fill: #fff;"/>
    <path d="M130.12,127.98c.41-.17.82-.35,1.23-.52,2.2,4.98,4.4,9.98,6.61,14.92-.41.19-.82.38-1.23.57-2.2-4.96-4.4-9.98-6.61-14.97Z" style="fill: #fff;"/>
    <path d="M139.26,129.29c2.48-.9,4.79.96,6.03,3.67.11.23.21.46.32.69-2.14.76-4.28,1.57-6.42,2.44,1.02,2.07,2.72,3.35,4.44,2.67,1.25-.49,1.6-1.55,1.47-2.75.4-.15.8-.29,1.2-.44.4,2.02-.36,3.72-2.11,4.42-2.51,1.02-5.05-.81-6.37-3.76-1.39-3.13-.79-6.12,1.44-6.93ZM143.91,132.85c-.98-1.82-2.53-2.93-4.12-2.35-1.52.56-1.75,2.42-1.12,4.34,1.75-.71,3.49-1.37,5.24-1.99Z" style="fill: #fff;"/>
    <path d="M156.03,135.54c-.31-.65-.62-1.3-.92-1.95.16,1.33-.53,2.66-1.9,3.12-2.19.73-4.88-1.02-6.22-3.94-1.34-2.92-.82-5.84,1.37-6.49,1.36-.41,2.98.26,3.94,1.38-.97-2.08-1.93-4.17-2.9-6.26.41-.11.82-.22,1.23-.33,2.2,4.77,4.4,9.5,6.61,14.11-.4.12-.8.25-1.2.37ZM149.06,127.54c-1.61.48-1.83,2.69-.85,4.81.98,2.13,2.9,3.58,4.5,3.05,1.61-.53,1.94-2.68.96-4.77-.98-2.08-3.01-3.58-4.62-3.1Z" style="fill: #fff;"/>
    <path d="M155.35,124.57c.39-.1.78-.21,1.17-.31.27.57.53,1.13.8,1.69-.17-1.3.41-2.27,1.72-2.6,1.95-.49,3.81.85,4.96,3.24.94,1.96,1.89,3.91,2.83,5.82-.41.11-.82.22-1.23.33-.91-1.86-1.82-3.74-2.73-5.64-.85-1.77-2.04-2.76-3.42-2.41-1.36.35-1.83,1.73-.93,3.62.9,1.9,1.8,3.79,2.71,5.65-.41.12-.82.24-1.23.36-1.54-3.2-3.09-6.47-4.63-9.77Z" style="fill: #fff;"/>
    <path d="M163.12,118.38c.43-.1.86-.2,1.3-.3.31.66.62,1.31.93,1.96-.43.1-.87.2-1.3.31-.31-.65-.62-1.31-.93-1.97ZM164.96,122.16c.41-.1.82-.2,1.23-.3,1.54,3.23,3.09,6.4,4.63,9.5-.41.11-.82.22-1.23.33-1.54-3.11-3.09-6.29-4.63-9.53Z" style="fill: #fff;"/>
    <path d="M169.03,121.18c.39-.09.78-.19,1.17-.28.27.55.53,1.1.8,1.65-.17-1.25.41-2.19,1.72-2.5,1.95-.47,3.81.82,4.96,3.14.94,1.9,1.89,3.78,2.83,5.62-.41.11-.82.22-1.23.33-.91-1.78-1.82-3.6-2.73-5.44-.85-1.72-2.04-2.67-3.42-2.34-1.36.33-1.83,1.66-.93,3.49.9,1.84,1.8,3.66,2.71,5.44-.41.11-.82.22-1.23.32-1.54-3.07-3.09-6.23-4.63-9.43Z" style="fill: #fff;"/>
    <path d="M181.52,117.81c1.38-.37,2.86.2,3.77,1.16-.28-.57-.57-1.14-.85-1.71.4-.11.8-.23,1.2-.34,1.48,2.98,2.96,5.89,4.43,8.71,1.23,2.34.53,4.17-1.77,4.86-1.93.58-3.97-.2-5.31-1.83.42-.12.84-.23,1.26-.35.94,1.02,2.22,1.5,3.53,1.11,1.77-.53,1.89-1.81.89-3.73-.27-.51-.53-1.02-.8-1.54.18,1.12-.4,2.3-1.8,2.7-2.21.64-4.74-.9-6.01-3.46-1.28-2.56-.75-5,1.45-5.59ZM185.71,125.7c1.53-.44,1.89-2.07.87-4.09-1.02-2.02-2.83-3.09-4.29-2.69-1.65.45-1.94,2.24-.98,4.16.96,1.91,2.78,3.09,4.4,2.62Z" style="fill: #fff;"/>
    <path d="M187.56,112.41c.63,1.44,1.25,2.87,1.88,4.29-.28.09-.56.17-.84.26-.77-1.37-1.53-2.76-2.3-4.16.42-.12.84-.25,1.26-.38ZM190.7,111.42c.63,1.44,1.25,2.86,1.88,4.27-.28.09-.56.18-.84.27-.77-1.36-1.53-2.74-2.3-4.14.42-.13.84-.27,1.26-.4Z" style="fill: #fff;"/>
  </g>
</svg>