<?xml version="1.0" encoding="UTF-8"?>
<svg id="Layer_2" xmlns="http://www.w3.org/2000/svg" viewBox="0 0 50.29 56.77">
  <path d="M15.83,56.77c-.17,0-.35,0-.52,0-1.62-.02-4.76-1.7-4.89-1.77-.2-.11-.56-.28-.99-.47-1.66-.77-3.07-1.45-3.52-2.01C3.63,49.72.53,45.37.04,40.07c-.44-4.72,2.71-11.17,5.88-14.85,3.25-3.77,9.82-5.03,14.34-4.3l.36.06.05.36c.28,1.82.15,3.77.02,5.83-.08,1.19-.16,2.42-.15,3.63v.5s-.5,0-.5,0c-2.09.02-2.79.02-4.74.57-1.77.5-2.91,1.48-3.92,3.37-1.33,2.49-1.53,6.35.28,8.12,2.29,2.24,4.96,3.32,7.33,2.96,1.42-.21,3.98-.95,4.77-2.02.82-1.11,1.99-3.37,2.04-4.52.34-8.12.27-16.55.21-24.71-.04-4.79-.07-9.75-.03-14.53v-.54s.54.04.54.04c2.04.17,3.74.13,5.54.1,1.17-.02,2.38-.05,3.71-.02h.52s-.03.53-.03.53c-.09,1.62.15,2.73.93,4.24,1.94,3.79,3.35,5.64,7.07,7.25,1.83.79,3.27,1.37,5.18,1.64,1.47.21.58,9.22.57,9.31-.04.41-.09.92-.61.88-5.45-.37-9.02-1.41-12.77-3.78.13,3.14.03,5.92-.08,8.84-.09,2.33-.17,4.74-.15,7.48v1.01c.05,2.21.1,4.97-.6,6.95-.75,2.1-1.29,3.5-2.49,5.28-.33.5-1.51,2.17-2.54,2.99-.23.18-.47.41-.71.64-.59.55-1.26,1.18-2,1.44-3.75,1.3-7.86,1.95-12.22,1.95ZM17.64,21.71c-3.92,0-8.49,1.3-10.96,4.16-3.08,3.57-6.04,9.82-5.64,14.1.46,5.03,3.45,9.21,5.65,11.92.34.42,2.18,1.27,3.16,1.73.45.21.82.38,1.04.5,1.17.63,3.41,1.64,4.43,1.65,4.46.06,8.62-.58,12.41-1.89.54-.19,1.1-.71,1.64-1.22.27-.25.53-.49.78-.69.73-.58,1.71-1.86,2.33-2.77,1.14-1.68,1.66-3.03,2.38-5.06.64-1.81.6-4.46.56-6.59v-1.02c-.04-2.77.05-5.19.14-7.53.12-3.2.23-6.23.04-9.73l-.06-1.01.83.57c3.8,2.58,7.27,3.71,12.66,4.12.18-1.61.37-7.12.07-8.2-1.93-.3-3.4-.89-5.23-1.68-3.98-1.72-5.55-3.77-7.56-7.71-.77-1.5-1.07-2.7-1.05-4.23-1.12-.02-2.16,0-3.16.03-1.67.04-3.25.07-5.1-.06-.04,4.61,0,9.37.03,13.98.06,8.17.13,16.62-.21,24.76-.06,1.54-1.49,4.07-2.24,5.08-1.06,1.43-4.01,2.2-5.43,2.41-2.68.4-5.67-.78-8.18-3.24-2.2-2.16-1.95-6.51-.46-9.31,1.14-2.13,2.49-3.28,4.53-3.86,1.92-.54,2.74-.59,4.51-.61.01-1.08.08-2.16.15-3.21.12-1.86.24-3.63.04-5.25-.67-.09-1.37-.13-2.1-.13Z" style="fill: #fff;"/>
</svg>