<?xml version="1.0" encoding="UTF-8"?>
<svg id="Layer_19" xmlns="http://www.w3.org/2000/svg" viewBox="0 0 376.65 272.99">
  <path d="M328.24,123.96c-4.48,0-7.97-4.24-11.05-7.97-.37-.45-.74-.9-1.1-1.32-3.83-4.55-8.93-7.89-13.85-11.12-6.36-4.17-12.92-8.46-19.7-12.11-8.04-4.32-17.06-8.09-26.83-11.19-63.26-20.09-135.88-4.23-185,40.42-1.5,1.36-3.13,2.67-5.19,2.44-1.18-.13-2.16-.78-2.94-1.3l-13.67-9.05c-5.37-3.56-8.09-6.97-8.31-10.44-.17-2.65,1.16-5.22,3.96-7.64,5.31-4.6,11.24-8.77,16.98-12.8,2.84-1.99,5.76-4.05,8.54-6.1,9.01-6.67,18.33-13.57,28.61-18.63,7-3.44,14.29-5.94,20.49-7.94,38.5-12.38,74.66-16.76,107.49-13.03,10.06,1.14,20.55,3.14,31.17,5.93,21.37,5.61,41.93,14.02,61.11,25,9.75,5.58,17.15,10.74,23.28,16.23,4.19,3.75,8.05,7.92,11.48,12.38,1.27,1.65,2.4,3.47,1.98,5.52-.35,1.74-1.73,2.94-2.73,3.81l-17.95,15.62c-1.32,1.15-2.82,2.46-4.75,3-.67.19-1.35.29-2.02.29ZM323.46,121.11c1.92,1.45,4.07,2.22,6.31,1.66-2.32.58-4.4-.22-6.31-1.66ZM329.78,122.77s0,0,0,0c0,0,0,0,0,0ZM73.05,117.26c-1.01.88-2.01,1.77-3,2.67-1.16,1.05-2.4,2.07-3.78,2.19,1.39-.12,2.62-1.14,3.78-2.19.99-.9,1.99-1.79,3-2.67ZM65.6,122.11s.03,0,.04,0c-.01,0-.03,0-.04,0ZM65.59,122.11s0,0,0,0c0,0,0,0,0,0ZM199.91,69.72c19.43,0,38.41,2.9,56.41,8.62,9.88,3.14,19.03,6.95,27.17,11.33,6.86,3.69,13.45,8.01,19.83,12.19,5.07,3.32,10.29,6.74,14.3,11.51.36.43.73.88,1.11,1.34,3.17,3.86,6.77,8.23,10.98,7.04,1.49-.42,2.81-1.57,3.98-2.58l17.95-15.62c1.02-.89,1.88-1.71,2.08-2.7.26-1.27-.62-2.63-1.6-3.91-3.36-4.36-7.14-8.44-11.24-12.11-6.02-5.4-13.31-10.48-22.93-15.99-19.02-10.89-39.42-19.23-60.62-24.8-10.53-2.77-20.92-4.74-30.89-5.88-32.55-3.7-68.43.66-106.65,12.94-6.13,1.97-13.33,4.44-20.22,7.83-10.13,4.98-19.37,11.82-28.3,18.44l-.4.3h0c-2.69,1.98-5.47,3.94-8.17,5.83-5.7,4-11.59,8.14-16.83,12.68-2.3,1.99-3.4,4.01-3.27,6,.18,2.76,2.67,5.76,7.42,8.9l13.67,9.05c.64.42,1.36.9,2.06.98,1.22.13,2.46-.88,3.62-1.93,24.25-22.04,54.73-37.56,88.14-44.85,14.01-3.06,28.27-4.61,42.4-4.61ZM304.43,103.79c4.47,2.95,8.94,6.09,12.43,10.23.36.43.73.87,1.1,1.33.06.07.11.14.17.21-.06-.07-.11-.14-.17-.21-.38-.46-.74-.9-1.1-1.33-3.49-4.15-7.97-7.28-12.43-10.23ZM41.63,101.21c-.04.35-.05.7-.02,1.04.2,3.12,2.75,6.26,7.78,9.61-4.96-3.3-7.58-6.54-7.78-9.61-.02-.35-.01-.7.02-1.04ZM353.49,103.18c-.3.32-.65.64-1.01.96.33-.28.68-.6,1.01-.96ZM353.44,97.04c.89,1.26,1.55,2.61,1.27,4.01-.01.05-.02.1-.03.14.01-.05.02-.1.03-.15.28-1.4-.38-2.74-1.27-4.01ZM289.15,94.04s0,0,.01,0c0,0,0,0-.01,0ZM254.1,78.69c.64.2,1.28.4,1.92.6,9.83,3.12,18.91,6.91,27,11.26,2.06,1.11,4.1,2.28,6.12,3.48-2.02-1.2-4.06-2.37-6.12-3.48-8.09-4.35-17.17-8.14-27-11.26-.64-.2-1.28-.4-1.92-.6ZM342.43,84.88c3.08,2.83,5.97,5.89,8.64,9.13-2.66-3.24-5.56-6.29-8.64-9.13ZM68.46,78.2c-2.1,1.52-4.24,3.02-6.33,4.49-1.08.76-2.16,1.52-3.25,2.29,1.08-.77,2.17-1.53,3.24-2.28,2.09-1.47,4.23-2.97,6.33-4.49ZM340.02,82.73s0,0,0,0c0,0,0,0,0,0ZM291.07,54.45c9.39,3.94,18.53,8.46,27.38,13.53,8.88,5.08,15.79,9.81,21.56,14.76-5.77-4.95-12.68-9.67-21.56-14.76-8.85-5.06-18-9.58-27.38-13.53ZM254.06,78.68s.01,0,.02,0c0,0-.01,0-.02,0ZM103.87,55.87c-1.58.68-3.16,1.4-4.73,2.17-2.55,1.25-5.04,2.62-7.49,4.08,2.44-1.45,4.94-2.82,7.49-4.08,1.57-.77,3.15-1.49,4.73-2.17ZM203.46,35.89c-26.3,0-54.44,4.77-83.98,14.27-.52.17-1.06.34-1.59.52.54-.18,1.07-.35,1.59-.52,35.49-11.41,68.98-16,99.68-13.68-5.16-.39-10.39-.58-15.71-.58Z" style="fill: #fff;"/>
  <path d="M105.88,153.69l-.94-.5c-5.27-2.83-16.7-11.28-18.4-19.36-.57-2.69-.03-5.1,1.58-7.17,6.19-7.93,17.94-14.3,27.39-19.43l.18-.1c1.27-.69,2.49-1.35,3.65-1.99,21.89-12.11,46.57-20.18,71.37-23.34,13.53-1.72,26.18-.83,40.13.41,2.93.26,5.59,1.01,8.66,1.87.96.27,1.98.56,3.06.84,4.92,1.3,13.06,4.19,17.42,6.18,2.65,1.21,5.13,2.36,7.61,3.5,2.52,1.16,5.02,2.32,7.7,3.54,15.44,7.04,37.54,22.46,38.47,23.11,1.33.93,2.33,2.43,3.04,4.59,1.47,4.41-.92,9.16-7.29,14.5l-13.28,11.14c-.77.64-1.64,1.37-2.77,1.7-3.5,1.01-6.07-2.2-8.14-4.77l-.42-.53c-3.85-4.75-9.41-9.16-13.39-12.01-18.87-13.54-35.64-17.24-61.02-21.72-25.81-4.55-51.91,2.07-82.13,20.84-1.69,1.05-3.47,2.06-5.19,3.05-6.75,3.85-13.71,7.83-16.85,14.67l-.44.97ZM105.41,152.3s0,0,0,0h0c.07-.15.14-.3.21-.44l-.22.44ZM294.48,151.59c-.19.13-.39.25-.59.35.21-.11.4-.23.59-.35ZM99.23,148.24c1.97,1.5,3.86,2.74,5.38,3.61-1.35-.78-3.29-2.03-5.38-3.61ZM105.73,151.65h0s0,0,0,0ZM105.74,151.62s0,0,0,.01c0,0,0,0,0-.01ZM108.46,147.55c-1.05,1.24-1.97,2.59-2.72,4.07.75-1.48,1.67-2.83,2.72-4.07ZM194.77,110.78c5.34,0,10.74.48,16.07,1.42,25.65,4.53,42.62,8.27,61.84,22.06,4.08,2.93,9.78,7.45,13.78,12.38l.42.53c1.78,2.22,3.8,4.75,6.03,4.11.73-.21,1.43-.79,2.04-1.31l13.28-11.14c5.67-4.76,7.86-8.79,6.68-12.34-.57-1.71-1.34-2.92-2.29-3.59-.93-.65-22.92-15.99-38.15-22.93-2.61-1.19-5.05-2.32-7.49-3.44l-.52-.24c-2.38-1.1-4.76-2.2-7.3-3.36-4.21-1.92-12.36-4.81-17.1-6.07-1.09-.29-2.12-.58-3.09-.85-2.98-.84-5.55-1.56-8.3-1.81-13.83-1.23-26.37-2.12-39.7-.42-24.55,3.13-48.99,11.12-70.66,23.1-1.22.67-2.5,1.37-3.84,2.1-9.28,5.03-20.84,11.3-26.77,18.9-1.24,1.58-1.64,3.44-1.2,5.53,1.4,6.65,10.66,14.12,16.49,17.5,3.58-6.83,10.49-10.77,17.18-14.59,1.73-.99,3.49-1.99,5.14-3.02,24.41-15.15,46.47-22.52,67.46-22.52ZM285.76,147.38l.33.41c.12.16.25.31.38.47-.13-.16-.25-.32-.38-.47l-.33-.41ZM108.48,147.53s0,0-.01.01c0,0,0,0,.01-.01ZM108.49,147.52h0s0,0,0,0ZM261.4,128.28c3.53,1.95,7.07,4.19,10.69,6.78,3.85,2.77,9.17,6.97,13.05,11.56-3.89-4.59-9.2-8.8-13.05-11.56-3.62-2.6-7.16-4.83-10.69-6.78ZM313.25,122.12c1.1.8,1.98,2.16,2.6,4.04,1.32,3.98-.96,8.37-6.98,13.42l-5.24,4.39,5.24-4.39c6.02-5.05,8.31-9.44,6.98-13.42-.64-1.91-1.49-3.24-2.6-4.04ZM123.58,136.66c-.3.17-.59.34-.89.51-.47.27-.95.54-1.42.81.46-.27.93-.53,1.39-.79.31-.17.61-.35.92-.53ZM272.87,98.14c.66.3,1.33.61,2.01.92,14.82,6.75,35.94,21.37,38.15,22.91-2.21-1.54-23.3-16.14-38.15-22.91-.68-.31-1.35-.61-2.01-.92ZM194.77,111.78c-1.56,0-3.12.04-4.69.12,3.1-.16,6.19-.16,9.26,0-1.53-.08-3.05-.12-4.57-.12ZM133.25,99.25c-4.58,2.09-9.06,4.35-13.43,6.77-1.16.64-2.39,1.31-3.66,2l-.18.1c-.16.09-.33.18-.49.27.16-.09.33-.18.49-.27,1.33-.72,2.62-1.42,3.83-2.09,4.37-2.42,8.86-4.68,13.43-6.77ZM206.59,81.84c7.89,0,15.79.62,24.15,1.36,2.84.25,5.46.99,8.48,1.84.97.27,1.99.56,3.08.85,4.79,1.27,13.01,4.19,17.26,6.13,2.33,1.06,4.53,2.08,6.71,3.08-2.19-1.01-4.38-2.02-6.71-3.08-4.32-1.97-12.39-4.83-17.26-6.13-1.09-.29-2.11-.58-3.08-.85-3.03-.85-5.64-1.59-8.48-1.84-8.48-.76-16.46-1.38-24.46-1.36h.31ZM198.45,82.08c-2.52.15-5.05.38-7.62.71-6.17.79-12.33,1.88-18.44,3.26,6.11-1.38,12.27-2.47,18.44-3.26,2.57-.33,5.1-.56,7.62-.71ZM198.47,82.08s0,0-.01,0c0,0,0,0,.01,0Z" style="fill: #fff;"/>
  <path d="M144.34,182.09c-.65,0-1.92-.41-11.71-5.61-5.39-2.86-11.91-6.46-14.05-8-.58-.42-.89-1.1-.88-1.91.05-3.76,7.4-11.98,10.99-14.43,17.47-11.9,48.86-23.99,60.1-25.57,5.33-.75,11.63-.84,17.19-.91,1.36-.02,2.67-.04,3.92-.06,21.18-.44,39.96,11.68,58.13,23.4l.19.12c2.22,1.43,4.43,2.86,6.62,4.24,1.66,1.05,3.74,2.36,4.88,4.43,3.49,6.28-3.69,13.01-6.94,15.61l-6.54,5.24c-.92.74-2.07,1.65-3.5,1.94-2.23.44-4.75-.41-6.29-2.11-8.71-9.69-17.33-12.91-26.47-16.32-2-.75-4.01-1.5-6.05-2.32-9.12-3.68-22.85-7.27-36.51-3.5l-2.13.58c-7.5,2.04-16,4.36-22.08,8.34-7.02,4.6-12.19,9.99-18.22,16.55-.09.1-.27.3-.66.3ZM144.34,181.09v.5-.5s0,0,0,0ZM126.42,171.98c2.17,1.2,4.51,2.47,6.68,3.62,4.93,2.61,8.06,4.21,9.76,4.96-2.99-1.4-10.52-5.3-16.44-8.58ZM211.08,127.59c-.38,0-.76,0-1.14.01-1.27.03-2.59.04-3.94.06-5.5.08-11.73.16-16.94.89h0c-11.05,1.56-42,13.48-59.25,25.24-3.73,2.54-10.08,10.23-10.12,12.8,0,.04,0,.22.05.26,3.73,2.68,20.9,11.68,24.21,13.11,5.93-6.45,11.07-11.76,18.17-16.4,6.34-4.15,15.01-6.51,22.65-8.59l2.12-.58c14.2-3.91,28.39-.21,37.79,3.57,2.01.81,4.01,1.56,5.94,2.28,9.43,3.52,18.28,6.82,27.31,16.88,1.06,1.18,2.87,1.79,4.41,1.49.95-.19,1.85-.91,2.64-1.54l6.54-5.24c2.85-2.28,9.18-8.12,6.44-13.07-.9-1.62-2.65-2.73-4.2-3.71-2.22-1.4-4.46-2.85-6.71-4.3l-.23-.15c-17.55-11.32-35.69-23.02-55.75-23.02ZM160.93,165.59c-5.86,4.11-10.43,8.78-15.53,14.29,5.11-5.53,9.72-10.21,15.53-14.29ZM257.26,177.85c1.29,1.38,3.34,2.08,5.18,1.76-1.82.31-3.91-.4-5.18-1.76ZM276.36,168.57c-1.45,1.72-3.08,3.14-4.21,4.04l-6.54,5.24c-.14.11-.29.23-.44.35.15-.12.3-.23.44-.35l6.54-5.24c1.12-.9,2.75-2.32,4.21-4.04ZM234.01,162.58c5.54,2.14,10.9,4.53,16.25,8.69-5.35-4.16-10.72-6.56-16.25-8.69ZM122.1,160.19c-1.91,2.45-3.39,4.9-3.4,6.4,0,.49.15.86.47,1.09.2.14.44.31.72.49-.27-.18-.52-.34-.72-.49-.32-.23-.47-.59-.47-1.08.02-1.45,1.48-3.92,3.4-6.4ZM222.8,158.29c.52.2,1.03.4,1.52.6,1.19.48,2.37.93,3.53,1.37-1.17-.44-2.35-.9-3.53-1.37-.5-.2-1-.4-1.52-.6ZM190.12,154.65c-.98.2-1.97.43-2.95.7l-2.07.57,2.07-.57c.98-.27,1.97-.5,2.95-.7ZM272.1,152.8c.74.47,1.47.94,2.2,1.4.23.14.46.29.69.44-.24-.15-.47-.3-.69-.44-.73-.46-1.47-.93-2.2-1.4ZM191.01,127.31c-.71.08-1.4.16-2.08.26-11.15,1.57-42.31,13.57-59.67,25.41-.02.01-.03.02-.05.03.02-.01.03-.02.05-.03,17.36-11.83,48.53-23.84,59.67-25.41h0c.68-.1,1.37-.18,2.08-.26ZM207.56,126.64c-.51,0-1.02.01-1.53.02-.88.01-1.77.02-2.68.04.9-.01,1.78-.03,2.65-.04.53,0,1.05-.01,1.57-.02ZM210.07,126.6s-.1,0-.15,0c-.27,0-.54.01-.81.02.27,0,.54,0,.81-.02.05,0,.1,0,.15,0Z" style="fill: #fff;"/>
  <path d="M230.91,205.5h-.06c-1.35,0-3.04-.5-3.74-1.89-3.21-6.38-10.54-10.25-21.8-11.5l-.58-.06c-6.7-.74-11.97-1.33-18.01,1.48-2.21,1.03-4.76,3.24-7.23,5.38-3.26,2.83-6.34,5.49-9.14,6.09-2.66.56-5.33-1.04-7.09-2.48-3.82-3.12-6.8-8.17-6.78-11.48.08-11.76,19.32-18.71,35.44-22.46,17.1-3.98,35.67-.04,49.68,10.54,4.77,3.6,9.04,9.38,6.75,14.79-1.36,3.23-4.66,5.06-7.07,6.4l-7.68,4.28c-.73.41-1.63.91-2.69.92h0ZM230.89,204.5h.02c.12,0,.24-.01.35-.03-.12.02-.24.03-.36.03h0ZM225,198.95c1.23,1.26,2.23,2.67,3.01,4.22.5.99,1.84,1.34,2.84,1.34h.02c-1.02,0-2.37-.35-2.86-1.34-.78-1.55-1.78-2.95-3.01-4.22ZM164.17,201.96c1.58,1.23,3.8,2.5,5.94,2.07-1.69.34-3.79-.39-5.94-2.07ZM177.44,199.36c-2.53,2.16-5.07,4.15-7.21,4.64,2.15-.49,4.61-2.41,7.21-4.64ZM196.61,189.43c2.66,0,5.42.31,8.35.63l.57.06c11.98,1.33,19.84,5.56,23.37,12.59.26.52,1.17.81,2,.79.56,0,1.19-.36,1.74-.67l7.68-4.28c2.69-1.5,5.19-3.04,6.2-5.44,1.84-4.35-1.95-9.27-6.12-12.41-13.54-10.23-31.49-14.04-48.02-10.19-12.63,2.94-33.82,9.51-33.89,20.52-.02,2.73,2.69,7.18,6.05,9.92,2.02,1.65,3.94,2.39,5.41,2.08,2.3-.49,5.32-3.11,8.24-5.64,2.57-2.23,5.22-4.53,7.69-5.68,3.4-1.58,6.71-2.29,10.73-2.29ZM200.37,168.25c-2.76.23-5.51.66-8.22,1.29-15.77,3.67-34.59,10.38-34.67,21.49-.02,2.96,2.64,7.49,6.12,10.45-3.42-2.92-6.14-7.54-6.12-10.45.08-11.7,21.75-18.49,34.67-21.49,2.71-.63,5.46-1.06,8.22-1.29ZM245.18,196.52c-1.2,1.07-2.68,1.95-4.22,2.82,1.32-.74,2.9-1.63,4.22-2.82ZM184.65,193.55c-1.09.7-2.22,1.57-3.35,2.5,1.13-.94,2.26-1.81,3.35-2.5ZM205.26,191.11l.16.02c3.09.34,5.89.88,8.41,1.61-2.52-.73-5.32-1.27-8.41-1.61l-.16-.02ZM196.61,190.43c-3.62,0-6.64.59-9.68,1.91,5.58-2.41,10.52-2.09,16.47-1.45-2.36-.26-4.62-.47-6.79-.47ZM229.17,173.02c4.19,1.82,8.17,4.12,11.83,6.89,3.66,2.76,7.02,6.84,6.99,10.91.03-4.07-3.34-8.15-6.99-10.91-3.66-2.77-7.65-5.07-11.83-6.89Z" style="fill: #fff;"/>
  <path d="M207.71,238.88h-.23c-7.21-.28-17.29-1.39-21.63-7.86-3.26-4.86-2.57-13.72-.02-19.46,2.41-5.44,10.06-7.65,14.48-7.42,1.12-.11,7.18-.61,9.31.53.34.18.69.36,1.06.55,2.44,1.25,5.19,2.67,6.6,4.95,3.6,5.85,2.71,10.32,2,13.9-.14.73-.27,1.38-.37,2.03-.49,3.37-1.44,6.88-5.04,9.67-.26.2-.51.4-.76.61-1.54,1.24-3.14,2.52-5.4,2.52ZM198.19,236.87c3.19.66,6.48.89,9.32,1h.03s-.02,0-.03,0c-2.84-.11-6.13-.35-9.32-1ZM213.51,234.76c-.08.07-.17.14-.26.2-.26.21-.52.41-.78.62-.93.75-1.81,1.46-2.8,1.88.98-.42,1.85-1.12,2.79-1.88.26-.21.52-.42.78-.62.09-.07.17-.14.26-.2ZM199.78,206.12c-3.62,0-10.11,1.69-12.12,6.24-2.33,5.25-3.02,13.25-.15,17.54,3.83,5.71,13.27,6.72,20.03,6.97,1.63.1,2.79-.85,4.26-2.04.3-.25.57-.46.84-.67,2.45-1.9,3.7-4.33,4.29-8.37.1-.69.24-1.4.39-2.13.68-3.42,1.45-7.29-1.74-12.47-1.11-1.8-3.6-3.08-5.8-4.21-.38-.19-.74-.38-1.09-.56-1.2-.64-5.58-.56-8.3-.3h-.11c-.18,0-.34,0-.5,0ZM184.87,218.81c-.57,4.28-.14,8.74,1.81,11.65,1.05,1.57,2.48,2.8,4.13,3.78-1.66-.97-3.08-2.21-4.13-3.78-1.95-2.91-2.38-7.37-1.81-11.65ZM217.88,226.19c-.32,2.05-.8,3.72-1.53,5.12.86-1.64,1.27-3.39,1.53-5.12ZM210.52,206.25c1.29.67,2.66,1.39,3.82,2.25-1.16-.87-2.52-1.59-3.82-2.25ZM199.73,205.11c-1.88,0-4.21.4-6.41,1.26,2.54-.96,5.1-1.25,6.46-1.25.18,0,.35,0,.52.01,0,0,.01,0,.03,0-.19,0-.4-.01-.6-.01ZM209.89,205.92c.09.05.18.09.27.14-.09-.05-.18-.09-.27-.14ZM204.51,204.93c-1.47,0-2.97.09-4.08.19.68-.06,3.77-.3,6.19-.11-.66-.05-1.38-.07-2.11-.07Z" style="fill: #fff;"/>
</svg>