<?xml version="1.0" encoding="UTF-8"?>
<svg id="Layer_2" xmlns="http://www.w3.org/2000/svg" viewBox="0 0 58.04 55.44">
  <path d="M39.71,55.29c-.55-.58-3.41-4.79-6.42-9.25-.47-.7-.81-1.2-.94-1.38-6.6-9.56-13.67-18.97-21.02-27.96l-.31-.38c-1.09-1.34-2.22-2.72-3.24-4.15-1.06-1.49-1.96-3.1-2.83-4.66C3.67,5.2,2.45,3.01.71,1.13L0,.36l1.04-.07C7.1-.11,13.25-.1,19.3.33l-.07,1c-5.68-.4-11.43-.43-17.11-.1,1.48,1.8,2.61,3.83,3.71,5.81.85,1.53,1.74,3.12,2.77,4.56,1,1.41,2.12,2.78,3.2,4.1l.31.38c7.36,9.01,14.45,18.44,21.07,28.02.13.18.47.69.94,1.39,1.72,2.55,5.74,8.51,6.32,9.12l-.73.69Z" style="fill: #fff;"/>
  <path d="M45.87,55.35c-2.15,0-4.24-.02-6.18-.07l.03-1c3.92.1,8.47.07,12.87.03,1.9-.01,3.74-.03,5.46-.03v1c-1.71,0-3.55.02-5.45.03-2.23.02-4.51.04-6.72.04Z" style="fill: #fff;"/>
  <path d="M31.66,18.42c-.18,0-.39-.08-.56-.31-2.07-2.77-4.2-5.68-6.32-8.58-2.12-2.9-4.24-5.8-6.31-8.57l.8-.6c2.07,2.77,4.19,5.67,6.32,8.58,2.09,2.86,4.18,5.72,6.22,8.45l.41.4c.04.25-.1.49-.33.59-.07.03-.15.05-.23.05ZM31.66,17.92l-.43.02c.03.22.22.34.39.36l.04-.38ZM31.66,17.82v.02s0-.01,0-.01h0Z" style="fill: #fff;"/>
  <path d="M57.24,54.84c-7.36-9.83-18.36-25.58-25.63-36l-.52-.74.82-.57.52.74c7.27,10.42,18.26,26.15,25.61,35.97l-.8.6Z" style="fill: #fff;"/>
  <path d="M42.41,50.86c-6-8.94-17.64-24.94-26.14-36.62-2.39-3.29-4.56-6.27-6.32-8.7l-.57-.79h.97c.74,0,1.54,0,2.36.01,1.41.02,2.86.04,4.1-.02l.05,1c-1.27.06-2.74.04-4.16.02-.46,0-.92-.01-1.37-.02,1.65,2.27,3.6,4.96,5.74,7.9,8.51,11.69,20.16,27.7,26.17,36.65l-.83.56Z" style="fill: #fff;"/>
  <path d="M44.79,50.9c-.79,0-1.59,0-2.37-.03l.02-1c1.59.03,3.21.03,4.82,0l-.4-.46c-1.57-1.82-3.05-3.53-4.67-5.64-4.46-5.78-8.61-11.93-12.62-17.88-2.01-2.97-4.08-6.04-6.17-9.03-2.58-3.69-5.24-7.51-7.47-11.52l.87-.49c2.2,3.97,4.85,7.76,7.41,11.43,2.09,2.99,4.17,6.07,6.17,9.05,4,5.93,8.15,12.07,12.58,17.82,1.6,2.08,3.08,3.79,4.63,5.59l1.77,2.06-1.04.03c-1.18.04-2.37.06-3.55.06Z" style="fill: #fff;"/>
  <path d="M35.81,24.38l-.64-.77c.84-.71,1.44-1.63,2.08-2.61.42-.65.85-1.31,1.36-1.92,2.1-2.5,4.1-5.04,6.03-7.5,2.8-3.56,5.46-6.95,8.4-10.21-1.05.05-2.11.1-3.17.15-1.4.07-2.8.13-4.16.19-4.62,5.27-9.13,10.77-13.39,16.34l-.79-.61c4.32-5.65,8.88-11.22,13.57-16.56l.14-.16h.21c1.43-.07,2.9-.13,4.37-.2,1.47-.07,2.94-.14,4.38-.2l1.21-.05-.82.89c-3.24,3.51-6.12,7.17-9.16,11.04-1.94,2.47-3.94,5.02-6.05,7.53-.47.56-.88,1.2-1.29,1.82-.65,1-1.32,2.04-2.27,2.84Z" style="fill: #fff;"/>
  <path d="M2.89,55.07l-.82-.57c3.5-5.08,7.63-9.91,11.62-14.59,2.73-3.2,5.56-6.52,8.1-9.82l.79.61c-2.56,3.32-5.39,6.64-8.13,9.86-3.98,4.66-8.09,9.48-11.56,14.51Z" style="fill: #fff;"/>
  <path d="M2.26,55.44h-.19v-1c1.09,0,2.23-.02,3.38-.04,1.54-.03,3.13-.06,4.64-.03,5.06-6.52,10.73-13.34,15.98-19.24l.75.67c-5.29,5.94-11.01,12.82-16.1,19.38l-.15.2h-.25c-1.56-.04-3.23-.01-4.84.02-1.09.02-2.17.04-3.21.04Z" style="fill: #fff;"/>
</svg>