<?xml version="1.0" encoding="UTF-8"?>
<svg id="Layer_2" xmlns="http://www.w3.org/2000/svg" viewBox="0 0 100.96 73.63">
  <path d="M59.6,73.63c-7.39,0-14.8-.3-22.03-.6-4.72-.19-9.61-.4-14.41-.51-6.07-.14-11.45-.51-15.71-3.64-3.61-2.65-5.35-6.59-6.17-9.42C.17,55.68.04,51.68.05,48.28c0-1.62,0-3.23-.03-4.87-.03-2.8-.06-5.69.02-8.79.17-6.55.56-12.1.96-17.99l.13-1.86c.3-4.38,1.71-7.85,4.18-10.33,2.75-2.76,6.79-3.2,11.03-3.44,3.36-.19,6.72-.34,10.08-.5,3.37-.16,6.74-.31,10.11-.5,14.25.1,28.66.58,42.86,1.42,5.78.34,11.31.94,15.34,4.47,3.03,2.65,4.39,6.35,5,9,.76,3.3.82,6.71.82,10.21,0,2.78.1,5.67.2,8.46.35,10.11.72,20.57-3.48,29.71-1.63,3.55-5.17,6.48-9.7,8.05-4.05,1.4-8.34,1.68-12.5,1.95-1.69.11-3.33.14-4.91.17-.94.02-1.88.04-2.85.07-2.57.09-5.14.12-7.72.12ZM36.57,1c-3.34.19-6.71.34-10.09.5-3.36.15-6.72.31-10.07.5-4.04.23-7.88.64-10.38,3.15-2.3,2.31-3.61,5.57-3.89,9.69l-.13,1.86c-.41,5.87-.79,11.42-.96,17.95-.08,3.08-.05,5.96-.02,8.75.02,1.64.03,3.26.03,4.88-.01,3.34.12,7.24,1.17,10.9,1.1,3.8,3.16,6.96,5.8,8.9,4.03,2.95,9.25,3.31,15.15,3.45,4.81.11,9.7.31,14.43.51,9.73.4,19.79.81,29.68.48.98-.03,1.93-.05,2.87-.07,1.65-.03,3.2-.06,4.87-.17,4.09-.26,8.31-.54,12.23-1.9,4.28-1.48,7.6-4.23,9.12-7.53,4.1-8.92,3.74-19.26,3.39-29.26-.1-2.8-.2-5.7-.2-8.5h0c0-3.44-.06-6.78-.79-9.98-.58-2.5-1.85-6-4.68-8.47-3.8-3.32-9.14-3.89-14.74-4.23-14.18-.84-28.58-1.32-42.78-1.42Z" style="fill: #fff;"/>
  <path d="M41.06,50.99h-.01c-.82-.01-1.35-.81-1.33-2.04,0-.64-.02-1.72-.04-2.82-.02-1.19-.05-2.4-.04-3.09.04-2.56,0-4.83-.02-7.03-.04-3.71-.08-7.22.19-11.54.02-.37.06-.93.42-1.35.33-.38,1.13-.89,2.78.01.96.53,1.92,1.05,2.88,1.57,5.84,3.18,11.87,6.46,17.18,10.6.19.15.53.42.61.86.09.56-.32.98-.46,1.12-.65.68-1.45,1.15-2.22,1.6-.91.54-1.86,1.04-2.78,1.53-1.29.68-2.61,1.39-3.84,2.18l-12.38,8.05c-.21.14-.54.35-.94.35ZM41.38,23.63c-.16,0-.3.04-.39.15-.13.15-.16.45-.18.76-.27,4.28-.23,7.77-.19,11.46.03,2.2.05,4.47.02,7.05,0,.68.01,1.88.04,3.06.02,1.11.04,2.21.04,2.85,0,.54.16,1.02.35,1.03h0c.1,0,.27-.11.39-.19l12.38-8.05c1.26-.82,2.61-1.54,3.92-2.23.91-.48,1.85-.98,2.74-1.5.71-.42,1.45-.85,2.01-1.43.18-.19.19-.27.19-.27,0-.02-.05-.09-.23-.23-5.24-4.09-11.24-7.35-17.04-10.51-.96-.52-1.93-1.05-2.88-1.57h0c-.2-.11-.74-.38-1.15-.38Z" style="fill: #fff;"/>
</svg>